<svg xmlns="http://www.w3.org/2000/svg" xmlns:xlink="http://www.w3.org/1999/xlink" width="1328" height="330" viewBox="0 0 1328 330">
  <defs>
    <clipPath id="clip-path">
      <rect id="Rectángulo_409723" data-name="Rectángulo 409723" width="62" height="49" fill="#a530fe" stroke="#707070" stroke-width="1" opacity="0.6"/>
    </clipPath>
    <clipPath id="clip-path-2">
      <rect id="Rectángulo_409722" data-name="Rectángulo 409722" width="143.726" height="140.991" fill="#a530fe"/>
    </clipPath>
    <clipPath id="clip-path-3">
      <rect id="Rectángulo_409719" data-name="Rectángulo 409719" width="88" height="58" fill="#a530fe" stroke="#707070" stroke-width="1" opacity="0.67"/>
    </clipPath>
    <clipPath id="clip-path-4">
      <rect id="Rectángulo_409718" data-name="Rectángulo 409718" width="258.682" height="258.682" fill="#a530fe"/>
    </clipPath>
  </defs>
  <g id="Grupo_1160695" data-name="Grupo 1160695" transform="translate(-136 -290)">
    <g id="Grupo_1160502" data-name="Grupo 1160502">
      <rect id="Rectángulo_407954" data-name="Rectángulo 407954" width="1328" height="330" transform="translate(136 290)" fill="#f5e9fe"/>
    </g>
    <g id="Enmascarar_grupo_1098760" data-name="Enmascarar grupo 1098760" transform="translate(136 290)" opacity="0.33" clip-path="url(#clip-path)">
      <g id="POST_4" transform="translate(0.142 0.005)">
        <g id="Grupo_1160501" data-name="Grupo 1160501">
          <g id="Grupo_1160500" data-name="Grupo 1160500" opacity="0.67" clip-path="url(#clip-path-2)">
            <path id="Trazado_994446" data-name="Trazado 994446" d="M39.068,88.323l2.219-8.686a.412.412,0,0,1,.426-.313,32.377,32.377,0,0,0,13.7-1.931.406.406,0,0,1,.493.183l4.429,7.747a2.583,2.583,0,0,0,1.579,1.225,2.52,2.52,0,0,0,1.962-.277l5.553-3.329a2.69,2.69,0,0,0,.925-3.626l-4.428-7.746a.423.423,0,0,1,.086-.53,33.835,33.835,0,0,0,8.35-11.287.407.407,0,0,1,.475-.227L83.32,61.8a2.586,2.586,0,0,0,3.159-1.893l1.628-6.374a2.656,2.656,0,0,0-1.85-3.234l-8.482-2.272a.426.426,0,0,1-.306-.436,34.487,34.487,0,0,0-1.885-14.027.423.423,0,0,1,.179-.505l7.565-4.534a2.689,2.689,0,0,0,.926-3.626L81,19.212a2.576,2.576,0,0,0-1.578-1.225,2.523,2.523,0,0,0-1.962.277L69.9,22.8a.4.4,0,0,1-.517-.088A33.186,33.186,0,0,0,58.359,14.16a.426.426,0,0,1-.222-.486l2.218-8.686a2.686,2.686,0,0,0-.27-2.01,2.574,2.574,0,0,0-1.577-1.224L52.281.086A2.587,2.587,0,0,0,49.123,1.98L46.9,10.666a.412.412,0,0,1-.426.313,32.358,32.358,0,0,0-13.7,1.93.405.405,0,0,1-.493-.183L27.857,4.978a2.557,2.557,0,0,0-3.541-.948L18.763,7.359a2.628,2.628,0,0,0-1.2,1.616,2.689,2.689,0,0,0,.27,2.009l4.429,7.747a.425.425,0,0,1,.056.229.42.42,0,0,1-.142.3,33.817,33.817,0,0,0-8.35,11.286.407.407,0,0,1-.475.227L4.872,28.5a2.518,2.518,0,0,0-1.962.277,2.623,2.623,0,0,0-1.2,1.616L.084,36.769a2.705,2.705,0,0,0,.27,2.009A2.581,2.581,0,0,0,1.933,40l8.484,2.272a.423.423,0,0,1,.306.437A34.461,34.461,0,0,0,12.607,56.74a.422.422,0,0,1-.179.5L4.862,61.779A2.69,2.69,0,0,0,3.936,65.4L7.187,71.09a2.581,2.581,0,0,0,1.578,1.225,2.522,2.522,0,0,0,1.962-.277L18.293,67.5a.4.4,0,0,1,.517.088,33.168,33.168,0,0,0,11.022,8.55.423.423,0,0,1,.222.486l-2.219,8.687a2.66,2.66,0,0,0,1.849,3.234l6.224,1.667a2.518,2.518,0,0,0,1.962-.277A2.631,2.631,0,0,0,39.068,88.323Zm1.287-25.339a18.2,18.2,0,0,1-14.06-18.561,18.7,18.7,0,0,1,.384-3.1,17.841,17.841,0,0,1,21.156-14,18.4,18.4,0,0,1,5.931,33.151A17.359,17.359,0,0,1,40.355,62.984Z" transform="translate(-27.809 -41.932)" fill="#a530fe"/>
          </g>
        </g>
      </g>
    </g>
    <path id="Trazado_994444" data-name="Trazado 994444" d="M-58.451,905.263l-1.579-6.036a.293.293,0,0,0-.3-.218,23.542,23.542,0,0,1-9.747-1.341.292.292,0,0,0-.351.127l-3.151,5.383a1.832,1.832,0,0,1-1.124.851,1.829,1.829,0,0,1-1.4-.192l-3.951-2.313a1.845,1.845,0,0,1-.658-2.519l3.15-5.383a.289.289,0,0,0-.061-.368,23.556,23.556,0,0,1-5.941-7.843.292.292,0,0,0-.338-.158l-6.036,1.579a1.843,1.843,0,0,1-2.247-1.315l-1.158-4.429a1.841,1.841,0,0,1,1.316-2.247l6.035-1.579a.3.3,0,0,0,.218-.3,23.444,23.444,0,0,1,1.341-9.747.29.29,0,0,0-.127-.351l-5.383-3.151a1.844,1.844,0,0,1-.659-2.52l2.313-3.951a1.827,1.827,0,0,1,1.123-.851,1.833,1.833,0,0,1,1.4.192l5.383,3.151a.292.292,0,0,0,.368-.061,23.547,23.547,0,0,1,7.842-5.941.294.294,0,0,0,.158-.338l-1.578-6.035a1.829,1.829,0,0,1,.192-1.4,1.826,1.826,0,0,1,1.122-.85l4.429-1.159a1.844,1.844,0,0,1,2.247,1.316l1.579,6.035a.292.292,0,0,0,.3.218,23.532,23.532,0,0,1,9.747,1.341.292.292,0,0,0,.351-.127l3.151-5.383a1.843,1.843,0,0,1,2.519-.659L-44,849a1.83,1.83,0,0,1,.851,1.123,1.83,1.83,0,0,1-.192,1.4l-3.151,5.383a.289.289,0,0,0-.04.159.289.289,0,0,0,.1.209,23.544,23.544,0,0,1,5.941,7.842.292.292,0,0,0,.338.158l6.035-1.579a1.829,1.829,0,0,1,1.4.192,1.827,1.827,0,0,1,.851,1.123l1.159,4.429a1.841,1.841,0,0,1-.192,1.4,1.831,1.831,0,0,1-1.123.851l-6.036,1.579a.294.294,0,0,0-.218.3,23.427,23.427,0,0,1-1.341,9.747.29.29,0,0,0,.127.351l5.383,3.151a1.844,1.844,0,0,1,.659,2.519l-2.313,3.951a1.83,1.83,0,0,1-1.123.851,1.831,1.831,0,0,1-1.4-.192l-5.383-3.15a.292.292,0,0,0-.368.061A23.533,23.533,0,0,1-51.88,896.8a.292.292,0,0,0-.158.338l1.579,6.036a1.844,1.844,0,0,1-1.316,2.247l-4.428,1.158a1.829,1.829,0,0,1-1.4-.192A1.827,1.827,0,0,1-58.451,905.263Zm-.916-17.606a12.7,12.7,0,0,0,10-12.9,12.708,12.708,0,0,0-.273-2.155,12.69,12.69,0,0,0-15.052-9.731,12.693,12.693,0,0,0-9.731,15.053,12.591,12.591,0,0,0,5.511,7.983A12.6,12.6,0,0,0-59.367,887.657Z" transform="translate(1482.029 -368.391)" fill="#a530fe" opacity="0.33"/>
    <g id="Enmascarar_grupo_1098758" data-name="Enmascarar grupo 1098758" transform="translate(578 562)" opacity="0.77" clip-path="url(#clip-path-3)">
      <g id="POST_1" transform="translate(244.517 -200.624) rotate(90)">
        <g id="Grupo_1158618" data-name="Grupo 1158618" opacity="0.41">
          <g id="Grupo_1158617" data-name="Grupo 1158617" opacity="0.67" clip-path="url(#clip-path-4)">
            <path id="Trazado_993835" data-name="Trazado 993835" d="M37.4,1.852l2.124,8.121a.393.393,0,0,0,.408.293,31.681,31.681,0,0,1,13.115,1.8.392.392,0,0,0,.472-.171l4.24-7.243a2.478,2.478,0,0,1,3.39-.887l5.317,3.112a2.482,2.482,0,0,1,.886,3.39l-4.239,7.243a.389.389,0,0,0,.082.5,31.7,31.7,0,0,1,7.994,10.553.393.393,0,0,0,.455.213l8.122-2.124a2.48,2.48,0,0,1,3.024,1.77L84.35,34.38A2.477,2.477,0,0,1,82.58,37.4l-8.12,2.124a.4.4,0,0,0-.293.408,31.543,31.543,0,0,1-1.8,13.115.39.39,0,0,0,.171.472l7.243,4.239a2.481,2.481,0,0,1,.887,3.39L77.55,66.469a2.477,2.477,0,0,1-3.39.887l-7.243-4.24a.393.393,0,0,0-.5.082A31.688,31.688,0,0,1,55.87,71.192a.4.4,0,0,0-.213.455l2.124,8.121a2.477,2.477,0,0,1-1.769,3.024l-5.96,1.559a2.482,2.482,0,0,1-3.024-1.77L44.9,74.46a.393.393,0,0,0-.408-.293,31.664,31.664,0,0,1-13.115-1.8.393.393,0,0,0-.472.171l-4.239,7.243a2.48,2.48,0,0,1-3.39.887l-5.317-3.112a2.477,2.477,0,0,1-.887-3.39l4.24-7.243a.392.392,0,0,0-.082-.5,31.683,31.683,0,0,1-7.995-10.552.392.392,0,0,0-.455-.213L4.664,57.782a2.478,2.478,0,0,1-3.024-1.77L.08,50.053a2.478,2.478,0,0,1,1.77-3.024L9.972,44.9a.4.4,0,0,0,.293-.408,31.527,31.527,0,0,1,1.8-13.115.39.39,0,0,0-.171-.472l-7.243-4.24a2.482,2.482,0,0,1-.887-3.39L6.88,17.964a2.477,2.477,0,0,1,3.39-.887l7.243,4.239a.392.392,0,0,0,.5-.082,31.669,31.669,0,0,1,10.552-7.994.393.393,0,0,0,.213-.455L26.649,4.664A2.482,2.482,0,0,1,28.42,1.64L34.378.082A2.478,2.478,0,0,1,37.4,1.852Zm1.233,23.691A17.055,17.055,0,1,0,51.474,27.9,17.082,17.082,0,0,0,38.635,25.543Z" transform="translate(201.464 158.018)" fill="#a530fe"/>
          </g>
        </g>
      </g>
    </g>
    <path id="Trazado_993834" data-name="Trazado 993834" d="M-69.725,885.467l-1.07-4.089A.2.2,0,0,0-71,881.23a15.949,15.949,0,0,1-6.6-.909.2.2,0,0,0-.238.086l-2.135,3.647a1.241,1.241,0,0,1-.761.577,1.239,1.239,0,0,1-.945-.13l-2.677-1.567a1.25,1.25,0,0,1-.446-1.707l2.134-3.646a.2.2,0,0,0-.041-.249,15.959,15.959,0,0,1-4.025-5.313.2.2,0,0,0-.229-.107l-4.089,1.069a1.249,1.249,0,0,1-1.522-.891l-.785-3a1.247,1.247,0,0,1,.891-1.522l4.088-1.07a.2.2,0,0,0,.147-.205,15.882,15.882,0,0,1,.908-6.6.2.2,0,0,0-.086-.238l-3.646-2.134a1.249,1.249,0,0,1-.446-1.707l1.567-2.676a1.238,1.238,0,0,1,.761-.577,1.241,1.241,0,0,1,.946.13l3.646,2.135a.2.2,0,0,0,.249-.041,15.954,15.954,0,0,1,5.313-4.025.2.2,0,0,0,.107-.229l-1.069-4.089a1.239,1.239,0,0,1,.13-.946,1.238,1.238,0,0,1,.76-.576l3-.785a1.249,1.249,0,0,1,1.522.891l1.07,4.089a.2.2,0,0,0,.205.148,15.942,15.942,0,0,1,6.6.908.2.2,0,0,0,.238-.086l2.135-3.647a1.249,1.249,0,0,1,1.707-.446l2.677,1.567a1.24,1.24,0,0,1,.577.761,1.24,1.24,0,0,1-.13.946l-2.135,3.647a.2.2,0,0,0-.027.108.2.2,0,0,0,.068.141,15.949,15.949,0,0,1,4.025,5.313.2.2,0,0,0,.229.107l4.089-1.069a1.239,1.239,0,0,1,.946.13,1.238,1.238,0,0,1,.577.761l.785,3a1.247,1.247,0,0,1-.13.946,1.24,1.24,0,0,1-.761.577l-4.089,1.069a.2.2,0,0,0-.147.205,15.871,15.871,0,0,1-.908,6.6.2.2,0,0,0,.086.238l3.647,2.135a1.25,1.25,0,0,1,.446,1.707l-1.567,2.676a1.239,1.239,0,0,1-.761.577,1.241,1.241,0,0,1-.946-.13l-3.647-2.134a.2.2,0,0,0-.249.041,15.942,15.942,0,0,1-5.313,4.025.2.2,0,0,0-.107.229l1.07,4.089a1.249,1.249,0,0,1-.891,1.522l-3,.785a1.239,1.239,0,0,1-.946-.13A1.237,1.237,0,0,1-69.725,885.467Zm-.621-11.927a8.6,8.6,0,0,0,6.777-8.737,8.611,8.611,0,0,0-.185-1.46,8.6,8.6,0,0,0-10.2-6.592,8.6,8.6,0,0,0-6.592,10.2,8.53,8.53,0,0,0,3.733,5.408A8.534,8.534,0,0,0-70.346,873.54Z" transform="translate(882.149 -515.636)" fill="#a530fe" opacity="0.31"/>
    <g id="Enmascarar_grupo_1098759" data-name="Enmascarar grupo 1098759" transform="translate(1402 290)" opacity="0.29" clip-path="url(#clip-path)">
      <g id="POST_4-2" data-name="POST_4" transform="translate(-81.868 0.005)">
        <g id="Grupo_1158620" data-name="Grupo 1158620">
          <g id="Grupo_1158619" data-name="Grupo 1158619" opacity="0.67" clip-path="url(#clip-path-2)">
            <path id="Trazado_993836" data-name="Trazado 993836" d="M49.124,88.323l-2.219-8.686a.412.412,0,0,0-.426-.313,32.377,32.377,0,0,1-13.7-1.931.406.406,0,0,0-.493.183l-4.429,7.747a2.583,2.583,0,0,1-1.579,1.225,2.52,2.52,0,0,1-1.962-.277l-5.553-3.329a2.69,2.69,0,0,1-.925-3.626l4.428-7.746a.423.423,0,0,0-.086-.53,33.835,33.835,0,0,1-8.35-11.287.407.407,0,0,0-.475-.227L4.872,61.8a2.586,2.586,0,0,1-3.159-1.893L.086,53.533A2.656,2.656,0,0,1,1.935,50.3l8.482-2.272a.426.426,0,0,0,.306-.436,34.487,34.487,0,0,1,1.885-14.027.423.423,0,0,0-.179-.505L4.863,28.524A2.689,2.689,0,0,1,3.937,24.9l3.251-5.686a2.576,2.576,0,0,1,1.578-1.225,2.523,2.523,0,0,1,1.962.277L18.294,22.8a.4.4,0,0,0,.517-.088A33.186,33.186,0,0,1,29.833,14.16a.426.426,0,0,0,.222-.486L27.837,4.988a2.686,2.686,0,0,1,.27-2.01,2.574,2.574,0,0,1,1.577-1.224L35.91.086A2.587,2.587,0,0,1,39.069,1.98l2.219,8.686a.412.412,0,0,0,.426.313,32.358,32.358,0,0,1,13.7,1.93.405.405,0,0,0,.493-.183l4.429-7.748a2.557,2.557,0,0,1,3.541-.948l5.553,3.329a2.628,2.628,0,0,1,1.2,1.616,2.689,2.689,0,0,1-.27,2.009l-4.429,7.747a.425.425,0,0,0-.056.229.42.42,0,0,0,.142.3,33.817,33.817,0,0,1,8.35,11.286.407.407,0,0,0,.475.227L83.32,28.5a2.518,2.518,0,0,1,1.962.277,2.623,2.623,0,0,1,1.2,1.616l1.629,6.374a2.705,2.705,0,0,1-.27,2.009A2.581,2.581,0,0,1,86.259,40l-8.484,2.272a.423.423,0,0,0-.306.437A34.461,34.461,0,0,1,75.585,56.74a.422.422,0,0,0,.179.5l7.566,4.535a2.69,2.69,0,0,1,.926,3.626L81.005,71.09a2.581,2.581,0,0,1-1.578,1.225,2.522,2.522,0,0,1-1.962-.277L69.9,67.5a.4.4,0,0,0-.517.088,33.168,33.168,0,0,1-11.022,8.55.423.423,0,0,0-.222.486l2.219,8.687a2.66,2.66,0,0,1-1.849,3.234l-6.224,1.667a2.518,2.518,0,0,1-1.962-.277A2.631,2.631,0,0,1,49.124,88.323ZM47.837,62.984A18.2,18.2,0,0,0,61.9,44.423a18.7,18.7,0,0,0-.384-3.1,17.841,17.841,0,0,0-21.156-14,18.4,18.4,0,0,0-5.931,33.151A17.359,17.359,0,0,0,47.837,62.984Z" transform="translate(83.343 -41.932)" fill="#a530fe"/>
          </g>
        </g>
      </g>
    </g>
  </g>
</svg>
