<svg xmlns="http://www.w3.org/2000/svg" xmlns:xlink="http://www.w3.org/1999/xlink" width="110" height="110" viewBox="0 0 110 110">
  <defs>
    <filter id="Trazado_982547" x="0" y="0" width="110" height="110" filterUnits="userSpaceOnUse">
      <feOffset dy="3" input="SourceAlpha"/>
      <feGaussianBlur stdDeviation="3" result="blur"/>
      <feFlood flood-opacity="0.161"/>
      <feComposite operator="in" in2="blur"/>
      <feComposite in="SourceGraphic"/>
    </filter>
  </defs>
  <g id="Grupo_1160794" data-name="Grupo 1160794" transform="translate(-4840 -3640)">
    <g id="Grupo_1158946" data-name="Grupo 1158946" transform="translate(4039 -165)">
      <g id="Grupo_1157405" data-name="Grupo 1157405" transform="translate(1 3016)">
        <g id="Grupo_1155792" data-name="Grupo 1155792" transform="translate(-1 -3894.666)">
          <g id="Grupo_1154703" data-name="Grupo 1154703" transform="translate(0 1465.666)">
            <g id="Grupo_1150789" data-name="Grupo 1150789" transform="translate(3 2320)">
              <g id="Grupo_1154212" data-name="Grupo 1154212" transform="translate(-236 -5809)">
                <g id="Grupo_1152583" data-name="Grupo 1152583" transform="translate(1043 6713)">
                  <g id="Grupo_1146973" data-name="Grupo 1146973" transform="translate(0 0)">
                    <g id="Grupo_1146954" data-name="Grupo 1146954">
                      <g transform="matrix(1, 0, 0, 1, -9, -6)" filter="url(#Trazado_982547)">
                        <g id="Trazado_982547-2" data-name="Trazado 982547" transform="translate(9 6)" fill="#f5e9fe">
                          <path d="M 46 90.49987030029297 C 39.99187850952148 90.49987030029297 34.16426849365234 89.32350921630859 28.67905426025391 87.00345611572266 C 23.38019943237305 84.76224517822266 18.62104034423828 81.55341339111328 14.53374671936035 77.46613311767578 C 10.44646644592285 73.37885284423828 7.237639904022217 68.61969757080078 4.996413230895996 63.32085418701172 C 2.676359891891479 57.83565521240234 1.5 52.008056640625 1.5 45.99993515014648 C 1.5 39.99181365966797 2.676359891891479 34.16421508789062 4.996413230895996 28.67901420593262 C 7.237639904022217 23.38017463684082 10.44646644592285 18.62101554870605 14.53374671936035 14.53373527526855 C 18.62104034423828 10.44645500183105 23.38019943237305 7.23762845993042 28.67905426025391 4.996415138244629 C 34.16426849365234 2.676361799240112 39.99187850952148 1.500001788139343 46 1.500001788139343 C 52.00812149047852 1.500001788139343 57.83573150634766 2.676361799240112 63.32094573974609 4.996415138244629 C 68.61979675292969 7.23762845993042 73.37895965576172 10.44645500183105 77.46625518798828 14.53373527526855 C 81.55353546142578 18.62101554870605 84.76235961914062 23.38017463684082 87.00358581542969 28.67901420593262 C 89.32363891601562 34.16421508789062 90.5 39.99181365966797 90.5 45.99993515014648 C 90.5 52.008056640625 89.32363891601562 57.83565521240234 87.00358581542969 63.32085418701172 C 84.76235961914062 68.61969757080078 81.55353546142578 73.37885284423828 77.46625518798828 77.46613311767578 C 73.37895965576172 81.55341339111328 68.61979675292969 84.76224517822266 63.32094573974609 87.00345611572266 C 57.83573150634766 89.32350921630859 52.00812149047852 90.49987030029297 46 90.49987030029297 Z" stroke="none"/>
                          <path d="M 46 2.999992370605469 C 40.1937141418457 2.999992370605469 34.56269836425781 4.136489868164062 29.26337051391602 6.377906799316406 C 24.14332580566406 8.543502807617188 19.54441070556641 11.64437866210938 15.59439849853516 15.59437561035156 C 11.64440155029297 19.54439544677734 8.54351806640625 24.14329528808594 6.377914428710938 29.26333618164062 C 4.136497497558594 34.56264877319336 3 40.19366455078125 3 45.99993515014648 C 3 51.80620574951172 4.136497497558594 57.43720626831055 6.377914428710938 62.73651885986328 C 8.54351806640625 67.8565673828125 11.64440155029297 72.45545959472656 15.59439849853516 76.40547943115234 C 19.54441070556641 80.35547637939453 24.14332580566406 83.45635223388672 29.26337051391602 85.6219482421875 C 34.56269836425781 87.86336517333984 40.1937141418457 88.99986267089844 46 88.99986267089844 C 51.8062858581543 88.99986267089844 57.43730163574219 87.86336517333984 62.73661422729492 85.6219482421875 C 67.85667419433594 83.45635223388672 72.45557403564453 80.35547637939453 76.40558624267578 76.40547943115234 C 80.35559844970703 72.45545959472656 83.45647430419922 67.8565673828125 85.6220703125 62.73651885986328 C 87.86350250244141 57.43720626831055 89 51.80620574951172 89 45.99993515014648 C 89 40.19366455078125 87.86350250244141 34.56264877319336 85.6220703125 29.26333618164062 C 83.45647430419922 24.14329528808594 80.35559844970703 19.54439544677734 76.40558624267578 15.59437561035156 C 72.45557403564453 11.64437866210938 67.85667419433594 8.543502807617188 62.73661422729492 6.377906799316406 C 57.43730163574219 4.136489868164062 51.8062858581543 2.999992370605469 46 2.999992370605469 M 46 -7.62939453125e-06 C 71.40509033203125 -7.62939453125e-06 92 20.59486389160156 92 45.99993515014648 C 92 71.40499114990234 71.40509033203125 91.99986267089844 46 91.99986267089844 C 20.59490203857422 91.99986267089844 0 71.40499114990234 0 45.99993515014648 C 0 20.59486389160156 20.59490203857422 -7.62939453125e-06 46 -7.62939453125e-06 Z" stroke="none" fill="#a530fe"/>
                        </g>
                      </g>
                    </g>
                  </g>
                </g>
              </g>
            </g>
          </g>
        </g>
      </g>
    </g>
    <g id="global" transform="translate(4868 3665)">
      <path id="Trazado_994836" data-name="Trazado 994836" d="M0,0H15.279V8.488H0Z" transform="translate(52.203 22.07) rotate(180)" fill="#ffe678"/>
      <path id="Trazado_994837" data-name="Trazado 994837" d="M0,0H15.279V1.7H0Z" transform="translate(52.203 15.279) rotate(180)" fill="#ffd248"/>
      <path id="Trazado_994838" data-name="Trazado 994838" d="M0,0H12.732V8.488H0Z" transform="translate(52.203 22.07) rotate(180)" fill="#ffd248"/>
      <path id="Trazado_994839" data-name="Trazado 994839" d="M0,0H12.732V1.7H0Z" transform="translate(52.203 15.279) rotate(180)" fill="#fcbe14"/>
      <path id="Trazado_994840" data-name="Trazado 994840" d="M0,0H4.244V4.244H0Z" transform="translate(46.686 22.07) rotate(180)" fill="#a0f0ff"/>
      <path id="Trazado_994841" data-name="Trazado 994841" d="M58.794,6l2.971,5.093H55.824L54.833,6Z" transform="translate(-8.289 -0.907)" fill="#fa3c64"/>
      <path id="Trazado_994842" data-name="Trazado 994842" d="M44.971,6h3.961l-.991,5.093H42Z" transform="translate(-6.349 -0.907)" fill="#fa3c64"/>
      <path id="Trazado_994843" data-name="Trazado 994843" d="M53.951,6l.991,5.093H49L49.991,6Z" transform="translate(-7.407 -0.907)" fill="#ff648c"/>
      <path id="Trazado_994844" data-name="Trazado 994844" d="M0,0H5.942V3.4H0Z" transform="translate(41.593 13.581) rotate(180)" fill="#f01e60"/>
      <path id="Trazado_994845" data-name="Trazado 994845" d="M0,0H5.942V3.4H0Z" transform="translate(47.534 13.581) rotate(180)" fill="#fa3c64"/>
      <path id="Trazado_994846" data-name="Trazado 994846" d="M0,0H5.942V3.4H0Z" transform="translate(53.476 13.581) rotate(180)" fill="#f01e60"/>
      <path id="Trazado_994847" data-name="Trazado 994847" d="M45.5,1H57.384V5.244H45.5Z" transform="translate(-6.878 -0.151)" fill="#fff5f5"/>
      <path id="Trazado_994848" data-name="Trazado 994848" d="M48.5,3h9.337V5.546H48.5Z" transform="translate(-7.332 -0.454)" fill="#f4e9e9"/>
      <path id="Trazado_994849" data-name="Trazado 994849" d="M0,0H15.279V8.488H0Z" transform="translate(17.401 22.07) rotate(180)" fill="#ffe678"/>
      <path id="Trazado_994850" data-name="Trazado 994850" d="M0,0H15.279V1.7H0Z" transform="translate(17.401 15.279) rotate(180)" fill="#ffd248"/>
      <path id="Trazado_994851" data-name="Trazado 994851" d="M0,0H12.732V8.488H0Z" transform="translate(17.401 22.07) rotate(180)" fill="#ffd248"/>
      <path id="Trazado_994852" data-name="Trazado 994852" d="M0,0H12.732V1.7H0Z" transform="translate(17.401 15.279) rotate(180)" fill="#fcbe14"/>
      <path id="Trazado_994853" data-name="Trazado 994853" d="M0,0H4.244V4.244H0Z" transform="translate(11.884 22.07) rotate(180)" fill="#a0f0ff"/>
      <path id="Trazado_994854" data-name="Trazado 994854" d="M17.794,6l2.971,5.093H14.824L13.833,6Z" transform="translate(-2.091 -0.907)" fill="#fa3c64"/>
      <path id="Trazado_994855" data-name="Trazado 994855" d="M3.971,6H7.932l-.991,5.093H1Z" transform="translate(-0.151 -0.907)" fill="#fa3c64"/>
      <path id="Trazado_994856" data-name="Trazado 994856" d="M12.951,6l.991,5.093H8L8.991,6Z" transform="translate(-1.209 -0.907)" fill="#ff648c"/>
      <path id="Trazado_994857" data-name="Trazado 994857" d="M0,0H5.942V3.4H0Z" transform="translate(6.791 13.581) rotate(180)" fill="#f01e60"/>
      <path id="Trazado_994858" data-name="Trazado 994858" d="M0,0H5.942V3.4H0Z" transform="translate(12.732 13.581) rotate(180)" fill="#fa3c64"/>
      <path id="Trazado_994859" data-name="Trazado 994859" d="M0,0H5.942V3.4H0Z" transform="translate(18.674 13.581) rotate(180)" fill="#f01e60"/>
      <path id="Trazado_994860" data-name="Trazado 994860" d="M4.5,1H16.384V5.244H4.5Z" transform="translate(-0.68 -0.151)" fill="#fff5f5"/>
      <path id="Trazado_994861" data-name="Trazado 994861" d="M7.5,3h9.337V5.546H7.5Z" transform="translate(-1.134 -0.454)" fill="#f4e9e9"/>
      <path id="Trazado_994862" data-name="Trazado 994862" d="M0,0H15.279V8.488H0Z" transform="translate(52.203 53.476) rotate(180)" fill="#ffe678"/>
      <path id="Trazado_994863" data-name="Trazado 994863" d="M0,0H15.279V1.7H0Z" transform="translate(52.203 46.686) rotate(180)" fill="#ffd248"/>
      <path id="Trazado_994864" data-name="Trazado 994864" d="M0,0H12.732V8.488H0Z" transform="translate(52.203 53.476) rotate(180)" fill="#ffd248"/>
      <path id="Trazado_994865" data-name="Trazado 994865" d="M0,0H12.732V1.7H0Z" transform="translate(52.203 46.686) rotate(180)" fill="#fcbe14"/>
      <path id="Trazado_994866" data-name="Trazado 994866" d="M0,0H4.244V4.244H0Z" transform="translate(46.686 53.476) rotate(180)" fill="#a0f0ff"/>
      <path id="Trazado_994867" data-name="Trazado 994867" d="M58.794,43l2.971,5.093H55.824L54.833,43Z" transform="translate(-8.289 -6.5)" fill="#fa3c64"/>
      <path id="Trazado_994868" data-name="Trazado 994868" d="M44.971,43h3.961l-.991,5.093H42Z" transform="translate(-6.349 -6.5)" fill="#fa3c64"/>
      <path id="Trazado_994869" data-name="Trazado 994869" d="M53.951,43l.991,5.093H49L49.991,43Z" transform="translate(-7.407 -6.5)" fill="#ff648c"/>
      <path id="Trazado_994870" data-name="Trazado 994870" d="M0,0H5.942V3.4H0Z" transform="translate(41.593 44.988) rotate(180)" fill="#f01e60"/>
      <path id="Trazado_994871" data-name="Trazado 994871" d="M0,0H5.942V3.4H0Z" transform="translate(47.534 44.988) rotate(180)" fill="#fa3c64"/>
      <path id="Trazado_994872" data-name="Trazado 994872" d="M0,0H5.942V3.4H0Z" transform="translate(53.476 44.988) rotate(180)" fill="#f01e60"/>
      <path id="Trazado_994873" data-name="Trazado 994873" d="M45.5,38H57.384v4.244H45.5Z" transform="translate(-6.878 -5.745)" fill="#fff5f5"/>
      <path id="Trazado_994874" data-name="Trazado 994874" d="M48.5,40h9.337v2.546H48.5Z" transform="translate(-7.332 -6.047)" fill="#f4e9e9"/>
      <path id="Trazado_994875" data-name="Trazado 994875" d="M0,0H15.279V8.488H0Z" transform="translate(17.401 53.476) rotate(180)" fill="#ffe678"/>
      <path id="Trazado_994876" data-name="Trazado 994876" d="M0,0H15.279V1.7H0Z" transform="translate(17.401 46.686) rotate(180)" fill="#ffd248"/>
      <path id="Trazado_994877" data-name="Trazado 994877" d="M0,0H12.732V8.488H0Z" transform="translate(17.401 53.476) rotate(180)" fill="#ffd248"/>
      <path id="Trazado_994878" data-name="Trazado 994878" d="M0,0H12.732V1.7H0Z" transform="translate(17.401 46.686) rotate(180)" fill="#fcbe14"/>
      <path id="Trazado_994879" data-name="Trazado 994879" d="M0,0H4.244V4.244H0Z" transform="translate(11.884 53.476) rotate(180)" fill="#a0f0ff"/>
      <path id="Trazado_994880" data-name="Trazado 994880" d="M17.794,43l2.971,5.093H14.824L13.833,43Z" transform="translate(-2.091 -6.5)" fill="#fa3c64"/>
      <path id="Trazado_994881" data-name="Trazado 994881" d="M3.971,43H7.932l-.991,5.093H1Z" transform="translate(-0.151 -6.5)" fill="#fa3c64"/>
      <path id="Trazado_994882" data-name="Trazado 994882" d="M12.951,43l.991,5.093H8L8.991,43Z" transform="translate(-1.209 -6.5)" fill="#ff648c"/>
      <path id="Trazado_994883" data-name="Trazado 994883" d="M0,0H5.942V3.4H0Z" transform="translate(6.791 44.988) rotate(180)" fill="#f01e60"/>
      <path id="Trazado_994884" data-name="Trazado 994884" d="M0,0H5.942V3.4H0Z" transform="translate(12.732 44.988) rotate(180)" fill="#fa3c64"/>
      <path id="Trazado_994885" data-name="Trazado 994885" d="M0,0H5.942V3.4H0Z" transform="translate(18.674 44.988) rotate(180)" fill="#f01e60"/>
      <path id="Trazado_994886" data-name="Trazado 994886" d="M4.5,38H16.384v4.244H4.5Z" transform="translate(-0.68 -5.745)" fill="#fff5f5"/>
      <path id="Trazado_994887" data-name="Trazado 994887" d="M7.5,40h9.337v2.546H7.5Z" transform="translate(-1.134 -6.047)" fill="#f4e9e9"/>
      <circle id="Elipse_11825" data-name="Elipse 11825" cx="15" cy="15" r="15" transform="translate(12 13)" fill="#befaff"/>
      <path id="Trazado_994888" data-name="Trazado 994888" d="M45.013,30.582a15.248,15.248,0,0,0-5.562-11.791,15.279,15.279,0,0,0-16.887,25.28A15.274,15.274,0,0,0,45.013,30.582Z" transform="translate(-2.572 -2.571)" fill="#a0f0ff"/>
      <path id="Trazado_994889" data-name="Trazado 994889" d="M19.25,28.046l1.273,1.91V32.5l2.546,1.273,5.73.637,3.183-1.91-1.273-2.546-3.183-1.91L26.253,25.5H21.16Z" transform="translate(-2.91 -3.855)" fill="#6478ff"/>
      <path id="Trazado_994890" data-name="Trazado 994890" d="M47.959,31.475a15.208,15.208,0,0,0-2.625-8.564l-1.832,2.2-.637,1.91-3.183,1.91-.637,3.82-1.91,2.546.637,3.183L36.5,42.3l.526,3.826A15.279,15.279,0,0,0,47.959,31.475Z" transform="translate(-5.518 -3.464)" fill="#6478ff"/>
      <path id="Trazado_994891" data-name="Trazado 994891" d="M15.232,39.463a15.279,15.279,0,0,0,14.233,9.723,15.473,15.473,0,0,0,1.657-.091l-1.657-3.729v-3.82l-1.91-1.91L24.372,39l-3.183,1.91L18.006,39Z" transform="translate(-2.303 -5.896)" fill="#788cff"/>
      <path id="Trazado_994892" data-name="Trazado 994892" d="M29.808,41.546l-1.91-1.91L24.715,39l-3.183,1.91L18.349,39l-.849.141a15.271,15.271,0,0,0,5.115,8.238,15.183,15.183,0,0,0,7.193,1.807,15.472,15.472,0,0,0,1.657-.091l-1.657-3.729Z" transform="translate(-2.646 -5.896)" fill="#6478ff"/>
      <path id="Trazado_994893" data-name="Trazado 994893" d="M53.052,22.07V14.43h.424a.849.849,0,0,0,.849-.849v-3.4a.849.849,0,0,0-.115-.424l-2.855-4.9V.849A.849.849,0,0,0,50.505,0H38.622a.849.849,0,0,0-.849.849V4.863l-2.855,4.9a.849.849,0,0,0-.115.424v3.4a.84.84,0,0,0,.052.255,16.1,16.1,0,0,0-15.382,0,.84.84,0,0,0,.052-.255v-3.4a.849.849,0,0,0-.115-.424l-2.855-4.9V.849A.849.849,0,0,0,15.7,0H3.82a.849.849,0,0,0-.849.849V4.863L.115,9.762A.849.849,0,0,0,0,10.186v3.4a.849.849,0,0,0,.849.849h.424V22.07a.849.849,0,0,0,.849.849h9.75a15.91,15.91,0,0,0-.47,8.488H3.82a.849.849,0,0,0-.849.849V36.27l-2.855,4.9A.849.849,0,0,0,0,41.593v3.4a.849.849,0,0,0,.849.849h.424v7.639a.849.849,0,0,0,.849.849H17.4a.849.849,0,0,0,.849-.849V45.837h.424a.849.849,0,0,0,.849-.849V42.21a16.089,16.089,0,0,0,15.279,0v2.778a.849.849,0,0,0,.849.849h.424v7.639a.849.849,0,0,0,.849.849H52.2a.849.849,0,0,0,.849-.849V45.837h.424a.849.849,0,0,0,.849-.849v-3.4a.849.849,0,0,0-.115-.424l-2.855-4.9V32.255a.849.849,0,0,0-.849-.849H42.924a15.91,15.91,0,0,0-.47-8.488H52.2A.849.849,0,0,0,53.052,22.07Zm-.424-9.337H48.383v-1.7h4.244ZM52,9.337H48.234l-.66-3.4h2.444ZM39.47,1.7H49.656V4.244H39.47Zm7.215,9.337v1.7H42.441v-1.7Zm-4.063-1.7.66-3.4h2.562l.66,3.4Zm-3.512-3.4h2.444l-.66,3.4H37.129ZM36.5,11.035h4.244v1.7H36.5Zm-.424,3.4v.152c-.081-.054-.17-.1-.25-.152Zm-17.825,0h.25c-.085.053-.17.1-.25.152ZM17.2,9.337H13.432l-.66-3.4h2.444Zm.629,1.7v1.7H13.581v-1.7ZM4.669,1.7H14.854V4.244H4.669Zm7.215,9.337v1.7H7.639v-1.7ZM7.82,9.337l.66-3.4h2.562l.66,3.4Zm-3.512-3.4H6.752l-.66,3.4H2.327ZM1.7,12.732v-1.7H5.942v1.7Zm9.337,8.488H8.488V18.674h2.546Zm-3.4-4.244a.849.849,0,0,0-.849.849v3.4H2.971V14.43H16.552V15.9a16.213,16.213,0,0,0-3.82,4.956V17.825a.849.849,0,0,0-.849-.849ZM4.669,33.1h7.2a16.054,16.054,0,0,0,1.092,2.546h-8.3Zm9.369,4.244a16.245,16.245,0,0,0,3.079,3.258l.081.138H13.432l-.66-3.4Zm-2.153,5.093v1.7H7.639v-1.7Zm-4.063-1.7.66-3.4h2.562l.66,3.4Zm-3.512-3.4H6.752l-.66,3.4H2.327ZM1.7,44.139v-1.7H5.942v1.7Zm9.337,8.488H8.488V50.081h2.546Zm5.517,0h-3.82v-3.4a.849.849,0,0,0-.849-.849H7.639a.849.849,0,0,0-.849.849v3.4H2.971V45.837H16.552Zm1.273-8.488H13.581v-1.7h4.244Zm9.337-1.7a14.43,14.43,0,0,1-13-8.219l1.377-.229,2.915,1.749a.849.849,0,0,0,.874,0l2.9-1.74,2.609.521L26.314,36V39.47a.849.849,0,0,0,.073.345l1.159,2.607c-.128,0-.254.02-.383.02Zm3.4-.424c-.4.1-.816.177-1.232.241l-1.32-2.967v-3.64a.849.849,0,0,0-.249-.6l-1.91-1.91a.849.849,0,0,0-.434-.232l-3.183-.637a.854.854,0,0,0-.6.1l-2.746,1.648L16.14,32.377a.856.856,0,0,0-.577-.11l-2.067.345A14.41,14.41,0,0,1,38.732,19.424l-1.4,1.678a.849.849,0,0,0-.154.275l-.537,1.613-2.914,1.749a.849.849,0,0,0-.4.588l-.6,3.615-1.786,2.38a.844.844,0,0,0-.153.679l.594,2.962-1.2,3.606a.854.854,0,0,0-.036.385Zm1.644-.509-.358-2.6,1.211-3.632a.839.839,0,0,0,.026-.435l-.562-2.811,1.682-2.237a.849.849,0,0,0,.158-.37l.573-3.433,2.847-1.709a.849.849,0,0,0,.368-.459l.586-1.754.967-1.16a14.385,14.385,0,0,1-7.5,20.609Zm8.08-4.159h1.266l-.66,3.4H37.129l.081-.138a16.245,16.245,0,0,0,3.079-3.258ZM36.5,44.139v-1.7h4.244v1.7Zm9.337,8.488H43.29V50.081h2.546Zm5.517,0h-3.82v-3.4a.849.849,0,0,0-.849-.849H42.441a.849.849,0,0,0-.849.849v3.4h-3.82V45.837H51.354ZM46.686,42.441v1.7H42.441v-1.7Zm-4.063-1.7.66-3.4h2.562l.66,3.4Zm10.005,3.4H48.383v-1.7h4.244ZM52,40.744H48.234l-.66-3.4h2.444ZM49.656,33.1v2.546h-8.3A16.054,16.054,0,0,0,42.453,33.1Zm-3.82-11.884H43.29V18.674h2.546Zm5.517,0h-3.82v-3.4a.849.849,0,0,0-.849-.849H42.441a.849.849,0,0,0-.849.849v3.027a16.213,16.213,0,0,0-3.82-4.956V14.43H51.354Z"/>
      <path id="Trazado_994894" data-name="Trazado 994894" d="M31.318,29.423A.849.849,0,0,0,31,29.075l-2.971-1.783-1.159-2.323A.849.849,0,0,0,26.1,24.5H21.009a.849.849,0,0,0-.679.34l-1.91,2.546a.849.849,0,0,0-.027.98l1.131,1.7v2.292a.849.849,0,0,0,.469.764l2.546,1.273a.876.876,0,0,0,.286.085l5.73.637A.849.849,0,0,0,29.085,35l3.183-1.91a.849.849,0,0,0,.323-1.1Zm-2.861,3.961-5.294-.589-1.942-.968V29.805a.854.854,0,0,0-.143-.471l-.94-1.41L21.433,26.2h4.144l1.038,2.077a.849.849,0,0,0,.323.348l2.971,1.783.811,1.622Z" transform="translate(-2.759 -3.704)"/>
    </g>
  </g>
</svg>
