<svg xmlns="http://www.w3.org/2000/svg" xmlns:xlink="http://www.w3.org/1999/xlink" width="400" height="173.052" viewBox="0 0 400 173.052">
  <defs>
    <clipPath id="clip-path">
      <rect id="Rectángulo_419882" data-name="Rectángulo 419882" width="270.578" height="173.052" fill="none"/>
    </clipPath>
    <clipPath id="clip-path-8">
      <rect id="Rectángulo_419912" data-name="Rectángulo 419912" width="270.578" height="169.803" transform="translate(0 3.249)" fill="none"/>
    </clipPath>
  </defs>
  <g id="Grupo_1211002" data-name="Grupo 1211002" transform="translate(-1020 -284)">
    <path id="influencer-their-pet-creating-content-online-spaces-social-media" d="M0,0H400V131.265H0Z" transform="translate(1020 310.735)" fill="#493a57"/>
    <g id="Grupo_1211001" data-name="Grupo 1211001" transform="translate(1085 284)">
      <g id="Grupo_1210986" data-name="Grupo 1210986">
        <g id="Grupo_1210985" data-name="Grupo 1210985" clip-path="url(#clip-path)">
          <path id="Trazado_1051762" data-name="Trazado 1051762" d="M39.487,124.537a73.978,73.978,0,0,1-6.677,6.144c-3.267,2.949-8.42,6.512-8.773,11.333a7.613,7.613,0,0,0,4.374,7.011c4.364,2.18,10.929,1,14.634-2.072A33.681,33.681,0,0,0,54.9,124.842a15.537,15.537,0,0,0-.679-7.35,7.605,7.605,0,0,0-5.283-4.813c-6.686-1.326-6.321,8.246-9.449,11.859" transform="translate(-13.188 -61.796)" fill="#fff0da"/>
          <path id="Trazado_1051763" data-name="Trazado 1051763" d="M32.746,109.343a3.823,3.823,0,0,0-3.592-3.558c-3.518-.129-9.785,7.4-6.009,10.172,3,2.2,9.821-2.773,9.6-6.614" transform="translate(-12.065 -58.079)" fill="#fff0da"/>
          <path id="Trazado_1051764" data-name="Trazado 1051764" d="M535.791,14.28a3.148,3.148,0,0,0-2.489,3.431c.435,2.883,7.856,6.915,9.643,3.446,1.419-2.755-3.9-7.6-7.154-6.877" transform="translate(-292.785 -7.8)" fill="#fff0da"/>
          <path id="Trazado_1051765" data-name="Trazado 1051765" d="M560.263,171.57a1.542,1.542,0,0,0-1.219,1.68c.213,1.412,3.847,3.386,4.722,1.687.695-1.349-1.909-3.722-3.5-3.367" transform="translate(-306.928 -94.178)" fill="#fff0da"/>
          <path id="Trazado_1051766" data-name="Trazado 1051766" d="M528.724,212.219q.148-.022.293-.05c10.232-1.948-2.614-14.6-5.76-17.276-5.179-4.411-13.647-9.941-20.662-6.5-2.757,1.351-4.709,4.534-4.022,7.527,1.266,5.516,6.974,8.843,11.716,11.039,4.625,2.142,13.214,6.052,18.435,5.264" transform="translate(-273.658 -102.843)" fill="#fff0da"/>
          <path id="Trazado_1051767" data-name="Trazado 1051767" d="M474.078,32.628a5.585,5.585,0,0,0,4.134-1.421,4.9,4.9,0,0,0,.8-4.977A10.992,10.992,0,0,0,475.891,22c-3.646-3.355-8.53-5.875-13.424-5.1a5.167,5.167,0,0,0-3.008,1.364c-1.976,2.095-.582,5.583,1.343,7.192,2.414,2.017,4.913,4.3,7.735,5.713a12.782,12.782,0,0,0,5.54,1.457" transform="translate(-251.734 -9.203)" fill="#fff0da"/>
          <path id="Trazado_1051768" data-name="Trazado 1051768" d="M112.747,336.249c5.191-2.224,11.163-5.9,13.47-11.295a7.528,7.528,0,0,0-.013-6.663c-2.1-3.585-7.024-3.614-10.632-3.1-7.644,1.083-14.743,4.2-18.856,11.072-2.82,4.713-2.087,9.95,3.673,11.6a15.088,15.088,0,0,0,6.479.2,25.809,25.809,0,0,0,5.878-1.817" transform="translate(-52.224 -172.92)" fill="#fff0da"/>
        </g>
      </g>
      <g id="Grupo_1210988" data-name="Grupo 1210988">
        <g id="Grupo_1210987" data-name="Grupo 1210987" clip-path="url(#clip-path)">
          <path id="Trazado_1051769" data-name="Trazado 1051769" d="M272,175.849H63.923a5.508,5.508,0,0,1-5.508-5.508V42.125a5.508,5.508,0,0,1,5.508-5.508H272a5.508,5.508,0,0,1,5.508,5.508V170.341A5.508,5.508,0,0,1,272,175.849" transform="translate(-32.072 -20.104)" fill="#839ff2"/>
          <path id="Trazado_1051770" data-name="Trazado 1051770" d="M273.765,178.182H82.357a5.608,5.608,0,0,1-5.608-5.608V60.288a5.608,5.608,0,0,1,5.608-5.608H273.765a5.608,5.608,0,0,1,5.608,5.608V172.574a5.608,5.608,0,0,1-5.608,5.608" transform="translate(-42.138 -30.021)" fill="#3e579e"/>
          <path id="Trazado_1051771" data-name="Trazado 1051771" d="M91.716,178.182H76.749V60.239a5.559,5.559,0,0,1,5.559-5.559h9.408Z" transform="translate(-42.138 -30.021)" fill="#486bd4"/>
          <rect id="Rectángulo_419883" data-name="Rectángulo 419883" width="187.657" height="0.4" transform="translate(49.578 36.758)" fill="#486bd4"/>
          <rect id="Rectángulo_419884" data-name="Rectángulo 419884" width="0.383" height="111.202" transform="translate(107.812 36.959)" fill="#486bd4"/>
          <rect id="Rectángulo_419885" data-name="Rectángulo 419885" width="0.383" height="111.202" transform="translate(175.171 36.959)" fill="#486bd4"/>
          <path id="Trazado_1051772" data-name="Trazado 1051772" d="M166.037,68.546H132.648a1.5,1.5,0,1,1,0-3.01h33.389a1.5,1.5,0,0,1,0,3.01" transform="translate(-72.002 -35.982)" fill="#7a9cff"/>
          <path id="Trazado_1051773" data-name="Trazado 1051773" d="M307.88,68.546H269.573a1.5,1.5,0,1,1,0-3.01H307.88a1.5,1.5,0,0,1,0,3.01" transform="translate(-147.179 -35.982)" fill="#7a9cff"/>
          <path id="Trazado_1051774" data-name="Trazado 1051774" d="M450.771,68.546H417.382a1.5,1.5,0,1,1,0-3.01h33.389a1.5,1.5,0,1,1,0,3.01" transform="translate(-228.332 -35.982)" fill="#7a9cff"/>
          <path id="Trazado_1051775" data-name="Trazado 1051775" d="M85,67.634a1.018,1.018,0,1,1-1.018-1.018A1.018,1.018,0,0,1,85,67.634" transform="translate(-45.552 -36.575)" fill="#ffcf80"/>
          <path id="Trazado_1051776" data-name="Trazado 1051776" d="M93.122,67.634A1.018,1.018,0,1,1,92.1,66.616a1.018,1.018,0,0,1,1.018,1.018" transform="translate(-50.01 -36.575)" fill="#839ff2"/>
          <path id="Trazado_1051777" data-name="Trazado 1051777" d="M101.24,67.634a1.018,1.018,0,1,1-1.018-1.018,1.018,1.018,0,0,1,1.018,1.018" transform="translate(-54.467 -36.575)" fill="#f56c7c"/>
          <path id="Trazado_1051778" data-name="Trazado 1051778" d="M91.64,94.194H81.885a.921.921,0,1,1,0-1.842H91.64a.921.921,0,0,1,0,1.842" transform="translate(-44.452 -50.705)" fill="#7a9cff"/>
          <path id="Trazado_1051779" data-name="Trazado 1051779" d="M91.64,102.344H81.885a.921.921,0,1,1,0-1.842H91.64a.921.921,0,0,1,0,1.842" transform="translate(-44.452 -55.179)" fill="#7a9cff"/>
          <path id="Trazado_1051780" data-name="Trazado 1051780" d="M91.64,132.345H81.885a.921.921,0,1,1,0-1.842H91.64a.921.921,0,0,1,0,1.842" transform="translate(-44.452 -71.651)" fill="#7a9cff"/>
          <path id="Trazado_1051781" data-name="Trazado 1051781" d="M91.64,171.991H81.885a.921.921,0,0,1,0-1.842H91.64a.921.921,0,0,1,0,1.842" transform="translate(-44.452 -93.418)" fill="#7a9cff"/>
          <path id="Trazado_1051782" data-name="Trazado 1051782" d="M91.64,194.822H81.885a.921.921,0,0,1,0-1.842H91.64a.921.921,0,0,1,0,1.842" transform="translate(-44.452 -105.953)" fill="#7a9cff"/>
          <path id="Trazado_1051783" data-name="Trazado 1051783" d="M91.64,187.052H81.885a.921.921,0,0,1,0-1.842H91.64a.921.921,0,0,1,0,1.842" transform="translate(-44.452 -101.687)" fill="#7a9cff"/>
        </g>
      </g>
      <g id="Grupo_1210990" data-name="Grupo 1210990">
        <g id="Grupo_1210989" data-name="Grupo 1210989" clip-path="url(#clip-path)">
          <path id="Trazado_1051784" data-name="Trazado 1051784" d="M141.27,107.635l-17.414-1.444c2.586-1.51,2.13-13.839,2.13-13.839H141.27Z" transform="translate(-68.001 -50.705)" fill="#4973ed"/>
          <path id="Trazado_1051785" data-name="Trazado 1051785" d="M194.978,140.525s-11.856,2.7-18.443.262V125.5h15.283c.907,9.218,1.84,12.146,3.16,15.021" transform="translate(-96.924 -68.906)" fill="#c43d4d"/>
          <rect id="Rectángulo_419887" data-name="Rectángulo 419887" width="15.283" height="15.283" transform="translate(62.205 88.501)" fill="#fff"/>
          <path id="Trazado_1051786" data-name="Trazado 1051786" d="M187.069,260.806s-14.756-.762-16.1-3.687l2.983-13.49,15.148,2.028Z" transform="translate(-93.867 -133.762)" fill="#faebd6"/>
          <rect id="Rectángulo_419888" data-name="Rectángulo 419888" width="15.283" height="15.283" transform="translate(51.36 118.245) rotate(-5.479)" fill="#ffc057"/>
          <rect id="Rectángulo_419889" data-name="Rectángulo 419889" width="15.283" height="15.283" transform="translate(131.607 56.021) rotate(-5.479)" fill="#97dade"/>
          <rect id="Rectángulo_419890" data-name="Rectángulo 419890" width="15.283" height="15.284" transform="translate(119.401 62.047) rotate(-82.375)" fill="#faebd6"/>
          <rect id="Rectángulo_419891" data-name="Rectángulo 419891" width="15.283" height="15.283" transform="translate(140.053 127.243)" fill="#97dade"/>
          <path id="Trazado_1051787" data-name="Trazado 1051787" d="M440.258,285.974s-6.809,4.192-18.132-.264l.941-14.094,15.254.941s-.683,11.74,1.936,13.417" transform="translate(-231.763 -149.128)" fill="#97dade"/>
          <rect id="Rectángulo_419892" data-name="Rectángulo 419892" width="15.283" height="15.283" transform="translate(180.673 87.387) rotate(-3.241)" fill="#faebd6"/>
          <rect id="Rectángulo_419893" data-name="Rectángulo 419893" width="15.283" height="15.283" transform="translate(216.017 87.79)" fill="#ffc057"/>
          <rect id="Rectángulo_419894" data-name="Rectángulo 419894" width="15.283" height="15.283" transform="translate(203.107 65.369)" fill="#fff"/>
          <path id="Trazado_1051788" data-name="Trazado 1051788" d="M417.476,112.57c-7.463,3.566-18.569,1.992-18.569,1.992,2.175-3.512,1.2-16.389,1.2-16.389h15.284Z" transform="translate(-219.014 -53.901)" fill="#97dade"/>
          <rect id="Rectángulo_419895" data-name="Rectángulo 419895" width="15.283" height="15.283" transform="translate(151.5 46.143) rotate(-5.479)" fill="#ffc057"/>
          <rect id="Rectángulo_419896" data-name="Rectángulo 419896" width="15.283" height="15.283" transform="translate(213.601 54.277) rotate(-5.479)" fill="#c43d4d"/>
          <path id="Trazado_1051789" data-name="Trazado 1051789" d="M489.766,134.134l-2.85-1.1-2.522,1.724.166-3.05-2.419-1.865,2.952-.786,1.027-2.877,1.659,2.565,3.053.087-1.927,2.371Z" transform="translate(-264.713 -69.278)" fill="#fff"/>
          <path id="Trazado_1051790" data-name="Trazado 1051790" d="M273.316,111.132c3.588.781,7.261,1.08,10.849,1.86.189.041.269-.248.08-.289-3.588-.781-7.261-1.08-10.849-1.86-.188-.041-.269.248-.08.29" transform="translate(-150.001 -60.854)" fill="#3e579e"/>
          <path id="Trazado_1051791" data-name="Trazado 1051791" d="M271.779,114.58c3.588.78,7.261,1.08,10.849,1.86.189.041.269-.248.08-.289-3.588-.781-7.261-1.08-10.849-1.86-.189-.041-.269.248-.08.29" transform="translate(-149.157 -62.747)" fill="#3e579e"/>
          <path id="Trazado_1051792" data-name="Trazado 1051792" d="M356.753,181.875c-1.965,2.478-16.388-1-16.388-1l2.028-15.148,15.148,2.028Z" transform="translate(-186.873 -90.991)" fill="#fff"/>
          <path id="Trazado_1051793" data-name="Trazado 1051793" d="M351,173.911l8.991,1.291c.189.027.271-.262.08-.289l-8.991-1.291c-.189-.027-.271.262-.08.29" transform="translate(-192.653 -95.324)" fill="#3e579e"/>
          <path id="Trazado_1051794" data-name="Trazado 1051794" d="M350.1,178.39a14.791,14.791,0,0,0,2.977.4c.193.006.193-.294,0-.3a14.428,14.428,0,0,1-2.9-.392c-.188-.045-.268.244-.08.29" transform="translate(-192.16 -97.781)" fill="#3e579e"/>
          <path id="Trazado_1051795" data-name="Trazado 1051795" d="M349.189,187.514a58.954,58.954,0,0,0,9.259.944.15.15,0,0,0,0-.3,58.371,58.371,0,0,1-9.179-.934c-.189-.034-.27.255-.08.29" transform="translate(-191.658 -102.792)" fill="#3e579e"/>
          <path id="Trazado_1051796" data-name="Trazado 1051796" d="M350.135,191.28l8.226.879c.192.021.19-.28,0-.3l-8.226-.878c-.192-.021-.19.28,0,.3" transform="translate(-192.158 -104.855)" fill="#3e579e"/>
          <rect id="Rectángulo_419897" data-name="Rectángulo 419897" width="15.283" height="15.283" transform="translate(75.34 80.548)" fill="#97dade"/>
          <path id="Trazado_1051797" data-name="Trazado 1051797" d="M171.894,185.441l10.451.228c.165,0,.21-.267.04-.295l-.26-.042c-.189-.031-.271.258-.08.289l.26.043c.014-.1.027-.2.04-.295l-10.451-.227a.15.15,0,0,0,0,.3" transform="translate(-94.296 -101.649)" fill="#3e579e"/>
          <path id="Trazado_1051798" data-name="Trazado 1051798" d="M172.664,189.954l10.19.126a.151.151,0,0,0,.076-.28l-.169-.123c-.156-.114-.306.146-.151.259l.168.123.076-.28-10.19-.127a.15.15,0,0,0,0,.3" transform="translate(-94.719 -104.124)" fill="#3e579e"/>
          <path id="Trazado_1051799" data-name="Trazado 1051799" d="M172.407,193.3q2.894.13,5.79,0c.192-.009.193-.309,0-.3q-2.894.13-5.79,0c-.193-.009-.193.292,0,.3" transform="translate(-94.578 -105.966)" fill="#3e579e"/>
          <path id="Trazado_1051800" data-name="Trazado 1051800" d="M173.054,204.3a75.1,75.1,0,0,0,9.612.356.151.151,0,0,0,.076-.28l-.173-.106c-.165-.1-.316.158-.152.259l.173.107.076-.28a75.176,75.176,0,0,1-9.612-.356c-.192-.02-.191.281,0,.3" transform="translate(-94.934 -112.004)" fill="#3e579e"/>
          <path id="Trazado_1051801" data-name="Trazado 1051801" d="M406.809,103.868a90.385,90.385,0,0,0,10.574-.685c.189-.023.192-.324,0-.3a90.38,90.38,0,0,1-10.574.685.15.15,0,0,0,0,.3" transform="translate(-223.273 -56.486)" fill="#3e579e"/>
          <path id="Trazado_1051802" data-name="Trazado 1051802" d="M407.255,108.67a46.773,46.773,0,0,0,5.689-.01c.192-.012.193-.313,0-.3a46.773,46.773,0,0,1-5.689.01c-.193-.012-.192.289,0,.3" transform="translate(-223.519 -59.493)" fill="#3e579e"/>
          <path id="Trazado_1051803" data-name="Trazado 1051803" d="M407.142,114.308a58.4,58.4,0,0,0,10.328-.222c.19-.021.192-.321,0-.3a58.44,58.44,0,0,1-10.328.222c-.193-.013-.192.287,0,.3" transform="translate(-223.457 -62.472)" fill="#3e579e"/>
          <path id="Trazado_1051804" data-name="Trazado 1051804" d="M407.694,127.9a91.272,91.272,0,0,0,10.977-.751c.189-.024.191-.325,0-.3a91.37,91.37,0,0,1-10.977.751.15.15,0,0,0,0,.3" transform="translate(-223.759 -69.643)" fill="#3e579e"/>
          <rect id="Rectángulo_419898" data-name="Rectángulo 419898" width="15.283" height="15.283" transform="translate(126.464 121.07) rotate(-5.479)" fill="#c43d4d"/>
          <path id="Trazado_1051805" data-name="Trazado 1051805" d="M285.224,273.707l11.466-.748c.192-.013.193-.313,0-.3l-11.466.748c-.192.012-.193.313,0,.3" transform="translate(-156.519 -149.699)" fill="#fff"/>
          <path id="Trazado_1051806" data-name="Trazado 1051806" d="M286.539,276.49l7.974-.724c.191-.018.193-.318,0-.3l-7.974.724c-.191.018-.193.318,0,.3" transform="translate(-157.241 -151.24)" fill="#fff"/>
          <path id="Trazado_1051807" data-name="Trazado 1051807" d="M286.528,281.813a71,71,0,0,0,8.1-.355c.19-.019.192-.319,0-.3a71.1,71.1,0,0,1-8.1.355.15.15,0,0,0,0,.3" transform="translate(-157.235 -154.365)" fill="#fff"/>
          <path id="Trazado_1051808" data-name="Trazado 1051808" d="M287.585,293.9l11.349-.844c.192-.014.193-.314,0-.3l-11.349.844c-.191.014-.193.314,0,.3" transform="translate(-157.815 -160.732)" fill="#fff"/>
          <path id="Trazado_1051809" data-name="Trazado 1051809" d="M288.891,297.315l4.433-.356c.191-.015.193-.315,0-.3l-4.433.356c-.191.015-.193.315,0,.3" transform="translate(-158.532 -162.876)" fill="#fff"/>
          <path id="Trazado_1051810" data-name="Trazado 1051810" d="M139.447,100.516q3.614.292,7.242.285v-.3l-.22.022c-.19.019-.193.319,0,.3l.22-.022c.188-.019.2-.3,0-.3q-3.626.007-7.242-.285c-.193-.016-.192.285,0,.3" transform="translate(-76.482 -55.022)" fill="#fff"/>
          <path id="Trazado_1051811" data-name="Trazado 1051811" d="M139.841,104.315a47.03,47.03,0,0,0,6.9.306v-.3l-.231.013c-.192.01-.193.31,0,.3l.231-.013c.191-.01.194-.306,0-.3a47.088,47.088,0,0,1-6.9-.306c-.191-.023-.19.277,0,.3" transform="translate(-76.699 -57.108)" fill="#fff"/>
          <path id="Trazado_1051812" data-name="Trazado 1051812" d="M139.792,115.16a63.657,63.657,0,0,0,6.885.591c.193.006.193-.294,0-.3a62.744,62.744,0,0,1-6.805-.58c-.189-.027-.271.262-.08.29" transform="translate(-76.691 -63.067)" fill="#fff"/>
          <path id="Trazado_1051813" data-name="Trazado 1051813" d="M139.55,118.635a43.269,43.269,0,0,0,7.4.383c.193-.007.193-.307,0-.3a42.8,42.8,0,0,1-7.319-.372c-.189-.026-.271.263-.08.29" transform="translate(-76.558 -64.975)" fill="#fff"/>
          <rect id="Rectángulo_419899" data-name="Rectángulo 419899" width="2.635" height="2.635" transform="translate(59.238 44.559)" fill="#fff"/>
          <rect id="Rectángulo_419900" data-name="Rectángulo 419900" width="2.635" height="2.635" transform="translate(59.161 53.585) rotate(-86.527)" fill="#fff"/>
          <path id="Trazado_1051814" data-name="Trazado 1051814" d="M132.295,100.662l.621.637c.087.09.184.228.313.255a.266.266,0,0,0,.279-.163c.164-.294.294-.613.435-.919l.125-.276c.06-.131-.134-.246-.194-.114q-.137.3-.276.6c-.066.143-.133.286-.2.428-.028.059-.055.12-.088.177s-.031.055-.074.016-.092-.094-.138-.141l-.642-.66c-.1-.1-.26.055-.159.159" transform="translate(-72.617 -54.917)" fill="#4973ed"/>
          <path id="Trazado_1051815" data-name="Trazado 1051815" d="M132.087,115.013l.554.729c.072.094.143.226.256.276a.256.256,0,0,0,.308-.113c.205-.271.372-.579.551-.868l.165-.269a.113.113,0,0,0-.194-.114q-.17.279-.343.557c-.085.137-.171.274-.258.409a1.5,1.5,0,0,1-.106.159c-.029.035-.027.041-.058.01a1.314,1.314,0,0,1-.115-.148l-.563-.742a.116.116,0,0,0-.154-.04.113.113,0,0,0-.04.154" transform="translate(-72.511 -62.92)" fill="#4973ed"/>
          <path id="Trazado_1051816" data-name="Trazado 1051816" d="M341.981,108.473l9.714-1c.19-.02.192-.32,0-.3l-9.714,1c-.19.019-.192.32,0,.3" transform="translate(-187.681 -58.841)" fill="#fff"/>
          <path id="Trazado_1051817" data-name="Trazado 1051817" d="M341.783,112.431q5.29-.616,10.607-.938c-.013-.1-.027-.2-.04-.294l-.276.1c-.181.064-.1.354.08.29l.276-.1c.15-.053.139-.305-.04-.294q-5.316.321-10.607.938c-.189.022-.192.322,0,.3" transform="translate(-187.573 -61.049)" fill="#fff"/>
          <path id="Trazado_1051818" data-name="Trazado 1051818" d="M342.913,116.724a67.241,67.241,0,0,0,8.843-.651c.19-.027.109-.316-.08-.29a66.646,66.646,0,0,1-8.764.64.15.15,0,0,0,0,.3" transform="translate(-188.192 -63.569)" fill="#fff"/>
          <path id="Trazado_1051819" data-name="Trazado 1051819" d="M345.631,123.121l6.738-.621c.19-.018.193-.318,0-.3l-6.738.622c-.191.018-.193.317,0,.3" transform="translate(-189.685 -67.091)" fill="#fff"/>
          <path id="Trazado_1051820" data-name="Trazado 1051820" d="M429.632,282.245c3.537.435,7.12.308,10.671.553.193.014.192-.287,0-.3-3.551-.245-7.134-.119-10.671-.554-.191-.023-.189.277,0,.3" transform="translate(-235.805 -154.797)" fill="#fff"/>
          <path id="Trazado_1051821" data-name="Trazado 1051821" d="M429.66,288.268l10.658.6c.193.011.193-.289,0-.3l-10.658-.6c-.193-.01-.193.29,0,.3" transform="translate(-235.82 -158.105)" fill="#fff"/>
          <path id="Trazado_1051822" data-name="Trazado 1051822" d="M113.05,269.106l12.661-1.652c.189-.025.191-.325,0-.3l-12.661,1.652c-.189.024-.191.325,0,.3" transform="translate(-61.991 -146.677)" fill="#fff"/>
          <path id="Trazado_1051823" data-name="Trazado 1051823" d="M114.5,273.779l11.357-1.454c.189-.024.191-.325,0-.3L114.5,273.479c-.189.024-.192.324,0,.3" transform="translate(-62.784 -149.35)" fill="#fff"/>
          <path id="Trazado_1051824" data-name="Trazado 1051824" d="M118.391,288.316l11.166-1.072c.191-.018.193-.319,0-.3l-11.166,1.072c-.191.018-.193.318,0,.3" transform="translate(-64.922 -157.542)" fill="#fff"/>
          <rect id="Rectángulo_419901" data-name="Rectángulo 419901" width="2.049" height="5.404" transform="matrix(0.991, -0.133, 0.133, 0.991, 85.406, 52.716)" fill="#4973ed"/>
          <rect id="Rectángulo_419902" data-name="Rectángulo 419902" width="2.049" height="5.404" transform="translate(221.61 84.325)" fill="#4973ed"/>
          <rect id="Rectángulo_419903" data-name="Rectángulo 419903" width="2.049" height="5.404" transform="translate(186.521 83.381)" fill="#4973ed"/>
          <rect id="Rectángulo_419904" data-name="Rectángulo 419904" width="2.049" height="5.404" transform="translate(146.88 123.246)" fill="#4973ed"/>
          <rect id="Rectángulo_419905" data-name="Rectángulo 419905" width="2.049" height="5.404" transform="translate(157.044 41.616) rotate(-12.586)" fill="#4973ed"/>
          <rect id="Rectángulo_419906" data-name="Rectángulo 419906" width="5.404" height="2.049" transform="translate(86.973 112.029) rotate(-70.708)" fill="#4973ed"/>
        </g>
      </g>
      <g id="Grupo_1210992" data-name="Grupo 1210992">
        <g id="Grupo_1210991" data-name="Grupo 1210991" clip-path="url(#clip-path)">
          <path id="Trazado_1051825" data-name="Trazado 1051825" d="M496.519,258.605l-18.47,3.65-1.675-5.9-1.549-5.455a9.328,9.328,0,0,0-5.673-6.176,10.735,10.735,0,0,1-6.748-8.08L460.344,225.5a3.279,3.279,0,0,1,2.533-3.8l4.292-.92.935,2.494,17.423,4.827-1.113-6.13,1.685-.305a3.375,3.375,0,0,1,3.926,2.723l.062.336a68.387,68.387,0,0,1,1.06,9.848l.127,5.792a27.09,27.09,0,0,0,1.756,9.026l2.463,6.507Z" transform="translate(-252.715 -121.217)" fill="#f7a27e"/>
          <path id="Trazado_1051826" data-name="Trazado 1051826" d="M475.191,212.281l-7.929,6.565-3.292-4.54,10.122-7.338a1.392,1.392,0,0,1,2.1.579l.094.22a3.878,3.878,0,0,1-1.091,4.514" transform="translate(-254.736 -113.487)" fill="#f7a27e"/>
          <path id="Trazado_1051827" data-name="Trazado 1051827" d="M479.565,198.079l-7.215,2.688L463.044,170.9a3.155,3.155,0,0,1,.435-2.759,1.32,1.32,0,0,1,1.37-.526l.293.067a2.628,2.628,0,0,1,1.827,1.513Z" transform="translate(-254.149 -92.01)" fill="#f7a27e"/>
          <path id="Trazado_1051828" data-name="Trazado 1051828" d="M516.1,298.25l-18.47,3.65-1.675-5.9c2.313,3.328,15.12-1.551,18.17-3.015Z" transform="translate(-272.298 -160.862)" fill="#a65137"/>
          <path id="Trazado_1051829" data-name="Trazado 1051829" d="M540.782,313.473V330.7H493.606c-.023-.153-.045-.3-.063-.455v0c-.063-.46-.126-.915-.185-1.366-.023-.144-.041-.289-.059-.433v-.014c-.036-.3-.077-.6-.113-.893q-.162-1.326-.3-2.589c-.311-2.945-.514-5.637-.631-8.09-.023-.523-.045-1.033-.059-1.533,0-.149-.009-.3-.014-.451-.009-.266-.018-.532-.023-.789-.063-3.076.014-5.723.18-7.973.451-6.1,1.551-9.294,2.133-10.219a50.166,50.166,0,0,1,11.721-5.98,53.476,53.476,0,0,1,10.625-2.778c7.86,2.462,16.78,13.475,23.96,26.345" transform="translate(-270.203 -157.644)" fill="#694d26"/>
          <path id="Trazado_1051830" data-name="Trazado 1051830" d="M466.569,167.606c.516,1.516.882,2.062-1.075,2.588-.736.2-1.266-.6-1.6-1.9s0-2.5.735-2.693,1.508.737,1.94,2.007" transform="translate(-254.624 -90.906)" fill="#da374a"/>
          <path id="Trazado_1051831" data-name="Trazado 1051831" d="M474.1,197.221a.2.2,0,0,1-.193-.253,4.146,4.146,0,0,1,2.837-1,.2.2,0,0,1,.193.207.209.209,0,0,1-.207.193,4.592,4.592,0,0,0-2.455.754.2.2,0,0,1-.175.1" transform="translate(-260.19 -107.59)" fill="#a65137"/>
          <path id="Trazado_1051832" data-name="Trazado 1051832" d="M476.528,199.7a.2.2,0,0,1-.154-.071.2.2,0,0,1,.025-.282,2.838,2.838,0,0,1,1.707-.7.2.2,0,0,1,.178.221.213.213,0,0,1-.221.178,2.4,2.4,0,0,0-1.407.6.2.2,0,0,1-.128.047" transform="translate(-261.521 -109.062)" fill="#a65137"/>
          <path id="Trazado_1051833" data-name="Trazado 1051833" d="M497.07,222.945l-6.125,3.131L481.729,205.6l.668-.209a4.519,4.519,0,0,1,4.792,1.384l3.173,3.73a14.508,14.508,0,0,1,1.916,2.892Z" transform="translate(-264.487 -112.654)" fill="#f7a27e"/>
          <path id="Trazado_1051834" data-name="Trazado 1051834" d="M511.525,230.35l-5.183,1.546-3.656-12.259.672-.2a4.708,4.708,0,0,1,5.857,3.166Z" transform="translate(-275.993 -120.37)" fill="#f7a27e"/>
          <path id="Trazado_1051835" data-name="Trazado 1051835" d="M479.189,240.146c-1.14,1.083-3.217.472-2.761-1.438a53.316,53.316,0,0,0,1.208-6.332c.487,2.569,1.052,5.452,1.554,7.77" transform="translate(-261.541 -127.583)" fill="#a65137"/>
          <path id="Trazado_1051836" data-name="Trazado 1051836" d="M476.675,225.033a.2.2,0,0,1-.2-.156q-.093-.413-.186-.852c-.427-1.976-.951-4.592-1.554-7.775.093-3.711-3.247-12.951-3.281-13.044a.2.2,0,1,1,.376-.137c.138.382,3.4,9.4,3.3,13.148.6,3.136,1.122,5.749,1.549,7.723q.093.438.185.848a.2.2,0,0,1-.151.239.188.188,0,0,1-.044,0" transform="translate(-258.841 -111.42)" fill="#a65137"/>
          <path id="Trazado_1051837" data-name="Trazado 1051837" d="M490.678,217.548a.2.2,0,0,1-.2-.184c-.242-3.05-5.245-14.565-5.519-14.988a.192.192,0,0,1,.022-.275.206.206,0,0,1,.288.023c.331.372,5.367,12.177,5.608,15.207a.2.2,0,0,1-.183.216h-.016" transform="translate(-266.234 -110.935)" fill="#a65137"/>
          <path id="Trazado_1051838" data-name="Trazado 1051838" d="M504.741,225.05a.2.2,0,0,1-.2-.171,12.371,12.371,0,0,0-3.04-6.738.2.2,0,0,1,.277-.289,12.542,12.542,0,0,1,3.159,6.97.2.2,0,0,1-.17.227l-.029,0" transform="translate(-275.31 -119.578)" fill="#a65137"/>
          <path id="Trazado_1051839" data-name="Trazado 1051839" d="M515.358,226.394a.2.2,0,0,1-.2-.172c-.466-3.334-2.117-4.221-2.134-4.229a.2.2,0,0,1,.18-.357c.075.038,1.852.97,2.349,4.531a.2.2,0,0,1-.17.226l-.028,0" transform="translate(-281.61 -121.674)" fill="#a65137"/>
          <path id="Trazado_1051840" data-name="Trazado 1051840" d="M472.645,229.011a.2.2,0,0,1-.143-.06c-1.145-1.178-3.133-1.43-4.2-1.566a3.019,3.019,0,0,1-.722-.133.2.2,0,0,1,.169-.363,4.187,4.187,0,0,0,.6.1c1.116.142,3.194.4,4.437,1.683a.2.2,0,0,1-.143.34" transform="translate(-256.654 -124.56)" fill="#a65137"/>
          <path id="Trazado_1051841" data-name="Trazado 1051841" d="M503.2,327.162a3.043,3.043,0,0,0-.713.487.08.08,0,0,1-.023.018,10.213,10.213,0,0,0-1.339,1.47c-3.179,4.158-6.422,12.347-5.975,22.864,0,.153.014.307.027.464h-.4c-.014-.153-.023-.3-.027-.451-.027-.613-.041-1.213-.041-1.808v-.014c-.027-9.2,2.724-16.465,5.583-20.591.176-.248.347-.483.519-.708a10.5,10.5,0,0,1,1.407-1.542.121.121,0,0,1,.054-.045,3.357,3.357,0,0,1,.767-.51.2.2,0,1,1,.162.365" transform="translate(-271.614 -179.414)" fill="#523c1e"/>
          <path id="Trazado_1051842" data-name="Trazado 1051842" d="M538.855,298.922a.2.2,0,0,1-.171-.1c-5.149-8.545-12.742-6.784-12.817-6.764a.2.2,0,0,1-.1-.388c.079-.02,7.95-1.862,13.257,6.946a.2.2,0,0,1-.171.3" transform="translate(-288.583 -160.044)" fill="#523c1e"/>
          <path id="Trazado_1051843" data-name="Trazado 1051843" d="M499.558,330.35c-2.8,3.665-6.49,11.86-6.018,22.992a115.767,115.767,0,0,1-1.2-24.132,3.018,3.018,0,0,0,2.3,3.125c1.857.432,3.7-.848,4.91-1.985" transform="translate(-270.203 -180.748)" fill="#523c1e"/>
        </g>
      </g>
      <g id="Grupo_1210994" data-name="Grupo 1210994">
        <g id="Grupo_1210993" data-name="Grupo 1210993" clip-path="url(#clip-path)">
          <path id="Trazado_1051844" data-name="Trazado 1051844" d="M252.449,186.879l9.763,3.3A4.523,4.523,0,0,0,267,188.953l.078-.086a.972.972,0,0,0-.324-1.545l-11.976-5.289Z" transform="translate(-138.604 -99.943)" fill="#d48972"/>
          <path id="Trazado_1051845" data-name="Trazado 1051845" d="M294.019,193.479c-8.011-2.417-22.432-.38-22.432-.38l-.336-3.421-.529-5.346-1.1-11.172s12.993-3.369,22.492-1.072Z" transform="translate(-148.032 -94.042)" fill="#4973ed"/>
          <path id="Trazado_1051846" data-name="Trazado 1051846" d="M274.087,203.969l-1.141-.252-.356-.816-.529-5.346a14.445,14.445,0,0,1,5.65-2.177c3.345-.312-3.625,8.591-3.625,8.591" transform="translate(-149.372 -107.265)" fill="#294aab"/>
          <path id="Trazado_1051847" data-name="Trazado 1051847" d="M231.629,200.525c.014-.065.281-.083-.029,1.37.124.207-.782,5.769.789,8.419,2,3.366,4.18-.787,4.229-.774.685.193,3.25,10.76,3.737,14l.248,0c-.035.28-.078.556-.124.831v0h0a14.119,14.119,0,0,1-.71,2.672l-.016.036c-.1.274-.221.542-.347.8a13.149,13.149,0,0,0-1.247,4l-.244,1.848-.247,1.869-.118.9-3.92,29.667-21.193-4.616L221.6,231.7l.14-.453a15.761,15.761,0,0,0,.515-6.98l0-.013c-.071-.482-.168-.962-.285-1.436L217.3,204.1Z" transform="translate(-116.635 -110.083)" fill="#d48972"/>
          <path id="Trazado_1051848" data-name="Trazado 1051848" d="M236.975,192.32l7.3,1.664,1.952-6.77,3.527-4.175-3.974-1.717a3.091,3.091,0,0,0-3.985,1.444Z" transform="translate(-130.108 -99.413)" fill="#d48972"/>
          <path id="Trazado_1051849" data-name="Trazado 1051849" d="M251.416,182.246a.2.2,0,0,1-.127-.046s-.244-.2-.742-.524a.2.2,0,1,1,.218-.335,9.465,9.465,0,0,1,.777.55.2.2,0,0,1-.127.354" transform="translate(-137.51 -99.545)" fill="#a65137"/>
          <path id="Trazado_1051850" data-name="Trazado 1051850" d="M249.921,183.282a.2.2,0,0,1-.124-.043l-.78-.616a.2.2,0,1,1,.248-.314l.779.616a.2.2,0,0,1-.124.357" transform="translate(-136.678 -100.071)" fill="#a65137"/>
          <path id="Trazado_1051851" data-name="Trazado 1051851" d="M262.541,197.086c-1.608,2.665-6.907,13.018-9.283,17-.362.606-2.8.335-2.8.335-.113.624,1.6.671,1.8,1.392,0,0,3.454,5.413,3.462,5.593a39.39,39.39,0,0,0,4.8,2.192c.249-.427.483-.866.7-1.316a29.649,29.649,0,0,0,2.623-8.234l1.714-10.131c.676-3.33,3.142-8.938-.063-9.1-.278-.015-1.108-.372-2.956,2.276" transform="translate(-137.505 -106.945)" fill="#d48972"/>
          <path id="Trazado_1051852" data-name="Trazado 1051852" d="M274.521,224.372a.2.2,0,0,1-.076-.015c-.018-.007-1.753-.716-3.509-1.277a.2.2,0,1,1,.122-.382c1.772.566,3.522,1.281,3.539,1.288a.2.2,0,0,1-.076.385" transform="translate(-148.677 -122.265)" fill="#a65137"/>
          <path id="Trazado_1051853" data-name="Trazado 1051853" d="M275.932,221.54a.2.2,0,0,1-.064-.01c-.018-.006-1.876-.638-3.459-1.012a.2.2,0,0,1,.092-.389c1.6.378,3.477,1.015,3.5,1.022a.2.2,0,0,1-.064.389" transform="translate(-149.478 -120.856)" fill="#a65137"/>
          <path id="Trazado_1051854" data-name="Trazado 1051854" d="M231.146,172.892l7.247,1.194.531-16.048,3.981-9.965a4.105,4.105,0,0,0-.6-4.082l-.092-.115a1.1,1.1,0,0,0-1.859.221l-6.106,13.087Z" transform="translate(-126.908 -78.765)" fill="#d48972"/>
          <path id="Trazado_1051855" data-name="Trazado 1051855" d="M225.549,174.365l5.389-.11-1.356-27.879a3.916,3.916,0,0,0-2.141-3.3l-.125-.063a1.05,1.05,0,0,0-1.525.929Z" transform="translate(-123.835 -78.455)" fill="#d48972"/>
          <path id="Trazado_1051856" data-name="Trazado 1051856" d="M217,183.789l4.844-1.411-8.01-24.868a3.667,3.667,0,0,0-2.739-2.465l-.129-.027a.984.984,0,0,0-1.153,1.211Z" transform="translate(-115.18 -85.099)" fill="#d48972"/>
          <path id="Trazado_1051857" data-name="Trazado 1051857" d="M237.834,194.372a.2.2,0,0,1-.142-.059,3.56,3.56,0,0,1-.251-3.745l.262-.55a90.26,90.26,0,0,1,4.287-8.265,2.639,2.639,0,0,1,3.44-1.152.2.2,0,0,1-.188.353,2.221,2.221,0,0,0-2.92,1.021,90.023,90.023,0,0,0-4.259,8.215l-.263.552a3.17,3.17,0,0,0,.174,3.29.2.2,0,0,1-.142.341" transform="translate(-130.143 -99.022)" fill="#a65137"/>
          <path id="Trazado_1051858" data-name="Trazado 1051858" d="M233.632,188.91a.2.2,0,0,1-.111-.034c-.871-.586-.881-2.5-.786-3.131.025-.165.274-1.725.6-3.735.512-3.206,1.208-7.558,1.467-9.22a5.021,5.021,0,0,1,.412-1.352l.278-.6a.2.2,0,0,1,.363.169l-.279.6a4.631,4.631,0,0,0-.379,1.245c-.26,1.662-.955,6.014-1.467,9.221-.321,2.008-.57,3.566-.595,3.732-.111.737,0,2.327.614,2.738a.2.2,0,0,1-.112.366" transform="translate(-127.758 -93.735)" fill="#a65137"/>
          <path id="Trazado_1051859" data-name="Trazado 1051859" d="M226.27,194.254a.2.2,0,0,1-.12-.04,3.172,3.172,0,0,1-1.043-2.652c.014-.358.029-.713.032-1.069l.079-10.04a.2.2,0,0,1,.2-.2.2.2,0,0,1,.2.2l-.08,10.041c0,.36-.017.72-.032,1.08a2.785,2.785,0,0,0,.882,2.317.2.2,0,0,1-.12.36" transform="translate(-123.591 -98.966)" fill="#a65137"/>
          <path id="Trazado_1051860" data-name="Trazado 1051860" d="M225.6,175.165h0a.2.2,0,0,1-.2-.2c0-.144,0-.48,1.953-.647a.2.2,0,0,1,.216.182.2.2,0,0,1-.182.216,5.377,5.377,0,0,0-1.6.308.2.2,0,0,1-.192.143" transform="translate(-123.752 -95.705)" fill="#a65137"/>
          <path id="Trazado_1051861" data-name="Trazado 1051861" d="M227,172.844h-1.384a.2.2,0,0,1,0-.4H227a.2.2,0,0,1,0,.4" transform="translate(-123.764 -94.677)" fill="#a65137"/>
          <path id="Trazado_1051862" data-name="Trazado 1051862" d="M240.026,174a.2.2,0,0,1-.142-.06l-.081-.085a2.723,2.723,0,0,0-1.612-.957.2.2,0,1,1,.05-.4,3.127,3.127,0,0,1,1.855,1.081l.073.077a.2.2,0,0,1-.143.34" transform="translate(-130.679 -94.709)" fill="#a65137"/>
          <path id="Trazado_1051863" data-name="Trazado 1051863" d="M239.023,175.92a.2.2,0,0,1-.107-.031,5.649,5.649,0,0,0-1.251-.64.2.2,0,0,1-.293-.254.264.264,0,0,1,.169-.136c.289-.079,1.022.332,1.59.692a.2.2,0,0,1-.107.369" transform="translate(-130.314 -95.998)" fill="#a65137"/>
          <path id="Trazado_1051864" data-name="Trazado 1051864" d="M215.986,181.744a.2.2,0,0,1-.083-.382,3.324,3.324,0,0,1,1.569-.307.2.2,0,0,1-.074.393,2.871,2.871,0,0,0-1.329.278.2.2,0,0,1-.083.018" transform="translate(-118.474 -99.394)" fill="#a65137"/>
          <path id="Trazado_1051865" data-name="Trazado 1051865" d="M215.333,179.125a.2.2,0,0,1-.073-.386l1.031-.4a.2.2,0,0,1,.146.372l-1.03.4a.2.2,0,0,1-.073.014" transform="translate(-118.116 -97.905)" fill="#a65137"/>
          <path id="Trazado_1051866" data-name="Trazado 1051866" d="M280.464,196.676c-.455,1.389-.156,2.733.667,3s1.859-.638,2.313-2.028.156-2.733-.667-3-1.859.638-2.313,2.027" transform="translate(-153.868 -106.843)" fill="#a65137"/>
          <path id="Trazado_1051867" data-name="Trazado 1051867" d="M232.838,253.321a15.762,15.762,0,0,1-.515,6.98l-.555,1.763c.652.934,1.808.207,2.08-1.348.514-2.933-.918-7.134-1.009-7.394" transform="translate(-127.248 -139.082)" fill="#a65137"/>
          <path id="Trazado_1051868" data-name="Trazado 1051868" d="M249.35,144.741c-.551,1.354-.631,1.986-.406,2.1.473.235,1.568-.573,2.12-1.927s.632-2.6.18-2.784-1.343,1.259-1.894,2.613" transform="translate(-136.615 -78.025)" fill="#a65137"/>
          <path id="Trazado_1051869" data-name="Trazado 1051869" d="M225.627,145.342c.053,1.225.2,1.735.39,1.743.4.016.894-.98.841-2.205s-.394-2.2-.763-2.189-.521,1.426-.469,2.651" transform="translate(-123.872 -78.342)" fill="#a65137"/>
          <path id="Trazado_1051870" data-name="Trazado 1051870" d="M209.8,157.26c.23.874.4,1.225.5,1.209.225-.034.336-.807.106-1.681s-.582-1.54-.784-1.487-.055,1.085.175,1.959" transform="translate(-115.036 -85.264)" fill="#a65137"/>
          <path id="Trazado_1051871" data-name="Trazado 1051871" d="M223.2,260.045c-.4,1.533-.793,3.191-1.175,4.875a.057.057,0,0,0,0,.016l-.018.078c-.043.2-.086.394-.131.587-.009.039-.015.079-.026.122-.726,3.265-1.392,6.579-1.917,9.279a10.857,10.857,0,0,1,4.587-1.286c5.37-.4,11.953,2.027,16.516,4.594,2.6,1.461,2.2-5.665,3.246-8.723-6.682-3.363-13.709-7.5-21.077-9.542" transform="translate(-120.748 -142.774)" fill="#faebd6"/>
          <path id="Trazado_1051872" data-name="Trazado 1051872" d="M227.145,259.784c-.44.854,3.963,4.13,9.426,6.945s11.21,3.452,11.65,2.6-2.452-3.212-9.79-6.221c-5.686-2.332-10.845-4.175-11.285-3.321" transform="translate(-124.694 -142.514)" fill="#faebd6"/>
          <path id="Trazado_1051873" data-name="Trazado 1051873" d="M224.927,330.262H185.58a30.343,30.343,0,0,1,.487-4.009c2.029-10.945,11.229-33.908,16.483-38.476,2.521-2.2,7.454-1.186,10.151-1.326,6.2-.316,11.91,2.331,12.347,12.884,0,.054,0,.108.009.171.018.41.018.839.018,1.281,0,.234.374,6.327.374,10.377,0,3.716-.095,13.389-.523,19.1" transform="translate(-101.89 -157.21)" fill="#faebd6"/>
          <path id="Trazado_1051874" data-name="Trazado 1051874" d="M211.463,296.1a.211.211,0,0,1-.186-.312,15.055,15.055,0,0,1,1.412-2.085.192.192,0,0,1,.025-.026,14.812,14.812,0,0,1,7.222-4.69c5.57-1.631,12.754-.143,14.595.851a8.674,8.674,0,0,1,3.707,4.912.211.211,0,1,1-.408.113,8.4,8.4,0,0,0-3.5-4.653c-1.743-.94-8.9-2.391-14.274-.818a14.386,14.386,0,0,0-7.04,4.582.207.207,0,0,1-.024.024,14.953,14.953,0,0,0-1.344,1.989.211.211,0,0,1-.186.111" transform="translate(-115.985 -158.268)" fill="#b89e79"/>
          <path id="Trazado_1051875" data-name="Trazado 1051875" d="M216.813,301.468a.211.211,0,0,1-.2-.276c.629-1.961,1.258-3.69,1.871-5.139,2.472-5.854,4.7-6.468,4.948-6.519a.209.209,0,0,1,.25.164.211.211,0,0,1-.165.25c-.089.018-2.214.517-4.644,6.269-.608,1.438-1.233,3.155-1.858,5.1a.211.211,0,0,1-.2.147" transform="translate(-118.922 -158.962)" fill="#b89e79"/>
          <path id="Trazado_1051876" data-name="Trazado 1051876" d="M267.787,330.632h-.019a.211.211,0,0,1-.191-.23,16.536,16.536,0,0,0,0-2.947,20.7,20.7,0,0,0-3.748-9.845c-.331-.48-.6-.835-.783-1.071a1.92,1.92,0,0,1-.238-.339.211.211,0,0,1,.392-.158c.016.026.083.11.182.24.182.238.457.6.792,1.082A21.118,21.118,0,0,1,268,327.417,16.91,16.91,0,0,1,268,330.44a.212.212,0,0,1-.21.192" transform="translate(-144.285 -173.445)" fill="#b89e79"/>
          <path id="Trazado_1051877" data-name="Trazado 1051877" d="M265.764,288.823a.211.211,0,0,1,0-.423,1.862,1.862,0,0,0,1.422-1.105,5.269,5.269,0,0,0,.7-2.94.2.2,0,0,1-.013-.29.22.22,0,0,1,.305-.012c.35.306.082,1.736-.237,2.608-.5,1.379-1.273,2.147-2.166,2.162Z" transform="translate(-145.798 -155.925)" fill="#b89e79"/>
          <path id="Trazado_1051878" data-name="Trazado 1051878" d="M227.22,265.651h-.011a.211.211,0,0,1-.2-.221c.129-2.556.717-4.213,1.747-4.927a1.837,1.837,0,0,1,1.529-.3.211.211,0,0,1-.127.4,1.425,1.425,0,0,0-1.171.255c-.626.44-1.4,1.594-1.555,4.594a.211.211,0,0,1-.211.2" transform="translate(-124.636 -142.829)" fill="#b89e79"/>
          <path id="Trazado_1051879" data-name="Trazado 1051879" d="M243.206,353.67a20.4,20.4,0,0,1-.528,3.206,32.7,32.7,0,0,1-4.244,10.237h-.505a31.181,31.181,0,0,0,3.923-8.726c.167-.591.3-1.127.415-1.605a20.592,20.592,0,0,0,.514-3.116.214.214,0,0,1,.212-.207h0a.211.211,0,0,1,.207.212" transform="translate(-130.632 -194.061)" fill="#b89e79"/>
          <path id="Trazado_1051880" data-name="Trazado 1051880" d="M269.318,327.2l-.052.036a21,21,0,0,0-3.785-9.948c.7.3,1.885.708,2.429.2a3.319,3.319,0,0,0,1.016-1.945c.016.412.02.84.02,1.28,0,.236.373,6.327.373,10.38" transform="translate(-145.758 -173.241)" fill="#b89e79"/>
          <path id="Trazado_1051881" data-name="Trazado 1051881" d="M268.05,290.261s-1.188,2.677-.378,4.327l-1.751-2.347a6.911,6.911,0,0,0,2.129-1.98" transform="translate(-146 -159.364)" fill="#b89e79"/>
          <path id="Trazado_1051882" data-name="Trazado 1051882" d="M214.807,294.974c.911-.462,1.793-.547,2.268-.012a3.209,3.209,0,0,1,.616,1.61c2.232-5.284,3.99-6.14,4.505-6.246a15.568,15.568,0,0,0-7.39,4.648" transform="translate(-117.937 -159.4)" fill="#b89e79"/>
          <path id="Trazado_1051883" data-name="Trazado 1051883" d="M219.816,272.635c-.726,3.265-2.126,8.964-3.583,11.683,1.346-.761,4.571-3.566,6.253-3.69.757-.264,1.3-.456,1.355-.474a4.8,4.8,0,0,1-3.47-1.35c-1.356-1.191-.865-4.6-.556-6.169" transform="translate(-118.72 -149.686)" fill="#b89e79"/>
          <path id="Trazado_1051884" data-name="Trazado 1051884" d="M237.8,360.928a31.991,31.991,0,0,1-4.307,10.286H229.41c3.6-2.634,6.246-5.425,7.766-8.726a16.049,16.049,0,0,0,.622-1.56" transform="translate(-125.954 -198.163)" fill="#b89e79"/>
          <path id="Trazado_1051885" data-name="Trazado 1051885" d="M268.022,266.22l.245-1.849a13.117,13.117,0,0,1,1.247-4c.126-.261.244-.528.347-.8-.13.312-1.075,2.451-2.187,2.8-.934.29.276,1.691.348,3.85" transform="translate(-146.769 -142.514)" fill="#a65137"/>
          <path id="Trazado_1051886" data-name="Trazado 1051886" d="M256.294,191.894a.22.22,0,0,1-.065-.01.2.2,0,0,1-.124-.255,5.237,5.237,0,0,0-.332-3.68.2.2,0,0,1-.119-.253.2.2,0,0,1,.258-.121c.6.211,1.052,2.79.571,4.185a.2.2,0,0,1-.189.135" transform="translate(-140.357 -102.979)" fill="#a65137"/>
          <path id="Trazado_1051887" data-name="Trazado 1051887" d="M256.051,228.142a.2.2,0,0,1-.06-.009.2.2,0,0,1-.131-.251c1-3.188,4.748-9.434,4.907-9.7a.2.2,0,0,1,.343.206c-.039.064-3.885,6.469-4.868,9.611a.2.2,0,0,1-.191.14" transform="translate(-140.472 -119.738)" fill="#a65137"/>
          <path id="Trazado_1051888" data-name="Trazado 1051888" d="M277.37,180.6a68,68,0,0,1,14.984-1.065c.193.01.193-.29,0-.3a68.367,68.367,0,0,0-15.064,1.076c-.19.032-.11.322.08.29" transform="translate(-152.183 -98.368)" fill="#fff"/>
          <path id="Trazado_1051889" data-name="Trazado 1051889" d="M277.47,186.21a106.184,106.184,0,0,1,14.735-.486c.193.007.193-.293,0-.3a106.186,106.186,0,0,0-14.735.486c-.19.019-.192.32,0,.3" transform="translate(-152.263 -101.766)" fill="#fff"/>
        </g>
      </g>
      <g id="Grupo_1210996" data-name="Grupo 1210996">
        <g id="Grupo_1210995" data-name="Grupo 1210995" clip-path="url(#clip-path)">
          <path id="Trazado_1051890" data-name="Trazado 1051890" d="M367.718,231.535l-4.767,2.8-10.216-8.378,3.039-3.485a3.431,3.431,0,0,1,4.7.194l7.415,7.586a.825.825,0,0,1-.173,1.288" transform="translate(-193.664 -121.682)" fill="#ffc194"/>
          <path id="Trazado_1051891" data-name="Trazado 1051891" d="M390.154,303.293H369.117l-2.345-24.433-.537-5.6-.144-1.506a7.6,7.6,0,0,0-2.065-4.451c-.185-.194-.356-.388-.514-.586a10.966,10.966,0,0,1-2.471-7.2,24.971,24.971,0,0,1,1.073-6.453l2.471-15.851,15.2,1.393a4.19,4.19,0,0,1,3.729,4.961l-2.76,15.4a.281.281,0,0,0-.009.032l-.415,2.322a14.534,14.534,0,0,0,.271,6.322l.825,3.085a.034.034,0,0,0,0,.018l1.448,5.393,3.1,11.581.045.153.126.474.131.487Z" transform="translate(-198.224 -130.241)" fill="#ffc194"/>
          <path id="Trazado_1051892" data-name="Trazado 1051892" d="M363.833,222.462a.2.2,0,0,1-.168-.309c.008-.012.2-.3.629-.828a.2.2,0,1,1,.309.253c-.413.5-.6.79-.6.793a.2.2,0,0,1-.168.091" transform="translate(-199.648 -121.475)" fill="#d4784c"/>
          <path id="Trazado_1051893" data-name="Trazado 1051893" d="M365.741,223.049a.2.2,0,0,1-.165-.312l.609-.9a.2.2,0,0,1,.331.225l-.61.9a.2.2,0,0,1-.165.087" transform="translate(-200.695 -121.749)" fill="#d4784c"/>
          <path id="Trazado_1051894" data-name="Trazado 1051894" d="M369.715,246.017c.1.413,3.514,2.953,4.821,6.037a26.054,26.054,0,0,1,.027,7.1s-4.972-13.645-4.848-13.132" transform="translate(-202.986 -135.064)" fill="#d4784c"/>
          <path id="Trazado_1051895" data-name="Trazado 1051895" d="M356.116,225.71l-5.1,5.807.456-2.39,2.461,8.147c.316,1.048-.423,3.749-1.471,4.066-.982.3-1.63-1.154-2.258-2.735l-3.254-7.864a2.212,2.212,0,0,1,.379-2.3l.077-.087,5.095-5.807a2.4,2.4,0,0,1,3.61,3.167" transform="translate(-190.398 -121.73)" fill="#ffc194"/>
          <path id="Trazado_1051896" data-name="Trazado 1051896" d="M343.262,220.2c-1.288,1.468-4.037,2.557-7.223,3.357-1.356.345-2.793.636-4.23.88a108.036,108.036,0,0,1-12.36,1.292c2.181-5.109-2.6-21.463-2.6-21.463l20.783-5.01s8.495,17.682,5.634,20.943" transform="translate(-173.959 -109.399)" fill="#5dd2d9"/>
          <path id="Trazado_1051897" data-name="Trazado 1051897" d="M354.259,243.029c-1.357.344-2.793.636-4.23.88.036-3.557,1.865-9.187,1.865-9.187Z" transform="translate(-192.179 -128.871)" fill="#2c6a6e"/>
          <path id="Trazado_1051898" data-name="Trazado 1051898" d="M357.468,257.507c1.343,6.471,9.607-6.337,9.607-6.337l-8.62-21.32a2.323,2.323,0,0,0-4.338,1.513s2.333,21.241,3.351,26.145" transform="translate(-194.4 -125.514)" fill="#ffc194"/>
          <path id="Trazado_1051899" data-name="Trazado 1051899" d="M376.56,265.742a.192.192,0,0,1-.05-.006.2.2,0,0,1-.144-.244c.381-1.472-1.936-7.434-3.214-10.38,0-.008-1.105-2.872-2.3-5.94a.2.2,0,1,1,.372-.145c1.193,3.068,2.3,5.933,2.3,5.933.15.345,3.741,8.659,3.231,10.632a.2.2,0,0,1-.194.15" transform="translate(-203.605 -136.655)" fill="#d4784c"/>
          <path id="Trazado_1051900" data-name="Trazado 1051900" d="M362.984,252.417a.2.2,0,0,1-.123-.358,8.3,8.3,0,0,1,2.211-1.1c.072-.026.122-.043.143-.052a.2.2,0,0,1,.168.363c-.026.012-.087.035-.177.067a7.954,7.954,0,0,0-2.1,1.042.2.2,0,0,1-.123.042" transform="translate(-199.182 -137.745)" fill="#d4784c"/>
          <path id="Trazado_1051901" data-name="Trazado 1051901" d="M361.773,254.379a.2.2,0,0,1-.031-.4,6.681,6.681,0,0,0,1.857-.611c.813-.451,1.338-.771,1.343-.774a.2.2,0,1,1,.208.342s-.537.327-1.358.782a6.967,6.967,0,0,1-1.987.658l-.032,0" transform="translate(-198.517 -138.668)" fill="#d4784c"/>
          <path id="Trazado_1051902" data-name="Trazado 1051902" d="M365.263,256.664a.2.2,0,0,1-.036-.4,4.745,4.745,0,0,0,1.454-.772.2.2,0,0,1,.24.32,5.211,5.211,0,0,1-1.623.846.2.2,0,0,1-.036,0" transform="translate(-200.433 -140.254)" fill="#d4784c"/>
          <path id="Trazado_1051903" data-name="Trazado 1051903" d="M376.9,350.654H335.915c-.081-.176-.158-.356-.239-.532a.267.267,0,0,1-.018-.027,96.945,96.945,0,0,1-5.218-13.957c-.613-2.034,7.45-6.273,18.016-9.475.5-.153,1-.3,1.5-.442,6.792-1.948,12.8-2.918,16.1-2.715,1.515.095,2.462.437,2.647,1.046,0,0,1.461,4.239,3.495,10.634l0,.009,0,.014,0,0c.347,1.1.717,2.264,1.1,3.486.077.244.153.487.23.74.23.74.464,1.5.7,2.277.356,1.159.717,2.359,1.087,3.585.207.694.415,1.393.622,2.1q.3,1.035.609,2.092c.117.383.226.771.338,1.159" transform="translate(-181.406 -177.602)" fill="#f3ab33"/>
          <path id="Trazado_1051904" data-name="Trazado 1051904" d="M354.469,229.768c.261,2,1.822,4.055,3.341,3.476s1.317-3.153.184-4.818c-.758-1.114-1.791-1.558-2.507-1.285s-1.193,1.29-1.018,2.626" transform="translate(-194.597 -124.666)" fill="#bf381d"/>
          <path id="Trazado_1051905" data-name="Trazado 1051905" d="M387.883,241.853l-5.584.807-.942-6.52,1.927-.279a3.7,3.7,0,0,1,4.186,3.129Z" transform="translate(-209.378 -129.476)" fill="#ffc194"/>
          <path id="Trazado_1051906" data-name="Trazado 1051906" d="M397.037,243.7l-5.584.807-.943-6.52,1.927-.279a3.7,3.7,0,0,1,4.186,3.129Z" transform="translate(-214.404 -130.489)" fill="#ffc194"/>
          <path id="Trazado_1051907" data-name="Trazado 1051907" d="M383.526,240.429H383.5a.2.2,0,0,1-.174-.223c.31-2.526-2.4-4.915-3.242-5.587-.038-.031-.06-.05-.065-.055a.2.2,0,0,1,.279-.287l.036.029c.88.7,3.724,3.217,3.388,5.947a.2.2,0,0,1-.2.176" transform="translate(-208.614 -128.597)" fill="#d4784c"/>
          <path id="Trazado_1051908" data-name="Trazado 1051908" d="M393.1,240.4h0a.2.2,0,0,1-.2-.2,3.608,3.608,0,0,0-1.57-2.84.2.2,0,0,1,.215-.337A3.963,3.963,0,0,1,393.3,240.2a.2.2,0,0,1-.2.2" transform="translate(-214.803 -130.117)" fill="#d4784c"/>
          <path id="Trazado_1051909" data-name="Trazado 1051909" d="M401.456,241.773h0a.2.2,0,0,1-.2-.2,3.623,3.623,0,0,0-1.57-2.84.2.2,0,1,1,.215-.337,3.962,3.962,0,0,1,1.755,3.182.2.2,0,0,1-.2.2" transform="translate(-219.391 -130.87)" fill="#d4784c"/>
          <path id="Trazado_1051910" data-name="Trazado 1051910" d="M369.365,305.2a26.14,26.14,0,0,0-.122,3.975l-.146-1.505a7.564,7.564,0,0,0-2.065-4.452c-.182-.193-.354-.387-.511-.583v0s3.023,1.538,2.845,2.569" transform="translate(-201.233 -166.157)" fill="#d4784c"/>
          <path id="Trazado_1051911" data-name="Trazado 1051911" d="M402.811,287.848a14.552,14.552,0,0,0,.268,6.324l.826,3.084c-.992-3.706-1.816-3.824-1.913-6.13a17.573,17.573,0,0,1,1.234-5.6Z" transform="translate(-220.706 -156.764)" fill="#d4784c"/>
          <path id="Trazado_1051912" data-name="Trazado 1051912" d="M350.809,369.5a25.285,25.285,0,0,0-.622,3.527.04.04,0,0,0,0,.023c-.095.825-.176,1.745-.216,2.728h-.406c.027-.586.063-1.145.113-1.682.032-.383.072-.749.113-1.1,0-.014,0-.023,0-.032a25.391,25.391,0,0,1,.64-3.594.2.2,0,0,1,.379.131" transform="translate(-191.921 -202.722)" fill="#d48c15"/>
          <path id="Trazado_1051913" data-name="Trazado 1051913" d="M415.483,356.155a.2.2,0,0,1-.193-.147c-.168-.611-.359-1.225-.583-1.879a39.978,39.978,0,0,0-7.744-13.051,30.909,30.909,0,0,0-5.476-5.114.2.2,0,1,1,.216-.337,31.323,31.323,0,0,1,5.561,5.187A40.389,40.389,0,0,1,415.085,354c.226.662.42,1.284.59,1.9a.2.2,0,0,1-.14.246.2.2,0,0,1-.053.007" transform="translate(-220.38 -184.254)" fill="#d48c15"/>
          <path id="Trazado_1051914" data-name="Trazado 1051914" d="M342.09,382.558a2.377,2.377,0,0,0,.428.532h-.189c-.081-.176-.158-.356-.239-.532" transform="translate(-187.82 -210.038)" fill="#d48c15"/>
          <path id="Trazado_1051915" data-name="Trazado 1051915" d="M347.99,380.378a5.724,5.724,0,0,0,.821-1.682c.176-.532.284-.983.311-1.078-.095.83-.18,1.759-.225,2.76Z" transform="translate(-191.059 -207.326)" fill="#d48c15"/>
          <path id="Trazado_1051916" data-name="Trazado 1051916" d="M421.885,360.558l-.032.008a39.994,39.994,0,0,0-7.784-13.118l0-.01c.111.128,2.377,1.954,3.276,1.954s.791-1.053.791-1.053l.008.024c1.122,3.527,2.42,7.706,3.743,12.194" transform="translate(-227.337 -190.756)" fill="#d48c15"/>
          <path id="Trazado_1051917" data-name="Trazado 1051917" d="M326.085,213.3a120.47,120.47,0,0,0,15.726-3.6.15.15,0,0,0-.08-.29A119.961,119.961,0,0,1,326.085,213c-.189.025-.191.326,0,.3" transform="translate(-178.954 -114.97)" fill="#fff"/>
          <path id="Trazado_1051918" data-name="Trazado 1051918" d="M327.832,220.594a144.66,144.66,0,0,0,15.9-3.235.15.15,0,0,0-.08-.29,144.55,144.55,0,0,1-15.9,3.235c-.19.028-.11.317.08.29" transform="translate(-179.888 -119.176)" fill="#fff"/>
          <path id="Trazado_1051919" data-name="Trazado 1051919" d="M329.541,226.753c5.352-.89,10.675-2,15.965-3.2.175-.04.119-.28-.04-.294l-.226-.02c-.192-.017-.191.283,0,.3l.226.02c-.014-.1-.027-.2-.04-.295-5.29,1.2-10.613,2.309-15.965,3.2-.19.032-.11.321.08.29" transform="translate(-180.826 -122.567)" fill="#fff"/>
          <path id="Trazado_1051920" data-name="Trazado 1051920" d="M331.068,236.456l8.119-1.225c.19-.028.109-.318-.08-.289l-8.119,1.225c-.19.029-.11.318.08.29" transform="translate(-181.665 -128.99)" fill="#fff"/>
          <path id="Trazado_1051921" data-name="Trazado 1051921" d="M332.637,244.95l3.158-.577c.19-.035.11-.324-.079-.289l-3.159.577c-.19.035-.109.324.08.29" transform="translate(-182.526 -134.009)" fill="#fff"/>
        </g>
      </g>
      <g id="Grupo_1210998" data-name="Grupo 1210998">
        <g id="Grupo_1210997" data-name="Grupo 1210997" clip-path="url(#clip-path)">
          <path id="Trazado_1051922" data-name="Trazado 1051922" d="M128.294,149.825l-.416,1.5q-.408,1.506-.788,3.013l-3.429-.745c.28-1.468.544-3.121.784-4.606a3.873,3.873,0,0,0,.064-1.092,2.536,2.536,0,0,0-.744-1.517l-1.168-1.24c-.685,1.885-1.361,3.777-1.941,5.714l-6.878-3.329c1.5-2.157,2.865-4.369,4.221-6.6l.6-1a3.443,3.443,0,0,1,5.7-.712c.764,1.088,2.272,3.273,3.061,4.378a7.071,7.071,0,0,1,.929,6.242" transform="translate(-62.468 -75.765)" fill="#f7a27e"/>
          <path id="Trazado_1051923" data-name="Trazado 1051923" d="M105.419,149.18l5.1,1.787,4.226-12.075-.662-.231a4.708,4.708,0,0,0-6,2.888Z" transform="translate(-57.879 -75.984)" fill="#f7a27e"/>
          <path id="Trazado_1051924" data-name="Trazado 1051924" d="M118.6,145.619a.2.2,0,0,1-.188-.27c2.272-6.143,3.88-7.1,3.947-7.142a.2.2,0,0,1,.2.348c-.028.017-1.581,1.014-3.771,6.934a.2.2,0,0,1-.188.131" transform="translate(-65.003 -75.867)" fill="#a65137"/>
          <path id="Trazado_1051925" data-name="Trazado 1051925" d="M126.85,138.416a4.434,4.434,0,0,1-3.213,1.145c-1.7,0-3.277-.084-4.842-.228-1.8-.164-3.589-.416-5.522-.732,0,0-2.4,5.094-2.729,5.7v0a2.52,2.52,0,0,0,.18,2.433,1.489,1.489,0,0,0,1.641.356l-4.238,16.778a6.678,6.678,0,0,0-1.848,3.185l-1.8,5.378-1.949,5.81-18.283-4.51,1.153-2.657,2.765-6.386a27.116,27.116,0,0,0,2.177-8.931l.4-5.782a69.133,69.133,0,0,1,1.521-9.787l.08-.332a3.377,3.377,0,0,1,4.05-2.537l1.669.384-1.4,6.074,5.926,1.757c1.877-3,3.834-5.978,5.814-8.915l.224-.332c.764-1.244,1.58-2.561,3.537-2.3.912.12,11.116,2.161,14.265,2.913.936.24.988.9.428,1.513" transform="translate(-46.255 -73.547)" fill="#f7a27e"/>
          <path id="Trazado_1051926" data-name="Trazado 1051926" d="M108.117,145.932a.2.2,0,0,1-.067-.012.2.2,0,0,1-.121-.256c1.684-4.718,2.933-5.45,2.985-5.479a.2.2,0,0,1,.2.349c-.024.015-1.2.775-2.8,5.265a.2.2,0,0,1-.189.133" transform="translate(-59.25 -76.953)" fill="#a65137"/>
          <path id="Trazado_1051927" data-name="Trazado 1051927" d="M128.673,146.853a.2.2,0,0,1-.1-.024.2.2,0,0,1-.08-.271l4.229-7.764a.2.2,0,1,1,.351.192l-4.228,7.764a.2.2,0,0,1-.176.1" transform="translate(-70.536 -76.145)" fill="#a65137"/>
          <path id="Trazado_1051928" data-name="Trazado 1051928" d="M141.714,155.932a.2.2,0,0,1-.181-.114c-.805-1.677,1.449-4.681,1.545-4.808a.2.2,0,0,1,.319.242c-.022.029-2.2,2.936-1.5,4.393a.2.2,0,0,1-.094.267.2.2,0,0,1-.086.02" transform="translate(-77.611 -82.866)" fill="#a65137"/>
          <path id="Trazado_1051929" data-name="Trazado 1051929" d="M147.732,142.164a.234.234,0,0,1-.039,0,.2.2,0,0,1-.158-.235,3.314,3.314,0,0,0-.388-2.083.2.2,0,0,1,.343-.207,3.672,3.672,0,0,1,.438,2.368.2.2,0,0,1-.2.161" transform="translate(-80.773 -76.612)" fill="#a65137"/>
          <path id="Trazado_1051930" data-name="Trazado 1051930" d="M143.54,135.058a.2.2,0,0,1-.179-.111c-.274-.548-1.1-.471-1.108-.47a.2.2,0,1,1-.04-.4,1.572,1.572,0,0,1,1.506.69.2.2,0,0,1-.179.29" transform="translate(-77.981 -73.611)" fill="#a65137"/>
          <path id="Trazado_1051931" data-name="Trazado 1051931" d="M142.091,136.149a.2.2,0,0,1-.179-.111c-.271-.544-1.1-.471-1.109-.47a.2.2,0,0,1-.039-.4,1.572,1.572,0,0,1,1.506.69.2.2,0,0,1-.179.29" transform="translate(-77.186 -74.21)" fill="#a65137"/>
          <path id="Trazado_1051932" data-name="Trazado 1051932" d="M84.252,216.373l18.279,4.511,1.949-5.812c-1.974,1-14.853-2.266-18.189-3.455Z" transform="translate(-46.257 -116.186)" fill="#b56e51"/>
          <path id="Trazado_1051933" data-name="Trazado 1051933" d="M53.872,267.89c-.857,5.308-2.12,11.4-3.91,18.332q-1.475,5.716-3.463,12.2H0V265.2c1.335-2.724,2.787-5.457,4.325-8.135,4.961-8.645,10.819-16.731,16.636-22.269q.852-.812,1.7-1.547s.009,0,.009-.009a34.969,34.969,0,0,1,4.2-3.157,11.5,11.5,0,0,1,9.394-1.245,60.456,60.456,0,0,1,12.577,5.376A13.072,13.072,0,0,1,55.3,244.391c.442,4.906.356,12.55-1.425,23.5" transform="translate(0 -125.373)" fill="#a65638"/>
          <path id="Trazado_1051934" data-name="Trazado 1051934" d="M173.792,140.2c-1.072-.238-1.891-.653-1.83-.925s.983-.077,2.055.161,1.825.52,1.764.792-.917.21-1.988-.028" transform="translate(-94.411 -76.392)" fill="#da374a"/>
          <path id="Trazado_1051935" data-name="Trazado 1051935" d="M182.234,144.476a6.7,6.7,0,0,1-3.045,1.724,1.633,1.633,0,0,0,.032-1.184c-.12-.548-.336-.98-.52-1.053a6.524,6.524,0,0,1,3.533.512" transform="translate(-98.113 -79.003)" fill="#fff"/>
          <path id="Trazado_1051936" data-name="Trazado 1051936" d="M136.317,146.285c-.028.008-.056.012-.084.02l-.036.008-33.972,8.735-.008-.02a.548.548,0,0,1-.112.04c-.524.1-1.149-.812-1.393-2.045s-.012-2.313.512-2.417h.012a.015.015,0,0,1,.012,0l34.432-6.53s.012,0,.016,0h0c.044-.008.084-.016.128-.02.184.072.4.5.52,1.053a1.636,1.636,0,0,1-.032,1.184" transform="translate(-55.242 -79.088)" fill="#291a1b"/>
          <path id="Trazado_1051937" data-name="Trazado 1051937" d="M153.779,149.836c-4.966,6.926-6.37,11.5-8.763,15.386-.536.988-1.869,2.625-5.1,3.969a9.69,9.69,0,0,0-2.713,1.5l4.238-16.778a11.462,11.462,0,0,0,3.5-1.949.358.358,0,0,0-.032.088l5.966-4.7c2.129-2.041,5.2-.72,2.909,2.477" transform="translate(-75.328 -80.37)" fill="#f7a27e"/>
          <path id="Trazado_1051938" data-name="Trazado 1051938" d="M169.951,148.524c-.988.988-2.252,1.326-2.822.755s-.233-1.835.755-2.822,2.252-1.326,2.823-.755.233,1.834-.755,2.822" transform="translate(-91.608 -79.843)" fill="#da374a"/>
          <path id="Trazado_1051939" data-name="Trazado 1051939" d="M143.148,160.322a2,2,0,0,1-.451-.048,1.388,1.388,0,0,1-.978-.786.2.2,0,0,1,.361-.173.994.994,0,0,0,.708.57c1.226.285,3.45-1.021,4.98-2.226a.2.2,0,0,1,.248.314c-1.5,1.184-3.49,2.35-4.868,2.35" transform="translate(-77.799 -86.537)" fill="#a65137"/>
          <path id="Trazado_1051940" data-name="Trazado 1051940" d="M98.728,163.353l-1.293.289a1.441,1.441,0,0,1-.628-2.813l1.293-.289a1.441,1.441,0,0,1,.628,2.813" transform="translate(-52.531 -88.123)" fill="#bf381d"/>
          <path id="Trazado_1051941" data-name="Trazado 1051941" d="M83.775,210.631l.016.008a.476.476,0,0,0-.04.056Z" transform="translate(-45.982 -115.644)" fill="#a65638"/>
          <path id="Trazado_1051942" data-name="Trazado 1051942" d="M127.01,228.687l-.056.128a.537.537,0,0,0,.036-.136Z" transform="translate(-69.702 -125.553)" fill="#a65638"/>
          <path id="Trazado_1051943" data-name="Trazado 1051943" d="M97.453,218.28a.538.538,0,0,1-.036.136l-4.745,11.368-19.515-8.147,4.738-11.344a.064.064,0,0,1,.008-.024.353.353,0,0,1,.032-.064.536.536,0,0,1,.04-.056c.764-1,5.386-.12,10.58,2.049s9.068,4.83,8.9,6.082" transform="translate(-40.165 -115.154)" fill="#a65638"/>
          <path id="Trazado_1051944" data-name="Trazado 1051944" d="M88.81,243.375a.2.2,0,0,1-.2-.169c-.62-3.92-2.8-7.393-11.408-11.6-9.8-4.784-15.5-1.9-15.554-1.872a.2.2,0,0,1-.187-.354c.237-.125,5.916-3.015,15.916,1.867,8.766,4.28,10.988,7.849,11.627,11.893a.2.2,0,0,1-.166.229.19.19,0,0,1-.032,0" transform="translate(-33.687 -125.412)" fill="#6b2f1a"/>
          <path id="Trazado_1051945" data-name="Trazado 1051945" d="M108.328,333a.185.185,0,0,1-.05-.006.2.2,0,0,1-.145-.243c.064-.25.123-.5.179-.747a34.11,34.11,0,0,0-.464-17.324,19.1,19.1,0,0,0-.822-2.27.2.2,0,0,1,.363-.17,19.153,19.153,0,0,1,.842,2.323A34.514,34.514,0,0,1,108.7,332.1c-.056.249-.117.5-.181.757a.2.2,0,0,1-.193.151" transform="translate(-58.751 -171.37)" fill="#6b2f1a"/>
          <path id="Trazado_1051946" data-name="Trazado 1051946" d="M8.033,275.858a.2.2,0,0,1-.174-.3c.009-.015.216-.381.623-1,1.789-2.733,8.409-11.807,18.483-13.812a20.93,20.93,0,0,1,6.666-.242.2.2,0,0,1-.049.4,20.492,20.492,0,0,0-6.539.237c-9.921,1.974-16.459,10.938-18.227,13.639-.4.61-.607.977-.609.981a.2.2,0,0,1-.175.1" transform="translate(-4.301 -142.937)" fill="#6b2f1a"/>
          <path id="Trazado_1051947" data-name="Trazado 1051947" d="M27.969,251.219c-9.915,1.973-16.406,10.748-18.355,13.725-.008-.012-.016-.028-.024-.04,4.962-8.643,10.82-16.73,16.634-22.268A6.325,6.325,0,0,0,24.6,249c.384,1.176,1.673,1.856,3.369,2.221" transform="translate(-5.265 -133.216)" fill="#6b2f1a"/>
          <path id="Trazado_1051948" data-name="Trazado 1051948" d="M88.608,221.135a.2.2,0,0,1-.043,0,.2.2,0,0,1-.153-.239A35.479,35.479,0,0,1,90.45,215c1.524-3.465,3.217-2.994,3.289-2.972a.2.2,0,0,1-.115.383c-.027-.006-1.448-.343-2.808,2.75a35.092,35.092,0,0,0-2.013,5.814.2.2,0,0,1-.195.157" transform="translate(-48.539 -116.395)" fill="#6b2f1a"/>
          <path id="Trazado_1051949" data-name="Trazado 1051949" d="M110.067,236.652a.2.2,0,0,1-.182-.282l2.183-4.879a.2.2,0,1,1,.365.164l-2.183,4.879a.2.2,0,0,1-.183.118" transform="translate(-60.321 -127.032)" fill="#6b2f1a"/>
          <path id="Trazado_1051950" data-name="Trazado 1051950" d="M113.554,315.266c-.861,5.31-2.121,11.4-3.914,18.334-.068-.06-.14-.112-.2-.168a39.221,39.221,0,0,0-.737-18.79c.724,1.393,2.022,2.692,3.186,2.488.684-.12,1.237-.892,1.669-1.865" transform="translate(-59.68 -172.75)" fill="#6b2f1a"/>
          <path id="Trazado_1051951" data-name="Trazado 1051951" d="M181.414,131.666l9.781-.311c.193-.006.193-.307,0-.3l-9.781.312c-.193.006-.193.306,0,.3" transform="translate(-99.523 -71.954)" fill="#fff"/>
          <path id="Trazado_1051952" data-name="Trazado 1051952" d="M182.064,137.223l3.511-.037a.15.15,0,0,0,0-.3l-3.511.037a.15.15,0,0,0,0,.3" transform="translate(-99.88 -75.155)" fill="#fff"/>
          <path id="Trazado_1051953" data-name="Trazado 1051953" d="M182.066,145.864l10.448-.447c.192-.008.193-.308,0-.3l-10.448.447c-.193.008-.193.308,0,.3" transform="translate(-99.881 -79.674)" fill="#fff"/>
          <path id="Trazado_1051954" data-name="Trazado 1051954" d="M184.382,151.709q4.545-.451,9.113-.572a.15.15,0,0,0,0-.3q-4.565.12-9.113.572c-.19.019-.192.319,0,.3" transform="translate(-101.154 -82.815)" fill="#fff"/>
        </g>
      </g>
      <g id="Grupo_1211000" data-name="Grupo 1211000">
        <g id="Enmascarar_grupo_1210999" data-name="Enmascarar grupo 1210999" clip-path="url(#clip-path-8)">
          <path id="Trazado_1051955" data-name="Trazado 1051955" d="M55.2,78.11H25.658a8.153,8.153,0,0,1,4.318-1.875,11.042,11.042,0,0,1,1.56-.134,7.441,7.441,0,0,0,3.835-1.124,13.1,13.1,0,0,1,2.883-1.323c3.186-1.027,6.177-.717,7.636.611a3.685,3.685,0,0,0,2.862.971c3.33-.337,6.382,1.172,6.45,2.874h0" transform="translate(-14.087 -40.103)" fill="#fff0da"/>
          <path id="Trazado_1051956" data-name="Trazado 1051956" d="M109.515,314.336H70.334a11.841,11.841,0,0,1,5.726-2.1,17.27,17.27,0,0,1,2.069-.151,11.252,11.252,0,0,0,5.087-1.256,19.056,19.056,0,0,1,3.823-1.478c4.226-1.149,8.191-.8,10.126.683a5.482,5.482,0,0,0,3.8,1.085c4.417-.377,8.464,1.31,8.555,3.213h0" transform="translate(-38.616 -169.471)" fill="#fff0da"/>
          <path id="Trazado_1051957" data-name="Trazado 1051957" d="M495.018,357.309c-.125-1.735-3.312-2.714-7.009-2.184l-.139.02a6.673,6.673,0,0,1-4.656-1.1c-2.588-1.718-6.894-2.844-11.769-2.844a29.973,29.973,0,0,0-8.841,1.829,16.818,16.818,0,0,1-6.057.859,18.443,18.443,0,0,0-3.268.187c-3.336.482-6.115,1.755-7.434,3.231h49.171l0,0" transform="translate(-244.785 -192.825)" fill="#b6ecf0"/>
          <path id="Trazado_1051958" data-name="Trazado 1051958" d="M536.515,93.115c-.1-1.334-2.547-2.087-5.391-1.679l-.107.015a5.133,5.133,0,0,1-3.581-.843,17.138,17.138,0,0,0-9.051-2.187,23.064,23.064,0,0,0-6.8,1.407,12.933,12.933,0,0,1-4.658.661,14.148,14.148,0,0,0-2.513.143,9.9,9.9,0,0,0-5.717,2.485h37.815l0,0" transform="translate(-273.803 -48.546)" fill="#fff0da"/>
          <path id="Trazado_1051960" data-name="Trazado 1051960" d="M211.245,23.045H101.693c3.135-2.657,9.052-4.92,16.01-5.861a48.285,48.285,0,0,1,5.785-.421,31.46,31.46,0,0,0,14.223-3.513A53.248,53.248,0,0,1,148.4,9.116c11.814-3.212,22.9-2.24,28.313,1.909a15.33,15.33,0,0,0,10.613,3.035c12.351-1.055,23.665,3.662,23.92,8.983l0,0" transform="translate(-55.833 -3.956)" fill="#b6ecf0"/>
        </g>
      </g>
    </g>
  </g>
</svg>
