<svg xmlns="http://www.w3.org/2000/svg" xmlns:xlink="http://www.w3.org/1999/xlink" width="1329" height="382.521" viewBox="0 0 1329 382.521">
  <defs>
    <linearGradient id="linear-gradient" x1="0.302" y1="0.751" x2="0.734" y2="0.322" gradientUnits="objectBoundingBox">
      <stop offset="0" stop-color="#acf1aa" stop-opacity="0.302"/>
      <stop offset="1" stop-color="#acf1aa" stop-opacity="0"/>
    </linearGradient>
    <linearGradient id="linear-gradient-2" x1="0.556" y1="0.814" x2="0.375" y2="0.302" xlink:href="#linear-gradient"/>
  </defs>
  <g id="Grupo_1211012" data-name="Grupo 1211012" transform="translate(175 700.909)">
    <g id="Grupo_1211011" data-name="Grupo 1211011" transform="translate(-311 -1252)">
      <g id="Grupo_1210904" data-name="Grupo 1210904">
        <g id="_2780414" data-name="2780414" transform="translate(520 432.262)">
          <g id="OBJECTS" transform="translate(30)">
            <g id="Grupo_1210344" data-name="Grupo 1210344">
              <path id="Trazado_1050163" data-name="Trazado 1050163" d="M199.47,410.98S192,271.62,172.72,260.42,72.55,247.35,70.69,258.55s29.86,174.2,29.86,174.2l91.46-1.24,7.47-20.53Z" transform="translate(5.615 -12.42)" fill="#30006b"/>
              <path id="Trazado_1050164" data-name="Trazado 1050164" d="M172.2,386.37s-18.33,8.39-31.54,37.91h91.26L217.16,397.1s-41-10.57-44.97-10.72Z" fill="#1b0037"/>
              <path id="Trazado_1050165" data-name="Trazado 1050165" d="M235.25,219.65s-10.34-24.33,24.71-18.02,45.83,27.16,47.13,36.74,1.09,66.62-.22,71.84c-10.45-1.96-15.02-7.18-15.02-7.18l-.22-25.47-2.39,22.64s-7.18-6.1-10.88-8.27l-.65-12.41-1.31,11.32.22-6.53-1.31,6.31a29.075,29.075,0,0,0-8.27-4.14c-4.14-1.09-1.09-12.63-1.09-12.63l-30.7-54.21Z" fill="#d43d14"/>
              <path id="Trazado_1050166" data-name="Trazado 1050166" d="M263.38,225.32s16.49,21.21,18.86,33.91c-4.05,18.07-14.48,38.09-14.48,38.09s-3.35,6.1-4.41,5.75c-9.26-3.05-21.25-8.43-28.39-15.07-3.98-26.65,3.53-56.24,3.53-56.24s18.66-9.24,24.88-6.44Z" fill="#fbcaa0"/>
              <path id="Trazado_1050167" data-name="Trazado 1050167" d="M265.23,220.06s-.79,19.83-8.76,28.66l3.34-15.12s-8.48,25.51-25.51,14.12c-.96-17.23,4.21-21.81,4.21-21.81s21.45-11.99,26.71-5.86Z" fill="#d43d14"/>
              <path id="Trazado_1050168" data-name="Trazado 1050168" d="M236.44,265.3l-9.79,38.37-10.9-9.98-8.13,32.37,24.86,19.48,8.28-8.43,3.07-29.3-9.36,1.22,8.5-28.85Z" fill="#ffc89f"/>
              <path id="Trazado_1050169" data-name="Trazado 1050169" d="M274.22,222.48s-13.28-10.67-38.32-3.05c-7.84,4.35-9.8,19.38-11.76,37.88s-1.96,29.17-1.96,29.17l3.92,6.1.87-25.47,1.09,28.95,8.22,7.84s-3-35.48.27-47.89,4.14-10.89,4.14-10.89l33.53-22.64Z" fill="#d43d14"/>
              <path id="Trazado_1050170" data-name="Trazado 1050170" d="M237.74,251.94c-.3-.48-1.95-5.92-7.29-6.11s-3.9,13.51-.8,16.6,5.46,4.54,7.21,1.93" fill="#f2a790"/>
              <path id="Trazado_1050171" data-name="Trazado 1050171" d="M257.81,330s-8.83,36.52-10.22,41.1c0,0,35.61-7.56,52.72-7.96,7.96,5.77,22.08,15.92,22.08,15.92s20.69,8.75,26.06,10.15c-.6,3.38-6.76,2.79-8.75,2.19s-9.55-3.78-9.55-3.78l8.75,17.31s-2.59.8-6.57-1.59-10.15-14.92-10.15-14.92-2.39,16.11-2.39,18.7a12.072,12.072,0,0,1-5.17-8.36,65.121,65.121,0,0,1-.6-12.53l-13.93-6.76s-3.58,10.15-7.76,11.14-5.77-.4-5.77-.4,6.37-13.13,6.17-20.49c0,0-38.99,23.87-64.85,20.69,7.56-32.23,15.32-59.28,15.32-59.28l14.6-1.11Z" fill="#fbcaa0"/>
              <path id="Trazado_1050172" data-name="Trazado 1050172" d="M240.43,307.48s-.85,27.51-6.82,26.23-20.47-9.81-19.83-18.34,2.99-21.32,2.99-21.32-8.96-8.53-15.14-12.37-13.22,10.66-13.22,10.66l11.73,28.78-27.93,65.25s34.33,14.71,45.2,11.94c0,0,1.14-20.58,6.32-34.76,6.27,6.27,17.73,4.09,19.63-11.73s1.91-19.36,1.91-19.36l12.54-2.45s8.73-26.18.55-25.91-17.92,3.38-17.92,3.38Z" fill="#f9a21b"/>
              <path id="Trazado_1050173" data-name="Trazado 1050173" d="M266.28,274.22c-.47,2.12-1.06,4.21-1.71,6.27l-.4-.59c1.47.02,2.95.07,4.42.16l1.7.1-1.47.82a22.332,22.332,0,0,1-4.1,1.74,20.051,20.051,0,0,1-4.33.88c.69-.25,1.39-.46,2.06-.74.68-.26,1.35-.53,2.01-.82a38.236,38.236,0,0,0,3.85-1.9l.23.91q-2.205-.075-4.41-.24l-.61-.05.21-.55c.77-2.02,1.6-4.02,2.56-5.98Z" fill="#d67963"/>
              <path id="Trazado_1050174" data-name="Trazado 1050174" d="M254.39,287.89a4.63,4.63,0,0,1-2.87-.11,6.233,6.233,0,0,1-2.47-1.61,7.88,7.88,0,0,1-1.54-2.47,8.38,8.38,0,0,1-.6-2.78c.24.41.44.83.64,1.25l.66,1.19a12.386,12.386,0,0,0,1.57,2.12,7.611,7.611,0,0,0,4.61,2.4Z" fill="#d67963"/>
              <g id="Grupo_1210325" data-name="Grupo 1210325">
                <path id="Trazado_1050175" data-name="Trazado 1050175" d="M263.31,270.6s-1.97-13.88-11.09-6.15C253,270.43,259.18,272.97,263.31,270.6Z" fill="#fff"/>
                <path id="Trazado_1050176" data-name="Trazado 1050176" d="M263.31,270.6a24.6,24.6,0,0,0-1.46-3.93,8.934,8.934,0,0,0-2.34-3.22,3.778,3.778,0,0,0-3.54-.66,10.854,10.854,0,0,0-3.54,1.92l.11-.29a10.534,10.534,0,0,0,.3,1.84,9.136,9.136,0,0,0,.69,1.77,7.649,7.649,0,0,1-1.63-3.53l-.03-.16.14-.13a9.867,9.867,0,0,1,3.7-2.34,5.271,5.271,0,0,1,2.31-.18,4.66,4.66,0,0,1,2.11,1.01,8.5,8.5,0,0,1,2.37,3.71,15.182,15.182,0,0,1,.82,4.2Z" fill="#0a1d58"/>
                <path id="Trazado_1050177" data-name="Trazado 1050177" d="M261.92,267.48c.02,1.96-1.03,3.56-2.35,3.58s-2.42-1.56-2.44-3.52,1.03-3.56,2.35-3.58S261.9,265.52,261.92,267.48Z" fill="#0a1d58"/>
              </g>
              <g id="Grupo_1210326" data-name="Grupo 1210326">
                <path id="Trazado_1050178" data-name="Trazado 1050178" d="M229.65,262.44c1.32.74,2.44,1.69,3.64,2.34a3.321,3.321,0,0,0,1.79.52,3.233,3.233,0,0,0,1.78-.92,2.485,2.485,0,0,1-1.63,1.68,3.247,3.247,0,0,1-2.42-.4,7.9,7.9,0,0,1-1.8-1.42,8.962,8.962,0,0,1-1.36-1.8Z" fill="#d67963"/>
                <path id="Trazado_1050179" data-name="Trazado 1050179" d="M237.74,251.94c-.54-.69-.96-1.4-1.46-2.05a14.5,14.5,0,0,0-1.59-1.8,10.005,10.005,0,0,0-1.92-1.37,13.694,13.694,0,0,0-2.31-.89,5.283,5.283,0,0,1,2.61.17,6.322,6.322,0,0,1,2.3,1.36,7.684,7.684,0,0,1,1.57,2.12,8.441,8.441,0,0,1,.8,2.46Z" fill="#d67963"/>
                <path id="Trazado_1050180" data-name="Trazado 1050180" d="M230.35,251.26a1.422,1.422,0,0,1,.96-1.06,1.853,1.853,0,0,1,1.49.35,7.882,7.882,0,0,1,1.96,2.12,19.15,19.15,0,0,1,1.38,2.45c.43.83.74,1.71,1.1,2.57l.2.49-.5.08a2.9,2.9,0,0,0-.89.24c-.25.13-.32.21-.24.49a2.446,2.446,0,0,0,.55.8c.24.25.51.49.78.72a4.384,4.384,0,0,1-.96-.5,2.721,2.721,0,0,1-.84-.79.913.913,0,0,1-.11-.72,1.079,1.079,0,0,1,.45-.58,3.741,3.741,0,0,1,1.11-.46l-.3.57c-.42-.81-.79-1.66-1.21-2.46s-.83-1.62-1.28-2.39a10.124,10.124,0,0,0-1.56-2.11,1.574,1.574,0,0,0-1.04-.5,1.369,1.369,0,0,0-1.02.7Z" fill="#d67963"/>
              </g>
              <g id="Grupo_1210327" data-name="Grupo 1210327">
                <path id="Trazado_1050181" data-name="Trazado 1050181" d="M268.58,272.4s7.48-9.75,10.31-2.11C276.51,274.5,271.09,277.28,268.58,272.4Z" fill="#fff"/>
                <path id="Trazado_1050182" data-name="Trazado 1050182" d="M268.58,272.4a14.938,14.938,0,0,1,2.07-2.74,10.872,10.872,0,0,1,2.76-2.16,5.088,5.088,0,0,1,1.75-.58,3.223,3.223,0,0,1,1.92.32,4.637,4.637,0,0,1,2.04,2.96l.04.13-.06.08a8.864,8.864,0,0,1-1.44,1.61,14.551,14.551,0,0,0,1-1.86l-.02.21a4.732,4.732,0,0,0-1.97-2.33,3.389,3.389,0,0,0-2.85.3,15.191,15.191,0,0,0-2.72,1.82c-.86.7-1.71,1.45-2.54,2.23Z" fill="#0a1d58"/>
                <path id="Trazado_1050183" data-name="Trazado 1050183" d="M274.78,271.23a3.772,3.772,0,0,0-1.45-3.16,14.982,14.982,0,0,0-3.18,2.54,4.922,4.922,0,0,0-.04.67c.02,1.91,1.09,3.45,2.38,3.43s2.32-1.58,2.29-3.49Z" fill="#0a1d58"/>
              </g>
              <path id="Trazado_1050184" data-name="Trazado 1050184" d="M268.45,260.67s-4.65-13.44-13.7-4.13" fill="#0a1d58"/>
              <path id="Trazado_1050185" data-name="Trazado 1050185" d="M273.12,261.65s7.77-8.06,7.5,2.38" fill="#0a1d58"/>
              <path id="Trazado_1050186" data-name="Trazado 1050186" d="M188.94,293.39s-19.56,45.47-26.73,87.63c2.76,5.79,47.12,3.03,66.13-1.38s24.25-4.68,24.25-4.68-3.03,6.61-3.03,9.09,20.39,11.85,20.39,11.85,4.13,9.64,6.89,11.02,6.89,1.1,6.89,1.1L276.84,397s8.82,10.47,11.85,11.3a8.881,8.881,0,0,0,5.51-.28l-11.3-12.4-5.79-4.41,11.85,4.13s3.31,7.99,10.47,7.72c-3.03-5.24-6.34-12.12-6.34-12.12l-26.18-21.49s-73.3-2.2-84.87-2.48c4.96-15.98,18.07-45.84,18.07-45.84s-9.53-26.35-11.19-27.73Z" fill="#ffc89f"/>
              <g id="Grupo_1210328" data-name="Grupo 1210328">
                <path id="Trazado_1050187" data-name="Trazado 1050187" d="M228.35,379.64c3.96-1.17,7.96-2.16,11.98-3.07,2.01-.44,4.04-.86,6.07-1.22s4.05-.69,6.17-.88l.81-.07-.35.75c-.55,1.18-1.08,2.39-1.57,3.61a35.929,35.929,0,0,0-1.32,3.68c-.08.31-.16.62-.22.94a2.525,2.525,0,0,0-.06.46c0,.07-.02.17-.02.22a.2.2,0,0,0,.04.14,5.074,5.074,0,0,0,1.24,1.37c1,.84,2.1,1.58,3.19,2.33a29.632,29.632,0,0,1-3.43-2.02,4.6,4.6,0,0,1-1.49-1.46.8.8,0,0,1-.09-.33,2.615,2.615,0,0,1,0-.28,2.961,2.961,0,0,1,.04-.52c.04-.34.11-.67.17-1.01a44.061,44.061,0,0,1,2.65-7.54l.46.68c-1.99.18-4.04.56-6.05.89l-6.07,1.1-6.07,1.13c-2.02.38-4.05.75-6.08,1.09Z" fill="#d67963"/>
                <path id="Trazado_1050188" data-name="Trazado 1050188" d="M293.1,390.94c-4.49-3.43-8.92-6.93-13.33-10.46-4.42-3.51-8.77-7.11-13.16-10.65l.3.11-8.86-.3c-2.95-.11-5.91-.19-8.86-.33l-8.86-.41c-2.95-.17-5.9-.31-8.86-.51,2.96-.03,5.91.01,8.87.01l8.87.12c2.96.03,5.91.13,8.86.2l8.86.23h.17l.13.11c4.34,3.62,8.71,7.19,13.01,10.84s8.61,7.3,12.85,11.04Z" fill="#d67963"/>
              </g>
              <g id="Grupo_1210331" data-name="Grupo 1210331" transform="translate(-18.333)">
                <path id="Trazado_1050189" data-name="Trazado 1050189" d="M16.72,292.27,250.7,172.55l48.26,233.87L183.14,393.8l-132.9-6.68Z" fill="url(#linear-gradient)"/>
                <g id="Grupo_1210329" data-name="Grupo 1210329">
                  <path id="Trazado_1050190" data-name="Trazado 1050190" d="M16.72,292.27h153.8l31.82,99.82-2.81,3.74L48.54,392.09,13.91,296.01Z" fill="#150035"/>
                  <path id="Trazado_1050191" data-name="Trazado 1050191" d="M13.91,296.01h153.8l31.82,99.82H45.73Z" fill="#230054"/>
                </g>
                <g id="Grupo_1210330" data-name="Grupo 1210330">
                  <path id="Trazado_1050192" data-name="Trazado 1050192" d="M88.54,351.48H117l20.41,64.02-1.8,2.4-26.67-2.4-22.2-61.62Z" fill="#150035"/>
                  <path id="Trazado_1050193" data-name="Trazado 1050193" d="M86.74,353.88H115.2l20.41,64.02H107.14Z" fill="#30006b"/>
                </g>
                <rect id="Rectángulo_419628" data-name="Rectángulo 419628" width="68.35" height="5.41" transform="translate(154.63 420.33) rotate(180)" fill="#150035"/>
              </g>
              <g id="Grupo_1210336" data-name="Grupo 1210336" transform="translate(9.85)">
                <path id="Trazado_1050194" data-name="Trazado 1050194" d="M481.63,337.35,282.72,198,176.44,414.65l161.76-.32Z" fill="url(#linear-gradient-2)"/>
                <g id="Grupo_1210332" data-name="Grupo 1210332">
                  <rect id="Rectángulo_419629" data-name="Rectángulo 419629" width="6.35" height="2.99" transform="translate(247.94 412.74)" fill="#1b0037"/>
                  <rect id="Rectángulo_419630" data-name="Rectángulo 419630" width="6.35" height="2.99" transform="translate(255.71 412.74)" fill="#1b0037"/>
                  <rect id="Rectángulo_419631" data-name="Rectángulo 419631" width="6.35" height="2.99" transform="translate(263.48 412.74)" fill="#1b0037"/>
                  <rect id="Rectángulo_419632" data-name="Rectángulo 419632" width="6.35" height="2.99" transform="translate(271.25 412.74)" fill="#1b0037"/>
                  <rect id="Rectángulo_419633" data-name="Rectángulo 419633" width="6.35" height="2.99" transform="translate(279.02 412.74)" fill="#1b0037"/>
                  <rect id="Rectángulo_419634" data-name="Rectángulo 419634" width="6.35" height="2.99" transform="translate(286.79 412.74)" fill="#1b0037"/>
                  <rect id="Rectángulo_419635" data-name="Rectángulo 419635" width="6.35" height="2.99" transform="translate(294.56 412.74)" fill="#1b0037"/>
                  <rect id="Rectángulo_419636" data-name="Rectángulo 419636" width="6.35" height="2.99" transform="translate(302.33 412.74)" fill="#1b0037"/>
                  <rect id="Rectángulo_419637" data-name="Rectángulo 419637" width="6.35" height="2.99" transform="translate(310.1 412.74)" fill="#1b0037"/>
                  <rect id="Rectángulo_419638" data-name="Rectángulo 419638" width="6.35" height="2.99" transform="translate(317.87 412.74)" fill="#1b0037"/>
                  <rect id="Rectángulo_419639" data-name="Rectángulo 419639" width="6.35" height="2.99" transform="translate(325.64 412.74)" fill="#1b0037"/>
                  <rect id="Rectángulo_419640" data-name="Rectángulo 419640" width="6.35" height="2.99" transform="translate(333.41 412.74)" fill="#1b0037"/>
                </g>
                <g id="Grupo_1210335" data-name="Grupo 1210335">
                  <path id="Trazado_1050195" data-name="Trazado 1050195" d="M338.2,414.33l-1.35-.81,32.41-77.25H480.41l1.22,1.08Z" fill="#150035"/>
                  <path id="Trazado_1050196" data-name="Trazado 1050196" d="M370.62,337.35H481.63l-32.42,76.98H338.2Z" fill="#30006b"/>
                  <rect id="Rectángulo_419641" data-name="Rectángulo 419641" width="96.02" height="6.62" transform="translate(338.2 420.94) rotate(180)" fill="#30006b"/>
                  <rect id="Rectángulo_419642" data-name="Rectángulo 419642" width="111.15" height="6.62" transform="translate(449.35 420.94) rotate(180)" fill="#230054"/>
                  <g id="Grupo_1210333" data-name="Grupo 1210333">
                    <line id="Línea_1537" data-name="Línea 1537" y2="3.92" transform="translate(342.79 415.81)" fill="none" stroke="#150035" stroke-miterlimit="10" stroke-width="1.62"/>
                    <line id="Línea_1538" data-name="Línea 1538" y2="3.92" transform="translate(346.71 415.81)" fill="none" stroke="#150035" stroke-miterlimit="10" stroke-width="1.62"/>
                    <line id="Línea_1539" data-name="Línea 1539" y2="3.92" transform="translate(350.63 415.81)" fill="none" stroke="#150035" stroke-miterlimit="10" stroke-width="1.62"/>
                    <line id="Línea_1540" data-name="Línea 1540" y2="3.92" transform="translate(354.54 415.81)" fill="none" stroke="#150035" stroke-miterlimit="10" stroke-width="1.62"/>
                    <line id="Línea_1541" data-name="Línea 1541" y2="3.92" transform="translate(358.46 415.81)" fill="none" stroke="#150035" stroke-miterlimit="10" stroke-width="1.62"/>
                  </g>
                  <g id="Grupo_1210334" data-name="Grupo 1210334">
                    <line id="Línea_1542" data-name="Línea 1542" y2="3.92" transform="translate(429.63 415.81)" fill="none" stroke="#150035" stroke-miterlimit="10" stroke-width="1.62"/>
                    <line id="Línea_1543" data-name="Línea 1543" y2="3.92" transform="translate(433.55 415.81)" fill="none" stroke="#150035" stroke-miterlimit="10" stroke-width="1.62"/>
                    <line id="Línea_1544" data-name="Línea 1544" y2="3.92" transform="translate(437.47 415.81)" fill="none" stroke="#150035" stroke-miterlimit="10" stroke-width="1.62"/>
                    <line id="Línea_1545" data-name="Línea 1545" y2="3.92" transform="translate(441.38 415.81)" fill="none" stroke="#150035" stroke-miterlimit="10" stroke-width="1.62"/>
                    <line id="Línea_1546" data-name="Línea 1546" y2="3.92" transform="translate(445.3 415.81)" fill="none" stroke="#150035" stroke-miterlimit="10" stroke-width="1.62"/>
                  </g>
                  <line id="Línea_1547" data-name="Línea 1547" x1="207.17" transform="translate(242.18 417.77)" fill="none" stroke="#150035" stroke-miterlimit="10" stroke-width="0.32"/>
                </g>
              </g>
              <path id="Trazado_1050197" data-name="Trazado 1050197" d="M219.89,305.11c1.57,1.32,3.08,2.71,4.57,4.12,1.51,1.39,2.95,2.84,4.4,4.29l.17.17-.03.25c-.07.55-.13,1.12-.15,1.66a3.786,3.786,0,0,0,.05.77.776.776,0,0,0,.07.24c.04.03-.1-.06-.12-.04a1.412,1.412,0,0,0,.43-.34,6.544,6.544,0,0,0,.52-.62c.34-.45.64-.93.96-1.41l.12-.19h.18l3.36-.14c1.12,0,2.25-.05,3.37-.02-1.11.21-2.22.35-3.33.52l-3.34.42.31-.19a17.225,17.225,0,0,1-.92,1.53,6.367,6.367,0,0,1-.57.74,1.8,1.8,0,0,1-.96.66.789.789,0,0,1-.51-.08.962.962,0,0,1-.34-.32,1.605,1.605,0,0,1-.21-.57,6.671,6.671,0,0,1-.08-.97,12.055,12.055,0,0,1,.15-1.81l.14.42c-1.43-1.47-2.85-2.94-4.22-4.47-1.38-1.51-2.75-3.04-4.05-4.64Z" fill="#d67963"/>
              <g id="Grupo_1210337" data-name="Grupo 1210337">
                <path id="Trazado_1050198" data-name="Trazado 1050198" d="M245.26,332.46a61.932,61.932,0,0,1-.1-7.94c.07-1.32.14-2.64.26-3.95.1-1.32.28-2.63.42-3.95a25.382,25.382,0,0,1,.36,3.98c.04,1.33,0,2.65-.04,3.97a51.523,51.523,0,0,1-.9,7.9Z" fill="#77c673"/>
                <path id="Trazado_1050199" data-name="Trazado 1050199" d="M200.13,321.13a13.483,13.483,0,0,1,.86-3.33c.38-1.08.82-2.13,1.27-3.17a39.278,39.278,0,0,1,3.26-6.01,44.194,44.194,0,0,1-2.35,6.41c-.47,1.03-.95,2.06-1.47,3.07-.49,1.02-1.1,1.99-1.57,3.02Z" fill="#77c673"/>
              </g>
              <g id="Grupo_1210338" data-name="Grupo 1210338">
                <path id="Trazado_1050200" data-name="Trazado 1050200" d="M293.1,390.94a56.783,56.783,0,0,1-7.6-2.5,55.481,55.481,0,0,1-7.23-3.43,63.967,63.967,0,0,1,14.83,5.93Z" fill="#d67963"/>
                <path id="Trazado_1050201" data-name="Trazado 1050201" d="M322.18,388.41c-.08-1.37-.12-2.74-.13-4.11l.15.3c-2.46-1.42-4.87-2.94-7.23-4.52s-4.67-3.24-6.88-5.05c2.55,1.28,5,2.73,7.41,4.24s4.76,3.1,7.06,4.77l.17.12-.02.17c-.15,1.36-.32,2.72-.54,4.07Z" fill="#d67963"/>
                <path id="Trazado_1050202" data-name="Trazado 1050202" d="M330.14,387.62a25.837,25.837,0,0,1-3-3.29l.05.06c-.87-.81-1.74-1.63-2.54-2.52a24.771,24.771,0,0,1-2.27-2.8,23.8,23.8,0,0,1,2.87,2.18c.91.78,1.76,1.61,2.6,2.46l.04.04.02.02A25.736,25.736,0,0,1,330.14,387.62Z" fill="#d67963"/>
              </g>
              <rect id="Rectángulo_419643" data-name="Rectángulo 419643" width="140.68" height="94.63" transform="translate(327.39 152.48)" fill="none" stroke="#acf1aa" stroke-miterlimit="10" stroke-width="1"/>
              <rect id="Rectángulo_419644" data-name="Rectángulo 419644" width="128.18" height="84.32" transform="translate(333.64 157.63)" fill="#30006b"/>
              <g id="Grupo_1210339" data-name="Grupo 1210339">
                <path id="Trazado_1050203" data-name="Trazado 1050203" d="M270.44,163.59l.89-8.08-4.06-.45a18.92,18.92,0,0,0-1.86-6.4l3.2-2.56-5.08-6.35-3.2,2.56a18.852,18.852,0,0,0-5.83-3.22l.45-4.06-8.08-.89-.45,4.06a18.92,18.92,0,0,0-6.4,1.86l-2.56-3.2-6.35,5.08,2.56,3.2a18.852,18.852,0,0,0-3.22,5.83l-4.06-.45-.89,8.08,4.06.45a18.92,18.92,0,0,0,1.86,6.4l-3.2,2.56,5.08,6.35,3.2-2.56a18.852,18.852,0,0,0,5.83,3.22l-.45,4.06,8.08.89.45-4.06a18.92,18.92,0,0,0,6.4-1.86l2.56,3.2,6.35-5.08-2.56-3.2a18.852,18.852,0,0,0,3.22-5.83l4.06.45Zm-22.77.16a6.741,6.741,0,1,1,7.44-5.96A6.748,6.748,0,0,1,247.67,163.75Z" fill="none" stroke="#acf1aa" stroke-miterlimit="10" stroke-width="1"/>
                <path id="Trazado_1050204" data-name="Trazado 1050204" d="M221.77,173.83l4.9-11.63-5.85-2.47a29.218,29.218,0,0,0,.06-10.34l5.89-2.4-4.75-11.69-5.89,2.4a29.37,29.37,0,0,0-7.26-7.37l2.47-5.85-11.63-4.9-2.47,5.85a29.218,29.218,0,0,0-10.34-.06l-2.4-5.89-11.69,4.75,2.4,5.89a29.37,29.37,0,0,0-7.37,7.26l-5.85-2.47-4.9,11.63,5.85,2.47a29.218,29.218,0,0,0-.06,10.34l-5.89,2.4,4.75,11.69,5.89-2.4a29.37,29.37,0,0,0,7.26,7.37l-2.47,5.85,11.63,4.9,2.47-5.85a29.218,29.218,0,0,0,10.34.06l2.4,5.89,11.69-4.75-2.4-5.89a29.37,29.37,0,0,0,7.37-7.26Zm-33.95-9.81a10.457,10.457,0,1,1,13.7-5.57A10.453,10.453,0,0,1,187.82,164.02Z" fill="none" stroke="#acf1aa" stroke-miterlimit="10" stroke-width="1"/>
              </g>
              <g id="Grupo_1210340" data-name="Grupo 1210340">
                <path id="Trazado_1050205" data-name="Trazado 1050205" d="M404.49,171.56H346.28a1.1,1.1,0,0,1-1.1-1.1h0a1.1,1.1,0,0,1,1.1-1.1h58.21a1.1,1.1,0,0,1,1.1,1.1h0A1.1,1.1,0,0,1,404.49,171.56Z" fill="#acf1aa"/>
                <path id="Trazado_1050206" data-name="Trazado 1050206" d="M421.34,177.07H346.27a1.1,1.1,0,0,1-1.1-1.1h0a1.1,1.1,0,0,1,1.1-1.1h75.07a1.1,1.1,0,0,1,1.1,1.1h0A1.1,1.1,0,0,1,421.34,177.07Z" fill="#acf1aa"/>
                <path id="Trazado_1050207" data-name="Trazado 1050207" d="M404.49,182.58H346.28a1.1,1.1,0,0,1-1.1-1.1h0a1.1,1.1,0,0,1,1.1-1.1h58.21a1.1,1.1,0,0,1,1.1,1.1h0A1.1,1.1,0,0,1,404.49,182.58Z" fill="#acf1aa"/>
                <path id="Trazado_1050208" data-name="Trazado 1050208" d="M394.44,188.09H346.28a1.1,1.1,0,0,1-1.1-1.1h0a1.1,1.1,0,0,1,1.1-1.1h48.16a1.1,1.1,0,0,1,1.1,1.1h0A1.1,1.1,0,0,1,394.44,188.09Z" fill="#acf1aa"/>
                <path id="Trazado_1050209" data-name="Trazado 1050209" d="M449.88,193.61H346.28a1.1,1.1,0,0,1-1.1-1.1h0a1.1,1.1,0,0,1,1.1-1.1h103.6a1.1,1.1,0,0,1,1.1,1.1h0A1.1,1.1,0,0,1,449.88,193.61Z" fill="#acf1aa"/>
                <path id="Trazado_1050210" data-name="Trazado 1050210" d="M420.98,199.12h-74.7a1.1,1.1,0,0,1-1.1-1.1h0a1.1,1.1,0,0,1,1.1-1.1h74.7a1.1,1.1,0,0,1,1.1,1.1h0a1.1,1.1,0,0,1-1.1,1.1Z" fill="#acf1aa"/>
                <path id="Trazado_1050211" data-name="Trazado 1050211" d="M442.27,204.63H346.28a1.1,1.1,0,0,1-1.1-1.1h0a1.1,1.1,0,0,1,1.1-1.1h95.99a1.1,1.1,0,0,1,1.1,1.1h0A1.1,1.1,0,0,1,442.27,204.63Z" fill="#acf1aa"/>
                <path id="Trazado_1050212" data-name="Trazado 1050212" d="M415,210.15H346.27a1.1,1.1,0,0,1-1.1-1.1h0a1.1,1.1,0,0,1,1.1-1.1H415a1.1,1.1,0,0,1,1.1,1.1h0A1.1,1.1,0,0,1,415,210.15Z" fill="#acf1aa"/>
                <path id="Trazado_1050213" data-name="Trazado 1050213" d="M435.2,215.66H346.27a1.1,1.1,0,0,1-1.1-1.1h0a1.1,1.1,0,0,1,1.1-1.1H435.2a1.1,1.1,0,0,1,1.1,1.1h0A1.1,1.1,0,0,1,435.2,215.66Z" fill="#acf1aa"/>
                <path id="Trazado_1050214" data-name="Trazado 1050214" d="M404.49,221.17H346.28a1.1,1.1,0,0,1-1.1-1.1h0a1.1,1.1,0,0,1,1.1-1.1h58.21a1.1,1.1,0,0,1,1.1,1.1h0A1.1,1.1,0,0,1,404.49,221.17Z" fill="#acf1aa"/>
                <path id="Trazado_1050215" data-name="Trazado 1050215" d="M404.49,226.69H346.28a1.1,1.1,0,0,1-1.1-1.1h0a1.1,1.1,0,0,1,1.1-1.1h58.21a1.1,1.1,0,0,1,1.1,1.1h0A1.1,1.1,0,0,1,404.49,226.69Z" fill="#acf1aa"/>
                <path id="Trazado_1050216" data-name="Trazado 1050216" d="M404.49,232.2H346.28a1.1,1.1,0,0,1-1.1-1.1h0a1.1,1.1,0,0,1,1.1-1.1h58.21a1.1,1.1,0,0,1,1.1,1.1h0A1.1,1.1,0,0,1,404.49,232.2Z" fill="#acf1aa"/>
              </g>
              <g id="Grupo_1210341" data-name="Grupo 1210341">
                <rect id="Rectángulo_419645" data-name="Rectángulo 419645" width="48.4" height="21.32" transform="translate(309.6 139.42)" fill="none" stroke="#acf1aa" stroke-miterlimit="10" stroke-width="1"/>
                <rect id="Rectángulo_419646" data-name="Rectángulo 419646" width="48.4" height="21.32" transform="translate(312.6 142.42)" fill="#acf1aa"/>
                <text id="HTML" transform="translate(323.58 156.83)" fill="#27004f" font-size="11.42" font-family="BebasNeueBold, Bebas Neue" letter-spacing="0.2em"><tspan x="0" y="0">HTML</tspan></text>
              </g>
              <rect id="Rectángulo_419647" data-name="Rectángulo 419647" width="131.9" height="39.41" transform="translate(50.29 198.59)" fill="none" stroke="#acf1aa" stroke-miterlimit="10" stroke-width="1"/>
              <rect id="Rectángulo_419648" data-name="Rectángulo 419648" width="119.86" height="29.55" transform="translate(56.31 203.52)" fill="#30006b"/>
              <text id="_" data-name="&lt;/&gt;" transform="translate(94.98 225.86)" fill="#acf1aa" font-size="22.73" font-family="BebasNeueBold, Bebas Neue" letter-spacing="0.28em"><tspan x="0" y="0">&lt;/&gt;</tspan></text>
              <g id="Grupo_1210343" data-name="Grupo 1210343">
                <g id="Grupo_1210342" data-name="Grupo 1210342">
                  <text id="C_" data-name="C++" transform="translate(364.4 287.9)" fill="#acf1aa" font-size="20.07" font-family="BebasNeueBold, Bebas Neue" letter-spacing="0.28em"><tspan x="0" y="0">C++</tspan></text>
                  <rect id="Rectángulo_419649" data-name="Rectángulo 419649" width="51.71" height="22.98" transform="translate(356.25 268.22)" fill="none" stroke="#acf1aa" stroke-miterlimit="10" stroke-width="0.88"/>
                </g>
                <path id="Trazado_1050217" data-name="Trazado 1050217" d="M407.13,297.6H356.54a1.261,1.261,0,0,1-1.26-1.26h0a1.261,1.261,0,0,1,1.26-1.26h50.59a1.261,1.261,0,0,1,1.26,1.26h0A1.261,1.261,0,0,1,407.13,297.6Z" fill="#acf1aa"/>
                <path id="Trazado_1050218" data-name="Trazado 1050218" d="M424.78,302.88H356.53a1.261,1.261,0,0,1-1.26-1.26h0a1.261,1.261,0,0,1,1.26-1.26h68.25a1.261,1.261,0,0,1,1.26,1.26h0A1.261,1.261,0,0,1,424.78,302.88Z" fill="#acf1aa"/>
                <path id="Trazado_1050219" data-name="Trazado 1050219" d="M442.44,308.16h-85.9a1.261,1.261,0,0,1-1.26-1.26h0a1.261,1.261,0,0,1,1.26-1.26h85.9a1.261,1.261,0,0,1,1.26,1.26h0A1.261,1.261,0,0,1,442.44,308.16Z" fill="#acf1aa"/>
                <path id="Trazado_1050220" data-name="Trazado 1050220" d="M424.78,313.44H356.53a1.261,1.261,0,0,1-1.26-1.26h0a1.261,1.261,0,0,1,1.26-1.26h68.25a1.261,1.261,0,0,1,1.26,1.26h0A1.261,1.261,0,0,1,424.78,313.44Z" fill="#acf1aa"/>
              </g>
            </g>
          </g>
        </g>
        <g id="Rectángulo_419651" data-name="Rectángulo 419651" transform="translate(970 785)" fill="#fff" stroke="#1d7083" stroke-width="1">
          <rect width="214" height="40" rx="20" stroke="none"/>
          <rect x="0.5" y="0.5" width="213" height="39" rx="19.5" fill="none"/>
        </g>
        <path id="Trazado_1051971" data-name="Trazado 1051971" d="M6.18,0H1.219V-11.516H6.18a6.053,6.053,0,0,1,1.781.25A3.8,3.8,0,0,1,9.922-9.8a5.125,5.125,0,0,1,.82,1.859,8.926,8.926,0,0,1,.219,1.906,7.654,7.654,0,0,1-.922,3.891A4.16,4.16,0,0,1,6.18,0ZM7.969-8.578a2.339,2.339,0,0,0-2.2-.937H3.555V-2H5.773A2.4,2.4,0,0,0,8.148-3.68a5.924,5.924,0,0,0,.367-2.2A5.46,5.46,0,0,0,7.969-8.578ZM19.884-2.5A2.824,2.824,0,0,1,19.1-.961,3.866,3.866,0,0,1,16.033.281,4.318,4.318,0,0,1,13.166-.766a4.222,4.222,0,0,1-1.242-3.406,4.734,4.734,0,0,1,1.121-3.391,3.833,3.833,0,0,1,2.91-1.18,4.463,4.463,0,0,1,1.914.4,3.353,3.353,0,0,1,1.406,1.258,4.292,4.292,0,0,1,.648,1.758,11.352,11.352,0,0,1,.07,1.688H14.166a2.116,2.116,0,0,0,.8,1.8,1.9,1.9,0,0,0,1.109.32A1.6,1.6,0,0,0,17.2-1.914a1.855,1.855,0,0,0,.414-.586Zm-2.2-2.609a1.938,1.938,0,0,0-.535-1.34,1.662,1.662,0,0,0-1.191-.457,1.512,1.512,0,0,0-1.2.484,2.418,2.418,0,0,0-.535,1.313Zm2.978-3.406h2.5l1.773,6.281,1.813-6.281h2.391L26.066,0H23.714ZM37.684-2.5A2.824,2.824,0,0,1,36.9-.961,3.866,3.866,0,0,1,33.833.281,4.318,4.318,0,0,1,30.966-.766a4.222,4.222,0,0,1-1.242-3.406,4.734,4.734,0,0,1,1.121-3.391,3.833,3.833,0,0,1,2.91-1.18,4.463,4.463,0,0,1,1.914.4,3.353,3.353,0,0,1,1.406,1.258,4.292,4.292,0,0,1,.648,1.758,11.352,11.352,0,0,1,.07,1.688H31.966a2.116,2.116,0,0,0,.8,1.8,1.9,1.9,0,0,0,1.109.32A1.6,1.6,0,0,0,35-1.914a1.855,1.855,0,0,0,.414-.586Zm-2.2-2.609a1.938,1.938,0,0,0-.535-1.34,1.662,1.662,0,0,0-1.191-.457,1.512,1.512,0,0,0-1.2.484,2.418,2.418,0,0,0-.535,1.313Zm3.861-6.406h2.227V0H39.342Zm11.5,4.078a4.969,4.969,0,0,1,1.078,3.2,4.936,4.936,0,0,1-1.078,3.207A3.961,3.961,0,0,1,47.57.3,3.961,3.961,0,0,1,44.3-1.035a4.936,4.936,0,0,1-1.078-3.207,4.969,4.969,0,0,1,1.078-3.2A3.934,3.934,0,0,1,47.57-8.789,3.934,3.934,0,0,1,50.844-7.437Zm-3.281.531a1.779,1.779,0,0,0-1.5.691,3.2,3.2,0,0,0-.527,1.973,3.217,3.217,0,0,0,.527,1.977,1.775,1.775,0,0,0,1.5.7,1.765,1.765,0,0,0,1.5-.7,3.235,3.235,0,0,0,.523-1.977,3.217,3.217,0,0,0-.523-1.973A1.769,1.769,0,0,0,47.563-6.906ZM60.65-7.6a4.569,4.569,0,0,1,1.031,3.234A5.13,5.13,0,0,1,60.67-.937,3.275,3.275,0,0,1,58.064.242a2.719,2.719,0,0,1-1.687-.508,3.274,3.274,0,0,1-.719-.82V3.352h-2.2V-8.516h2.133v1.258a3.575,3.575,0,0,1,.766-.875,2.813,2.813,0,0,1,1.766-.57A3.348,3.348,0,0,1,60.65-7.6ZM59.385-4.258A3.351,3.351,0,0,0,58.935-6a1.564,1.564,0,0,0-1.457-.758,1.658,1.658,0,0,0-1.664,1.148,4.356,4.356,0,0,0-.234,1.547,2.467,2.467,0,0,0,.789,2.086,1.8,1.8,0,0,0,1.109.352A1.608,1.608,0,0,0,58.9-2.344,3.352,3.352,0,0,0,59.385-4.258Zm8.689-1.914a1.091,1.091,0,0,0-1.1-.617,1.315,1.315,0,0,0-1.281.617,2.378,2.378,0,0,0-.18,1.047V0H63.253V-8.5h2.164v1.242A3.583,3.583,0,0,1,66.2-8.2a2.673,2.673,0,0,1,1.68-.5,2.657,2.657,0,0,1,1.578.43,2.5,2.5,0,0,1,.734,1.023,2.831,2.831,0,0,1,1.086-1.1A3.314,3.314,0,0,1,72.808-8.7a2.964,2.964,0,0,1,1.109.219,2.475,2.475,0,0,1,.992.766,2.446,2.446,0,0,1,.484,1.094,7.559,7.559,0,0,1,.078,1.258L75.457,0H73.175V-5.422a1.78,1.78,0,0,0-.156-.8,1.11,1.11,0,0,0-1.094-.594,1.28,1.28,0,0,0-1.273.766,2.4,2.4,0,0,0-.18.977V0H68.23V-5.07A2.848,2.848,0,0,0,68.074-6.172ZM84.81-2.5a2.824,2.824,0,0,1-.789,1.539A3.866,3.866,0,0,1,80.958.281,4.318,4.318,0,0,1,78.091-.766a4.222,4.222,0,0,1-1.242-3.406A4.734,4.734,0,0,1,77.97-7.562a3.833,3.833,0,0,1,2.91-1.18,4.463,4.463,0,0,1,1.914.4A3.353,3.353,0,0,1,84.2-7.086a4.292,4.292,0,0,1,.648,1.758,11.353,11.353,0,0,1,.07,1.688H79.091a2.116,2.116,0,0,0,.8,1.8A1.9,1.9,0,0,0,81-1.523a1.6,1.6,0,0,0,1.117-.391,1.855,1.855,0,0,0,.414-.586Zm-2.2-2.609a1.938,1.938,0,0,0-.535-1.34,1.662,1.662,0,0,0-1.191-.457,1.512,1.512,0,0,0-1.2.484,2.418,2.418,0,0,0-.535,1.313Zm7.822-1.758a1.55,1.55,0,0,0-1.555.961,3.3,3.3,0,0,0-.219,1.3V0H86.436V-8.5h2.148v1.242A3.78,3.78,0,0,1,89.4-8.2a2.824,2.824,0,0,1,1.742-.516,3.287,3.287,0,0,1,2.16.691,2.811,2.811,0,0,1,.84,2.293V0H91.858V-5.18a2.364,2.364,0,0,0-.18-1.031A1.264,1.264,0,0,0,90.428-6.867Zm9.666,5.281V.078L99.039.117A2.83,2.83,0,0,1,96.883-.43a1.628,1.628,0,0,1-.375-1.18V-6.852H95.321V-8.437h1.188v-2.375h2.2v2.375h1.383v1.586H98.711v4.5a1.014,1.014,0,0,0,.133.652,1.462,1.462,0,0,0,.813.129q.1,0,.215,0T100.094-1.586Zm14.425-9.93v2.039h-3.445V0h-2.422V-9.477h-3.461v-2.039ZM121.857-2.5a2.824,2.824,0,0,1-.789,1.539A3.866,3.866,0,0,1,118.005.281a4.318,4.318,0,0,1-2.867-1.047A4.222,4.222,0,0,1,113.9-4.172a4.734,4.734,0,0,1,1.121-3.391,3.833,3.833,0,0,1,2.91-1.18,4.463,4.463,0,0,1,1.914.4,3.353,3.353,0,0,1,1.406,1.258,4.292,4.292,0,0,1,.648,1.758,11.353,11.353,0,0,1,.07,1.688h-5.828a2.116,2.116,0,0,0,.8,1.8,1.9,1.9,0,0,0,1.109.32,1.6,1.6,0,0,0,1.117-.391,1.855,1.855,0,0,0,.414-.586Zm-2.2-2.609a1.938,1.938,0,0,0-.535-1.34,1.662,1.662,0,0,0-1.191-.457,1.512,1.512,0,0,0-1.2.484,2.418,2.418,0,0,0-.535,1.313Zm4.134-2.484a3.636,3.636,0,0,1,3.031-1.125,5.385,5.385,0,0,1,2.484.555A2.13,2.13,0,0,1,130.39-6.07v3.906q0,.406.016.984a1.238,1.238,0,0,0,.133.594.8.8,0,0,0,.328.258V0h-2.422a2.481,2.481,0,0,1-.141-.484q-.039-.227-.062-.516a4.575,4.575,0,0,1-1.062.852,3.2,3.2,0,0,1-1.625.414,2.794,2.794,0,0,1-1.91-.66,2.355,2.355,0,0,1-.754-1.871A2.429,2.429,0,0,1,124.1-4.539a5.377,5.377,0,0,1,1.953-.547l.758-.094a3.475,3.475,0,0,0,.883-.2.669.669,0,0,0,.477-.633.751.751,0,0,0-.363-.723,2.269,2.269,0,0,0-1.066-.2,1.389,1.389,0,0,0-1.117.391,1.624,1.624,0,0,0-.312.781h-2.148A3.268,3.268,0,0,1,123.788-7.594Zm1.656,5.984a1.163,1.163,0,0,0,.766.258,2.268,2.268,0,0,0,1.324-.422,1.8,1.8,0,0,0,.629-1.539v-.828a2.42,2.42,0,0,1-.426.215,3.561,3.561,0,0,1-.59.152l-.5.094a3.229,3.229,0,0,0-1.008.3,1.021,1.021,0,0,0-.516.945A.978.978,0,0,0,125.444-1.609Zm11.7-4.562a1.091,1.091,0,0,0-1.1-.617,1.315,1.315,0,0,0-1.281.617,2.378,2.378,0,0,0-.18,1.047V0h-2.258V-8.5h2.164v1.242a3.583,3.583,0,0,1,.781-.945,2.673,2.673,0,0,1,1.68-.5,2.657,2.657,0,0,1,1.578.43,2.5,2.5,0,0,1,.734,1.023,2.831,2.831,0,0,1,1.086-1.1,3.314,3.314,0,0,1,1.531-.352,2.964,2.964,0,0,1,1.109.219,2.475,2.475,0,0,1,.992.766,2.446,2.446,0,0,1,.484,1.094,7.56,7.56,0,0,1,.078,1.258L144.532,0h-2.281V-5.422a1.78,1.78,0,0,0-.156-.8A1.11,1.11,0,0,0,141-6.812a1.28,1.28,0,0,0-1.273.766,2.4,2.4,0,0,0-.18.977V0h-2.242V-5.07A2.848,2.848,0,0,0,137.149-6.172Z" transform="translate(1018 811)" fill="#212429"/>
        <g id="Rectángulo_419651-2" data-name="Rectángulo 419651" transform="translate(999 626)" fill="#fff" stroke="#1d7083" stroke-width="1">
          <rect width="179" height="40" rx="20" stroke="none"/>
          <rect x="0.5" y="0.5" width="178" height="39" rx="19.5" fill="none"/>
        </g>
        <path id="Trazado_1051970" data-name="Trazado 1051970" d="M6.109-4.141H3.664V0H1.273V-11.516H6.289a4.085,4.085,0,0,1,2.766.891,3.451,3.451,0,0,1,1.031,2.758A3.534,3.534,0,0,1,9.055-4.984,4.541,4.541,0,0,1,6.109-4.141Zm1.125-2.4A1.666,1.666,0,0,0,7.7-7.852,1.559,1.559,0,0,0,7.23-9.133a2.051,2.051,0,0,0-1.324-.383H3.664v3.391H5.906A1.96,1.96,0,0,0,7.234-6.539Zm8.759.078a1.847,1.847,0,0,0-1.8.875,3.4,3.4,0,0,0-.258,1.516V0H11.689V-8.516h2.125v1.484a4.708,4.708,0,0,1,.9-1.164,2.446,2.446,0,0,1,1.625-.523q.062,0,.105,0l.191.012v2.281q-.211-.023-.375-.031T15.994-6.461Zm9.048-.977a4.969,4.969,0,0,1,1.078,3.2,4.936,4.936,0,0,1-1.078,3.207A3.961,3.961,0,0,1,21.769.3,3.961,3.961,0,0,1,18.5-1.035a4.936,4.936,0,0,1-1.078-3.207,4.969,4.969,0,0,1,1.078-3.2,3.934,3.934,0,0,1,3.273-1.352A3.934,3.934,0,0,1,25.042-7.437Zm-3.281.531a1.779,1.779,0,0,0-1.5.691,3.2,3.2,0,0,0-.527,1.973,3.217,3.217,0,0,0,.527,1.977,1.775,1.775,0,0,0,1.5.7,1.765,1.765,0,0,0,1.5-.7,3.235,3.235,0,0,0,.523-1.977,3.217,3.217,0,0,0-.523-1.973A1.769,1.769,0,0,0,21.761-6.906Zm13.7-4.594V0H33.3V-1.18a3.141,3.141,0,0,1-1.086,1.1A3.049,3.049,0,0,1,30.7.266,3.165,3.165,0,0,1,28.188-.941a4.635,4.635,0,0,1-1.02-3.1,5.331,5.331,0,0,1,1-3.43,3.266,3.266,0,0,1,2.684-1.25,2.747,2.747,0,0,1,1.375.34,2.7,2.7,0,0,1,.977.941V-11.5Zm-6,7.3a3.348,3.348,0,0,0,.469,1.883,1.56,1.56,0,0,0,1.406.711,1.644,1.644,0,0,0,1.437-.7,3.106,3.106,0,0,0,.492-1.82,2.792,2.792,0,0,0-.789-2.234,1.7,1.7,0,0,0-1.125-.406,1.564,1.564,0,0,0-1.434.738A3.42,3.42,0,0,0,29.466-4.2Zm13.486,3q-.031.039-.156.234a1.568,1.568,0,0,1-.3.344,3.1,3.1,0,0,1-1.012.641,3.448,3.448,0,0,1-1.145.172A2.551,2.551,0,0,1,37.8-1.172a5.2,5.2,0,0,1-.367-2.211V-8.516H39.71v5.133a2.687,2.687,0,0,0,.172,1.094,1.19,1.19,0,0,0,1.2.648,1.563,1.563,0,0,0,1.563-.922,3.337,3.337,0,0,0,.219-1.32V-8.516h2.258V0H42.952ZM54.633-5.461H52.352a1.976,1.976,0,0,0-.32-.859,1.343,1.343,0,0,0-1.164-.516,1.533,1.533,0,0,0-1.539,1.117,4.671,4.671,0,0,0-.219,1.578,4.3,4.3,0,0,0,.219,1.508,1.486,1.486,0,0,0,1.5,1.063,1.323,1.323,0,0,0,1.109-.422,2.1,2.1,0,0,0,.4-1.094H54.61a3.725,3.725,0,0,1-.734,1.922A3.57,3.57,0,0,1,50.774.3,3.628,3.628,0,0,1,47.75-.922a4.932,4.932,0,0,1-.969-3.164A5,5,0,0,1,47.852-7.5,3.726,3.726,0,0,1,50.8-8.719,4.447,4.447,0,0,1,53.426-8,3.343,3.343,0,0,1,54.633-5.461Zm5.431,3.875V.078L59.01.117A2.83,2.83,0,0,1,56.853-.43a1.628,1.628,0,0,1-.375-1.18V-6.852H55.291V-8.437h1.188v-2.375h2.2v2.375h1.383v1.586H58.681v4.5a1.014,1.014,0,0,0,.133.652,1.462,1.462,0,0,0,.813.129q.1,0,.215,0T60.064-1.586ZM71.216.32a5.021,5.021,0,0,1-3.773-1.344,6.212,6.212,0,0,1-1.75-4.75,6.09,6.09,0,0,1,1.75-4.75,5.021,5.021,0,0,1,3.773-1.344,5.021,5.021,0,0,1,3.773,1.344,6.105,6.105,0,0,1,1.742,4.75,6.228,6.228,0,0,1-1.742,4.75A5.021,5.021,0,0,1,71.216.32Zm2.273-3.094a4.729,4.729,0,0,0,.836-3,4.716,4.716,0,0,0-.84-3,2.745,2.745,0,0,0-2.27-1.059,2.781,2.781,0,0,0-2.281,1.055,4.667,4.667,0,0,0-.852,3,4.667,4.667,0,0,0,.852,3,2.781,2.781,0,0,0,2.281,1.055A2.759,2.759,0,0,0,73.489-2.773ZM84.85,0,83.514-6.2,82.163,0H79.85L77.46-8.516H79.85l1.328,6.109,1.227-6.109h2.258l1.3,6.133,1.328-6.133h2.32L87.139,0Zm9.994-6.867a1.55,1.55,0,0,0-1.555.961,3.3,3.3,0,0,0-.219,1.3V0H90.852V-8.5H93v1.242a3.78,3.78,0,0,1,.813-.945,2.824,2.824,0,0,1,1.742-.516,3.287,3.287,0,0,1,2.16.691,2.811,2.811,0,0,1,.84,2.293V0H96.274V-5.18a2.364,2.364,0,0,0-.18-1.031A1.264,1.264,0,0,0,94.844-6.867ZM107.9-2.5a2.824,2.824,0,0,1-.789,1.539A3.866,3.866,0,0,1,104.049.281a4.318,4.318,0,0,1-2.867-1.047,4.222,4.222,0,0,1-1.242-3.406,4.734,4.734,0,0,1,1.121-3.391,3.833,3.833,0,0,1,2.91-1.18,4.463,4.463,0,0,1,1.914.4,3.353,3.353,0,0,1,1.406,1.258,4.292,4.292,0,0,1,.648,1.758,11.353,11.353,0,0,1,.07,1.688h-5.828a2.116,2.116,0,0,0,.8,1.8,1.9,1.9,0,0,0,1.109.32,1.6,1.6,0,0,0,1.117-.391,1.855,1.855,0,0,0,.414-.586Zm-2.2-2.609a1.938,1.938,0,0,0-.535-1.34,1.662,1.662,0,0,0-1.191-.457,1.512,1.512,0,0,0-1.2.484,2.418,2.418,0,0,0-.535,1.313Zm8.1-1.352a1.847,1.847,0,0,0-1.8.875,3.4,3.4,0,0,0-.258,1.516V0h-2.242V-8.516h2.125v1.484a4.707,4.707,0,0,1,.9-1.164,2.446,2.446,0,0,1,1.625-.523q.062,0,.105,0l.191.012v2.281q-.211-.023-.375-.031T113.793-6.461Z" transform="translate(1047 652)" fill="#212429"/>
        <g id="Rectángulo_419651-3" data-name="Rectángulo 419651" transform="translate(451 741)" fill="#fff" stroke="#1d7083" stroke-width="1">
          <rect width="172" height="40" rx="20" stroke="none"/>
          <rect x="0.5" y="0.5" width="171" height="39" rx="19.5" fill="none"/>
        </g>
        <path id="Trazado_1051972" data-name="Trazado 1051972" d="M5.4-1.664a4.237,4.237,0,0,0,1.383-.187A1.336,1.336,0,0,0,7.789-3.187a.986.986,0,0,0-.5-.883,5.377,5.377,0,0,0-1.57-.539L4.5-4.883a7.7,7.7,0,0,1-2.484-.883A2.808,2.808,0,0,1,.852-8.258a3.328,3.328,0,0,1,1.125-2.57,4.757,4.757,0,0,1,3.3-1.023,5.024,5.024,0,0,1,3.105.965,3.445,3.445,0,0,1,1.348,2.8H7.422a1.652,1.652,0,0,0-.906-1.477,3.039,3.039,0,0,0-1.4-.289,2.611,2.611,0,0,0-1.484.375A1.194,1.194,0,0,0,3.078-8.43a.991.991,0,0,0,.547.922,6.694,6.694,0,0,0,1.5.477l1.984.477a5.13,5.13,0,0,1,1.969.836,2.816,2.816,0,0,1,1.031,2.352A3.319,3.319,0,0,1,8.9-.746,5.057,5.057,0,0,1,5.492.3,5.531,5.531,0,0,1,1.953-.73,3.414,3.414,0,0,1,.664-3.555h2.3a2.365,2.365,0,0,0,.43,1.18A2.472,2.472,0,0,0,5.4-1.664Zm13.681-3.8H16.8a1.976,1.976,0,0,0-.32-.859,1.343,1.343,0,0,0-1.164-.516,1.533,1.533,0,0,0-1.539,1.117,4.671,4.671,0,0,0-.219,1.578,4.3,4.3,0,0,0,.219,1.508,1.486,1.486,0,0,0,1.5,1.063,1.323,1.323,0,0,0,1.109-.422,2.1,2.1,0,0,0,.4-1.094h2.273a3.725,3.725,0,0,1-.734,1.922A3.57,3.57,0,0,1,15.22.3,3.628,3.628,0,0,1,12.2-.922a4.932,4.932,0,0,1-.969-3.164A5,5,0,0,1,12.3-7.5a3.726,3.726,0,0,1,2.953-1.219A4.447,4.447,0,0,1,17.873-8,3.343,3.343,0,0,1,19.08-5.461Zm5.814-1a1.847,1.847,0,0,0-1.8.875,3.4,3.4,0,0,0-.258,1.516V0H20.589V-8.516h2.125v1.484a4.707,4.707,0,0,1,.9-1.164,2.446,2.446,0,0,1,1.625-.523q.062,0,.105,0l.191.012v2.281q-.211-.023-.375-.031T24.894-6.461ZM32.3-1.2q-.031.039-.156.234a1.568,1.568,0,0,1-.3.344,3.1,3.1,0,0,1-1.012.641,3.448,3.448,0,0,1-1.145.172,2.551,2.551,0,0,1-2.547-1.359,5.2,5.2,0,0,1-.367-2.211V-8.516h2.281v5.133a2.687,2.687,0,0,0,.172,1.094,1.19,1.19,0,0,0,1.2.648,1.563,1.563,0,0,0,1.563-.922,3.337,3.337,0,0,0,.219-1.32V-8.516h2.258V0H32.3Zm9.1-4.969a1.091,1.091,0,0,0-1.1-.617,1.315,1.315,0,0,0-1.281.617,2.378,2.378,0,0,0-.18,1.047V0H36.577V-8.5h2.164v1.242a3.583,3.583,0,0,1,.781-.945,2.673,2.673,0,0,1,1.68-.5,2.657,2.657,0,0,1,1.578.43,2.5,2.5,0,0,1,.734,1.023,2.831,2.831,0,0,1,1.086-1.1A3.314,3.314,0,0,1,46.131-8.7a2.964,2.964,0,0,1,1.109.219,2.475,2.475,0,0,1,.992.766,2.446,2.446,0,0,1,.484,1.094A7.56,7.56,0,0,1,48.8-5.367L48.78,0H46.5V-5.422a1.78,1.78,0,0,0-.156-.8,1.11,1.11,0,0,0-1.094-.594,1.28,1.28,0,0,0-1.273.766,2.4,2.4,0,0,0-.18.977V0H41.553V-5.07A2.848,2.848,0,0,0,41.4-6.172ZM57.674,0H55.431V-11.516h3.5l2.094,9.055L63.1-11.516h3.461V0H64.322V-7.789q0-.336.008-.941t.008-.934L62.158,0H59.822L57.658-9.664q0,.328.008.934t.008.941ZM68.941-7.594a3.636,3.636,0,0,1,3.031-1.125,5.386,5.386,0,0,1,2.484.555A2.13,2.13,0,0,1,75.542-6.07v3.906q0,.406.016.984a1.238,1.238,0,0,0,.133.594.8.8,0,0,0,.328.258V0H73.6a2.48,2.48,0,0,1-.141-.484Q73.417-.711,73.394-1a4.575,4.575,0,0,1-1.062.852,3.2,3.2,0,0,1-1.625.414,2.794,2.794,0,0,1-1.91-.66,2.355,2.355,0,0,1-.754-1.871,2.429,2.429,0,0,1,1.211-2.273,5.377,5.377,0,0,1,1.953-.547l.758-.094a3.475,3.475,0,0,0,.883-.2.669.669,0,0,0,.477-.633.751.751,0,0,0-.363-.723,2.269,2.269,0,0,0-1.066-.2,1.389,1.389,0,0,0-1.117.391,1.624,1.624,0,0,0-.312.781H68.316A3.268,3.268,0,0,1,68.941-7.594ZM70.6-1.609a1.163,1.163,0,0,0,.766.258,2.268,2.268,0,0,0,1.324-.422,1.8,1.8,0,0,0,.629-1.539v-.828a2.42,2.42,0,0,1-.426.215,3.561,3.561,0,0,1-.59.152l-.5.094a3.229,3.229,0,0,0-1.008.3,1.021,1.021,0,0,0-.516.945A.978.978,0,0,0,70.6-1.609ZM83.388-8.125a2.743,2.743,0,0,1,1.148,2.2H82.31a1.317,1.317,0,0,0-.242-.68,1.524,1.524,0,0,0-1.25-.453,1.8,1.8,0,0,0-1.035.227.652.652,0,0,0-.309.531.581.581,0,0,0,.328.555,14.2,14.2,0,0,0,2.32.617,4.262,4.262,0,0,1,1.992.945,2.146,2.146,0,0,1,.656,1.6,2.588,2.588,0,0,1-.941,2.066,4.423,4.423,0,0,1-2.91.8,4.381,4.381,0,0,1-2.965-.848A2.758,2.758,0,0,1,77-2.719h2.258a1.487,1.487,0,0,0,.3.844,2.06,2.06,0,0,0,1.531.445,2.334,2.334,0,0,0,1.043-.2.626.626,0,0,0,.387-.586.632.632,0,0,0-.312-.57,12.713,12.713,0,0,0-2.32-.672,4.833,4.833,0,0,1-2.039-.9,1.948,1.948,0,0,1-.594-1.531,2.656,2.656,0,0,1,.926-2.027,3.718,3.718,0,0,1,2.605-.848A4.824,4.824,0,0,1,83.388-8.125Zm6.931,6.539V.078L89.264.117A2.83,2.83,0,0,1,87.108-.43a1.628,1.628,0,0,1-.375-1.18V-6.852H85.546V-8.437h1.188v-2.375h2.2v2.375h1.383v1.586H88.936v4.5a1.014,1.014,0,0,0,.133.652,1.462,1.462,0,0,0,.813.129q.1,0,.215,0T90.319-1.586Zm8.72-.914A2.824,2.824,0,0,1,98.25-.961,3.866,3.866,0,0,1,95.188.281,4.318,4.318,0,0,1,92.321-.766a4.222,4.222,0,0,1-1.242-3.406A4.734,4.734,0,0,1,92.2-7.562a3.833,3.833,0,0,1,2.91-1.18,4.463,4.463,0,0,1,1.914.4A3.353,3.353,0,0,1,98.43-7.086a4.292,4.292,0,0,1,.648,1.758,11.353,11.353,0,0,1,.07,1.688H93.321a2.116,2.116,0,0,0,.8,1.8,1.9,1.9,0,0,0,1.109.32,1.6,1.6,0,0,0,1.117-.391,1.855,1.855,0,0,0,.414-.586Zm-2.2-2.609a1.938,1.938,0,0,0-.535-1.34,1.662,1.662,0,0,0-1.191-.457,1.512,1.512,0,0,0-1.2.484,2.418,2.418,0,0,0-.535,1.313Zm8.1-1.352a1.847,1.847,0,0,0-1.8.875,3.4,3.4,0,0,0-.258,1.516V0h-2.242V-8.516h2.125v1.484a4.707,4.707,0,0,1,.9-1.164,2.446,2.446,0,0,1,1.625-.523q.062,0,.105,0l.191.012v2.281q-.211-.023-.375-.031T104.932-6.461Z" transform="translate(501 767)" fill="#212429"/>
      </g>
      <rect id="Rectángulo_419652" data-name="Rectángulo 419652" width="1329" height="80.64" transform="translate(136 852.972)" fill="#27004f"/>
    </g>
  </g>
</svg>
