<svg xmlns="http://www.w3.org/2000/svg" xmlns:xlink="http://www.w3.org/1999/xlink" width="118" height="118" viewBox="0 0 118 118">
  <defs>
    <filter id="Trazado_982547" x="0" y="0" width="118" height="118" filterUnits="userSpaceOnUse">
      <feOffset dy="3" input="SourceAlpha"/>
      <feGaussianBlur stdDeviation="3" result="blur"/>
      <feFlood flood-opacity="0.161"/>
      <feComposite operator="in" in2="blur"/>
      <feComposite in="SourceGraphic"/>
    </filter>
  </defs>
  <g id="Grupo_1211010" data-name="Grupo 1211010" transform="translate(-1161.225 -3018.008)">
    <g id="Grupo_1210880" data-name="Grupo 1210880" transform="translate(0.225 1330.78)">
      <g id="Grupo_1210310" data-name="Grupo 1210310" transform="translate(1170 1693.228)">
        <g id="Grupo_1209802" data-name="Grupo 1209802" transform="translate(0 0)">
          <g id="Grupo_1209739" data-name="Grupo 1209739" transform="translate(0)">
            <g id="Grupo_1209277" data-name="Grupo 1209277">
              <g id="Grupo_1208028" data-name="Grupo 1208028">
                <g id="Grupo_1177675" data-name="Grupo 1177675">
                  <g id="Grupo_1176928" data-name="Grupo 1176928">
                    <g id="Grupo_1172322" data-name="Grupo 1172322">
                      <g id="Grupo_1164700" data-name="Grupo 1164700">
                        <g id="Grupo_1160931" data-name="Grupo 1160931">
                          <g id="Grupo_1160749" data-name="Grupo 1160749">
                            <g id="Grupo_1158891" data-name="Grupo 1158891">
                              <g id="Grupo_1157406" data-name="Grupo 1157406">
                                <g id="Grupo_1155793" data-name="Grupo 1155793">
                                  <g id="Grupo_1154704" data-name="Grupo 1154704">
                                    <g id="Grupo_1150790" data-name="Grupo 1150790">
                                      <g id="Grupo_1154214" data-name="Grupo 1154214">
                                        <g id="Grupo_1152583" data-name="Grupo 1152583">
                                          <g id="Grupo_1146973" data-name="Grupo 1146973">
                                            <g id="Grupo_1146954" data-name="Grupo 1146954">
                                              <g transform="matrix(1, 0, 0, 1, -9, -6)" filter="url(#Trazado_982547)">
                                                <g id="Trazado_982547-2" data-name="Trazado 982547" transform="translate(9 6)" fill="#fef9e5">
                                                  <path d="M 50.00000762939453 98.49985504150391 C 43.4518928527832 98.49985504150391 37.10043716430664 97.21774291992188 31.12207984924316 94.68910980224609 C 25.34692192077637 92.24642944335938 20.15996551513672 88.74918365478516 15.70533657073975 84.2945556640625 C 11.25069332122803 79.83992767333984 7.753450393676758 74.65298461914062 5.310764789581299 68.87783050537109 C 2.782136201858521 62.89948654174805 1.500007629394531 56.54804229736328 1.500007629394531 49.99992752075195 C 1.500007629394531 43.45181274414062 2.782136201858521 37.10036849975586 5.310764789581299 31.12202835083008 C 7.753450393676758 25.34687042236328 11.25069332122803 20.15992736816406 15.70533657073975 15.70529937744141 C 20.15996551513672 11.25067043304443 25.34692192077637 7.753427505493164 31.12207984924316 5.310741901397705 C 37.10043716430664 2.782113313674927 43.4518928527832 1.499998927116394 50.00000762939453 1.499998927116394 C 56.54812240600586 1.499998927116394 62.89957809448242 2.782113313674927 68.87793731689453 5.310741901397705 C 74.65310668945312 7.753427505493164 79.84004974365234 11.25067043304443 84.29469299316406 15.70529937744141 C 88.74932098388672 20.15992736816406 92.24656677246094 25.34687042236328 94.68924713134766 31.12202835083008 C 97.21788024902344 37.10036849975586 98.50000762939453 43.45181274414062 98.50000762939453 49.99992752075195 C 98.50000762939453 56.54804229736328 97.21788024902344 62.89948654174805 94.68924713134766 68.87783050537109 C 92.24656677246094 74.65298461914062 88.74932098388672 79.83992767333984 84.29469299316406 84.2945556640625 C 79.84004974365234 88.74918365478516 74.65310668945312 92.24642944335938 68.87793731689453 94.68910980224609 C 62.89957809448242 97.21774291992188 56.54812240600586 98.49985504150391 50.00000762939453 98.49985504150391 Z" stroke="none"/>
                                                  <path d="M 50.00000762939453 3.000007629394531 C 43.65373229980469 3.000007629394531 37.49887084960938 4.242263793945312 31.70640563964844 6.692268371582031 C 26.11003875732422 9.059326171875 21.08335876464844 12.44860076904297 16.7659912109375 16.76596069335938 C 12.44862365722656 21.08332824707031 9.059333801269531 26.11000823974609 6.692268371582031 31.70635986328125 C 4.242271423339844 37.49880599975586 3.000007629394531 43.65365219116211 3.000007629394531 49.99992752075195 C 3.000007629394531 56.3462028503418 4.242271423339844 62.50104904174805 6.692268371582031 68.29349517822266 C 9.059333801269531 73.88984680175781 12.44862365722656 78.91652679443359 16.7659912109375 83.23389434814453 C 21.08335876464844 87.55125427246094 26.11003875732422 90.94052886962891 31.70640563964844 93.30758666992188 C 37.49887084960938 95.75759124755859 43.65373229980469 96.99984741210938 50.00000762939453 96.99984741210938 C 56.34628295898438 96.99984741210938 62.50114440917969 95.75759124755859 68.29360961914062 93.30758666992188 C 73.88997650146484 90.94052886962891 78.91665649414062 87.55125427246094 83.23402404785156 83.23389434814453 C 87.5513916015625 78.91652679443359 90.94068145751953 73.88984680175781 93.30774688720703 68.29349517822266 C 95.75774383544922 62.50104904174805 97.00000762939453 56.3462028503418 97.00000762939453 49.99992752075195 C 97.00000762939453 43.65365219116211 95.75774383544922 37.49880599975586 93.30774688720703 31.70635986328125 C 90.94068145751953 26.11000823974609 87.5513916015625 21.08332824707031 83.23402404785156 16.76596069335938 C 78.91665649414062 12.44860076904297 73.88997650146484 9.059326171875 68.29360961914062 6.692268371582031 C 62.50114440917969 4.242263793945312 56.34628295898438 3.000007629394531 50.00000762939453 3.000007629394531 M 50.00000762939453 7.62939453125e-06 C 77.61424255371094 7.62939453125e-06 100.0000076293945 22.38572692871094 100.0000076293945 49.99992752075195 C 100.0000076293945 77.61412811279297 77.61424255371094 99.99984741210938 50.00000762939453 99.99984741210938 C 22.38578033447266 99.99984741210938 7.62939453125e-06 77.61412811279297 7.62939453125e-06 49.99992752075195 C 7.62939453125e-06 22.38572692871094 22.38578033447266 7.62939453125e-06 50.00000762939453 7.62939453125e-06 Z" stroke="none" fill="#f6c810"/>
                                                </g>
                                              </g>
                                            </g>
                                          </g>
                                        </g>
                                      </g>
                                    </g>
                                  </g>
                                </g>
                              </g>
                            </g>
                          </g>
                        </g>
                      </g>
                    </g>
                  </g>
                </g>
              </g>
            </g>
          </g>
        </g>
      </g>
    </g>
    <g id="diagram_552975" transform="translate(1184.5 3041.276)">
      <circle id="Elipse_12844" data-name="Elipse 12844" cx="12.272" cy="12.272" r="12.272" transform="translate(1.278 20.455)" fill="#f25353"/>
      <circle id="Elipse_12845" data-name="Elipse 12845" cx="8.947" cy="8.947" r="8.947" transform="translate(46.28 46.287)" fill="#41c0f0"/>
      <circle id="Elipse_12846" data-name="Elipse 12846" cx="8.947" cy="8.947" r="8.947" transform="translate(46.28 23.797)" fill="#f4b831"/>
      <circle id="Elipse_12847" data-name="Elipse 12847" cx="8.947" cy="8.947" r="8.947" transform="translate(46.28 1.307)" fill="#5eea96"/>
      <path id="Trazado_1051961" data-name="Trazado 1051961" d="M364.1,177.1a10.1,10.1,0,1,0,10.1,10.1A10.11,10.11,0,0,0,364.1,177.1Zm0,17.641a7.542,7.542,0,1,1,7.542-7.542A7.551,7.551,0,0,1,364.1,194.74Z" transform="translate(-308.743 -154.454)"/>
      <path id="Trazado_1051962" data-name="Trazado 1051962" d="M473.611,372.847a1.278,1.278,0,1,0-1.814,1.8l.017.017a1.278,1.278,0,0,0,1.815-1.8Z" transform="translate(-411.16 -324.849)"/>
      <path id="Trazado_1051963" data-name="Trazado 1051963" d="M370.453,358.406A1.278,1.278,0,0,0,369.6,360a7.67,7.67,0,1,1-4.92-5.058,1.278,1.278,0,0,0,.805-2.427,10.227,10.227,0,1,0,6.562,6.746A1.278,1.278,0,0,0,370.453,358.406Z" transform="translate(-307.031 -306.985)"/>
      <path id="Trazado_1051964" data-name="Trazado 1051964" d="M471.818,22.689a1.278,1.278,0,1,0,1.808-1.808l-.017-.017a1.278,1.278,0,1,0-1.808,1.808Z" transform="translate(-411.16 -17.866)"/>
      <path id="Trazado_1051965" data-name="Trazado 1051965" d="M362.224,20.466a10.227,10.227,0,0,0,9.79-13.185,1.278,1.278,0,1,0-2.448.738,7.67,7.67,0,1,1-4.92-5.058,1.278,1.278,0,0,0,.805-2.427,10.227,10.227,0,0,0-10.46,16.936A10.159,10.159,0,0,0,362.224,20.466Z" transform="translate(-306.999 0)"/>
      <path id="Trazado_1051966" data-name="Trazado 1051966" d="M411.595,48.8a1.278,1.278,0,0,0,1.278-1.278V39.338a1.278,1.278,0,0,0-2.273-.8L407.966,41.8a1.278,1.278,0,1,0,1.99,1.6l.36-.447v4.559A1.278,1.278,0,0,0,411.595,48.8Z" transform="translate(-355.566 -33.189)"/>
      <path id="Trazado_1051967" data-name="Trazado 1051967" d="M408.338,215.585h-2.05c1.3-1.305,2.553-2.963,2.553-4.519a3.467,3.467,0,0,0-3.662-3.662,3.666,3.666,0,0,0-3.662,3.662,1.278,1.278,0,1,0,2.556,0,1.106,1.106,0,0,1,1.105-1.105c.974,0,1.105.559,1.105,1.105,0,1.141-2.456,3.5-4.228,4.755a1.278,1.278,0,0,0,.739,2.321h5.543a1.278,1.278,0,0,0,0-2.557Z" transform="translate(-350.188 -180.885)"/>
      <path id="Trazado_1051968" data-name="Trazado 1051968" d="M411.886,390.028h-1.578a1.278,1.278,0,0,0,0,2.557h1.578a.767.767,0,1,1,0,1.534h-1.578a1.278,1.278,0,0,0,0,2.557h1.578a.767.767,0,0,1,0,1.534h-1.578a1.278,1.278,0,0,0,0,2.557h1.578A3.321,3.321,0,0,0,414.5,395.4a3.321,3.321,0,0,0-2.617-5.369Z" transform="translate(-356.741 -340.163)"/>
      <path id="Trazado_1051969" data-name="Trazado 1051969" d="M39.3,128.485a1.277,1.277,0,0,0,1.667-.7l1.558-3.815a1.278,1.278,0,0,0-.965-1.743l-4.06-.705a1.278,1.278,0,0,0-.438,2.519l.474.082L24.77,131.1a13.55,13.55,0,1,0-.01,15.194l12.78,6.985-.474.082a1.278,1.278,0,0,0,.217,2.538,1.3,1.3,0,0,0,.22-.019l4.06-.705a1.278,1.278,0,0,0,.965-1.743l-1.558-3.815a1.278,1.278,0,1,0-2.367.967l.191.466-12.8-7a13.441,13.441,0,0,0,1.046-4.074H37.522l-.389.313a1.278,1.278,0,0,0,1.6,1.992l3.211-2.583a1.278,1.278,0,0,0,0-1.992l-3.211-2.583a1.278,1.278,0,0,0-1.6,1.992l.378.3H27.041A13.441,13.441,0,0,0,26,133.345l12.794-6.993-.191.466A1.278,1.278,0,0,0,39.3,128.485Zm-25.752,21.2a10.993,10.993,0,1,1,10.993-10.993A11.006,11.006,0,0,1,13.55,149.686Z" transform="translate(0 -105.966)"/>
    </g>
  </g>
</svg>
