<svg xmlns="http://www.w3.org/2000/svg" xmlns:xlink="http://www.w3.org/1999/xlink" width="108" height="108" viewBox="0 0 108 108">
  <defs>
    <filter id="Trazado_982548" x="0" y="0" width="108" height="108" filterUnits="userSpaceOnUse">
      <feOffset dy="3" input="SourceAlpha"/>
      <feGaussianBlur stdDeviation="3" result="blur"/>
      <feFlood flood-opacity="0.161"/>
      <feComposite operator="in" in2="blur"/>
      <feComposite in="SourceGraphic"/>
    </filter>
  </defs>
  <g id="Grupo_1160833" data-name="Grupo 1160833" transform="translate(-201 -1754)">
    <g id="Grupo_1158958" data-name="Grupo 1158958" transform="translate(-419 -1280)">
      <g id="Grupo_1153335" data-name="Grupo 1153335" transform="translate(629 3040)">
        <g id="Grupo_1149263" data-name="Grupo 1149263" transform="translate(0)">
          <g transform="matrix(1, 0, 0, 1, -9, -6)" filter="url(#Trazado_982548)">
            <g id="Trazado_982548-2" data-name="Trazado 982548" transform="translate(9 6)" fill="#f6f9fc">
              <path d="M 45 88.5 C 39.12687683105469 88.5 33.43022537231445 87.35007476806641 28.06830024719238 85.08217620849609 C 22.88852500915527 82.89131164550781 18.23629951477051 79.75458526611328 14.2408504486084 75.75914764404297 C 10.24541282653809 71.76370239257812 7.108687400817871 67.11147308349609 4.917825222015381 61.93170166015625 C 2.649924993515015 56.56977462768555 1.5 50.87312316894531 1.5 45 C 1.5 39.12687683105469 2.649924993515015 33.43022537231445 4.917825222015381 28.06830024719238 C 7.108687400817871 22.88852500915527 10.24541282653809 18.23629951477051 14.2408504486084 14.2408504486084 C 18.23629951477051 10.24541282653809 22.88852500915527 7.108687400817871 28.06830024719238 4.917825222015381 C 33.43022537231445 2.649924993515015 39.12687683105469 1.5 45 1.5 C 50.87312316894531 1.5 56.56977462768555 2.649924993515015 61.93170166015625 4.917825222015381 C 67.11147308349609 7.108687400817871 71.76370239257812 10.24541282653809 75.75914764404297 14.2408504486084 C 79.75458526611328 18.23629951477051 82.89131164550781 22.88852500915527 85.08217620849609 28.06830024719238 C 87.35007476806641 33.43022537231445 88.5 39.12687683105469 88.5 45 C 88.5 50.87312316894531 87.35007476806641 56.56977462768555 85.08217620849609 61.93170166015625 C 82.89131164550781 67.11147308349609 79.75458526611328 71.76370239257812 75.75914764404297 75.75914764404297 C 71.76370239257812 79.75458526611328 67.11147308349609 82.89131164550781 61.93170166015625 85.08217620849609 C 56.56977462768555 87.35007476806641 50.87312316894531 88.5 45 88.5 Z" stroke="none"/>
              <path d="M 45 3 C 39.32871246337891 3 33.82865524291992 4.110054016113281 28.65262985229492 6.299339294433594 C 23.65165710449219 8.414573669433594 19.15968322753906 11.44334411621094 15.301513671875 15.301513671875 C 11.44334411621094 19.15968322753906 8.414573669433594 23.65165710449219 6.299339294433594 28.65262985229492 C 4.110054016113281 33.82865524291992 3 39.32871246337891 3 45 C 3 50.67128753662109 4.110054016113281 56.17134475708008 6.299339294433594 61.34737396240234 C 8.414573669433594 66.34834289550781 11.44334411621094 70.84031677246094 15.301513671875 74.698486328125 C 19.15968322753906 78.55665588378906 23.65165710449219 81.58542633056641 28.65262985229492 83.70066070556641 C 33.82865524291992 85.88994598388672 39.32871246337891 87 45 87 C 50.67128753662109 87 56.17134475708008 85.88994598388672 61.34737396240234 83.70066070556641 C 66.34834289550781 81.58542633056641 70.84031677246094 78.55665588378906 74.698486328125 74.698486328125 C 78.55665588378906 70.84031677246094 81.58542633056641 66.34834289550781 83.70066070556641 61.34737396240234 C 85.88994598388672 56.17134475708008 87 50.67128753662109 87 45 C 87 39.32871246337891 85.88994598388672 33.82865524291992 83.70066070556641 28.65262985229492 C 81.58542633056641 23.65165710449219 78.55665588378906 19.15968322753906 74.698486328125 15.301513671875 C 70.84031677246094 11.44334411621094 66.34834289550781 8.414573669433594 61.34737396240234 6.299339294433594 C 56.17134475708008 4.110054016113281 50.67128753662109 3 45 3 M 45 0 C 69.85281372070312 0 90 20.14718627929688 90 45 C 90 69.85281372070312 69.85281372070312 90 45 90 C 20.14718627929688 90 0 69.85281372070312 0 45 C 0 20.14718627929688 20.14718627929688 0 45 0 Z" stroke="none" fill="#a530fe"/>
            </g>
          </g>
        </g>
      </g>
    </g>
    <g id="gestion-de-equipos_4_" data-name="gestion-de-equipos (4)" transform="translate(225 1774.565)">
      <g id="Grupo_1160809" data-name="Grupo 1160809" transform="translate(16.721 1.319)">
        <g id="Grupo_1160804" data-name="Grupo 1160804">
          <circle id="Elipse_11830" data-name="Elipse 11830" cx="13.455" cy="13.455" r="13.455" fill="#f7e365"/>
        </g>
        <g id="Grupo_1160805" data-name="Grupo 1160805" transform="translate(2.656 2.656)">
          <path id="Trazado_995027" data-name="Trazado 995027" d="M183.212,30.468a13.456,13.456,0,0,1-18.827,18.827,13.456,13.456,0,1,0,18.827-18.827Z" transform="translate(-164.386 -30.468)" fill="#f3d332"/>
        </g>
        <g id="Grupo_1160808" data-name="Grupo 1160808" transform="translate(5.438 4.977)">
          <g id="Grupo_1160806" data-name="Grupo 1160806">
            <path id="Trazado_995028" data-name="Trazado 995028" d="M201.963,58.594l1.749-1.9a1.191,1.191,0,0,0,.155-1.4l-1.03-1.784a1.191,1.191,0,0,0-1.292-.566l-2.519.565-.08-.046L198.177,51a1.191,1.191,0,0,0-1.137-.836h-2.06a1.191,1.191,0,0,0-1.137.836l-.77,2.464-.08.046-2.519-.565a1.191,1.191,0,0,0-1.292.566l-1.03,1.784a1.191,1.191,0,0,0,.155,1.4l1.749,1.9v.092l-1.749,1.9a1.191,1.191,0,0,0-.155,1.4l1.03,1.784a1.191,1.191,0,0,0,1.292.567l2.519-.565.08.046.77,2.464a1.191,1.191,0,0,0,1.137.836h2.06a1.191,1.191,0,0,0,1.137-.836l.77-2.464.08-.046,2.519.565a1.191,1.191,0,0,0,1.292-.567l1.03-1.784a1.191,1.191,0,0,0-.155-1.4l-1.749-1.9v-.092Zm-5.953,1.951a1.905,1.905,0,1,1,1.905-1.905A1.905,1.905,0,0,1,196.011,60.545Z" transform="translate(-187.994 -50.161)" fill="#62a4fb"/>
          </g>
          <g id="Grupo_1160807" data-name="Grupo 1160807" transform="translate(5.22 2.752)">
            <path id="Trazado_995029" data-name="Trazado 995029" d="M241.031,79.28v-.092l1.75-1.9a1.191,1.191,0,0,0,.155-1.4l-1.03-1.784a1.191,1.191,0,0,0-1.292-.566l-1.43.321a8.388,8.388,0,0,1-6.9,11l.63,2.017a1.191,1.191,0,0,0,1.137.836h2.059a1.191,1.191,0,0,0,1.137-.836l.77-2.464.08-.046,2.519.565a1.191,1.191,0,0,0,1.292-.567l1.03-1.784a1.191,1.191,0,0,0-.155-1.4Z" transform="translate(-232.282 -73.507)" fill="#5392f9"/>
          </g>
        </g>
      </g>
      <g id="Grupo_1160825" data-name="Grupo 1160825" transform="translate(13.267 23.253)">
        <g id="Grupo_1160814" data-name="Grupo 1160814" transform="translate(19.054)">
          <g id="Grupo_1160810" data-name="Grupo 1160810" transform="translate(0 9.526)">
            <path id="Trazado_995030" data-name="Trazado 995030" d="M274.2,279.119v11.3h14.765v-11.3a4.287,4.287,0,0,0-4.287-4.287h-6.192A4.287,4.287,0,0,0,274.2,279.119Z" transform="translate(-274.198 -274.832)" fill="#e175a5"/>
          </g>
          <g id="Grupo_1160811" data-name="Grupo 1160811" transform="translate(0 9.526)">
            <path id="Trazado_995031" data-name="Trazado 995031" d="M282.294,279.118a7.107,7.107,0,0,0-1.433-4.287h-2.377a4.287,4.287,0,0,0-4.287,4.287v11.3h8.1Z" transform="translate(-274.198 -274.831)" fill="#de5791"/>
          </g>
          <g id="Grupo_1160812" data-name="Grupo 1160812" transform="translate(2.62)">
            <circle id="Elipse_11831" data-name="Elipse 11831" cx="4.763" cy="4.763" r="4.763" fill="#fed2a4"/>
          </g>
          <g id="Grupo_1160813" data-name="Grupo 1160813" transform="translate(3.179 0.559)">
            <path id="Trazado_995032" data-name="Trazado 995032" d="M307.607,198.759a4.763,4.763,0,0,1-6.443,6.443,4.763,4.763,0,1,0,6.443-6.443Z" transform="translate(-301.164 -198.759)" fill="#ffbd86"/>
          </g>
        </g>
        <g id="Grupo_1160819" data-name="Grupo 1160819">
          <g id="Grupo_1160815" data-name="Grupo 1160815" transform="translate(0 9.526)">
            <path id="Trazado_995033" data-name="Trazado 995033" d="M112.552,279.119v11.3h14.765v-11.3a4.287,4.287,0,0,0-4.287-4.287h-6.192A4.287,4.287,0,0,0,112.552,279.119Z" transform="translate(-112.552 -274.832)" fill="#e175a5"/>
          </g>
          <g id="Grupo_1160816" data-name="Grupo 1160816" transform="translate(6.669 9.526)">
            <path id="Trazado_995034" data-name="Trazado 995034" d="M177.226,290.421v-11.3a4.287,4.287,0,0,0-4.287-4.287h-2.377a7.107,7.107,0,0,0-1.433,4.287v11.3Z" transform="translate(-169.13 -274.832)" fill="#de5791"/>
          </g>
          <g id="Grupo_1160817" data-name="Grupo 1160817" transform="translate(2.62)">
            <circle id="Elipse_11832" data-name="Elipse 11832" cx="4.763" cy="4.763" r="4.763" fill="#fed2a4"/>
          </g>
          <g id="Grupo_1160818" data-name="Grupo 1160818" transform="translate(3.179 0.559)">
            <path id="Trazado_995035" data-name="Trazado 995035" d="M145.961,198.759a4.763,4.763,0,0,1-6.443,6.443,4.763,4.763,0,1,0,6.443-6.443Z" transform="translate(-139.518 -198.759)" fill="#ffbd86"/>
          </g>
        </g>
        <g id="Grupo_1160824" data-name="Grupo 1160824" transform="translate(9.527)">
          <g id="Grupo_1160820" data-name="Grupo 1160820" transform="translate(0 9.526)">
            <path id="Trazado_995036" data-name="Trazado 995036" d="M193.375,279.119v11.3H208.14v-11.3a4.287,4.287,0,0,0-4.287-4.287h-6.192A4.287,4.287,0,0,0,193.375,279.119Z" transform="translate(-193.375 -274.832)" fill="#62a4fb"/>
          </g>
          <g id="Grupo_1160821" data-name="Grupo 1160821" transform="translate(7.383 9.526)">
            <path id="Trazado_995037" data-name="Trazado 995037" d="M259.1,274.832h-3.1a4.287,4.287,0,0,1,4.287,4.287v11.3h3.1v-11.3A4.287,4.287,0,0,0,259.1,274.832Z" transform="translate(-256.007 -274.832)" fill="#5392f9"/>
          </g>
          <g id="Grupo_1160822" data-name="Grupo 1160822" transform="translate(2.62)">
            <circle id="Elipse_11833" data-name="Elipse 11833" cx="4.763" cy="4.763" r="4.763" fill="#fed2a4"/>
          </g>
          <g id="Grupo_1160823" data-name="Grupo 1160823" transform="translate(3.179 0.559)">
            <path id="Trazado_995038" data-name="Trazado 995038" d="M226.784,198.759a4.763,4.763,0,0,1-6.443,6.443,4.763,4.763,0,1,0,6.443-6.443Z" transform="translate(-220.341 -198.759)" fill="#ffbd86"/>
          </g>
        </g>
      </g>
      <g id="Grupo_1160831" data-name="Grupo 1160831" transform="translate(0.884 38.548)">
        <g id="Grupo_1160826" data-name="Grupo 1160826" transform="translate(7.621 4.105)">
          <path id="Trazado_995039" data-name="Trazado 995039" d="M72.152,358.6h4.287v15.242H72.152Z" transform="translate(-72.152 -358.597)" fill="#d3effd"/>
        </g>
        <g id="Grupo_1160827" data-name="Grupo 1160827" transform="translate(11.908)">
          <path id="Trazado_995040" data-name="Trazado 995040" d="M154.359,324.612a2.858,2.858,0,0,0-4.042,0l-8.983,8.983h-8.286a2.858,2.858,0,0,0,0-5.716H124l-1.836-1.488a9.334,9.334,0,0,0-11.663-.076l-1.981,1.564v15.242l17.248,1.082a9.526,9.526,0,0,0,3.407-.405l13.4-4.138a4.764,4.764,0,0,0,1.963-1.183l9.823-9.823A2.858,2.858,0,0,0,154.359,324.612Z" transform="translate(-108.519 -323.775)" fill="#fed2a4"/>
        </g>
        <g id="Grupo_1160828" data-name="Grupo 1160828" transform="translate(29.028)">
          <path id="Trazado_995041" data-name="Trazado 995041" d="M282.483,324.612a2.858,2.858,0,0,0-4.041,0l-8.983,8.983h-1.7a34.973,34.973,0,0,1-2.865,3.241,31.989,31.989,0,0,1-11.126,7.359l.128.008a9.525,9.525,0,0,0,3.407-.405l13.4-4.138a4.763,4.763,0,0,0,1.962-1.183l9.823-9.823A2.858,2.858,0,0,0,282.483,324.612Z" transform="translate(-253.763 -323.775)" fill="#ffbd86"/>
        </g>
        <g id="Grupo_1160829" data-name="Grupo 1160829" transform="translate(0 2.199)">
          <path id="Trazado_995042" data-name="Trazado 995042" d="M7.5,342.434h7.621v19.052H7.5Z" transform="translate(-7.5 -342.434)" fill="#62a4fb"/>
        </g>
        <g id="Grupo_1160830" data-name="Grupo 1160830" transform="translate(5.001 2.199)">
          <path id="Trazado_995043" data-name="Trazado 995043" d="M49.928,342.434h2.62v19.052h-2.62Z" transform="translate(-49.928 -342.434)" fill="#5392f9"/>
        </g>
      </g>
      <g id="Grupo_1160832" data-name="Grupo 1160832" transform="translate(0 0.435)">
        <circle id="Elipse_11834" data-name="Elipse 11834" cx="0.953" cy="0.953" r="0.953" transform="translate(3.742 43.171)"/>
        <circle id="Elipse_11835" data-name="Elipse 11835" cx="0.953" cy="0.953" r="0.953" transform="translate(3.742 46.981)"/>
        <path id="Trazado_995044" data-name="Trazado 995044" d="M237.922,101.215A2.789,2.789,0,1,0,235.132,104,2.792,2.792,0,0,0,237.922,101.215Zm-2.789,1.021a1.021,1.021,0,1,1,1.021-1.021A1.022,1.022,0,0,1,235.132,102.236Z" transform="translate(-204.956 -86.875)"/>
        <path id="Trazado_995045" data-name="Trazado 995045" d="M59.257,38.76a3.742,3.742,0,0,0-5.292,0l-5.995,6V41.847a.884.884,0,1,0-1.768,0v4.678l-.96.96H40.5a3.744,3.744,0,0,0-2.055-5.545V37.066a5.148,5.148,0,0,0-1.282-3.4H42.8a3.406,3.406,0,0,1,3.4,3.4v.654a.884.884,0,1,0,1.768,0v-.654a5.178,5.178,0,0,0-4.249-5.087,5.64,5.64,0,0,0-1.706-9.113,14.38,14.38,0,0,0,2.5-8.092A14.216,14.216,0,0,0,40.2,4.519a.884.884,0,0,0-1.235,1.266,12.461,12.461,0,0,1,3.787,8.991,12.6,12.6,0,0,1-2.569,7.616c-.157-.013-.315-.021-.475-.021a5.646,5.646,0,0,0-4.763,2.62,5.688,5.688,0,0,0-1.95-1.866,2.1,2.1,0,0,0,.2-.442l.546-1.747,1.786.4a2.066,2.066,0,0,0,2.251-.987l1.03-1.783a2.066,2.066,0,0,0-.271-2.443l-1.24-1.346,1.24-1.346a2.066,2.066,0,0,0,.271-2.443L37.77,9.2a2.066,2.066,0,0,0-2.251-.987l-1.786.4-.546-1.747a2.066,2.066,0,0,0-1.98-1.456h-2.06a2.066,2.066,0,0,0-1.98,1.456L26.62,8.616l-1.786-.4a2.066,2.066,0,0,0-2.251.987l-1.03,1.784a2.066,2.066,0,0,0,.271,2.443l1.24,1.346-1.24,1.346a2.066,2.066,0,0,0-.271,2.443l1.03,1.784a2.066,2.066,0,0,0,2.251.987l1.786-.4.546,1.747a2.093,2.093,0,0,0,.2.442,5.688,5.688,0,0,0-1.95,1.866,5.646,5.646,0,0,0-4.763-2.62c-.16,0-.318.008-.475.021a12.572,12.572,0,0,1,10-20.187,12.443,12.443,0,0,1,5.659,1.343.884.884,0,0,0,.8-1.578A14.194,14.194,0,0,0,30.177.435,14.341,14.341,0,0,0,18.337,22.866a5.641,5.641,0,0,0-1.706,9.113,5.178,5.178,0,0,0-4.249,5.087v4.7H9.389V40.748a.884.884,0,0,0-.884-.884H.884A.884.884,0,0,0,0,40.748V59.8a.884.884,0,0,0,.884.884H8.5a.884.884,0,0,0,.884-.884V58.779H12.77l11.594.728a.884.884,0,1,0,.111-1.765l-10.8-.678V43.081l1.645-1.3a8.449,8.449,0,0,1,10.557.07l1.836,1.488a.884.884,0,0,0,.556.2h9.05a1.974,1.974,0,0,1,0,3.948H27.081a.884.884,0,0,0-.625.259l-1.25,1.25a.884.884,0,1,0,1.25,1.25l.991-.991H45.608a.884.884,0,0,0,.625-.259l8.982-8.983A1.974,1.974,0,0,1,58.007,42.8l-9.823,9.823a3.891,3.891,0,0,1-1.6.963l-13.4,4.139a8.6,8.6,0,0,1-3.09.368L28.592,58a.884.884,0,0,0-.111,1.765l1.5.094q.329.021.657.021a10.346,10.346,0,0,0,3.066-.464l13.4-4.139a5.666,5.666,0,0,0,2.327-1.4l9.823-9.823a3.747,3.747,0,0,0,0-5.293ZM39.7,24.137a3.879,3.879,0,1,1-3.879,3.879A3.883,3.883,0,0,1,39.7,24.137ZM29.147,22.369a.305.305,0,0,1-.293-.215l-.77-2.464a.884.884,0,0,0-.4-.5l-.08-.046a.884.884,0,0,0-.636-.1l-2.519.565a.306.306,0,0,1-.333-.146l-1.03-1.784a.305.305,0,0,1,.04-.361l1.749-1.9a.884.884,0,0,0,.234-.6v-.092a.884.884,0,0,0-.234-.6l-1.749-1.9a.305.305,0,0,1-.04-.361l1.03-1.784a.306.306,0,0,1,.333-.146l2.519.565a.883.883,0,0,0,.636-.1l.08-.046a.884.884,0,0,0,.4-.5l.77-2.464a.305.305,0,0,1,.293-.215h2.06A.305.305,0,0,1,31.5,7.4l.77,2.464a.883.883,0,0,0,.4.5l.081.046a.884.884,0,0,0,.636.1l2.519-.565a.305.305,0,0,1,.333.146l1.03,1.784a.306.306,0,0,1-.04.361l-1.749,1.9a.884.884,0,0,0-.234.6v.092a.884.884,0,0,0,.234.6l1.749,1.9a.306.306,0,0,1,.04.361l-1.03,1.784a.306.306,0,0,1-.333.146l-2.519-.565a.883.883,0,0,0-.635.1l-.081.047a.884.884,0,0,0-.4.5l-.77,2.464a.306.306,0,0,1-.293.215h-2.06Zm1.03,1.768A3.879,3.879,0,1,1,26.3,28.016a3.883,3.883,0,0,1,3.879-3.879Zm-9.527,0a3.879,3.879,0,1,1-3.879,3.879,3.883,3.883,0,0,1,3.879-3.879ZM7.621,58.916H1.768V41.632H7.621ZM9.389,43.537h2.519V57.011H9.389Zm7.816-4.775a10.192,10.192,0,0,0-2.979,1.632l-.075.059V37.066a3.406,3.406,0,0,1,3.4-3.4h5.639a5.148,5.148,0,0,0-1.282,3.4v1.223a10.168,10.168,0,0,0-4.7.474Zm9.787,1.716a10.222,10.222,0,0,0-3.314-1.789V37.066a3.406,3.406,0,0,1,3.4-3.4h6.192a3.407,3.407,0,0,1,3.4,3.4v4.7h-8.09Z" transform="translate(0 -0.435)"/>
      </g>
    </g>
  </g>
</svg>
