<svg xmlns="http://www.w3.org/2000/svg" xmlns:xlink="http://www.w3.org/1999/xlink" width="110" height="110" viewBox="0 0 110 110">
  <defs>
    <filter id="Trazado_982547" x="0" y="0" width="110" height="110" filterUnits="userSpaceOnUse">
      <feOffset dy="3" input="SourceAlpha"/>
      <feGaussianBlur stdDeviation="3" result="blur"/>
      <feFlood flood-opacity="0.161"/>
      <feComposite operator="in" in2="blur"/>
      <feComposite in="SourceGraphic"/>
    </filter>
  </defs>
  <g id="Grupo_1160685" data-name="Grupo 1160685" transform="translate(-1195 -2657)">
    <g id="Grupo_1158894" data-name="Grupo 1158894" transform="translate(394.001 -1148)">
      <g id="Grupo_1157405" data-name="Grupo 1157405" transform="translate(1 3016)">
        <g id="Grupo_1155792" data-name="Grupo 1155792" transform="translate(-1 -3894.666)">
          <g id="Grupo_1154703" data-name="Grupo 1154703" transform="translate(0 1465.666)">
            <g id="Grupo_1150789" data-name="Grupo 1150789" transform="translate(3 2320)">
              <g id="Grupo_1154212" data-name="Grupo 1154212" transform="translate(-236 -5809)">
                <g id="Grupo_1152583" data-name="Grupo 1152583" transform="translate(1043 6713)">
                  <g id="Grupo_1146973" data-name="Grupo 1146973" transform="translate(0 0)">
                    <g id="Grupo_1146954" data-name="Grupo 1146954">
                      <g transform="matrix(1, 0, 0, 1, -9, -6)" filter="url(#Trazado_982547)">
                        <g id="Trazado_982547-2" data-name="Trazado 982547" transform="translate(9 6)" fill="#f5e9fe">
                          <path d="M 46 90.49987030029297 C 39.99187850952148 90.49987030029297 34.16426849365234 89.32350921630859 28.67905426025391 87.00345611572266 C 23.38019943237305 84.76224517822266 18.62104034423828 81.55341339111328 14.53374671936035 77.46613311767578 C 10.44646644592285 73.37885284423828 7.237639904022217 68.61969757080078 4.996413230895996 63.32085418701172 C 2.676359891891479 57.83565521240234 1.5 52.008056640625 1.5 45.99993515014648 C 1.5 39.99181365966797 2.676359891891479 34.16421508789062 4.996413230895996 28.67901420593262 C 7.237639904022217 23.38017463684082 10.44646644592285 18.62101554870605 14.53374671936035 14.53373527526855 C 18.62104034423828 10.44645500183105 23.38019943237305 7.23762845993042 28.67905426025391 4.996415138244629 C 34.16426849365234 2.676361799240112 39.99187850952148 1.500001788139343 46 1.500001788139343 C 52.00812149047852 1.500001788139343 57.83573150634766 2.676361799240112 63.32094573974609 4.996415138244629 C 68.61979675292969 7.23762845993042 73.37895965576172 10.44645500183105 77.46625518798828 14.53373527526855 C 81.55353546142578 18.62101554870605 84.76235961914062 23.38017463684082 87.00358581542969 28.67901420593262 C 89.32363891601562 34.16421508789062 90.5 39.99181365966797 90.5 45.99993515014648 C 90.5 52.008056640625 89.32363891601562 57.83565521240234 87.00358581542969 63.32085418701172 C 84.76235961914062 68.61969757080078 81.55353546142578 73.37885284423828 77.46625518798828 77.46613311767578 C 73.37895965576172 81.55341339111328 68.61979675292969 84.76224517822266 63.32094573974609 87.00345611572266 C 57.83573150634766 89.32350921630859 52.00812149047852 90.49987030029297 46 90.49987030029297 Z" stroke="none"/>
                          <path d="M 46 2.999992370605469 C 40.1937141418457 2.999992370605469 34.56269836425781 4.136489868164062 29.26337051391602 6.377906799316406 C 24.14332580566406 8.543502807617188 19.54441070556641 11.64437866210938 15.59439849853516 15.59437561035156 C 11.64440155029297 19.54439544677734 8.54351806640625 24.14329528808594 6.377914428710938 29.26333618164062 C 4.136497497558594 34.56264877319336 3 40.19366455078125 3 45.99993515014648 C 3 51.80620574951172 4.136497497558594 57.43720626831055 6.377914428710938 62.73651885986328 C 8.54351806640625 67.8565673828125 11.64440155029297 72.45545959472656 15.59439849853516 76.40547943115234 C 19.54441070556641 80.35547637939453 24.14332580566406 83.45635223388672 29.26337051391602 85.6219482421875 C 34.56269836425781 87.86336517333984 40.1937141418457 88.99986267089844 46 88.99986267089844 C 51.8062858581543 88.99986267089844 57.43730163574219 87.86336517333984 62.73661422729492 85.6219482421875 C 67.85667419433594 83.45635223388672 72.45557403564453 80.35547637939453 76.40558624267578 76.40547943115234 C 80.35559844970703 72.45545959472656 83.45647430419922 67.8565673828125 85.6220703125 62.73651885986328 C 87.86350250244141 57.43720626831055 89 51.80620574951172 89 45.99993515014648 C 89 40.19366455078125 87.86350250244141 34.56264877319336 85.6220703125 29.26333618164062 C 83.45647430419922 24.14329528808594 80.35559844970703 19.54439544677734 76.40558624267578 15.59437561035156 C 72.45557403564453 11.64437866210938 67.85667419433594 8.543502807617188 62.73661422729492 6.377906799316406 C 57.43730163574219 4.136489868164062 51.8062858581543 2.999992370605469 46 2.999992370605469 M 46 -7.62939453125e-06 C 71.40509033203125 -7.62939453125e-06 92 20.59486389160156 92 45.99993515014648 C 92 71.40499114990234 71.40509033203125 91.99986267089844 46 91.99986267089844 C 20.59490203857422 91.99986267089844 0 71.40499114990234 0 45.99993515014648 C 0 20.59486389160156 20.59490203857422 -7.62939453125e-06 46 -7.62939453125e-06 Z" stroke="none" fill="#a530fe"/>
                        </g>
                      </g>
                    </g>
                  </g>
                </g>
              </g>
            </g>
          </g>
        </g>
      </g>
    </g>
    <g id="multinacional" transform="translate(1174.171 2678)">
      <path id="Trazado_994620" data-name="Trazado 994620" d="M368.954,146.246l7.288,3.4v30.2h-7.288Z" transform="translate(-279.846 -128.649)" fill="#9facba"/>
      <path id="Trazado_994621" data-name="Trazado 994621" d="M368.954,146.246V179.84h3.4V147.83Z" transform="translate(-279.846 -128.649)" fill="#8d9ca8"/>
      <path id="Trazado_994622" data-name="Trazado 994622" d="M89.769,146.246l-7.288,3.4v30.2h7.288Z" transform="translate(-27.843 -128.649)" fill="#9facba"/>
      <path id="Trazado_994623" data-name="Trazado 994623" d="M118.2,146.246V179.84h-3.4V147.83Z" transform="translate(-56.28 -128.649)" fill="#8d9ca8"/>
      <path id="Trazado_994624" data-name="Trazado 994624" d="M143.045,46.129l13.592-6.373V86.164H143.045Z" transform="translate(-81.12 -34.972)" fill="#d9e7ec"/>
      <path id="Trazado_994625" data-name="Trazado 994625" d="M269.592,46.129,256,39.756V86.164h13.592Z" transform="translate(-180.483 -34.972)" fill="#c5d3dd"/>
      <path id="Trazado_994626" data-name="Trazado 994626" d="M326.6,72.858v42.424h5.1V75.248Z" transform="translate(-242.585 -64.091)" fill="#b6c4cf"/>
      <g id="Grupo_1160682" data-name="Grupo 1160682" transform="translate(79.163 10.521)">
        <path id="Trazado_994627" data-name="Trazado 994627" d="M286.305,91.083l6.3,2.953V90.39l-6.3-2.953Z" transform="translate(-286.305 -87.437)" fill="#01d0fb"/>
        <path id="Trazado_994628" data-name="Trazado 994628" d="M286.305,155.025l6.3,2.953v-3.647l-6.3-2.953Z" transform="translate(-286.305 -143.684)" fill="#01d0fb"/>
        <path id="Trazado_994629" data-name="Trazado 994629" d="M286.305,218.967l6.3,2.953v-3.647l-6.3-2.953Z" transform="translate(-286.305 -199.932)" fill="#01d0fb"/>
      </g>
      <path id="Trazado_994630" data-name="Trazado 994630" d="M179.649,91.083l-6.3,2.953V90.39l6.3-2.953Z" transform="translate(-107.778 -76.916)" fill="#62dbfb"/>
      <path id="Trazado_994631" data-name="Trazado 994631" d="M179.649,155.025l-6.3,2.953v-3.647l6.3-2.953Z" transform="translate(-107.778 -133.163)" fill="#62dbfb"/>
      <path id="Trazado_994632" data-name="Trazado 994632" d="M179.649,218.967l-6.3,2.953v-3.647l6.3-2.953Z" transform="translate(-107.778 -189.411)" fill="#62dbfb"/>
      <g id="Grupo_1160683" data-name="Grupo 1160683" transform="translate(51.731 36.92)">
        <path id="Trazado_994633" data-name="Trazado 994633" d="M82.115,306.83A23.785,23.785,0,0,0,58.33,330.615H105.9A23.785,23.785,0,0,0,82.115,306.83Z" transform="translate(-58.33 -306.83)" fill="#62dbfb"/>
        <path id="Trazado_994634" data-name="Trazado 994634" d="M199.982,306.83a23.754,23.754,0,0,0-7.662,1.262l2.369,4.773a2.932,2.932,0,0,0,4.4,1.028,2.932,2.932,0,0,1,4.129.582l.249.335a2.932,2.932,0,0,0,2.764,1.152l1.552-.22a2.932,2.932,0,0,0,2.329-1.863l1.517-4A23.677,23.677,0,0,0,199.982,306.83Z" transform="translate(-176.197 -306.83)" fill="#a2e62e"/>
        <path id="Trazado_994635" data-name="Trazado 994635" d="M365.967,358.41h8.151a23.765,23.765,0,0,0-10.882-19.983,23.84,23.84,0,0,1,2.731,19.983Z" transform="translate(-326.547 -334.625)" fill="#01d0fb"/>
        <path id="Trazado_994636" data-name="Trazado 994636" d="M70.608,368.417l2.427-2.978a1.9,1.9,0,0,0,.427-1.2v-2.358a1.9,1.9,0,0,0-.806-1.552l-2.677-1.884a1.9,1.9,0,0,1-.725-1L67.19,350.6a23.739,23.739,0,0,0-8.861,18.519H69.137A1.9,1.9,0,0,0,70.608,368.417Z" transform="translate(-58.329 -345.331)" fill="#a2e62e"/>
        <path id="Trazado_994637" data-name="Trazado 994637" d="M323.542,395.005l3.309,2.433a2.606,2.606,0,0,0,1.544.506h1.625a2.6,2.6,0,0,1,2.207,1.223h6.039A23.679,23.679,0,0,0,333.4,384.76l.047,1.856a2.606,2.606,0,0,1-1.44,2.4l-1.891.946a2.605,2.605,0,0,1-1.666.227l-2.868-.561a2.606,2.606,0,0,0-3.106,2.557v.725A2.607,2.607,0,0,0,323.542,395.005Z" transform="translate(-290.695 -375.383)" fill="#a2e62e"/>
        <path id="Trazado_994638" data-name="Trazado 994638" d="M390.5,399.168h6.036a23.679,23.679,0,0,0-4.861-14.408l.047,1.856a2.606,2.606,0,0,1-1.44,2.4l-.967.483a23.925,23.925,0,0,1-.595,8.485A2.609,2.609,0,0,1,390.5,399.168Z" transform="translate(-348.961 -375.383)" fill="#97d729"/>
      </g>
      <g id="Grupo_1160684" data-name="Grupo 1160684" transform="translate(50.829 0)">
        <path id="Trazado_994639" data-name="Trazado 994639" d="M279.324,85.3l6.3,2.953a.9.9,0,0,0,1.286-.817V83.791a.9.9,0,0,0-.519-.817l-6.3-2.953a.9.9,0,0,0-1.286.817v3.647A.9.9,0,0,0,279.324,85.3Zm1.285-3.044,4.494,2.107v1.653l-4.494-2.107Z" transform="translate(-251.373 -70.317)"/>
        <path id="Trazado_994640" data-name="Trazado 994640" d="M279.324,149.243l6.3,2.953a.9.9,0,0,0,1.286-.817v-3.647a.9.9,0,0,0-.519-.817l-6.3-2.953a.9.9,0,0,0-1.286.817v3.647A.9.9,0,0,0,279.324,149.243Zm1.285-3.044,4.494,2.107v1.653l-4.494-2.107Z" transform="translate(-251.373 -126.565)"/>
        <path id="Trazado_994641" data-name="Trazado 994641" d="M279.324,213.187l6.3,2.953a.9.9,0,0,0,1.286-.817v-3.647a.9.9,0,0,0-.519-.817l-6.3-2.953a.9.9,0,0,0-1.286.817v3.647A.9.9,0,0,0,279.324,213.187Zm1.285-3.044,4.494,2.107V213.9L280.61,211.8Z" transform="translate(-251.373 -182.814)"/>
        <path id="Trazado_994642" data-name="Trazado 994642" d="M173.535,80.077a.9.9,0,0,0-.867-.055l-6.3,2.953a.9.9,0,0,0-.519.817v3.647a.9.9,0,0,0,1.286.817l6.3-2.953a.9.9,0,0,0,.519-.817V80.839A.9.9,0,0,0,173.535,80.077Zm-1.387,3.834-4.494,2.107V84.366l4.494-2.107Z" transform="translate(-152.01 -70.318)"/>
        <path id="Trazado_994643" data-name="Trazado 994643" d="M173.535,144.019a.9.9,0,0,0-.867-.055l-6.3,2.953a.9.9,0,0,0-.519.817v3.647a.9.9,0,0,0,1.286.817l6.3-2.953a.9.9,0,0,0,.519-.817v-3.647A.9.9,0,0,0,173.535,144.019Zm-1.387,3.834-4.494,2.107v-1.653l4.494-2.107Z" transform="translate(-152.01 -126.566)"/>
        <path id="Trazado_994644" data-name="Trazado 994644" d="M173.535,207.961a.9.9,0,0,0-.867-.055l-6.3,2.953a.9.9,0,0,0-.519.817v3.647a.9.9,0,0,0,1.286.817l6.3-2.953a.9.9,0,0,0,.519-.817v-3.647A.9.9,0,0,0,173.535,207.961Zm-1.387,3.834-4.494,2.107v-1.653l4.494-2.107Z" transform="translate(-152.01 -182.814)"/>
        <path id="Trazado_994645" data-name="Trazado 994645" d="M97.3,49.093V37.422a.9.9,0,1,0-1.8,0v8.794a24.9,24.9,0,0,0-5.482-5.483V19.014l5.482,2.556V33.21a.9.9,0,1,0,1.8,0V17.348a.9.9,0,1,0-1.8,0v2.23l-5.482-2.556V11.157a.9.9,0,0,0-.519-.817L82.469,7.047V3.738a.9.9,0,1,0-1.8,0V6.2L76.419,4.21V.9a.9.9,0,1,0-1.8,0V4.21L70.369,6.2V3.738a.9.9,0,1,0-1.8,0V7.047L61.542,10.34a.9.9,0,0,0-.519.817v5.866l-5.482,2.556v-2.23a.9.9,0,1,0-1.8,0v9.687a.9.9,0,0,0,1.8,0V21.57l5.482-2.556v21.72a24.9,24.9,0,0,0-5.482,5.483V31.247a.9.9,0,0,0-1.8,0V49.093a24.534,24.534,0,0,0-2.907,11.612.9.9,0,0,0,.9.9H99.3a.9.9,0,0,0,.9-.9A24.533,24.533,0,0,0,97.3,49.093Zm-9.091-9.557a24.524,24.524,0,0,0-11.787-3.5V6.2L88.206,11.73ZM75.517,37.823a22.742,22.742,0,0,1,10.524,2.568l-1.235,3.258a2.03,2.03,0,0,1-1.612,1.29l-1.552.22a2.028,2.028,0,0,1-1.913-.8l-.249-.335a3.834,3.834,0,0,0-5.4-.761,2.029,2.029,0,0,1-3.048-.712l-1.9-3.824A22.812,22.812,0,0,1,75.517,37.823ZM62.828,11.73,74.614,6.2V36.036a24.524,24.524,0,0,0-11.787,3.5Zm-2.7,32.053.409,1.357a.9.9,0,1,0,1.728-.521l-.632-2.094a22.872,22.872,0,0,1,5.77-3.217l2.009,4.048A3.834,3.834,0,0,0,75.173,44.7a2.029,2.029,0,0,1,2.858.4l.249.335A3.832,3.832,0,0,0,81.9,46.946l1.552-.22a3.834,3.834,0,0,0,3.046-2.437L87.627,41.3a23.065,23.065,0,0,1,5.92,5.332l.038,1.547a1.709,1.709,0,0,1-.941,1.566l-1.889.945a1.7,1.7,0,0,1-1.092.148l-2.867-.56a3.507,3.507,0,0,0-4.182,3.442v.725a3.522,3.522,0,0,0,1.43,2.827l3.31,2.434c.048.035.1.066.146.1H65.341l1.8-2.2a2.815,2.815,0,0,0,.628-1.768V53.472a2.8,2.8,0,0,0-1.188-2.29L63.9,49.3a1,1,0,0,1-.379-.522l-.036-.122a.9.9,0,1,0-1.73.514l.038.128a2.816,2.816,0,0,0,1.069,1.478l2.677,1.884a1,1,0,0,1,.422.814V55.83a1,1,0,0,1-.223.629l-2.427,2.976a.989.989,0,0,1-.771.368H52.652a22.831,22.831,0,0,1,7.479-16.02ZM93.718,59.8a3.484,3.484,0,0,0-2.661-1.223H89.431a1.7,1.7,0,0,1-1.01-.331l-3.308-2.433a1.71,1.71,0,0,1-.694-1.373v-.725a1.7,1.7,0,0,1,2.03-1.671l2.868.561a3.541,3.541,0,0,0,2.244-.3l1.891-.946a3.521,3.521,0,0,0,1.81-2.2A22.726,22.726,0,0,1,98.382,59.8H93.718Z" transform="translate(-50.829 0)"/>
      </g>
    </g>
  </g>
</svg>
