<svg xmlns="http://www.w3.org/2000/svg" xmlns:xlink="http://www.w3.org/1999/xlink" width="110" height="110" viewBox="0 0 110 110">
  <defs>
    <filter id="Trazado_982547" x="0" y="0" width="110" height="110" filterUnits="userSpaceOnUse">
      <feOffset dy="3" input="SourceAlpha"/>
      <feGaussianBlur stdDeviation="3" result="blur"/>
      <feFlood flood-opacity="0.161"/>
      <feComposite operator="in" in2="blur"/>
      <feComposite in="SourceGraphic"/>
    </filter>
  </defs>
  <g id="Grupo_1160687" data-name="Grupo 1160687" transform="translate(-1509.805 -2657.673)">
    <g id="Grupo_1158895" data-name="Grupo 1158895" transform="translate(393.805 -1148.327)">
      <g id="Grupo_1157406" data-name="Grupo 1157406" transform="translate(1 3016)">
        <g id="Grupo_1155793" data-name="Grupo 1155793" transform="translate(-0.999 -3894)">
          <g id="Grupo_1154704" data-name="Grupo 1154704" transform="translate(0 1466)">
            <g id="Grupo_1150790" data-name="Grupo 1150790" transform="translate(3 2320)">
              <g id="Grupo_1154214" data-name="Grupo 1154214" transform="translate(79 -5809)">
                <g id="Grupo_1152583" data-name="Grupo 1152583" transform="translate(1043 6713)">
                  <g id="Grupo_1146973" data-name="Grupo 1146973" transform="translate(0 0)">
                    <g id="Grupo_1146954" data-name="Grupo 1146954">
                      <g transform="matrix(1, 0, 0, 1, -9, -6)" filter="url(#Trazado_982547)">
                        <g id="Trazado_982547-2" data-name="Trazado 982547" transform="translate(9 6)" fill="#f5e9fe">
                          <path d="M 46 90.49987030029297 C 39.99187850952148 90.49987030029297 34.16426849365234 89.32350921630859 28.67905426025391 87.00345611572266 C 23.38019943237305 84.76224517822266 18.62104034423828 81.55341339111328 14.53374671936035 77.46613311767578 C 10.44646644592285 73.37885284423828 7.237639904022217 68.61969757080078 4.996413230895996 63.32085418701172 C 2.676359891891479 57.83565521240234 1.5 52.008056640625 1.5 45.99993515014648 C 1.5 39.99181365966797 2.676359891891479 34.16421508789062 4.996413230895996 28.67901420593262 C 7.237639904022217 23.38017463684082 10.44646644592285 18.62101554870605 14.53374671936035 14.53373527526855 C 18.62104034423828 10.44645500183105 23.38019943237305 7.23762845993042 28.67905426025391 4.996415138244629 C 34.16426849365234 2.676361799240112 39.99187850952148 1.500001788139343 46 1.500001788139343 C 52.00812149047852 1.500001788139343 57.83573150634766 2.676361799240112 63.32094573974609 4.996415138244629 C 68.61979675292969 7.23762845993042 73.37895965576172 10.44645500183105 77.46625518798828 14.53373527526855 C 81.55353546142578 18.62101554870605 84.76235961914062 23.38017463684082 87.00358581542969 28.67901420593262 C 89.32363891601562 34.16421508789062 90.5 39.99181365966797 90.5 45.99993515014648 C 90.5 52.008056640625 89.32363891601562 57.83565521240234 87.00358581542969 63.32085418701172 C 84.76235961914062 68.61969757080078 81.55353546142578 73.37885284423828 77.46625518798828 77.46613311767578 C 73.37895965576172 81.55341339111328 68.61979675292969 84.76224517822266 63.32094573974609 87.00345611572266 C 57.83573150634766 89.32350921630859 52.00812149047852 90.49987030029297 46 90.49987030029297 Z" stroke="none"/>
                          <path d="M 46 2.999992370605469 C 40.1937141418457 2.999992370605469 34.56269836425781 4.136489868164062 29.26337051391602 6.377906799316406 C 24.14332580566406 8.543502807617188 19.54441070556641 11.64437866210938 15.59439849853516 15.59437561035156 C 11.64440155029297 19.54439544677734 8.54351806640625 24.14329528808594 6.377914428710938 29.26333618164062 C 4.136497497558594 34.56264877319336 3 40.19366455078125 3 45.99993515014648 C 3 51.80620574951172 4.136497497558594 57.43720626831055 6.377914428710938 62.73651885986328 C 8.54351806640625 67.8565673828125 11.64440155029297 72.45545959472656 15.59439849853516 76.40547943115234 C 19.54441070556641 80.35547637939453 24.14332580566406 83.45635223388672 29.26337051391602 85.6219482421875 C 34.56269836425781 87.86336517333984 40.1937141418457 88.99986267089844 46 88.99986267089844 C 51.8062858581543 88.99986267089844 57.43730163574219 87.86336517333984 62.73661422729492 85.6219482421875 C 67.85667419433594 83.45635223388672 72.45557403564453 80.35547637939453 76.40558624267578 76.40547943115234 C 80.35559844970703 72.45545959472656 83.45647430419922 67.8565673828125 85.6220703125 62.73651885986328 C 87.86350250244141 57.43720626831055 89 51.80620574951172 89 45.99993515014648 C 89 40.19366455078125 87.86350250244141 34.56264877319336 85.6220703125 29.26333618164062 C 83.45647430419922 24.14329528808594 80.35559844970703 19.54439544677734 76.40558624267578 15.59437561035156 C 72.45557403564453 11.64437866210938 67.85667419433594 8.543502807617188 62.73661422729492 6.377906799316406 C 57.43730163574219 4.136489868164062 51.8062858581543 2.999992370605469 46 2.999992370605469 M 46 -7.62939453125e-06 C 71.40509033203125 -7.62939453125e-06 92 20.59486389160156 92 45.99993515014648 C 92 71.40499114990234 71.40509033203125 91.99986267089844 46 91.99986267089844 C 20.59490203857422 91.99986267089844 0 71.40499114990234 0 45.99993515014648 C 0 20.59486389160156 20.59490203857422 -7.62939453125e-06 46 -7.62939453125e-06 Z" stroke="none" fill="#a530fe"/>
                        </g>
                      </g>
                    </g>
                  </g>
                </g>
              </g>
            </g>
          </g>
        </g>
      </g>
    </g>
    <g id="Linear_OK" data-name="Linear OK" transform="translate(1532.683 2677.003)">
      <path id="Trazado_994646" data-name="Trazado 994646" d="M38,56a6,6,0,1,1-12,0Z" fill="#808285"/>
      <path id="Trazado_994647" data-name="Trazado 994647" d="M38,56a5.931,5.931,0,0,1-1.54,4H27.54A5.931,5.931,0,0,1,26,56Z" fill="#231f20" opacity="0.1"/>
      <path id="Trazado_994648" data-name="Trazado 994648" d="M39.921,46a2.605,2.605,0,0,0,2.565-2.277,14.981,14.981,0,0,1,3.942-8.292A19.53,19.53,0,0,0,52,21.768,19.9,19.9,0,0,0,31.03,2.023c-10.012.467-18.857,9.5-19.03,19.4a19.516,19.516,0,0,0,5.385,13.813,15.9,15.9,0,0,1,4.12,8.505A2.6,2.6,0,0,0,24.068,46Z" fill="#d4eef9"/>
      <path id="Trazado_994649" data-name="Trazado 994649" d="M43.347,30.4c-4.023,4.024-10.928,2.186-10.928,2.186s-1.838-6.91,2.181-10.933S46.99,18.01,46.99,18.01s.381,8.362-3.643,12.39Z" fill="#88d392"/>
      <path id="Trazado_994650" data-name="Trazado 994650" d="M46.99,18.01s.381,8.362-3.643,12.385-10.928,2.186-10.928,2.186Z" fill="#39b54a"/>
      <path id="Trazado_994651" data-name="Trazado 994651" d="M20.653,26.4c4.023,4.024,10.928,2.186,10.928,2.186s1.838-6.905-2.186-10.928S17.01,14.01,17.01,14.01s-.381,8.362,3.643,12.39Z" fill="#88d392"/>
      <path id="Trazado_994652" data-name="Trazado 994652" d="M17.01,14.01s-.381,8.362,3.643,12.385,10.928,2.186,10.928,2.186Z" fill="#39b54a"/>
      <rect id="Rectángulo_412956" data-name="Rectángulo 412956" width="16" height="4" rx="2" transform="translate(24 50)" fill="#c9c9c9"/>
      <rect id="Rectángulo_412957" data-name="Rectángulo 412957" width="16" height="4" rx="2" transform="translate(24 46)" fill="#a5a5a5"/>
      <path id="Trazado_994653" data-name="Trazado 994653" d="M38,46H36.723A1.988,1.988,0,0,1,35,49H24.277A1.994,1.994,0,0,0,26,50H38a2,2,0,0,0,0-4Z" fill="#231f20" opacity="0.1"/>
      <path id="Trazado_994654" data-name="Trazado 994654" d="M38,50H36.723A1.988,1.988,0,0,1,35,53H24.277A1.994,1.994,0,0,0,26,54H38a2,2,0,0,0,0-4Z" fill="#231f20" opacity="0.1"/>
      <rect id="Rectángulo_412958" data-name="Rectángulo 412958" width="16" height="4" rx="2" transform="translate(24 54)" fill="#a5a5a5"/>
      <g id="Grupo_1160686" data-name="Grupo 1160686">
        <path id="Trazado_994655" data-name="Trazado 994655" d="M38,54H36.723A1.988,1.988,0,0,1,35,57H24.277A1.994,1.994,0,0,0,26,58H38a2,2,0,0,0,0-4Z" fill="#231f20" opacity="0.1"/>
        <path id="Trazado_994656" data-name="Trazado 994656" d="M26.508,43.744a15.9,15.9,0,0,0-4.12-8.505A19.516,19.516,0,0,1,17,21.426c.161-9.394,8.126-17.987,17.488-19.249a20.341,20.341,0,0,0-3.461-.154C21.018,2.49,12.173,11.52,12,21.426a19.516,19.516,0,0,0,5.385,13.813,15.9,15.9,0,0,1,4.12,8.505A2.6,2.6,0,0,0,24.068,46h5a2.6,2.6,0,0,1-2.56-2.256Z" fill="#231f20" opacity="0.05"/>
        <path id="Trazado_994657" data-name="Trazado 994657" d="M32,63a6.979,6.979,0,0,1-6.6-4.671,1,1,0,1,1,1.889-.658,4.991,4.991,0,0,0,9.412,0,1,1,0,0,1,1.889.658A6.979,6.979,0,0,1,32,63Z" fill="#231f20"/>
        <path id="Trazado_994658" data-name="Trazado 994658" d="M39.922,47H24.067a3.593,3.593,0,0,1-3.548-3.108,14.891,14.891,0,0,0-3.858-7.966A20.5,20.5,0,0,1,11,21.409c.178-10.371,9.515-19.9,19.98-20.386a20.967,20.967,0,0,1,15.6,5.8,20.574,20.574,0,0,1,.565,29.305,13.957,13.957,0,0,0-3.669,7.737A3.594,3.594,0,0,1,39.922,47ZM32.011,3c-.311,0-.621.007-.934.021C21.609,3.464,13.163,12.072,13,21.443a18.5,18.5,0,0,0,5.111,13.108A16.917,16.917,0,0,1,22.5,43.6,1.6,1.6,0,0,0,24.067,45H39.922A1.607,1.607,0,0,0,41.5,43.581a15.986,15.986,0,0,1,4.216-8.848A18.573,18.573,0,0,0,45.2,8.27,18.944,18.944,0,0,0,32.011,3Z" fill="#231f20"/>
        <path id="Trazado_994659" data-name="Trazado 994659" d="M44,12.348a1,1,0,0,1-.745-.333,15.074,15.074,0,0,0-6.57-4.278,1,1,0,0,1,.617-1.9,17.089,17.089,0,0,1,7.443,4.847A1,1,0,0,1,44,12.348Z" fill="#231f20"/>
        <path id="Trazado_994660" data-name="Trazado 994660" d="M38,55H26a3,3,0,0,1,0-6H38a3,3,0,0,1,0,6ZM26,51a1,1,0,0,0,0,2H38a1,1,0,0,0,0-2Z" fill="#231f20"/>
        <path id="Trazado_994661" data-name="Trazado 994661" d="M38,51H26a3,3,0,0,1,0-6H38a3,3,0,0,1,0,6ZM26,47a1,1,0,0,0,0,2H38a1,1,0,0,0,0-2Z" fill="#231f20"/>
        <path id="Trazado_994662" data-name="Trazado 994662" d="M38,59H26a3,3,0,1,1,0-6H38a3,3,0,0,1,0,6ZM26,55a1,1,0,0,0,0,2H38a1,1,0,0,0,0-2Z" fill="#231f20"/>
        <circle id="Elipse_11811" data-name="Elipse 11811" cx="1" cy="1" r="1" transform="translate(45 13)" fill="#231f20"/>
        <path id="Trazado_994663" data-name="Trazado 994663" d="M32,47a1,1,0,0,1-1-1V27a1,1,0,0,1,2,0V46A1,1,0,0,1,32,47Z" fill="#231f20"/>
        <path id="Trazado_994664" data-name="Trazado 994664" d="M36.082,34.006a16.511,16.511,0,0,1-3.92-.459,1,1,0,0,1-.71-.709c-.081-.3-1.935-7.512,2.445-11.893,4.29-4.288,12.779-3.951,13.139-3.934a1,1,0,0,1,.953.953c.017.36.352,8.852-3.934,13.139a11.07,11.07,0,0,1-7.973,2.9ZM33.26,31.738c1.66.306,6.458.874,9.381-2.05,2.9-2.9,3.31-8.46,3.353-10.682-2.222.043-7.781.453-10.682,3.353C32.378,25.294,32.951,30.082,33.26,31.738Z" fill="#231f20"/>
        <path id="Trazado_994665" data-name="Trazado 994665" d="M32.419,33.581a1,1,0,0,1-.707-1.707L42.293,21.293a1,1,0,1,1,1.414,1.414L33.126,33.288a1,1,0,0,1-.707.293Z" fill="#231f20"/>
        <path id="Trazado_994666" data-name="Trazado 994666" d="M36,30a1,1,0,0,1-1-1V25a1,1,0,0,1,2,0v4A1,1,0,0,1,36,30Z" fill="#231f20"/>
        <path id="Trazado_994667" data-name="Trazado 994667" d="M42,27H39a1,1,0,0,1,0-2h3a1,1,0,0,1,0,2Z" fill="#231f20"/>
        <path id="Trazado_994668" data-name="Trazado 994668" d="M27.918,30.006a11.066,11.066,0,0,1-7.973-2.9c-4.286-4.287-3.951-12.779-3.934-13.139a1,1,0,0,1,.953-.953c.362-.017,8.851-.352,13.139,3.934,4.38,4.381,2.526,11.589,2.445,11.893a1,1,0,0,1-.71.709,16.511,16.511,0,0,1-3.92.456Zm-6.559-4.318c2.922,2.922,7.718,2.356,9.379,2.05.306-1.659.872-6.456-2.05-9.379C25.78,15.452,20.226,15.046,18.006,15c.043,2.221.453,7.782,3.353,10.683Z" fill="#231f20"/>
        <path id="Trazado_994669" data-name="Trazado 994669" d="M31.581,29.581a1,1,0,0,1-.707-.293L20.293,18.707a1,1,0,1,1,1.414-1.414L32.288,27.874a1,1,0,0,1-.707,1.707Z" fill="#231f20"/>
        <path id="Trazado_994670" data-name="Trazado 994670" d="M28,26a1,1,0,0,1-1-1V21a1,1,0,0,1,2,0v4A1,1,0,0,1,28,26Z" fill="#231f20"/>
        <path id="Trazado_994671" data-name="Trazado 994671" d="M25,23H22a1,1,0,0,1,0-2h3a1,1,0,0,1,0,2Z" fill="#231f20"/>
      </g>
    </g>
  </g>
</svg>
