<svg xmlns="http://www.w3.org/2000/svg" xmlns:xlink="http://www.w3.org/1999/xlink" width="460.391" height="331.373" viewBox="0 0 460.391 331.373">
  <defs>
    <clipPath id="clip-path">
      <rect id="Rectángulo_409749" data-name="Rectángulo 409749" width="460.391" height="331.373" transform="translate(868.291 2159.192)" fill="#fff" stroke="#707070" stroke-width="1" opacity="0.77"/>
    </clipPath>
    <filter id="Elipse_11689" x="23.695" y="45.728" width="394.754" height="394.754" filterUnits="userSpaceOnUse">
      <feOffset dy="3" input="SourceAlpha"/>
      <feGaussianBlur stdDeviation="3" result="blur"/>
      <feFlood flood-opacity="0.161"/>
      <feComposite operator="in" in2="blur"/>
      <feComposite in="SourceGraphic"/>
    </filter>
    <clipPath id="clip-path-2">
      <path id="Trazado_994497" data-name="Trazado 994497" d="M313.829,649.5H211.708A12.706,12.706,0,0,1,199,636.789V455.459a12.706,12.706,0,0,1,12.706-12.706H313.829a12.706,12.706,0,0,1,12.706,12.706v181.33A12.706,12.706,0,0,1,313.829,649.5Z" transform="translate(-199.002 -442.753)"/>
    </clipPath>
    <clipPath id="clip-path-6">
      <path id="Trazado_994534" data-name="Trazado 994534" d="M524.147,782.908H446.23a5.2,5.2,0,0,1-5.2-5.2V741.823a5.2,5.2,0,0,1,5.2-5.2h77.917a5.2,5.2,0,0,1,5.2,5.2v35.886A5.2,5.2,0,0,1,524.147,782.908Z" transform="translate(-441.03 -736.623)"/>
    </clipPath>
    <clipPath id="clip-path-8">
      <path id="Trazado_994543" data-name="Trazado 994543" d="M107.271,486.7H29.354a5.2,5.2,0,0,1-5.2-5.2V445.614a5.2,5.2,0,0,1,5.2-5.2h77.917a5.2,5.2,0,0,1,5.2,5.2V481.5A5.2,5.2,0,0,1,107.271,486.7Z" transform="translate(-24.154 -440.414)"/>
    </clipPath>
  </defs>
  <g id="Enmascarar_grupo_1098762" data-name="Enmascarar grupo 1098762" transform="translate(-868.291 -2159.192)" clip-path="url(#clip-path)">
    <g id="Grupo_1160598" data-name="Grupo 1160598" transform="translate(845.882 2155.809)">
      <g id="Grupo_1160596" data-name="Grupo 1160596" transform="translate(0 0)">
        <g transform="matrix(1, 0, 0, 1, 22.41, 3.38)" filter="url(#Elipse_11689)">
          <circle id="Elipse_11689-2" data-name="Elipse 11689" cx="188.377" cy="188.377" r="188.377" transform="translate(32.7 51.73)" fill="#fff"/>
        </g>
        <circle id="Elipse_11690" data-name="Elipse 11690" cx="172.172" cy="172.172" r="172.172" transform="translate(243.487 486.975) rotate(-135)" fill="#a530fe"/>
      </g>
      <g id="Grupo_1160597" data-name="Grupo 1160597" transform="translate(62.233 8.045)">
        <g id="Grupo_1160539" data-name="Grupo 1160539" transform="translate(4.723 29.959)">
          <path id="Trazado_994482" data-name="Trazado 994482" d="M43.087,403.257h0a6.359,6.359,0,0,0-6.36-6.359h0a6.36,6.36,0,0,0,6.36-6.36h0a6.36,6.36,0,0,0,6.36,6.36h0A6.359,6.359,0,0,0,43.087,403.257Z" transform="translate(-25.93 -384.291)" fill="#f1ce6d" stroke="#2b2d58" stroke-linecap="round" stroke-linejoin="round" stroke-miterlimit="10" stroke-width="0.941"/>
          <path id="Trazado_994483" data-name="Trazado 994483" d="M204.247,745.955h0a10.136,10.136,0,0,0-10.136-10.136h0a10.136,10.136,0,0,0,10.136-10.136h0a10.136,10.136,0,0,0,10.136,10.136h0A10.136,10.136,0,0,0,204.247,745.955Z" transform="translate(-77.842 -494.838)" fill="#f1ce6d" stroke="#2b2d58" stroke-linecap="round" stroke-linejoin="round" stroke-miterlimit="10" stroke-width="1.5"/>
          <path id="Trazado_994484" data-name="Trazado 994484" d="M508.83,743.95h0a6.188,6.188,0,0,0-6.188-6.188h0a6.188,6.188,0,0,0,6.188-6.188h0a6.188,6.188,0,0,0,6.188,6.188h0A6.188,6.188,0,0,0,508.83,743.95Z" transform="translate(-179.61 -496.781)" fill="#f1ce6d" stroke="#2b2d58" stroke-linecap="round" stroke-linejoin="round" stroke-miterlimit="10" stroke-width="1.5"/>
          <path id="Trazado_994485" data-name="Trazado 994485" d="M560.3,555.727h0a10.136,10.136,0,0,0-10.136-10.136h0A10.136,10.136,0,0,0,560.3,535.455h0a10.136,10.136,0,0,0,10.136,10.136h0A10.136,10.136,0,0,0,560.3,555.727Z" transform="translate(-195.286 -432.092)" fill="#f1ce6d" stroke="#2b2d58" stroke-linecap="round" stroke-linejoin="round" stroke-miterlimit="10" stroke-width="1.5"/>
          <path id="Trazado_994486" data-name="Trazado 994486" d="M30.751,554.147h0a10.136,10.136,0,0,0-10.136-10.136h0a10.136,10.136,0,0,0,10.136-10.136h0a10.136,10.136,0,0,0,10.136,10.136h0A10.135,10.135,0,0,0,30.751,554.147Z" transform="translate(-20.615 -431.571)" fill="#f1ce6d" stroke="#2b2d58" stroke-linecap="round" stroke-linejoin="round" stroke-miterlimit="10" stroke-width="1.5"/>
          <path id="Trazado_994487" data-name="Trazado 994487" d="M556.489,393.593h0a6.188,6.188,0,0,0-6.188-6.188h0a6.188,6.188,0,0,0,6.188-6.188h0a6.188,6.188,0,0,0,6.188,6.188h0A6.188,6.188,0,0,0,556.489,393.593Z" transform="translate(-195.331 -381.217)" fill="#f1ce6d" stroke="#2b2d58" stroke-linecap="round" stroke-linejoin="round" stroke-miterlimit="10" stroke-width="1.5"/>
        </g>
        <g id="Grupo_1160540" data-name="Grupo 1160540" transform="translate(16.57 0)">
          <path id="Trazado_994488" data-name="Trazado 994488" d="M133.24,368.672H117.5v-15.74h-8.731v15.74H93.029V377.4h15.74v15.74H117.5V377.4h15.74Z" transform="translate(-56.348 -341.928)" fill="#fff" stroke="#2b2d58" stroke-linecap="round" stroke-linejoin="round" stroke-miterlimit="10" stroke-width="1.5"/>
          <path id="Trazado_994489" data-name="Trazado 994489" d="M535.44,308.379H523.622V296.561h-6.556v11.818H505.248v6.556h11.818v11.818h6.556V314.935H535.44Z" transform="translate(-192.317 -296.561)" fill="#15da7e" stroke="#2b2d58" stroke-linecap="round" stroke-linejoin="round" stroke-miterlimit="10" stroke-width="1.5"/>
          <path id="Trazado_994490" data-name="Trazado 994490" d="M59.344,326.167H51.1v-8.24H46.533v8.24h-8.24v4.57h8.24v8.24H51.1v-8.24h8.24Z" transform="translate(-38.293 -313.356)" fill="#15da7e" stroke="#2b2d58" stroke-linecap="round" stroke-linejoin="round" stroke-miterlimit="10" stroke-width="1.5"/>
          <path id="Trazado_994491" data-name="Trazado 994491" d="M446.375,367.279h-8.24v-8.24h-4.571v8.24h-8.24v4.571h8.24v8.24h4.571v-8.24h8.24Z" transform="translate(-165.954 -343.943)" fill="#745fe8" stroke="#2b2d58" stroke-linecap="round" stroke-linejoin="round" stroke-miterlimit="10" stroke-width="1.5"/>
        </g>
        <g id="Grupo_1160560" data-name="Grupo 1160560" transform="translate(105.407 42.402)">
          <g id="Grupo_1160543" data-name="Grupo 1160543" transform="translate(0 0)">
            <path id="Trazado_994492" data-name="Trazado 994492" d="M329.922,657.984H186.484c-6,0-15.629-8.158-15.629-14.156l4.768-227.44a10.86,10.86,0,0,1,10.86-10.86l140.595-5.5c6,0,13.7,10.361,13.7,16.359V647.124A10.858,10.858,0,0,1,329.922,657.984Z" transform="translate(-170.855 -399.866)" fill="#201158" stroke="#201158" stroke-miterlimit="10" stroke-width="1.556"/>
            <path id="Trazado_994493" data-name="Trazado 994493" d="M325.228,652.241H181.79a10.86,10.86,0,0,1-10.86-10.86V410.645a10.86,10.86,0,0,1,10.86-10.86H325.228a10.86,10.86,0,0,1,10.86,10.86V641.381A10.86,10.86,0,0,1,325.228,652.241Z" transform="translate(-170.88 -399.785)" fill="#cff7e4" stroke="#201158" stroke-miterlimit="10" stroke-width="1.556"/>
            <path id="Trazado_994494" data-name="Trazado 994494" d="M304.206,412.459a11.789,11.789,0,0,1-11.632,9.91H223.288a11.789,11.789,0,0,1-11.632-9.91H184.337V647.928H331.526V412.459Z" transform="translate(-175.302 -403.966)" fill="#15da7e" stroke="#201158" stroke-miterlimit="10" stroke-width="1.556"/>
            <path id="Trazado_994495" data-name="Trazado 994495" d="M313.022,415.6H242.484a1.572,1.572,0,0,1-1.572-1.572h0a1.572,1.572,0,0,1,1.572-1.572h70.538a1.572,1.572,0,0,1,1.572,1.572h0A1.572,1.572,0,0,1,313.022,415.6Z" transform="translate(-193.963 -403.965)" fill="#201158" stroke="#201158" stroke-miterlimit="10" stroke-width="1.556"/>
            <g id="Grupo_1160541" data-name="Grupo 1160541" transform="translate(3 15.842)">
              <line id="Línea_667" data-name="Línea 667" y1="33.719" transform="translate(0 17.669)" fill="none" stroke="#201158" stroke-miterlimit="10" stroke-width="1.556"/>
              <line id="Línea_668" data-name="Línea 668" y1="12.953" fill="none" stroke="#201158" stroke-miterlimit="10" stroke-width="1.556"/>
            </g>
            <g id="Grupo_1160542" data-name="Grupo 1160542" transform="translate(160.932 181.414)">
              <line id="Línea_669" data-name="Línea 669" y1="33.719" transform="translate(0 17.669)" fill="none" stroke="#201158" stroke-miterlimit="10" stroke-width="1.556"/>
              <line id="Línea_670" data-name="Línea 670" y1="12.953" fill="none" stroke="#201158" stroke-miterlimit="10" stroke-width="1.556"/>
            </g>
          </g>
          <g id="Grupo_1160548" data-name="Grupo 1160548" transform="translate(18.863 28.795)">
            <path id="Trazado_994496" data-name="Trazado 994496" d="M313.829,649.5H211.708A12.706,12.706,0,0,1,199,636.789V455.459a12.706,12.706,0,0,1,12.706-12.706H313.829a12.706,12.706,0,0,1,12.706,12.706v181.33A12.706,12.706,0,0,1,313.829,649.5Z" transform="translate(-199.002 -442.753)" fill="#fff"/>
            <g id="Grupo_1160544" data-name="Grupo 1160544" clip-path="url(#clip-path-2)">
              <rect id="Rectángulo_409744" data-name="Rectángulo 409744" width="170.603" height="20.269" transform="translate(-24.181 -7.95)" fill="#3ad1e9" stroke="#201158" stroke-miterlimit="10" stroke-width="1.556"/>
            </g>
            <g id="Grupo_1160545" data-name="Grupo 1160545" clip-path="url(#clip-path-2)">
              <circle id="Elipse_11680" data-name="Elipse 11680" cx="2.556" cy="2.556" r="2.556" transform="translate(112.837 3.379)" fill="#fff" stroke="#201158" stroke-miterlimit="10" stroke-width="1.556"/>
            </g>
            <g id="Grupo_1160546" data-name="Grupo 1160546" clip-path="url(#clip-path-2)">
              <path id="Trazado_994499" data-name="Trazado 994499" d="M359.268,450.351a2.556,2.556,0,1,1-2.556-2.556A2.556,2.556,0,0,1,359.268,450.351Z" transform="translate(-250.179 -444.416)" fill="#fff" stroke="#201158" stroke-miterlimit="10" stroke-width="1.556"/>
            </g>
            <g id="Grupo_1160547" data-name="Grupo 1160547" clip-path="url(#clip-path-2)">
              <circle id="Elipse_11681" data-name="Elipse 11681" cx="2.556" cy="2.556" r="2.556" transform="translate(95.117 3.379)" fill="#fff" stroke="#201158" stroke-miterlimit="10" stroke-width="1.556"/>
            </g>
            <path id="Trazado_994502" data-name="Trazado 994502" d="M313.829,649.5H211.708A12.706,12.706,0,0,1,199,636.789V455.459a12.706,12.706,0,0,1,12.706-12.706H313.829a12.706,12.706,0,0,1,12.706,12.706v181.33A12.706,12.706,0,0,1,313.829,649.5Z" transform="translate(-199.002 -442.753)" fill="none" stroke="#201158" stroke-miterlimit="10" stroke-width="1.556"/>
          </g>
          <g id="Grupo_1160553" data-name="Grupo 1160553" transform="translate(35.824 51.662)">
            <g id="Grupo_1160552" data-name="Grupo 1160552">
              <g id="Grupo_1160551" data-name="Grupo 1160551" transform="translate(0 10.213)">
                <path id="Trazado_994503" data-name="Trazado 994503" d="M304.4,543.509H236.251a1.06,1.06,0,0,1-1.035-.831L224.337,493.4a1.059,1.059,0,0,1,1.034-1.287h89.912a1.059,1.059,0,0,1,1.034,1.287l-10.879,49.276A1.058,1.058,0,0,1,304.4,543.509Zm-67.3-2.118h66.451l10.412-47.157H226.69Z" transform="translate(-224.312 -492.115)" fill="#2b2d58"/>
                <g id="Grupo_1160549" data-name="Grupo 1160549" transform="translate(2.777 12.572)">
                  <path id="Trazado_994504" data-name="Trazado 994504" d="M312.442,532.056h-78.72a1.06,1.06,0,1,1,0-2.119h78.72a1.06,1.06,0,0,1,0,2.119Z" transform="translate(-229.843 -517.163)" fill="#2b2d58"/>
                  <path id="Trazado_994505" data-name="Trazado 994505" d="M313.874,512.994h-84.36a1.059,1.059,0,0,1,0-2.119h84.361a1.059,1.059,0,1,1,0,2.119Z" transform="translate(-228.455 -510.875)" fill="#2b2d58"/>
                  <path id="Trazado_994506" data-name="Trazado 994506" d="M311.009,551.118H237.93a1.059,1.059,0,0,1,0-2.119h73.079a1.059,1.059,0,1,1,0,2.119Z" transform="translate(-231.231 -523.45)" fill="#2b2d58"/>
                </g>
                <g id="Grupo_1160550" data-name="Grupo 1160550" transform="translate(13.895 0)">
                  <path id="Trazado_994507" data-name="Trazado 994507" d="M279.51,543.509a1.059,1.059,0,0,1-1.057-1.005l-2.506-49.275a1.059,1.059,0,0,1,2.116-.108l2.505,49.275a1.06,1.06,0,0,1-1,1.112Z" transform="translate(-255.239 -492.115)" fill="#2b2d58"/>
                  <path id="Trazado_994508" data-name="Trazado 994508" d="M253.621,543.509a1.06,1.06,0,0,1-1.046-.9l-7.516-49.275a1.059,1.059,0,1,1,2.094-.32l7.516,49.275a1.06,1.06,0,0,1-.887,1.207A1.01,1.01,0,0,1,253.621,543.509Z" transform="translate(-245.047 -492.115)" fill="#2b2d58"/>
                  <path id="Trazado_994509" data-name="Trazado 994509" d="M327.588,543.509a1.078,1.078,0,0,1-.161-.012,1.059,1.059,0,0,1-.887-1.207l7.516-49.275a1.059,1.059,0,0,1,2.094.32l-7.516,49.275A1.06,1.06,0,0,1,327.588,543.509Z" transform="translate(-271.923 -492.115)" fill="#2b2d58"/>
                  <path id="Trazado_994510" data-name="Trazado 994510" d="M304.166,543.509h-.055a1.059,1.059,0,0,1-1-1.112l2.506-49.275a1.059,1.059,0,1,1,2.116.108L305.223,542.5A1.059,1.059,0,0,1,304.166,543.509Z" transform="translate(-264.197 -492.115)" fill="#2b2d58"/>
                </g>
              </g>
              <path id="Trazado_994511" data-name="Trazado 994511" d="M354.024,505.948a1.061,1.061,0,0,1-1.035-1.291l6.041-26.954a1.06,1.06,0,0,1,1.034-.828h7.911a1.059,1.059,0,1,1,0,2.119h-7.063l-5.856,26.126A1.062,1.062,0,0,1,354.024,505.948Z" transform="translate(-266.747 -476.875)" fill="#2b2d58"/>
            </g>
            <path id="Trazado_994512" data-name="Trazado 994512" d="M248.825,580.577a4.327,4.327,0,1,1-4.327-4.327A4.327,4.327,0,0,1,248.825,580.577Z" transform="translate(-229.543 -509.654)" fill="#2b2d58"/>
            <path id="Trazado_994513" data-name="Trazado 994513" d="M339.337,580.577a4.327,4.327,0,1,1-4.327-4.327A4.327,4.327,0,0,1,339.337,580.577Z" transform="translate(-259.398 -509.654)" fill="#2b2d58"/>
          </g>
          <path id="Trazado_994514" data-name="Trazado 994514" d="M319.186,611.351H220.2a2.216,2.216,0,0,1-2.216-2.216h0a2.216,2.216,0,0,1,2.216-2.216h98.981a2.216,2.216,0,0,1,2.216,2.216h0A2.216,2.216,0,0,1,319.186,611.351Z" transform="translate(-186.402 -468.108)" fill="#b2aff8" stroke="#2b2d58" stroke-miterlimit="10" stroke-width="1.556"/>
          <path id="Trazado_994515" data-name="Trazado 994515" d="M319.186,635.721H220.2a2.216,2.216,0,0,1-2.216-2.216h0a2.216,2.216,0,0,1,2.216-2.216h98.981a2.216,2.216,0,0,1,2.216,2.216h0A2.216,2.216,0,0,1,319.186,635.721Z" transform="translate(-186.402 -476.146)" fill="#b2aff8" stroke="#2b2d58" stroke-miterlimit="10" stroke-width="1.556"/>
          <path id="Trazado_994516" data-name="Trazado 994516" d="M319.186,660.09H220.2a2.217,2.217,0,0,1-2.216-2.216h0a2.216,2.216,0,0,1,2.216-2.216h98.981a2.217,2.217,0,0,1,2.216,2.216h0A2.217,2.217,0,0,1,319.186,660.09Z" transform="translate(-186.402 -484.184)" fill="#b2aff8" stroke="#2b2d58" stroke-miterlimit="10" stroke-width="1.556"/>
          <path id="Trazado_994517" data-name="Trazado 994517" d="M299.268,708.206H255.841a14.025,14.025,0,0,1-14.026-14.026h0a14.025,14.025,0,0,1,14.026-14.026h43.427a14.025,14.025,0,0,1,14.026,14.026h0A14.025,14.025,0,0,1,299.268,708.206Z" transform="translate(-194.261 -492.264)" fill="#dc6048" stroke="#2b2d58" stroke-miterlimit="10" stroke-width="1.556"/>
          <g id="Grupo_1160558" data-name="Grupo 1160558" transform="translate(59.47 193.622)">
            <g id="Grupo_1160554" data-name="Grupo 1160554">
              <path id="Trazado_994518" data-name="Trazado 994518" d="M263.414,703.943v-1.314a9.75,9.75,0,0,1-2.025-.284,7.224,7.224,0,0,1-1.686-.623l.8-2.254a10.694,10.694,0,0,0,1.41.48,7.13,7.13,0,0,0,1.5.23v-2.556c-.438-.13-.883-.278-1.332-.444a5.19,5.19,0,0,1-1.234-.649,3.109,3.109,0,0,1-.9-1,2.949,2.949,0,0,1-.346-1.491,3.117,3.117,0,0,1,1.02-2.4,5.151,5.151,0,0,1,2.8-1.208v-1.722h1.509v1.635a7.475,7.475,0,0,1,1.83.257,4.807,4.807,0,0,1,1.437.612l-.763,2.131a8.4,8.4,0,0,0-1.251-.48,4.947,4.947,0,0,0-1.252-.195v2.556q.639.2,1.3.462a5.66,5.66,0,0,1,1.208.665,3.115,3.115,0,0,1,.887.994,2.9,2.9,0,0,1,.338,1.448,3.386,3.386,0,0,1-.985,2.539,4.774,4.774,0,0,1-2.744,1.208v1.4h-1.509Zm-.94-10.192a.7.7,0,0,0,.257.56,2.5,2.5,0,0,0,.684.4v-1.9Q262.474,693.06,262.474,693.751Zm2.449,6.3q.889-.285.889-1.011a.691.691,0,0,0-.24-.533,2.46,2.46,0,0,0-.649-.39Z" transform="translate(-259.596 -688.708)" fill="#fff" stroke="#2b2d58" stroke-miterlimit="10" stroke-width="1.556"/>
            </g>
            <g id="Grupo_1160555" data-name="Grupo 1160555" transform="translate(12.912)">
              <path id="Trazado_994519" data-name="Trazado 994519" d="M282.681,703.943v-1.314a9.751,9.751,0,0,1-2.025-.284,7.235,7.235,0,0,1-1.686-.623l.8-2.254a10.7,10.7,0,0,0,1.41.48,7.131,7.131,0,0,0,1.5.23v-2.556c-.438-.13-.883-.278-1.332-.444a5.19,5.19,0,0,1-1.234-.649,3.109,3.109,0,0,1-.9-1,2.948,2.948,0,0,1-.346-1.491,3.117,3.117,0,0,1,1.02-2.4,5.151,5.151,0,0,1,2.8-1.208v-1.722h1.509v1.635a7.475,7.475,0,0,1,1.83.257,4.821,4.821,0,0,1,1.438.612l-.763,2.131a8.4,8.4,0,0,0-1.251-.48,4.948,4.948,0,0,0-1.253-.195v2.556q.639.2,1.3.462a5.659,5.659,0,0,1,1.208.665,3.114,3.114,0,0,1,.887.994,2.9,2.9,0,0,1,.338,1.448,3.384,3.384,0,0,1-.986,2.539,4.773,4.773,0,0,1-2.744,1.208v1.4h-1.508Zm-.941-10.192a.705.705,0,0,0,.257.56,2.5,2.5,0,0,0,.684.4v-1.9Q281.74,693.06,281.74,693.751Zm2.449,6.3q.889-.285.889-1.011a.691.691,0,0,0-.24-.533,2.46,2.46,0,0,0-.649-.39Z" transform="translate(-278.863 -688.708)" fill="#fff" stroke="#2b2d58" stroke-miterlimit="10" stroke-width="1.556"/>
            </g>
            <g id="Grupo_1160556" data-name="Grupo 1160556" transform="translate(25.824)">
              <path id="Trazado_994520" data-name="Trazado 994520" d="M301.947,703.943v-1.314a9.749,9.749,0,0,1-2.025-.284,7.233,7.233,0,0,1-1.686-.623l.8-2.254a10.671,10.671,0,0,0,1.411.48,7.131,7.131,0,0,0,1.5.23v-2.556q-.656-.195-1.332-.444a5.188,5.188,0,0,1-1.234-.649,3.107,3.107,0,0,1-.9-1,2.948,2.948,0,0,1-.346-1.491,3.117,3.117,0,0,1,1.02-2.4,5.154,5.154,0,0,1,2.8-1.208v-1.722h1.508v1.635a7.474,7.474,0,0,1,1.83.257,4.806,4.806,0,0,1,1.437.612l-.763,2.131a8.4,8.4,0,0,0-1.251-.48,4.947,4.947,0,0,0-1.253-.195v2.556q.639.2,1.3.462a5.661,5.661,0,0,1,1.208.665,3.115,3.115,0,0,1,.887.994,2.9,2.9,0,0,1,.338,1.448,3.386,3.386,0,0,1-.985,2.539,4.773,4.773,0,0,1-2.744,1.208v1.4h-1.508Zm-.94-10.192a.7.7,0,0,0,.257.56,2.5,2.5,0,0,0,.684.4v-1.9Q301.006,693.06,301.007,693.751Zm2.449,6.3q.889-.285.889-1.011a.691.691,0,0,0-.24-.533,2.459,2.459,0,0,0-.649-.39Z" transform="translate(-298.13 -688.708)" fill="#fff" stroke="#2b2d58" stroke-miterlimit="10" stroke-width="1.556"/>
            </g>
            <g id="Grupo_1160557" data-name="Grupo 1160557" transform="translate(38.735)">
              <path id="Trazado_994521" data-name="Trazado 994521" d="M321.214,703.943v-1.314a9.75,9.75,0,0,1-2.025-.284,7.234,7.234,0,0,1-1.686-.623l.8-2.254a10.7,10.7,0,0,0,1.41.48,7.13,7.13,0,0,0,1.5.23v-2.556c-.438-.13-.883-.278-1.332-.444a5.189,5.189,0,0,1-1.234-.649,3.108,3.108,0,0,1-.9-1,2.949,2.949,0,0,1-.346-1.491,3.117,3.117,0,0,1,1.02-2.4,5.151,5.151,0,0,1,2.8-1.208v-1.722h1.508v1.635a7.474,7.474,0,0,1,1.83.257,4.822,4.822,0,0,1,1.438.612l-.763,2.131a8.393,8.393,0,0,0-1.251-.48,4.948,4.948,0,0,0-1.253-.195v2.556q.639.2,1.3.462a5.66,5.66,0,0,1,1.208.665,3.115,3.115,0,0,1,.887.994,2.9,2.9,0,0,1,.338,1.448,3.384,3.384,0,0,1-.986,2.539,4.774,4.774,0,0,1-2.744,1.208v1.4h-1.508Zm-.941-10.192a.705.705,0,0,0,.257.56,2.5,2.5,0,0,0,.684.4v-1.9Q320.273,693.06,320.273,693.751Zm2.449,6.3q.889-.285.889-1.011a.691.691,0,0,0-.24-.533,2.46,2.46,0,0,0-.649-.39Z" transform="translate(-317.397 -688.708)" fill="#fff" stroke="#2b2d58" stroke-miterlimit="10" stroke-width="1.556"/>
            </g>
          </g>
          <g id="Grupo_1160559" data-name="Grupo 1160559" transform="translate(113.959 201.24)">
            <path id="Trazado_994522" data-name="Trazado 994522" d="M361.734,710.026l-20.829-8.114,5.935,21.5,5.782-5.2,7.956,8.511,3.27-3.057-7.9-8.447Z" transform="translate(-340.905 -700.681)" fill="#2b2d58" stroke="#2b2d58" stroke-linecap="round" stroke-linejoin="round" stroke-miterlimit="10" stroke-width="1.556"/>
            <path id="Trazado_994523" data-name="Trazado 994523" d="M361.734,708.188l-20.829-8.114,5.935,21.5,5.782-5.2,7.956,8.51,3.27-3.057-7.9-8.447Z" transform="translate(-340.905 -700.075)" fill="#fff" stroke="#2b2d58" stroke-linecap="round" stroke-linejoin="round" stroke-miterlimit="10" stroke-width="1.556"/>
          </g>
        </g>
        <g id="Grupo_1160569" data-name="Grupo 1160569" transform="translate(0 54.929)">
          <g id="Grupo_1160564" data-name="Grupo 1160564" transform="translate(286.465 0)">
            <g id="Grupo_1160561" data-name="Grupo 1160561">
              <path id="Trazado_994524" data-name="Trazado 994524" d="M501.017,418.477h-25.7a34.29,34.29,0,0,0-34.29,34.29v56.5l12.177-22.211h47.81a34.29,34.29,0,0,0,34.29-34.289h0A34.29,34.29,0,0,0,501.017,418.477Z" transform="translate(-441.03 -418.477)" fill="#fff" stroke="#2b2d58" stroke-linecap="round" stroke-linejoin="round" stroke-miterlimit="10" stroke-width="1.5"/>
              <path id="Trazado_994525" data-name="Trazado 994525" d="M567.247,483.075a27.3,27.3,0,0,1-7.712,12.511" transform="translate(-480.119 -439.784)" fill="#fff" stroke="#2b2d58" stroke-linecap="round" stroke-linejoin="round" stroke-miterlimit="10" stroke-width="1.5"/>
              <path id="Trazado_994526" data-name="Trazado 994526" d="M550.692,505.38a22.216,22.216,0,0,1-5.842,2.971" transform="translate(-475.275 -447.142)" fill="#fff" stroke="#2b2d58" stroke-linecap="round" stroke-linejoin="round" stroke-miterlimit="10" stroke-width="1.5"/>
            </g>
            <g id="Grupo_1160563" data-name="Grupo 1160563" transform="translate(13.725 15.41)">
              <g id="Grupo_1160562" data-name="Grupo 1160562">
                <path id="Trazado_994527" data-name="Trazado 994527" d="M475.962,475.91,461.51,461.459l7.319-7.319,7.132,7.133,19.8-19.8,7.319,7.319Z" transform="translate(-461.51 -441.472)" fill="#a530fe" stroke="#2b2d58" stroke-linecap="round" stroke-linejoin="round" stroke-miterlimit="10" stroke-width="1.5"/>
                <path id="Trazado_994528" data-name="Trazado 994528" d="M527.121,477.89l-10.36-10.359,5.247-5.246,5.113,5.113L541.314,453.2l5.247,5.247Z" transform="translate(-479.734 -445.342)" fill="#a530fe" stroke="#2b2d58" stroke-linecap="round" stroke-linejoin="round" stroke-miterlimit="10" stroke-width="1.5"/>
              </g>
            </g>
          </g>
          <g id="Grupo_1160568" data-name="Grupo 1160568" transform="translate(0 172.172)">
            <g id="Grupo_1160566" data-name="Grupo 1160566">
              <g id="Grupo_1160565" data-name="Grupo 1160565">
                <path id="Trazado_994529" data-name="Trazado 994529" d="M47.857,766.182h25.7a34.289,34.289,0,0,0,34.29-34.29v-56.5L95.667,697.6H47.857a34.289,34.289,0,0,0-34.29,34.289h0A34.29,34.29,0,0,0,47.857,766.182Z" transform="translate(-13.567 -675.392)" fill="#fff" stroke="#2b2d58" stroke-linecap="round" stroke-linejoin="round" stroke-miterlimit="10" stroke-width="1.5"/>
                <path id="Trazado_994530" data-name="Trazado 994530" d="M24.232,740.112A27.3,27.3,0,0,1,31.944,727.6" transform="translate(-17.085 -692.613)" fill="#fff" stroke="#2b2d58" stroke-linecap="round" stroke-linejoin="round" stroke-miterlimit="10" stroke-width="1.5"/>
                <path id="Trazado_994531" data-name="Trazado 994531" d="M41.708,722.5a22.208,22.208,0,0,1,5.842-2.971" transform="translate(-22.849 -689.952)" fill="#fff" stroke="#2b2d58" stroke-linecap="round" stroke-linejoin="round" stroke-miterlimit="10" stroke-width="1.5"/>
              </g>
            </g>
            <g id="Grupo_1160567" data-name="Grupo 1160567" transform="translate(20.919 31.853)">
              <path id="Trazado_994532" data-name="Trazado 994532" d="M81.157,758.966h-6.04v-3.85a7.006,7.006,0,0,1-2.721,3.219,7.946,7.946,0,0,1-4.049.962,9.189,9.189,0,0,1-5.244-1.56,10.7,10.7,0,0,1-3.65-4.248,13.522,13.522,0,0,1-1.328-6.074,13.117,13.117,0,0,1,1.328-6.007,10.308,10.308,0,0,1,3.65-4.115,9.485,9.485,0,0,1,5.244-1.494A7.406,7.406,0,0,1,72.495,737a7.26,7.26,0,0,1,2.754,3.717v-4.58h8.629V751.8a4.953,4.953,0,0,0,4.314-2.19q1.526-2.19,1.527-6.505,0-6.438-4.581-9.89T72,729.76a20.99,20.99,0,0,0-9.924,2.256,16.825,16.825,0,0,0-6.7,6.273,19.073,19.073,0,0,0-.066,18.486,16.248,16.248,0,0,0,6.605,6.206,20.721,20.721,0,0,0,9.757,2.224,28.725,28.725,0,0,0,6.837-.763,28.4,28.4,0,0,0,6.505-2.555l2.921,5.642a26.565,26.565,0,0,1-7.467,3.386,33.428,33.428,0,0,1-8.8,1.062,30.862,30.862,0,0,1-14.038-3.053,22.978,22.978,0,0,1-9.459-8.53,23.681,23.681,0,0,1-3.385-12.711,24.044,24.044,0,0,1,2.025-9.956,23.242,23.242,0,0,1,5.708-7.833,26.21,26.21,0,0,1,8.729-5.144,32.178,32.178,0,0,1,11.019-1.826,32.477,32.477,0,0,1,13.11,2.456,20.127,20.127,0,0,1,8.729,6.97,18.218,18.218,0,0,1,3.12,10.621q0,7.368-4.314,11.682T81.157,758.966ZM71,752.13a3.741,3.741,0,0,0,2.921-1.361,4.805,4.805,0,0,0,1.195-3.286,4.565,4.565,0,0,0-1.195-3.219A3.824,3.824,0,0,0,71,742.969a3.781,3.781,0,0,0-2.921,1.328,4.979,4.979,0,0,0,0,6.472A3.739,3.739,0,0,0,71,752.13Z" transform="translate(-44.782 -722.923)" fill="#745fe8" stroke="#2b2d58" stroke-miterlimit="10" stroke-width="1"/>
            </g>
          </g>
        </g>
        <g id="Grupo_1160582" data-name="Grupo 1160582" transform="translate(7.095 69.63)">
          <g id="Grupo_1160575" data-name="Grupo 1160575" transform="translate(279.37 198.505)">
            <g id="Grupo_1160573" data-name="Grupo 1160573">
              <g id="Grupo_1160572" data-name="Grupo 1160572">
                <path id="Trazado_994533" data-name="Trazado 994533" d="M524.147,782.908H446.23a5.2,5.2,0,0,1-5.2-5.2V741.823a5.2,5.2,0,0,1,5.2-5.2h77.917a5.2,5.2,0,0,1,5.2,5.2v35.886A5.2,5.2,0,0,1,524.147,782.908Z" transform="translate(-441.03 -736.623)" fill="#fff"/>
                <g id="Grupo_1160570" data-name="Grupo 1160570" clip-path="url(#clip-path-6)">
                  <rect id="Rectángulo_409745" data-name="Rectángulo 409745" width="108.579" height="13.518" transform="translate(-9.187 -6.229)" fill="#15da7e" stroke="#2b2d58" stroke-linecap="round" stroke-linejoin="round" stroke-miterlimit="10" stroke-width="1.5"/>
                </g>
                <g id="Grupo_1160571" data-name="Grupo 1160571" clip-path="url(#clip-path-6)">
                  <circle id="Elipse_11682" data-name="Elipse 11682" cx="1.688" cy="1.688" r="1.688" transform="translate(81.343 2.197)" fill="#fff" stroke="#2b2d58" stroke-linecap="round" stroke-linejoin="round" stroke-miterlimit="10" stroke-width="1.5"/>
                  <path id="Trazado_994535" data-name="Trazado 994535" d="M555.541,741.59a1.688,1.688,0,1,1-1.688-1.688A1.688,1.688,0,0,1,555.541,741.59Z" transform="translate(-477.688 -737.705)" fill="#fff" stroke="#2b2d58" stroke-linecap="round" stroke-linejoin="round" stroke-miterlimit="10" stroke-width="1.5"/>
                  <path id="Trazado_994536" data-name="Trazado 994536" d="M545.3,741.59a1.689,1.689,0,1,1-1.689-1.688A1.689,1.689,0,0,1,545.3,741.59Z" transform="translate(-474.308 -737.705)" fill="#f1ce6d" stroke="#2b2d58" stroke-linecap="round" stroke-linejoin="round" stroke-miterlimit="10" stroke-width="1.5"/>
                </g>
                <path id="Trazado_994538" data-name="Trazado 994538" d="M524.147,782.908H446.23a5.2,5.2,0,0,1-5.2-5.2V741.823a5.2,5.2,0,0,1,5.2-5.2h77.917a5.2,5.2,0,0,1,5.2,5.2v35.886A5.2,5.2,0,0,1,524.147,782.908Z" transform="translate(-441.03 -736.623)" fill="none" stroke="#2b2d58" stroke-linecap="round" stroke-linejoin="round" stroke-miterlimit="10" stroke-width="1.5"/>
              </g>
            </g>
            <g id="Grupo_1160574" data-name="Grupo 1160574" transform="translate(8.426 16.75)">
              <path id="Trazado_994539" data-name="Trazado 994539" d="M525.686,764.372H454.98A1.377,1.377,0,0,1,453.6,763h0a1.377,1.377,0,0,1,1.377-1.377h70.706A1.377,1.377,0,0,1,527.063,763h0A1.377,1.377,0,0,1,525.686,764.372Z" transform="translate(-453.603 -761.618)" fill="#b4b2fa" stroke="#2b2d58" stroke-linecap="round" stroke-linejoin="round" stroke-miterlimit="10" stroke-width="1.5"/>
              <path id="Trazado_994540" data-name="Trazado 994540" d="M525.686,775.966H454.98a1.377,1.377,0,0,1-1.377-1.377h0a1.377,1.377,0,0,1,1.377-1.377h70.706a1.377,1.377,0,0,1,1.377,1.377h0A1.377,1.377,0,0,1,525.686,775.966Z" transform="translate(-453.603 -765.442)" fill="#b4b2fa" stroke="#2b2d58" stroke-linecap="round" stroke-linejoin="round" stroke-miterlimit="10" stroke-width="1.5"/>
              <path id="Trazado_994541" data-name="Trazado 994541" d="M525.686,787.56H454.98a1.377,1.377,0,0,1-1.377-1.377h0a1.377,1.377,0,0,1,1.377-1.377h70.706a1.377,1.377,0,0,1,1.377,1.377h0A1.377,1.377,0,0,1,525.686,787.56Z" transform="translate(-453.603 -769.267)" fill="#b4b2fa" stroke="#2b2d58" stroke-linecap="round" stroke-linejoin="round" stroke-miterlimit="10" stroke-width="1.5"/>
            </g>
          </g>
          <g id="Grupo_1160581" data-name="Grupo 1160581" transform="translate(0)">
            <g id="Grupo_1160579" data-name="Grupo 1160579">
              <g id="Grupo_1160578" data-name="Grupo 1160578">
                <path id="Trazado_994542" data-name="Trazado 994542" d="M107.271,486.7H29.354a5.2,5.2,0,0,1-5.2-5.2V445.614a5.2,5.2,0,0,1,5.2-5.2h77.917a5.2,5.2,0,0,1,5.2,5.2V481.5A5.2,5.2,0,0,1,107.271,486.7Z" transform="translate(-24.154 -440.414)" fill="#fff"/>
                <g id="Grupo_1160576" data-name="Grupo 1160576" clip-path="url(#clip-path-8)">
                  <rect id="Rectángulo_409746" data-name="Rectángulo 409746" width="108.579" height="13.518" transform="translate(-9.187 -6.228)" fill="#745fea" stroke="#2b2d58" stroke-linecap="round" stroke-linejoin="round" stroke-miterlimit="10" stroke-width="1.5"/>
                </g>
                <g id="Grupo_1160577" data-name="Grupo 1160577" clip-path="url(#clip-path-8)">
                  <path id="Trazado_994544" data-name="Trazado 994544" d="M148.91,445.381a1.688,1.688,0,1,1-1.688-1.688A1.688,1.688,0,0,1,148.91,445.381Z" transform="translate(-64.191 -441.496)" fill="#fff" stroke="#2b2d58" stroke-linecap="round" stroke-linejoin="round" stroke-miterlimit="10" stroke-width="1.5"/>
                  <path id="Trazado_994545" data-name="Trazado 994545" d="M138.665,445.381a1.688,1.688,0,1,1-1.688-1.688A1.688,1.688,0,0,1,138.665,445.381Z" transform="translate(-60.812 -441.496)" fill="#fff" stroke="#2b2d58" stroke-linecap="round" stroke-linejoin="round" stroke-miterlimit="10" stroke-width="1.5"/>
                  <circle id="Elipse_11683" data-name="Elipse 11683" cx="1.688" cy="1.688" r="1.688" transform="translate(67.611 2.197)" fill="#f1ce6d" stroke="#2b2d58" stroke-linecap="round" stroke-linejoin="round" stroke-miterlimit="10" stroke-width="1.5"/>
                </g>
                <path id="Trazado_994547" data-name="Trazado 994547" d="M107.271,486.7H29.354a5.2,5.2,0,0,1-5.2-5.2V445.614a5.2,5.2,0,0,1,5.2-5.2h77.917a5.2,5.2,0,0,1,5.2,5.2V481.5A5.2,5.2,0,0,1,107.271,486.7Z" transform="translate(-24.154 -440.414)" fill="none" stroke="#2b2d58" stroke-linecap="round" stroke-linejoin="round" stroke-miterlimit="10" stroke-width="1.5"/>
              </g>
            </g>
            <g id="Grupo_1160580" data-name="Grupo 1160580" transform="translate(8.426 16.751)">
              <path id="Trazado_994548" data-name="Trazado 994548" d="M108.81,468.164H38.1a1.377,1.377,0,0,1-1.377-1.377h0A1.377,1.377,0,0,1,38.1,465.41H108.81a1.377,1.377,0,0,1,1.377,1.377h0A1.378,1.378,0,0,1,108.81,468.164Z" transform="translate(-36.727 -465.41)" fill="#b4b2fa" stroke="#2b2d58" stroke-linecap="round" stroke-linejoin="round" stroke-miterlimit="10" stroke-width="1.5"/>
              <path id="Trazado_994549" data-name="Trazado 994549" d="M108.81,479.758H38.1a1.377,1.377,0,0,1-1.377-1.377h0A1.377,1.377,0,0,1,38.1,477H108.81a1.377,1.377,0,0,1,1.377,1.377h0A1.378,1.378,0,0,1,108.81,479.758Z" transform="translate(-36.727 -469.234)" fill="#b4b2fa" stroke="#2b2d58" stroke-linecap="round" stroke-linejoin="round" stroke-miterlimit="10" stroke-width="1.5"/>
              <path id="Trazado_994550" data-name="Trazado 994550" d="M108.81,491.351H38.1a1.377,1.377,0,0,1-1.377-1.377h0A1.377,1.377,0,0,1,38.1,488.6H108.81a1.377,1.377,0,0,1,1.377,1.377h0A1.377,1.377,0,0,1,108.81,491.351Z" transform="translate(-36.727 -473.058)" fill="#b4b2fa" stroke="#2b2d58" stroke-linecap="round" stroke-linejoin="round" stroke-miterlimit="10" stroke-width="1.5"/>
            </g>
          </g>
        </g>
        <g id="Grupo_1160587" data-name="Grupo 1160587" transform="translate(35.503 132.467)">
          <g id="Grupo_1160584" data-name="Grupo 1160584" transform="translate(263.722 87.079)">
            <path id="Trazado_994551" data-name="Trazado 994551" d="M519.611,692.587H474.3a14.234,14.234,0,0,1-14.234-14.234h0A14.234,14.234,0,0,1,474.3,664.119h45.308a14.234,14.234,0,0,1,14.234,14.234h0A14.234,14.234,0,0,1,519.611,692.587Z" transform="translate(-460.069 -664.119)" fill="#4c3fe3" stroke="#2b2d58" stroke-linecap="round" stroke-linejoin="round" stroke-miterlimit="10" stroke-width="1.5"/>
            <g id="Grupo_1160583" data-name="Grupo 1160583" transform="translate(12.811 8.203)">
              <circle id="Elipse_11684" data-name="Elipse 11684" cx="6.031" cy="6.031" r="6.031" fill="#fff" stroke="#2b2d58" stroke-linecap="round" stroke-linejoin="round" stroke-miterlimit="10" stroke-width="1.5"/>
              <circle id="Elipse_11685" data-name="Elipse 11685" cx="6.031" cy="6.031" r="6.031" transform="translate(18.046)" fill="#fff" stroke="#2b2d58" stroke-linecap="round" stroke-linejoin="round" stroke-miterlimit="10" stroke-width="1.5"/>
              <circle id="Elipse_11686" data-name="Elipse 11686" cx="6.031" cy="6.031" r="6.031" transform="translate(36.092)" fill="#fff" stroke="#2b2d58" stroke-linecap="round" stroke-linejoin="round" stroke-miterlimit="10" stroke-width="1.5"/>
            </g>
          </g>
          <g id="Grupo_1160586" data-name="Grupo 1160586" transform="translate(0 0)">
            <path id="Trazado_994552" data-name="Trazado 994552" d="M110.879,555.377H77.142a10.6,10.6,0,0,1-10.6-10.6h0a10.6,10.6,0,0,1,10.6-10.6h33.736a10.6,10.6,0,0,1,10.6,10.6h0A10.6,10.6,0,0,1,110.879,555.377Z" transform="translate(-66.544 -534.18)" fill="#de6048" stroke="#2b2d58" stroke-linecap="round" stroke-linejoin="round" stroke-miterlimit="10" stroke-width="1.5"/>
            <g id="Grupo_1160585" data-name="Grupo 1160585" transform="translate(9.539 6.107)">
              <path id="Trazado_994553" data-name="Trazado 994553" d="M89.759,547.784a4.491,4.491,0,1,1-4.491-4.491A4.491,4.491,0,0,1,89.759,547.784Z" transform="translate(-80.778 -543.293)" fill="#fff" stroke="#2b2d58" stroke-linecap="round" stroke-linejoin="round" stroke-miterlimit="10" stroke-width="1.5"/>
              <path id="Trazado_994554" data-name="Trazado 994554" d="M109.81,547.784a4.491,4.491,0,1,1-4.491-4.491A4.491,4.491,0,0,1,109.81,547.784Z" transform="translate(-87.392 -543.293)" fill="#fff" stroke="#2b2d58" stroke-linecap="round" stroke-linejoin="round" stroke-miterlimit="10" stroke-width="1.5"/>
              <path id="Trazado_994555" data-name="Trazado 994555" d="M129.861,547.784a4.491,4.491,0,1,1-4.491-4.491A4.491,4.491,0,0,1,129.861,547.784Z" transform="translate(-94.006 -543.293)" fill="#fff" stroke="#2b2d58" stroke-linecap="round" stroke-linejoin="round" stroke-miterlimit="10" stroke-width="1.5"/>
            </g>
          </g>
        </g>
        <g id="Grupo_1160595" data-name="Grupo 1160595" transform="translate(18.367 137.502)">
          <g id="Grupo_1160590" data-name="Grupo 1160590" transform="translate(279.074 0)">
            <g id="Grupo_1160589" data-name="Grupo 1160589" transform="translate(0)">
              <circle id="Elipse_11687" data-name="Elipse 11687" cx="27.581" cy="27.581" r="27.581" transform="translate(0 53.683) rotate(-76.714)" fill="#3ad1e9" stroke="#2b2d58" stroke-linecap="round" stroke-linejoin="round" stroke-miterlimit="10" stroke-width="1.229"/>
              <g id="Grupo_1160588" data-name="Grupo 1160588" transform="translate(13.328 8.842)">
                <path id="Trazado_994556" data-name="Trazado 994556" d="M477.3,564.547a25.282,25.282,0,0,1,10.477-7.536" transform="translate(-477.295 -555.587)" fill="#de6048" stroke="#2b2d58" stroke-linecap="round" stroke-linejoin="round" stroke-miterlimit="10" stroke-width="1.229"/>
                <path id="Trazado_994557" data-name="Trazado 994557" d="M495.3,555.909q2.086-.575,4.2-1.023" transform="translate(-483.234 -554.886)" fill="#de6048" stroke="#2b2d58" stroke-linecap="round" stroke-linejoin="round" stroke-miterlimit="10" stroke-width="1.229"/>
                <path id="Trazado_994558" data-name="Trazado 994558" d="M519.616,622.2a24.015,24.015,0,0,0,10.149-7.326" transform="translate(-491.255 -574.673)" fill="#de6048" stroke="#2b2d58" stroke-linecap="round" stroke-linejoin="round" stroke-miterlimit="10" stroke-width="1.229"/>
              </g>
            </g>
            <path id="Trazado_994559" data-name="Trazado 994559" d="M498.247,564.7l5.818,10.527,11.809,2.28-8.214,8.786,1.48,11.936-10.894-5.1-10.894,5.1,1.481-11.936-8.213-8.786,11.809-2.28Z" transform="translate(-465.064 -549.28)" fill="#f1ce6d" stroke="#2b2d58" stroke-linecap="round" stroke-linejoin="round" stroke-miterlimit="10" stroke-width="1.229"/>
            <path id="Trazado_994560" data-name="Trazado 994560" d="M502.737,579.006l2.808,5.079,5.7,1.1-3.963,4.24.714,5.759-5.257-2.459-5.257,2.459.714-5.759-3.963-4.24,5.7-1.1Z" transform="translate(-469.554 -554)" fill="#fff" stroke="#2b2d58" stroke-linecap="round" stroke-linejoin="round" stroke-miterlimit="10" stroke-width="1.229"/>
          </g>
          <g id="Grupo_1160594" data-name="Grupo 1160594" transform="translate(0 33.948)">
            <g id="Grupo_1160593" data-name="Grupo 1160593">
              <g id="Grupo_1160592" data-name="Grupo 1160592">
                <circle id="Elipse_11688" data-name="Elipse 11688" cx="31.165" cy="31.165" r="31.165" fill="#3ad1e9" stroke="#2b2d58" stroke-linecap="round" stroke-linejoin="round" stroke-miterlimit="10" stroke-width="1.389"/>
                <g id="Grupo_1160591" data-name="Grupo 1160591" transform="translate(8.729 3.705)">
                  <path id="Trazado_994561" data-name="Trazado 994561" d="M54,608.794a28.56,28.56,0,0,1,11.838-8.515" transform="translate(-53.999 -598.671)" fill="none" stroke="#2b2d58" stroke-linecap="round" stroke-linejoin="round" stroke-miterlimit="10" stroke-width="1.389"/>
                  <path id="Trazado_994562" data-name="Trazado 994562" d="M74.345,599.035q2.357-.649,4.751-1.156" transform="translate(-60.71 -597.879)" fill="none" stroke="#2b2d58" stroke-linecap="round" stroke-linejoin="round" stroke-miterlimit="10" stroke-width="1.389"/>
                  <path id="Trazado_994563" data-name="Trazado 994563" d="M101.82,673.939a27.138,27.138,0,0,0,11.468-8.278" transform="translate(-69.773 -620.237)" fill="none" stroke="#2b2d58" stroke-linecap="round" stroke-linejoin="round" stroke-miterlimit="10" stroke-width="1.389"/>
                </g>
              </g>
            </g>
            <path id="Trazado_994564" data-name="Trazado 994564" d="M77.927,650.334,61.512,633.919A10.21,10.21,0,0,1,75.951,619.48l1.977,1.977,1.977-1.977a10.21,10.21,0,0,1,14.439,14.439Z" transform="translate(-46.762 -600.312)" fill="#e4b7d2" stroke="#2b2d58" stroke-linecap="round" stroke-linejoin="round" stroke-miterlimit="10" stroke-width="1.389"/>
          </g>
        </g>
      </g>
    </g>
  </g>
</svg>
