<svg xmlns="http://www.w3.org/2000/svg" xmlns:xlink="http://www.w3.org/1999/xlink" width="108" height="108" viewBox="0 0 108 108">
  <defs>
    <filter id="Trazado_982547" x="0" y="0" width="108" height="108" filterUnits="userSpaceOnUse">
      <feOffset dy="3" input="SourceAlpha"/>
      <feGaussianBlur stdDeviation="3" result="blur"/>
      <feFlood flood-opacity="0.161"/>
      <feComposite operator="in" in2="blur"/>
      <feComposite in="SourceGraphic"/>
    </filter>
  </defs>
  <g id="Grupo_1160720" data-name="Grupo 1160720" transform="translate(-588 -7584)">
    <g id="Grupo_1154904" data-name="Grupo 1154904" transform="translate(0 6700)">
      <g id="Grupo_1149836" data-name="Grupo 1149836" transform="translate(0 -3975)">
        <g id="Grupo_1149674" data-name="Grupo 1149674" transform="translate(-158 -2821)">
          <g id="Grupo_1148534" data-name="Grupo 1148534" transform="translate(156 4253)">
            <g id="Grupo_1147066" data-name="Grupo 1147066" transform="translate(-26 -556)">
              <g transform="matrix(1, 0, 0, 1, 616, 3983)" filter="url(#Trazado_982547)">
                <g id="Trazado_982547-2" data-name="Trazado 982547" transform="translate(9 6)" fill="#e6fbf1">
                  <path d="M 45 88.5 C 39.12687683105469 88.5 33.43022537231445 87.35007476806641 28.06830024719238 85.08217620849609 C 22.88852500915527 82.89131164550781 18.23629951477051 79.75458526611328 14.2408504486084 75.75914764404297 C 10.24541282653809 71.76370239257812 7.108687400817871 67.11147308349609 4.917825222015381 61.93170166015625 C 2.649924993515015 56.56977462768555 1.5 50.87312316894531 1.5 45 C 1.5 39.12687683105469 2.649924993515015 33.43022537231445 4.917825222015381 28.06830024719238 C 7.108687400817871 22.88852500915527 10.24541282653809 18.23629951477051 14.2408504486084 14.2408504486084 C 18.23629951477051 10.24541282653809 22.88852500915527 7.108687400817871 28.06830024719238 4.917825222015381 C 33.43022537231445 2.649924993515015 39.12687683105469 1.5 45 1.5 C 50.87312316894531 1.5 56.56977462768555 2.649924993515015 61.93170166015625 4.917825222015381 C 67.11147308349609 7.108687400817871 71.76370239257812 10.24541282653809 75.75914764404297 14.2408504486084 C 79.75458526611328 18.23629951477051 82.89131164550781 22.88852500915527 85.08217620849609 28.06830024719238 C 87.35007476806641 33.43022537231445 88.5 39.12687683105469 88.5 45 C 88.5 50.87312316894531 87.35007476806641 56.56977462768555 85.08217620849609 61.93170166015625 C 82.89131164550781 67.11147308349609 79.75458526611328 71.76370239257812 75.75914764404297 75.75914764404297 C 71.76370239257812 79.75458526611328 67.11147308349609 82.89131164550781 61.93170166015625 85.08217620849609 C 56.56977462768555 87.35007476806641 50.87312316894531 88.5 45 88.5 Z" stroke="none"/>
                  <path d="M 45 3 C 39.32871246337891 3 33.82865524291992 4.110054016113281 28.65262985229492 6.299339294433594 C 23.65165710449219 8.414573669433594 19.15968322753906 11.44334411621094 15.301513671875 15.301513671875 C 11.44334411621094 19.15968322753906 8.414573669433594 23.65165710449219 6.299339294433594 28.65262985229492 C 4.110054016113281 33.82865524291992 3 39.32871246337891 3 45 C 3 50.67128753662109 4.110054016113281 56.17134475708008 6.299339294433594 61.34737396240234 C 8.414573669433594 66.34834289550781 11.44334411621094 70.84031677246094 15.301513671875 74.698486328125 C 19.15968322753906 78.55665588378906 23.65165710449219 81.58542633056641 28.65262985229492 83.70066070556641 C 33.82865524291992 85.88994598388672 39.32871246337891 87 45 87 C 50.67128753662109 87 56.17134475708008 85.88994598388672 61.34737396240234 83.70066070556641 C 66.34834289550781 81.58542633056641 70.84031677246094 78.55665588378906 74.698486328125 74.698486328125 C 78.55665588378906 70.84031677246094 81.58542633056641 66.34834289550781 83.70066070556641 61.34737396240234 C 85.88994598388672 56.17134475708008 87 50.67128753662109 87 45 C 87 39.32871246337891 85.88994598388672 33.82865524291992 83.70066070556641 28.65262985229492 C 81.58542633056641 23.65165710449219 78.55665588378906 19.15968322753906 74.698486328125 15.301513671875 C 70.84031677246094 11.44334411621094 66.34834289550781 8.414573669433594 61.34737396240234 6.299339294433594 C 56.17134475708008 4.110054016113281 50.67128753662109 3 45 3 M 45 0 C 69.85281372070312 0 90 20.14718627929688 90 45 C 90 69.85281372070312 69.85281372070312 90 45 90 C 20.14718627929688 90 0 69.85281372070312 0 45 C 0 20.14718627929688 20.14718627929688 0 45 0 Z" stroke="none" fill="#0b7744"/>
                </g>
              </g>
            </g>
          </g>
        </g>
      </g>
    </g>
    <g id="sistema-de-energia" transform="translate(612 7605)">
      <g id="Grupo_1160719" data-name="Grupo 1160719" transform="translate(1.183 1.183)">
        <path id="Trazado_994715" data-name="Trazado 994715" d="M128.013,34.655a2.366,2.366,0,1,1-2.366-2.366A2.366,2.366,0,0,1,128.013,34.655Zm0,0" transform="translate(-109.881 -29.652)" fill="#ffba4a" fill-rule="evenodd"/>
        <path id="Trazado_994716" data-name="Trazado 994716" d="M49.732,114.651a2.366,2.366,0,1,1-2.366-2.366A2.366,2.366,0,0,1,49.732,114.651Zm0,0" transform="translate(-40.86 -100.186)" fill="#ffba4a" fill-rule="evenodd"/>
        <path id="Trazado_994717" data-name="Trazado 994717" d="M14.732,357.749a2.366,2.366,0,1,1-2.366-2.366A2.366,2.366,0,0,1,14.732,357.749Zm0,0" transform="translate(-10 -314.527)" fill="#ffba4a" fill-rule="evenodd"/>
        <path id="Trazado_994718" data-name="Trazado 994718" d="M84.732,427.749a2.366,2.366,0,1,1-2.366-2.366A2.366,2.366,0,0,1,84.732,427.749Zm0,0" transform="translate(-71.72 -376.247)" fill="#ffba4a" fill-rule="evenodd"/>
        <path id="Trazado_994719" data-name="Trazado 994719" d="M190.732,464.366A2.366,2.366,0,1,1,188.366,462,2.366,2.366,0,0,1,190.732,464.366Zm0,0" transform="translate(-165.181 -408.532)" fill="#ffba4a" fill-rule="evenodd"/>
        <path id="Trazado_994720" data-name="Trazado 994720" d="M413.029,453.233a2.366,2.366,0,1,1-2.366-2.366A2.366,2.366,0,0,1,413.029,453.233Zm0,0" transform="translate(-361.182 -398.716)" fill="#ffba4a" fill-rule="evenodd"/>
        <path id="Trazado_994721" data-name="Trazado 994721" d="M447.009,314.151a2.366,2.366,0,1,1-2.366-2.366A2.366,2.366,0,0,1,447.009,314.151Zm0,0" transform="translate(-391.142 -276.086)" fill="#ffba4a" fill-rule="evenodd"/>
        <path id="Trazado_994722" data-name="Trazado 994722" d="M466.732,158.983a2.366,2.366,0,1,1-2.366-2.366A2.366,2.366,0,0,1,466.732,158.983Zm0,0" transform="translate(-408.532 -139.273)" fill="#ffba4a" fill-rule="evenodd"/>
        <path id="Trazado_994723" data-name="Trazado 994723" d="M406.732,58.983a2.366,2.366,0,1,1-2.366-2.366A2.366,2.366,0,0,1,406.732,58.983Zm0,0" transform="translate(-355.63 -51.103)" fill="#ffba4a" fill-rule="evenodd"/>
        <path id="Trazado_994724" data-name="Trazado 994724" d="M290.732,12.366A2.366,2.366,0,1,1,288.366,10,2.366,2.366,0,0,1,290.732,12.366Zm0,0" transform="translate(-253.351 -10)" fill="#ffba4a" fill-rule="evenodd"/>
        <path id="Trazado_994725" data-name="Trazado 994725" d="M152.971,126H129.785A3.8,3.8,0,0,0,126,129.785v23.185a3.8,3.8,0,0,0,3.785,3.785h23.185a3.8,3.8,0,0,0,3.785-3.785V129.785A3.8,3.8,0,0,0,152.971,126Zm-11.593,3.785a11.593,11.593,0,1,1-11.593,11.593A11.592,11.592,0,0,1,141.378,129.785Zm0,0" transform="translate(-112.278 -112.278)" fill="#c2c2c2" fill-rule="evenodd"/>
        <path id="Trazado_994726" data-name="Trazado 994726" d="M181.185,169.593A11.593,11.593,0,1,1,169.593,158,11.592,11.592,0,0,1,181.185,169.593Zm0,0" transform="translate(-140.493 -140.493)" fill="#ebebeb" fill-rule="evenodd"/>
        <path id="Trazado_994727" data-name="Trazado 994727" d="M217.116,176.6l-7.653,10.672a.368.368,0,0,0,.292.591h4.209l-1.922,6.913a.367.367,0,0,0,.645.338l7.653-10.672a.368.368,0,0,0-.292-.591h-4.209l1.922-6.913a.367.367,0,0,0-.645-.338Zm0,0" transform="translate(-185.801 -156.755)" fill="#ffba4a" fill-rule="evenodd"/>
      </g>
      <path id="Trazado_994728" data-name="Trazado 994728" d="M160.779,148a12.766,12.766,0,0,0-3.482.484,1.183,1.183,0,0,0,.645,2.276,10.428,10.428,0,0,1,4.427-.273,1.552,1.552,0,0,0-.336.341l-7.646,10.662a1.551,1.551,0,0,0,1.246,2.474h2.652l-1.5,5.386a1.552,1.552,0,0,0,.046,1.057,10.408,10.408,0,0,1-5.069-14.837,1.183,1.183,0,0,0-2.049-1.183A12.775,12.775,0,1,0,160.779,148Zm-3.558,13.6,4.053-5.652-.7,2.506a1.183,1.183,0,0,0,1.139,1.5h2.62l-4.053,5.652.7-2.506a1.183,1.183,0,0,0-1.139-1.5Zm3.558,9.587a10.434,10.434,0,0,1-1.59-.122,1.552,1.552,0,0,0,.336-.341l7.646-10.662a1.551,1.551,0,0,0-1.245-2.474h-2.652l1.5-5.386a1.553,1.553,0,0,0-.046-1.058,10.409,10.409,0,0,1-3.946,20.042Zm0,0" transform="translate(-130.496 -130.493)"/>
      <path id="Trazado_994729" data-name="Trazado 994729" d="M46.844,31.466H57.017A1.183,1.183,0,0,0,58.2,30.283V24.237a3.549,3.549,0,1,0-2.366,0V29.1h-8.99V18.99h3.076A1.183,1.183,0,0,0,51.1,17.807v-5.4a3.549,3.549,0,1,0-2.366,0v4.216H46.392a4.974,4.974,0,0,0-4.516-2.9H31.466V11.3H36.2a1.183,1.183,0,0,0,1.183-1.183V6.894a3.549,3.549,0,1,0-2.366,0V8.935H30.283A1.183,1.183,0,0,0,29.1,10.118v3.6H24.156V6.185A1.183,1.183,0,0,0,22.973,5H20.294a3.549,3.549,0,1,0,0,2.366h1.5v6.354h-3.1a4.974,4.974,0,0,0-4.968,4.968V28.807H8.872V18.994a3.549,3.549,0,1,0-2.366,0v11a1.183,1.183,0,0,0,1.183,1.183h6.033v2.659H3.549a1.183,1.183,0,0,0-1.183,1.183V41.06a3.549,3.549,0,1,0,2.366,0V36.2h8.99v3.515H11.829A1.183,1.183,0,0,0,10.646,40.9V49.34a3.549,3.549,0,1,0,2.366,0V42.078h.715a4.974,4.974,0,0,0,4.963,4.766H29.1v2.421H24.368a1.183,1.183,0,0,0-1.183,1.183v3.224a3.549,3.549,0,1,0,2.366,0V51.63h4.732a1.183,1.183,0,0,0,1.183-1.183v-3.6h6.186v2.981a1.183,1.183,0,0,0,2.366,0V46.844h1.858a4.974,4.974,0,0,0,4.968-4.968V40.43h4.5a3.549,3.549,0,1,0,0-2.366h-4.5ZM57.017,19.709a1.183,1.183,0,0,1,0,2.366h0a1.183,1.183,0,0,1,0-2.366ZM49.919,7.88a1.183,1.183,0,1,1-1.183,1.183A1.184,1.184,0,0,1,49.919,7.88ZM36.2,2.366a1.183,1.183,0,1,1-1.183,1.183A1.184,1.184,0,0,1,36.2,2.366Zm-19.248,5a1.183,1.183,0,1,1,1.183-1.183h0A1.184,1.184,0,0,1,16.949,7.368Zm-9.26,7.1a1.183,1.183,0,1,1-1.183,1.183A1.184,1.184,0,0,1,7.689,14.465ZM3.549,45.588A1.183,1.183,0,1,1,4.732,44.4,1.184,1.184,0,0,1,3.549,45.588Zm8.28,8.28a1.183,1.183,0,1,1,1.183-1.183A1.184,1.184,0,0,1,11.829,53.868ZM24.368,58.2a1.183,1.183,0,1,1,1.183-1.183A1.184,1.184,0,0,1,24.368,58.2ZM54.684,38.065A1.183,1.183,0,1,1,53.5,39.248,1.185,1.185,0,0,1,54.684,38.065ZM44.478,41.875a2.606,2.606,0,0,1-2.6,2.6H18.69a2.606,2.606,0,0,1-2.6-2.6V18.69a2.606,2.606,0,0,1,2.6-2.6H41.875a2.606,2.606,0,0,1,2.6,2.6Zm0,0" transform="translate(0 0)"/>
      <path id="Trazado_994730" data-name="Trazado 994730" d="M393.3,414.912v-2.53a1.183,1.183,0,0,0-1.183-1.183h-3.671a1.183,1.183,0,1,0,0,2.366h2.488v1.347a3.549,3.549,0,1,0,2.366,0Zm-1.183,4.528a1.183,1.183,0,1,1,1.183-1.183A1.185,1.185,0,0,1,392.119,419.44Zm0,0" transform="translate(-341.455 -362.558)"/>
      <path id="Trazado_994731" data-name="Trazado 994731" d="M359.48,411.2h-.032a1.183,1.183,0,1,0,0,2.366h.032a1.183,1.183,0,0,0,0-2.366Zm0,0" transform="translate(-315.886 -362.557)"/>
      <path id="Trazado_994732" data-name="Trazado 994732" d="M180.379,176.6a1.186,1.186,0,1,0-.787-2.066l-.018.017a1.182,1.182,0,0,0,.8,2.049Zm0,0" transform="translate(-157.998 -153.618)"/>
    </g>
  </g>
</svg>
