<svg xmlns="http://www.w3.org/2000/svg" xmlns:xlink="http://www.w3.org/1999/xlink" width="108" height="108" viewBox="0 0 108 108">
  <defs>
    <filter id="Trazado_982547" x="0" y="0" width="108" height="108" filterUnits="userSpaceOnUse">
      <feOffset dy="3" input="SourceAlpha"/>
      <feGaussianBlur stdDeviation="3" result="blur"/>
      <feFlood flood-opacity="0.161"/>
      <feComposite operator="in" in2="blur"/>
      <feComposite in="SourceGraphic"/>
    </filter>
  </defs>
  <g id="Grupo_1160726" data-name="Grupo 1160726" transform="translate(-1218 -7584)">
    <g id="Grupo_1154920" data-name="Grupo 1154920" transform="translate(0 6700)">
      <g id="Grupo_1149838" data-name="Grupo 1149838" transform="translate(0 -3975)">
        <g id="Grupo_1149676" data-name="Grupo 1149676" transform="translate(472 -2821)">
          <g id="Grupo_1148534" data-name="Grupo 1148534" transform="translate(156 4253)">
            <g id="Grupo_1147066" data-name="Grupo 1147066" transform="translate(-26 -556)">
              <g transform="matrix(1, 0, 0, 1, 616, 3983)" filter="url(#Trazado_982547)">
                <g id="Trazado_982547-2" data-name="Trazado 982547" transform="translate(9 6)" fill="#e6fbf1">
                  <path d="M 45 88.5 C 39.12687683105469 88.5 33.43022537231445 87.35007476806641 28.06830024719238 85.08217620849609 C 22.88852500915527 82.89131164550781 18.23629951477051 79.75458526611328 14.2408504486084 75.75914764404297 C 10.24541282653809 71.76370239257812 7.108687400817871 67.11147308349609 4.917825222015381 61.93170166015625 C 2.649924993515015 56.56977462768555 1.5 50.87312316894531 1.5 45 C 1.5 39.12687683105469 2.649924993515015 33.43022537231445 4.917825222015381 28.06830024719238 C 7.108687400817871 22.88852500915527 10.24541282653809 18.23629951477051 14.2408504486084 14.2408504486084 C 18.23629951477051 10.24541282653809 22.88852500915527 7.108687400817871 28.06830024719238 4.917825222015381 C 33.43022537231445 2.649924993515015 39.12687683105469 1.5 45 1.5 C 50.87312316894531 1.5 56.56977462768555 2.649924993515015 61.93170166015625 4.917825222015381 C 67.11147308349609 7.108687400817871 71.76370239257812 10.24541282653809 75.75914764404297 14.2408504486084 C 79.75458526611328 18.23629951477051 82.89131164550781 22.88852500915527 85.08217620849609 28.06830024719238 C 87.35007476806641 33.43022537231445 88.5 39.12687683105469 88.5 45 C 88.5 50.87312316894531 87.35007476806641 56.56977462768555 85.08217620849609 61.93170166015625 C 82.89131164550781 67.11147308349609 79.75458526611328 71.76370239257812 75.75914764404297 75.75914764404297 C 71.76370239257812 79.75458526611328 67.11147308349609 82.89131164550781 61.93170166015625 85.08217620849609 C 56.56977462768555 87.35007476806641 50.87312316894531 88.5 45 88.5 Z" stroke="none"/>
                  <path d="M 45 3 C 39.32871246337891 3 33.82865524291992 4.110054016113281 28.65262985229492 6.299339294433594 C 23.65165710449219 8.414573669433594 19.15968322753906 11.44334411621094 15.301513671875 15.301513671875 C 11.44334411621094 19.15968322753906 8.414573669433594 23.65165710449219 6.299339294433594 28.65262985229492 C 4.110054016113281 33.82865524291992 3 39.32871246337891 3 45 C 3 50.67128753662109 4.110054016113281 56.17134475708008 6.299339294433594 61.34737396240234 C 8.414573669433594 66.34834289550781 11.44334411621094 70.84031677246094 15.301513671875 74.698486328125 C 19.15968322753906 78.55665588378906 23.65165710449219 81.58542633056641 28.65262985229492 83.70066070556641 C 33.82865524291992 85.88994598388672 39.32871246337891 87 45 87 C 50.67128753662109 87 56.17134475708008 85.88994598388672 61.34737396240234 83.70066070556641 C 66.34834289550781 81.58542633056641 70.84031677246094 78.55665588378906 74.698486328125 74.698486328125 C 78.55665588378906 70.84031677246094 81.58542633056641 66.34834289550781 83.70066070556641 61.34737396240234 C 85.88994598388672 56.17134475708008 87 50.67128753662109 87 45 C 87 39.32871246337891 85.88994598388672 33.82865524291992 83.70066070556641 28.65262985229492 C 81.58542633056641 23.65165710449219 78.55665588378906 19.15968322753906 74.698486328125 15.301513671875 C 70.84031677246094 11.44334411621094 66.34834289550781 8.414573669433594 61.34737396240234 6.299339294433594 C 56.17134475708008 4.110054016113281 50.67128753662109 3 45 3 M 45 0 C 69.85281372070312 0 90 20.14718627929688 90 45 C 90 69.85281372070312 69.85281372070312 90 45 90 C 20.14718627929688 90 0 69.85281372070312 0 45 C 0 20.14718627929688 20.14718627929688 0 45 0 Z" stroke="none" fill="#0b7744"/>
                </g>
              </g>
            </g>
          </g>
        </g>
      </g>
    </g>
    <g id="gestion-financiera" transform="translate(1236.682 7606.989)">
      <g id="Grupo_1160725" data-name="Grupo 1160725" transform="translate(10.158 1.85)">
        <g id="Grupo_1160723" data-name="Grupo 1160723" transform="translate(0 31.896)">
          <path id="Trazado_994752" data-name="Trazado 994752" d="M44.859,315.891v13.3a21.434,21.434,0,0,1,2.627-1.04,7.082,7.082,0,0,1,2.719-.407,6.515,6.515,0,0,1,2.8.828l0,0,6.333,3.355a5.974,5.974,0,0,0,4.5.592L83.326,327.3a3.273,3.273,0,0,0-1.694-6.323l-13.57,3.636.049-.082a3.635,3.635,0,0,0-1.306-4.951l-10.922-6.363a5.728,5.728,0,0,0-4.538,0Z" transform="translate(-41.966 -312.745)" fill="#ffd6bd" fill-rule="evenodd"/>
          <path id="Trazado_994753" data-name="Trazado 994753" d="M161.959,391.273a3.637,3.637,0,0,0,4.459-.647,3.593,3.593,0,0,1-.338.778,3.63,3.63,0,0,1-4.951,1.306c-2.125-1.24-4.26-2.46-6.392-3.69a.833.833,0,1,1,.833-1.443C157.7,388.806,159.823,390.03,161.959,391.273Z" transform="translate(-139.935 -379.62)" fill="#f9c6aa" fill-rule="evenodd"/>
          <path id="Trazado_994754" data-name="Trazado 994754" d="M21.76,313.7v16.255a.723.723,0,0,1-.721.721h-3a.723.723,0,0,1-.721-.721V313.7a.723.723,0,0,1,.721-.721h3A.723.723,0,0,1,21.76,313.7Z" transform="translate(-17.314 -312.955)" fill="#64b5f6" fill-rule="evenodd"/>
        </g>
        <g id="Grupo_1160724" data-name="Grupo 1160724" transform="translate(14.01)">
          <path id="Trazado_994755" data-name="Trazado 994755" d="M165.773,9H171.8v3.024a15.246,15.246,0,0,1,5.486,2.274l2.139-2.139,4.262,4.262-2.139,2.139a15.248,15.248,0,0,1,2.274,5.486h3.024v6.027h-3.024a15.246,15.246,0,0,1-2.274,5.486l2.139,2.139-4.262,4.262-2.139-2.139a15.246,15.246,0,0,1-5.486,2.274v3.024h-6.027V42.094a15.247,15.247,0,0,1-5.486-2.274l-2.139,2.139L153.885,37.7l2.139-2.139a15.244,15.244,0,0,1-2.274-5.486h-3.024V24.045h3.024a15.246,15.246,0,0,1,2.274-5.486l-2.139-2.139,4.262-4.262,2.139,2.139a15.245,15.245,0,0,1,5.486-2.274V9Z" transform="translate(-150.727 -8.999)" fill="#8d9ca8" fill-rule="evenodd"/>
          <circle id="Elipse_11816" data-name="Elipse 11816" cx="10.947" cy="10.947" r="10.947" transform="translate(2.575 18.061) rotate(-45)" fill="#ffda2d"/>
          <ellipse id="Elipse_11817" data-name="Elipse 11817" cx="7.982" cy="7.982" rx="7.982" ry="7.982" transform="translate(9.804 25.78) rotate(-88.108)" fill="#fdb800"/>
        </g>
      </g>
      <path id="Trazado_994756" data-name="Trazado 994756" d="M44.969,21.621a2.555,2.555,0,0,1-1.9,2.466v.364a.84.84,0,0,1-1.68,0v-.33a2.566,2.566,0,0,1-1.575-1.01.84.84,0,1,1,1.362-.985.876.876,0,0,0,.706.364h.539a.871.871,0,0,0,0-1.741h-.382a2.551,2.551,0,0,1-.649-5.017v-.364a.84.84,0,0,1,1.68,0v.33a2.564,2.564,0,0,1,1.574,1.011.84.84,0,1,1-1.361.984.876.876,0,0,0-.707-.363h-.537a.87.87,0,1,0,0,1.74h.382A2.555,2.555,0,0,1,44.969,21.621Zm-2.742,5.431a7.142,7.142,0,1,0-7.143-7.142A7.15,7.15,0,0,0,42.227,27.052Zm0-15.964a8.822,8.822,0,1,0,8.822,8.822,8.832,8.832,0,0,0-8.822-8.822Zm0,18.929A10.107,10.107,0,1,0,32.12,19.911,10.118,10.118,0,0,0,42.227,30.018Zm0-21.895A11.787,11.787,0,1,0,54.013,19.911,11.8,11.8,0,0,0,42.227,8.123ZM51.3,47.49l-19.485,5.22a5.152,5.152,0,0,1-3.889-.523l-6.333-3.355a7.341,7.341,0,0,0-6.148-.487V36.814l4.414-1.824a4.859,4.859,0,0,1,3.845-.017l10.871,6.334a2.78,2.78,0,0,1-2.8,4.8l-5.834-3.4a.84.84,0,1,0-.845,1.451l5.833,3.4a4.423,4.423,0,0,0,2.231.6,4.51,4.51,0,0,0,1.151-.15,4.431,4.431,0,0,0,2.462-1.674l13.267-3.555a2.433,2.433,0,1,1,1.259,4.7ZM11,50.629V34.613h2.766V50.629Zm41.727-9.048a4.085,4.085,0,0,0-3.119-.414L37.582,44.389a4.484,4.484,0,0,0-2.161-4.533L24.5,33.492a.954.954,0,0,0-.1-.051,6.553,6.553,0,0,0-5.181,0L15.445,35v-.5a1.563,1.563,0,0,0-1.562-1.561h-3a1.563,1.563,0,0,0-1.561,1.561V50.749a1.563,1.563,0,0,0,1.561,1.561h3a1.563,1.563,0,0,0,1.562-1.561v-.614a5.869,5.869,0,0,1,5.362.183l6.333,3.355a7.194,7.194,0,0,0,3.389.892,6.656,6.656,0,0,0,1.722-.23l19.485-5.221a4.11,4.11,0,0,0,.991-7.532Zm6.72-19.5V17.737H57.262a.839.839,0,0,1-.823-.675,14.35,14.35,0,0,0-2.149-5.185.837.837,0,0,1,.105-1.059L55.94,9.272,52.866,6.2,51.32,7.743a.839.839,0,0,1-1.059.105A14.349,14.349,0,0,0,45.076,5.7a.841.841,0,0,1-.676-.825V2.691H40.054V4.875a.842.842,0,0,1-.677.825,14.331,14.331,0,0,0-5.183,2.149.842.842,0,0,1-1.061-.105L31.587,6.2,28.514,9.272l1.546,1.546a.839.839,0,0,1,.1,1.059,14.347,14.347,0,0,0-2.149,5.185.839.839,0,0,1-.823.675H25.008v4.348h2.184a.839.839,0,0,1,.823.676,14.35,14.35,0,0,0,2.149,5.184.841.841,0,0,1-.1,1.06l-1.546,1.545,3.074,3.075,1.546-1.546a.842.842,0,0,1,1.061-.1,14.357,14.357,0,0,0,5.183,2.149.841.841,0,0,1,.677.824V37.13H44.4V34.946a.84.84,0,0,1,.676-.824,14.351,14.351,0,0,0,5.185-2.149.84.84,0,0,1,1.059.105l1.546,1.546,3.074-3.075L54.395,29a.839.839,0,0,1-.105-1.06,14.348,14.348,0,0,0,2.149-5.184.839.839,0,0,1,.823-.676h2.184Zm.84-6.027h-2.35a15.992,15.992,0,0,0-1.877-4.528l1.663-1.662a.841.841,0,0,0,0-1.189L53.46,4.416a.842.842,0,0,0-1.189,0L50.61,6.079A16.024,16.024,0,0,0,46.081,4.2V1.851a.841.841,0,0,0-.84-.84H39.214a.841.841,0,0,0-.84.84V4.2a16.012,16.012,0,0,0-4.529,1.878L32.182,4.416a.84.84,0,0,0-1.188,0L26.732,8.677a.841.841,0,0,0,0,1.188l1.663,1.663a16,16,0,0,0-1.877,4.528h-2.35a.841.841,0,0,0-.841.84v6.027a.84.84,0,0,0,.841.84h2.35a16,16,0,0,0,1.877,4.529l-1.663,1.662a.84.84,0,0,0,0,1.188l4.262,4.262a.84.84,0,0,0,1.188,0l1.663-1.662a16.017,16.017,0,0,0,4.529,1.877v2.35a.84.84,0,0,0,.84.84h6.027a.841.841,0,0,0,.84-.84V35.62a15.983,15.983,0,0,0,4.528-1.878l1.662,1.663a.841.841,0,0,0,1.189,0l4.261-4.262a.838.838,0,0,0,0-1.188l-1.663-1.663a15.973,15.973,0,0,0,1.877-4.528h2.35a.84.84,0,0,0,.84-.84V16.9a.84.84,0,0,0-.84-.84Z" fill-rule="evenodd"/>
    </g>
  </g>
</svg>
