<svg xmlns="http://www.w3.org/2000/svg" xmlns:xlink="http://www.w3.org/1999/xlink" width="110" height="110" viewBox="0 0 110 110">
  <defs>
    <filter id="Trazado_982547" x="0" y="0" width="110" height="110" filterUnits="userSpaceOnUse">
      <feOffset dy="3" input="SourceAlpha"/>
      <feGaussianBlur stdDeviation="3" result="blur"/>
      <feFlood flood-opacity="0.161"/>
      <feComposite operator="in" in2="blur"/>
      <feComposite in="SourceGraphic"/>
    </filter>
  </defs>
  <g id="Grupo_1160679" data-name="Grupo 1160679" transform="translate(-1195 -2297)">
    <g id="Grupo_1158892" data-name="Grupo 1158892" transform="translate(394.001 -1508)">
      <g id="Grupo_1157405" data-name="Grupo 1157405" transform="translate(1 3016)">
        <g id="Grupo_1155792" data-name="Grupo 1155792" transform="translate(-1 -3894.666)">
          <g id="Grupo_1154703" data-name="Grupo 1154703" transform="translate(0 1465.666)">
            <g id="Grupo_1150789" data-name="Grupo 1150789" transform="translate(3 2320)">
              <g id="Grupo_1154212" data-name="Grupo 1154212" transform="translate(-236 -5809)">
                <g id="Grupo_1152583" data-name="Grupo 1152583" transform="translate(1043 6713)">
                  <g id="Grupo_1146973" data-name="Grupo 1146973" transform="translate(0 0)">
                    <g id="Grupo_1146954" data-name="Grupo 1146954">
                      <g transform="matrix(1, 0, 0, 1, -9, -6)" filter="url(#Trazado_982547)">
                        <g id="Trazado_982547-2" data-name="Trazado 982547" transform="translate(9 6)" fill="#f5e9fe">
                          <path d="M 46 90.49987030029297 C 39.99187850952148 90.49987030029297 34.16426849365234 89.32350921630859 28.67905426025391 87.00345611572266 C 23.38019943237305 84.76224517822266 18.62104034423828 81.55341339111328 14.53374671936035 77.46613311767578 C 10.44646644592285 73.37885284423828 7.237639904022217 68.61969757080078 4.996413230895996 63.32085418701172 C 2.676359891891479 57.83565521240234 1.5 52.008056640625 1.5 45.99993515014648 C 1.5 39.99181365966797 2.676359891891479 34.16421508789062 4.996413230895996 28.67901420593262 C 7.237639904022217 23.38017463684082 10.44646644592285 18.62101554870605 14.53374671936035 14.53373527526855 C 18.62104034423828 10.44645500183105 23.38019943237305 7.23762845993042 28.67905426025391 4.996415138244629 C 34.16426849365234 2.676361799240112 39.99187850952148 1.500001788139343 46 1.500001788139343 C 52.00812149047852 1.500001788139343 57.83573150634766 2.676361799240112 63.32094573974609 4.996415138244629 C 68.61979675292969 7.23762845993042 73.37895965576172 10.44645500183105 77.46625518798828 14.53373527526855 C 81.55353546142578 18.62101554870605 84.76235961914062 23.38017463684082 87.00358581542969 28.67901420593262 C 89.32363891601562 34.16421508789062 90.5 39.99181365966797 90.5 45.99993515014648 C 90.5 52.008056640625 89.32363891601562 57.83565521240234 87.00358581542969 63.32085418701172 C 84.76235961914062 68.61969757080078 81.55353546142578 73.37885284423828 77.46625518798828 77.46613311767578 C 73.37895965576172 81.55341339111328 68.61979675292969 84.76224517822266 63.32094573974609 87.00345611572266 C 57.83573150634766 89.32350921630859 52.00812149047852 90.49987030029297 46 90.49987030029297 Z" stroke="none"/>
                          <path d="M 46 2.999992370605469 C 40.1937141418457 2.999992370605469 34.56269836425781 4.136489868164062 29.26337051391602 6.377906799316406 C 24.14332580566406 8.543502807617188 19.54441070556641 11.64437866210938 15.59439849853516 15.59437561035156 C 11.64440155029297 19.54439544677734 8.54351806640625 24.14329528808594 6.377914428710938 29.26333618164062 C 4.136497497558594 34.56264877319336 3 40.19366455078125 3 45.99993515014648 C 3 51.80620574951172 4.136497497558594 57.43720626831055 6.377914428710938 62.73651885986328 C 8.54351806640625 67.8565673828125 11.64440155029297 72.45545959472656 15.59439849853516 76.40547943115234 C 19.54441070556641 80.35547637939453 24.14332580566406 83.45635223388672 29.26337051391602 85.6219482421875 C 34.56269836425781 87.86336517333984 40.1937141418457 88.99986267089844 46 88.99986267089844 C 51.8062858581543 88.99986267089844 57.43730163574219 87.86336517333984 62.73661422729492 85.6219482421875 C 67.85667419433594 83.45635223388672 72.45557403564453 80.35547637939453 76.40558624267578 76.40547943115234 C 80.35559844970703 72.45545959472656 83.45647430419922 67.8565673828125 85.6220703125 62.73651885986328 C 87.86350250244141 57.43720626831055 89 51.80620574951172 89 45.99993515014648 C 89 40.19366455078125 87.86350250244141 34.56264877319336 85.6220703125 29.26333618164062 C 83.45647430419922 24.14329528808594 80.35559844970703 19.54439544677734 76.40558624267578 15.59437561035156 C 72.45557403564453 11.64437866210938 67.85667419433594 8.543502807617188 62.73661422729492 6.377906799316406 C 57.43730163574219 4.136489868164062 51.8062858581543 2.999992370605469 46 2.999992370605469 M 46 -7.62939453125e-06 C 71.40509033203125 -7.62939453125e-06 92 20.59486389160156 92 45.99993515014648 C 92 71.40499114990234 71.40509033203125 91.99986267089844 46 91.99986267089844 C 20.59490203857422 91.99986267089844 0 71.40499114990234 0 45.99993515014648 C 0 20.59486389160156 20.59490203857422 -7.62939453125e-06 46 -7.62939453125e-06 Z" stroke="none" fill="#a530fe"/>
                        </g>
                      </g>
                    </g>
                  </g>
                </g>
              </g>
            </g>
          </g>
        </g>
      </g>
    </g>
    <g id="XMLID_1368_" transform="translate(1218 2316.941)">
      <g id="XMLID_2418_" transform="translate(1.249 8.038)">
        <path id="XMLID_2035_" d="M10,353.115H64.721v3.7a3.752,3.752,0,0,1-3.752,3.752H13.752A3.752,3.752,0,0,1,10,356.815Z" transform="translate(-10 -316.985)" fill="#72d8ff"/>
        <path id="XMLID_2034_" d="M10,67.483a3.559,3.559,0,0,1,3.559-3.559h47.6a3.559,3.559,0,0,1,3.559,3.559v32.571H10Z" transform="translate(-10 -63.924)" fill="#fff"/>
        <path id="XMLID_2033_" d="M141.778,468.723h21.8v-1.487a3.253,3.253,0,0,0-3.253-3.253h-15.3a3.253,3.253,0,0,0-3.253,3.253Z" transform="translate(-125.314 -414.002)" fill="#72d8ff"/>
        <rect id="XMLID_2032_" width="7.996" height="6.399" transform="translate(23.368 43.582)" fill="#c9f3ff"/>
        <rect id="XMLID_1015_" width="7.118" height="7.971" transform="translate(12.123 22.022)" fill="#4dbaf6"/>
        <rect id="XMLID_1009_" width="7.118" height="11.928" transform="translate(23.69 18.065)" fill="#a0e557"/>
        <rect id="XMLID_1008_" width="7.118" height="17.277" transform="translate(35.257 12.716)" fill="#ff5d5d"/>
      </g>
      <g id="XMLID_2646_" transform="translate(0 0.059)">
        <path id="XMLID_2651_" d="M382.343,140.929l10.221,10.221a3.09,3.09,0,0,1,0,4.369h0a3.09,3.09,0,0,1-4.369,0L377.974,145.3Z" transform="translate(-330.752 -123.329)" fill="#2e9de3"/>
        <g id="XMLID_1946_" transform="translate(0 0)">
          <circle id="XMLID_1957_" cx="11.349" cy="11.349" r="11.349" transform="translate(30.865 1.249)" fill="#ffb954"/>
          <g id="XMLID_1201_">
            <path id="XMLID_1205_" d="M219.406,371.817a1.249,1.249,0,1,0,.883-.366A1.257,1.257,0,0,0,219.406,371.817Z" transform="translate(-191.674 -325.051)"/>
            <path id="XMLID_1339_" d="M340.429,402.761a1.25,1.25,0,1,0,.883.366A1.258,1.258,0,0,0,340.429,402.761Z" transform="translate(-296.805 -352.45)"/>
            <path id="XMLID_1340_" d="M49.318,104.5a1.248,1.248,0,1,0-.883-.365A1.255,1.255,0,0,0,49.318,104.5Z" transform="translate(-42.064 -89.266)"/>
            <path id="XMLID_1353_" d="M89.318,104.495h1.12a1.249,1.249,0,1,0,0-2.5h-1.12a1.249,1.249,0,0,0,0,2.5Z" transform="translate(-77.066 -89.261)"/>
            <path id="XMLID_1359_" d="M89.318,147.228h1.12a1.249,1.249,0,0,0,0-2.5h-1.12a1.249,1.249,0,0,0,0,2.5Z" transform="translate(-77.066 -126.655)"/>
            <path id="XMLID_1360_" d="M89.318,189.959h1.12a1.249,1.249,0,1,0,0-2.5h-1.12a1.249,1.249,0,0,0,0,2.5Z" transform="translate(-77.066 -164.047)"/>
            <path id="XMLID_1364_" d="M62.7,27l-9.05-9.05A12.6,12.6,0,0,0,31.069,6.789H4.808A4.814,4.814,0,0,0,0,11.6V48.061a4.814,4.814,0,0,0,4.808,4.808h18.56v3.9h-2.4a4.507,4.507,0,0,0-4.5,4.5v1.487a1.249,1.249,0,0,0,1.249,1.249h21.8a1.249,1.249,0,0,0,1.249-1.249V61.272a4.507,4.507,0,0,0-4.5-4.5h-2.4v-3.9h4.765a1.249,1.249,0,0,0,0-2.5H4.808a2.312,2.312,0,0,1-2.31-2.31V45.417H54.721v2.643a2.312,2.312,0,0,1-2.31,2.31H48.623a1.249,1.249,0,0,0,0,2.5h3.789a4.814,4.814,0,0,0,4.808-4.808V33.675A4.34,4.34,0,0,0,62.7,27ZM38.269,61.272v.238H18.962v-.238a2.006,2.006,0,0,1,2-2h15.3A2.006,2.006,0,0,1,38.269,61.272Zm-6.9-8.4v3.9h-5.5v-3.9ZM42.214,2.558a10.1,10.1,0,1,1-10.1,10.1A10.111,10.111,0,0,1,42.214,2.558ZM37.756,24.44a12.535,12.535,0,0,0,4.458.815l.162,0V36.781h-4.62ZM2.5,42.919V11.6a2.312,2.312,0,0,1,2.31-2.31H30.074a12.6,12.6,0,0,0,.788,8.832L28.578,20.4l-3.8-3.8a1.25,1.25,0,0,0-1.767,0l-4.771,4.771A1.249,1.249,0,1,0,20,23.14l3.888-3.888,3.8,3.8a1.25,1.25,0,0,0,1.767,0l2.749-2.749a12.7,12.7,0,0,0,3.047,2.85V36.782h-1.95V26.1a1.249,1.249,0,0,0-1.249-1.249H24.94A1.249,1.249,0,0,0,23.69,26.1V36.782H21.74V30.06a1.249,1.249,0,0,0-1.249-1.249H13.373a1.249,1.249,0,0,0-1.249,1.249v6.722H8.5V19.041a1.249,1.249,0,1,0-2.5,0v18.99A1.249,1.249,0,0,0,7.255,39.28H49.965a1.249,1.249,0,0,0,0-2.5h-5.09V24.971a12.494,12.494,0,0,0,2.638-.886l7.209,7.209V42.919Zm28.31-6.137h-4.62V27.352h4.62Zm-11.567,0h-4.62V31.309h4.62Zm41.687-5.416a1.84,1.84,0,0,1-2.6,0l-8.6-8.6a12.708,12.708,0,0,0,2.6-2.6l8.6,8.6A1.842,1.842,0,0,1,60.929,31.365Z" transform="translate(0 -0.059)"/>
            <path id="XMLID_1388_" d="M310.262,54.118a1.34,1.34,0,0,1-1.446-1.2,1.249,1.249,0,0,0-2.5,0,3.732,3.732,0,0,0,2.7,3.5,1.248,1.248,0,0,0,2.494,0,3.731,3.731,0,0,0,2.7-3.5,3.83,3.83,0,0,0-3.944-3.7,1.218,1.218,0,1,1,1.446-1.2,1.249,1.249,0,1,0,2.5,0,3.731,3.731,0,0,0-2.7-3.5v-.053a1.249,1.249,0,1,0-2.5,0v.053a3.731,3.731,0,0,0-2.695,3.5,3.83,3.83,0,0,0,3.944,3.7,1.218,1.218,0,1,1,0,2.393Z" transform="translate(-268.048 -37.83)"/>
          </g>
        </g>
      </g>
    </g>
  </g>
</svg>
