<svg xmlns="http://www.w3.org/2000/svg" xmlns:xlink="http://www.w3.org/1999/xlink" width="110" height="110" viewBox="0 0 110 110">
  <defs>
    <filter id="Trazado_982547" x="0" y="0" width="110" height="110" filterUnits="userSpaceOnUse">
      <feOffset dy="3" input="SourceAlpha"/>
      <feGaussianBlur stdDeviation="3" result="blur"/>
      <feFlood flood-opacity="0.161"/>
      <feComposite operator="in" in2="blur"/>
      <feComposite in="SourceGraphic"/>
    </filter>
  </defs>
  <g id="Grupo_1160783" data-name="Grupo 1160783" transform="translate(-797.22 -3668.173)">
    <g id="Grupo_1158943" data-name="Grupo 1158943" transform="translate(-3.779 -136.827)">
      <g id="Grupo_1157405" data-name="Grupo 1157405" transform="translate(1 3016)">
        <g id="Grupo_1155792" data-name="Grupo 1155792" transform="translate(-1 -3894.666)">
          <g id="Grupo_1154703" data-name="Grupo 1154703" transform="translate(0 1465.666)">
            <g id="Grupo_1150789" data-name="Grupo 1150789" transform="translate(3 2320)">
              <g id="Grupo_1154212" data-name="Grupo 1154212" transform="translate(-236 -5809)">
                <g id="Grupo_1152583" data-name="Grupo 1152583" transform="translate(1043 6713)">
                  <g id="Grupo_1146973" data-name="Grupo 1146973" transform="translate(0 0)">
                    <g id="Grupo_1146954" data-name="Grupo 1146954">
                      <g transform="matrix(1, 0, 0, 1, -9, -6)" filter="url(#Trazado_982547)">
                        <g id="Trazado_982547-2" data-name="Trazado 982547" transform="translate(9 6)" fill="#f5e9fe">
                          <path d="M 46 90.49987030029297 C 39.99187850952148 90.49987030029297 34.16426849365234 89.32350921630859 28.67905426025391 87.00345611572266 C 23.38019943237305 84.76224517822266 18.62104034423828 81.55341339111328 14.53374671936035 77.46613311767578 C 10.44646644592285 73.37885284423828 7.237639904022217 68.61969757080078 4.996413230895996 63.32085418701172 C 2.676359891891479 57.83565521240234 1.5 52.008056640625 1.5 45.99993515014648 C 1.5 39.99181365966797 2.676359891891479 34.16421508789062 4.996413230895996 28.67901420593262 C 7.237639904022217 23.38017463684082 10.44646644592285 18.62101554870605 14.53374671936035 14.53373527526855 C 18.62104034423828 10.44645500183105 23.38019943237305 7.23762845993042 28.67905426025391 4.996415138244629 C 34.16426849365234 2.676361799240112 39.99187850952148 1.500001788139343 46 1.500001788139343 C 52.00812149047852 1.500001788139343 57.83573150634766 2.676361799240112 63.32094573974609 4.996415138244629 C 68.61979675292969 7.23762845993042 73.37895965576172 10.44645500183105 77.46625518798828 14.53373527526855 C 81.55353546142578 18.62101554870605 84.76235961914062 23.38017463684082 87.00358581542969 28.67901420593262 C 89.32363891601562 34.16421508789062 90.5 39.99181365966797 90.5 45.99993515014648 C 90.5 52.008056640625 89.32363891601562 57.83565521240234 87.00358581542969 63.32085418701172 C 84.76235961914062 68.61969757080078 81.55353546142578 73.37885284423828 77.46625518798828 77.46613311767578 C 73.37895965576172 81.55341339111328 68.61979675292969 84.76224517822266 63.32094573974609 87.00345611572266 C 57.83573150634766 89.32350921630859 52.00812149047852 90.49987030029297 46 90.49987030029297 Z" stroke="none"/>
                          <path d="M 46 2.999992370605469 C 40.1937141418457 2.999992370605469 34.56269836425781 4.136489868164062 29.26337051391602 6.377906799316406 C 24.14332580566406 8.543502807617188 19.54441070556641 11.64437866210938 15.59439849853516 15.59437561035156 C 11.64440155029297 19.54439544677734 8.54351806640625 24.14329528808594 6.377914428710938 29.26333618164062 C 4.136497497558594 34.56264877319336 3 40.19366455078125 3 45.99993515014648 C 3 51.80620574951172 4.136497497558594 57.43720626831055 6.377914428710938 62.73651885986328 C 8.54351806640625 67.8565673828125 11.64440155029297 72.45545959472656 15.59439849853516 76.40547943115234 C 19.54441070556641 80.35547637939453 24.14332580566406 83.45635223388672 29.26337051391602 85.6219482421875 C 34.56269836425781 87.86336517333984 40.1937141418457 88.99986267089844 46 88.99986267089844 C 51.8062858581543 88.99986267089844 57.43730163574219 87.86336517333984 62.73661422729492 85.6219482421875 C 67.85667419433594 83.45635223388672 72.45557403564453 80.35547637939453 76.40558624267578 76.40547943115234 C 80.35559844970703 72.45545959472656 83.45647430419922 67.8565673828125 85.6220703125 62.73651885986328 C 87.86350250244141 57.43720626831055 89 51.80620574951172 89 45.99993515014648 C 89 40.19366455078125 87.86350250244141 34.56264877319336 85.6220703125 29.26333618164062 C 83.45647430419922 24.14329528808594 80.35559844970703 19.54439544677734 76.40558624267578 15.59437561035156 C 72.45557403564453 11.64437866210938 67.85667419433594 8.543502807617188 62.73661422729492 6.377906799316406 C 57.43730163574219 4.136489868164062 51.8062858581543 2.999992370605469 46 2.999992370605469 M 46 -7.62939453125e-06 C 71.40509033203125 -7.62939453125e-06 92 20.59486389160156 92 45.99993515014648 C 92 71.40499114990234 71.40509033203125 91.99986267089844 46 91.99986267089844 C 20.59490203857422 91.99986267089844 0 71.40499114990234 0 45.99993515014648 C 0 20.59486389160156 20.59490203857422 -7.62939453125e-06 46 -7.62939453125e-06 Z" stroke="none" fill="#a530fe"/>
                        </g>
                      </g>
                    </g>
                  </g>
                </g>
              </g>
            </g>
          </g>
        </g>
      </g>
    </g>
    <g id="mercado" transform="translate(820 3688)">
      <g id="Grupo_1160781" data-name="Grupo 1160781">
        <g id="Grupo_1160763" data-name="Grupo 1160763">
          <path id="Trazado_994795" data-name="Trazado 994795" d="M38,14v4.2A14.025,14.025,0,0,0,34.58,32H30V14Z" fill="#b4dd7f"/>
        </g>
        <g id="Grupo_1160764" data-name="Grupo 1160764">
          <path id="Trazado_994796" data-name="Trazado 994796" d="M23,30a3.98,3.98,0,0,0-3.46,2H18V18h8V31.36A3.984,3.984,0,0,0,23,30Z" fill="#b4dd7f"/>
        </g>
        <g id="Grupo_1160765" data-name="Grupo 1160765">
          <path id="Trazado_994797" data-name="Trazado 994797" d="M6,22h8V32H6Z" fill="#b4dd7f"/>
        </g>
        <g id="Grupo_1160766" data-name="Grupo 1160766">
          <path id="Trazado_994798" data-name="Trazado 994798" d="M28.73,36l-.12.15-1.69-1.37A3.938,3.938,0,0,0,26.46,32h8.12a14.1,14.1,0,0,0,1.93,4Z" fill="#ccd1d9"/>
        </g>
        <g id="Grupo_1160767" data-name="Grupo 1160767">
          <path id="Trazado_994799" data-name="Trazado 994799" d="M19,34a3.967,3.967,0,0,0,.08.78l-1.69,1.37L17.27,36H3a1,1,0,0,1-1-1V33a1,1,0,0,1,1-1H19.54A3.989,3.989,0,0,0,19,34Z" fill="#ccd1d9"/>
        </g>
        <g id="Grupo_1160768" data-name="Grupo 1160768">
          <path id="Trazado_994800" data-name="Trazado 994800" d="M26.92,34.78l1.69,1.37L39.46,45l1.95,1.59a1.994,1.994,0,1,1-2.82,2.82l-.26-.21v-.01L24.29,37.78a3.978,3.978,0,0,0,2.63-3Z" fill="#ccd1d9"/>
        </g>
        <g id="Grupo_1160769" data-name="Grupo 1160769">
          <path id="Trazado_994801" data-name="Trazado 994801" d="M19.08,34.78a3.978,3.978,0,0,0,2.63,3L7.67,49.19v.01l-.26.21a1.994,1.994,0,1,1-2.82-2.82L6.54,45l10.85-8.85Z" fill="#ccd1d9"/>
        </g>
        <g id="Grupo_1160770" data-name="Grupo 1160770">
          <path id="Trazado_994802" data-name="Trazado 994802" d="M26.46,32a4.008,4.008,0,1,1-.46-.64A3.574,3.574,0,0,1,26.46,32Z" fill="#aab2bd"/>
        </g>
        <g id="Grupo_1160771" data-name="Grupo 1160771">
          <path id="Trazado_994803" data-name="Trazado 994803" d="M36.51,36a14.063,14.063,0,0,0,4.36,4.05l-1.35,4.88-.06.07L28.61,36.15l.12-.15Z" fill="#ff826e"/>
        </g>
        <g id="Grupo_1160772" data-name="Grupo 1160772">
          <path id="Trazado_994804" data-name="Trazado 994804" d="M24.29,37.78a3.892,3.892,0,0,1-2.58,0L7.67,49.19v.01l1.01,5.18A2.012,2.012,0,0,0,10.65,56h24.7a2.012,2.012,0,0,0,1.97-1.62l1.01-5.18v-.01Z" fill="#ff826e"/>
        </g>
        <g id="Grupo_1160773" data-name="Grupo 1160773">
          <path id="Trazado_994805" data-name="Trazado 994805" d="M17.39,36.15,6.54,45l-.06-.07L4,36H17.27Z" fill="#ff826e"/>
        </g>
        <g id="Grupo_1160774" data-name="Grupo 1160774">
          <path id="Trazado_994806" data-name="Trazado 994806" d="M33,50v6H29V50a2.006,2.006,0,0,1,2-2,2.015,2.015,0,0,1,2,2Z" fill="#fc6e51"/>
        </g>
        <g id="Grupo_1160775" data-name="Grupo 1160775">
          <path id="Trazado_994807" data-name="Trazado 994807" d="M25,46V56H21V46a2.006,2.006,0,0,1,2-2,2.015,2.015,0,0,1,2,2Z" fill="#fc6e51"/>
        </g>
        <g id="Grupo_1160776" data-name="Grupo 1160776">
          <path id="Trazado_994808" data-name="Trazado 994808" d="M17,50v6H13V50a2.006,2.006,0,0,1,2-2,2.015,2.015,0,0,1,2,2Z" fill="#fc6e51"/>
        </g>
        <g id="Grupo_1160777" data-name="Grupo 1160777">
          <path id="Trazado_994809" data-name="Trazado 994809" d="M50,46a2.006,2.006,0,0,1,2,2V58a4,4,0,0,1-8,0V48a2.006,2.006,0,0,1,2-2h4Z" fill="#969faa"/>
        </g>
        <g id="Grupo_1160778" data-name="Grupo 1160778">
          <path id="Trazado_994810" data-name="Trazado 994810" d="M51,41.68V44a2.006,2.006,0,0,1-2,2H47a2.006,2.006,0,0,1-2-2V41.68a14.223,14.223,0,0,0,6,0Z" fill="#ccd1d9"/>
        </g>
        <g id="Grupo_1160779" data-name="Grupo 1160779">
          <path id="Trazado_994811" data-name="Trazado 994811" d="M51,41.68A14.017,14.017,0,0,1,34.58,32,14,14,0,1,1,51,41.68Z" fill="#fcd770"/>
        </g>
        <g id="Grupo_1160780" data-name="Grupo 1160780">
          <circle id="Elipse_11818" data-name="Elipse 11818" cx="10" cy="10" r="10" transform="translate(38 18)" fill="#69d6f4"/>
        </g>
      </g>
      <g id="Grupo_1160782" data-name="Grupo 1160782">
        <path id="Trazado_994812" data-name="Trazado 994812" d="M48,39A11,11,0,1,0,37,28,11.013,11.013,0,0,0,48,39Zm0-20a9,9,0,1,1-9,9A9.01,9.01,0,0,1,48,19Z"/>
        <path id="Trazado_994813" data-name="Trazado 994813" d="M52,42.442A14.988,14.988,0,1,0,39,16.028V13H29V31H27V17H17V31H15V21H5V31H3a2,2,0,0,0-2,2v2a2,2,0,0,0,2,2h.24l2.128,7.659L3.955,45.81l-.075.068A2.989,2.989,0,0,0,6.967,50.83L7.7,54.577A3.006,3.006,0,0,0,10.646,57H35.355A3,3,0,0,0,38.3,54.577l.735-3.747a2.994,2.994,0,0,0,3.088-4.951l-1.49-1.215.878-3.162a14.872,14.872,0,0,0,2.49.94V44a2.967,2.967,0,0,0,.4,1.471A3,3,0,0,0,43,48V58a5,5,0,0,0,10,0V48a2.994,2.994,0,0,0-1.4-2.529A2.967,2.967,0,0,0,52,44ZM61,28A13,13,0,1,1,48,15,13.015,13.015,0,0,1,61,28ZM27.966,34.34c.008-.114.034-.224.034-.34a5,5,0,0,0-.1-1h5.976a14.893,14.893,0,0,0,.868,2H28.775ZM23,37a3,3,0,1,1,3-3A3,3,0,0,1,23,37Zm8-22h6v2.836A14.942,14.942,0,0,0,33.3,31H31ZM19,19h6V29.424A4.942,4.942,0,0,0,19.026,31H19ZM7,23h6v8H7ZM3,33H18.1a5,5,0,0,0-.1,1c0,.116.026.226.034.34l-.81.66H3Zm2.316,4h9.453L7.06,43.28ZM5.293,48.707a1,1,0,0,1-.029-1.383L18.651,36.418a4.983,4.983,0,0,0,1.293,1.51L6.783,48.639l-.076.068a1.014,1.014,0,0,1-1.414,0ZM16,55H14V50a1,1,0,0,1,2,0Zm8,0H22V46a1,1,0,0,1,2,0Zm8,0H30V50a1,1,0,0,1,2,0Zm3.354,0H34V50a3,3,0,0,0-6,0v5H26V46a3,3,0,0,0-6,0v9H18V50a3,3,0,0,0-6,0v5H10.646a1,1,0,0,1-.98-.808l-.9-4.588L21.94,38.881a4.781,4.781,0,0,0,2.12,0L37.235,49.6l-.9,4.589A1,1,0,0,1,35.354,55ZM41,48a.983.983,0,0,1-.293.707,1.014,1.014,0,0,1-1.414,0L26.056,37.928a5.007,5.007,0,0,0,1.293-1.51L40.736,47.324A.978.978,0,0,1,41,48Zm-2.062-4.716L31.229,37h4.8a15.1,15.1,0,0,0,3.685,3.492ZM48,43a14.99,14.99,0,0,0,2-.149V44a1,1,0,0,1-1,1H47a1,1,0,0,1-1-1V42.851A14.99,14.99,0,0,0,48,43Zm3,15a3,3,0,0,1-6,0V48a1,1,0,0,1,1-1h4a1,1,0,0,1,1,1Z"/>
        <path id="Trazado_994814" data-name="Trazado 994814" d="M16,9.414l6,6,11-11V9h2V1H27V3h4.587L22,12.586l-6-6L4.293,18.293l1.414,1.414Z"/>
        <path id="Trazado_994815" data-name="Trazado 994815" d="M53,27h2v2H53Z"/>
        <path id="Trazado_994816" data-name="Trazado 994816" d="M41,27h2v2H41Z"/>
        <path id="Trazado_994817" data-name="Trazado 994817" d="M45,27h2v2H45Z"/>
        <path id="Trazado_994818" data-name="Trazado 994818" d="M49,27h2v2H49Z"/>
      </g>
    </g>
  </g>
</svg>
