<svg xmlns="http://www.w3.org/2000/svg" xmlns:xlink="http://www.w3.org/1999/xlink" width="110" height="110" viewBox="0 0 110 110">
  <defs>
    <filter id="Trazado_982547" x="0" y="0" width="110" height="110" filterUnits="userSpaceOnUse">
      <feOffset dy="3" input="SourceAlpha"/>
      <feGaussianBlur stdDeviation="3" result="blur"/>
      <feFlood flood-opacity="0.161"/>
      <feComposite operator="in" in2="blur"/>
      <feComposite in="SourceGraphic"/>
    </filter>
  </defs>
  <g id="Grupo_1160681" data-name="Grupo 1160681" transform="translate(-1509.805 -2297.673)">
    <g id="Grupo_1158893" data-name="Grupo 1158893" transform="translate(393.805 -1508.327)">
      <g id="Grupo_1157406" data-name="Grupo 1157406" transform="translate(1 3016)">
        <g id="Grupo_1155793" data-name="Grupo 1155793" transform="translate(-0.999 -3894)">
          <g id="Grupo_1154704" data-name="Grupo 1154704" transform="translate(0 1466)">
            <g id="Grupo_1150790" data-name="Grupo 1150790" transform="translate(3 2320)">
              <g id="Grupo_1154214" data-name="Grupo 1154214" transform="translate(79 -5809)">
                <g id="Grupo_1152583" data-name="Grupo 1152583" transform="translate(1043 6713)">
                  <g id="Grupo_1146973" data-name="Grupo 1146973" transform="translate(0 0)">
                    <g id="Grupo_1146954" data-name="Grupo 1146954">
                      <g transform="matrix(1, 0, 0, 1, -9, -6)" filter="url(#Trazado_982547)">
                        <g id="Trazado_982547-2" data-name="Trazado 982547" transform="translate(9 6)" fill="#f5e9fe">
                          <path d="M 46 90.49987030029297 C 39.99187850952148 90.49987030029297 34.16426849365234 89.32350921630859 28.67905426025391 87.00345611572266 C 23.38019943237305 84.76224517822266 18.62104034423828 81.55341339111328 14.53374671936035 77.46613311767578 C 10.44646644592285 73.37885284423828 7.237639904022217 68.61969757080078 4.996413230895996 63.32085418701172 C 2.676359891891479 57.83565521240234 1.5 52.008056640625 1.5 45.99993515014648 C 1.5 39.99181365966797 2.676359891891479 34.16421508789062 4.996413230895996 28.67901420593262 C 7.237639904022217 23.38017463684082 10.44646644592285 18.62101554870605 14.53374671936035 14.53373527526855 C 18.62104034423828 10.44645500183105 23.38019943237305 7.23762845993042 28.67905426025391 4.996415138244629 C 34.16426849365234 2.676361799240112 39.99187850952148 1.500001788139343 46 1.500001788139343 C 52.00812149047852 1.500001788139343 57.83573150634766 2.676361799240112 63.32094573974609 4.996415138244629 C 68.61979675292969 7.23762845993042 73.37895965576172 10.44645500183105 77.46625518798828 14.53373527526855 C 81.55353546142578 18.62101554870605 84.76235961914062 23.38017463684082 87.00358581542969 28.67901420593262 C 89.32363891601562 34.16421508789062 90.5 39.99181365966797 90.5 45.99993515014648 C 90.5 52.008056640625 89.32363891601562 57.83565521240234 87.00358581542969 63.32085418701172 C 84.76235961914062 68.61969757080078 81.55353546142578 73.37885284423828 77.46625518798828 77.46613311767578 C 73.37895965576172 81.55341339111328 68.61979675292969 84.76224517822266 63.32094573974609 87.00345611572266 C 57.83573150634766 89.32350921630859 52.00812149047852 90.49987030029297 46 90.49987030029297 Z" stroke="none"/>
                          <path d="M 46 2.999992370605469 C 40.1937141418457 2.999992370605469 34.56269836425781 4.136489868164062 29.26337051391602 6.377906799316406 C 24.14332580566406 8.543502807617188 19.54441070556641 11.64437866210938 15.59439849853516 15.59437561035156 C 11.64440155029297 19.54439544677734 8.54351806640625 24.14329528808594 6.377914428710938 29.26333618164062 C 4.136497497558594 34.56264877319336 3 40.19366455078125 3 45.99993515014648 C 3 51.80620574951172 4.136497497558594 57.43720626831055 6.377914428710938 62.73651885986328 C 8.54351806640625 67.8565673828125 11.64440155029297 72.45545959472656 15.59439849853516 76.40547943115234 C 19.54441070556641 80.35547637939453 24.14332580566406 83.45635223388672 29.26337051391602 85.6219482421875 C 34.56269836425781 87.86336517333984 40.1937141418457 88.99986267089844 46 88.99986267089844 C 51.8062858581543 88.99986267089844 57.43730163574219 87.86336517333984 62.73661422729492 85.6219482421875 C 67.85667419433594 83.45635223388672 72.45557403564453 80.35547637939453 76.40558624267578 76.40547943115234 C 80.35559844970703 72.45545959472656 83.45647430419922 67.8565673828125 85.6220703125 62.73651885986328 C 87.86350250244141 57.43720626831055 89 51.80620574951172 89 45.99993515014648 C 89 40.19366455078125 87.86350250244141 34.56264877319336 85.6220703125 29.26333618164062 C 83.45647430419922 24.14329528808594 80.35559844970703 19.54439544677734 76.40558624267578 15.59437561035156 C 72.45557403564453 11.64437866210938 67.85667419433594 8.543502807617188 62.73661422729492 6.377906799316406 C 57.43730163574219 4.136489868164062 51.8062858581543 2.999992370605469 46 2.999992370605469 M 46 -7.62939453125e-06 C 71.40509033203125 -7.62939453125e-06 92 20.59486389160156 92 45.99993515014648 C 92 71.40499114990234 71.40509033203125 91.99986267089844 46 91.99986267089844 C 20.59490203857422 91.99986267089844 0 71.40499114990234 0 45.99993515014648 C 0 20.59486389160156 20.59490203857422 -7.62939453125e-06 46 -7.62939453125e-06 Z" stroke="none" fill="#a530fe"/>
                        </g>
                      </g>
                    </g>
                  </g>
                </g>
              </g>
            </g>
          </g>
        </g>
      </g>
    </g>
    <g id="Page-1" transform="translate(1534.682 2319.649)">
      <g id="_002---Launch" data-name="002---Launch">
        <rect id="Rectangle-path" width="9" height="22" rx="2" transform="translate(1 37)" fill="#00bcd4"/>
        <path id="Shape" d="M8,37H5a2.006,2.006,0,0,1,2,2V57a2.006,2.006,0,0,1-2,2H8a2.006,2.006,0,0,0,2-2V39A2.006,2.006,0,0,0,8,37Z" fill="#00838f"/>
        <path id="Shape-2" data-name="Shape" d="M57.68,45.57S43.53,52.46,38.94,55c-1.12.62-4.66,1-5.94,1L10,57V39h2.8a9.159,9.159,0,0,1,5.7,2,9.159,9.159,0,0,0,5.7,2h5.23a4.989,4.989,0,0,1,4.29,2.43l.09.15a3.553,3.553,0,0,1,.46,2.39h1.58a3.933,3.933,0,0,0,1.27-.21l18.27-7.14a2.755,2.755,0,0,1,3.06.96v.01a2.73,2.73,0,0,1-.77,3.98Z" fill="#ffe0b2"/>
        <path id="Shape-3" data-name="Shape" d="M58.45,41.59v-.01a2.755,2.755,0,0,0-3.06-.96l-.7.276a2.747,2.747,0,0,1,.765.684v.01a2.73,2.73,0,0,1-.77,3.98S40.53,52.46,35.94,55c-1.12.62-4.66,1-5.94,1l-20,.87V57l23-1c1.28,0,4.82-.38,5.94-1,4.59-2.54,18.74-9.43,18.74-9.43a2.73,2.73,0,0,0,.77-3.98Z" fill="#dfc49c"/>
        <path id="Shape-4" data-name="Shape" d="M30.72,45.43l.09.15a3.553,3.553,0,0,1,.46,2.39h1.58a3.933,3.933,0,0,0,1.27-.21l.17-.067a3.543,3.543,0,0,0-.48-2.113l-.09-.15A4.989,4.989,0,0,0,29.43,43h-3a4.989,4.989,0,0,1,4.29,2.43Z" fill="#dfc49c"/>
        <path id="Shape-5" data-name="Shape" d="M15.5,41a9.159,9.159,0,0,0,5.7,2h3a9.159,9.159,0,0,1-5.7-2,9.159,9.159,0,0,0-5.7-2H10v.009A9.158,9.158,0,0,1,15.5,41Z" fill="#dfc49c"/>
        <path id="Shape-6" data-name="Shape" d="M44.74,22.37a31.5,31.5,0,0,1-2.93,9.99c-.24.49-.45.87-.61,1.14a1,1,0,0,1-.87.5H39V27a2,2,0,0,0-4,0v7H33.67a1,1,0,0,1-.87-.5c-.16-.27-.37-.65-.61-1.14a31.5,31.5,0,0,1-2.93-9.99,33.318,33.318,0,0,1-.05-7.89,18.966,18.966,0,0,1,1.97-6.32A9.135,9.135,0,0,0,37,10a9.135,9.135,0,0,0,5.82-1.84,18.966,18.966,0,0,1,1.97,6.32A33.318,33.318,0,0,1,44.74,22.37Z" fill="#f44335"/>
        <path id="Shape-7" data-name="Shape" d="M35.41,25.59A1.955,1.955,0,0,0,34,25a2.006,2.006,0,0,0-2,2v4.959c.064.134.13.28.19.4.24.49.45.87.61,1.14a1,1,0,0,0,.87.5H35V27a1.979,1.979,0,0,1,.5-1.3A1.294,1.294,0,0,0,35.41,25.59Z" fill="#c81e1e"/>
        <path id="Shape-8" data-name="Shape" d="M34,10a10.9,10.9,0,0,0,1.5-.11,8.721,8.721,0,0,1-4.32-1.73c-.209.417-.4.849-.589,1.287A10.366,10.366,0,0,0,34,10Z" fill="#c81e1e"/>
        <path id="Shape-9" data-name="Shape" d="M44.79,14.48a18.966,18.966,0,0,0-1.97-6.32,7.963,7.963,0,0,1-2.411,1.287A17.968,17.968,0,0,1,41.79,14.48a33.318,33.318,0,0,1-.05,7.89A31.6,31.6,0,0,1,39,31.959V34h1.33a1,1,0,0,0,.87-.5c.16-.27.37-.65.61-1.14a31.5,31.5,0,0,0,2.93-9.99,33.318,33.318,0,0,0,.05-7.89Z" fill="#c81e1e"/>
        <path id="Shape-10" data-name="Shape" d="M42.82,8.16a7.872,7.872,0,0,1-2.4,1.3A10.744,10.744,0,0,1,37,10a9.135,9.135,0,0,1-5.82-1.84A30.875,30.875,0,0,1,35.5,1.77a1.063,1.063,0,0,1,.09-.11,1.836,1.836,0,0,1,2.82,0A31.3,31.3,0,0,1,42.82,8.16Z" fill="#ffdc00"/>
        <path id="Shape-11" data-name="Shape" d="M42.82,8.16a7.872,7.872,0,0,1-2.4,1.3A29.81,29.81,0,0,0,35.5,1.77a1.063,1.063,0,0,1,.09-.11,1.836,1.836,0,0,1,2.82,0A31.3,31.3,0,0,1,42.82,8.16Z" fill="#fec108"/>
        <circle id="Oval" cx="3" cy="3" r="3" transform="translate(34 15)" fill="#00bcd4"/>
        <path id="Shape-12" data-name="Shape" d="M32.19,32.36l-2.63.52a2.034,2.034,0,0,0-1.03.55l-2.22,2.2a1.014,1.014,0,0,1-1.71-.55l-.56-3.35a2.945,2.945,0,0,1,.12-1.44l1.49-4.45a3.055,3.055,0,0,1,.98-1.39l2.63-2.08a31.5,31.5,0,0,0,2.93,9.99Z" fill="#9e9e9e"/>
        <path id="Shape-13" data-name="Shape" d="M49.96,31.73l-.56,3.35a1.014,1.014,0,0,1-1.71.55l-2.22-2.2a2.034,2.034,0,0,0-1.03-.55l-2.63-.52a31.5,31.5,0,0,0,2.93-9.99l2.63,2.08a3.055,3.055,0,0,1,.98,1.39l1.49,4.45a2.945,2.945,0,0,1,.12,1.44Z" fill="#9e9e9e"/>
        <path id="Shape-14" data-name="Shape" d="M49.84,30.29l-1.49-4.45a3.055,3.055,0,0,0-.98-1.39l-2.63-2.08c-.091.738-.21,1.435-.339,2.113a3.048,3.048,0,0,1,.949,1.357l1.49,4.45a2.945,2.945,0,0,1,.12,1.44l-.46,2.725,1.19,1.175a1.014,1.014,0,0,0,1.71-.55l.56-3.35a2.945,2.945,0,0,0-.12-1.44Z" fill="#707070"/>
        <path id="Shape-15" data-name="Shape" d="M39,27v9a1,1,0,0,1-1,1H36a1,1,0,0,1-1-1V27a2,2,0,0,1,4,0Z" fill="#9e9e9e"/>
        <g id="Grupo_1160680" data-name="Grupo 1160680">
          <path id="Shape-16" data-name="Shape" d="M3,60H8a3,3,0,0,0,2.827-2.035L33,57c1.21,0,5.019-.346,6.424-1.125,4.512-2.5,18.556-9.338,18.78-9.451a3.743,3.743,0,0,0-3.179-6.731L36.8,46.812a2.992,2.992,0,0,1-.948.153h-.579a4.577,4.577,0,0,0-.607-1.9l-.089-.148A6.019,6.019,0,0,0,29.43,42H24.2a8.188,8.188,0,0,1-5.077-1.782A10.2,10.2,0,0,0,12.8,38H10.816A3,3,0,0,0,8,36H3a3,3,0,0,0-3,3V57a3,3,0,0,0,3,3ZM17.877,41.782A10.2,10.2,0,0,0,24.2,44h5.23a4.009,4.009,0,0,1,3.432,1.944l.089.147a2.592,2.592,0,0,1,.323.874H26.965a9.972,9.972,0,0,0-5.548,1.68l-.732.488A1,1,0,0,0,21.8,50.8l.732-.488a7.977,7.977,0,0,1,4.438-1.344h8.889a5.012,5.012,0,0,0,1.628-.274l18.224-7.118a1.741,1.741,0,0,1,1.946.612,1.718,1.718,0,0,1,.316,1.374,1.7,1.7,0,0,1-.721,1.111c-.58.282-14.234,6.927-18.792,9.455a18.866,18.866,0,0,1-5.5.876L11,55.956V40h1.8a8.188,8.188,0,0,1,5.077,1.782ZM2,39a1,1,0,0,1,1-1H8a1,1,0,0,1,1,1V57a1,1,0,0,1-1,1H3a1,1,0,0,1-1-1Z"/>
          <path id="Shape-17" data-name="Shape" d="M37,22a4,4,0,1,0-4-4A4,4,0,0,0,37,22Zm0-6a2,2,0,1,1-2,2A2,2,0,0,1,37,16Z"/>
          <path id="Shape-18" data-name="Shape" d="M23.615,35.25a2.006,2.006,0,0,0,1.366,1.574,2.041,2.041,0,0,0,.62.1,2.013,2.013,0,0,0,1.413-.581l2.223-2.2a1.021,1.021,0,0,1,.517-.276l1.9-.375c.1.2.2.373.285.516a2.013,2.013,0,0,0,1.735,1H34v1a2,2,0,0,0,2,2h2a2,2,0,0,0,2-2V35h.33a2.014,2.014,0,0,0,1.737-1c.082-.143.178-.318.283-.512l1.889.373a1.029,1.029,0,0,1,.527.282l2.223,2.2a2.006,2.006,0,0,0,1.41.578,2.041,2.041,0,0,0,.62-.1,2.009,2.009,0,0,0,1.367-1.579l.56-3.35a3.957,3.957,0,0,0-.158-1.922L49.3,25.513A4.051,4.051,0,0,0,48,23.666l-2.2-1.739a34.486,34.486,0,0,0-.008-7.557C45.145,8.573,41.36,3.505,39.163,1a2.929,2.929,0,0,0-4.325,0c-2.2,2.505-5.983,7.573-6.622,13.369a34.43,34.43,0,0,0-.007,7.558l-2.2,1.742a4.061,4.061,0,0,0-1.3,1.853l-1.488,4.445a3.964,3.964,0,0,0-.16,1.928ZM36,36V27a1,1,0,0,1,2,0v9ZM46.745,25.231a2.054,2.054,0,0,1,.657.926l1.492,4.456a1.943,1.943,0,0,1,.08.952l-.58,3.354-2.217-2.2a3.021,3.021,0,0,0-1.543-.824l-1.386-.274a33.013,33.013,0,0,0,2.218-7.406ZM36.343,2.318a.856.856,0,0,1,1.316,0,30.874,30.874,0,0,1,3.878,5.516,9.417,9.417,0,0,1-9.074,0,30.88,30.88,0,0,1,3.88-5.518ZM30.2,14.589a17.215,17.215,0,0,1,1.379-4.952A10.668,10.668,0,0,0,37,11a10.668,10.668,0,0,0,5.417-1.363A17.228,17.228,0,0,1,43.8,14.591,31,31,0,0,1,40.33,33H40V27a3,3,0,0,0-6,0v6h-.333A31.043,31.043,0,0,1,30.2,14.589ZM25.1,30.607l1.487-4.44a2.061,2.061,0,0,1,.655-.933l1.284-1.015a32.994,32.994,0,0,0,2.218,7.406l-1.393.275a3.016,3.016,0,0,0-1.533.82l-2.24,2.2-.56-3.35a1.95,1.95,0,0,1,.09-.963Z"/>
          <path id="Shape-19" data-name="Shape" d="M38,40a1,1,0,0,0-2,0v1a1,1,0,0,0,2,0Z"/>
          <circle id="Oval-2" data-name="Oval" cx="1" cy="1" r="1" transform="translate(36 43)"/>
          <path id="Shape-20" data-name="Shape" d="M31,35a1,1,0,0,0-1,1v3a1,1,0,0,0,2,0V36A1,1,0,0,0,31,35Z"/>
          <path id="Shape-21" data-name="Shape" d="M42,36v3a1,1,0,0,0,2,0V36a1,1,0,0,0-2,0Z"/>
        </g>
      </g>
    </g>
  </g>
</svg>
