<svg xmlns="http://www.w3.org/2000/svg" xmlns:xlink="http://www.w3.org/1999/xlink" width="110" height="110" viewBox="0 0 110 110">
  <defs>
    <filter id="Trazado_982547" x="0" y="0" width="110" height="110" filterUnits="userSpaceOnUse">
      <feOffset dy="3" input="SourceAlpha"/>
      <feGaussianBlur stdDeviation="3" result="blur"/>
      <feFlood flood-opacity="0.161"/>
      <feComposite operator="in" in2="blur"/>
      <feComposite in="SourceGraphic"/>
    </filter>
  </defs>
  <g id="Grupo_1160793" data-name="Grupo 1160793" transform="translate(-1112 -3669)">
    <g id="Grupo_1158944" data-name="Grupo 1158944" transform="translate(-4 -137)">
      <g id="Grupo_1157406" data-name="Grupo 1157406" transform="translate(1 3016)">
        <g id="Grupo_1155793" data-name="Grupo 1155793" transform="translate(-0.999 -3894)">
          <g id="Grupo_1154704" data-name="Grupo 1154704" transform="translate(0 1466)">
            <g id="Grupo_1150790" data-name="Grupo 1150790" transform="translate(3 2320)">
              <g id="Grupo_1154214" data-name="Grupo 1154214" transform="translate(79 -5809)">
                <g id="Grupo_1152583" data-name="Grupo 1152583" transform="translate(1043 6713)">
                  <g id="Grupo_1146973" data-name="Grupo 1146973" transform="translate(0 0)">
                    <g id="Grupo_1146954" data-name="Grupo 1146954">
                      <g transform="matrix(1, 0, 0, 1, -9, -6)" filter="url(#Trazado_982547)">
                        <g id="Trazado_982547-2" data-name="Trazado 982547" transform="translate(9 6)" fill="#f5e9fe">
                          <path d="M 46 90.49987030029297 C 39.99187850952148 90.49987030029297 34.16426849365234 89.32350921630859 28.67905426025391 87.00345611572266 C 23.38019943237305 84.76224517822266 18.62104034423828 81.55341339111328 14.53374671936035 77.46613311767578 C 10.44646644592285 73.37885284423828 7.237639904022217 68.61969757080078 4.996413230895996 63.32085418701172 C 2.676359891891479 57.83565521240234 1.5 52.008056640625 1.5 45.99993515014648 C 1.5 39.99181365966797 2.676359891891479 34.16421508789062 4.996413230895996 28.67901420593262 C 7.237639904022217 23.38017463684082 10.44646644592285 18.62101554870605 14.53374671936035 14.53373527526855 C 18.62104034423828 10.44645500183105 23.38019943237305 7.23762845993042 28.67905426025391 4.996415138244629 C 34.16426849365234 2.676361799240112 39.99187850952148 1.500001788139343 46 1.500001788139343 C 52.00812149047852 1.500001788139343 57.83573150634766 2.676361799240112 63.32094573974609 4.996415138244629 C 68.61979675292969 7.23762845993042 73.37895965576172 10.44645500183105 77.46625518798828 14.53373527526855 C 81.55353546142578 18.62101554870605 84.76235961914062 23.38017463684082 87.00358581542969 28.67901420593262 C 89.32363891601562 34.16421508789062 90.5 39.99181365966797 90.5 45.99993515014648 C 90.5 52.008056640625 89.32363891601562 57.83565521240234 87.00358581542969 63.32085418701172 C 84.76235961914062 68.61969757080078 81.55353546142578 73.37885284423828 77.46625518798828 77.46613311767578 C 73.37895965576172 81.55341339111328 68.61979675292969 84.76224517822266 63.32094573974609 87.00345611572266 C 57.83573150634766 89.32350921630859 52.00812149047852 90.49987030029297 46 90.49987030029297 Z" stroke="none"/>
                          <path d="M 46 2.999992370605469 C 40.1937141418457 2.999992370605469 34.56269836425781 4.136489868164062 29.26337051391602 6.377906799316406 C 24.14332580566406 8.543502807617188 19.54441070556641 11.64437866210938 15.59439849853516 15.59437561035156 C 11.64440155029297 19.54439544677734 8.54351806640625 24.14329528808594 6.377914428710938 29.26333618164062 C 4.136497497558594 34.56264877319336 3 40.19366455078125 3 45.99993515014648 C 3 51.80620574951172 4.136497497558594 57.43720626831055 6.377914428710938 62.73651885986328 C 8.54351806640625 67.8565673828125 11.64440155029297 72.45545959472656 15.59439849853516 76.40547943115234 C 19.54441070556641 80.35547637939453 24.14332580566406 83.45635223388672 29.26337051391602 85.6219482421875 C 34.56269836425781 87.86336517333984 40.1937141418457 88.99986267089844 46 88.99986267089844 C 51.8062858581543 88.99986267089844 57.43730163574219 87.86336517333984 62.73661422729492 85.6219482421875 C 67.85667419433594 83.45635223388672 72.45557403564453 80.35547637939453 76.40558624267578 76.40547943115234 C 80.35559844970703 72.45545959472656 83.45647430419922 67.8565673828125 85.6220703125 62.73651885986328 C 87.86350250244141 57.43720626831055 89 51.80620574951172 89 45.99993515014648 C 89 40.19366455078125 87.86350250244141 34.56264877319336 85.6220703125 29.26333618164062 C 83.45647430419922 24.14329528808594 80.35559844970703 19.54439544677734 76.40558624267578 15.59437561035156 C 72.45557403564453 11.64437866210938 67.85667419433594 8.543502807617188 62.73661422729492 6.377906799316406 C 57.43730163574219 4.136489868164062 51.8062858581543 2.999992370605469 46 2.999992370605469 M 46 -7.62939453125e-06 C 71.40509033203125 -7.62939453125e-06 92 20.59486389160156 92 45.99993515014648 C 92 71.40499114990234 71.40509033203125 91.99986267089844 46 91.99986267089844 C 20.59490203857422 91.99986267089844 0 71.40499114990234 0 45.99993515014648 C 0 20.59486389160156 20.59490203857422 -7.62939453125e-06 46 -7.62939453125e-06 Z" stroke="none" fill="#a530fe"/>
                        </g>
                      </g>
                    </g>
                  </g>
                </g>
              </g>
            </g>
          </g>
        </g>
      </g>
    </g>
    <g id="analisis_5_" data-name="analisis (5)" transform="translate(1139 3687.442)">
      <g id="Grupo_1160791" data-name="Grupo 1160791" transform="translate(0.817 7.375)">
        <g id="Grupo_1160789" data-name="Grupo 1160789" transform="translate(0 0)">
          <path id="Trazado_994819" data-name="Trazado 994819" d="M7.5,49.109V82.8a1.493,1.493,0,0,0,1.494,1.493H53.019A1.494,1.494,0,0,0,54.512,82.8V49.109a1.494,1.494,0,0,0-1.494-1.494H8.994A1.494,1.494,0,0,0,7.5,49.109Z" transform="translate(-7.5 -43.961)" fill="#ebeef2"/>
          <path id="Trazado_994820" data-name="Trazado 994820" d="M403.393,47.616h-2.7a1.493,1.493,0,0,1,1.493,1.494V82.8a1.494,1.494,0,0,1-1.493,1.494h2.7a1.494,1.494,0,0,0,1.494-1.494V49.109A1.493,1.493,0,0,0,403.393,47.616Z" transform="translate(-357.874 -43.962)" fill="#d1d6de"/>
          <g id="Grupo_1160788" data-name="Grupo 1160788" transform="translate(10.357 8.33)">
            <g id="Grupo_1160784" data-name="Grupo 1160784" transform="translate(0 10.472)">
              <circle id="Elipse_11819" data-name="Elipse 11819" cx="1.906" cy="1.906" r="1.906" fill="#5c9cee"/>
            </g>
            <g id="Grupo_1160785" data-name="Grupo 1160785" transform="translate(7.496 6.216)">
              <circle id="Elipse_11820" data-name="Elipse 11820" cx="1.906" cy="1.906" r="1.906" fill="#f2df33"/>
            </g>
            <g id="Grupo_1160786" data-name="Grupo 1160786" transform="translate(14.991 10.472)">
              <circle id="Elipse_11821" data-name="Elipse 11821" cx="1.906" cy="1.906" r="1.906" fill="#ed5575"/>
            </g>
            <g id="Grupo_1160787" data-name="Grupo 1160787" transform="translate(22.487)">
              <circle id="Elipse_11822" data-name="Elipse 11822" cx="1.906" cy="1.906" r="1.906" fill="#9fd479"/>
            </g>
          </g>
          <path id="Trazado_994821" data-name="Trazado 994821" d="M80.428,387.079v-2.614h31.13v2.614a1.04,1.04,0,0,1-1.04,1.04H81.468A1.04,1.04,0,0,1,80.428,387.079Z" transform="translate(-72.487 -344.131)" fill="#f2df33"/>
          <path id="Trazado_994822" data-name="Trazado 994822" d="M333.547,384.465v2.614a1.04,1.04,0,0,1-1.04,1.04h2.641a1.04,1.04,0,0,0,1.04-1.04v-2.614Z" transform="translate(-297.117 -344.131)" fill="#fcab29"/>
          <path id="Trazado_994823" data-name="Trazado 994823" d="M189.243,17.711V15.289a1.232,1.232,0,0,1,1.232-1.232h4.967a1.232,1.232,0,0,1,1.232,1.232v2.422h-7.432Z" transform="translate(-169.453 -14.057)" fill="#f2df33"/>
          <path id="Trazado_994824" data-name="Trazado 994824" d="M224.415,14.058h-2.659a1.232,1.232,0,0,1,1.232,1.232v2.422h2.659V15.29A1.232,1.232,0,0,0,224.415,14.058Z" transform="translate(-198.426 -14.058)" fill="#fcab29"/>
          <rect id="Rectángulo_412966" data-name="Rectángulo 412966" width="3.313" height="7.217" transform="translate(10.606 28.422)" fill="#48cfb7"/>
          <rect id="Rectángulo_412967" data-name="Rectángulo 412967" width="3.313" height="11.39" transform="translate(18.102 24.249)" fill="#48cfb7"/>
          <rect id="Rectángulo_412968" data-name="Rectángulo 412968" width="3.313" height="7.217" transform="translate(25.597 28.422)" fill="#48cfb7"/>
          <rect id="Rectángulo_412969" data-name="Rectángulo 412969" width="3.313" height="14.644" transform="translate(33.093 20.995)" fill="#48cfb7"/>
        </g>
        <g id="Grupo_1160790" data-name="Grupo 1160790" transform="translate(32.179 15.016)">
          <path id="Trazado_994825" data-name="Trazado 994825" d="M409.456,293.349l6.08,10.53a2.288,2.288,0,0,0,3.125.837h0a2.288,2.288,0,0,0,.838-3.125l-6.08-10.53Z" transform="translate(-397.865 -275.914)" fill="#ed5575"/>
          <path id="Trazado_994826" data-name="Trazado 994826" d="M413.419,291.06l-3.963,2.288,2.37,4.1a12.459,12.459,0,0,0,3.963-2.288Z" transform="translate(-397.865 -275.913)" fill="#cc3a60"/>
          <circle id="Elipse_11823" data-name="Elipse 11823" cx="9.858" cy="9.858" r="9.858" fill="#f2df33"/>
          <circle id="Elipse_11824" data-name="Elipse 11824" cx="6.937" cy="6.937" r="6.937" transform="translate(2.92 2.92)" fill="#5c9cee"/>
        </g>
      </g>
      <g id="Grupo_1160792" data-name="Grupo 1160792" transform="translate(0 6.558)">
        <path id="Trazado_994827" data-name="Trazado 994827" d="M120.327,88.506a2.725,2.725,0,1,0-2.175-1.087l-4.473,6.25a2.715,2.715,0,0,0-2.7.595L108,92.572a2.722,2.722,0,1,0-5.322,0l-2.981,1.692a2.718,2.718,0,1,0,.808,1.419l2.981-1.692a2.715,2.715,0,0,0,3.706,0l2.981,1.692a2.722,2.722,0,1,0,4.836-1.063l4.473-6.25A2.714,2.714,0,0,0,120.327,88.506Zm0-3.811a1.089,1.089,0,1,1-1.089,1.089A1.09,1.09,0,0,1,120.327,84.694ZM97.84,97.344a1.089,1.089,0,1,1,1.089-1.089A1.09,1.09,0,0,1,97.84,97.344Zm7.5-4.256A1.089,1.089,0,1,1,106.424,92,1.09,1.09,0,0,1,105.336,93.088Zm7.5,4.256a1.089,1.089,0,1,1,1.089-1.089A1.09,1.09,0,0,1,112.831,97.344Z" transform="translate(-84.761 -74.731)"/>
        <path id="Trazado_994828" data-name="Trazado 994828" d="M45.6,76.8H2.31a.678.678,0,0,1-.677-.677V42.426a.678.678,0,0,1,.677-.677H6.16a.817.817,0,0,0,0-1.633H2.31A2.313,2.313,0,0,0,0,42.426V76.119a2.313,2.313,0,0,0,2.31,2.31H7.941v1.8A1.859,1.859,0,0,0,9.8,82.083h8.175L14.125,89.6a.817.817,0,1,0,1.454.745l4.23-8.258h9.029l4.23,8.258a.817.817,0,1,0,1.454-.745l-3.848-7.513h8.175A1.859,1.859,0,0,0,40.7,80.226v-1.8h4.9a.817.817,0,1,0,0-1.633Zm-6.532,3.431a.224.224,0,0,1-.224.224H9.8a.224.224,0,0,1-.224-.224v-1.8h29.5Z" transform="translate(0 -36.462)"/>
        <path id="Trazado_994829" data-name="Trazado 994829" d="M79.888,11.846H116.8a.678.678,0,0,1,.677.677v7.765a.817.817,0,0,0,1.633,0V12.522a2.313,2.313,0,0,0-2.31-2.31H99.316V8.607a2.051,2.051,0,0,0-2.049-2.049H92.3a2.051,2.051,0,0,0-2.049,2.049v1.605H79.888a.817.817,0,1,0,0,1.633Zm12-3.239a.416.416,0,0,1,.416-.416h4.967a.416.416,0,0,1,.416.416v1.605h-5.8V8.607Z" transform="translate(-70.461 -6.558)"/>
        <path id="Trazado_994830" data-name="Trazado 994830" d="M98.219,267.576a.817.817,0,0,0-.817.817v7.216a.817.817,0,0,0,.817.817h3.313a.817.817,0,0,0,.817-.817v-7.216a.817.817,0,0,0-.817-.817Zm2.5,7.217h-1.68v-5.583h1.68Z" transform="translate(-86.796 -239.154)"/>
        <path id="Trazado_994831" data-name="Trazado 994831" d="M167.054,229.248a.817.817,0,0,0-.817.817v11.39a.817.817,0,0,0,.817.817h3.313a.817.817,0,0,0,.817-.817v-11.39a.817.817,0,0,0-.817-.817Zm2.5,11.39h-1.68v-9.757h1.68Z" transform="translate(-148.135 -204.999)"/>
        <path id="Trazado_994832" data-name="Trazado 994832" d="M235.89,267.576a.817.817,0,0,0-.817.817v7.216a.817.817,0,0,0,.817.817H239.2a.817.817,0,0,0,.817-.817v-7.216a.817.817,0,0,0-.817-.817Zm2.5,7.217h-1.68v-5.583h1.68Z" transform="translate(-209.476 -239.154)"/>
        <path id="Trazado_994833" data-name="Trazado 994833" d="M304.726,311.832a.817.817,0,0,0-.817.817v2.4a.817.817,0,0,0,.817.817h3.313a.817.817,0,0,0,0-1.633h-2.5v-1.581A.817.817,0,0,0,304.726,311.832Z" transform="translate(-270.816 -278.591)"/>
        <path id="Trazado_994834" data-name="Trazado 994834" d="M318.688,170.558,314,162.443a10.68,10.68,0,1,0-10.56,3.014,10.733,10.733,0,0,0,2.78.368,10.54,10.54,0,0,0,2.4-.278l4.684,8.115a3.1,3.1,0,1,0,5.377-3.1Zm-14.823-6.679a9.041,9.041,0,1,1,6.86-.9A8.982,8.982,0,0,1,303.865,163.879Zm12.87,9.505a1.473,1.473,0,0,1-2.01-.538l-4.507-7.808a10.722,10.722,0,0,0,2.547-1.472l4.508,7.808a1.47,1.47,0,0,1-.538,2.01Z" transform="translate(-263.352 -129.456)"/>
        <path id="Trazado_994835" data-name="Trazado 994835" d="M337.462,181.3a7.729,7.729,0,0,0-.387-5.6.817.817,0,1,0-1.478.7,6.117,6.117,0,1,1-1.844-2.279.817.817,0,1,0,.985-1.3,7.755,7.755,0,1,0,2.723,8.484Z" transform="translate(-287.205 -153.309)"/>
      </g>
    </g>
  </g>
</svg>
