<svg xmlns="http://www.w3.org/2000/svg" xmlns:xlink="http://www.w3.org/1999/xlink" width="110" height="110" viewBox="0 0 110 110">
  <defs>
    <filter id="Trazado_982547" x="0" y="0" width="110" height="110" filterUnits="userSpaceOnUse">
      <feOffset dy="3" input="SourceAlpha"/>
      <feGaussianBlur stdDeviation="3" result="blur"/>
      <feFlood flood-opacity="0.161"/>
      <feComposite operator="in" in2="blur"/>
      <feComposite in="SourceGraphic"/>
    </filter>
  </defs>
  <g id="Grupo_1160800" data-name="Grupo 1160800" transform="translate(-4840 -4000)">
    <g id="Grupo_1158948" data-name="Grupo 1158948" transform="translate(4039 195)">
      <g id="Grupo_1157405" data-name="Grupo 1157405" transform="translate(1 3016)">
        <g id="Grupo_1155792" data-name="Grupo 1155792" transform="translate(-1 -3894.666)">
          <g id="Grupo_1154703" data-name="Grupo 1154703" transform="translate(0 1465.666)">
            <g id="Grupo_1150789" data-name="Grupo 1150789" transform="translate(3 2320)">
              <g id="Grupo_1154212" data-name="Grupo 1154212" transform="translate(-236 -5809)">
                <g id="Grupo_1152583" data-name="Grupo 1152583" transform="translate(1043 6713)">
                  <g id="Grupo_1146973" data-name="Grupo 1146973" transform="translate(0 0)">
                    <g id="Grupo_1146954" data-name="Grupo 1146954">
                      <g transform="matrix(1, 0, 0, 1, -9, -6)" filter="url(#Trazado_982547)">
                        <g id="Trazado_982547-2" data-name="Trazado 982547" transform="translate(9 6)" fill="#f5e9fe">
                          <path d="M 46 90.49987030029297 C 39.99187850952148 90.49987030029297 34.16426849365234 89.32350921630859 28.67905426025391 87.00345611572266 C 23.38019943237305 84.76224517822266 18.62104034423828 81.55341339111328 14.53374671936035 77.46613311767578 C 10.44646644592285 73.37885284423828 7.237639904022217 68.61969757080078 4.996413230895996 63.32085418701172 C 2.676359891891479 57.83565521240234 1.5 52.008056640625 1.5 45.99993515014648 C 1.5 39.99181365966797 2.676359891891479 34.16421508789062 4.996413230895996 28.67901420593262 C 7.237639904022217 23.38017463684082 10.44646644592285 18.62101554870605 14.53374671936035 14.53373527526855 C 18.62104034423828 10.44645500183105 23.38019943237305 7.23762845993042 28.67905426025391 4.996415138244629 C 34.16426849365234 2.676361799240112 39.99187850952148 1.500001788139343 46 1.500001788139343 C 52.00812149047852 1.500001788139343 57.83573150634766 2.676361799240112 63.32094573974609 4.996415138244629 C 68.61979675292969 7.23762845993042 73.37895965576172 10.44645500183105 77.46625518798828 14.53373527526855 C 81.55353546142578 18.62101554870605 84.76235961914062 23.38017463684082 87.00358581542969 28.67901420593262 C 89.32363891601562 34.16421508789062 90.5 39.99181365966797 90.5 45.99993515014648 C 90.5 52.008056640625 89.32363891601562 57.83565521240234 87.00358581542969 63.32085418701172 C 84.76235961914062 68.61969757080078 81.55353546142578 73.37885284423828 77.46625518798828 77.46613311767578 C 73.37895965576172 81.55341339111328 68.61979675292969 84.76224517822266 63.32094573974609 87.00345611572266 C 57.83573150634766 89.32350921630859 52.00812149047852 90.49987030029297 46 90.49987030029297 Z" stroke="none"/>
                          <path d="M 46 2.999992370605469 C 40.1937141418457 2.999992370605469 34.56269836425781 4.136489868164062 29.26337051391602 6.377906799316406 C 24.14332580566406 8.543502807617188 19.54441070556641 11.64437866210938 15.59439849853516 15.59437561035156 C 11.64440155029297 19.54439544677734 8.54351806640625 24.14329528808594 6.377914428710938 29.26333618164062 C 4.136497497558594 34.56264877319336 3 40.19366455078125 3 45.99993515014648 C 3 51.80620574951172 4.136497497558594 57.43720626831055 6.377914428710938 62.73651885986328 C 8.54351806640625 67.8565673828125 11.64440155029297 72.45545959472656 15.59439849853516 76.40547943115234 C 19.54441070556641 80.35547637939453 24.14332580566406 83.45635223388672 29.26337051391602 85.6219482421875 C 34.56269836425781 87.86336517333984 40.1937141418457 88.99986267089844 46 88.99986267089844 C 51.8062858581543 88.99986267089844 57.43730163574219 87.86336517333984 62.73661422729492 85.6219482421875 C 67.85667419433594 83.45635223388672 72.45557403564453 80.35547637939453 76.40558624267578 76.40547943115234 C 80.35559844970703 72.45545959472656 83.45647430419922 67.8565673828125 85.6220703125 62.73651885986328 C 87.86350250244141 57.43720626831055 89 51.80620574951172 89 45.99993515014648 C 89 40.19366455078125 87.86350250244141 34.56264877319336 85.6220703125 29.26333618164062 C 83.45647430419922 24.14329528808594 80.35559844970703 19.54439544677734 76.40558624267578 15.59437561035156 C 72.45557403564453 11.64437866210938 67.85667419433594 8.543502807617188 62.73661422729492 6.377906799316406 C 57.43730163574219 4.136489868164062 51.8062858581543 2.999992370605469 46 2.999992370605469 M 46 -7.62939453125e-06 C 71.40509033203125 -7.62939453125e-06 92 20.59486389160156 92 45.99993515014648 C 92 71.40499114990234 71.40509033203125 91.99986267089844 46 91.99986267089844 C 20.59490203857422 91.99986267089844 0 71.40499114990234 0 45.99993515014648 C 0 20.59486389160156 20.59490203857422 -7.62939453125e-06 46 -7.62939453125e-06 Z" stroke="none" fill="#a530fe"/>
                        </g>
                      </g>
                    </g>
                  </g>
                </g>
              </g>
            </g>
          </g>
        </g>
      </g>
    </g>
    <g id="presupuesto_1_" data-name="presupuesto (1)" transform="translate(4864.451 4022)">
      <path id="Trazado_994935" data-name="Trazado 994935" d="M141.5,18.241V53.784c0,.071,0,.142,0,.213a4.589,4.589,0,0,1-4.584,4.375h-25.8a4.589,4.589,0,0,1-4.589-4.588V12.633a4.582,4.582,0,0,1,4.589-4.589H131.6A4.574,4.574,0,0,1,133.6,8.5c1.24.6,1.589,1.351,3.817,3.629,2.563,2.783,3.175,3.068,3.7,4.273A4.538,4.538,0,0,1,141.5,18.241Z" transform="translate(-93.507 -7.098)" fill="#ffc477"/>
      <path id="Trazado_994936" data-name="Trazado 994936" d="M168.113,18.241V53.783c0,.071,0,.142,0,.213a4.6,4.6,0,0,1-1.036.117h-25.8a4.589,4.589,0,0,1-4.589-4.588V8.374c0-.072,0-.143,0-.214a4.61,4.61,0,0,1,1.036-.117h20.492A4.6,4.6,0,0,1,161.571,9.5l2.457,2.628,2.813,2.943a4.618,4.618,0,0,1,1.273,3.17Z" transform="translate(-120.121 -7.097)" fill="#ffdaaa"/>
      <path id="Trazado_994937" data-name="Trazado 994937" d="M280.236,181.381v25.8a6.485,6.485,0,0,1-6.485,6.485H256.9a6.485,6.485,0,0,1-6.485-6.485v-25.8A6.482,6.482,0,0,1,256.9,174.9h16.852A6.484,6.484,0,0,1,280.236,181.381Z" transform="translate(-220.471 -154.321)" fill="#4cba68"/>
      <path id="Trazado_994938" data-name="Trazado 994938" d="M300.346,181.381v25.8a6.45,6.45,0,0,1-1.256,3.836,6.458,6.458,0,0,1-2.548.52H279.691a6.485,6.485,0,0,1-6.485-6.485v-25.8a6.451,6.451,0,0,1,1.256-3.836,6.458,6.458,0,0,1,2.548-.52h16.852A6.484,6.484,0,0,1,300.346,181.381Z" transform="translate(-240.581 -154.321)" fill="#7ccc92"/>
      <path id="Trazado_994939" data-name="Trazado 994939" d="M361.009,366.939v3.03a.969.969,0,0,1-.969.97h-3.031a.97.97,0,0,1-.97-.97v-3.03a.97.97,0,0,1,.97-.97h3.031A.969.969,0,0,1,361.009,366.939Z" transform="translate(-313.67 -322.916)" fill="#2c733f"/>
      <path id="Trazado_994940" data-name="Trazado 994940" d="M309.205,209.169v3.247a2.091,2.091,0,0,1-2.091,2.091H290.388a2.092,2.092,0,0,1-2.091-2.091v-3.247a2.092,2.092,0,0,1,2.091-2.091h16.726A2.091,2.091,0,0,1,309.205,209.169Z" transform="translate(-253.897 -182.717)" fill="#1e81ce"/>
      <path id="Trazado_994941" data-name="Trazado 994941" d="M335.818,209.169v3.247a2.091,2.091,0,0,1-2.091,2.091H320.549a2.092,2.092,0,0,1-2.091-2.091v-3.247a2.092,2.092,0,0,1,2.091-2.091h13.178A2.091,2.091,0,0,1,335.818,209.169Z" transform="translate(-280.51 -182.717)" fill="#3d9ae2"/>
      <g id="Grupo_1160796" data-name="Grupo 1160796" transform="translate(34.4 35.129)">
        <path id="Trazado_994942" data-name="Trazado 994942" d="M293.268,366.939v3.03a.97.97,0,0,1-.97.97h-3.031a.97.97,0,0,1-.97-.97v-3.03a.97.97,0,0,1,.97-.97H292.3A.97.97,0,0,1,293.268,366.939Z" transform="translate(-288.297 -358.045)" fill="#2c733f"/>
        <path id="Trazado_994943" data-name="Trazado 994943" d="M361.009,299.578v3.03a.969.969,0,0,1-.969.97h-3.031a.97.97,0,0,1-.97-.97v-3.03a.97.97,0,0,1,.97-.97h3.031A.97.97,0,0,1,361.009,299.578Z" transform="translate(-348.07 -298.608)" fill="#2c733f"/>
      </g>
      <path id="Trazado_994944" data-name="Trazado 994944" d="M429.566,299.578v3.03a.97.97,0,0,1-.97.97h-3.03a.97.97,0,0,1-.97-.97v-3.03a.97.97,0,0,1,.97-.97h3.03A.97.97,0,0,1,429.566,299.578Z" transform="translate(-374.162 -263.48)" fill="#ee8700"/>
      <g id="Grupo_1160797" data-name="Grupo 1160797" transform="translate(34.4 35.129)">
        <path id="Trazado_994945" data-name="Trazado 994945" d="M293.268,299.578v3.03a.97.97,0,0,1-.97.97h-3.031a.97.97,0,0,1-.97-.97v-3.03a.97.97,0,0,1,.97-.97H292.3A.97.97,0,0,1,293.268,299.578Z" transform="translate(-288.297 -298.608)" fill="#2c733f"/>
        <path id="Trazado_994946" data-name="Trazado 994946" d="M361.009,431v3.031a.969.969,0,0,1-.969.97h-3.031a.97.97,0,0,1-.97-.97V431a.969.969,0,0,1,.97-.969h3.031A.969.969,0,0,1,361.009,431Z" transform="translate(-348.07 -414.57)" fill="#2c733f"/>
        <path id="Trazado_994947" data-name="Trazado 994947" d="M293.268,431v3.031a.97.97,0,0,1-.97.97h-3.031a.97.97,0,0,1-.97-.97V431a.97.97,0,0,1,.97-.969H292.3A.969.969,0,0,1,293.268,431Z" transform="translate(-288.297 -414.57)" fill="#2c733f"/>
      </g>
      <path id="Trazado_994948" data-name="Trazado 994948" d="M429.566,367.409v9.411a1.654,1.654,0,0,1-1.653,1.655H426.25a1.654,1.654,0,0,1-1.653-1.655v-9.411a1.441,1.441,0,0,1,1.441-1.441h2.089A1.44,1.44,0,0,1,429.566,367.409Z" transform="translate(-374.162 -322.915)" fill="#ee8700"/>
      <g id="Grupo_1160798" data-name="Grupo 1160798" transform="translate(34.4 35.129)">
        <path id="Trazado_994949" data-name="Trazado 994949" d="M361.009,366.939v.9a.969.969,0,0,1-.969.97h-3.031a.97.97,0,0,1-.97-.97v-.9a.97.97,0,0,1,.97-.97h3.031A.969.969,0,0,1,361.009,366.939Z" transform="translate(-348.07 -358.045)" fill="#317f46"/>
        <path id="Trazado_994950" data-name="Trazado 994950" d="M293.268,366.939v.9a.97.97,0,0,1-.97.97h-3.031a.97.97,0,0,1-.97-.97v-.9a.97.97,0,0,1,.97-.97H292.3A.97.97,0,0,1,293.268,366.939Z" transform="translate(-288.297 -358.045)" fill="#317f46"/>
        <path id="Trazado_994951" data-name="Trazado 994951" d="M361.009,299.578v.9a.969.969,0,0,1-.969.97h-3.031a.97.97,0,0,1-.97-.97v-.9a.97.97,0,0,1,.97-.97h3.031A.97.97,0,0,1,361.009,299.578Z" transform="translate(-348.07 -298.608)" fill="#317f46"/>
      </g>
      <path id="Trazado_994952" data-name="Trazado 994952" d="M429.566,299.578v.9a.97.97,0,0,1-.97.97h-3.03a.97.97,0,0,1-.97-.97v-.9a.97.97,0,0,1,.97-.97h3.03A.97.97,0,0,1,429.566,299.578Z" transform="translate(-374.162 -263.48)" fill="#ff9811"/>
      <g id="Grupo_1160799" data-name="Grupo 1160799" transform="translate(34.4 35.129)">
        <path id="Trazado_994953" data-name="Trazado 994953" d="M293.268,299.578v.9a.97.97,0,0,1-.97.97h-3.031a.97.97,0,0,1-.97-.97v-.9a.97.97,0,0,1,.97-.97H292.3A.97.97,0,0,1,293.268,299.578Z" transform="translate(-288.297 -298.608)" fill="#317f46"/>
        <path id="Trazado_994954" data-name="Trazado 994954" d="M361.009,431v.9a.969.969,0,0,1-.969.97h-3.031a.97.97,0,0,1-.97-.97V431a.969.969,0,0,1,.97-.969h3.031A.969.969,0,0,1,361.009,431Z" transform="translate(-348.07 -414.57)" fill="#317f46"/>
        <path id="Trazado_994955" data-name="Trazado 994955" d="M293.268,431v.9a.97.97,0,0,1-.97.97h-3.031a.97.97,0,0,1-.97-.97V431a.97.97,0,0,1,.97-.969H292.3A.969.969,0,0,1,293.268,431Z" transform="translate(-288.297 -414.57)" fill="#317f46"/>
      </g>
      <path id="Trazado_994956" data-name="Trazado 994956" d="M429.566,367.409v7.282a1.654,1.654,0,0,1-1.653,1.655H426.25a1.654,1.654,0,0,1-1.653-1.655v-7.282a1.441,1.441,0,0,1,1.441-1.441h2.089A1.44,1.44,0,0,1,429.566,367.409Z" transform="translate(-374.162 -322.915)" fill="#ff9811"/>
      <path id="Trazado_994957" data-name="Trazado 994957" d="M344.176,19.826h-5.75a1.764,1.764,0,0,1-1.764-1.764V11.924a4.583,4.583,0,0,1,1.36,1l2.457,2.628,2.812,2.943A4.543,4.543,0,0,1,344.176,19.826Z" transform="translate(-296.571 -10.521)" fill="#ffb655"/>
      <path id="Trazado_994958" data-name="Trazado 994958" d="M87.717,463.9a2.253,2.253,0,0,1-2.247,2.247H71.7a2.247,2.247,0,0,1,0-4.494H85.47A2.254,2.254,0,0,1,87.717,463.9Z" transform="translate(-60.801 -407.342)" fill="#aa6100"/>
      <path id="Trazado_994959" data-name="Trazado 994959" d="M87.717,425.693a2.253,2.253,0,0,1-2.247,2.247H71.7a2.247,2.247,0,0,1,0-4.494H85.47A2.254,2.254,0,0,1,87.717,425.693Z" transform="translate(-60.801 -373.632)" fill="#cc7400"/>
      <path id="Trazado_994960" data-name="Trazado 994960" d="M87.717,387.489a2.253,2.253,0,0,1-2.247,2.247H71.7a2.247,2.247,0,0,1,0-4.494H85.47A2.254,2.254,0,0,1,87.717,387.489Z" transform="translate(-60.801 -339.922)" fill="#ee8700"/>
      <path id="Trazado_994961" data-name="Trazado 994961" d="M87.717,349.283a2.253,2.253,0,0,1-2.247,2.247H71.7a2.254,2.254,0,0,1-2.247-2.247,2.253,2.253,0,0,1,2.247-2.247H85.47A2.254,2.254,0,0,1,87.717,349.283Z" transform="translate(-60.801 -306.21)" fill="#ff9811"/>
      <path id="Trazado_994962" data-name="Trazado 994962" d="M85.47,313.328H71.7a2.254,2.254,0,0,1-2.247-2.247h0a2.254,2.254,0,0,1,2.247-2.247H85.47a2.254,2.254,0,0,1,2.247,2.247h0A2.254,2.254,0,0,1,85.47,313.328Z" transform="translate(-60.801 -272.503)" fill="#ffa733"/>
      <path id="Trazado_994963" data-name="Trazado 994963" d="M26.135,384.628a7.312,7.312,0,0,0-7.62-7H15.649a7.322,7.322,0,0,0,.626,14.63h2.239v0c.2.008.41.01.618,0a7.435,7.435,0,0,0,1.36-.186,7.322,7.322,0,0,0,5.643-6.863V385.2C26.143,385.008,26.143,384.819,26.135,384.628Z" transform="translate(-7.124 -333.195)" fill="#cc7400"/>
      <path id="Trazado_994964" data-name="Trazado 994964" d="M72.846,386.64v.008a7.322,7.322,0,0,1-5.643,6.863,7.325,7.325,0,0,1-5.636-6.815c0-.017,0-.032,0-.048v-.008a7.324,7.324,0,0,1,5.642-7.385,7.323,7.323,0,0,1,5.638,6.816C72.853,386.263,72.853,386.452,72.846,386.64Z" transform="translate(-53.834 -334.639)" fill="#ee8700"/>
      <path id="Trazado_994965" data-name="Trazado 994965" d="M53.28,19.688H48.938V11.144A5.549,5.549,0,0,0,47.4,7.32L44.6,4.384C42.218,1.931,41.917,1.238,40.5.55A5.548,5.548,0,0,0,38.1,0H17.605A5.542,5.542,0,0,0,12.07,5.535v29.85H10.9a3.191,3.191,0,0,0-2.266,5.441,3.182,3.182,0,0,0-.927,2.247,3.276,3.276,0,0,0,.063.632A8.05,8.05,0,0,0,8.923,59.755l15.747-.006a3.191,3.191,0,0,0,2.266-5.441,3.177,3.177,0,0,0,.923-2.089h1.2v.64a7.38,7.38,0,0,0,7.372,7.372H53.28a7.38,7.38,0,0,0,7.372-7.372V27.06A7.38,7.38,0,0,0,53.28,19.688ZM41.036,3.346c3.716,3.928,4.554,4.814,4.711,4.981,0,0,0,0,0,0h0l0,.006h0a.02.02,0,0,0,.007.007l0,0s0,0,0,0,0,0,0,0,0,0,0,0H41.036V3.346ZM10.9,37.278H24.67a1.3,1.3,0,1,1,0,2.6H10.9a1.3,1.3,0,1,1,0-2.6Zm0,4.494H24.67a1.3,1.3,0,1,1,0,2.6H15.16a7.707,7.707,0,0,0-1.2-.433,7.977,7.977,0,0,0-1.892-.278c-.186,0-.371,0-.557,0H9.747a1.279,1.279,0,0,1-.146-.595A1.3,1.3,0,0,1,10.9,41.772Zm15.068,5.8a1.3,1.3,0,0,1-1.3,1.3h-5.3a7.959,7.959,0,0,0-1.606-2.6h6.9A1.3,1.3,0,0,1,25.971,47.567ZM6.3,45.869a8.165,8.165,0,0,0-1.49,1.911h-1.1A6.249,6.249,0,0,1,6.3,45.869ZM2.7,49.554H4.078a8.168,8.168,0,0,0-.258,1.418H2.364A6.217,6.217,0,0,1,2.7,49.554Zm.153,4.69a6.207,6.207,0,0,1-.445-1.5H3.853a7.14,7.14,0,0,0,.338,1.5Zm1.18,1.774c.581,0,.918,0,1,0A7.99,7.99,0,0,0,6.3,57.556,6.251,6.251,0,0,1,4.033,56.018Zm8.073,1.965a6.277,6.277,0,1,1,3.976-10.894A6.271,6.271,0,0,1,12.106,57.983Zm12.563-.125H17.033a8.106,8.106,0,0,0,2.033-2.6h5.6a1.3,1.3,0,0,1,0,2.6Zm1.29-5.637a1.3,1.3,0,0,1-1.29,1.143H19.719a8.129,8.129,0,0,0,.115-2.6H24.67A1.3,1.3,0,0,1,25.96,52.22Zm3.1-1.892H27.348a3.139,3.139,0,0,0-.413-.513,3.186,3.186,0,0,0,0-4.494,3.187,3.187,0,0,0,0-4.494,3.2,3.2,0,0,0-2.266-5.441H13.962V5.535a3.647,3.647,0,0,1,3.643-3.643H39.144V9.3a.946.946,0,0,0,.946.946h6.843c.2.766.076.513.112,9.437H36.428a7.38,7.38,0,0,0-7.372,7.372V50.328ZM58.878,52.86a5.6,5.6,0,0,1-5.6,5.6H36.428a5.6,5.6,0,0,1-5.6-5.6V27.06a5.6,5.6,0,0,1,5.6-5.6H53.28a5.6,5.6,0,0,1,5.6,5.6v25.8Z" transform="translate(0)"/>
      <path id="Trazado_994966" data-name="Trazado 994966" d="M286.953,206.967h-3.218a1.208,1.208,0,0,1-1.2-1.2v-3.247a1.208,1.208,0,0,1,1.2-1.2h16.726a1.205,1.205,0,0,1,1.2,1.2v3.247a1.205,1.205,0,0,1-1.2,1.2h-9.683a.887.887,0,1,0,0,1.774h9.683a2.981,2.981,0,0,0,2.978-2.978v-3.247a2.981,2.981,0,0,0-2.978-2.978H283.735a2.978,2.978,0,0,0-2.978,2.978v3.247a2.978,2.978,0,0,0,2.978,2.978h3.218a.887.887,0,0,0,0-1.774Z" transform="translate(-247.244 -176.064)"/>
      <path id="Trazado_994967" data-name="Trazado 994967" d="M282.614,365.173h3.031a1.858,1.858,0,0,0,1.857-1.857v-3.03a1.858,1.858,0,0,0-1.857-1.857h-3.031a1.859,1.859,0,0,0-1.857,1.857v3.03A1.859,1.859,0,0,0,282.614,365.173Zm-.083-4.887a.083.083,0,0,1,.083-.083h3.031a.083.083,0,0,1,.083.083v3.03a.083.083,0,0,1-.083.083h-3.031a.083.083,0,0,1-.083-.083Z" transform="translate(-247.244 -316.263)"/>
      <path id="Trazado_994968" data-name="Trazado 994968" d="M421.943,291.068h-3.03a1.858,1.858,0,0,0-1.857,1.857v3.03a1.859,1.859,0,0,0,1.857,1.857h3.03a1.859,1.859,0,0,0,1.857-1.857v-3.03A1.859,1.859,0,0,0,421.943,291.068Zm.083,4.887a.082.082,0,0,1-.083.083h-3.03a.083.083,0,0,1-.083-.083c.037-3-.077-3.113.083-3.113h3.03a.082.082,0,0,1,.083.083Z" transform="translate(-367.509 -256.826)"/>
      <path id="Trazado_994969" data-name="Trazado 994969" d="M282.614,297.812h3.031a1.858,1.858,0,0,0,1.857-1.857v-3.03a1.858,1.858,0,0,0-1.857-1.857h-3.031a1.859,1.859,0,0,0-1.857,1.857v3.03A1.859,1.859,0,0,0,282.614,297.812Zm-.083-4.887a.083.083,0,0,1,.083-.083h3.031a.083.083,0,0,1,.083.083v3.03a.083.083,0,0,1-.083.083h-3.031a.083.083,0,0,1-.083-.083Z" transform="translate(-247.244 -256.827)"/>
      <path id="Trazado_994970" data-name="Trazado 994970" d="M287.011,423.117a1.856,1.856,0,0,0-1.39-.626H282.59a1.851,1.851,0,0,0-1.388.626,2.537,2.537,0,0,0-.468,1.892v2.369a1.859,1.859,0,0,0,1.857,1.857h3.031a1.859,1.859,0,0,0,1.857-1.857v-2.369A2.559,2.559,0,0,0,287.011,423.117Zm-1.39,4.344c-2.995-.037-3.114.077-3.114-.083,0-3.209-.036-3.113.083-3.113h3.031c.146,0,.056.2.083.744A12.615,12.615,0,0,1,285.622,427.461Z" transform="translate(-247.22 -372.789)"/>
      <path id="Trazado_994971" data-name="Trazado 994971" d="M421.471,358.428h-2.089a2.331,2.331,0,0,0-2.328,2.328v9.411a2.544,2.544,0,0,0,2.541,2.542h1.663a2.544,2.544,0,0,0,2.541-2.542v-9.411A2.33,2.33,0,0,0,421.471,358.428Zm.554,11.739a.767.767,0,0,1-.766.768H419.6a.768.768,0,0,1-.766-.768v-9.411a.554.554,0,0,1,.553-.553h2.089a.554.554,0,0,1,.553.553v9.411Z" transform="translate(-367.508 -316.262)"/>
      <path id="Trazado_994972" data-name="Trazado 994972" d="M166.464,173.375h0c-1.082-.4-1.863-.684-1.863-1.686,0-.913.607-1.376,1.8-1.376,1.27,0,1.612.559,2.059.559a.852.852,0,0,0,.756-.874c0-.739-1.205-1.105-2.283-1.2v-.666a.841.841,0,1,0-1.681,0v.773a2.749,2.749,0,0,0-2.283,2.875c0,2.065,1.52,2.636,2.742,3.095,1.2.449,2.141.8,2.141,2.17,0,1.128-.626,1.7-1.862,1.7-1.808,0-1.825-1.221-2.514-1.221a.887.887,0,0,0-.771.874c0,.7,1.041,1.618,2.548,1.856v.644a.841.841,0,0,0,1.681,0v-.661a3.037,3.037,0,0,0,2.548-3.28C169.484,174.484,167.81,173.869,166.464,173.375Z" transform="translate(-143.082 -147.608)"/>
      <path id="Trazado_994973" data-name="Trazado 994973" d="M353.365,422.491h-3.031a1.856,1.856,0,0,0-1.39.626,2.547,2.547,0,0,0-.467,1.892v2.369a1.858,1.858,0,0,0,1.857,1.857h3.031a1.858,1.858,0,0,0,1.856-1.857v-3.031a1.859,1.859,0,0,0-1.856-1.856Zm0,4.97c-2.995-.037-3.114.077-3.114-.083v-3.031a.083.083,0,0,1,.083-.082h3.031a.082.082,0,0,1,.082.082C353.411,427.349,353.523,427.461,353.365,427.461Z" transform="translate(-306.995 -372.789)"/>
      <path id="Trazado_994974" data-name="Trazado 994974" d="M353.387,291.068h-3.031a1.858,1.858,0,0,0-1.857,1.857v3.03a1.859,1.859,0,0,0,1.857,1.857h3.031a1.829,1.829,0,0,0,.675-.128,1.859,1.859,0,0,0,1.18-1.729v-3.03A1.859,1.859,0,0,0,353.387,291.068Zm.082,4.887a.082.082,0,0,1-.082.083h-3.031a.083.083,0,0,1-.083-.083v-3.03c0-.16.11-.047,3.114-.083a.082.082,0,0,1,.082.083v3.03Z" transform="translate(-307.017 -256.826)"/>
      <path id="Trazado_994975" data-name="Trazado 994975" d="M354.063,358.556a1.829,1.829,0,0,0-.675-.128h-3.031a1.859,1.859,0,0,0-1.857,1.857v3.03a1.859,1.859,0,0,0,1.857,1.857h3.031a1.858,1.858,0,0,0,1.856-1.857v-3.03A1.859,1.859,0,0,0,354.063,358.556Zm-.594,4.759a.082.082,0,0,1-.082.083h-3.031a.083.083,0,0,1-.083-.083v-3.03a.083.083,0,0,1,.083-.083h3.031a.082.082,0,0,1,.082.083Z" transform="translate(-307.017 -316.262)"/>
      <path id="Trazado_994976" data-name="Trazado 994976" d="M320.934,104.816h2.228a.887.887,0,0,0,0-1.774h-2.228a.887.887,0,1,0,0,1.774Z" transform="translate(-281.912 -90.92)"/>
      <path id="Trazado_994977" data-name="Trazado 994977" d="M157.057,104.816h15.73a.887.887,0,0,0,0-1.774h-15.73a.887.887,0,1,0,0,1.774Z" transform="translate(-137.314 -90.92)"/>
      <path id="Trazado_994978" data-name="Trazado 994978" d="M159.877,142.246a.887.887,0,0,0,0-1.774h-2.82a.887.887,0,1,0,0,1.774Z" transform="translate(-137.314 -123.947)"/>
      <path id="Trazado_994979" data-name="Trazado 994979" d="M227.212,141.359a.887.887,0,0,0-.887-.887H211.186a.887.887,0,0,0,0,1.774h15.139A.887.887,0,0,0,227.212,141.359Z" transform="translate(-185.075 -123.947)"/>
      <path id="Trazado_994980" data-name="Trazado 994980" d="M79.3,401.379c0-.223.082-.287.159-.33a1.524,1.524,0,0,1,1.286.087,1.014,1.014,0,0,0,.48.146c.875,0,1.567-1.626-.523-1.985v-.056a.9.9,0,1,0-1.8,0v.171a2.017,2.017,0,0,0-1.371,2.02c0,1.513,1.1,1.926,1.9,2.227.765.288,1.03.414,1.03.934,0,.326-.088.627-.724.627-.927,0-.816-.733-1.51-.733a.927.927,0,0,0-.857.919c0,.615.639,1.2,1.53,1.434v.067a.9.9,0,1,0,1.8,0v-.091a2.222,2.222,0,0,0,1.53-2.276C82.227,401.845,79.3,402.25,79.3,401.379Z" transform="translate(-67.783 -351.481)"/>
    </g>
  </g>
</svg>
