<svg xmlns="http://www.w3.org/2000/svg" xmlns:xlink="http://www.w3.org/1999/xlink" width="110" height="110" viewBox="0 0 110 110">
  <defs>
    <filter id="Trazado_982547" x="0" y="0" width="110" height="110" filterUnits="userSpaceOnUse">
      <feOffset dy="3" input="SourceAlpha"/>
      <feGaussianBlur stdDeviation="3" result="blur"/>
      <feFlood flood-opacity="0.161"/>
      <feComposite operator="in" in2="blur"/>
      <feComposite in="SourceGraphic"/>
    </filter>
  </defs>
  <g id="Grupo_1160801" data-name="Grupo 1160801" transform="translate(-5154.941 -4000.673)">
    <g id="Grupo_1158949" data-name="Grupo 1158949" transform="translate(4038.941 194.673)">
      <g id="Grupo_1157406" data-name="Grupo 1157406" transform="translate(1 3016)">
        <g id="Grupo_1155793" data-name="Grupo 1155793" transform="translate(-0.999 -3894)">
          <g id="Grupo_1154704" data-name="Grupo 1154704" transform="translate(0 1466)">
            <g id="Grupo_1150790" data-name="Grupo 1150790" transform="translate(3 2320)">
              <g id="Grupo_1154214" data-name="Grupo 1154214" transform="translate(79 -5809)">
                <g id="Grupo_1152583" data-name="Grupo 1152583" transform="translate(1043 6713)">
                  <g id="Grupo_1146973" data-name="Grupo 1146973" transform="translate(0 0)">
                    <g id="Grupo_1146954" data-name="Grupo 1146954">
                      <g transform="matrix(1, 0, 0, 1, -9, -6)" filter="url(#Trazado_982547)">
                        <g id="Trazado_982547-2" data-name="Trazado 982547" transform="translate(9 6)" fill="#f5e9fe">
                          <path d="M 46 90.49987030029297 C 39.99187850952148 90.49987030029297 34.16426849365234 89.32350921630859 28.67905426025391 87.00345611572266 C 23.38019943237305 84.76224517822266 18.62104034423828 81.55341339111328 14.53374671936035 77.46613311767578 C 10.44646644592285 73.37885284423828 7.237639904022217 68.61969757080078 4.996413230895996 63.32085418701172 C 2.676359891891479 57.83565521240234 1.5 52.008056640625 1.5 45.99993515014648 C 1.5 39.99181365966797 2.676359891891479 34.16421508789062 4.996413230895996 28.67901420593262 C 7.237639904022217 23.38017463684082 10.44646644592285 18.62101554870605 14.53374671936035 14.53373527526855 C 18.62104034423828 10.44645500183105 23.38019943237305 7.23762845993042 28.67905426025391 4.996415138244629 C 34.16426849365234 2.676361799240112 39.99187850952148 1.500001788139343 46 1.500001788139343 C 52.00812149047852 1.500001788139343 57.83573150634766 2.676361799240112 63.32094573974609 4.996415138244629 C 68.61979675292969 7.23762845993042 73.37895965576172 10.44645500183105 77.46625518798828 14.53373527526855 C 81.55353546142578 18.62101554870605 84.76235961914062 23.38017463684082 87.00358581542969 28.67901420593262 C 89.32363891601562 34.16421508789062 90.5 39.99181365966797 90.5 45.99993515014648 C 90.5 52.008056640625 89.32363891601562 57.83565521240234 87.00358581542969 63.32085418701172 C 84.76235961914062 68.61969757080078 81.55353546142578 73.37885284423828 77.46625518798828 77.46613311767578 C 73.37895965576172 81.55341339111328 68.61979675292969 84.76224517822266 63.32094573974609 87.00345611572266 C 57.83573150634766 89.32350921630859 52.00812149047852 90.49987030029297 46 90.49987030029297 Z" stroke="none"/>
                          <path d="M 46 2.999992370605469 C 40.1937141418457 2.999992370605469 34.56269836425781 4.136489868164062 29.26337051391602 6.377906799316406 C 24.14332580566406 8.543502807617188 19.54441070556641 11.64437866210938 15.59439849853516 15.59437561035156 C 11.64440155029297 19.54439544677734 8.54351806640625 24.14329528808594 6.377914428710938 29.26333618164062 C 4.136497497558594 34.56264877319336 3 40.19366455078125 3 45.99993515014648 C 3 51.80620574951172 4.136497497558594 57.43720626831055 6.377914428710938 62.73651885986328 C 8.54351806640625 67.8565673828125 11.64440155029297 72.45545959472656 15.59439849853516 76.40547943115234 C 19.54441070556641 80.35547637939453 24.14332580566406 83.45635223388672 29.26337051391602 85.6219482421875 C 34.56269836425781 87.86336517333984 40.1937141418457 88.99986267089844 46 88.99986267089844 C 51.8062858581543 88.99986267089844 57.43730163574219 87.86336517333984 62.73661422729492 85.6219482421875 C 67.85667419433594 83.45635223388672 72.45557403564453 80.35547637939453 76.40558624267578 76.40547943115234 C 80.35559844970703 72.45545959472656 83.45647430419922 67.8565673828125 85.6220703125 62.73651885986328 C 87.86350250244141 57.43720626831055 89 51.80620574951172 89 45.99993515014648 C 89 40.19366455078125 87.86350250244141 34.56264877319336 85.6220703125 29.26333618164062 C 83.45647430419922 24.14329528808594 80.35559844970703 19.54439544677734 76.40558624267578 15.59437561035156 C 72.45557403564453 11.64437866210938 67.85667419433594 8.543502807617188 62.73661422729492 6.377906799316406 C 57.43730163574219 4.136489868164062 51.8062858581543 2.999992370605469 46 2.999992370605469 M 46 -7.62939453125e-06 C 71.40509033203125 -7.62939453125e-06 92 20.59486389160156 92 45.99993515014648 C 92 71.40499114990234 71.40509033203125 91.99986267089844 46 91.99986267089844 C 20.59490203857422 91.99986267089844 0 71.40499114990234 0 45.99993515014648 C 0 20.59486389160156 20.59490203857422 -7.62939453125e-06 46 -7.62939453125e-06 Z" stroke="none" fill="#a530fe"/>
                        </g>
                      </g>
                    </g>
                  </g>
                </g>
              </g>
            </g>
          </g>
        </g>
      </g>
    </g>
    <g id="FILLED_OUTLINE" transform="translate(5165.621 4007.432)">
      <path id="Trazado_994981" data-name="Trazado 994981" d="M166,117.965V115a3,3,0,0,0-6,0v2.967a3,3,0,0,0,1.885,2.783l1.113.445,1.113-.445A3,3,0,0,0,166,117.965Z" transform="translate(-127.506 -84.797)" fill="#bebebe"/>
      <path id="Trazado_994982" data-name="Trazado 994982" d="M135.708,185.885,135,185.6l-.713.285A9.993,9.993,0,0,0,128,195.164v3.227h13.99v-3.227a9.993,9.993,0,0,0-6.282-9.278Z" transform="translate(-99.504 -149.204)" fill="#bebebe"/>
      <path id="Trazado_994983" data-name="Trazado 994983" d="M61.225,41.7l2.747-1.454L62.378,35.4l-3.081.421-2.716-3.7,1.372-2.8-4.171-3-2.27,2.154L47.12,27.063,46.564,24H41.408l-.556,3.063L36.46,28.475l-2.27-2.154-4.171,3,1.372,2.8-2.716,3.7L25.594,35.4,24,40.248,26.747,41.7V46.27L24,47.724l1.594,4.851,3.081-.421,2.716,3.7-1.372,2.8,4.171,3L36.46,59.5l4.392,1.412.556,3.063h5.157l.556-3.063L51.512,59.5l-1.866-3.815a12.977,12.977,0,1,1,6.727-7.771l3.541,4.328,2.464.336,1.594-4.851L61.225,46.27C61.225,44.2,61.225,43.771,61.225,41.7Z" transform="translate(-8.494 -7.789)" fill="#006cda"/>
      <path id="Trazado_994984" data-name="Trazado 994984" d="M326,292.232V291a3,3,0,0,0-6,0v1.234a3,3,0,0,0,1.542,2.621l1.456.809,1.456-.809A3,3,0,0,0,326,292.232Z" transform="translate(-267.52 -238.813)" fill="#bebebe"/>
      <path id="Trazado_994985" data-name="Trazado 994985" d="M304.908,350.951,302,349.333l-2.912,1.618A6,6,0,0,0,296,356.192v4.466h11.992v-4.466a6,6,0,0,0-3.084-5.241Z" transform="translate(-246.518 -292.484)" fill="#bebebe"/>
      <path id="Trazado_994986" data-name="Trazado 994986" d="M235.975,220.308v-4.641l-2.757-.5-1.271-3.953,1.939-2.043-2.7-3.754-2.522,1.235-3.326-2.444.379-2.773L221.352,200l-1.308,2.472h-4.112L214.623,200l-4.366,1.435.379,2.773-3.326,2.444-2.522-1.235-2.7,3.754,1.939,2.043-1.271,3.953-2.757.5v4.641l2.757.5,1.271,3.953-1.939,2.043,2.7,3.754,2.522-1.235,3.326,2.444-.379,2.773,4.366,1.435,1.308-2.472h4.112l1.308,2.472,4.366-1.435-.379-2.773,3.326-2.444,2.522,1.235,2.7-3.754-1.939-2.043,1.271-3.953Zm-17.987,8.672a10.992,10.992,0,1,1,10.992-10.992,10.992,10.992,0,0,1-10.992,10.992Z" transform="translate(-162.51 -161.805)" fill="#008afe"/>
      <path id="Trazado_994987" data-name="Trazado 994987" d="M336.895,38.171l-8.462-14.1a2,2,0,0,0-3.428,0l-8.462,14.1a2,2,0,0,0,1.714,3.027h16.923a2,2,0,0,0,1.714-3.027Z" transform="translate(-264.247 -7)" fill="#f4c44d"/>
      <rect id="Rectángulo_412970" data-name="Rectángulo 412970" width="1.999" height="6.995" transform="translate(61.473 20.208)" fill="#f4f4f4"/>
      <rect id="Rectángulo_412971" data-name="Rectángulo 412971" width="1.999" height="1.999" transform="translate(61.473 29.201)" fill="#f4f4f4"/>
      <path id="Trazado_994988" data-name="Trazado 994988" d="M87.919,351.434A25.013,25.013,0,0,1,78.2,341.245l1.776-.917A23.018,23.018,0,0,0,88.92,349.7Z" transform="translate(-55.926 -284.604)" fill="#dfdfdf"/>
      <path id="Trazado_994989" data-name="Trazado 994989" d="M175.787,426.323a24.91,24.91,0,0,1-3.124-1.186l.834-1.816a22.9,22.9,0,0,0,2.872,1.091Z" transform="translate(-138.588 -357.229)" fill="#dfdfdf"/>
      <path id="Trazado_994990" data-name="Trazado 994990" d="M17.753,282.487a29.99,29.99,0,0,1-.484-3.1l1.988-.2a28.044,28.044,0,0,0,.452,2.894Z" transform="translate(-2.604 -231.095)" fill="#dfdfdf"/>
      <path id="Trazado_994991" data-name="Trazado 994991" d="M54.074,340.057a29.7,29.7,0,0,1-18.2-6.154A30.192,30.192,0,0,1,25.25,318.348l1.921-.55a28.182,28.182,0,0,0,9.917,14.518,27.722,27.722,0,0,0,16.985,5.743Z" transform="translate(-9.588 -264.888)" fill="#dfdfdf"/>
      <path id="Trazado_994992" data-name="Trazado 994992" d="M259.992,248a11.992,11.992,0,1,0,11.992,11.992A11.992,11.992,0,0,0,259.992,248Zm-5,20.64v-1.123a5,5,0,0,1,2.57-4.368l2.427-1.348,2.427,1.348a5,5,0,0,1,2.57,4.368v1.123a9.957,9.957,0,0,1-9.993,0Zm3-11.412v-1.234a2,2,0,1,1,4,0v1.234a2,2,0,0,1-1.028,1.747l-.971.539-.97-.539a2,2,0,0,1-1.028-1.747Zm8.982,9.9a7,7,0,0,0-3.587-5.728l-1.342-.745a4,4,0,0,0,1.942-3.428v-1.234a4,4,0,0,0-7.994,0v1.234a4,4,0,0,0,1.942,3.428l-1.342.745a7,7,0,0,0-3.586,5.728,9.993,9.993,0,1,1,13.967,0Z" transform="translate(-204.514 -203.809)"/>
      <path id="Trazado_994993" data-name="Trazado 994993" d="M308.61,33.676a2.964,2.964,0,0,0,2.609,1.521h16.923a3,3,0,0,0,2.571-4.54l-8.462-14.1a3,3,0,0,0-5.141,0l-8.462,14.1a2.964,2.964,0,0,0-.038,3.02Zm1.752-1.991,8.462-14.1h0a1,1,0,0,1,1.714,0L329,31.685a1,1,0,0,1-.857,1.513H311.219a1,1,0,0,1-.857-1.513Z" transform="translate(-257.208)"/>
      <rect id="Rectángulo_412972" data-name="Rectángulo 412972" width="1.999" height="6.995" transform="translate(61.473 20.208)"/>
      <rect id="Rectángulo_412973" data-name="Rectángulo 412973" width="1.999" height="1.999" transform="translate(61.473 29.201)"/>
      <path id="Trazado_994994" data-name="Trazado 994994" d="M74.464,60.126v-6.31l-2.988-.542-.906-2.818,2.1-2.213L69,43.132l-2.736,1.34L63.9,42.738l.411-3.009-5.958-1.958-1.421,2.685H54.023L52.6,37.771l-3.244,1.066a13.978,13.978,0,1,0-9.229,11.35l.255.269-.906,2.818-2.988.542v2.156H33.748l-.514-2.832-5.527-1.776-2.1,1.993-2.814-2.023,1.267-2.587-3.426-4.662-2.845.388-1.071-3.26,2.533-1.341V34.1l-2.533-1.341,1.071-3.26,2.845.388,3.426-4.662-1.267-2.587,2.814-2.023,2.1,1.993,5.527-1.776L33.747,18h3.488l.514,2.832,5.527,1.776,2.1-1.993,2.814,2.023-1.267,2.587L49.7,29l1.611-1.183-2.056-2.8L50.727,22,45.2,18.026l-2.44,2.316L39.5,19.294,38.9,16H32.079l-.6,3.294-3.257,1.047-2.44-2.316L20.256,22l1.477,3.016-2.006,2.73-3.317-.453-2.117,6.443,2.96,1.567v3.366l-2.96,1.567,2.117,6.443,3.317-.453,2.006,2.73L20.256,51.97l5.528,3.974,2.44-2.316,3.257,1.047.6,3.294h4.412v2.156l2.988.542.906,2.818-2.1,2.213,3.674,5.111L44.7,69.47l2.36,1.734-.411,3.009L52.6,76.171l1.421-2.685h2.909l1.421,2.685,5.958-1.957L63.9,71.2l2.36-1.734L69,70.81,72.67,65.7l-2.1-2.213.906-2.818ZM23.5,36.985a11.992,11.992,0,1,1,23.709,2.558l-.564.185.411,3.009L44.7,44.472l-1.65-.808a10.9,10.9,0,0,0-5.166-6.5,3.976,3.976,0,0,0,1.609-3.208V30.989a4,4,0,0,0-7.994,0v2.967A3.976,3.976,0,0,0,33.1,37.164a10.921,10.921,0,0,0-5.576,8.777A11.965,11.965,0,0,1,23.5,36.985Zm13.99-6v2.967a1.989,1.989,0,0,1-1.256,1.856l-.742.3-.742-.3a1.989,1.989,0,0,1-1.256-1.856V30.989a2,2,0,0,1,4,0Zm-2,17.987a11.918,11.918,0,0,1-6-1.61v-.618a8.95,8.95,0,0,1,5.654-8.35l.342-.137.342.137a8.933,8.933,0,0,1,5.307,5.872l-2.856,3.972.311.328A11.982,11.982,0,0,1,35.491,48.977Zm34.591,16.9-1.723,2.4-2.307-1.13L61.759,70.3l.346,2.537-2.774.912-1.2-2.259H52.82l-1.2,2.259-2.774-.912L49.2,70.3,44.9,67.143,42.6,68.273l-1.723-2.4L42.65,64l-1.635-5.087-2.526-.458V55.485l2.526-.458L42.65,49.94l-1.778-1.873,1.723-2.4L44.9,46.8,49.2,43.645l-.346-2.537,2.774-.912,1.2,2.259h5.316l1.2-2.259,2.774.912-.346,2.537L66.052,46.8l2.307-1.13,1.723,2.4L68.3,49.94l1.635,5.087,2.526.458v2.972l-2.526.458L68.3,64Z" transform="translate(0 -0.789)"/>
      <path id="Trazado_994995" data-name="Trazado 994995" d="M87.919,351.434l1-1.73a23.018,23.018,0,0,1-8.942-9.376l-1.776.917A25.013,25.013,0,0,0,87.919,351.434Z" transform="translate(-55.926 -284.604)"/>
      <path id="Trazado_994996" data-name="Trazado 994996" d="M173.5,423.32l-.834,1.816a24.91,24.91,0,0,0,3.124,1.186l.582-1.912A22.893,22.893,0,0,1,173.5,423.32Z" transform="translate(-138.588 -357.23)"/>
      <path id="Trazado_994997" data-name="Trazado 994997" d="M19.257,279.182l-1.988.2a29.991,29.991,0,0,0,.484,3.1l1.956-.412a28.042,28.042,0,0,1-.452-2.894Z" transform="translate(-2.604 -231.096)"/>
      <path id="Trazado_994998" data-name="Trazado 994998" d="M27.171,317.8l-1.921.55A30.192,30.192,0,0,0,35.874,333.9a29.7,29.7,0,0,0,18.2,6.154v-2a27.722,27.722,0,0,1-16.985-5.743A28.182,28.182,0,0,1,27.171,317.8Z" transform="translate(-9.588 -264.888)"/>
    </g>
  </g>
</svg>
