<svg xmlns="http://www.w3.org/2000/svg" xmlns:xlink="http://www.w3.org/1999/xlink" width="108" height="108" viewBox="0 0 108 108">
  <defs>
    <filter id="Trazado_982548" x="0" y="0" width="108" height="108" filterUnits="userSpaceOnUse">
      <feOffset dy="3" input="SourceAlpha"/>
      <feGaussianBlur stdDeviation="3" result="blur"/>
      <feFlood flood-opacity="0.161"/>
      <feComposite operator="in" in2="blur"/>
      <feComposite in="SourceGraphic"/>
    </filter>
  </defs>
  <g id="Grupo_1160703" data-name="Grupo 1160703" transform="translate(-193 -3798)">
    <g id="Grupo_1158896" data-name="Grupo 1158896" transform="translate(202 3804)">
      <g id="Grupo_1153337" data-name="Grupo 1153337" transform="translate(0 0)">
        <g id="Grupo_1149696" data-name="Grupo 1149696">
          <g id="Grupo_1149263" data-name="Grupo 1149263">
            <g transform="matrix(1, 0, 0, 1, -9, -6)" filter="url(#Trazado_982548)">
              <g id="Trazado_982548-2" data-name="Trazado 982548" transform="translate(9 6)" fill="#f6f9fc">
                <path d="M 45.0000114440918 88.5 C 39.12688827514648 88.5 33.43023681640625 87.35008239746094 28.06831169128418 85.08217620849609 C 22.88853645324707 82.89131927490234 18.2363109588623 79.75459289550781 14.2408618927002 75.7591552734375 C 10.24542427062988 71.76370239257812 7.108698844909668 67.11148071289062 4.917836666107178 61.93170547485352 C 2.649936437606812 56.56977844238281 1.500011444091797 50.87312698364258 1.500011444091797 45.00000381469727 C 1.500011444091797 39.12688064575195 2.649936437606812 33.43022918701172 4.917836666107178 28.06830406188965 C 7.108698844909668 22.88852882385254 10.24542427062988 18.23630332946777 14.2408618927002 14.24085426330566 C 18.2363109588623 10.24541664123535 22.88853645324707 7.108691215515137 28.06831169128418 4.917829036712646 C 33.43023681640625 2.64992880821228 39.12688827514648 1.500003814697266 45.0000114440918 1.500003814697266 C 50.87313461303711 1.500003814697266 56.56978607177734 2.64992880821228 61.93171310424805 4.917829036712646 C 67.11148834228516 7.108691215515137 71.76371002197266 10.24541664123535 75.75916290283203 14.24085426330566 C 79.75460052490234 18.23630332946777 82.89132690429688 22.88852882385254 85.08218383789062 28.06830406188965 C 87.35009002685547 33.43022918701172 88.50001525878906 39.12688064575195 88.50001525878906 45.00000381469727 C 88.50001525878906 50.87312698364258 87.35009002685547 56.56977844238281 85.08218383789062 61.93170547485352 C 82.89132690429688 67.11148071289062 79.75460052490234 71.76370239257812 75.75916290283203 75.7591552734375 C 71.76371002197266 79.75459289550781 67.11148834228516 82.89131927490234 61.93171310424805 85.08217620849609 C 56.56978607177734 87.35008239746094 50.87313461303711 88.5 45.0000114440918 88.5 Z" stroke="none"/>
                <path d="M 45.0000114440918 3.000007629394531 C 39.3287239074707 3.000007629394531 33.82866668701172 4.110061645507812 28.65264129638672 6.299346923828125 C 23.65167236328125 8.414573669433594 19.15969848632812 11.44334411621094 15.30152893066406 15.30152130126953 C 11.44335174560547 19.15969085693359 8.414581298828125 23.65166473388672 6.299354553222656 28.65263366699219 C 4.110069274902344 33.82865905761719 3.000007629394531 39.32871627807617 3.000007629394531 45.00000381469727 C 3.000007629394531 50.67129135131836 4.110069274902344 56.17134857177734 6.299354553222656 61.34737396240234 C 8.414581298828125 66.34834289550781 11.44335174560547 70.84031677246094 15.30152893066406 74.698486328125 C 19.15969848632812 78.55666351318359 23.65167236328125 81.58543395996094 28.65264129638672 83.70066070556641 C 33.82866668701172 85.88994598388672 39.3287239074707 87 45.0000114440918 87 C 50.67129898071289 87 56.17135620117188 85.88994598388672 61.34738159179688 83.70066070556641 C 66.34835815429688 81.58543395996094 70.84032440185547 78.55666351318359 74.69849395751953 74.698486328125 C 78.55667114257812 70.84031677246094 81.58544158935547 66.34834289550781 83.70066833496094 61.34737396240234 C 85.88995361328125 56.17134857177734 87.00001525878906 50.67129135131836 87.00001525878906 45.00000381469727 C 87.00001525878906 39.32871627807617 85.88995361328125 33.82865905761719 83.70066833496094 28.65263366699219 C 81.58544158935547 23.65166473388672 78.55667114257812 19.15969085693359 74.69849395751953 15.30152130126953 C 70.84032440185547 11.44334411621094 66.34835815429688 8.414573669433594 61.34738159179688 6.299346923828125 C 56.17135620117188 4.110061645507812 50.67129898071289 3.000007629394531 45.0000114440918 3.000007629394531 M 45.0000114440918 7.62939453125e-06 C 69.85282897949219 7.62939453125e-06 90.00001525878906 20.14718627929688 90.00001525878906 45.00000381469727 C 90.00001525878906 69.85281372070312 69.85282897949219 90 45.0000114440918 90 C 20.14719390869141 90 7.62939453125e-06 69.85281372070312 7.62939453125e-06 45.00000381469727 C 7.62939453125e-06 20.14718627929688 20.14719390869141 7.62939453125e-06 45.0000114440918 7.62939453125e-06 Z" stroke="none" fill="#15da7e"/>
              </g>
            </g>
          </g>
        </g>
      </g>
    </g>
    <g id="idea_6_" data-name="idea (6)" transform="translate(206.033 3816.001)">
      <g id="Grupo_1160701" data-name="Grupo 1160701" transform="translate(10.492 0.499)">
        <g id="Grupo_1160700" data-name="Grupo 1160700">
          <path id="Trazado_994678" data-name="Trazado 994678" d="M234.995,224.6h-7.149v5.352a1.862,1.862,0,0,0,1.862,1.862h3.425a1.862,1.862,0,0,0,1.862-1.862Z" transform="translate(-201.037 -196.024)" fill="#a59ca6"/>
          <path id="Trazado_994679" data-name="Trazado 994679" d="M234.524,230.709H231.1a1.862,1.862,0,0,1-1.862-1.862v-.464a.722.722,0,0,1,.722-.722h5.034V224.6h-7.149v5.352a1.862,1.862,0,0,0,1.862,1.862h3.425a1.862,1.862,0,0,0,1.714-1.135A1.869,1.869,0,0,1,234.524,230.709Z" transform="translate(-201.036 -196.025)" fill="#8f8390"/>
          <path id="Trazado_994680" data-name="Trazado 994680" d="M297.239,276.807l5.686-4.793a2.75,2.75,0,0,0,.323-3.891,2.786,2.786,0,0,0-3.912-.321l-11.819,9.962-4.448,3.854,6.226,2.448Z" transform="translate(-249.112 -233.065)" fill="#ffe0d1"/>
          <path id="Trazado_994681" data-name="Trazado 994681" d="M285.053,282.2l4.448-3.854,11.819-9.962a2.771,2.771,0,0,1,1.528-.64,2.79,2.79,0,0,0-3.512.064l-11.819,9.962-4.448,3.854,6.226,2.448.156-.143Z" transform="translate(-249.111 -233.068)" fill="#ffd1c2"/>
          <path id="Trazado_994682" data-name="Trazado 994682" d="M260.149,266.195l8.971-7.5a2.734,2.734,0,0,0,.121-3.7,2.824,2.824,0,0,0-3.943-.321l-7.994,6.685-5.963,4.619,3.554,4.514Z" transform="translate(-221.492 -221.632)" fill="#ffe0d1"/>
          <path id="Trazado_994683" data-name="Trazado 994683" d="M253.358,266.9l5.963-4.619,7.994-6.685a2.814,2.814,0,0,1,1.889-.652,2.825,2.825,0,0,0-3.9-.277l-7.994,6.685-5.963,4.619,3.554,4.514.781-.638Z" transform="translate(-221.492 -221.634)" fill="#ffd1c2"/>
          <path id="Trazado_994684" data-name="Trazado 994684" d="M186,15.993a12.133,12.133,0,1,0-22.056,6.983l5.838,9.089v1.182a1.347,1.347,0,0,0,1.347,1.347H176.6a1.347,1.347,0,0,0,1.347-1.347V32.065l5.838-9.089A12.075,12.075,0,0,0,186,15.993Z" transform="translate(-143.479 -3.86)" fill="#fbe88c"/>
          <path id="Trazado_994685" data-name="Trazado 994685" d="M169.056,24.524a13.361,13.361,0,0,1-2.311-7.548,13.03,13.03,0,0,1,9.892-12.8,12.135,12.135,0,0,0-12.7,18.8l5.838,9.089v1.182a1.347,1.347,0,0,0,1.347,1.347h3.467Z" transform="translate(-143.479 -3.86)" fill="#fbe372"/>
          <g id="Grupo_1160698" data-name="Grupo 1160698" transform="translate(0 35.789)">
            <g id="XMLID_250_">
              <g id="Grupo_1160697" data-name="Grupo 1160697" transform="translate(0 0)">
                <path id="Trazado_994686" data-name="Trazado 994686" d="M58.032,289.218l.221.025h8.463a2.725,2.725,0,0,0,1.762-.646l8.98-7.61a2.76,2.76,0,0,1,3.569,4.212L66.853,297.213a9.8,9.8,0,0,1-5.166,2.252l-15.829,1.9-6.144,7.356a.814.814,0,0,1-.872.253l-17.529-5.607a.814.814,0,0,1-.39-1.28l6.766-8.54.5-1.063a14.915,14.915,0,0,1,13.476-8.523H55.075a3.459,3.459,0,0,1,2.957,5.252Z" transform="translate(-20.747 -280.333)" fill="#ffe0d1"/>
              </g>
              <path id="Trazado_994687" data-name="Trazado 994687" d="M207.69,280.333a2.752,2.752,0,0,0-1.783.654l-8.98,7.61a2.725,2.725,0,0,1-1.762.646H186.7l-.221-.025a3.479,3.479,0,0,0,.176-.333H168.3v.664a3.273,3.273,0,0,0,3.273,3.273h11.958a5.43,5.43,0,0,0,3.942-1.718,1.2,1.2,0,0,1,.873-.378h7.716a2.816,2.816,0,0,0,1.854-.7l9.448-8.252a2.82,2.82,0,0,1,2.23-.686,2.758,2.758,0,0,0-1.9-.756Z" transform="translate(-149.196 -280.333)" fill="#ffd1c2"/>
              <path id="Trazado_994688" data-name="Trazado 994688" d="M174.447,311.861a3.455,3.455,0,0,1-3.533,3.456h-16.9l-.119-6.453a14.973,14.973,0,0,1,3.685-.461H170.99a3.456,3.456,0,0,1,3.458,3.458Z" transform="translate(-136.661 -304.769)" fill="#ffe0d1"/>
            </g>
          </g>
          <g id="Grupo_1160699" data-name="Grupo 1160699" transform="translate(0 39.423)">
            <path id="Trazado_994689" data-name="Trazado 994689" d="M29.616,320.735l.5-1.063A14.915,14.915,0,0,1,43.6,311.149H57a3.45,3.45,0,0,1,1.513.348,3.459,3.459,0,0,0-3.44-3.094H41.669a14.915,14.915,0,0,0-13.476,8.523l-.5,1.063-6.766,8.54a.814.814,0,0,0,.39,1.28l2.153.689Z" transform="translate(-20.747 -308.403)" fill="#ffd1c2"/>
          </g>
        </g>
      </g>
      <g id="Grupo_1160702" data-name="Grupo 1160702" transform="translate(8.967 -0.001)">
        <path id="Trazado_994690" data-name="Trazado 994690" d="M20.593,332.045a15.81,15.81,0,0,0-3.532,4.82l-.457.963L9.177,347.2a.971.971,0,0,0,1.522,1.206l7.5-9.462a.976.976,0,0,0,.116-.187l.5-1.063a13.874,13.874,0,0,1,3.1-4.231.971.971,0,1,0-1.323-1.422Z" transform="translate(-8.967 -288.835)"/>
        <path id="Trazado_994691" data-name="Trazado 994691" d="M170.825,251.251a3.736,3.736,0,0,0-5.259-.434l-.5.425a3.729,3.729,0,0,0-6.074-2.131l-.445.377a3.737,3.737,0,0,0-6.067-2.078l-7.462,6.324a4.413,4.413,0,0,0-1.2-.168H130.4a15.953,15.953,0,0,0-7.2,1.725.971.971,0,0,0,.88,1.731,14,14,0,0,1,6.315-1.514h13.408a2.486,2.486,0,1,1-.054,4.971h-8.675a.971.971,0,1,0,0,1.942h8.733a4.391,4.391,0,0,0,3.092-1.262,4.52,4.52,0,0,0,.342-.376h8.2a3.7,3.7,0,0,0,2.389-.876l8.98-7.61a1.79,1.79,0,1,1,2.315,2.731L154.96,267.043a8.806,8.806,0,0,1-4.654,2.03l-1.749.21a.971.971,0,0,0,.115,1.935,1,1,0,0,0,.117-.007l1.749-.21a10.739,10.739,0,0,0,5.678-2.477l14.176-12.013A3.736,3.736,0,0,0,170.825,251.251Zm-17.092-2.359a1.79,1.79,0,0,1,2.475,2.576l-7.976,6.759q.006-.116.006-.233a4.416,4.416,0,0,0-1.419-3.244Zm-3.223,9.951,9.735-8.25a1.79,1.79,0,0,1,2.315,2.731l-5.974,5.1a1.755,1.755,0,0,1-1.133.416Z" transform="translate(-107.957 -214.615)"/>
        <path id="Trazado_994692" data-name="Trazado 994692" d="M174.36,426.1l-9.956,1.2a.971.971,0,0,0-.629.341l-6.495,7.775a.971.971,0,0,0,1.49,1.245l6.248-7.48,9.573-1.152a.971.971,0,1,0-.232-1.928Z" transform="translate(-137.885 -370.937)"/>
        <path id="Trazado_994693" data-name="Trazado 994693" d="M167.582,27.78s-5.674-8.832-5.682-8.844a10.793,10.793,0,0,1-1.845-4.6.971.971,0,0,0-1.92.287,12.74,12.74,0,0,0,2.166,5.412l5.493,8.552v1.416a1.712,1.712,0,0,0,.385,1.083v3.337a2.836,2.836,0,0,0,2.833,2.833h3.425a2.836,2.836,0,0,0,2.833-2.833V31.088a1.712,1.712,0,0,0,.385-1.083V28.59l5.493-8.552A12.733,12.733,0,0,0,177.9,2.21,12.978,12.978,0,0,0,165.685.972,11.839,11.839,0,0,0,159,7.615a14.519,14.519,0,0,0-.749,2.534.971.971,0,1,0,1.905.376A12.574,12.574,0,0,1,160.8,8.33a9.891,9.891,0,0,1,5.588-5.55A11.063,11.063,0,0,1,176.8,3.814a10.792,10.792,0,0,1,2.745,15.123c-.008.011-5.682,8.844-5.682,8.844a.972.972,0,0,0-.154.525v1.481h-.237l.553-9.385h.926a2.7,2.7,0,0,0,2.7-2.7v-.107a2.7,2.7,0,0,0-5.4-.159l-.06,1.025H169.26l-.06-1.025a2.7,2.7,0,0,0-5.4.159V17.7a2.7,2.7,0,0,0,2.7,2.7h.926l.553,9.385h-.246V28.305a.971.971,0,0,0-.154-.525ZM174.2,17.548a.759.759,0,0,1,1.516.044V17.7a.76.76,0,0,1-.759.759h-.811Zm-7.693.911a.76.76,0,0,1-.759-.759v-.107a.759.759,0,0,1,1.516-.044l.054.911H166.5Zm6.824,15.967a.892.892,0,0,1-.891.891h-3.425a.892.892,0,0,1-.891-.891v-2.7h5.207ZM169.374,20.4h2.709l-.553,9.385h-1.6Z" transform="translate(-138.816 0.001)"/>
        <path id="Trazado_994694" data-name="Trazado 994694" d="M385.353,99.947a.971.971,0,0,0,.971.971h2.289a.971.971,0,0,0,0-1.942h-2.289A.971.971,0,0,0,385.353,99.947Z" transform="translate(-336.63 -86.164)"/>
        <path id="Trazado_994695" data-name="Trazado 994695" d="M374.458,48.41a.967.967,0,0,0,.337-.061l2.146-.8a.971.971,0,0,0-.675-1.821l-2.146.8a.971.971,0,0,0,.338,1.882Z" transform="translate(-326.3 -39.76)"/>
        <path id="Trazado_994696" data-name="Trazado 994696" d="M374.121,148.014l2.146.8a.971.971,0,0,0,.675-1.821l-2.146-.8a.971.971,0,1,0-.675,1.821Z" transform="translate(-326.3 -127.215)"/>
        <path id="Trazado_994697" data-name="Trazado 994697" d="M93.853,100.918h2.289a.971.971,0,0,0,0-1.942H93.853a.971.971,0,0,0,0,1.942Z" transform="translate(-82.019 -86.164)"/>
        <path id="Trazado_994698" data-name="Trazado 994698" d="M106.479,47.556l2.146.8a.971.971,0,0,0,.675-1.821l-2.146-.8a.971.971,0,1,0-.675,1.821Z" transform="translate(-93.304 -39.762)"/>
        <path id="Trazado_994699" data-name="Trazado 994699" d="M109.873,146.765a.971.971,0,0,0-1.248-.573l-2.146.8a.971.971,0,1,0,.675,1.821l2.146-.8A.971.971,0,0,0,109.873,146.765Z" transform="translate(-93.305 -127.215)"/>
      </g>
    </g>
  </g>
</svg>
