<svg xmlns="http://www.w3.org/2000/svg" xmlns:xlink="http://www.w3.org/1999/xlink" width="610" height="470" viewBox="0 0 610 470">
  <defs>
    <clipPath id="clip-path">
      <rect id="Rect치ngulo_409757" data-name="Rect치ngulo 409757" width="610" height="470" transform="translate(166.624 6066.148)" fill="#fff" stroke="#707070" stroke-width="1" opacity="0.61"/>
    </clipPath>
    <filter id="Elipse_11698" x="51.114" y="56.186" width="556.371" height="556.371" filterUnits="userSpaceOnUse">
      <feOffset dy="3" input="SourceAlpha"/>
      <feGaussianBlur stdDeviation="3" result="blur"/>
      <feFlood flood-opacity="0.161"/>
      <feComposite operator="in" in2="blur"/>
      <feComposite in="SourceGraphic"/>
    </filter>
  </defs>
  <g id="Enmascarar_grupo_1098763" data-name="Enmascarar grupo 1098763" transform="translate(-166.624 -6066.148)" clip-path="url(#clip-path)">
    <g id="Grupo_1160873" data-name="Grupo 1160873" transform="translate(147.996 6049.582)">
      <g id="Grupo_1160733" data-name="Grupo 1160733">
        <g transform="matrix(1, 0, 0, 1, 18.63, 16.57)" filter="url(#Elipse_11698)">
          <circle id="Elipse_11698-2" data-name="Elipse 11698" cx="269.186" cy="269.186" r="269.186" transform="translate(60.11 62.19)" fill="#fff"/>
        </g>
        <circle id="Elipse_11699" data-name="Elipse 11699" cx="246.028" cy="246.028" r="246.028" transform="translate(347.937 695.873) rotate(-135)" fill="#a530fe"/>
      </g>
      <g id="Grupo_1160732" data-name="Grupo 1160732" transform="translate(116.969 21.521)">
        <circle id="Elipse_11695" data-name="Elipse 11695" cx="60.414" cy="60.414" r="60.414" transform="translate(0 149.159)" fill="#e3bffe"/>
        <g id="Grupo_1160682" data-name="Grupo 1160682" transform="translate(48.938 163.847)">
          <path id="Trazado_994656" data-name="Trazado 994656" d="M447.825,519.751v8.7H75.485v-8.7a22.38,22.38,0,0,1,22.371-22.386H425.44A22.383,22.383,0,0,1,447.825,519.751Z" transform="translate(-74.482 -496.362)" fill="#e3bffe"/>
          <path id="Trazado_994657" data-name="Trazado 994657" d="M447.825,574.788V820.977a22.38,22.38,0,0,1-22.386,22.371H97.856a22.377,22.377,0,0,1-22.371-22.371V574.788Z" transform="translate(-74.482 -542.699)" fill="#fff"/>
          <g id="Grupo_1160678" data-name="Grupo 1160678" transform="translate(0 0)">
            <path id="Trazado_994658" data-name="Trazado 994658" d="M423.944,796.521H96.361a23.4,23.4,0,0,1-23.375-23.375V518.255a23.409,23.409,0,0,1,23.375-23.39H423.944a23.416,23.416,0,0,1,23.39,23.39V773.144A23.41,23.41,0,0,1,423.944,796.521ZM96.361,496.874a21.4,21.4,0,0,0-21.368,21.382V773.144a21.392,21.392,0,0,0,21.368,21.368H423.944a21.4,21.4,0,0,0,21.382-21.368V518.255a21.406,21.406,0,0,0-21.382-21.382Z" transform="translate(-72.986 -494.866)" fill="#29275f"/>
          </g>
          <g id="Grupo_1160679" data-name="Grupo 1160679" transform="translate(174.032 31.086)">
            <path id="Trazado_994659" data-name="Trazado 994659" d="M705.749,574.3H507.442a1,1,0,0,1,0-2.008H705.75a1,1,0,1,1,0,2.008Z" transform="translate(-506.438 -572.289)" fill="#29275f"/>
          </g>
          <g id="Grupo_1160680" data-name="Grupo 1160680" transform="translate(0 31.086)">
            <path id="Trazado_994660" data-name="Trazado 994660" d="M222.4,574.3H73.99a1,1,0,1,1,0-2.008H222.4a1,1,0,1,1,0,2.008Z" transform="translate(-72.986 -572.289)" fill="#29275f"/>
          </g>
          <circle id="Elipse_11696" data-name="Elipse 11696" cx="7.044" cy="7.044" r="7.044" transform="translate(268.891 16.102) rotate(-45)" fill="#a530fe"/>
          <g id="Grupo_1160681" data-name="Grupo 1160681" transform="translate(338.768 8.054)">
            <path id="Trazado_994661" data-name="Trazado 994661" d="M924.783,531.02a8.047,8.047,0,1,1,8.047-8.048A8.057,8.057,0,0,1,924.783,531.02Zm0-14.087a6.04,6.04,0,1,0,6.039,6.039A6.046,6.046,0,0,0,924.783,516.932Z" transform="translate(-916.735 -514.925)" fill="#29275f"/>
          </g>
          <circle id="Elipse_11697" data-name="Elipse 11697" cx="7.044" cy="7.044" r="7.044" transform="translate(303.724 22.255) rotate(-76.714)" fill="#3ad1e9"/>
        </g>
        <g id="Grupo_1160683" data-name="Grupo 1160683" transform="translate(95.494 326.316)">
          <path id="Trazado_994662" data-name="Trazado 994662" d="M254.393,1038.217h-48.21a1,1,0,0,1-1-1l-.4-91.457H189.944a1,1,0,0,1-.745-1.676l39.936-44.236a1,1,0,0,1,.745-.331h0a1,1,0,0,1,.745.331l39.923,44.236a1,1,0,0,1-.745,1.676H254.994l.4,91.449a1,1,0,0,1-1,1.008Zm-47.211-2.007h46.2l-.4-91.449a1,1,0,0,1,1-1.008h13.56L229.88,902.018,192.2,943.753h13.574a1,1,0,0,1,1,1Z" transform="translate(-188.94 -899.517)" fill="#29275f"/>
        </g>
        <g id="Grupo_1160684" data-name="Grupo 1160684" transform="translate(293.432 290.216)">
          <path id="Trazado_994663" data-name="Trazado 994663" d="M746.976,984.2H698.767a1,1,0,0,1-1-1V855.851H682.935a1,1,0,0,1-.745-1.676l39.936-44.238a1,1,0,0,1,.745-.331h0a1,1,0,0,1,.745.331l39.923,44.238a1,1,0,0,1-.745,1.676H747.979V983.193A1,1,0,0,1,746.976,984.2Zm-47.2-2.008h46.2V854.847a1,1,0,0,1,1-1h13.561l-37.665-41.736-37.678,41.736h13.574a1,1,0,0,1,1,1Z" transform="translate(-681.931 -809.606)" fill="#29275f"/>
        </g>
        <g id="Grupo_1160686" data-name="Grupo 1160686" transform="translate(79.442 219.535)">
          <path id="Trazado_994664" data-name="Trazado 994664" d="M225.644,689.878l9.949,3.654A45.245,45.245,0,0,1,227.878,707l-8.257-6.971a33.418,33.418,0,0,1-9.07,7.513l5.415,9.408a44.209,44.209,0,0,1-14.553,5.279l-1.9-10.694a36.417,36.417,0,0,1-11.709,0l-1.893,10.694a44.179,44.179,0,0,1-14.553-5.279l5.415-9.408a33.42,33.42,0,0,1-9.07-7.513L159.452,707a45.251,45.251,0,0,1-7.715-13.469l9.949-3.654A34.41,34.41,0,0,1,159.52,678.3H148.96a45.294,45.294,0,0,1,2.776-15.3l9.746,3.587a33,33,0,0,1,5.887-10.423l-7.918-6.633a44.475,44.475,0,0,1,11.912-9.95l5.076,8.867a32.038,32.038,0,0,1,11.234-4.129l-1.758-10.017a37.742,37.742,0,0,1,3.857-.542l3.858-.2,3.924.2a37.708,37.708,0,0,1,3.858.542l-1.76,10.017a32.026,32.026,0,0,1,11.236,4.129l5.076-8.867a44.46,44.46,0,0,1,11.912,9.95l-7.92,6.633a32.974,32.974,0,0,1,5.889,10.423l9.746-3.587a45.333,45.333,0,0,1,2.776,15.3H227.743A32.823,32.823,0,0,1,225.644,689.878Z" transform="translate(-148.96 -633.567)" fill="#3ad1e9"/>
          <g id="Grupo_1160685" data-name="Grupo 1160685" transform="translate(19.752 19.379)">
            <path id="Trazado_994665" data-name="Trazado 994665" d="M223.107,731.739a24.953,24.953,0,1,1,24.953-24.953A24.982,24.982,0,0,1,223.107,731.739Zm0-47.9a22.946,22.946,0,1,0,22.946,22.945A22.972,22.972,0,0,0,223.107,683.84Z" transform="translate(-198.154 -681.833)" fill="#29275f"/>
          </g>
        </g>
        <g id="Grupo_1160701" data-name="Grupo 1160701" transform="translate(136.465 36.223)">
          <rect id="Rect치ngulo_409753" data-name="Rect치ngulo 409753" width="63.249" height="176.005" transform="translate(66.474 250.816)" fill="#3ad1e9"/>
          <path id="Trazado_994666" data-name="Trazado 994666" d="M520.565,772.271V792.3q-9.281,1.77-18.642,2.669-9.607.928-19.249.928t-19.261-.928q-9.366-.894-18.642-2.669V772.271a192.938,192.938,0,0,0,27.487,2.463h.035a1.245,1.245,0,0,1,.206.011c1.272.035,2.589.058,3.953.092,1.982.023,4.056.046,6.221.046s4.228-.023,6.21-.046c1.363-.035,2.681-.057,3.953-.092a1.048,1.048,0,0,1,.184-.011h.092A192.545,192.545,0,0,0,520.565,772.271Z" transform="translate(-383.026 -533.267)" fill="#15da7e"/>
          <path id="Trazado_994667" data-name="Trazado 994667" d="M344.1,584.932h-.012L325.626,615.02a5.33,5.33,0,0,1-9.017.126c-9.361-14.506-28.931-47.824-21.437-62.8,9.59-19.169,36.825-52.052,37.524-52.889C335.675,529.191,340.671,563.163,344.1,584.932Z" transform="translate(-292.489 -369.99)" fill="#15da7e"/>
          <path id="Trazado_994668" data-name="Trazado 994668" d="M509.8,250.035a521.871,521.871,0,0,1-119.744,0l.172-.412c15.731-35.152,59.706-70.121,59.706-70.121s43.963,34.969,59.694,70.121Z" transform="translate(-350.277 -178.497)" fill="#15da7e"/>
          <path id="Trazado_994669" data-name="Trazado 994669" d="M506.35,413.105c-2.967,29.733-7.975,63.693-11.389,85.474-2.142,13.68-3.667,22.549-3.667,22.549a.088.088,0,0,0-.035.012,49.14,49.14,0,0,1-6.451,1.5,192.5,192.5,0,0,1-27.453,2.463h-.092a1.032,1.032,0,0,0-.184.012c-1.272.035-2.589.057-3.953.092-1.982.023-4.044.046-6.21.046s-4.239-.023-6.221-.046c-1.363-.035-2.681-.057-3.953-.092a1.223,1.223,0,0,0-.206-.012H436.5a193.017,193.017,0,0,1-27.487-2.463,49.183,49.183,0,0,1-6.439-1.5.087.087,0,0,0-.035-.012s-1.524-8.868-3.667-22.549c-3.426-21.77-8.421-55.742-11.4-85.474-2.635-26.628-3.655-49.864-.435-57.93a521.879,521.879,0,0,0,119.744,0C510.006,363.241,509,386.477,506.35,413.105Z" transform="translate(-347.271 -283.637)" fill="#fff"/>
          <path id="Trazado_994670" data-name="Trazado 994670" d="M479.72,420.125A39.89,39.89,0,1,0,519.6,460.009,39.877,39.877,0,0,0,479.72,420.125Zm0,66.924a27.04,27.04,0,1,1,27.04-27.04A27.031,27.031,0,0,1,479.72,487.049Z" transform="translate(-380.072 -322.509)" fill="#15da7e"/>
          <path id="Trazado_994671" data-name="Trazado 994671" d="M686.3,615.146a5.33,5.33,0,0,1-9.017-.126l-18.458-30.088c3.414-21.781,8.422-55.742,11.389-85.474.7.836,27.945,33.72,37.536,52.888C715.235,567.322,695.677,600.64,686.3,615.146Z" transform="translate(-511.138 -369.99)" fill="#15da7e"/>
          <g id="Grupo_1160687" data-name="Grupo 1160687" transform="translate(0 128.465)">
            <path id="Trazado_994672" data-name="Trazado 994672" d="M319.566,617.079a6.286,6.286,0,0,1-5.3-2.883c-11.238-17.412-28.97-48.852-21.494-63.794,9.746-19.481,37.375-52.752,37.651-53.083a1,1,0,0,1,1.769.544c3.121,31.151,8.478,66.888,11.393,85.418a1.006,1.006,0,0,1-.216.792l-18.39,29.976a6.312,6.312,0,0,1-5.33,3.031Zm10.87-116.617c-5.935,7.27-27.547,34.2-35.871,50.837-7.294,14.576,12.524,48.079,21.383,61.807a4.326,4.326,0,0,0,7.318-.107l18.275-29.787C338.684,565.036,333.568,530.866,330.435,500.462Z" transform="translate(-290.984 -496.959)" fill="#29275f"/>
          </g>
          <g id="Grupo_1160688" data-name="Grupo 1160688" transform="translate(38.767 0)">
            <path id="Trazado_994673" data-name="Trazado 994673" d="M448.415,252.984a523.017,523.017,0,0,1-59.987-3.449,1,1,0,0,1-.812-1.384l.171-.41c15.662-35,59.567-70.171,60.009-70.522a1,1,0,0,1,1.249,0c.442.351,44.336,35.525,59.986,70.5l.118.284a1.166,1.166,0,0,1-.028.97,1.048,1.048,0,0,1-.72.566A522.789,522.789,0,0,1,448.415,252.984Zm-58.4-5.288a521.539,521.539,0,0,0,116.805,0c-14.714-31.97-53.031-64.012-58.4-68.4C443.053,183.683,404.738,215.72,390.012,247.7Z" transform="translate(-387.538 -177)" fill="#29275f"/>
          </g>
          <g id="Grupo_1160690" data-name="Grupo 1160690" transform="translate(58.755 96.609)">
            <g id="Grupo_1160689" data-name="Grupo 1160689">
              <path id="Trazado_994674" data-name="Trazado 994674" d="M478.215,499.4a40.893,40.893,0,1,1,40.893-40.893A40.939,40.939,0,0,1,478.215,499.4Zm0-79.778A38.886,38.886,0,1,0,517.1,458.512,38.929,38.929,0,0,0,478.215,419.626Z" transform="translate(-437.322 -417.618)" fill="#29275f"/>
            </g>
          </g>
          <g id="Grupo_1160691" data-name="Grupo 1160691" transform="translate(146.686 128.464)">
            <path id="Trazado_994675" data-name="Trazado 994675" d="M680.346,617.079h-.082a6.314,6.314,0,0,1-5.331-3.031L656.474,583.96a1.006,1.006,0,0,1-.136-.68c3.587-22.873,8.473-56.26,11.383-85.418a1,1,0,0,1,1.769-.544c.277.331,27.933,33.637,37.663,53.083,7.48,14.973-10.262,46.4-21.5,63.794h0A6.283,6.283,0,0,1,680.346,617.079ZM658.38,583.226,676.646,613a4.318,4.318,0,0,0,3.645,2.072,4.211,4.211,0,0,0,3.674-1.967c8.862-13.717,28.691-47.2,21.394-61.8-8.311-16.61-29.943-43.563-35.882-50.837C666.555,528.926,661.866,560.966,658.38,583.226Zm26.427,30.424h0Z" transform="translate(-656.326 -496.958)" fill="#29275f"/>
          </g>
          <g id="Grupo_1160692" data-name="Grupo 1160692" transform="translate(60.743 237.997)">
            <path id="Trazado_994676" data-name="Trazado 994676" d="M481.179,795.4c-6.433,0-12.946-.314-19.356-.933-6.227-.594-12.53-1.5-18.733-2.682a1,1,0,0,1-.815-.986V770.77a1,1,0,0,1,1.179-.988,192.561,192.561,0,0,0,27.341,2.448c.107.013.255,0,.38.026l3.809.076c3.931.048,8.439.048,12.393,0l3.938-.091.211-.012a192.013,192.013,0,0,0,27.368-2.448.987.987,0,0,1,.821.219,1.006,1.006,0,0,1,.359.77V790.8a1,1,0,0,1-.815.986c-6.217,1.185-12.52,2.088-18.734,2.682C494.115,795.087,487.606,795.4,481.179,795.4Zm-36.9-5.434c5.878,1.1,11.84,1.94,17.733,2.5a200.028,200.028,0,0,0,38.318,0c5.882-.563,11.843-1.4,17.734-2.5v-18a201.051,201.051,0,0,1-26.418,2.276c-.047.008-.231.01-.278.012l-3.955.091c-4,.048-8.494.048-12.468,0l-3.969-.091-.178-1.015-.035,1a201.634,201.634,0,0,1-26.482-2.277v18.006Z" transform="translate(-442.274 -769.764)" fill="#29275f"/>
          </g>
          <g id="Grupo_1160693" data-name="Grupo 1160693" transform="translate(36.77 70.535)">
            <path id="Trazado_994677" data-name="Trazado 994677" d="M445.443,524.761c-2.169,0-4.246-.022-6.233-.046l-3.969-.091-.178-1.015-.035,1a194.7,194.7,0,0,1-27.662-2.479,54.981,54.981,0,0,1-6.535-1.521v0a1,1,0,0,1-.753-.806c-.016-.088-1.551-9.032-3.67-22.563C393.491,478.69,388.128,442.91,385,411.71c-3.121-31.545-3.246-51.193-.369-58.4a1.02,1.02,0,0,1,1.047-.624,521.551,521.551,0,0,0,119.515,0,1.014,1.014,0,0,1,1.047.624c2.888,7.234,2.764,26.884-.369,58.4h0c-2.914,29.2-7.806,62.63-11.4,85.529-2.119,13.53-3.653,22.474-3.669,22.562a1,1,0,0,1-.707.794l-.045.015a54.768,54.768,0,0,1-6.544,1.522,194,194,0,0,1-27.6,2.479c-.047.008-.231.01-.278.012l-3.955.091C449.679,524.738,447.613,524.761,445.443,524.761ZM435.074,522.6a2.157,2.157,0,0,1,.365.026l3.809.076c3.931.048,8.439.048,12.393,0l3.938-.091.211-.012a192.025,192.025,0,0,0,27.368-2.448,55.849,55.849,0,0,0,5.775-1.3c.378-2.225,1.757-10.412,3.56-21.927,3.587-22.873,8.473-56.262,11.383-85.418h0c3-30.18,3.255-49.256.762-56.744a523.5,523.5,0,0,1-118.4,0c-2.482,7.465-2.226,26.54.762,56.744,3.121,31.15,8.478,66.887,11.393,85.417,1.807,11.534,3.187,19.727,3.562,21.938a59.055,59.055,0,0,0,5.765,1.291,192.479,192.479,0,0,0,27.338,2.448Zm69.8-110.994h0Z" transform="translate(-382.564 -352.676)" fill="#29275f"/>
          </g>
          <g id="Grupo_1160694" data-name="Grupo 1160694" transform="translate(50.602 213.937)">
            <path id="Trazado_994678" data-name="Trazado 994678" d="M464.678,716.387c-28.4,0-46.633-4.5-46.9-4.57a1,1,0,1,1,.494-1.947c.4.1,40.99,10.109,95.655-.014a1,1,0,1,1,.365,1.974A273.132,273.132,0,0,1,464.678,716.387Z" transform="translate(-417.016 -709.839)" fill="#29275f"/>
          </g>
          <g id="Grupo_1160695" data-name="Grupo 1160695" transform="translate(55.504 17.427)">
            <path id="Trazado_994679" data-name="Trazado 994679" d="M430.229,267.005a1,1,0,0,1-.9-1.439c6.9-14.338,38.175-43.649,39.5-44.89a1,1,0,1,1,1.37,1.467c-.322.3-32.324,30.295-39.064,44.294A1,1,0,0,1,430.229,267.005Z" transform="translate(-429.226 -220.404)" fill="#29275f"/>
          </g>
          <g id="Grupo_1160696" data-name="Grupo 1160696" transform="translate(8.362 152.692)">
            <path id="Trazado_994680" data-name="Trazado 994680" d="M329.759,638.722a1,1,0,0,1-.9-.556c-.683-1.369-16.723-33.648-17.045-43.521-.329-10.086,25.318-35.956,26.409-37.052a1,1,0,1,1,1.423,1.418c-7.268,7.3-26.076,27.914-25.827,35.57.308,9.438,16.67,42.359,16.835,42.69a1,1,0,0,1-.9,1.451Z" transform="translate(-311.812 -557.299)" fill="#29275f"/>
          </g>
          <g id="Grupo_1160697" data-name="Grupo 1160697" transform="translate(73.283 266.065)">
            <path id="Trazado_994681" data-name="Trazado 994681" d="M474.511,984.176a1,1,0,0,1-1-1v-142.5a1,1,0,0,1,2.007,0v142.5A1,1,0,0,1,474.511,984.176Z" transform="translate(-473.507 -839.671)" fill="#29275f"/>
          </g>
          <g id="Grupo_1160698" data-name="Grupo 1160698" transform="translate(86.678 302.529)">
            <path id="Trazado_994682" data-name="Trazado 994682" d="M507.871,1041.136a1,1,0,0,1-1-1V931.494a1,1,0,1,1,2.008,0v108.639A1,1,0,0,1,507.871,1041.136Z" transform="translate(-506.867 -930.49)" fill="#29275f"/>
          </g>
          <g id="Grupo_1160699" data-name="Grupo 1160699" transform="translate(117.894 260.697)">
            <path id="Trazado_994683" data-name="Trazado 994683" d="M585.619,883.162a1,1,0,0,1-1-1V827.306a1,1,0,1,1,2.008,0v54.853A1,1,0,0,1,585.619,883.162Z" transform="translate(-584.615 -826.302)" fill="#29275f"/>
          </g>
          <g id="Grupo_1160700" data-name="Grupo 1160700" transform="translate(117.894 343.081)">
            <path id="Trazado_994684" data-name="Trazado 994684" d="M585.619,1093.4a1,1,0,0,1-1-1v-59.9a1,1,0,1,1,2.008,0v59.9A1,1,0,0,1,585.619,1093.4Z" transform="translate(-584.615 -1031.49)" fill="#29275f"/>
          </g>
        </g>
        <g id="Grupo_1160702" data-name="Grupo 1160702" transform="translate(346.357 214.896)">
          <path id="Trazado_994685" data-name="Trazado 994685" d="M852.8,688.355a1.005,1.005,0,0,1-.989-.83l-1.2-6.811a25.7,25.7,0,0,1-6.875,0l-1.2,6.811a1,1,0,0,1-1.165.815,33.489,33.489,0,0,1-10.906-3.974,1,1,0,0,1-.367-1.372l3.439-5.947a25.808,25.808,0,0,1-5.31-4.4l-5.244,4.4a.98.98,0,0,1-.734.23,1,1,0,0,1-.681-.357,33.5,33.5,0,0,1-5.785-10.052,1,1,0,0,1,.6-1.286l6.32-2.3a25.351,25.351,0,0,1-1.263-6.828h-6.7a1,1,0,0,1-1-1.012,33.987,33.987,0,0,1,2.043-11.427,1,1,0,0,1,1.287-.6l6.159,2.245a25.452,25.452,0,0,1,3.447-6.1l-4.983-4.185a1,1,0,0,1-.128-1.408,32.6,32.6,0,0,1,8.9-7.454,1,1,0,0,1,1.37.367l3.214,5.557A25.307,25.307,0,0,1,841.677,630l-1.108-6.311a1,1,0,0,1,.855-1.168c.294-.039.587-.086.88-.132a19.049,19.049,0,0,1,2-.246l2.825-.136,2.917.136a18.986,18.986,0,0,1,2.008.246c.293.046.586.093.88.132a1,1,0,0,1,.855,1.168L852.683,630a25.328,25.328,0,0,1,6.619,2.426l3.214-5.557a1,1,0,0,1,1.37-.367,32.63,32.63,0,0,1,8.9,7.454,1,1,0,0,1-.129,1.408l-4.983,4.185a25.482,25.482,0,0,1,3.446,6.1l6.16-2.245a1.006,1.006,0,0,1,1.287.6,33.989,33.989,0,0,1,2.042,11.426,1,1,0,0,1-1,1.012h-6.7a25.334,25.334,0,0,1-1.262,6.827l6.32,2.3a1,1,0,0,1,.6,1.286,33.531,33.531,0,0,1-5.785,10.052,1,1,0,0,1-.681.357.986.986,0,0,1-.734-.231l-5.244-4.4a25.761,25.761,0,0,1-5.31,4.4l3.44,5.947a1.005,1.005,0,0,1-.368,1.372,33.48,33.48,0,0,1-10.907,3.974A1,1,0,0,1,852.8,688.355Zm-1.366-9.788a1,1,0,0,1,.989.83l1.189,6.773a31.487,31.487,0,0,0,8.391-3.055l-3.424-5.921a1.005,1.005,0,0,1,.371-1.374,23.762,23.762,0,0,0,6.3-5.227,1,1,0,0,1,1.41-.118l5.21,4.37a31.543,31.543,0,0,0,4.45-7.732l-6.3-2.3a1.005,1.005,0,0,1-.6-1.3,23.384,23.384,0,0,0,1.5-8.088,1,1,0,0,1,1-1h6.645a31.966,31.966,0,0,0-1.567-8.794l-6.139,2.238a1,1,0,0,1-1.292-.613,23.5,23.5,0,0,0-4.073-7.219,1,1,0,0,1,.128-1.406l4.955-4.161a30.616,30.616,0,0,0-6.849-5.722l-3.2,5.532a1,1,0,0,1-1.375.364,23.358,23.358,0,0,0-7.815-2.864,1,1,0,0,1-.818-1.162l1.1-6.271a16.257,16.257,0,0,0-1.687-.206l-2.817-.136-2.725.136a16.2,16.2,0,0,0-1.683.206l1.1,6.271a1,1,0,0,1-.817,1.162,23.352,23.352,0,0,0-7.816,2.864,1.025,1.025,0,0,1-.764.1,1,1,0,0,1-.612-.468l-3.2-5.532a30.556,30.556,0,0,0-6.849,5.722l4.954,4.161a1,1,0,0,1,.129,1.406,23.51,23.51,0,0,0-4.073,7.219,1,1,0,0,1-1.292.613l-6.138-2.238a31.9,31.9,0,0,0-1.568,8.794h6.645a1,1,0,0,1,1,1,23.37,23.37,0,0,0,1.5,8.088,1.006,1.006,0,0,1-.6,1.3l-6.3,2.3a31.476,31.476,0,0,0,4.45,7.732l5.21-4.37a1,1,0,0,1,1.41.118,23.753,23.753,0,0,0,6.3,5.227,1,1,0,0,1,.37,1.374l-3.423,5.92a31.46,31.46,0,0,0,8.39,3.056l1.189-6.773a1.007,1.007,0,0,1,.413-.649,1.02,1.02,0,0,1,.75-.167,23.636,23.636,0,0,0,8.165,0A1,1,0,0,1,851.437,678.568Z" transform="translate(-813.749 -622.011)" fill="#29275f"/>
        </g>
        <g id="Grupo_1160703" data-name="Grupo 1160703" transform="translate(362.474 230.757)">
          <path id="Trazado_994686" data-name="Trazado 994686" d="M871.2,696.136a17.31,17.31,0,1,1,17.315-17.315A17.335,17.335,0,0,1,871.2,696.136Zm0-32.613a15.3,15.3,0,1,0,15.308,15.3A15.32,15.32,0,0,0,871.2,663.524Z" transform="translate(-853.889 -661.516)" fill="#29275f"/>
        </g>
        <path id="Trazado_994687" data-name="Trazado 994687" d="M902.71,818.528a11.351,11.351,0,0,0-16.052,0,11.777,11.777,0,0,0-.883.991,11.35,11.35,0,0,0,15.942,15.942,10.926,10.926,0,0,0,.993-.88A11.351,11.351,0,0,0,902.71,818.528ZM889.24,832a7.7,7.7,0,1,1,10.884,0A7.7,7.7,0,0,1,889.24,832Z" transform="translate(-509.036 -522.741)" fill="#3ad1e9"/>
        <path id="Trazado_994688" data-name="Trazado 994688" d="M120.948,599.557a11.351,11.351,0,0,0-16.053,0,11.731,11.731,0,0,0-.883.991,11.35,11.35,0,0,0,15.943,15.942,10.949,10.949,0,0,0,.993-.881A11.352,11.352,0,0,0,120.948,599.557Zm-13.47,13.469a7.7,7.7,0,1,1,10.884,0A7.7,7.7,0,0,1,107.478,613.026Z" transform="translate(-41.154 -391.688)" fill="#3ad1e9"/>
        <g id="Grupo_1160704" data-name="Grupo 1160704" transform="translate(56.223 300.387)">
          <path id="Trazado_994689" data-name="Trazado 994689" d="M120.475,884.866a1,1,0,0,1-.989-.829l-.848-4.829a19.951,19.951,0,0,1-4.7,0l-.848,4.829a1.008,1.008,0,0,1-.414.649,1.03,1.03,0,0,1-.752.165,25.324,25.324,0,0,1-8.207-2.99,1.007,1.007,0,0,1-.367-1.372l2.44-4.219a19.187,19.187,0,0,1-3.631-3.007l-3.726,3.127a1,1,0,0,1-1.416-.126A25.6,25.6,0,0,1,92.67,868.7a1,1,0,0,1,.6-1.286l4.474-1.635a19.263,19.263,0,0,1-.868-4.674H92.133a1,1,0,0,1-1-1.009,25.232,25.232,0,0,1,1.543-8.6,1,1,0,0,1,1.284-.6l4.349,1.578a19.069,19.069,0,0,1,2.368-4.17l-3.532-2.964a1,1,0,0,1-.128-1.408,24.81,24.81,0,0,1,6.7-5.615,1,1,0,0,1,1.372.365l2.274,3.923a18.959,18.959,0,0,1,4.537-1.653l-.786-4.462a1,1,0,0,1,.861-1.17c.246-.031.49-.071.734-.11.473-.075.945-.15,1.422-.18l2.116-.091,2.2.09c.5.033.975.108,1.453.184.239.038.477.076.713.108a1,1,0,0,1,.858,1.168l-.775,4.462a19.006,19.006,0,0,1,4.537,1.655l2.26-3.921a1.015,1.015,0,0,1,.61-.469,1,1,0,0,1,.762.1,24.326,24.326,0,0,1,6.706,5.617,1.006,1.006,0,0,1-.129,1.406l-3.521,2.964a19.04,19.04,0,0,1,2.356,4.17l4.365-1.578a1,1,0,0,1,1.283.6,25.662,25.662,0,0,1,1.542,8.591,1,1,0,0,1-1,1.016H135.7a19.174,19.174,0,0,1-.854,4.674l4.476,1.635a1,1,0,0,1,.6,1.286,25.653,25.653,0,0,1-4.361,7.568,1,1,0,0,1-.682.357,1.025,1.025,0,0,1-.735-.231l-3.713-3.129a19.526,19.526,0,0,1-3.642,3.009l2.44,4.219a1,1,0,0,1-.366,1.37,25.014,25.014,0,0,1-8.21,2.991A1.152,1.152,0,0,1,120.475,884.866Zm-1.016-7.8a1,1,0,0,1,.988.829l.839,4.78a23.041,23.041,0,0,0,5.689-2.072l-2.419-4.184a1,1,0,0,1,.371-1.372,17.547,17.547,0,0,0,4.641-3.835,1.009,1.009,0,0,1,1.41-.118l3.668,3.091a23.75,23.75,0,0,0,3.023-5.246l-4.437-1.621a1,1,0,0,1-.6-1.294,17.223,17.223,0,0,0,1.088-5.936,1,1,0,0,1,1-1h4.694a23.678,23.678,0,0,0-1.064-5.962l-4.335,1.566a.991.991,0,0,1-.772-.037,1,1,0,0,1-.517-.577,17.081,17.081,0,0,0-2.981-5.283,1,1,0,0,1,.126-1.408l3.486-2.935a22.349,22.349,0,0,0-4.65-3.884l-2.24,3.886a1,1,0,0,1-1.376.365,17,17,0,0,0-5.735-2.09,1.005,1.005,0,0,1-.819-1.162l.768-4.419c-.328-.051-.656-.1-.98-.12l-2.087-.088-2.008.09c-.316.02-.641.067-.97.118l.779,4.417a1,1,0,0,1-.819,1.164,17,17,0,0,0-5.735,2.09,1.025,1.025,0,0,1-.762.1,1,1,0,0,1-.613-.467l-2.252-3.886a22.833,22.833,0,0,0-4.649,3.882l3.495,2.935a1,1,0,0,1,.128,1.408,17.1,17.1,0,0,0-3,5.283,1,1,0,0,1-1.29.614l-4.32-1.566a23.247,23.247,0,0,0-1.068,5.962h4.684a1,1,0,0,1,1,1,17.23,17.23,0,0,0,1.1,5.936,1,1,0,0,1-.6,1.294l-4.437,1.621a23.68,23.68,0,0,0,3.009,5.247l3.684-3.092a1,1,0,0,1,1.412.122,17.227,17.227,0,0,0,4.622,3.831,1,1,0,0,1,.371,1.372L105.6,880.6a23.259,23.259,0,0,0,5.687,2.072l.839-4.778a.985.985,0,0,1,1.162-.813,17.8,17.8,0,0,0,6,0A.867.867,0,0,1,119.459,877.069Z" transform="translate(-91.129 -834.94)" fill="#29275f"/>
        </g>
        <g id="Grupo_1160712" data-name="Grupo 1160712" transform="translate(311.249 49.922)">
          <g id="Grupo_1160706" data-name="Grupo 1160706" transform="translate(1.005 1.004)">
            <g id="Grupo_1160705" data-name="Grupo 1160705">
              <path id="Trazado_994690" data-name="Trazado 994690" d="M826.576,227.19V282.3A13.619,13.619,0,0,1,813,295.868H791.424l-32.6,20.638,7.348-20.638H742.38A13.605,13.605,0,0,1,728.809,282.3V227.19a13.606,13.606,0,0,1,13.571-13.571H813A13.619,13.619,0,0,1,826.576,227.19Z" transform="translate(-728.809 -213.619)" fill="#fff"/>
            </g>
          </g>
          <g id="Grupo_1160709" data-name="Grupo 1160709" transform="translate(20.684 4.769)">
            <path id="Trazado_994691" data-name="Trazado 994691" d="M834.929,255.675q.136-1.383.136-2.8a27.372,27.372,0,1,0-54.744,0,49.109,49.109,0,0,0,1.025,7.4c2.049,10.052,8.185,27.947,26.342,38.238h.318c21.425-12.147,26.1-34.869,27.105-42.815Zm-27.242-16.8a14,14,0,1,1-14,14A13.992,13.992,0,0,1,807.688,238.872Z" transform="translate(-779.318 -224.492)" fill="#3ad1e9"/>
            <g id="Grupo_1160707" data-name="Grupo 1160707">
              <path id="Trazado_994692" data-name="Trazado 994692" d="M806.512,298.019h-.318a1,1,0,0,1-.5-.13c-18.592-10.538-24.791-28.9-26.831-38.911a49.665,49.665,0,0,1-1.044-7.566,28.375,28.375,0,1,1,56.75-.035c0,.779-.03,1.557-.09,2.319a1,1,0,0,1,.128.63c-1.14,9.038-6.111,31.376-27.606,43.562A1,1,0,0,1,806.512,298.019ZM779.83,251.377a49.089,49.089,0,0,0,1,7.2c1.959,9.616,7.878,27.2,25.518,37.376,20.039-11.559,24.99-32.386,26.2-41.373a.823.823,0,0,1-.12-.5c.087-.881.131-1.79.131-2.7a26.368,26.368,0,1,0-52.736,0Z" transform="translate(-777.824 -222.996)" fill="#29275f"/>
            </g>
            <g id="Grupo_1160708" data-name="Grupo 1160708" transform="translate(13.363 13.376)">
              <path id="Trazado_994693" data-name="Trazado 994693" d="M826.113,286.322a15.006,15.006,0,1,1,15.006-15.007A15.024,15.024,0,0,1,826.113,286.322Zm0-28a13,13,0,1,0,13,13A13.013,13.013,0,0,0,826.113,258.317Z" transform="translate(-811.106 -256.31)" fill="#29275f"/>
            </g>
          </g>
          <g id="Grupo_1160711" data-name="Grupo 1160711" transform="translate(0 0)">
            <g id="Grupo_1160710" data-name="Grupo 1160710">
              <path id="Trazado_994694" data-name="Trazado 994694" d="M757.324,316.013a1,1,0,0,1-.946-1.34l6.87-19.3H740.882A14.591,14.591,0,0,1,726.307,280.8V225.694a14.592,14.592,0,0,1,14.575-14.575h70.625a14.592,14.592,0,0,1,14.575,14.575V280.8a14.591,14.591,0,0,1-14.575,14.574h-21.29l-32.356,20.482A1,1,0,0,1,757.324,316.013ZM740.882,213.126a12.582,12.582,0,0,0-12.568,12.568V280.8a12.581,12.581,0,0,0,12.568,12.567h23.789a1,1,0,0,1,.946,1.34l-6.372,17.9,30.144-19.081a1,1,0,0,1,.537-.156h21.581A12.581,12.581,0,0,0,824.076,280.8V225.694a12.582,12.582,0,0,0-12.568-12.568Z" transform="translate(-726.307 -211.119)" fill="#29275f"/>
            </g>
          </g>
        </g>
        <g id="Grupo_1160717" data-name="Grupo 1160717" transform="translate(89.701 0)">
          <g id="Grupo_1160715" data-name="Grupo 1160715" transform="translate(1.004 1.004)">
            <path id="Trazado_994695" data-name="Trazado 994695" d="M272.53,102.332v50.63a13.088,13.088,0,0,1-13.049,13.049H236.013l7.187,20.176-31.84-20.176h-21.3a13.087,13.087,0,0,1-13.049-13.049v-50.63A13.1,13.1,0,0,1,190.06,89.283h69.421A13.1,13.1,0,0,1,272.53,102.332Z" transform="translate(-177.011 -89.283)" fill="#fff"/>
            <g id="Grupo_1160714" data-name="Grupo 1160714" transform="translate(13.879 4.776)">
              <path id="Trazado_994696" data-name="Trazado 994696" d="M246.956,155.534l-20.32,10.683,3.881-22.627-16.44-16.024,22.719-3.3,10.16-20.587,10.16,20.587,22.719,3.3-16.44,16.024,3.881,22.627Z" transform="translate(-213.074 -102.674)" fill="#3ad1e9"/>
              <g id="Grupo_1160713" data-name="Grupo 1160713">
                <path id="Trazado_994697" data-name="Trazado 994697" d="M265.78,165.724a1,1,0,0,1-.467-.116L245.46,155.172l-19.854,10.437a1,1,0,0,1-1.456-1.058l3.791-22.106-16.061-15.657a1,1,0,0,1,.557-1.712l22.2-3.225,9.927-20.114a1,1,0,0,1,.9-.56h0a1,1,0,0,1,.9.56l9.926,20.114,22.2,3.225a1,1,0,0,1,.557,1.712l-16.063,15.657,3.792,22.106a1,1,0,0,1-.989,1.173ZM214.738,126.77l14.983,14.606a1,1,0,0,1,.288.888l-3.537,20.622,18.521-9.736a1,1,0,0,1,.934,0l18.519,9.736-3.537-20.622a1,1,0,0,1,.288-.888l14.983-14.606-20.706-3.008a1,1,0,0,1-.756-.549l-9.26-18.763-9.26,18.763a1,1,0,0,1-.756.549Z" transform="translate(-211.578 -101.178)" fill="#29275f"/>
              </g>
            </g>
          </g>
          <g id="Grupo_1160716" data-name="Grupo 1160716" transform="translate(0 0)">
            <path id="Trazado_994698" data-name="Trazado 994698" d="M241.7,185.694a1,1,0,0,1-.537-.156l-31.594-20.02H188.564a14.069,14.069,0,0,1-14.053-14.053v-50.63a14.069,14.069,0,0,1,14.053-14.053h69.421a14.069,14.069,0,0,1,14.053,14.053v50.631a14.069,14.069,0,0,1-14.053,14.053H235.939l6.71,18.835a1,1,0,0,1-.946,1.341Zm-53.139-96.9a12.058,12.058,0,0,0-12.045,12.045v50.631a12.058,12.058,0,0,0,12.045,12.045h21.3a1,1,0,0,1,.537.156l29.379,18.617-6.21-17.432a1,1,0,0,1,.946-1.341h23.469a12.058,12.058,0,0,0,12.045-12.045V100.835A12.058,12.058,0,0,0,257.986,88.79Z" transform="translate(-174.511 -86.782)" fill="#29275f"/>
          </g>
        </g>
        <g id="Grupo_1160722" data-name="Grupo 1160722" transform="translate(56.247 101.365)">
          <g id="Grupo_1160721" data-name="Grupo 1160721" transform="translate(3.517 0)">
            <g id="Grupo_1160719" data-name="Grupo 1160719" transform="translate(5.5)">
              <path id="Trazado_994699" data-name="Trazado 994699" d="M114.65,352.253a1,1,0,0,1-1-1v-11a1,1,0,1,1,2.008,0v11A1,1,0,0,1,114.65,352.253Z" transform="translate(-113.646 -339.246)" fill="#29275f"/>
            </g>
            <g id="Grupo_1160720" data-name="Grupo 1160720" transform="translate(0 5.499)">
              <path id="Trazado_994700" data-name="Trazado 994700" d="M111.95,354.95h-11a1,1,0,1,1,0-2.007h11a1,1,0,1,1,0,2.007Z" transform="translate(-99.947 -352.943)" fill="#29275f"/>
            </g>
          </g>
          <path id="Trazado_994701" data-name="Trazado 994701" d="M94.735,415.582c-4.724,0-4.732,7.342,0,7.342S99.467,415.582,94.735,415.582Z" transform="translate(-91.189 -384.933)" fill="#29275f"/>
        </g>
        <g id="Grupo_1160726" data-name="Grupo 1160726" transform="translate(274.363 11.818)">
          <g id="Grupo_1160725" data-name="Grupo 1160725" transform="translate(0 24.631)">
            <g id="Grupo_1160723" data-name="Grupo 1160723" transform="translate(5.499)">
              <path id="Trazado_994702" data-name="Trazado 994702" d="M649.138,190.571a1,1,0,0,1-1-1v-11a1,1,0,0,1,2.008,0v11A1,1,0,0,1,649.138,190.571Z" transform="translate(-648.134 -177.564)" fill="#29275f"/>
            </g>
            <g id="Grupo_1160724" data-name="Grupo 1160724" transform="translate(0 5.499)">
              <path id="Trazado_994703" data-name="Trazado 994703" d="M646.441,193.268h-11a1,1,0,1,1,0-2.008h11a1,1,0,0,1,0,2.008Z" transform="translate(-634.438 -191.26)" fill="#29275f"/>
            </g>
          </g>
          <path id="Trazado_994704" data-name="Trazado 994704" d="M641.586,116.216c-4.724,0-4.732,7.342,0,7.342S646.319,116.216,641.586,116.216Z" transform="translate(-636.594 -116.216)" fill="#29275f"/>
          <path id="Trazado_994705" data-name="Trazado 994705" d="M687.2,144.011c-7.874,0-7.887,12.237,0,12.237S695.091,144.011,687.2,144.011Z" transform="translate(-662.481 -132.851)" fill="#29275f"/>
        </g>
        <g id="Grupo_1160727" data-name="Grupo 1160727" transform="translate(64.007 390.992)">
          <path id="Trazado_994706" data-name="Trazado 994706" d="M162.314,1163.28c-4.725,0-4.732,7.342,0,7.342S167.046,1163.28,162.314,1163.28Z" transform="translate(-139.395 -1122.053)" fill="#29275f"/>
          <path id="Trazado_994707" data-name="Trazado 994707" d="M116.427,1099.57c-7.874,0-7.887,12.237,0,12.237S124.313,1099.57,116.427,1099.57Z" transform="translate(-110.516 -1083.923)" fill="#29275f"/>
          <path id="Trazado_994708" data-name="Trazado 994708" d="M163.874,1060.6c-7.874,0-7.887,12.237,0,12.237S171.76,1060.6,163.874,1060.6Z" transform="translate(-138.913 -1060.6)" fill="#29275f"/>
        </g>
        <g id="Grupo_1160731" data-name="Grupo 1160731" transform="translate(379.935 404.446)">
          <g id="Grupo_1160730" data-name="Grupo 1160730" transform="translate(0 24.629)">
            <g id="Grupo_1160728" data-name="Grupo 1160728" transform="translate(5.501)">
              <path id="Trazado_994709" data-name="Trazado 994709" d="M912.082,1168.46a1,1,0,0,1-1-1v-11a1,1,0,0,1,2.008,0v11A1,1,0,0,1,912.082,1168.46Z" transform="translate(-911.078 -1155.452)" fill="#29275f"/>
            </g>
            <g id="Grupo_1160729" data-name="Grupo 1160729" transform="translate(0 5.504)">
              <path id="Trazado_994710" data-name="Trazado 994710" d="M909.381,1171.167h-11a1,1,0,1,1,0-2.007h11a1,1,0,1,1,0,2.007Z" transform="translate(-897.378 -1169.16)" fill="#29275f"/>
            </g>
          </g>
          <path id="Trazado_994711" data-name="Trazado 994711" d="M904.528,1094.11c-4.724,0-4.732,7.342,0,7.342S909.26,1094.11,904.528,1094.11Z" transform="translate(-899.535 -1094.11)" fill="#29275f"/>
          <path id="Trazado_994712" data-name="Trazado 994712" d="M950.145,1121.91c-7.874,0-7.887,12.237,0,12.237S958.032,1121.91,950.145,1121.91Z" transform="translate(-925.421 -1110.748)" fill="#29275f"/>
        </g>
      </g>
    </g>
  </g>
</svg>
