<svg xmlns="http://www.w3.org/2000/svg" xmlns:xlink="http://www.w3.org/1999/xlink" width="550" height="425" viewBox="0 0 550 425">
  <defs>
    <clipPath id="clip-path">
      <rect id="Rectángulo_412986" data-name="Rectángulo 412986" width="550" height="425" transform="translate(-1909 6110)" fill="#fff" stroke="#707070" stroke-width="1" opacity="0.38"/>
    </clipPath>
    <clipPath id="clip-path-2">
      <rect id="Rectángulo_412985" data-name="Rectángulo 412985" width="1112" height="626" transform="translate(-0.378 -0.333)"/>
    </clipPath>
  </defs>
  <g id="Enmascarar_grupo_1098791" data-name="Enmascarar grupo 1098791" transform="translate(1909 -6110)" clip-path="url(#clip-path)">
    <g id="Grupo_1160920" data-name="Grupo 1160920" transform="translate(-1966.622 5992.333)" clip-path="url(#clip-path-2)">
      <g id="Grupo_1160907" data-name="Grupo 1160907" transform="translate(44.546 67.328)">
        <path id="Trazado_995049" data-name="Trazado 995049" d="M-94.281,365.238c13.757,21.723,40.287,34.641,65.871,32.074s49.019-20.5,58.185-44.523c6.325-16.577,6.1-34.8,6.613-52.536s2.072-36.23,11.317-51.373,28.4-25.648,45.059-19.534c12.454,4.571,20.319,16.8,25.832,28.868s9.826,25.108,18.889,34.795c13.523,14.453,34.9,18.473,54.693,18.192,41.606-.592,83.469-17.755,110.751-49.173s38.319-77.239,24.851-116.61C314.91,107.787,281.46,79.4,243.848,66.47s-78.9-11.8-117.81-3.591C59.113,77-4.148,112.874-45.565,167.308S-132.184,305.388-94.281,365.238Z" transform="translate(121.598 -47.786)" fill="#15da7e" opacity="0.4"/>
        <path id="Trazado_995050" data-name="Trazado 995050" d="M362.618,856.745c-23.845-21.864-32.49-58.774-20.835-88.953S384.649,716.1,417,715.935c22.383-.111,44.348,9.018,66.62,6.8a67.356,67.356,0,0,0,53.623-38.548c6.573-14.577,7.643-30.984,12.248-46.3a103.446,103.446,0,0,1,133.143-67.879c39.836,13.9,68.336,52.609,75.338,94.215s-5.655,85.035-29.167,120.068-57.17,62.293-93.523,83.71c-41.618,24.519-88.291,42.2-136.573,43.666S403.319,894.061,362.618,856.745Z" transform="translate(-64.681 -356.122)" fill="#15da7e" opacity="0.4"/>
        <g id="Grupo_1160845" data-name="Grupo 1160845" transform="translate(47.036 106.732)">
          <path id="Trazado_995051" data-name="Trazado 995051" d="M265.54,434.931h-98.43a8.939,8.939,0,0,1-8.939-8.939V318.238a8.939,8.939,0,0,1,8.939-8.939h98.43a8.939,8.939,0,0,1,8.939,8.939V425.993A8.939,8.939,0,0,1,265.54,434.931Z" transform="translate(-158.172 -303.927)" fill="#eddeff" opacity="0.6"/>
          <path id="Trazado_995052" data-name="Trazado 995052" d="M275.808,425.652h-98.43a8.939,8.939,0,0,1-8.939-8.939V308.959a8.939,8.939,0,0,1,8.939-8.939h98.43a8.939,8.939,0,0,1,8.939,8.939V416.714A8.938,8.938,0,0,1,275.808,425.652Z" transform="translate(-162.495 -300.02)" fill="#a6abff"/>
          <g id="Grupo_1160844" data-name="Grupo 1160844" transform="translate(15.79 12.446)">
            <path id="Trazado_995053" data-name="Trazado 995053" d="M220.377,422.257H193.321a7.877,7.877,0,0,1-7.877-7.877V329.392a7.877,7.877,0,0,1,7.877-7.877h27.055a7.877,7.877,0,0,1,7.877,7.877v84.986A7.878,7.878,0,0,1,220.377,422.257Z" transform="translate(-185.444 -321.515)" fill="#3f3fd8"/>
            <g id="Grupo_1160843" data-name="Grupo 1160843" transform="translate(52.699 6.32)">
              <g id="Grupo_1160840" data-name="Grupo 1160840">
                <path id="Trazado_995054" data-name="Trazado 995054" d="M319.459,334.27H277.381a.92.92,0,1,1,0-1.84h42.078a.92.92,0,1,1,0,1.84Z" transform="translate(-276.461 -332.43)" fill="#3f3fd8"/>
              </g>
              <g id="Grupo_1160841" data-name="Grupo 1160841" transform="translate(0 12.138)">
                <path id="Trazado_995055" data-name="Trazado 995055" d="M319.459,355.233H277.381a.92.92,0,0,1,0-1.84h42.078a.92.92,0,0,1,0,1.84Z" transform="translate(-276.461 -353.393)" fill="#3f3fd8"/>
              </g>
              <g id="Grupo_1160842" data-name="Grupo 1160842" transform="translate(0 24.276)">
                <path id="Trazado_995056" data-name="Trazado 995056" d="M319.459,376.2H277.381a.92.92,0,0,1,0-1.84h42.078a.92.92,0,0,1,0,1.84Z" transform="translate(-276.461 -374.357)" fill="#3f3fd8"/>
              </g>
            </g>
          </g>
        </g>
        <g id="Grupo_1160848" data-name="Grupo 1160848" transform="translate(318.052 166.068)">
          <path id="Trazado_995057" data-name="Trazado 995057" d="M710.152,520.846H633.72a7.469,7.469,0,0,1-7.469-7.469V420.612a7.468,7.468,0,0,1,7.469-7.469h76.433a7.468,7.468,0,0,1,7.468,7.469v92.766A7.469,7.469,0,0,1,710.152,520.846Z" transform="translate(-626.251 -406.981)" fill="#eddeff" opacity="0.6"/>
          <path id="Trazado_995058" data-name="Trazado 995058" d="M721.959,510.2H645.526a7.468,7.468,0,0,1-7.469-7.469V409.968a7.468,7.468,0,0,1,7.469-7.468h76.433a7.468,7.468,0,0,1,7.468,7.468v92.766A7.468,7.468,0,0,1,721.959,510.2Z" transform="translate(-631.222 -402.5)" fill="#92f7ff"/>
          <g id="Grupo_1160846" data-name="Grupo 1160846" transform="translate(17.968 15.03)">
            <path id="Trazado_995059" data-name="Trazado 995059" d="M680.3,480.513H662.723a5.438,5.438,0,0,1-5.439-5.439V433.9a5.438,5.438,0,0,1,5.439-5.439H680.3a5.439,5.439,0,0,1,5.439,5.439v41.177A5.439,5.439,0,0,1,680.3,480.513Z" transform="translate(-657.284 -428.459)" fill="#35cfdb"/>
            <path id="Trazado_995060" data-name="Trazado 995060" d="M750.509,480.513h-17.58a5.439,5.439,0,0,1-5.438-5.439V433.9a5.438,5.438,0,0,1,5.438-5.439h17.58a5.439,5.439,0,0,1,5.439,5.439v41.177A5.439,5.439,0,0,1,750.509,480.513Z" transform="translate(-686.841 -428.459)" fill="#35cfdb"/>
          </g>
          <g id="Grupo_1160847" data-name="Grupo 1160847" transform="translate(22.942 74.383)">
            <path id="Trazado_995061" data-name="Trazado 995061" d="M723.366,534.3H667.541a1.667,1.667,0,0,1-1.667-1.667h0a1.667,1.667,0,0,1,1.667-1.667h55.825a1.667,1.667,0,0,1,1.667,1.667h0A1.667,1.667,0,0,1,723.366,534.3Z" transform="translate(-665.874 -530.968)" fill="#35cfdb"/>
            <path id="Trazado_995062" data-name="Trazado 995062" d="M723.031,548.419H669.663A1.667,1.667,0,0,1,668,546.752h0a1.667,1.667,0,0,1,1.667-1.667h53.369a1.667,1.667,0,0,1,1.667,1.667h0A1.667,1.667,0,0,1,723.031,548.419Z" transform="translate(-666.767 -536.911)" fill="#35cfdb"/>
            <path id="Trazado_995063" data-name="Trazado 995063" d="M721.936,561.852H676.6a1.667,1.667,0,0,1-1.667-1.667h0a1.667,1.667,0,0,1,1.667-1.667h45.339a1.667,1.667,0,0,1,1.667,1.667h0A1.668,1.668,0,0,1,721.936,561.852Z" transform="translate(-669.687 -542.567)" fill="#35cfdb"/>
          </g>
        </g>
        <g id="Grupo_1160849" data-name="Grupo 1160849" transform="translate(34.401 421.686)">
          <rect id="Rectángulo_412981" data-name="Rectángulo 412981" width="454.314" height="33.435" transform="translate(0 19.835)" fill="#09066a"/>
          <path id="Trazado_995064" data-name="Trazado 995064" d="M590.665,863.818H136.351a19.835,19.835,0,0,1,19.835-19.835H570.83a19.835,19.835,0,0,1,19.834,19.835Z" transform="translate(-136.351 -843.983)" fill="#3f3fd8"/>
        </g>
        <g id="Grupo_1160851" data-name="Grupo 1160851" transform="translate(92.689 163.86)">
          <path id="Trazado_995065" data-name="Trazado 995065" d="M381.534,532.9H251.773a14.752,14.752,0,0,1-14.752-14.752V426.882a14.752,14.752,0,0,1,14.752-14.752H381.534a14.752,14.752,0,0,1,14.752,14.752v91.262A14.752,14.752,0,0,1,381.534,532.9Z" transform="translate(-237.021 -404.347)" fill="#eddeff" opacity="0.6"/>
          <path id="Trazado_995066" data-name="Trazado 995066" d="M393.267,519.453H263.506A14.752,14.752,0,0,1,248.754,504.7V413.439a14.752,14.752,0,0,1,14.752-14.752H393.267a14.752,14.752,0,0,1,14.752,14.752V504.7A14.753,14.753,0,0,1,393.267,519.453Z" transform="translate(-241.961 -398.687)" fill="#35cfdb"/>
          <path id="Trazado_995067" data-name="Trazado 995067" d="M393.267,398.687H263.506a14.752,14.752,0,0,0-14.752,14.752v2.633H408.019v-2.633A14.752,14.752,0,0,0,393.267,398.687Z" transform="translate(-241.961 -398.687)" fill="#0f89a5"/>
          <g id="Grupo_1160850" data-name="Grupo 1160850" transform="translate(20.952 4.499)">
            <circle id="Elipse_11836" data-name="Elipse 11836" cx="4.194" cy="4.194" r="4.194" fill="#92f7ff"/>
            <circle id="Elipse_11837" data-name="Elipse 11837" cx="4.194" cy="4.194" r="4.194" transform="translate(16.957)" fill="#92f7ff"/>
            <circle id="Elipse_11838" data-name="Elipse 11838" cx="4.194" cy="4.194" r="4.194" transform="translate(33.912)" fill="#92f7ff"/>
          </g>
        </g>
        <g id="Grupo_1160852" data-name="Grupo 1160852" transform="translate(129.285 187.507)">
          <circle id="Elipse_11839" data-name="Elipse 11839" cx="22.26" cy="22.26" r="22.26" transform="translate(27.57)" fill="#92f7ff"/>
          <path id="Trazado_995068" data-name="Trazado 995068" d="M300.227,577.4h99.659c-3.764-23.268-24.639-41.072-49.83-41.072h0C324.866,536.327,303.991,554.132,300.227,577.4Z" transform="translate(-300.227 -480.28)" fill="#92f7ff"/>
        </g>
        <g id="Grupo_1160854" data-name="Grupo 1160854" transform="translate(350.554 110.787)">
          <path id="Trazado_995069" data-name="Trazado 995069" d="M787.5,430.749H695.486a13.1,13.1,0,0,1-13.1-13.1V330.537a13.1,13.1,0,0,1,13.1-13.1H787.5a13.1,13.1,0,0,1,13.1,13.1v87.111A13.1,13.1,0,0,1,787.5,430.749Z" transform="translate(-682.385 -311.407)" fill="#eddeff" opacity="0.6"/>
          <path id="Trazado_995070" data-name="Trazado 995070" d="M798.894,420.337H706.877a13.1,13.1,0,0,1-13.1-13.1V320.125a13.1,13.1,0,0,1,13.1-13.1h92.017a13.1,13.1,0,0,1,13.1,13.1v87.111A13.1,13.1,0,0,1,798.894,420.337Z" transform="translate(-687.181 -307.023)" fill="#3f3fd8"/>
          <g id="Grupo_1160853" data-name="Grupo 1160853" transform="translate(16.167 7.119)">
            <path id="Trazado_995071" data-name="Trazado 995071" d="M759.845,319.319a49.538,49.538,0,1,0,49.538,49.538A49.538,49.538,0,0,0,759.845,319.319Zm0,84.586a35.048,35.048,0,1,1,35.048-35.048A35.048,35.048,0,0,1,759.845,403.9Z" transform="translate(-710.307 -319.319)" fill="#f5fdff"/>
            <path id="Trazado_995072" data-name="Trazado 995072" d="M854.143,388.546c-.026-.094-.052-.188-.079-.282C854.091,388.358,854.117,388.452,854.143,388.546Z" transform="translate(-770.829 -348.345)" fill="none" stroke="#000" stroke-miterlimit="10" stroke-width="1.402"/>
            <path id="Trazado_995073" data-name="Trazado 995073" d="M853.29,385.764q-.058-.178-.118-.356C853.212,385.526,853.251,385.645,853.29,385.764Z" transform="translate(-770.453 -347.143)" fill="none" stroke="#000" stroke-miterlimit="10" stroke-width="1.402"/>
            <path id="Trazado_995074" data-name="Trazado 995074" d="M831.639,379.188h-.012a49.27,49.27,0,0,1,1.932,9.026L819.4,393.127c.008.312.023.622.023.936a35.051,35.051,0,0,1-49.06,32.126l-1.787,14.823a49.561,49.561,0,0,0,63.063-61.824Z" transform="translate(-734.838 -344.524)" fill="#35cfdb"/>
            <path id="Trazado_995075" data-name="Trazado 995075" d="M852.31,383.04c-.053-.138-.105-.276-.159-.413C852.2,382.764,852.258,382.9,852.31,383.04Z" transform="translate(-770.024 -345.972)" fill="none" stroke="#000" stroke-miterlimit="10" stroke-width="1.402"/>
            <path id="Trazado_995076" data-name="Trazado 995076" d="M855.9,397.22c0-.011,0-.022,0-.033C855.894,397.2,855.9,397.209,855.9,397.22Z" transform="translate(-771.599 -352.102)" fill="none" stroke="#000" stroke-miterlimit="10" stroke-width="1.402"/>
            <path id="Trazado_995077" data-name="Trazado 995077" d="M854.864,391.384c-.014-.065-.029-.13-.044-.195C854.834,391.254,854.849,391.319,854.864,391.384Z" transform="translate(-771.147 -349.576)" fill="none" stroke="#000" stroke-miterlimit="10" stroke-width="1.402"/>
            <path id="Trazado_995078" data-name="Trazado 995078" d="M855.449,394.276c-.006-.035-.012-.071-.018-.107C855.437,394.2,855.444,394.24,855.449,394.276Z" transform="translate(-771.404 -350.831)" fill="none" stroke="#000" stroke-miterlimit="10" stroke-width="1.402"/>
            <path id="Trazado_995079" data-name="Trazado 995079" d="M800.151,319.429v14.523a35.037,35.037,0,0,1,32.542,34.016l14.158-4.912A49.539,49.539,0,0,0,800.151,319.429Z" transform="translate(-748.132 -319.365)" fill="#92f7ff"/>
            <path id="Trazado_995080" data-name="Trazado 995080" d="M766.69,319.394c-.823-.041-1.648-.075-2.482-.075a49.527,49.527,0,0,0-43.537,25.887l10.876,10.939a35.053,35.053,0,0,1,32.661-22.336c.835,0,1.662.035,2.482.093Z" transform="translate(-714.67 -319.319)" fill="#a6abff"/>
          </g>
        </g>
        <circle id="Elipse_11840" data-name="Elipse 11840" cx="10.313" cy="10.313" r="10.313" transform="translate(70.894 323.808) rotate(-57.887)" fill="#7789f2"/>
        <ellipse id="Elipse_11841" data-name="Elipse 11841" cx="8.569" cy="8.569" rx="8.569" ry="8.569" transform="translate(132.976 255.245) rotate(-60.033)" fill="#3f3fd8"/>
        <g id="Grupo_1160855" data-name="Grupo 1160855" transform="translate(94.501 260.244)">
          <path id="Trazado_995081" data-name="Trazado 995081" d="M241.071,614.526a.92.92,0,0,1-.694-1.524l41.384-47.533a.92.92,0,0,1,1.388,1.208l-41.384,47.532A.916.916,0,0,1,241.071,614.526Z" transform="translate(-240.151 -565.153)" fill="#09066a"/>
        </g>
        <g id="Grupo_1160859" data-name="Grupo 1160859" transform="translate(64.907 183.988)">
          <g id="Grupo_1160856" data-name="Grupo 1160856">
            <path id="Trazado_995082" data-name="Trazado 995082" d="M194.158,438.87a.918.918,0,0,1-.6-.219l-4.2-3.581a.92.92,0,0,1,1.193-1.4l4.2,3.581a.92.92,0,0,1-.6,1.62Z" transform="translate(-189.038 -433.449)" fill="#f5fdff"/>
          </g>
          <g id="Grupo_1160857" data-name="Grupo 1160857" transform="translate(12.739 10.857)">
            <path id="Trazado_995083" data-name="Trazado 995083" d="M254.649,490.424a.918.918,0,0,1-.6-.219l-8.539-7.277a.92.92,0,0,1,1.193-1.4l8.539,7.277a.92.92,0,0,1-.6,1.62Zm-17.076-14.553a.916.916,0,0,1-.6-.219l-8.538-7.276a.92.92,0,0,1,1.193-1.4l8.538,7.276a.92.92,0,0,1-.6,1.62ZM220.5,461.317a.918.918,0,0,1-.6-.219l-8.538-7.276a.92.92,0,1,1,1.193-1.4l8.538,7.276a.92.92,0,0,1-.6,1.62Z" transform="translate(-211.04 -452.201)" fill="#f5fdff"/>
          </g>
          <g id="Grupo_1160858" data-name="Grupo 1160858" transform="translate(63.967 54.517)">
            <path id="Trazado_995084" data-name="Trazado 995084" d="M304.638,533.027a.918.918,0,0,1-.6-.219l-4.2-3.581a.92.92,0,0,1,1.193-1.4l4.2,3.581a.92.92,0,0,1-.6,1.62Z" transform="translate(-299.517 -527.606)" fill="#f5fdff"/>
          </g>
        </g>
        <circle id="Elipse_11842" data-name="Elipse 11842" cx="9.23" cy="9.23" r="9.23" transform="matrix(0.318, -0.948, 0.948, 0.318, 43.264, 180.563)" fill="#09066a"/>
        <g id="Grupo_1160862" data-name="Grupo 1160862" transform="translate(53.826 48.63)">
          <g id="Grupo_1160860" data-name="Grupo 1160860" transform="translate(0 0)">
            <circle id="Elipse_11843" data-name="Elipse 11843" cx="23.375" cy="23.375" r="23.375" transform="translate(0 46.148) rotate(-80.782)" fill="#a6abff"/>
            <circle id="Elipse_11844" data-name="Elipse 11844" cx="19.006" cy="19.006" r="19.006" transform="translate(5.013 42.535) rotate(-80.782)" fill="#7789f2"/>
          </g>
          <g id="Grupo_1160861" data-name="Grupo 1160861" transform="translate(18.623 12.771)">
            <path id="Trazado_995085" data-name="Trazado 995085" d="M209.141,237.088a18.088,18.088,0,0,1-6.979-1.606l1.343-4.523a12,12,0,0,0,2.835,1.049,18.382,18.382,0,0,0,2.8.459V227.88l-.492-.131a10.462,10.462,0,0,1-4.883-2.671,5.9,5.9,0,0,1-1.7-4.211,5.65,5.65,0,0,1,1.884-4.391,8.664,8.664,0,0,1,5.194-2v-3.113h2.786v3.113a17.968,17.968,0,0,1,6.062,1.606l-1.7,4.391a9.777,9.777,0,0,0-4.358-1.376v4.391l.393.1a9.822,9.822,0,0,1,4.768,2.539,5.816,5.816,0,0,1,1.687,4.177,6.11,6.11,0,0,1-1.786,4.588,8.482,8.482,0,0,1-5.063,2.13v2.458H209.14v-2.391Zm0-17.989q-1.7.361-1.7,1.736a1.506,1.506,0,0,0,.36,1.032,3.614,3.614,0,0,0,1.344.8Zm4.326,11.6a1.841,1.841,0,0,0-.311-1.114,2.773,2.773,0,0,0-1.229-.787v3.473Q213.466,231.878,213.466,230.7Z" transform="translate(-202.063 -211.364)" fill="#f5fdff"/>
          </g>
        </g>
        <g id="Grupo_1160868" data-name="Grupo 1160868" transform="translate(360.207 36.026)">
          <g id="Grupo_1160863" data-name="Grupo 1160863" transform="translate(33.006 7.55)">
            <path id="Trazado_995086" data-name="Trazado 995086" d="M765.875,196.649a4.106,4.106,0,1,1-4.106-4.106A4.106,4.106,0,0,1,765.875,196.649Z" transform="translate(-756.737 -191.616)" fill="#b6f2fc"/>
            <path id="Trazado_995087" data-name="Trazado 995087" d="M761.1,201.008a5.033,5.033,0,1,1,5.033-5.033A5.038,5.038,0,0,1,761.1,201.008Zm0-8.211a3.178,3.178,0,1,0,3.179,3.178A3.182,3.182,0,0,0,761.1,192.8Z" transform="translate(-756.064 -190.942)" fill="#b6f2fc"/>
          </g>
          <g id="Grupo_1160864" data-name="Grupo 1160864" transform="translate(14.319 28.686)">
            <path id="Trazado_995088" data-name="Trazado 995088" d="M728.822,237.512a5.033,5.033,0,1,1,5.032-5.033A5.039,5.039,0,0,1,728.822,237.512Zm0-8.211A3.178,3.178,0,1,0,732,232.48,3.182,3.182,0,0,0,728.822,229.3Z" transform="translate(-723.789 -227.447)" fill="#b6f2fc"/>
          </g>
          <g id="Grupo_1160867" data-name="Grupo 1160867">
            <g id="Grupo_1160865" data-name="Grupo 1160865" transform="translate(11.656)">
              <path id="Trazado_995089" data-name="Trazado 995089" d="M720.116,203.068a.927.927,0,0,1-.927-.927V178.829a.927.927,0,0,1,1.854,0v23.312A.926.926,0,0,1,720.116,203.068Z" transform="translate(-719.189 -177.902)" fill="#b6f2fc"/>
            </g>
            <g id="Grupo_1160866" data-name="Grupo 1160866" transform="translate(0 11.656)">
              <path id="Trazado_995090" data-name="Trazado 995090" d="M723.3,199.888H699.985a.927.927,0,0,1,0-1.854H723.3a.927.927,0,1,1,0,1.854Z" transform="translate(-699.058 -198.034)" fill="#b6f2fc"/>
            </g>
          </g>
        </g>
        <path id="Trazado_995091" data-name="Trazado 995091" d="M901.275,253.444a32.519,32.519,0,0,0-31.75-32.469l-.021,0a.706.706,0,0,0-.086,0h-.028a.89.89,0,0,0-.141,0c-.154,0-.307-.012-.461-.012a32.488,32.488,0,0,0,0,64.976h0c.162,0,.322-.01.484-.012.024,0,.045.012.07.012h0a.881.881,0,0,0,.16-.014l.022,0A32.52,32.52,0,0,0,901.275,253.444Zm-4.951-1.175A33.346,33.346,0,0,0,893.1,239.04q1.588.445,3.218.955a30.422,30.422,0,0,1,3.086,12.274Zm-1.84,0h-9.831c-.006-.223,0-.445-.012-.668a40.947,40.947,0,0,0-3.821-15.261c3.135.492,6.434,1.164,9.882,2.048A31.452,31.452,0,0,1,894.484,252.269Zm-24.776-28.758a50.447,50.447,0,0,1,7.838,10.542c-2.73-.325-5.346-.523-7.838-.611Zm-1.84,9.884c-2.465-.037-4.8.029-7.01.176a50.827,50.827,0,0,1,7.01-9.483Zm0,1.808v17.066h-12.55c.006-.188,0-.376.009-.564a39.565,39.565,0,0,1,4.524-16.275C862.29,235.239,864.976,235.152,867.868,235.2Zm0,18.907v18.971c-2.3-.089-4.727-.269-7.278-.568a39.145,39.145,0,0,1-5.284-18.4h12.562Zm0,20.8v7.723a60.971,60.971,0,0,1-6.119-8.151C863.859,274.692,865.905,274.837,867.868,274.906Zm1.84.032c.43.006.871.023,1.293.023,1.8,0,3.517-.058,5.17-.158a62.069,62.069,0,0,1-6.463,8.437Zm0-1.808V254.109h13.117a39.336,39.336,0,0,1-5.529,18.823C874.969,273.1,872.435,273.179,869.708,273.13Zm0-20.861V235.25c2.776.107,5.741.355,8.876.774a39.325,39.325,0,0,1,4.22,15.682c.009.188,0,.376.009.564Zm10.143-17.915a51.193,51.193,0,0,0-7.594-10.854,30.553,30.553,0,0,1,17.125,12.677C886.073,235.387,882.894,234.79,879.851,234.354Zm-21.252-.6a76.95,76.95,0,0,0-9.157,1.408A30.518,30.518,0,0,1,865.874,223.5,51.357,51.357,0,0,0,858.6,233.755Zm-4.8,2.389c1.193-.192,2.475-.365,3.84-.511A41.177,41.177,0,0,0,853.49,251.6c-.01.223-.005.445-.012.668h-9.832a31.428,31.428,0,0,1,4.388-14.946C849.775,236.889,851.693,236.482,853.8,236.144Zm-12,16.125H838.17a30.422,30.422,0,0,1,3.448-12.979c1.127-.419,2.443-.862,3.93-1.3A33.3,33.3,0,0,0,841.806,252.269Zm-.012,1.84a33.3,33.3,0,0,0,4.192,15.591q-1.876-.5-3.809-1.081a30.432,30.432,0,0,1-4.021-14.51Zm1.84,0h9.831a40.462,40.462,0,0,0,4.881,18.109c-3.117-.438-6.4-1.05-9.841-1.877A31.431,31.431,0,0,1,843.634,254.109Zm15.817,20.1a61,61,0,0,0,6.7,9.261A30.486,30.486,0,0,1,850.087,272.6C853.346,273.32,856.461,273.836,859.451,274.21Zm18.977.43a77.483,77.483,0,0,0,9.052-1.326,30.458,30.458,0,0,1-15.505,10.157A61.448,61.448,0,0,0,878.429,274.641Zm5.341-2.45c-1.311.21-2.739.4-4.257.55a40.658,40.658,0,0,0,5.154-18.632h9.83a31.415,31.415,0,0,1-5.383,17.009C887.485,271.512,885.706,271.88,883.769,272.191Zm12.567-18.082h3.083a30.454,30.454,0,0,1-4.483,15.3c-.959.335-2.034.677-3.209,1.014A33.3,33.3,0,0,0,896.336,254.109ZM895.069,237.7q-1.579-.465-3.125-.875a32.676,32.676,0,0,0-11.339-11.654A30.835,30.835,0,0,1,895.069,237.7ZM858.6,224.543a32.612,32.612,0,0,0-11.792,11.244c-1.391.359-2.654.733-3.794,1.1A30.793,30.793,0,0,1,858.6,224.543Zm-14.934,46.428q1.873.53,3.7.983A32.576,32.576,0,0,0,858.6,282.345,30.789,30.789,0,0,1,843.668,270.971Zm36.938,10.748a32.586,32.586,0,0,0,9.667-9.044c1.076-.27,2.075-.551,3.007-.832A30.811,30.811,0,0,1,880.606,281.719Z" transform="translate(-396.629 -160.002)" fill="#92f7ff"/>
        <g id="Grupo_1160872" data-name="Grupo 1160872" transform="translate(493.566 208.216)" opacity="0.9">
          <g id="Grupo_1160871" data-name="Grupo 1160871">
            <g id="Grupo_1160869" data-name="Grupo 1160869" transform="translate(11.656)">
              <path id="Trazado_995092" data-name="Trazado 995092" d="M950.444,500.461a.927.927,0,0,1-.927-.927V476.221a.927.927,0,1,1,1.854,0v23.313A.927.927,0,0,1,950.444,500.461Z" transform="translate(-949.517 -475.294)" fill="#eddeff"/>
            </g>
            <g id="Grupo_1160870" data-name="Grupo 1160870" transform="translate(0 11.656)">
              <path id="Trazado_995093" data-name="Trazado 995093" d="M953.625,497.28H930.312a.927.927,0,0,1,0-1.854h23.313a.927.927,0,0,1,0,1.854Z" transform="translate(-929.385 -495.426)" fill="#eddeff"/>
            </g>
          </g>
          <path id="Trazado_995094" data-name="Trazado 995094" d="M970.308,527.216l1.959,14.818a2.036,2.036,0,0,0,3.259,1.348l11.853-9.105a2.036,2.036,0,0,0-.462-3.5L973.1,525.068A2.036,2.036,0,0,0,970.308,527.216Z" transform="translate(-946.606 -496.183)" fill="#eddeff"/>
        </g>
        <g id="Grupo_1160874" data-name="Grupo 1160874" transform="translate(192.418 72.134)">
          <g id="Grupo_1160873" data-name="Grupo 1160873" transform="translate(0 32.033)">
            <path id="Trazado_995095" data-name="Trazado 995095" d="M414.3,305.655a5.033,5.033,0,1,1,5.033-5.033A5.039,5.039,0,0,1,414.3,305.655Zm0-8.211a3.178,3.178,0,1,0,3.178,3.179A3.182,3.182,0,0,0,414.3,297.444Z" transform="translate(-409.266 -295.589)" fill="#eddeff"/>
          </g>
          <path id="Trazado_995096" data-name="Trazado 995096" d="M465.394,311.142a5.033,5.033,0,1,0,5.033,5.033A5.038,5.038,0,0,0,465.394,311.142Z" transform="translate(-430.777 -270.104)" fill="#eddeff"/>
          <path id="Trazado_995097" data-name="Trazado 995097" d="M454.384,249.493l-15.415-8.9a2.425,2.425,0,0,0-3.637,2.1v17.8a2.425,2.425,0,0,0,3.637,2.1l15.415-8.9A2.425,2.425,0,0,0,454.384,249.493Z" transform="translate(-420.24 -240.265)" fill="#eddeff"/>
        </g>
        <g id="Grupo_1160875" data-name="Grupo 1160875" transform="translate(38.459 258.536)">
          <circle id="Elipse_11845" data-name="Elipse 11845" cx="4.106" cy="4.106" r="4.106" transform="translate(0 21.211)" fill="#eddeff"/>
          <path id="Trazado_995098" data-name="Trazado 995098" d="M177.824,626.321a5.033,5.033,0,1,0,5.033,5.033A5.039,5.039,0,0,0,177.824,626.321Z" transform="translate(-155.75 -589.197)" fill="#eddeff"/>
          <path id="Trazado_995099" data-name="Trazado 995099" d="M168.9,565.84l8.9,15.415a2.425,2.425,0,0,0,4.2,0l8.9-15.415a2.425,2.425,0,0,0-2.1-3.637H171A2.425,2.425,0,0,0,168.9,565.84Z" transform="translate(-153.973 -562.203)" fill="#eddeff"/>
        </g>
        <g id="Grupo_1160877" data-name="Grupo 1160877" transform="translate(111.134 59.687)">
          <g id="Grupo_1160876" data-name="Grupo 1160876">
            <circle id="Elipse_11846" data-name="Elipse 11846" cx="30.304" cy="30.304" r="30.304" fill="#92f7ff"/>
            <circle id="Elipse_11847" data-name="Elipse 11847" cx="24.64" cy="24.64" r="24.64" transform="translate(5.664 5.664)" fill="#35cfdb"/>
          </g>
          <path id="Trazado_995100" data-name="Trazado 995100" d="M310.01,241.684c0-2.022-.005-4.006-.008-6.049l3.776-.012c.005,1.082.012,2.136.016,3.19,0,.873.023,1.745,0,2.616-.011.357.133.411.442.468a39.929,39.929,0,0,1,4.14.86,6.191,6.191,0,0,1,4.105,3.409,6.4,6.4,0,0,1-2.512,8.346c-.026.017-.039.055-.078.114.118.038.223.076.332.106,3.537.994,5.17,3.223,5.045,6.9-.016.47-.062.94-.124,1.406a7.218,7.218,0,0,1-5.585,6.414c-1.82.515-3.719.746-5.687,1.126,0,1.9,0,3.968,0,6.1l-3.777.013c-.008-2.055-.014-4.087-.022-6.183l-3.019-.03c0,2.073.007,4.108.01,6.216l-3.776.014c-.008-2.1-.015-4.17-.023-6.3l-7.628-.008.74-4.5c.9,0,1.776.023,2.644-.012,1.089-.045,1.527-.534,1.525-1.626q-.007-4.344-.017-8.688-.007-3.794-.011-7.588a1.846,1.846,0,0,0-1.864-2.028c-1.006-.062-2.017-.039-3.069-.054,0-1.325-.005-2.645-.008-4.01l7.623-.017c0-2.1,0-4.142,0-6.231l3.777-.01c.006,2.039.012,4.037.019,6.088ZM307.124,265.9c1.011,0,2,.02,2.992-.013a13.577,13.577,0,0,0,5.472-1.034,3.325,3.325,0,0,0,2.139-3.036,3.245,3.245,0,0,0-1.931-3.215,9.906,9.906,0,0,0-2.323-.777,28.027,28.027,0,0,0-6.364-.264C307.114,260.337,307.119,263.088,307.124,265.9Zm-.04-19.832c.006,2.654.011,5.151.016,7.672.591.007,1.129.028,1.668.017a12.887,12.887,0,0,0,5.033-.775,3.138,3.138,0,0,0,2.133-2.944,3.087,3.087,0,0,0-1.965-3.106,6.009,6.009,0,0,0-1.843-.552C310.484,246.227,308.833,246.173,307.084,246.072Z" transform="translate(-280.119 -225.864)" fill="#f5fdff"/>
        </g>
        <g id="Grupo_1160880" data-name="Grupo 1160880" transform="translate(364.905 366.683)">
          <ellipse id="Elipse_11848" data-name="Elipse 11848" cx="22.482" cy="6.439" rx="22.482" ry="6.439" transform="translate(0.001 57.101)" fill="#3737b7" opacity="0.59"/>
          <g id="Grupo_1160879" data-name="Grupo 1160879">
            <g id="Grupo_1160878" data-name="Grupo 1160878" transform="translate(1.817 24.529)">
              <ellipse id="Elipse_11849" data-name="Elipse 11849" cx="20.679" cy="7.226" rx="20.679" ry="7.226" fill="#09066a"/>
              <path id="Trazado_995101" data-name="Trazado 995101" d="M731.263,812.056c-10.076,0-18.465-2.519-20.3-5.853l6.466,23.511a10.331,10.331,0,0,0,9.993,7.537h7.686a10.331,10.331,0,0,0,9.993-7.537l6.466-23.511C749.728,809.537,741.339,812.056,731.263,812.056Z" transform="translate(-710.584 -797.603)" fill="#a6abff"/>
              <path id="Trazado_995102" data-name="Trazado 995102" d="M734.529,808.371a44.061,44.061,0,0,0,15.555-2.468c-.452-2.265-2.355-4.3-4.413-5.581-7.478-4.644-21.7-4.22-26.952,5.478C722.511,807.372,728.185,808.371,734.529,808.371Z" transform="translate(-713.85 -793.918)" fill="#3f3fd8"/>
            </g>
            <path id="Trazado_995103" data-name="Trazado 995103" d="M746.308,766.9a3.893,3.893,0,0,0-1.941-2.42c-1.827-.969-4.293-.383-6.6,1.571-3.469,2.943-5.569,7.053-7.082,11.167a82.616,82.616,0,0,0-.135-22.333c-.2-1.389-1.1-5.9-4.419-5.9h-.044c-2.51.031-3.87,2.763-4.306,5.308-1.48,8.634,1.225,15.907,4.375,23.449-.426-.642-.853-1.267-1.276-1.888a63.15,63.15,0,0,1-4.584-7.491,17.555,17.555,0,0,0-3.512-5.276,6.224,6.224,0,0,0-6.178-1.584c-2.741,1.014-3.835,4.328-3.311,6.945.569,2.829,2.56,5.04,4.231,6.651a38.9,38.9,0,0,0,17.265,9.64,2.7,2.7,0,0,0,.664.075c3.794,0,12.829-5.934,15.76-11.307C746.134,771.833,746.967,769.1,746.308,766.9Z" transform="translate(-707.171 -748.986)" fill="#35cfdb"/>
            <path id="Trazado_995104" data-name="Trazado 995104" d="M730.971,837.25h4.136c.112,0,.222-.01.334-.014-10.453-6.377-11.73-17.823-11.185-25.609-6.773-.853-11.906-2.905-13.293-5.425l6.466,23.511a10.331,10.331,0,0,0,9.993,7.537h3.549Z" transform="translate(-708.767 -773.074)" fill="#a6abff" opacity="0.41"/>
          </g>
        </g>
        <g id="Grupo_1160890" data-name="Grupo 1160890" transform="translate(375.308 267.931)">
          <ellipse id="Elipse_11850" data-name="Elipse 11850" cx="30.177" cy="10.546" rx="30.177" ry="10.546" transform="translate(34.562 97.359)" fill="#35cfdb"/>
          <g id="Grupo_1160882" data-name="Grupo 1160882" transform="translate(0 31.413)">
            <path id="Trazado_995105" data-name="Trazado 995105" d="M734.964,633.785c-2.593-2.34-7.129-.676-8.763,2.412s-1.126,6.856-.19,10.222a46.33,46.33,0,0,0,13.511,21.847c-5.052.5-8.666,6.047-7.943,11.072s4.977,9.076,9.832,10.56,10.161.734,14.929-1.01c-4.226,4.241-1.4,12.048,3.743,15.12s11.479,2.957,17.454,3.337,12.54,1.7,16.127,6.492a102.9,102.9,0,0,0,.82-29.679c-.456-3.865-1.268-7.979-4.046-10.706s-8.134-3.065-10.145.268c.178-6.78.2-14.1-3.761-19.611s-13.534-7.244-17.19-1.532C757.368,641.325,745.533,632.782,734.964,633.785Z" transform="translate(-725.138 -632.684)" fill="#7789f2"/>
            <g id="Grupo_1160881" data-name="Grupo 1160881" transform="translate(0.806 2.512)">
              <path id="Trazado_995106" data-name="Trazado 995106" d="M794.764,712.367a201.965,201.965,0,0,0-67.3-75.345,6.028,6.028,0,0,0-.675,1c-.1.192-.17.393-.256.589a200.081,200.081,0,0,1,67.748,76.867C794.458,714.444,794.617,713.407,794.764,712.367Z" transform="translate(-726.531 -637.022)" fill="#3f3fd8"/>
              <path id="Trazado_995107" data-name="Trazado 995107" d="M755.467,644.654q-.883-.821-1.838-1.556a53.028,53.028,0,0,0,3.305,19.2,36.308,36.308,0,0,0-24.455-2.873c.289.564.587,1.124.9,1.676a33.961,33.961,0,0,1,24.908,4.085.92.92,0,0,0,1.333-1.146A50.935,50.935,0,0,1,755.467,644.654Z" transform="translate(-729.035 -639.58)" fill="#3f3fd8"/>
              <path id="Trazado_995108" data-name="Trazado 995108" d="M783.377,700.494a.921.921,0,0,0,.819-1.341,64.144,64.144,0,0,1-6.228-35.319,13.329,13.329,0,0,0-1.742-.946,66.891,66.891,0,0,0,5.042,34.416,61.213,61.213,0,0,0-45.014-5.319c0,.023,0,.045.006.067a10.779,10.779,0,0,0,.4,1.712c14.89-4.241,32.212-1.925,46.244,6.6A.909.909,0,0,0,783.377,700.494Z" transform="translate(-730.624 -647.912)" fill="#3f3fd8"/>
              <path id="Trazado_995109" data-name="Trazado 995109" d="M811.951,702.575a6.842,6.842,0,0,0-.881-.717,54.3,54.3,0,0,0-3.2,26.623,49.361,49.361,0,0,0-31.633-2.395,12.142,12.142,0,0,0,.665,1.727,47.379,47.379,0,0,1,31.735,3.036.92.92,0,0,0,1.3-.983,52.288,52.288,0,0,1,2.579-26.643C812.334,703,812.159,702.779,811.951,702.575Z" transform="translate(-747.458 -664.318)" fill="#3f3fd8"/>
            </g>
          </g>
          <g id="Grupo_1160884" data-name="Grupo 1160884" transform="translate(50.195)">
            <path id="Trazado_995110" data-name="Trazado 995110" d="M827.344,684.63c4.429-6.294,2.043-15.148-2.08-21.647s-9.844-12.118-12.413-19.372-.305-17.189,7.084-19.339c2.175-.633,4.853-.7,6.083-2.6.963-1.489.555-3.438.148-5.163-2.04-8.661-3.1-18.069.49-26.212s13.219-14.161,21.54-11.011c9.071,3.433,11.84,15.518,9.083,24.816-1.676,5.654-4.7,12.226-1.118,16.911,2.195,2.87,6.182,3.785,8.668,6.407,2.64,2.784,3.116,7.1,2.12,10.808s-3.245,6.933-5.543,10.006A246.7,246.7,0,0,1,827.344,684.63Z" transform="translate(-811.832 -578.43)" fill="#3f3fd8"/>
            <g id="Grupo_1160883" data-name="Grupo 1160883" transform="translate(4.494 0.071)">
              <path id="Trazado_995111" data-name="Trazado 995111" d="M857.857,578.909c0-.027-.015-.048-.018-.074a13.152,13.152,0,0,0-1.715-.282.9.9,0,0,0-.1.441,259.615,259.615,0,0,1-15.13,99.52,13.083,13.083,0,0,1-2.265,6.168c.983-.872,1.955-1.763,2.929-2.65A261.411,261.411,0,0,0,857.857,578.909Z" transform="translate(-827.605 -578.553)" fill="#7789f2"/>
              <path id="Trazado_995112" data-name="Trazado 995112" d="M855.432,627.144a.891.891,0,0,0,.109.006.921.921,0,0,0,.808-.479,122.423,122.423,0,0,1,12.8-18.807,25.665,25.665,0,0,0,.367-3.3,126.854,126.854,0,0,0-13.693,19.269c-2.715-9.293-7.61-20.941-16.253-30.1q-.538.8-.992,1.65c7.093,7.733,12.7,18.519,16.071,31.079A.92.92,0,0,0,855.432,627.144Z" transform="translate(-827.588 -584.946)" fill="#7789f2"/>
              <path id="Trazado_995113" data-name="Trazado 995113" d="M865.746,642.508c-.1-.117-.218-.221-.314-.346a7.8,7.8,0,0,1-.743-1.2,99.494,99.494,0,0,0-14.51,20.98,52.749,52.749,0,0,0-16.328-33.261q.158,1.482.391,2.958a50.579,50.579,0,0,1,14.293,33.884.919.919,0,0,0,.729.883.948.948,0,0,0,.191.02.92.92,0,0,0,.833-.53A97.374,97.374,0,0,1,865.746,642.508Z" transform="translate(-825.596 -599.656)" fill="#7789f2"/>
              <path id="Trazado_995114" data-name="Trazado 995114" d="M869.15,662.778a8.608,8.608,0,0,0-1.052-1.4c-.021-.022-.045-.039-.066-.061a112.585,112.585,0,0,0-27.663,31.834,50.048,50.048,0,0,0-19.176-34.05,9.823,9.823,0,0,0-1.6,1.089,47.877,47.877,0,0,1,19.142,36.136.92.92,0,0,0,1.728.411A110.639,110.639,0,0,1,869.15,662.778Z" transform="translate(-819.593 -612.464)" fill="#7789f2"/>
            </g>
          </g>
          <g id="Grupo_1160886" data-name="Grupo 1160886" transform="translate(69.039 53.1)">
            <path id="Trazado_995115" data-name="Trazado 995115" d="M844.377,726.165a58.68,58.68,0,0,1,64.756-55.716c-.967,14.837-10.346,28.2-22.4,36.9S860.154,720.658,844.377,726.165Z" transform="translate(-844.377 -670.141)" fill="#09066a"/>
            <g id="Grupo_1160885" data-name="Grupo 1160885" transform="translate(0.177 1.324)">
              <path id="Trazado_995116" data-name="Trazado 995116" d="M907.084,692.823c2.2-4.159,5.381-11.469,5.407-18.916-.628.174-1.256.342-1.878.536-.2,6.968-3.245,14.526-6.534,19.965a.92.92,0,0,0,1.223,1.286,34.619,34.619,0,0,1,21.923-3c.349-.555.677-1.121,1-1.687A36.531,36.531,0,0,0,907.084,692.823Z" transform="translate(-869.633 -673.051)" fill="#3f3fd8"/>
              <path id="Trazado_995117" data-name="Trazado 995117" d="M909.159,672.428a281.51,281.51,0,0,0-64.476,54.638q1.783-.622,3.541-1.23a279.772,279.772,0,0,1,60.66-51.083C909,673.983,909.088,673.207,909.159,672.428Z" transform="translate(-844.683 -672.428)" fill="#3f3fd8"/>
              <path id="Trazado_995118" data-name="Trazado 995118" d="M873.692,715.744a43.338,43.338,0,0,0,8.642-29.766q-.91.573-1.8,1.177c.563,10.808-3.233,22.359-10.268,29.732a.92.92,0,0,0,.955,1.508,44.437,44.437,0,0,1,22.255-1.669q1.1-.688,2.177-1.412A45.072,45.072,0,0,0,873.692,715.744Z" transform="translate(-855.347 -678.133)" fill="#3f3fd8"/>
            </g>
          </g>
          <path id="Trazado_995119" data-name="Trazado 995119" d="M820.175,771.421c9.054,0,17.17-1.395,22.7-3.6-.66-3.306-3.438-6.28-6.439-8.144-10.912-6.776-31.667-6.158-39.332,7.994C802.637,769.963,810.917,771.421,820.175,771.421Z" transform="translate(-755.436 -652.97)" fill="#09066a"/>
          <g id="Grupo_1160888" data-name="Grupo 1160888" transform="translate(21.974 8.894)">
            <g id="Grupo_1160887" data-name="Grupo 1160887" transform="translate(10.543 5.305)">
              <path id="Trazado_995120" data-name="Trazado 995120" d="M815.585,698.036a.921.921,0,0,1-.866-.61l-33.367-93.241a.92.92,0,0,1,1.732-.62l33.367,93.241a.92.92,0,0,1-.556,1.176A.907.907,0,0,1,815.585,698.036Z" transform="translate(-781.299 -602.954)" fill="#92f7ff"/>
            </g>
            <path id="Trazado_995121" data-name="Trazado 995121" d="M790.281,633.536A55.689,55.689,0,0,1,771.133,606a15.36,15.36,0,0,1-.876-6.748,5.739,5.739,0,0,1,9.984-3.627,15.872,15.872,0,0,1,3.6,5.439A74.454,74.454,0,0,1,790.281,633.536Z" transform="translate(-766.063 -593.791)" fill="#92f7ff"/>
            <path id="Trazado_995122" data-name="Trazado 995122" d="M791.531,680.889a40.023,40.023,0,0,0-15.872-16.7c-2.268-1.288-4.806-2.379-7.4-2.112S763.1,664.395,763.09,667c-.013,2.838,2.718,4.831,5.215,6.18C775.911,677.293,784.189,680.156,791.531,680.889Z" transform="translate(-763.09 -622.522)" fill="#92f7ff"/>
            <path id="Trazado_995123" data-name="Trazado 995123" d="M814.849,668.159a83.848,83.848,0,0,1,.477-34.346c.631-2.809,2.259-6.227,5.127-5.978s3.882,3.891,3.934,6.759C824.59,645.668,821.008,656.777,814.849,668.159Z" transform="translate(-784.229 -608.118)" fill="#92f7ff"/>
            <path id="Trazado_995124" data-name="Trazado 995124" d="M804.823,725.717a42.655,42.655,0,0,0-26.416-21.328,10.709,10.709,0,0,0-4.631-.46,4.37,4.37,0,0,0-3.5,2.768c-.829,2.718,1.92,5.115,4.389,6.523C784.085,718.59,794.576,722.068,804.823,725.717Z" transform="translate(-766.053 -640.116)" fill="#92f7ff"/>
            <path id="Trazado_995125" data-name="Trazado 995125" d="M831.211,714.818a65.731,65.731,0,0,1,3.378-29.721c.856-2.392,2.56-5.177,5.08-4.848,2.681.35,3.495,3.824,3.416,6.526A40.762,40.762,0,0,1,831.211,714.818Z" transform="translate(-791.581 -630.179)" fill="#92f7ff"/>
          </g>
          <g id="Grupo_1160889" data-name="Grupo 1160889" transform="translate(35.114 109.909)">
            <ellipse id="Elipse_11851" data-name="Elipse 11851" cx="22.482" cy="6.439" rx="22.482" ry="6.439" transform="translate(6.223 41.046)" fill="#3737b7" opacity="0.59"/>
            <path id="Trazado_995126" data-name="Trazado 995126" d="M815.41,776.8c-14.7,0-26.946-3.676-29.626-8.541l9.435,34.31a15.076,15.076,0,0,0,14.583,11h11.216a15.077,15.077,0,0,0,14.583-11l9.435-34.31C842.355,773.122,830.114,776.8,815.41,776.8Z" transform="translate(-785.784 -768.257)" fill="#92f7ff"/>
            <path id="Trazado_995127" data-name="Trazado 995127" d="M809.8,813.566h11.216a15.27,15.27,0,0,0,1.982-.141c-11.722-11.279-17.355-26-20.061-37.569-8.763-1.393-15.285-4.206-17.154-7.6l9.435,34.31A15.076,15.076,0,0,0,809.8,813.566Z" transform="translate(-785.784 -768.257)" fill="#35cfdb" opacity="0.35"/>
          </g>
        </g>
        <g id="Grupo_1160899" data-name="Grupo 1160899" transform="translate(135.95 120.172)">
          <rect id="Rectángulo_412982" data-name="Rectángulo 412982" width="92.973" height="14.945" transform="translate(91.674 245.122)" fill="#fcc5be"/>
          <rect id="Rectángulo_412983" data-name="Rectángulo 412983" width="92.973" height="7.711" transform="translate(91.674 245.122)" fill="#fcc5be"/>
          <path id="Trazado_995128" data-name="Trazado 995128" d="M451.124,764.828l-26.482,45.831H561.594s.276-24-17.676-45.831Z" transform="translate(-359.271 -509.145)" fill="#09066a"/>
          <g id="Grupo_1160891" data-name="Grupo 1160891" transform="translate(0.013 194.858)">
            <rect id="Rectángulo_412984" data-name="Rectángulo 412984" width="40.86" height="90.842" transform="matrix(0.811, 0.586, -0.586, 0.811, 53.216, 0)" fill="#fcc5be"/>
            <path id="Trazado_995129" data-name="Trazado 995129" d="M379.382,679.46l36.643,19.056,10.246-14.176L393.156,660.4Z" transform="translate(-340.229 -660.04)" fill="#fcc5be"/>
          </g>
          <path id="Trazado_995130" data-name="Trazado 995130" d="M580.854,439.819c9.617,7.035,16.018,18.58,16.019,30.5s-6.762,23.8-17.407,29.154-24.727,3.427-32.988-5.161c1.9-12.146,3.895-24.586,9.911-35.306S573.38,439.468,580.854,439.819Z" transform="translate(-410.564 -372.311)" fill="#09066a"/>
          <path id="Trazado_995131" data-name="Trazado 995131" d="M443.105,444.667c-5.209,10.138-7.559,22.026-4.934,33.118s10.681,21.125,21.527,24.63,24.092-.549,29.941-10.331c-7.917-8.375-12.439-19.325-18.919-28.855S454.382,445,443.105,444.667Z" transform="translate(-364.512 -374.356)" fill="#09066a"/>
          <g id="Grupo_1160892" data-name="Grupo 1160892" transform="translate(97.994 109.228)">
            <path id="Trazado_995132" data-name="Trazado 995132" d="M527.11,511.882l10.453,32.653h19.186l-59.164,63.713-16.6-63.713h14l5.374-32.653Z" transform="translate(-480.986 -511.882)" fill="#fcc5be"/>
            <path id="Trazado_995133" data-name="Trazado 995133" d="M548.353,537.126l-8.082-25.244H513.518l-1.269,7.711C518.008,528.6,528.818,538.383,548.353,537.126Z" transform="translate(-494.148 -511.882)" fill="#fcc5be"/>
            <path id="Trazado_995134" data-name="Trazado 995134" d="M551.772,561.938l16.161-17.4H548.747l-10.453-32.653H511.54l-3.99,24.242Z" transform="translate(-492.169 -511.882)" fill="#fcc5be" opacity="0.4"/>
          </g>
          <path id="Trazado_995135" data-name="Trazado 995135" d="M441.551,568.277h-15.9a25.866,25.866,0,0,0-19.394,8.751l-39.608,48.841,57.937,31.037Z" transform="translate(-334.855 -426.396)" fill="#3f3fd8"/>
          <path id="Trazado_995136" data-name="Trazado 995136" d="M396.787,644.878l40.486,21.689,12.778-66.75-6.318-8.592Z" transform="translate(-347.544 -436.058)" fill="#3f3fd8" opacity="0.49"/>
          <path id="Trazado_995137" data-name="Trazado 995137" d="M589.918,393.662s20.649,21.455,1.719,40.837S574.5,388.277,574.5,388.277Z" transform="translate(-422.344 -350.616)" fill="#09066a"/>
          <path id="Trazado_995138" data-name="Trazado 995138" d="M510.081,458.336h-8.533a34.277,34.277,0,0,1-34.277-34.277L465.43,366.3h77.088l1.84,57.759A34.277,34.277,0,0,1,510.081,458.336Z" transform="translate(-376.443 -341.364)" fill="#fcc5be"/>
          <g id="Grupo_1160893" data-name="Grupo 1160893" transform="translate(134.432 73.814)">
            <path id="Trazado_995139" data-name="Trazado 995139" d="M545.349,470.369a.92.92,0,0,1-.6-1.613,10.619,10.619,0,0,0-.47-16.391.92.92,0,0,1,1.128-1.454,12.457,12.457,0,0,1,.551,19.231A.917.917,0,0,1,545.349,470.369Z" transform="translate(-543.919 -450.718)" fill="#d6938e"/>
          </g>
          <circle id="Elipse_11852" data-name="Elipse 11852" cx="11.781" cy="11.781" r="11.781" transform="translate(95.108 71.859)" fill="#fcc5be" opacity="0.7"/>
          <path id="Trazado_995140" data-name="Trazado 995140" d="M574.239,459.122a11.7,11.7,0,0,0,13.534,11.636,34.164,34.164,0,0,0,2.393-12.58l-.325-10.19a11.758,11.758,0,0,0-15.6,11.134Z" transform="translate(-422.251 -375.483)" fill="#fcc5be" opacity="0.7"/>
          <path id="Trazado_995141" data-name="Trazado 995141" d="M506.625,345.3c4.336-2.3,8.78-4.685,11.967-8.417s4.87-9.175,2.86-13.652a12.781,12.781,0,0,1,3.656,16.053C522.2,344.54,515.1,347.009,506.625,345.3Z" transform="translate(-393.786 -323.232)" fill="#09066a"/>
          <path id="Trazado_995142" data-name="Trazado 995142" d="M481.282,357.046c3.228,11.536-1.445,24.442-10.2,32.613s-23.773,14.835-35.752,14.9c-5.556-12.036-7.526-28.878,2.189-37.9S470.647,354.244,481.282,357.046Z" transform="translate(-361.819 -337.065)" fill="#09066a"/>
          <path id="Trazado_995143" data-name="Trazado 995143" d="M431.787,435.542c-5.78,3.22-12.371,4.622-18.528,7.045s-12.266,6.3-14.78,12.418a15.559,15.559,0,0,0,17.071,21.239c-5.432-2.6-8.51-8.943-8.156-14.956s3.718-11.578,8.248-15.548S425.79,439.24,431.787,435.542Z" transform="translate(-347.783 -370.515)" fill="#09066a"/>
          <path id="Trazado_995144" data-name="Trazado 995144" d="M430,442.5c-5.853,7.649-11.052,16.059-13.207,25.446s-.9,19.924,5.1,27.455,17.249,11.073,25.829,6.7c-7.475,1.833-14.973-4.576-17.135-11.963s-.421-15.291,1.432-22.761S435.844,452.1,430,442.5Z" transform="translate(-355.553 -373.442)" fill="#09066a"/>
          <path id="Trazado_995145" data-name="Trazado 995145" d="M610.826,444.453" transform="translate(-437.655 -374.266)" fill="none" stroke="#000" stroke-miterlimit="10" stroke-width="1.589"/>
          <path id="Trazado_995146" data-name="Trazado 995146" d="M611.838,430.687c3.652,6.333,8.839,11.612,13.375,17.344s8.558,12.277,9.2,19.559-2.981,15.349-9.848,17.854c3.379-5.406,2.846-12.465.663-18.454s-5.822-11.328-8.563-17.083A49.028,49.028,0,0,1,611.838,430.687Z" transform="translate(-438.081 -368.471)" fill="#09066a"/>
          <path id="Trazado_995147" data-name="Trazado 995147" d="M523.424,355.016c8.375-2.119,20.772-1.983,29.373-1.171s17.38,5.158,21.147,12.932c3.013,6.22,2.42,13.5,1.758,20.383-.259,2.7-.893,5.916-3.421,6.891-1.608.62-3.409.051-5.014-.578C551.05,387.11,533.642,372.032,523.424,355.016Z" transform="translate(-400.858 -335.889)" fill="#09066a"/>
          <g id="Grupo_1160894" data-name="Grupo 1160894" transform="translate(119.095 92.071)">
            <path id="Trazado_995148" data-name="Trazado 995148" d="M535.537,493.777a21.091,21.091,0,0,1-17.982-10.143.92.92,0,0,1,1.589-.929,19.384,19.384,0,0,0,20.3,8.8.92.92,0,1,1,.408,1.794A19.416,19.416,0,0,1,535.537,493.777Z" transform="translate(-517.429 -482.249)" fill="#d6938e"/>
          </g>
          <path id="Trazado_995149" data-name="Trazado 995149" d="M445.993,415.842l-12.132,4.784a6.823,6.823,0,0,0-3.7,9.335l.034.069a7.039,7.039,0,0,0,8.945,3.4l12.1-4.853a6.826,6.826,0,0,0,3.824-8.963h0A7.031,7.031,0,0,0,445.993,415.842Z" transform="translate(-361.305 -362.012)" fill="#3f3fd8"/>
          <path id="Trazado_995150" data-name="Trazado 995150" d="M461.807,408.669c1.879,8.3,4.3,16.8,9.778,23.31s14.773,10.527,22.72,7.486c4.406-1.685,8.192-5.368,12.908-5.48,6.251-.148,11.226,6.068,17.479,6.184,3.746.069,7.256-2.173,9.518-5.159a27.3,27.3,0,0,0,4.32-10.286c1.5-6.278,1.98-13.557-2.126-18.538-3.338-4.051-8.849-5.5-14.035-6.31C501.879,396.694,480.4,400.224,461.807,408.669Z" transform="translate(-374.917 -355.012)" fill="#3f3fd8"/>
          <path id="Trazado_995151" data-name="Trazado 995151" d="M444.586,609.945c-3.208,10.033-2.467,21,.272,31.167a215.425,215.425,0,0,0,12.424,33.772H551.86l10.313-40.01-27.165-66.6-49.134,50.1-12.4-50.1S448.047,599.121,444.586,609.945Z" transform="translate(-366.779 -426.396)" fill="#a6abff"/>
          <path id="Trazado_995152" data-name="Trazado 995152" d="M444.586,609.945c-3.208,10.033-2.467,21,.272,31.167a215.425,215.425,0,0,0,12.424,33.772H551.86l10.313-40.01-27.165-66.6-49.134,50.1-12.4-50.1S448.047,599.121,444.586,609.945Z" transform="translate(-366.779 -426.396)" fill="#a6abff"/>
          <path id="Trazado_995153" data-name="Trazado 995153" d="M445.228,687.265a215.423,215.423,0,0,0,12.424,33.772H552.23l10.313-40.01-.163-.4c-21.3,7.471-54.959,10.207-76.135,12.286-16.958,1.665-33.663-8.245-42.89-15.01A71.22,71.22,0,0,0,445.228,687.265Z" transform="translate(-367.149 -472.549)" fill="#cacffc" opacity="0.64"/>
          <path id="Trazado_995154" data-name="Trazado 995154" d="M470.938,404.544c1.879,8.3,4.3,16.8,9.778,23.31s14.773,10.527,22.72,7.486c4.406-1.685,8.192-5.368,12.908-5.48,6.251-.148,11.226,6.068,17.479,6.184,3.746.069,7.256-2.173,9.518-5.159a27.314,27.314,0,0,0,4.32-10.286c1.5-6.277,1.979-13.557-2.126-18.538-3.338-4.051-8.849-5.5-14.035-6.31C511.01,392.569,489.534,396.1,470.938,404.544Z" transform="translate(-378.762 -353.276)" fill="#a6abff"/>
          <path id="Trazado_995155" data-name="Trazado 995155" d="M549.225,395.947q-.573-.1-1.143-.189a102.468,102.468,0,0,0-29.593-.149l-8.16,40.316a16.807,16.807,0,0,0,9.69-.578c4.406-1.685,8.192-5.368,12.908-5.48a12.161,12.161,0,0,1,5.163,1.175Z" transform="translate(-395.345 -353.282)" fill="#a6abff" opacity="0.6"/>
          <path id="Trazado_995156" data-name="Trazado 995156" d="M518.176,357.306a26.179,26.179,0,0,0,22.114,39.789,31.1,31.1,0,0,1-12.479-23.926c-.078-3.168.336-6.352-.042-9.5s-1.727-6.4-4.437-8.036S516.427,354.731,518.176,357.306Z" transform="translate(-397.077 -336.506)" fill="#09066a"/>
          <path id="Trazado_995157" data-name="Trazado 995157" d="M530.9,361.168c2.046,8.957,4.422,18.12,10.138,25.63s15.569,13.081,25.454,11.659c-6.6-2-11.221-7.456-14.465-13.08s-5.572-11.74-9.719-16.844S531.515,359.357,530.9,361.168Z" transform="translate(-404.006 -339.019)" fill="#09066a"/>
          <g id="Grupo_1160895" data-name="Grupo 1160895" transform="translate(133.894 199.406)">
            <path id="Trazado_995158" data-name="Trazado 995158" d="M584.06,667.631V699.67l-41.071,43.707,22.888,19.348,45.911-40.816a39.13,39.13,0,0,0,13.132-29.245V667.631Z" transform="translate(-542.989 -667.631)" fill="#fcc5be"/>
            <path id="Trazado_995159" data-name="Trazado 995159" d="M613.923,696.322l40.86-2.494v-17.49h-40.86Z" transform="translate(-572.852 -671.297)" fill="#fcc5be"/>
          </g>
          <path id="Trazado_995160" data-name="Trazado 995160" d="M597.115,568.277h13.579a24.531,24.531,0,0,1,22.332,14.38l21.906,58.018L590,644.665Z" transform="translate(-428.886 -426.396)" fill="#3f3fd8"/>
          <path id="Trazado_995161" data-name="Trazado 995161" d="M601.191,568.277h-4.076L590,644.665l37.085-2.279Z" transform="translate(-428.886 -426.396)" fill="#3f3fd8" opacity="0.49"/>
          <path id="Trazado_995162" data-name="Trazado 995162" d="M515.885,710.186h.008a1.38,1.38,0,0,0,1.38-1.372l.309-54.975a1.373,1.373,0,0,0-.415-.992l-.965.984-.331-1.337a1.406,1.406,0,0,0-1.049,1.329l-.309,54.975A1.381,1.381,0,0,0,515.885,710.186Z" transform="translate(-397.106 -461.852)" fill="#7789f2" opacity="0.64"/>
          <path id="Trazado_995163" data-name="Trazado 995163" d="M453.749,435c-7.786-7.195-16.194-2.3-18.576,3.353s-.3,12.362,4.382,16.726,11.143,4.262,17.925,4.285C457.907,448.622,459.36,444.948,453.749,435Z" transform="translate(-363.287 -368.771)" fill="#fcc5be"/>
          <g id="Grupo_1160896" data-name="Grupo 1160896" transform="translate(133.278 228.774)">
            <path id="Trazado_995164" data-name="Trazado 995164" d="M542.845,766.473a.92.92,0,0,1-.668-1.552l43.812-46.28a.92.92,0,1,1,1.337,1.265l-43.812,46.28A.921.921,0,0,1,542.845,766.473Z" transform="translate(-541.925 -718.352)" fill="#fcc5be"/>
          </g>
          <g id="Grupo_1160897" data-name="Grupo 1160897" transform="translate(75.836 67.75)" opacity="0.7">
            <path id="Trazado_995165" data-name="Trazado 995165" d="M452.5,458.12a.907.907,0,0,1-.359-.107,17.059,17.059,0,0,1-8.816-10.7,16.343,16.343,0,0,1-.5-6.295.926.926,0,0,1,1.054-.763c.5.08.479,11.489,9.13,16.137a.92.92,0,0,1-.51,1.728Z" transform="translate(-442.715 -440.244)" fill="#fcc5be"/>
          </g>
          <g id="Grupo_1160898" data-name="Grupo 1160898" transform="translate(0 19.028)">
            <path id="Trazado_995166" data-name="Trazado 995166" d="M418.438,396.8a6.789,6.789,0,0,0-1.8,8.214l.034.069a6.857,6.857,0,0,0,1.739,2.23c-1.732.571-3.459,1.159-5.151,1.824-6.157,2.423-12.266,6.3-14.78,12.419a15.886,15.886,0,0,0,2.264,15.66,15.677,15.677,0,0,0,7.36,5,29.427,29.427,0,0,0,6.025,16.8,23.372,23.372,0,0,0,11.682,7.729,66.215,66.215,0,0,1,.339-6.709,18.338,18.338,0,0,1-3.327-6.286,29.184,29.184,0,0,1-.807-11.144,36.645,36.645,0,0,0,5.219,10.613,58.9,58.9,0,0,1,11.92-24.655c18.34-22.774,22.628-50.2,22.194-72.384-11.8-.721-29.688,2.887-37.869,10.481C415.723,373.869,415.419,386.056,418.438,396.8Zm.256,14.185c-4.341,6.319-7.963,13.141-9.67,20.579-.236,1.027-.423,2.069-.575,3.118a16.8,16.8,0,0,1-1.056-6.843c.353-6.013,3.718-11.578,8.248-15.548a35.788,35.788,0,0,1,3.157-2.437Q418.722,410.42,418.695,410.988Z" transform="translate(-347.783 -356.096)" fill="#c2a9ff" opacity="0.51"/>
            <path id="Trazado_995167" data-name="Trazado 995167" d="M391.231,572.784a25.85,25.85,0,0,0-8.092,6.141l-39.608,48.841,13.03,6.98-44.823,62.012,33.115,23.936,42.694-59.066,5.358-7.412.413.222c2.208,6.548,4.833,13.39,7.416,19.112l18.853-43.542S397.24,603.885,391.231,572.784Z" transform="translate(-311.738 -447.322)" fill="#c2a9ff" opacity="0.51"/>
          </g>
        </g>
        <g id="Grupo_1160903" data-name="Grupo 1160903" transform="translate(52.516 344.245)">
          <path id="Trazado_995168" data-name="Trazado 995168" d="M411.58,867.058H323.242V851.68H411.58a7.689,7.689,0,0,1,7.689,7.689h0A7.689,7.689,0,0,1,411.58,867.058Z" transform="translate(-233.147 -769.783)" fill="#09066a"/>
          <g id="Grupo_1160902" data-name="Grupo 1160902">
            <g id="Grupo_1160900" data-name="Grupo 1160900">
              <path id="Trazado_995169" data-name="Trazado 995169" d="M290.98,807.509H195.621A10.914,10.914,0,0,1,184.976,799l-17.065-75.446a10.914,10.914,0,0,1,10.645-13.322h95.359a10.914,10.914,0,0,1,10.645,8.507l17.064,75.446A10.914,10.914,0,0,1,290.98,807.509Z" transform="translate(-167.638 -710.233)" fill="#7789f2"/>
              <path id="Trazado_995170" data-name="Trazado 995170" d="M389.853,794.186,372.789,718.74a10.914,10.914,0,0,0-10.645-8.507h-10.95a10.914,10.914,0,0,1,10.645,8.507L378.9,794.186a10.914,10.914,0,0,1-10.645,13.322h10.95A10.914,10.914,0,0,0,389.853,794.186Z" transform="translate(-244.915 -710.233)" fill="#09066a"/>
              <path id="Trazado_995171" data-name="Trazado 995171" d="M300.043,802.657c-134.007-.006-100.965-85.385-95.618-92.424H178.557a10.915,10.915,0,0,0-10.646,13.322L184.976,799a10.914,10.914,0,0,0,10.645,8.507h95.359A10.86,10.86,0,0,0,300.043,802.657Z" transform="translate(-167.638 -710.233)" fill="#cacffc" opacity="0.85"/>
            </g>
            <g id="Grupo_1160901" data-name="Grupo 1160901" transform="translate(42.654 28.851)">
              <path id="Trazado_995172" data-name="Trazado 995172" d="M277.552,763.506a1.379,1.379,0,0,0-1.208-1c-.431-.038-.86-.057-1.29-.057a17.113,17.113,0,0,0-11.947,5.225,16.078,16.078,0,1,0,9.624,10.654,13.328,13.328,0,0,0,1.26-1.114A14.326,14.326,0,0,0,277.552,763.506Z" transform="translate(-241.306 -761.065)" fill="#f5fdff"/>
              <path id="Trazado_995173" data-name="Trazado 995173" d="M286.137,762.822q.582,0,1.167.051a12.991,12.991,0,0,1-3.212,12.364c-2.73,2.76-6.781,4.122-11.519,4.122q-1.06,0-2.162-.091c-.494-8.494,7.293-16.446,15.726-16.446m0-2.76h0a18.588,18.588,0,0,0-13.345,6.038,18.134,18.134,0,0,0-5.136,13.33,2.76,2.76,0,0,0,2.529,2.59c.807.067,1.61.1,2.388.1,5.622,0,10.284-1.709,13.481-4.942a15.73,15.73,0,0,0,3.909-15.045,2.76,2.76,0,0,0-2.417-2.009c-.465-.042-.939-.062-1.408-.062Z" transform="translate(-252.388 -760.062)" fill="#7789f2"/>
            </g>
          </g>
        </g>
        <g id="Grupo_1160906" data-name="Grupo 1160906" transform="translate(222.513 395.325)">
          <path id="Trazado_995174" data-name="Trazado 995174" d="M508.574,798.454,471.8,817.8l-9.917,20.205a6.216,6.216,0,0,0,3.068,8.424h0a6.215,6.215,0,0,0,6.111-.618l1.614-1.146h0a5.276,5.276,0,0,0,3.378,7.4l.273.073a5.273,5.273,0,0,0,4.259-.683l3.219-2.109h0a2.96,2.96,0,0,0,2.252,4.02h0a9.079,9.079,0,0,0,9.49-4.6l7.588-13.892,9.523-4.894-4.639,14.208a5.443,5.443,0,0,0,1.822,7.87h0a5.443,5.443,0,0,0,7.116-1.657l8.258-11.91,6.252-20.695Z" transform="translate(-461.244 -798.454)" fill="#fcc5be"/>
          <g id="Grupo_1160904" data-name="Grupo 1160904" transform="translate(10.511 17.141)">
            <path id="Trazado_995175" data-name="Trazado 995175" d="M480.317,858.051a.919.919,0,0,1-.8-1.38L491.806,835.4a.919.919,0,0,1,.274-.3l9.988-6.881a.92.92,0,0,1,1.044,1.515L493.3,836.5l-12.182,21.092A.918.918,0,0,1,480.317,858.051Z" transform="translate(-479.398 -828.058)" fill="#fcc5be"/>
          </g>
          <g id="Grupo_1160905" data-name="Grupo 1160905" transform="translate(21.638 24.482)">
            <path id="Trazado_995176" data-name="Trazado 995176" d="M499.534,868.071a.92.92,0,0,1-.816-1.343l8.276-16a.943.943,0,0,1,.217-.275l11.054-9.5a.921.921,0,0,1,1.2,1.4l-10.918,9.38-8.194,15.839A.921.921,0,0,1,499.534,868.071Z" transform="translate(-498.615 -840.738)" fill="#fcc5be"/>
          </g>
        </g>
      </g>
      <g id="Grupo_1160911" data-name="Grupo 1160911" transform="translate(637.129 505.636)" opacity="0.9">
        <g id="Grupo_1160910" data-name="Grupo 1160910">
          <g id="Grupo_1160908" data-name="Grupo 1160908" transform="translate(9.757)">
            <path id="Trazado_995177" data-name="Trazado 995177" d="M1118.026,893.757a.776.776,0,0,1-.776-.776V873.468a.776.776,0,1,1,1.552,0v19.513A.776.776,0,0,1,1118.026,893.757Z" transform="translate(-1117.25 -872.692)" fill="#eddeff"/>
          </g>
          <g id="Grupo_1160909" data-name="Grupo 1160909" transform="translate(0 9.756)">
            <path id="Trazado_995178" data-name="Trazado 995178" d="M1120.688,891.094h-19.513a.776.776,0,0,1,0-1.552h19.513a.776.776,0,0,1,0,1.552Z" transform="translate(-1100.399 -889.542)" fill="#eddeff"/>
          </g>
        </g>
        <path id="Trazado_995179" data-name="Trazado 995179" d="M1134.648,916.151l1.64,12.4a1.7,1.7,0,0,0,2.728,1.128l9.921-7.621a1.7,1.7,0,0,0-.386-2.926l-11.561-4.781A1.7,1.7,0,0,0,1134.648,916.151Z" transform="translate(-1114.811 -890.176)" fill="#eddeff"/>
      </g>
      <g id="Grupo_1160917" data-name="Grupo 1160917" transform="translate(1021.43 453.211)">
        <g id="Grupo_1160912" data-name="Grupo 1160912" transform="translate(29.967 12.927)">
          <path id="Trazado_995180" data-name="Trazado 995180" d="M1824.263,809.347a3.5,3.5,0,1,1-3.5-3.5A3.5,3.5,0,0,1,1824.263,809.347Z" transform="translate(-1816.465 -805.05)" fill="#b6f2fc"/>
          <path id="Trazado_995181" data-name="Trazado 995181" d="M1820.187,813.067a4.3,4.3,0,1,1,4.3-4.3A4.3,4.3,0,0,1,1820.187,813.067Zm0-7.009a2.713,2.713,0,1,0,2.713,2.713A2.716,2.716,0,0,0,1820.187,806.058Z" transform="translate(-1815.891 -804.475)" fill="#b6f2fc"/>
        </g>
        <g id="Grupo_1160913" data-name="Grupo 1160913" transform="translate(14.015 30.969)">
          <path id="Trazado_995182" data-name="Trazado 995182" d="M1792.636,844.228a4.3,4.3,0,1,1,4.3-4.3A4.3,4.3,0,0,1,1792.636,844.228Zm0-7.009a2.713,2.713,0,1,0,2.713,2.713A2.716,2.716,0,0,0,1792.636,837.219Z" transform="translate(-1788.34 -835.636)" fill="#b6f2fc"/>
        </g>
        <g id="Grupo_1160916" data-name="Grupo 1160916">
          <g id="Grupo_1160914" data-name="Grupo 1160914" transform="translate(9.947)">
            <path id="Trazado_995183" data-name="Trazado 995183" d="M1782.1,803.631a.791.791,0,0,1-.792-.792v-19.9a.792.792,0,1,1,1.583,0v19.9A.789.789,0,0,1,1782.1,803.631Z" transform="translate(-1781.313 -782.148)" fill="#b6f2fc"/>
          </g>
          <g id="Grupo_1160915" data-name="Grupo 1160915" transform="translate(0 9.949)">
            <path id="Trazado_995184" data-name="Trazado 995184" d="M1784.825,800.915h-19.9a.791.791,0,0,1,0-1.583h19.9a.791.791,0,1,1,0,1.583Z" transform="translate(-1764.134 -799.332)" fill="#b6f2fc"/>
          </g>
        </g>
      </g>
      <g id="Grupo_1160919" data-name="Grupo 1160919" transform="translate(914.73 113.716)">
        <g id="Grupo_1160918" data-name="Grupo 1160918" transform="translate(0 27.344)">
          <path id="Trazado_995185" data-name="Trazado 995185" d="M1584.146,251.618a4.3,4.3,0,1,1,4.3-4.3A4.3,4.3,0,0,1,1584.146,251.618Zm0-7.009a2.713,2.713,0,1,0,2.713,2.713A2.716,2.716,0,0,0,1584.146,244.609Z" transform="translate(-1579.85 -243.026)" fill="#eddeff"/>
        </g>
        <path id="Trazado_995186" data-name="Trazado 995186" d="M1627.766,256.3a4.3,4.3,0,1,0,4.3,4.3A4.3,4.3,0,0,0,1627.766,256.3Z" transform="translate(-1598.214 -221.271)" fill="#eddeff"/>
        <path id="Trazado_995187" data-name="Trazado 995187" d="M1618.364,203.677l-13.159-7.6a2.07,2.07,0,0,0-3.1,1.793v15.195a2.07,2.07,0,0,0,3.1,1.793l13.159-7.6A2.071,2.071,0,0,0,1618.364,203.677Z" transform="translate(-1589.218 -195.799)" fill="#eddeff"/>
      </g>
    </g>
  </g>
</svg>
