<svg xmlns="http://www.w3.org/2000/svg" xmlns:xlink="http://www.w3.org/1999/xlink" width="108" height="108" viewBox="0 0 108 108">
  <defs>
    <filter id="Trazado_982547" x="0" y="0" width="108" height="108" filterUnits="userSpaceOnUse">
      <feOffset dy="3" input="SourceAlpha"/>
      <feGaussianBlur stdDeviation="3" result="blur"/>
      <feFlood flood-opacity="0.161"/>
      <feComposite operator="in" in2="blur"/>
      <feComposite in="SourceGraphic"/>
    </filter>
  </defs>
  <g id="Grupo_1160718" data-name="Grupo 1160718" transform="translate(-274 -7584)">
    <g id="Grupo_1154901" data-name="Grupo 1154901" transform="translate(0 6700)">
      <g id="Grupo_1149835" data-name="Grupo 1149835" transform="translate(0 -3975)">
        <g id="Grupo_1149673" data-name="Grupo 1149673" transform="translate(-52 -2821)">
          <g id="Grupo_1148532" data-name="Grupo 1148532" transform="translate(51 4253)">
            <g id="Grupo_1147065" data-name="Grupo 1147065" transform="translate(-341 -556)">
              <g transform="matrix(1, 0, 0, 1, 616, 3983)" filter="url(#Trazado_982547)">
                <g id="Trazado_982547-2" data-name="Trazado 982547" transform="translate(9 6)" fill="#e6fbf1">
                  <path d="M 45 88.5 C 39.12687683105469 88.5 33.43022537231445 87.35007476806641 28.06830024719238 85.08217620849609 C 22.88852500915527 82.89131164550781 18.23629951477051 79.75458526611328 14.2408504486084 75.75914764404297 C 10.24541282653809 71.76370239257812 7.108687400817871 67.11147308349609 4.917825222015381 61.93170166015625 C 2.649924993515015 56.56977462768555 1.5 50.87312316894531 1.5 45 C 1.5 39.12687683105469 2.649924993515015 33.43022537231445 4.917825222015381 28.06830024719238 C 7.108687400817871 22.88852500915527 10.24541282653809 18.23629951477051 14.2408504486084 14.2408504486084 C 18.23629951477051 10.24541282653809 22.88852500915527 7.108687400817871 28.06830024719238 4.917825222015381 C 33.43022537231445 2.649924993515015 39.12687683105469 1.5 45 1.5 C 50.87312316894531 1.5 56.56977462768555 2.649924993515015 61.93170166015625 4.917825222015381 C 67.11147308349609 7.108687400817871 71.76370239257812 10.24541282653809 75.75914764404297 14.2408504486084 C 79.75458526611328 18.23629951477051 82.89131164550781 22.88852500915527 85.08217620849609 28.06830024719238 C 87.35007476806641 33.43022537231445 88.5 39.12687683105469 88.5 45 C 88.5 50.87312316894531 87.35007476806641 56.56977462768555 85.08217620849609 61.93170166015625 C 82.89131164550781 67.11147308349609 79.75458526611328 71.76370239257812 75.75914764404297 75.75914764404297 C 71.76370239257812 79.75458526611328 67.11147308349609 82.89131164550781 61.93170166015625 85.08217620849609 C 56.56977462768555 87.35007476806641 50.87312316894531 88.5 45 88.5 Z" stroke="none"/>
                  <path d="M 45 3 C 39.32871246337891 3 33.82865524291992 4.110054016113281 28.65262985229492 6.299339294433594 C 23.65165710449219 8.414573669433594 19.15968322753906 11.44334411621094 15.301513671875 15.301513671875 C 11.44334411621094 19.15968322753906 8.414573669433594 23.65165710449219 6.299339294433594 28.65262985229492 C 4.110054016113281 33.82865524291992 3 39.32871246337891 3 45 C 3 50.67128753662109 4.110054016113281 56.17134475708008 6.299339294433594 61.34737396240234 C 8.414573669433594 66.34834289550781 11.44334411621094 70.84031677246094 15.301513671875 74.698486328125 C 19.15968322753906 78.55665588378906 23.65165710449219 81.58542633056641 28.65262985229492 83.70066070556641 C 33.82865524291992 85.88994598388672 39.32871246337891 87 45 87 C 50.67128753662109 87 56.17134475708008 85.88994598388672 61.34737396240234 83.70066070556641 C 66.34834289550781 81.58542633056641 70.84031677246094 78.55665588378906 74.698486328125 74.698486328125 C 78.55665588378906 70.84031677246094 81.58542633056641 66.34834289550781 83.70066070556641 61.34737396240234 C 85.88994598388672 56.17134475708008 87 50.67128753662109 87 45 C 87 39.32871246337891 85.88994598388672 33.82865524291992 83.70066070556641 28.65262985229492 C 81.58542633056641 23.65165710449219 78.55665588378906 19.15968322753906 74.698486328125 15.301513671875 C 70.84031677246094 11.44334411621094 66.34834289550781 8.414573669433594 61.34737396240234 6.299339294433594 C 56.17134475708008 4.110054016113281 50.67128753662109 3 45 3 M 45 0 C 69.85281372070312 0 90 20.14718627929688 90 45 C 90 69.85281372070312 69.85281372070312 90 45 90 C 20.14718627929688 90 0 69.85281372070312 0 45 C 0 20.14718627929688 20.14718627929688 0 45 0 Z" stroke="none" fill="#0b7744"/>
                </g>
              </g>
            </g>
          </g>
        </g>
      </g>
    </g>
    <g id="talla" transform="translate(297 7604)">
      <g id="Grupo_1160716" data-name="Grupo 1160716">
        <g id="Grupo_1160704" data-name="Grupo 1160704">
          <path id="Trazado_994700" data-name="Trazado 994700" d="M37,49a6,6,0,1,1-6,6A6,6,0,0,1,37,49Zm2,6a2,2,0,1,0-2,2A2.006,2.006,0,0,0,39,55Z" fill="#838f9b"/>
        </g>
        <g id="Grupo_1160705" data-name="Grupo 1160705">
          <circle id="Elipse_11812" data-name="Elipse 11812" cx="2" cy="2" r="2" transform="translate(35 53)" fill="#aab2bd"/>
        </g>
        <g id="Grupo_1160706" data-name="Grupo 1160706">
          <path id="Trazado_994701" data-name="Trazado 994701" d="M13,49a6,6,0,1,1-6,6A6,6,0,0,1,13,49Zm2,6a2,2,0,1,0-2,2A2.006,2.006,0,0,0,15,55Z" fill="#838f9b"/>
        </g>
        <g id="Grupo_1160707" data-name="Grupo 1160707">
          <circle id="Elipse_11813" data-name="Elipse 11813" cx="2" cy="2" r="2" transform="translate(11 53)" fill="#aab2bd"/>
        </g>
        <g id="Grupo_1160708" data-name="Grupo 1160708">
          <path id="Trazado_994702" data-name="Trazado 994702" d="M21,23v6H17V23Z" fill="#ef7385"/>
        </g>
        <g id="Grupo_1160709" data-name="Grupo 1160709">
          <path id="Trazado_994703" data-name="Trazado 994703" d="M29,15V29H25V15Z" fill="#ef7385"/>
        </g>
        <g id="Grupo_1160710" data-name="Grupo 1160710">
          <path id="Trazado_994704" data-name="Trazado 994704" d="M37,13v4.2A14,14,0,0,0,33,27V13Z" fill="#ef7385"/>
        </g>
        <g id="Grupo_1160711" data-name="Grupo 1160711">
          <path id="Trazado_994705" data-name="Trazado 994705" d="M45,7v6.14a13.951,13.951,0,0,0-4,1.21V7Z" fill="#ef7385"/>
        </g>
        <g id="Grupo_1160712" data-name="Grupo 1160712">
          <path id="Trazado_994706" data-name="Trazado 994706" d="M51,45V57a4,4,0,0,1-8,0V45Z" fill="#b27946"/>
        </g>
        <g id="Grupo_1160713" data-name="Grupo 1160713">
          <path id="Trazado_994707" data-name="Trazado 994707" d="M51,43v2H43V43a3.969,3.969,0,0,1,.79-2.37,14.109,14.109,0,0,0,6.42,0A3.969,3.969,0,0,1,51,43Z" fill="#cf9e76"/>
        </g>
        <g id="Grupo_1160714" data-name="Grupo 1160714">
          <path id="Trazado_994708" data-name="Trazado 994708" d="M43.79,40.63A14.012,14.012,0,0,1,33.14,29,14.6,14.6,0,0,1,33,27,14.012,14.012,0,0,1,45,13.14,14.6,14.6,0,0,1,47,13a14,14,0,1,1-3.21,27.63ZM57,27A10,10,0,1,0,47,37,10,10,0,0,0,57,27Z" fill="#69d6f4"/>
        </g>
        <g id="Grupo_1160715" data-name="Grupo 1160715">
          <circle id="Elipse_11814" data-name="Elipse 11814" cx="10" cy="10" r="10" transform="translate(37 17)" fill="#fcd770"/>
        </g>
      </g>
      <g id="Grupo_1160717" data-name="Grupo 1160717">
        <path id="Trazado_994709" data-name="Trazado 994709" d="M62,27A15.017,15.017,0,0,0,47,12c-.338,0-.668.029-1,.051V6H40v7.744a14.925,14.925,0,0,0-2,1.285V12H32V27c0,.338.029.668.051,1H30V14H24V28H22V22H16v6H12.6l-.48-7.2A3.008,3.008,0,0,0,9.129,18H3a3,3,0,0,0,0,6h7.331l1.606,24.089A7,7,0,1,0,17.89,50H32.11a6.992,6.992,0,1,0,10.445,9.242A4.985,4.985,0,0,0,52,57V43a4.889,4.889,0,0,0-.336-1.752A15.019,15.019,0,0,0,62,27ZM3,22a1,1,0,0,1,0-2H9.129a1,1,0,0,1,1,.934L10.2,22ZM42,8h2v4.3a14.79,14.79,0,0,0-2,.573Zm-8,6h2v2.837a15.058,15.058,0,0,0-2,2.712Zm1.029,22H28V30h4.3a14.923,14.923,0,0,0,2.727,6ZM42,43v1H35.335l.4-6h1.1a14.985,14.985,0,0,0,5.5,3.248A4.888,4.888,0,0,0,42,43ZM13.269,38h5l.4,6h-5Zm7.4,6-.4-6H26v6Zm-.534-8-.4-6H26v6ZM28,38h5.731l-.4,6H28ZM26,16h2V28H26Zm-8,8h2v4H18Zm-.269,6,.4,6h-5l-.4-6ZM18,55a5,5,0,1,1-5-5A5.006,5.006,0,0,1,18,55Zm-4.064-7L13.8,46H42v4.11A6.977,6.977,0,0,0,37,48ZM37,60a5,5,0,1,1,5-5A5.006,5.006,0,0,1,37,60Zm10,0a3,3,0,0,1-3-3V46h6V57A3,3,0,0,1,47,60Zm3-17v1H44V43a2.909,2.909,0,0,1,.294-1.257,14.374,14.374,0,0,0,5.412,0A2.909,2.909,0,0,1,50,43Zm-3-3A13,13,0,1,1,60,27,13.015,13.015,0,0,1,47,40Z"/>
        <path id="Trazado_994710" data-name="Trazado 994710" d="M46,24h2a1,1,0,0,1,1,1h2a3,3,0,0,0-3-3V20H46v2a3,3,0,0,0,0,6h2a1,1,0,0,1,0,2H46a1,1,0,0,1-1-1H43a3,3,0,0,0,3,3v2h2V32a3,3,0,0,0,0-6H46a1,1,0,0,1,0-2Z"/>
        <path id="Trazado_994711" data-name="Trazado 994711" d="M47,16A11,11,0,1,0,58,27,11.013,11.013,0,0,0,47,16Zm0,20a9,9,0,1,1,9-9A9.011,9.011,0,0,1,47,36Z"/>
        <path id="Trazado_994712" data-name="Trazado 994712" d="M13,58a3,3,0,1,0-3-3A3,3,0,0,0,13,58Zm0-4a1,1,0,1,1-1,1A1,1,0,0,1,13,54Z"/>
        <path id="Trazado_994713" data-name="Trazado 994713" d="M37,52a3,3,0,1,0,3,3A3,3,0,0,0,37,52Zm0,4a1,1,0,1,1,1-1A1,1,0,0,1,37,56Z"/>
        <path id="Trazado_994714" data-name="Trazado 994714" d="M31,6.414l4,4L45.414,0H35V2h5.586L35,7.586l-4-4L15.293,19.293l1.414,1.414Z"/>
      </g>
    </g>
  </g>
</svg>
