<svg xmlns="http://www.w3.org/2000/svg" xmlns:xlink="http://www.w3.org/1999/xlink" width="108" height="108" viewBox="0 0 108 108">
  <defs>
    <filter id="Trazado_982547" x="0" y="0" width="108" height="108" filterUnits="userSpaceOnUse">
      <feOffset dy="3" input="SourceAlpha"/>
      <feGaussianBlur stdDeviation="3" result="blur"/>
      <feFlood flood-opacity="0.161"/>
      <feComposite operator="in" in2="blur"/>
      <feComposite in="SourceGraphic"/>
    </filter>
  </defs>
  <g id="Grupo_1160722" data-name="Grupo 1160722" transform="translate(-903 -7584)">
    <g id="Grupo_1154906" data-name="Grupo 1154906" transform="translate(0 6700)">
      <g id="Grupo_1149837" data-name="Grupo 1149837" transform="translate(0 -3975)">
        <g id="Grupo_1149675" data-name="Grupo 1149675" transform="translate(157 -2821)">
          <g id="Grupo_1148534" data-name="Grupo 1148534" transform="translate(156 4253)">
            <g id="Grupo_1147066" data-name="Grupo 1147066" transform="translate(-26 -556)">
              <g transform="matrix(1, 0, 0, 1, 616, 3983)" filter="url(#Trazado_982547)">
                <g id="Trazado_982547-2" data-name="Trazado 982547" transform="translate(9 6)" fill="#e6fbf1">
                  <path d="M 45 88.5 C 39.12687683105469 88.5 33.43022537231445 87.35007476806641 28.06830024719238 85.08217620849609 C 22.88852500915527 82.89131164550781 18.23629951477051 79.75458526611328 14.2408504486084 75.75914764404297 C 10.24541282653809 71.76370239257812 7.108687400817871 67.11147308349609 4.917825222015381 61.93170166015625 C 2.649924993515015 56.56977462768555 1.5 50.87312316894531 1.5 45 C 1.5 39.12687683105469 2.649924993515015 33.43022537231445 4.917825222015381 28.06830024719238 C 7.108687400817871 22.88852500915527 10.24541282653809 18.23629951477051 14.2408504486084 14.2408504486084 C 18.23629951477051 10.24541282653809 22.88852500915527 7.108687400817871 28.06830024719238 4.917825222015381 C 33.43022537231445 2.649924993515015 39.12687683105469 1.5 45 1.5 C 50.87312316894531 1.5 56.56977462768555 2.649924993515015 61.93170166015625 4.917825222015381 C 67.11147308349609 7.108687400817871 71.76370239257812 10.24541282653809 75.75914764404297 14.2408504486084 C 79.75458526611328 18.23629951477051 82.89131164550781 22.88852500915527 85.08217620849609 28.06830024719238 C 87.35007476806641 33.43022537231445 88.5 39.12687683105469 88.5 45 C 88.5 50.87312316894531 87.35007476806641 56.56977462768555 85.08217620849609 61.93170166015625 C 82.89131164550781 67.11147308349609 79.75458526611328 71.76370239257812 75.75914764404297 75.75914764404297 C 71.76370239257812 79.75458526611328 67.11147308349609 82.89131164550781 61.93170166015625 85.08217620849609 C 56.56977462768555 87.35007476806641 50.87312316894531 88.5 45 88.5 Z" stroke="none"/>
                  <path d="M 45 3 C 39.32871246337891 3 33.82865524291992 4.110054016113281 28.65262985229492 6.299339294433594 C 23.65165710449219 8.414573669433594 19.15968322753906 11.44334411621094 15.301513671875 15.301513671875 C 11.44334411621094 19.15968322753906 8.414573669433594 23.65165710449219 6.299339294433594 28.65262985229492 C 4.110054016113281 33.82865524291992 3 39.32871246337891 3 45 C 3 50.67128753662109 4.110054016113281 56.17134475708008 6.299339294433594 61.34737396240234 C 8.414573669433594 66.34834289550781 11.44334411621094 70.84031677246094 15.301513671875 74.698486328125 C 19.15968322753906 78.55665588378906 23.65165710449219 81.58542633056641 28.65262985229492 83.70066070556641 C 33.82865524291992 85.88994598388672 39.32871246337891 87 45 87 C 50.67128753662109 87 56.17134475708008 85.88994598388672 61.34737396240234 83.70066070556641 C 66.34834289550781 81.58542633056641 70.84031677246094 78.55665588378906 74.698486328125 74.698486328125 C 78.55665588378906 70.84031677246094 81.58542633056641 66.34834289550781 83.70066070556641 61.34737396240234 C 85.88994598388672 56.17134475708008 87 50.67128753662109 87 45 C 87 39.32871246337891 85.88994598388672 33.82865524291992 83.70066070556641 28.65262985229492 C 81.58542633056641 23.65165710449219 78.55665588378906 19.15968322753906 74.698486328125 15.301513671875 C 70.84031677246094 11.44334411621094 66.34834289550781 8.414573669433594 61.34737396240234 6.299339294433594 C 56.17134475708008 4.110054016113281 50.67128753662109 3 45 3 M 45 0 C 69.85281372070312 0 90 20.14718627929688 90 45 C 90 69.85281372070312 69.85281372070312 90 45 90 C 20.14718627929688 90 0 69.85281372070312 0 45 C 0 20.14718627929688 20.14718627929688 0 45 0 Z" stroke="none" fill="#0b7744"/>
                </g>
              </g>
            </g>
          </g>
        </g>
      </g>
    </g>
    <g id="servicios-digitales_1_" data-name="servicios-digitales (1)" transform="translate(928 7606)">
      <path id="Trazado_994733" data-name="Trazado 994733" d="M21,29.672V8.814A1.814,1.814,0,0,1,22.814,7H53.647a1.814,1.814,0,0,1,1.814,1.814V29.672Z" transform="translate(-1.863 -0.559)" fill="#c8cded"/>
      <path id="Trazado_994734" data-name="Trazado 994734" d="M25,11H52.206V30.044H25Z" transform="translate(-2.235 -0.931)" fill="#e2e7f6"/>
      <path id="Trazado_994735" data-name="Trazado 994735" d="M16,56.51h7.255L28.7,60.137l29.02-6.348v-.907a3.627,3.627,0,0,0-3.627-3.627H32.324v-.236a1.814,1.814,0,0,0-.436-1.179L26.882,42H16Z" transform="translate(-1.397 -3.818)" fill="#fbe1ca"/>
      <path id="Trazado_994736" data-name="Trazado 994736" d="M2,40H9.255V59.951H2Z" transform="translate(-0.093 -3.632)" fill="#d5883e"/>
      <path id="Trazado_994737" data-name="Trazado 994737" d="M10,40h5.441V58.137H10Z" transform="translate(-0.838 -3.632)" fill="#f0ae42"/>
      <path id="Trazado_994738" data-name="Trazado 994738" d="M13.627,54.51V40H10V56.324h1.814A1.814,1.814,0,0,0,13.627,54.51Z" transform="translate(-0.838 -3.632)" fill="#f9d266"/>
      <path id="Trazado_994739" data-name="Trazado 994739" d="M18,32H57.9v3.627a1.814,1.814,0,0,1-1.814,1.814H19.814A1.814,1.814,0,0,1,18,35.627Z" transform="translate(-1.583 -2.887)" fill="#9da1bf"/>
      <path id="Trazado_994740" data-name="Trazado 994740" d="M48.951,13.789V10.162H46.928A8.11,8.11,0,0,0,45.88,7.636L47.312,6.2,44.747,3.64,43.315,5.072a8.11,8.11,0,0,0-2.526-1.048V2H37.162V4.023a8.11,8.11,0,0,0-2.526,1.048L33.2,3.64,30.64,6.2l1.432,1.432a8.11,8.11,0,0,0-1.048,2.526H29v3.627h2.023a8.11,8.11,0,0,0,1.048,2.526L30.64,17.747,33.2,20.312l1.432-1.432a8.11,8.11,0,0,0,2.526,1.048v2.023h3.627V19.928a8.11,8.11,0,0,0,2.526-1.048l1.432,1.432,2.565-2.565L45.88,16.315a8.11,8.11,0,0,0,1.048-2.526Z" transform="translate(-2.608 -0.093)" fill="#5e87ca"/>
      <circle id="Elipse_11815" data-name="Elipse 11815" cx="4.5" cy="4.5" r="4.5" transform="translate(32.226 7)" fill="#e2e7f6"/>
      <path id="Trazado_994741" data-name="Trazado 994741" d="M2,16H23.765V26.882H2Z" transform="translate(-0.093 -1.397)" fill="#3b5892"/>
      <path id="Trazado_994742" data-name="Trazado 994742" d="M2,16H21.31v8.162H2Z" transform="translate(-0.093 -1.397)" fill="#4c6cb5"/>
      <g id="Grupo_1160721" data-name="Grupo 1160721" transform="translate(4.628 16.014)">
        <path id="Trazado_994743" data-name="Trazado 994743" d="M7.986,25.017,5.266,22.3a.907.907,0,0,1,0-1.282l2.721-2.721,1.282,1.282L7.189,21.655l2.079,2.079Z" transform="translate(-5 -17.625)" fill="#5e87ca"/>
        <path id="Trazado_994744" data-name="Trazado 994744" d="M19.575,25.017l-1.282-1.282,2.079-2.079-2.079-2.079,1.282-1.282L22.3,21.014a.907.907,0,0,1,0,1.282Z" transform="translate(-6.238 -17.625)" fill="#5e87ca"/>
        <path id="Trazado_994745" data-name="Trazado 994745" d="M0,0H8.111V1.814H0Z" transform="translate(5.527 7.251) rotate(-63.435)" fill="#5e87ca"/>
      </g>
      <path id="Trazado_994746" data-name="Trazado 994746" d="M52.692,48.069H31.743a2.726,2.726,0,0,0-.56-1.1l-5.009-5.838a.907.907,0,0,0-.688-.317H15.51v-.907A.907.907,0,0,0,14.6,39H1.907A.907.907,0,0,0,1,39.907V59.858a.907.907,0,0,0,.907.907H9.162a.907.907,0,0,0,.907-.907v-.907H14.6a.907.907,0,0,0,.907-.907v-.907h6.076L26.8,60.613a.907.907,0,0,0,.5.152.941.941,0,0,0,.194-.021L56.513,54.4a.907.907,0,0,0,.713-.886V52.6a4.54,4.54,0,0,0-4.534-4.534ZM8.255,58.951H2.814V40.814H8.255ZM13.7,57.137H10.069V40.814H13.7Zm41.716-4.353L27.481,58.89l-5.12-3.414a.912.912,0,0,0-.5-.152H15.51v-12.7h9.558L29.8,48.149a.907.907,0,0,1,.219.59v1.143a.907.907,0,0,1-.907.907H28.051a.907.907,0,0,1-.642-.266l-4-4L22.124,47.8l4,4a2.7,2.7,0,0,0,1.924.8h1.062a2.721,2.721,0,0,0,2.721-2.721H52.692A2.721,2.721,0,0,1,55.412,52.6Z" transform="translate(0 -3.539)"/>
      <path id="Trazado_994747" data-name="Trazado 994747" d="M56.319,28.206H54.505V8.255a2.721,2.721,0,0,0-2.721-2.721h-6.4a.719.719,0,0,0-.043-.064L42.781,2.9a.907.907,0,0,0-1.282,0l-.941.941a9.015,9.015,0,0,0-1.468-.609V1.907A.907.907,0,0,0,38.182,1H34.554a.907.907,0,0,0-.907.907V3.236a9.015,9.015,0,0,0-1.468.609L31.238,2.9a.907.907,0,0,0-1.282,0L27.39,5.47a.719.719,0,0,0-.042.064h-6.4a2.721,2.721,0,0,0-2.721,2.721V13.7H1.907A.907.907,0,0,0,1,14.6V25.486a.907.907,0,0,0,.907.907H18.231v1.814H16.417a.907.907,0,0,0-.907.907v3.627a2.721,2.721,0,0,0,2.721,2.721H54.505a2.721,2.721,0,0,0,2.721-2.721V29.113A.907.907,0,0,0,56.319,28.206ZM52.692,8.255V28.206H50.878V10.069a.907.907,0,0,0-.907-.907H45.014A9.015,9.015,0,0,0,44.4,7.694l.346-.346h7.035a.907.907,0,0,1,.907.907ZM24.579,25.486V14.6a.907.907,0,0,0-.907-.907V10.976h1.814V13.7a.907.907,0,0,0,.907.907h1.329a9.015,9.015,0,0,0,.609,1.468l-.941.941a.907.907,0,0,0,0,1.282l2.566,2.566a.907.907,0,0,0,1.282,0l.941-.941a9.006,9.006,0,0,0,1.468.609v1.329a.907.907,0,0,0,.907.907h3.627a.907.907,0,0,0,.907-.907V20.529a9.006,9.006,0,0,0,1.468-.61l.941.942a.907.907,0,0,0,1.282,0l2.566-2.566a.907.907,0,0,0,0-1.282l-.94-.941a9.015,9.015,0,0,0,.609-1.468h1.329a.907.907,0,0,0,.907-.907V10.976h1.814V28.206H23.672V26.392A.907.907,0,0,0,24.579,25.486ZM29.3,10.27a7.18,7.18,0,0,1,.931-2.243A.907.907,0,0,0,30.105,6.9l-.791-.791L30.6,4.829l.791.791a.907.907,0,0,0,1.125.126,7.18,7.18,0,0,1,2.243-.931.907.907,0,0,0,.706-.885V2.814h1.814V3.929a.907.907,0,0,0,.706.885,7.18,7.18,0,0,1,2.243.931.907.907,0,0,0,1.125-.126l.791-.791,1.282,1.282-.791.791A.907.907,0,0,0,42.5,8.027a7.18,7.18,0,0,1,.931,2.243.907.907,0,0,0,.885.706h1.115v1.814H44.321a.907.907,0,0,0-.885.706,7.18,7.18,0,0,1-.931,2.243.907.907,0,0,0,.126,1.125l.791.791-1.282,1.282-.791-.791a.907.907,0,0,0-1.125-.126,7.194,7.194,0,0,1-2.243.931.907.907,0,0,0-.706.884v1.116H35.461V19.835a.907.907,0,0,0-.706-.884,7.194,7.194,0,0,1-2.243-.931.907.907,0,0,0-1.125.126l-.791.791-1.282-1.282.791-.791a.907.907,0,0,0,.126-1.125,7.18,7.18,0,0,1-.931-2.243.907.907,0,0,0-.885-.706H27.3V10.976h1.115a.907.907,0,0,0,.885-.706ZM20.044,8.255a.907.907,0,0,1,.907-.907h7.035l.346.346a9.015,9.015,0,0,0-.609,1.468H22.765a.907.907,0,0,0-.907.907V13.7H20.044ZM2.814,15.51H22.765v9.069H2.814ZM20.044,26.392h1.814v1.814H20.044Zm35.368,6.348a.907.907,0,0,1-.907.907H18.231a.907.907,0,0,1-.907-.907V30.02H55.412Z"/>
      <path id="Trazado_994748" data-name="Trazado 994748" d="M39.441,17.882A5.441,5.441,0,1,0,34,12.441,5.441,5.441,0,0,0,39.441,17.882Zm0-9.069a3.627,3.627,0,1,1-3.627,3.627A3.627,3.627,0,0,1,39.441,8.814Z" transform="translate(-3.073 -0.559)"/>
      <path id="Trazado_994749" data-name="Trazado 994749" d="M7.986,18.293,5.266,21.014a.907.907,0,0,0,0,1.282l2.721,2.721,1.282-1.282L7.189,21.655l2.079-2.079Z" transform="translate(-0.373 -1.61)"/>
      <path id="Trazado_994750" data-name="Trazado 994750" d="M19.575,18.293l-1.282,1.282,2.079,2.079-2.079,2.079,1.282,1.282L22.3,22.3a.907.907,0,0,0,0-1.282Z" transform="translate(-1.61 -1.61)"/>
      <path id="Trazado_994751" data-name="Trazado 994751" d="M0,0H8.111V1.814H0Z" transform="translate(10.155 23.265) rotate(-63.435)"/>
    </g>
  </g>
</svg>
