<svg xmlns="http://www.w3.org/2000/svg" xmlns:xlink="http://www.w3.org/1999/xlink" width="118" height="118" viewBox="0 0 118 118">
  <defs>
    <filter id="Trazado_982547" x="0" y="0" width="118" height="118" filterUnits="userSpaceOnUse">
      <feOffset dy="3" input="SourceAlpha"/>
      <feGaussianBlur stdDeviation="3" result="blur"/>
      <feFlood flood-opacity="0.161"/>
      <feComposite operator="in" in2="blur"/>
      <feComposite in="SourceGraphic"/>
    </filter>
  </defs>
  <g id="Grupo_1211007" data-name="Grupo 1211007" transform="translate(-321.225 -3018.008)">
    <g id="Grupo_1210857" data-name="Grupo 1210857" transform="translate(0.225 1330.78)">
      <g id="Grupo_1210308" data-name="Grupo 1210308" transform="translate(330 1693.228)">
        <g id="Grupo_1209802" data-name="Grupo 1209802" transform="translate(0 0)">
          <g id="Grupo_1209739" data-name="Grupo 1209739" transform="translate(0)">
            <g id="Grupo_1209277" data-name="Grupo 1209277">
              <g id="Grupo_1208028" data-name="Grupo 1208028">
                <g id="Grupo_1177675" data-name="Grupo 1177675">
                  <g id="Grupo_1176928" data-name="Grupo 1176928">
                    <g id="Grupo_1172322" data-name="Grupo 1172322">
                      <g id="Grupo_1164700" data-name="Grupo 1164700">
                        <g id="Grupo_1160931" data-name="Grupo 1160931">
                          <g id="Grupo_1160749" data-name="Grupo 1160749">
                            <g id="Grupo_1158891" data-name="Grupo 1158891">
                              <g id="Grupo_1157406" data-name="Grupo 1157406">
                                <g id="Grupo_1155793" data-name="Grupo 1155793">
                                  <g id="Grupo_1154704" data-name="Grupo 1154704">
                                    <g id="Grupo_1150790" data-name="Grupo 1150790">
                                      <g id="Grupo_1154214" data-name="Grupo 1154214">
                                        <g id="Grupo_1152583" data-name="Grupo 1152583">
                                          <g id="Grupo_1146973" data-name="Grupo 1146973">
                                            <g id="Grupo_1146954" data-name="Grupo 1146954">
                                              <g transform="matrix(1, 0, 0, 1, -9, -6)" filter="url(#Trazado_982547)">
                                                <g id="Trazado_982547-2" data-name="Trazado 982547" transform="translate(9 6)" fill="#fef9e5">
                                                  <path d="M 50.00000762939453 98.49985504150391 C 43.4518928527832 98.49985504150391 37.10043716430664 97.21774291992188 31.12207984924316 94.68910980224609 C 25.34692192077637 92.24642944335938 20.15996551513672 88.74918365478516 15.70533657073975 84.2945556640625 C 11.25069332122803 79.83992767333984 7.753450393676758 74.65298461914062 5.310764789581299 68.87783050537109 C 2.782136201858521 62.89948654174805 1.500007629394531 56.54804229736328 1.500007629394531 49.99992752075195 C 1.500007629394531 43.45181274414062 2.782136201858521 37.10036849975586 5.310764789581299 31.12202835083008 C 7.753450393676758 25.34687042236328 11.25069332122803 20.15992736816406 15.70533657073975 15.70529937744141 C 20.15996551513672 11.25067043304443 25.34692192077637 7.753427505493164 31.12207984924316 5.310741901397705 C 37.10043716430664 2.782113313674927 43.4518928527832 1.499998927116394 50.00000762939453 1.499998927116394 C 56.54812240600586 1.499998927116394 62.89957809448242 2.782113313674927 68.87793731689453 5.310741901397705 C 74.65310668945312 7.753427505493164 79.84004974365234 11.25067043304443 84.29469299316406 15.70529937744141 C 88.74932098388672 20.15992736816406 92.24656677246094 25.34687042236328 94.68924713134766 31.12202835083008 C 97.21788024902344 37.10036849975586 98.50000762939453 43.45181274414062 98.50000762939453 49.99992752075195 C 98.50000762939453 56.54804229736328 97.21788024902344 62.89948654174805 94.68924713134766 68.87783050537109 C 92.24656677246094 74.65298461914062 88.74932098388672 79.83992767333984 84.29469299316406 84.2945556640625 C 79.84004974365234 88.74918365478516 74.65310668945312 92.24642944335938 68.87793731689453 94.68910980224609 C 62.89957809448242 97.21774291992188 56.54812240600586 98.49985504150391 50.00000762939453 98.49985504150391 Z" stroke="none"/>
                                                  <path d="M 50.00000762939453 3.000007629394531 C 43.65373229980469 3.000007629394531 37.49887084960938 4.242263793945312 31.70640563964844 6.692268371582031 C 26.11003875732422 9.059326171875 21.08335876464844 12.44860076904297 16.7659912109375 16.76596069335938 C 12.44862365722656 21.08332824707031 9.059333801269531 26.11000823974609 6.692268371582031 31.70635986328125 C 4.242271423339844 37.49880599975586 3.000007629394531 43.65365219116211 3.000007629394531 49.99992752075195 C 3.000007629394531 56.3462028503418 4.242271423339844 62.50104904174805 6.692268371582031 68.29349517822266 C 9.059333801269531 73.88984680175781 12.44862365722656 78.91652679443359 16.7659912109375 83.23389434814453 C 21.08335876464844 87.55125427246094 26.11003875732422 90.94052886962891 31.70640563964844 93.30758666992188 C 37.49887084960938 95.75759124755859 43.65373229980469 96.99984741210938 50.00000762939453 96.99984741210938 C 56.34628295898438 96.99984741210938 62.50114440917969 95.75759124755859 68.29360961914062 93.30758666992188 C 73.88997650146484 90.94052886962891 78.91665649414062 87.55125427246094 83.23402404785156 83.23389434814453 C 87.5513916015625 78.91652679443359 90.94068145751953 73.88984680175781 93.30774688720703 68.29349517822266 C 95.75774383544922 62.50104904174805 97.00000762939453 56.3462028503418 97.00000762939453 49.99992752075195 C 97.00000762939453 43.65365219116211 95.75774383544922 37.49880599975586 93.30774688720703 31.70635986328125 C 90.94068145751953 26.11000823974609 87.5513916015625 21.08332824707031 83.23402404785156 16.76596069335938 C 78.91665649414062 12.44860076904297 73.88997650146484 9.059326171875 68.29360961914062 6.692268371582031 C 62.50114440917969 4.242263793945312 56.34628295898438 3.000007629394531 50.00000762939453 3.000007629394531 M 50.00000762939453 7.62939453125e-06 C 77.61424255371094 7.62939453125e-06 100.0000076293945 22.38572692871094 100.0000076293945 49.99992752075195 C 100.0000076293945 77.61412811279297 77.61424255371094 99.99984741210938 50.00000762939453 99.99984741210938 C 22.38578033447266 99.99984741210938 7.62939453125e-06 77.61412811279297 7.62939453125e-06 49.99992752075195 C 7.62939453125e-06 22.38572692871094 22.38578033447266 7.62939453125e-06 50.00000762939453 7.62939453125e-06 Z" stroke="none" fill="#f6c810"/>
                                                </g>
                                              </g>
                                            </g>
                                          </g>
                                        </g>
                                      </g>
                                    </g>
                                  </g>
                                </g>
                              </g>
                            </g>
                          </g>
                        </g>
                      </g>
                    </g>
                  </g>
                </g>
              </g>
            </g>
          </g>
        </g>
      </g>
    </g>
    <g id="Page-1" transform="translate(349.556 3043.339)">
      <g id="_084---Programmer" data-name="084---Programmer" transform="translate(0 0)">
        <g id="Icons" transform="translate(1.022 1.022)">
          <rect id="Rectangle-path" width="36" height="20" rx="3" transform="translate(22.978 38.978)" fill="#02a9f4"/>
          <path id="Shape" d="M55.067,38H52a3.067,3.067,0,0,1,3.067,3.067V55.379A3.067,3.067,0,0,1,52,58.446h3.067a3.067,3.067,0,0,0,3.067-3.067V41.067A3.067,3.067,0,0,0,55.067,38Z" transform="translate(1.16 0.847)" fill="#0377bc"/>
          <path id="Shape-2" data-name="Shape" d="M44.981,8V38.669H25.558a3.067,3.067,0,0,0-3.067,3.067V44.8H4.089A4.089,4.089,0,0,1,0,40.714V8Z" transform="translate(0 0.178)" fill="#f5f5f5"/>
          <path id="Shape-3" data-name="Shape" d="M19,41.067v3.067h3.067V41.067A3.067,3.067,0,0,1,25.134,38H22.067A3.067,3.067,0,0,0,19,41.067Z" transform="translate(0.424 0.847)" fill="#cfd8dc"/>
          <path id="Rectangle-path-2" data-name="Rectangle-path" d="M41,8h3.067V38.669H41Z" transform="translate(0.914 0.178)" fill="#cfd8dc"/>
          <path id="Shape-4" data-name="Shape" d="M44.981,4.089V8.178H0V4.089A4.089,4.089,0,0,1,4.089,0h36.8A4.089,4.089,0,0,1,44.981,4.089Z" fill="#9e9e9e"/>
          <path id="Shape-5" data-name="Shape" d="M40.067,0H37a4.089,4.089,0,0,1,4.089,4.089V8.178h3.067V4.089A4.089,4.089,0,0,0,40.067,0Z" transform="translate(0.825)" fill="#707070"/>
          <path id="Shape-6" data-name="Shape" d="M52.045,33a2.045,2.045,0,0,1,2.045,2.045v3.067H50V35.045A2.045,2.045,0,0,1,52.045,33Z" transform="translate(1.115 0.736)" fill="#0377bc"/>
        </g>
        <g id="Layer_11">
          <path id="Shape-7" data-name="Shape" d="M30.067,42H28.022a1.022,1.022,0,1,0,0,2.045h2.045a1.022,1.022,0,1,0,0-2.045Z" transform="translate(0.602 0.937)"/>
          <path id="Shape-8" data-name="Shape" d="M34.022,44.045h2.045a1.022,1.022,0,0,0,0-2.045H34.022a1.022,1.022,0,1,0,0,2.045Z" transform="translate(0.736 0.937)"/>
          <path id="Shape-9" data-name="Shape" d="M40.022,44.045h2.045a1.022,1.022,0,0,0,0-2.045H40.022a1.022,1.022,0,0,0,0,2.045Z" transform="translate(0.87 0.937)"/>
          <path id="Shape-10" data-name="Shape" d="M48.067,42H46.022a1.022,1.022,0,1,0,0,2.045h2.045a1.022,1.022,0,0,0,0-2.045Z" transform="translate(1.004 0.937)"/>
          <path id="Shape-11" data-name="Shape" d="M54.067,42H52.022a1.022,1.022,0,0,0,0,2.045h2.045a1.022,1.022,0,0,0,0-2.045Z" transform="translate(1.137 0.937)"/>
          <path id="Shape-12" data-name="Shape" d="M30.067,46H28.022a1.022,1.022,0,1,0,0,2.045h2.045a1.022,1.022,0,1,0,0-2.045Z" transform="translate(0.602 1.026)"/>
          <path id="Shape-13" data-name="Shape" d="M34.022,48.045h2.045a1.022,1.022,0,0,0,0-2.045H34.022a1.022,1.022,0,1,0,0,2.045Z" transform="translate(0.736 1.026)"/>
          <path id="Shape-14" data-name="Shape" d="M40.022,48.045h2.045a1.022,1.022,0,0,0,0-2.045H40.022a1.022,1.022,0,0,0,0,2.045Z" transform="translate(0.87 1.026)"/>
          <path id="Shape-15" data-name="Shape" d="M48.067,46H46.022a1.022,1.022,0,1,0,0,2.045h2.045a1.022,1.022,0,0,0,0-2.045Z" transform="translate(1.004 1.026)"/>
          <path id="Shape-16" data-name="Shape" d="M30.067,50H28.022a1.022,1.022,0,1,0,0,2.045h2.045a1.022,1.022,0,1,0,0-2.045Z" transform="translate(0.602 1.115)"/>
          <path id="Shape-17" data-name="Shape" d="M34.022,52.045h2.045a1.022,1.022,0,0,0,0-2.045H34.022a1.022,1.022,0,1,0,0,2.045Z" transform="translate(0.736 1.115)"/>
          <path id="Shape-18" data-name="Shape" d="M40.022,52.045h2.045a1.022,1.022,0,0,0,0-2.045H40.022a1.022,1.022,0,0,0,0,2.045Z" transform="translate(0.87 1.115)"/>
          <path id="Shape-19" data-name="Shape" d="M48.067,50H46.022a1.022,1.022,0,1,0,0,2.045h2.045a1.022,1.022,0,0,0,0-2.045Z" transform="translate(1.004 1.115)"/>
          <path id="Shape-20" data-name="Shape" d="M53.045,46H52.022a1.022,1.022,0,0,0,0,2.045h1.022v3.067a1.022,1.022,0,1,0,2.045,0V48.045A2.045,2.045,0,0,0,53.045,46Z" transform="translate(1.137 1.026)"/>
          <path id="Shape-21" data-name="Shape" d="M30.067,54H28.022a1.022,1.022,0,1,0,0,2.045h2.045a1.022,1.022,0,1,0,0-2.045Z" transform="translate(0.602 1.204)"/>
          <path id="Shape-22" data-name="Shape" d="M48.335,54H34.022a1.022,1.022,0,1,0,0,2.045H48.335a1.022,1.022,0,0,0,0-2.045Z" transform="translate(0.736 1.204)"/>
          <path id="Shape-23" data-name="Shape" d="M54.067,54H52.022a1.022,1.022,0,0,0,0,2.045h2.045a1.022,1.022,0,0,0,0-2.045Z" transform="translate(1.137 1.204)"/>
          <path id="Shape-24" data-name="Shape" d="M57.249,38.847V36.8A3.067,3.067,0,0,0,55.2,33.924V26.58a5.118,5.118,0,0,0-5.112-5.112H47.026V5.112A5.118,5.118,0,0,0,41.914,0H5.112A5.118,5.118,0,0,0,0,5.112v36.8a5.118,5.118,0,0,0,5.112,5.112H22.491V57.249a4.089,4.089,0,0,0,4.089,4.089H57.249a4.089,4.089,0,0,0,4.089-4.089V42.937A4.089,4.089,0,0,0,57.249,38.847Zm-3.067-3.067A1.022,1.022,0,0,1,55.2,36.8v2.045H53.16V36.8A1.022,1.022,0,0,1,54.182,35.781ZM47.026,23.513h3.067A3.067,3.067,0,0,1,53.16,26.58v7.344A3.067,3.067,0,0,0,51.115,36.8v2.045H47.026ZM2.045,5.112A3.067,3.067,0,0,1,5.112,2.045h36.8a3.067,3.067,0,0,1,3.067,3.067V8.178H2.045ZM22.491,42.937v2.045H5.112a3.067,3.067,0,0,1-3.067-3.067V10.223H44.981V38.847H26.58A4.089,4.089,0,0,0,22.491,42.937Zm36.8,14.312a2.045,2.045,0,0,1-2.045,2.045H26.58a2.045,2.045,0,0,1-2.045-2.045V42.937a2.045,2.045,0,0,1,2.045-2.045H57.249a2.045,2.045,0,0,1,2.045,2.045Z" transform="translate(0 0)"/>
          <circle id="Oval" cx="1" cy="1" r="1" transform="translate(4 4)"/>
          <circle id="Oval-2" data-name="Oval" cx="1" cy="1" r="1" transform="translate(8 4)"/>
          <circle id="Oval-3" data-name="Oval" cx="1" cy="1" r="1" transform="translate(12 4)"/>
          <path id="Shape-25" data-name="Shape" d="M27.2,4H19.022a1.022,1.022,0,0,0,0,2.045H27.2A1.022,1.022,0,1,0,27.2,4Z" transform="translate(0.401 0.089)"/>
          <path id="Shape-26" data-name="Shape" d="M4,19.156a1.022,1.022,0,0,0,1.022,1.022H7.067a1.022,1.022,0,1,0,0-2.045V13.022A1.022,1.022,0,0,0,5.322,12.3L4.3,13.322a1.022,1.022,0,0,0,.723,1.745v3.067A1.022,1.022,0,0,0,4,19.156Z" transform="translate(0.089 0.268)"/>
          <path id="Shape-27" data-name="Shape" d="M30,19.156a1.022,1.022,0,0,0,1.022,1.022h2.045a1.022,1.022,0,1,0,0-2.045V13.022a1.022,1.022,0,0,0-1.745-.723L30.3,13.322a1.022,1.022,0,0,0,.723,1.745v3.067A1.022,1.022,0,0,0,30,19.156Z" transform="translate(0.669 0.268)"/>
          <path id="Shape-28" data-name="Shape" d="M12.067,20.178a3.067,3.067,0,0,0,3.067-3.067V15.067a3.067,3.067,0,0,0-6.134,0v2.045A3.067,3.067,0,0,0,12.067,20.178Zm-1.022-5.112a1.022,1.022,0,0,1,2.045,0v2.045a1.022,1.022,0,1,1-2.045,0Z" transform="translate(0.201 0.268)"/>
          <path id="Shape-29" data-name="Shape" d="M21.089,19.156a1.022,1.022,0,0,0-1.022-1.022V13.022a1.022,1.022,0,0,0-1.745-.723L17.3,13.322a1.022,1.022,0,0,0,.723,1.745v3.067a1.022,1.022,0,1,0,0,2.045h2.045a1.022,1.022,0,0,0,1.022-1.022Z" transform="translate(0.379 0.268)"/>
          <path id="Shape-30" data-name="Shape" d="M28.3,24.767a1.022,1.022,0,0,0,.723.3v3.067a1.022,1.022,0,1,0,0,2.045h2.045a1.022,1.022,0,1,0,0-2.045V23.022a1.022,1.022,0,0,0-1.745-.723L28.3,23.322a1.022,1.022,0,0,0,0,1.446Z" transform="translate(0.624 0.491)"/>
          <path id="Shape-31" data-name="Shape" d="M25.067,20.178a3.067,3.067,0,0,0,3.067-3.067V15.067a3.067,3.067,0,0,0-6.134,0v2.045A3.067,3.067,0,0,0,25.067,20.178Zm-1.022-5.112a1.022,1.022,0,1,1,2.045,0v2.045a1.022,1.022,0,1,1-2.045,0Z" transform="translate(0.491 0.268)"/>
          <path id="Shape-32" data-name="Shape" d="M38.067,20.178a3.067,3.067,0,0,0,3.067-3.067V15.067a3.067,3.067,0,0,0-6.134,0v2.045A3.067,3.067,0,0,0,38.067,20.178Zm-1.022-5.112a1.022,1.022,0,0,1,2.045,0v2.045a1.022,1.022,0,1,1-2.045,0Z" transform="translate(0.781 0.268)"/>
          <path id="Shape-33" data-name="Shape" d="M36.067,22A3.067,3.067,0,0,0,33,25.067v2.045a3.067,3.067,0,0,0,6.134,0V25.067A3.067,3.067,0,0,0,36.067,22Zm1.022,5.112a1.022,1.022,0,1,1-2.045,0V25.067a1.022,1.022,0,0,1,2.045,0Z" transform="translate(0.736 0.491)"/>
          <path id="Shape-34" data-name="Shape" d="M7.067,32A3.067,3.067,0,0,0,4,35.067v2.045a3.067,3.067,0,0,0,6.134,0V35.067A3.067,3.067,0,0,0,7.067,32Zm1.022,5.112a1.022,1.022,0,0,1-2.045,0V35.067a1.022,1.022,0,0,1,2.045,0Z" transform="translate(0.089 0.714)"/>
          <path id="Shape-35" data-name="Shape" d="M17.112,39H13.022a1.022,1.022,0,0,0,0,2.045h4.089a1.022,1.022,0,1,0,0-2.045Z" transform="translate(0.268 0.87)"/>
          <path id="Shape-36" data-name="Shape" d="M7.067,22A3.067,3.067,0,0,0,4,25.067v2.045a3.067,3.067,0,0,0,6.134,0V25.067A3.067,3.067,0,0,0,7.067,22Zm1.022,5.112a1.022,1.022,0,1,1-2.045,0V25.067a1.022,1.022,0,0,1,2.045,0Z" transform="translate(0.089 0.491)"/>
          <path id="Shape-37" data-name="Shape" d="M15.067,22A3.067,3.067,0,0,0,12,25.067v2.045a3.067,3.067,0,0,0,6.134,0V25.067A3.067,3.067,0,0,0,15.067,22Zm1.022,5.112a1.022,1.022,0,1,1-2.045,0V25.067a1.022,1.022,0,0,1,2.045,0Z" transform="translate(0.268 0.491)"/>
          <path id="Shape-38" data-name="Shape" d="M26.134,25.067a3.067,3.067,0,0,0-6.134,0v2.045a3.067,3.067,0,0,0,6.134,0Zm-2.045,2.045a1.022,1.022,0,0,1-2.045,0V25.067a1.022,1.022,0,0,1,2.045,0Z" transform="translate(0.446 0.491)"/>
        </g>
      </g>
    </g>
  </g>
</svg>
