<svg xmlns="http://www.w3.org/2000/svg" xmlns:xlink="http://www.w3.org/1999/xlink" width="118" height="118" viewBox="0 0 118 118">
  <defs>
    <filter id="Trazado_982547" x="0" y="0" width="118" height="118" filterUnits="userSpaceOnUse">
      <feOffset dy="3" input="SourceAlpha"/>
      <feGaussianBlur stdDeviation="3" result="blur"/>
      <feFlood flood-opacity="0.161"/>
      <feComposite operator="in" in2="blur"/>
      <feComposite in="SourceGraphic"/>
    </filter>
  </defs>
  <g id="Grupo_1211009" data-name="Grupo 1211009" transform="translate(-741.225 -3018.008)">
    <g id="Grupo_1210309" data-name="Grupo 1210309" transform="translate(750.225 3024.008)">
      <g id="Grupo_1209802" data-name="Grupo 1209802" transform="translate(0 0)">
        <g id="Grupo_1209739" data-name="Grupo 1209739" transform="translate(0)">
          <g id="Grupo_1209277" data-name="Grupo 1209277">
            <g id="Grupo_1208028" data-name="Grupo 1208028">
              <g id="Grupo_1177675" data-name="Grupo 1177675">
                <g id="Grupo_1176928" data-name="Grupo 1176928">
                  <g id="Grupo_1172322" data-name="Grupo 1172322">
                    <g id="Grupo_1164700" data-name="Grupo 1164700">
                      <g id="Grupo_1160931" data-name="Grupo 1160931">
                        <g id="Grupo_1160749" data-name="Grupo 1160749">
                          <g id="Grupo_1158891" data-name="Grupo 1158891">
                            <g id="Grupo_1157406" data-name="Grupo 1157406">
                              <g id="Grupo_1155793" data-name="Grupo 1155793">
                                <g id="Grupo_1154704" data-name="Grupo 1154704">
                                  <g id="Grupo_1150790" data-name="Grupo 1150790">
                                    <g id="Grupo_1154214" data-name="Grupo 1154214">
                                      <g id="Grupo_1152583" data-name="Grupo 1152583">
                                        <g id="Grupo_1146973" data-name="Grupo 1146973">
                                          <g id="Grupo_1146954" data-name="Grupo 1146954">
                                            <g transform="matrix(1, 0, 0, 1, -9, -6)" filter="url(#Trazado_982547)">
                                              <g id="Trazado_982547-2" data-name="Trazado 982547" transform="translate(9 6)" fill="#fef9e5">
                                                <path d="M 50.00000762939453 98.49985504150391 C 43.4518928527832 98.49985504150391 37.10043716430664 97.21774291992188 31.12207984924316 94.68910980224609 C 25.34692192077637 92.24642944335938 20.15996551513672 88.74918365478516 15.70533657073975 84.2945556640625 C 11.25069332122803 79.83992767333984 7.753450393676758 74.65298461914062 5.310764789581299 68.87783050537109 C 2.782136201858521 62.89948654174805 1.500007629394531 56.54804229736328 1.500007629394531 49.99992752075195 C 1.500007629394531 43.45181274414062 2.782136201858521 37.10036849975586 5.310764789581299 31.12202835083008 C 7.753450393676758 25.34687042236328 11.25069332122803 20.15992736816406 15.70533657073975 15.70529937744141 C 20.15996551513672 11.25067043304443 25.34692192077637 7.753427505493164 31.12207984924316 5.310741901397705 C 37.10043716430664 2.782113313674927 43.4518928527832 1.499998927116394 50.00000762939453 1.499998927116394 C 56.54812240600586 1.499998927116394 62.89957809448242 2.782113313674927 68.87793731689453 5.310741901397705 C 74.65310668945312 7.753427505493164 79.84004974365234 11.25067043304443 84.29469299316406 15.70529937744141 C 88.74932098388672 20.15992736816406 92.24656677246094 25.34687042236328 94.68924713134766 31.12202835083008 C 97.21788024902344 37.10036849975586 98.50000762939453 43.45181274414062 98.50000762939453 49.99992752075195 C 98.50000762939453 56.54804229736328 97.21788024902344 62.89948654174805 94.68924713134766 68.87783050537109 C 92.24656677246094 74.65298461914062 88.74932098388672 79.83992767333984 84.29469299316406 84.2945556640625 C 79.84004974365234 88.74918365478516 74.65310668945312 92.24642944335938 68.87793731689453 94.68910980224609 C 62.89957809448242 97.21774291992188 56.54812240600586 98.49985504150391 50.00000762939453 98.49985504150391 Z" stroke="none"/>
                                                <path d="M 50.00000762939453 3.000007629394531 C 43.65373229980469 3.000007629394531 37.49887084960938 4.242263793945312 31.70640563964844 6.692268371582031 C 26.11003875732422 9.059326171875 21.08335876464844 12.44860076904297 16.7659912109375 16.76596069335938 C 12.44862365722656 21.08332824707031 9.059333801269531 26.11000823974609 6.692268371582031 31.70635986328125 C 4.242271423339844 37.49880599975586 3.000007629394531 43.65365219116211 3.000007629394531 49.99992752075195 C 3.000007629394531 56.3462028503418 4.242271423339844 62.50104904174805 6.692268371582031 68.29349517822266 C 9.059333801269531 73.88984680175781 12.44862365722656 78.91652679443359 16.7659912109375 83.23389434814453 C 21.08335876464844 87.55125427246094 26.11003875732422 90.94052886962891 31.70640563964844 93.30758666992188 C 37.49887084960938 95.75759124755859 43.65373229980469 96.99984741210938 50.00000762939453 96.99984741210938 C 56.34628295898438 96.99984741210938 62.50114440917969 95.75759124755859 68.29360961914062 93.30758666992188 C 73.88997650146484 90.94052886962891 78.91665649414062 87.55125427246094 83.23402404785156 83.23389434814453 C 87.5513916015625 78.91652679443359 90.94068145751953 73.88984680175781 93.30774688720703 68.29349517822266 C 95.75774383544922 62.50104904174805 97.00000762939453 56.3462028503418 97.00000762939453 49.99992752075195 C 97.00000762939453 43.65365219116211 95.75774383544922 37.49880599975586 93.30774688720703 31.70635986328125 C 90.94068145751953 26.11000823974609 87.5513916015625 21.08332824707031 83.23402404785156 16.76596069335938 C 78.91665649414062 12.44860076904297 73.88997650146484 9.059326171875 68.29360961914062 6.692268371582031 C 62.50114440917969 4.242263793945312 56.34628295898438 3.000007629394531 50.00000762939453 3.000007629394531 M 50.00000762939453 7.62939453125e-06 C 77.61424255371094 7.62939453125e-06 100.0000076293945 22.38572692871094 100.0000076293945 49.99992752075195 C 100.0000076293945 77.61412811279297 77.61424255371094 99.99984741210938 50.00000762939453 99.99984741210938 C 22.38578033447266 99.99984741210938 7.62939453125e-06 77.61412811279297 7.62939453125e-06 49.99992752075195 C 7.62939453125e-06 22.38572692871094 22.38578033447266 7.62939453125e-06 50.00000762939453 7.62939453125e-06 Z" stroke="none" fill="#f6c810"/>
                                              </g>
                                            </g>
                                          </g>
                                        </g>
                                      </g>
                                    </g>
                                  </g>
                                </g>
                              </g>
                            </g>
                          </g>
                        </g>
                      </g>
                    </g>
                  </g>
                </g>
              </g>
            </g>
          </g>
        </g>
      </g>
    </g>
    <g id="_x31_438_x2C__Business_x2C__Modern_x2C__Online_x2C__Shopping" transform="translate(755.238 3028.746)">
      <g id="Grupo_1211008" data-name="Grupo 1211008" transform="translate(16 16)">
        <path id="XMLID_67074_" d="M26,86H82.085v41.454H26Z" transform="translate(-24.781 -77.465)" fill="#ecf0f1"/>
        <path id="XMLID_67075_" d="M79.931,26H28.154A2.154,2.154,0,0,0,26,28.154v5.161H82.085V28.154A2.154,2.154,0,0,0,79.931,26Z" transform="translate(-24.781 -24.781)" fill="#57606f"/>
        <path id="XMLID_67078_" d="M26,431.161a2.154,2.154,0,0,0,2.154,2.154H79.931a2.154,2.154,0,0,0,2.154-2.154V426H26Z" transform="translate(-24.781 -376.011)" fill="#57606f"/>
        <path id="XMLID_67081_" d="M135.262,175.508v4.877H113.315V162.479l-3.867,3.866L106,162.9l6.9-6.9h5.3a6.1,6.1,0,0,0,12.192,0h5.3l6.9,6.9-3.448,3.448-3.867-3.866Z" transform="translate(-95.027 -138.93)" fill="#40b3e2"/>
        <path id="XMLID_67082_" d="M436,446h2.438v2.439H436Z" transform="translate(-384.792 -393.572)"/>
        <path id="XMLID_67083_" d="M436,46h2.438v2.438H436Z" transform="translate(-384.792 -42.342)"/>
        <path id="XMLID_67084_" d="M326,446h10.973v2.439H326Z" transform="translate(-288.203 -393.572)"/>
        <path id="XMLID_67085_" d="M326,46h10.973v2.438H326Z" transform="translate(-288.203 -42.342)"/>
        <path id="XMLID_67086_" d="M136,446h2.439v2.439H136Z" transform="translate(-121.369 -393.572)"/>
        <path id="XMLID_67087_" d="M136,46h2.439v2.438H136Z" transform="translate(-121.369 -42.342)"/>
        <path id="XMLID_67088_" d="M96,446h2.438v2.439H96Z" transform="translate(-86.246 -393.572)"/>
        <path id="XMLID_67089_" d="M96,46h2.438v2.438H96Z" transform="translate(-86.246 -42.342)"/>
        <path id="XMLID_67090_" d="M56,446h2.438v2.439H56Z" transform="translate(-51.123 -393.572)"/>
        <path id="XMLID_67091_" d="M56,46h2.438v2.438H56Z" transform="translate(-51.123 -42.342)"/>
        <path id="XMLID_67092_" d="M71.15,74.524H19.374A3.378,3.378,0,0,1,16,71.15V19.374A3.378,3.378,0,0,1,19.374,16H71.15a3.378,3.378,0,0,1,3.374,3.374V71.15A3.378,3.378,0,0,1,71.15,74.524ZM19.374,18.438a.936.936,0,0,0-.935.935V71.15a.936.936,0,0,0,.935.935H71.15a.936.936,0,0,0,.935-.935V19.374a.936.936,0,0,0-.935-.935Z" transform="translate(-16 -16)"/>
        <path id="XMLID_67095_" d="M73.3,78.438H17.219a1.219,1.219,0,1,1,0-2.438H73.3a1.219,1.219,0,1,1,0,2.438Z" transform="translate(-16 -68.685)"/>
        <path id="XMLID_67096_" d="M73.3,418.438H17.219a1.219,1.219,0,0,1,0-2.439H73.3a1.219,1.219,0,0,1,0,2.439Z" transform="translate(-16 -367.23)"/>
        <path id="XMLID_67097_" d="M126.481,172.824H104.535a1.219,1.219,0,0,1-1.219-1.219V156.642l-1.786,1.786a1.219,1.219,0,0,1-1.724,0l-3.448-3.448a1.219,1.219,0,0,1,0-1.724l6.9-6.9a1.219,1.219,0,0,1,.862-.357h5.3a1.219,1.219,0,0,1,1.219,1.219,4.877,4.877,0,1,0,9.754,0A1.219,1.219,0,0,1,121.6,146h5.3a1.22,1.22,0,0,1,.862.357l6.9,6.9a1.219,1.219,0,0,1,0,1.724l-3.448,3.448a1.219,1.219,0,0,1-1.724,0l-1.786-1.786v14.963a1.219,1.219,0,0,1-1.219,1.219Zm-20.727-2.439h19.508V153.7a1.219,1.219,0,0,1,2.081-.862l3.005,3,1.724-1.724-5.678-5.678h-3.672a7.316,7.316,0,0,1-14.428,0h-3.673l-5.678,5.678,1.724,1.724,3.005-3a1.219,1.219,0,0,1,2.081.862v16.687Z" transform="translate(-86.246 -130.151)"/>
        <path id="XMLID_67100_" d="M164.535,278.439h-7.316a1.219,1.219,0,0,1,0-2.439h7.316a1.219,1.219,0,0,1,0,2.439Z" transform="translate(-138.93 -244.3)"/>
        <path id="XMLID_67101_" d="M284.535,308.439h-7.315a1.219,1.219,0,0,1,0-2.439h7.315a1.219,1.219,0,1,1,0,2.439Z" transform="translate(-244.3 -270.642)"/>
        <path id="XMLID_67102_" d="M60.877,255.753a1.216,1.216,0,0,1-.862-.357l-3.658-3.658a1.219,1.219,0,0,1,0-1.724l3.658-3.658a1.219,1.219,0,1,1,1.724,1.724l-2.8,2.8,2.8,2.8a1.219,1.219,0,0,1-.862,2.081Z" transform="translate(-51.123 -217.957)"/>
        <path id="XMLID_67103_" d="M407.219,255.753a1.219,1.219,0,0,1-.862-2.082l2.8-2.8-2.8-2.8a1.219,1.219,0,1,1,1.724-1.724l3.658,3.658a1.219,1.219,0,0,1,0,1.724l-3.658,3.658a1.216,1.216,0,0,1-.862.357Z" transform="translate(-358.449 -217.957)"/>
      </g>
    </g>
  </g>
</svg>
