<svg xmlns="http://www.w3.org/2000/svg" xmlns:xlink="http://www.w3.org/1999/xlink" width="108" height="108" viewBox="0 0 108 108">
  <defs>
    <filter id="Trazado_982548" x="0" y="0" width="108" height="108" filterUnits="userSpaceOnUse">
      <feOffset dy="3" input="SourceAlpha"/>
      <feGaussianBlur stdDeviation="3" result="blur"/>
      <feFlood flood-opacity="0.161"/>
      <feComposite operator="in" in2="blur"/>
      <feComposite in="SourceGraphic"/>
    </filter>
  </defs>
  <g id="Grupo_1160762" data-name="Grupo 1160762" transform="translate(-156 -2088)">
    <g id="Grupo_1158925" data-name="Grupo 1158925" transform="translate(165 2094)">
      <g id="Grupo_1153335" data-name="Grupo 1153335" transform="translate(0)">
        <g id="Grupo_1149263" data-name="Grupo 1149263" transform="translate(0)">
          <g transform="matrix(1, 0, 0, 1, -9, -6)" filter="url(#Trazado_982548)">
            <g id="Trazado_982548-2" data-name="Trazado 982548" transform="translate(9 6)" fill="#e6fbf1">
              <path d="M 45 88.5 C 39.12687683105469 88.5 33.43022537231445 87.35007476806641 28.06830024719238 85.08217620849609 C 22.88852500915527 82.89131164550781 18.23629951477051 79.75458526611328 14.2408504486084 75.75914764404297 C 10.24541282653809 71.76370239257812 7.108687400817871 67.11147308349609 4.917825222015381 61.93170166015625 C 2.649924993515015 56.56977462768555 1.5 50.87312316894531 1.5 45 C 1.5 39.12687683105469 2.649924993515015 33.43022537231445 4.917825222015381 28.06830024719238 C 7.108687400817871 22.88852500915527 10.24541282653809 18.23629951477051 14.2408504486084 14.2408504486084 C 18.23629951477051 10.24541282653809 22.88852500915527 7.108687400817871 28.06830024719238 4.917825222015381 C 33.43022537231445 2.649924993515015 39.12687683105469 1.5 45 1.5 C 50.87312316894531 1.5 56.56977462768555 2.649924993515015 61.93170166015625 4.917825222015381 C 67.11147308349609 7.108687400817871 71.76370239257812 10.24541282653809 75.75914764404297 14.2408504486084 C 79.75458526611328 18.23629951477051 82.89131164550781 22.88852500915527 85.08217620849609 28.06830024719238 C 87.35007476806641 33.43022537231445 88.5 39.12687683105469 88.5 45 C 88.5 50.87312316894531 87.35007476806641 56.56977462768555 85.08217620849609 61.93170166015625 C 82.89131164550781 67.11147308349609 79.75458526611328 71.76370239257812 75.75914764404297 75.75914764404297 C 71.76370239257812 79.75458526611328 67.11147308349609 82.89131164550781 61.93170166015625 85.08217620849609 C 56.56977462768555 87.35007476806641 50.87312316894531 88.5 45 88.5 Z" stroke="none"/>
              <path d="M 45 3 C 39.32871246337891 3 33.82865524291992 4.110054016113281 28.65262985229492 6.299339294433594 C 23.65165710449219 8.414573669433594 19.15968322753906 11.44334411621094 15.301513671875 15.301513671875 C 11.44334411621094 19.15968322753906 8.414573669433594 23.65165710449219 6.299339294433594 28.65262985229492 C 4.110054016113281 33.82865524291992 3 39.32871246337891 3 45 C 3 50.67128753662109 4.110054016113281 56.17134475708008 6.299339294433594 61.34737396240234 C 8.414573669433594 66.34834289550781 11.44334411621094 70.84031677246094 15.301513671875 74.698486328125 C 19.15968322753906 78.55665588378906 23.65165710449219 81.58542633056641 28.65262985229492 83.70066070556641 C 33.82865524291992 85.88994598388672 39.32871246337891 87 45 87 C 50.67128753662109 87 56.17134475708008 85.88994598388672 61.34737396240234 83.70066070556641 C 66.34834289550781 81.58542633056641 70.84031677246094 78.55665588378906 74.698486328125 74.698486328125 C 78.55665588378906 70.84031677246094 81.58542633056641 66.34834289550781 83.70066070556641 61.34737396240234 C 85.88994598388672 56.17134475708008 87 50.67128753662109 87 45 C 87 39.32871246337891 85.88994598388672 33.82865524291992 83.70066070556641 28.65262985229492 C 81.58542633056641 23.65165710449219 78.55665588378906 19.15968322753906 74.698486328125 15.301513671875 C 70.84031677246094 11.44334411621094 66.34834289550781 8.414573669433594 61.34737396240234 6.299339294433594 C 56.17134475708008 4.110054016113281 50.67128753662109 3 45 3 M 45 0 C 69.85281372070312 0 90 20.14718627929688 90 45 C 90 69.85281372070312 69.85281372070312 90 45 90 C 20.14718627929688 90 0 69.85281372070312 0 45 C 0 20.14718627929688 20.14718627929688 0 45 0 Z" stroke="none" fill="#15da7e"/>
            </g>
          </g>
        </g>
      </g>
    </g>
    <g id="recursos-humanos_1_" data-name="recursos-humanos (1)" transform="translate(181 2110)">
      <g id="Grupo_1160760" data-name="Grupo 1160760" transform="translate(1.903 1.903)">
        <g id="Grupo_1160727" data-name="Grupo 1160727" transform="translate(39.335 34.323)">
          <path id="Trazado_994757" data-name="Trazado 994757" d="M48.666,40l.677,2.032v.009a8.911,8.911,0,0,0-3.794,1.9L46.86,40Z" transform="translate(-45.55 -40)" fill="#e6e9ed"/>
        </g>
        <g id="Grupo_1160728" data-name="Grupo 1160728" transform="translate(39.182 30.71)">
          <path id="Trazado_994758" data-name="Trazado 994758" d="M50.113,37.418,48.65,39.613H46.843L45.38,37.418,47.746,36Z" transform="translate(-45.38 -36)" fill="#ccd1d9"/>
        </g>
        <g id="Grupo_1160729" data-name="Grupo 1160729" transform="translate(42.452 28.786)">
          <path id="Trazado_994759" data-name="Trazado 994759" d="M59.748,39.47A26.1,26.1,0,0,1,58.1,43.86H58.1a9,9,0,0,0-6.386-2.646,8.874,8.874,0,0,0-2.032.235v-.009L49,39.407l1.463-2.195,2.15,1.292,1.545-4.634a11.337,11.337,0,0,1,5.591,5.6Z" transform="translate(-49 -33.87)" fill="#ff826e"/>
        </g>
        <g id="Grupo_1160730" data-name="Grupo 1160730" transform="translate(29.978 32.128)">
          <path id="Trazado_994760" data-name="Trazado 994760" d="M42.353,38.97a2.793,2.793,0,0,0,.3-.352l1.743-1.048,1.463,2.195L44.547,43.7a9.027,9.027,0,0,0-3.206,6.9v.054a11.054,11.054,0,0,0-2.972-1.969l-2.448-.795-.732-2.935a5.414,5.414,0,0,0,3.857-4.742l.036-.452h1.355A2.7,2.7,0,0,0,42.353,38.97Z" transform="translate(-35.19 -37.57)" fill="#ff826e"/>
        </g>
        <g id="Grupo_1160731" data-name="Grupo 1160731" transform="translate(41.548 28)">
          <path id="Trazado_994761" data-name="Trazado 994761" d="M48,35.71,51.613,33a11.073,11.073,0,0,1,2.448.786l-1.545,4.634-2.15-1.292Z" transform="translate(-48 -33)" fill="#fc6e51"/>
        </g>
        <g id="Grupo_1160732" data-name="Grupo 1160732" transform="translate(37.249 28)">
          <path id="Trazado_994762" data-name="Trazado 994762" d="M43.249,34.815l.388-1.563a1.573,1.573,0,0,0,.045-.2h.009c.072-.018.154-.036.235-.054l3.613,2.71-2.366,1.418L43.43,38.175a3.928,3.928,0,0,0,.5-1.563,2.642,2.642,0,0,0-.686-1.788Z" transform="translate(-43.24 -33)" fill="#fc6e51"/>
        </g>
        <g id="Grupo_1160733" data-name="Grupo 1160733" transform="translate(0.939 29.951)">
          <path id="Trazado_994763" data-name="Trazado 994763" d="M16.516,37.725a7.781,7.781,0,0,0,.7-2.177l.063-.388a1.5,1.5,0,0,0,.334.126,6.815,6.815,0,0,1,1.03.325,2.6,2.6,0,0,0-.289,1.21,2.714,2.714,0,0,0,2.71,2.71h1.355l.036.452a5.414,5.414,0,0,0,3.857,4.742l-.732,2.935a11.568,11.568,0,0,0-2.448.786,11.266,11.266,0,0,0-6.35,7.939,25.914,25.914,0,0,1-3.848-2.4V44.951H9.326v3.613H7.52a26.747,26.747,0,0,1-4.48-9.195,8.142,8.142,0,0,1,5.221-4.083,1.5,1.5,0,0,0,.334-.126l.063.388A8.128,8.128,0,0,0,10.1,38.954a7.99,7.99,0,0,0,2.836,2.385A7.96,7.96,0,0,0,16.516,37.725Z" transform="translate(-3.04 -35.16)" fill="#4fc1e9"/>
        </g>
        <g id="Grupo_1160734" data-name="Grupo 1160734" transform="translate(24.432 48.774)">
          <path id="Trazado_994764" data-name="Trazado 994764" d="M32.618,56l1.761,5.293c-.876.081-1.761.126-2.665.126a25.923,25.923,0,0,1-2.665-.135L30.811,56Z" transform="translate(-29.05 -56)" fill="#ff826e"/>
        </g>
        <g id="Grupo_1160735" data-name="Grupo 1160735" transform="translate(24.73 45.161)">
          <path id="Trazado_994765" data-name="Trazado 994765" d="M29.38,53.418,31.746,52l2.366,1.418L32.65,55.613H30.843Z" transform="translate(-29.38 -52)" fill="#fc6e51"/>
        </g>
        <g id="Grupo_1160736" data-name="Grupo 1160736" transform="translate(28 43.246)">
          <path id="Trazado_994766" data-name="Trazado 994766" d="M43.775,58.181v.009A27.016,27.016,0,0,1,34.761,60.7L33,55.408l1.463-2.195,2.15,1.292,1.545-4.625a11.054,11.054,0,0,1,2.972,1.969A9.006,9.006,0,0,0,43.775,58.181Z" transform="translate(-33 -49.88)" fill="#b4dd7f"/>
        </g>
        <g id="Grupo_1160737" data-name="Grupo 1160737" transform="translate(14.686 43.237)">
          <path id="Trazado_994767" data-name="Trazado 994767" d="M28.3,53.212l1.463,2.195-1.761,5.284a26.754,26.754,0,0,1-9.746-2.872v-.009a11.266,11.266,0,0,1,6.35-7.939L26.154,54.5Z" transform="translate(-18.26 -49.87)" fill="#b4dd7f"/>
        </g>
        <g id="Grupo_1160738" data-name="Grupo 1160738" transform="translate(27.097 42.452)">
          <path id="Trazado_994768" data-name="Trazado 994768" d="M35.613,49l2.448.795-1.545,4.625-2.15-1.292L32,51.71Z" transform="translate(-32 -49)" fill="#a0d468"/>
        </g>
        <g id="Grupo_1160739" data-name="Grupo 1160739" transform="translate(21.036 42.452)">
          <path id="Trazado_994769" data-name="Trazado 994769" d="M27.738,49l3.613,2.71-2.366,1.418-2.15,1.292L25.29,49.786A11.568,11.568,0,0,1,27.738,49Z" transform="translate(-25.29 -49)" fill="#a0d468"/>
        </g>
        <g id="Grupo_1160740" data-name="Grupo 1160740" transform="translate(7.262 32.516)">
          <path id="Trazado_994770" data-name="Trazado 994770" d="M10.04,38h7.154a7.96,7.96,0,0,1-3.577,3.613A7.865,7.865,0,0,1,10.04,38Z" transform="translate(-10.04 -38)" fill="#e6e9ed"/>
        </g>
        <g id="Grupo_1160741" data-name="Grupo 1160741" transform="translate(16.258 16.258)">
          <path id="Trazado_994771" data-name="Trazado 994771" d="M41.388,31.995,41,33.557l-.009.009a2.646,2.646,0,0,0-2.023-.921h-.9v-.072a1.737,1.737,0,0,0-1.716-1.734H31.832A5.6,5.6,0,0,1,27.56,28.87L25.1,30.089a2.707,2.707,0,0,0-1.49,2.421v.135h-.9a2.646,2.646,0,0,0-2.023.921l-.009-.009-.65-5.194v-.018A2.753,2.753,0,0,1,20,27.912a3.464,3.464,0,0,1,.65-2.023,3.241,3.241,0,0,1,1.039-.939,2.9,2.9,0,0,1,.677-.316l.343-.117a5.6,5.6,0,0,1,1.942-3.243,5.487,5.487,0,0,1,.768-.524v-.009a5.682,5.682,0,0,1,2.8-.741h3.812a9.415,9.415,0,0,1,2.484.325,9.692,9.692,0,0,1,7.163,9.321,10.37,10.37,0,0,1-.244,2.15,1.573,1.573,0,0,1-.045.2Z" transform="translate(-20 -20)" fill="#b27946"/>
        </g>
        <g id="Grupo_1160742" data-name="Grupo 1160742" transform="translate(11.823 7.406)">
          <path id="Trazado_994772" data-name="Trazado 994772" d="M21.331,20.461a1.8,1.8,0,0,0-1.364-1.752,8.387,8.387,0,0,1-3.884-2.195l-.542-.542a2.017,2.017,0,0,0-.452-.334l1.788-1.788-1.5-1.5c.108-.253.108-.271.217-.524h2.123V10.2a9.04,9.04,0,0,1,7.226,8.852v.75a5.487,5.487,0,0,0-.768.524,5.6,5.6,0,0,0-1.942,3.243l-.343.117a2.9,2.9,0,0,0-.677.316l-.009-.009a7.117,7.117,0,0,0,.126-1.328Z" transform="translate(-15.09 -10.2)" fill="#656d78"/>
        </g>
        <g id="Grupo_1160743" data-name="Grupo 1160743" transform="translate(28.903 3.613)">
          <path id="Trazado_994773" data-name="Trazado 994773" d="M37.2,6h5.835a9.032,9.032,0,0,0-1.445,7.948l-.677.334a2.707,2.707,0,0,0-1.49,2.421v.135h-.9A2.687,2.687,0,0,0,36.3,17.986l-.686-.343a2.916,2.916,0,0,1,0-5.221l.19-.1-.867-.867A3.193,3.193,0,0,1,37.2,6Z" transform="translate(-34 -6)" fill="#656d78"/>
        </g>
        <g id="Grupo_1160744" data-name="Grupo 1160744" transform="translate(48.323 15.418)">
          <path id="Trazado_994774" data-name="Trazado 994774" d="M56.855,23.523H55.5l.208-2.457a9.067,9.067,0,0,0,3.017-2h.009c.307.632.578,1.274.822,1.933A2.7,2.7,0,0,1,56.855,23.523Z" transform="translate(-55.5 -19.07)" fill="#f0d0b4"/>
        </g>
        <g id="Grupo_1160745" data-name="Grupo 1160745" transform="translate(37.935 25.065)">
          <path id="Trazado_994775" data-name="Trazado 994775" d="M50.494,29.75l.732,2.935L47.613,35.4,44,32.685l.732-2.935a5.459,5.459,0,0,0,1.545.226H48.95A5.459,5.459,0,0,0,50.494,29.75Z" transform="translate(-44 -29.75)" fill="#f0d0b4"/>
        </g>
        <g id="Grupo_1160746" data-name="Grupo 1160746" transform="translate(34.323 11.561)">
          <path id="Trazado_994776" data-name="Trazado 994776" d="M43.541,28a9.562,9.562,0,0,0-3.188-6.079l-.343-4.092A.684.684,0,0,1,40,17.69v-.135a2.707,2.707,0,0,1,1.49-2.421l.677-.334a9.036,9.036,0,0,0,12.04,5.853L54,23.11l-.036.452a5.425,5.425,0,0,1-5.4,4.968H45.889a5.459,5.459,0,0,1-1.545-.226,5.692,5.692,0,0,1-.8-.307Z" transform="translate(-40 -14.8)" fill="#f0d0b4"/>
        </g>
        <g id="Grupo_1160747" data-name="Grupo 1160747" transform="translate(30.773 14.452)">
          <path id="Trazado_994777" data-name="Trazado 994777" d="M39.629,18.135l.343,4.092a9.572,9.572,0,0,0-3.9-2.1A2.71,2.71,0,0,1,38.716,18h.9A.684.684,0,0,0,39.629,18.135Z" transform="translate(-36.07 -18)" fill="#f0d0b4"/>
        </g>
        <g id="Grupo_1160748" data-name="Grupo 1160748" transform="translate(33.871 28.903)">
          <path id="Trazado_994778" data-name="Trazado 994778" d="M40.855,34a2.733,2.733,0,0,1,2.71,2.71,3.928,3.928,0,0,1-.5,1.563,2.792,2.792,0,0,1-.3.352,2.7,2.7,0,0,1-1.915.795H39.5l.443-5.347A.176.176,0,0,0,39.952,34Z" transform="translate(-39.5 -34)" fill="#f0d0b4"/>
        </g>
        <g id="Grupo_1160749" data-name="Grupo 1160749" transform="translate(23.484 39.516)">
          <path id="Trazado_994779" data-name="Trazado 994779" d="M34.494,45.75l.732,2.935L31.613,51.4,28,48.685l.732-2.935a5.459,5.459,0,0,0,1.545.226H32.95A5.459,5.459,0,0,0,34.494,45.75Z" transform="translate(-28 -45.75)" fill="#f0d0b4"/>
        </g>
        <g id="Grupo_1160750" data-name="Grupo 1160750" transform="translate(19.871 25.128)">
          <path id="Trazado_994780" data-name="Trazado 994780" d="M38.452,33.523V33.6a.254.254,0,0,1-.009.072L38,39.015l-.036.452a5.425,5.425,0,0,1-5.4,4.968H29.889a5.425,5.425,0,0,1-5.4-4.968l-.036-.452-.443-5.284A.684.684,0,0,1,24,33.6V33.46a2.707,2.707,0,0,1,1.49-2.421l2.457-1.219a5.6,5.6,0,0,0,4.272,1.969h4.516A1.737,1.737,0,0,1,38.452,33.523Z" transform="translate(-24 -29.82)" fill="#f0d0b4"/>
        </g>
        <g id="Grupo_1160751" data-name="Grupo 1160751" transform="translate(16.258 28.903)">
          <path id="Trazado_994781" data-name="Trazado 994781" d="M23.622,34.135l.443,5.284H22.71A2.714,2.714,0,0,1,20,36.71a2.6,2.6,0,0,1,.289-1.21,2.274,2.274,0,0,1,.4-.578A2.646,2.646,0,0,1,22.71,34h.9a.684.684,0,0,0,.009.135Z" transform="translate(-20 -34)" fill="#f0d0b4"/>
        </g>
        <g id="Grupo_1160752" data-name="Grupo 1160752" transform="translate(6.494 26.537)">
          <path id="Trazado_994782" data-name="Trazado 994782" d="M17.879,34.794l-.063.388a7.781,7.781,0,0,1-.7,2.177H9.958a8.086,8.086,0,0,1-.7-2.177l-.063-.388a1.829,1.829,0,0,0,1-1.21l.551-2.2a7.235,7.235,0,0,0,5.582,0l.551,2.2A1.829,1.829,0,0,0,17.879,34.794Z" transform="translate(-9.19 -31.38)" fill="#f0d0b4"/>
        </g>
        <g id="Grupo_1160753" data-name="Grupo 1160753" transform="translate(3.613 12.112)">
          <path id="Trazado_994783" data-name="Trazado 994783" d="M18.672,27.92a7.111,7.111,0,0,1-2.655,1.915A7.221,7.221,0,0,1,6,23.169v-6.3c.081-.145.172-.28.253-.425l1.03-1.03c.253.1.271.108.524.217v2.123h3.613V15.627c.253-.108.271-.108.524-.217l1.5,1.5.768-.768a2.017,2.017,0,0,1,.452.334l.542.542a8.387,8.387,0,0,0,3.884,2.195,1.8,1.8,0,0,1,1.364,1.752v2.2a7.117,7.117,0,0,1-.126,1.328l.009.009a3.241,3.241,0,0,0-1.039.939,3.464,3.464,0,0,0-.65,2.023,2.753,2.753,0,0,0,.027.434Z" transform="translate(-6 -15.41)" fill="#f0d0b4"/>
        </g>
        <g id="Grupo_1160754" data-name="Grupo 1160754" transform="translate(36.129 0)">
          <path id="Trazado_994784" data-name="Trazado 994784" d="M57.418,17.418A9.032,9.032,0,0,1,43.806,5.613a9.616,9.616,0,0,1,.84-.966A9.031,9.031,0,1,1,57.418,17.418Z" transform="translate(-42 -2)" fill="#69d6f4"/>
        </g>
        <g id="Grupo_1160755" data-name="Grupo 1160755" transform="translate(36.129 36.129)">
          <path id="Trazado_994785" data-name="Trazado 994785" d="M57.418,44.646A9.031,9.031,0,1,1,42,51.086v-.054a9.027,9.027,0,0,1,3.206-6.9A9.08,9.08,0,0,1,51.032,42,9,9,0,0,1,57.418,44.646Z" transform="translate(-42 -42)" fill="#fcd770"/>
        </g>
        <g id="Grupo_1160756" data-name="Grupo 1160756" transform="translate(7.226 39.742)">
          <path id="Trazado_994786" data-name="Trazado 994786" d="M13.613,55.032v5.419H10V46h3.613Z" transform="translate(-10 -46)" fill="#ff826e"/>
        </g>
        <g id="Grupo_1160757" data-name="Grupo 1160757" transform="translate(3.613 43.355)">
          <path id="Trazado_994787" data-name="Trazado 994787" d="M9.613,50V60.839H6V50H9.613Z" transform="translate(-6 -50)" fill="#ff826e"/>
        </g>
        <g id="Grupo_1160758" data-name="Grupo 1160758" transform="translate(0 46.968)">
          <path id="Trazado_994788" data-name="Trazado 994788" d="M2,54H5.613v7.226H2Z" transform="translate(-2 -54)" fill="#ff826e"/>
        </g>
        <g id="Grupo_1160759" data-name="Grupo 1160759" transform="translate(0 0)">
          <path id="Trazado_994789" data-name="Trazado 994789" d="M13.823,14.844l-.768.768-1.5-1.5c-.253.108-.271.108-.524.217v2.123H7.419V14.329c-.253-.108-.271-.117-.524-.217l-1.03,1.03-.47.47L2.84,13.055l1.5-1.5c-.1-.253-.108-.271-.217-.524H2V7.419H4.123c.108-.253.108-.271.217-.524L2.84,5.4,5.4,2.84l1.5,1.5c.253-.108.271-.108.524-.217V2h3.613V4.123c.253.108.271.108.524.217l1.5-1.5L15.612,5.4l-.47.47L14.112,6.9c.108.253.108.271.217.524h2.123v3.613H14.329c-.108.253-.108.271-.217.524l1.5,1.5ZM11.032,9.226a1.806,1.806,0,1,0-1.806,1.806A1.812,1.812,0,0,0,11.032,9.226Z" transform="translate(-2 -2)" fill="#fcd770"/>
        </g>
      </g>
      <g id="Grupo_1160761" data-name="Grupo 1160761" transform="translate(1 1)">
        <path id="Trazado_994790" data-name="Trazado 994790" d="M52.613,46.973V45H50.806v1.806H49v2.71a2.713,2.713,0,0,0,2.71,2.71.9.9,0,0,1,.9.9v.9h-.9a.9.9,0,0,1-.9-.9v-.9H49v.9a2.706,2.706,0,0,0,1.806,2.543v1.973h1.806V55.839h1.806v-2.71a2.713,2.713,0,0,0-2.71-2.71.9.9,0,0,1-.9-.9v-.9h.9a.9.9,0,0,1,.9.9v.9h1.806v-.9A2.706,2.706,0,0,0,52.613,46.973Z" transform="translate(-5.645 -5.258)"/>
        <path id="Trazado_994791" data-name="Trazado 994791" d="M9.71,12.419A2.71,2.71,0,1,0,7,9.71,2.713,2.713,0,0,0,9.71,12.419Zm0-3.613a.9.9,0,1,1-.9.9A.9.9,0,0,1,9.71,8.806Z" transform="translate(-1.581 -1.581)"/>
        <path id="Trazado_994792" data-name="Trazado 994792" d="M54.518,17.483a9.919,9.919,0,0,0-14-14,27.948,27.948,0,0,0-24.71.829L12.961,1.465,11.839,2.587V1H6.419V2.587L5.3,1.465,1.465,5.3,2.588,6.419H1v5.419H2.587L1.465,12.961l2.847,2.846A27.928,27.928,0,0,0,5.6,44.355H4.613v3.613H1V57H13.645V52.4a27.941,27.941,0,0,0,26.872,2.118,9.919,9.919,0,0,0,14-14,27.961,27.961,0,0,0,0-23.034ZM47.065,37.129a9.925,9.925,0,0,0-1.419.113l-.294-.882.74-1.11,2.378,1.427,1.561-4.684a10.35,10.35,0,0,1,4.1,4.4,26.158,26.158,0,0,1-1.01,2.815A9.879,9.879,0,0,0,47.065,37.129ZM6.419,17.258h5.419V15.671l1.122,1.122.826-.826.294.294a9.259,9.259,0,0,0,4.3,2.435.9.9,0,0,1,.685.876v2.2a6.285,6.285,0,0,1-.059.813,4.354,4.354,0,0,0-1.748,3.487c0,.043,0,.075,0,.11a6.314,6.314,0,0,1-10.841-4.41Zm9.251-5.419h1.588V10.5a8.153,8.153,0,0,1,5.419,7.658v.275a6.549,6.549,0,0,0-1.806,1.889v-.753a2.707,2.707,0,0,0-2.052-2.629,7.451,7.451,0,0,1-3.461-1.959l-.294-.294,1.729-1.729Zm1.839,16.514.353,2.818c-.075-.021-.146-.052-.221-.071a.929.929,0,0,1-.677-.677l-.376-1.5A8,8,0,0,0,17.509,28.352Zm-1.78,5.164H9.755a7.033,7.033,0,0,1-.363-1.261,2.705,2.705,0,0,0,.879-1.394l.315-1.258a7.863,7.863,0,0,0,4.311,0l.315,1.261a2.719,2.719,0,0,0,.88,1.395A7.045,7.045,0,0,1,15.729,33.516Zm-1.056,1.806a7.036,7.036,0,0,1-1.931,1.683,7.036,7.036,0,0,1-1.931-1.683Zm6.2-3.613h.072l.3,3.613h-.374a1.806,1.806,0,0,1,0-3.613ZM20.96,29.9h-.089a3.578,3.578,0,0,0-1.315.257l-.472-3.766a2.138,2.138,0,0,1-.019-.32,2.553,2.553,0,0,1,1.749-2.426l.842-.281.1-.514a4.727,4.727,0,0,1,4.623-3.789h3.809a8.749,8.749,0,0,1,8.486,10.87l-.072.29a3.575,3.575,0,0,0-1.473-.322h-.147a2.631,2.631,0,0,0-2.474-1.8v0a4.727,4.727,0,0,1-4.623-3.79l-1.771.354a6.493,6.493,0,0,0,1.9,3.436h-.022a4.727,4.727,0,0,1-4.623-3.79l-1.771.354a6.479,6.479,0,0,0,.776,2.03l-1.513.756a3.574,3.574,0,0,0-1.9,2.457ZM32.38,10.329A2.291,2.291,0,0,1,34,6.419h4.226a9.856,9.856,0,0,0-.882,6.561l-.03.014a3.573,3.573,0,0,0-1.9,2.457h-.089a3.609,3.609,0,0,0-2.413.945l-.084-.042a2.02,2.02,0,0,1,0-3.613l1.311-.656Zm14.685-6.8.857,1.286a11.022,11.022,0,0,1,.881,1.6H45.327a11.023,11.023,0,0,1,.881-1.6Zm2.366,4.694a10.868,10.868,0,0,1,0,5.419H44.7a10.868,10.868,0,0,1,0-5.419Zm5.763,2.71a8.071,8.071,0,0,1-.474,2.71H51.29a12.768,12.768,0,0,0,0-5.419h3.43A8.071,8.071,0,0,1,55.194,10.935Zm-1.839,8.422a1.805,1.805,0,0,1-1.774,1.514h-.374l.079-.955a9.9,9.9,0,0,0,1.837-1.125Q53.243,19.074,53.355,19.357ZM43.872,35.323h-.84l-.668-1,1.088-.653,1.088.653ZM37.057,31.71h.072a1.806,1.806,0,0,1,0,3.613h-.374Zm3.082-.186.056-.225,1.64,1.23L40.71,33.2a3.587,3.587,0,0,0-.572-1.68Zm4.929,1.005,2.19-1.643a10.334,10.334,0,0,1,1.125.336l-.916,2.746Zm.975-2.988-2.591,1.943L40.86,29.54l.378-1.511a6.288,6.288,0,0,0,.878.068h2.673a6.121,6.121,0,0,0,.877-.07ZM44.787,26.29H42.115a4.465,4.465,0,0,1-1.537-.271,10.529,10.529,0,0,0-3.128-5.847l-.313-3.758c-.005-.065-.008-.132-.008-.2a1.773,1.773,0,0,1,.769-1.452,9.955,9.955,0,0,0,8.264,6.062v.046a1.808,1.808,0,0,1-1.806,1.806H40.742v1.806h3.613a3.617,3.617,0,0,0,3.613-3.613v-.046a9.861,9.861,0,0,0,1.451-.248l-.131,1.572a4.543,4.543,0,0,1-4.5,4.142Zm-9.393-9.032.122,1.46a10.535,10.535,0,0,0-1.606-.769,1.808,1.808,0,0,1,1.412-.691Zm11.67,1.081-.857-1.286a11.157,11.157,0,0,1-.881-1.6H48.8a11.022,11.022,0,0,1-.881,1.6Zm-2.36-.284.529.793a8.148,8.148,0,0,1-4.923-3.4h3.061a12.793,12.793,0,0,0,1.332,2.6Zm4.192.793.529-.793a12.843,12.843,0,0,0,1.333-2.6H53.82A8.153,8.153,0,0,1,48.9,18.849Zm-6.057-5.2H39.41a7.979,7.979,0,0,1,0-5.419h3.43a12.768,12.768,0,0,0,0,5.419ZM23.67,29.062l1.862-.93A6.519,6.519,0,0,0,29.993,29.9h4.5a.846.846,0,0,1,.828.9l-.483,5.8a4.543,4.543,0,0,1-4.5,4.141H27.663a4.542,4.542,0,0,1-4.5-4.141l-.478-5.733c-.005-.067-.008-.133-.008-.2a1.785,1.785,0,0,1,.993-1.606Zm6.946,17.918L32.8,45.34a10.508,10.508,0,0,1,1.13.327l-.918,2.752Zm-2.952-4.432h2.673a6.111,6.111,0,0,0,.877-.07l.378,1.513L29,45.935l-2.591-1.944.378-1.513a6.133,6.133,0,0,0,.878.07Zm-2.48,2.783,2.2,1.649-2.4,1.44-.92-2.76a10.31,10.31,0,0,1,1.12-.329Zm-2.766,1.1,1.565,4.7L26.362,49.7l.74,1.11L25.715,54.97a25.807,25.807,0,0,1-8.074-2.379,10.294,10.294,0,0,1,4.777-6.16Zm6.162,3.343-.668-1L29,48.118l1.088.653-.668,1Zm3.059-.073,2.378,1.427,1.559-4.678a10.319,10.319,0,0,1,1.579,1.118,9.874,9.874,0,0,0,2.054,5.556,25.819,25.819,0,0,1-6.918,1.86L30.9,50.812Zm5.643-4.321A12.122,12.122,0,0,0,33.354,43.6l-.407-1.628a6.358,6.358,0,0,0,3.638-4.839h.544a3.591,3.591,0,0,0,2.786-1.341l.9-.538.74,1.11-1.106,3.315a9.924,9.924,0,0,0-3.164,5.706ZM43.2,37.129h.5l.177.532a9.917,9.917,0,0,0-.994.4Zm11.534-3.243a12.169,12.169,0,0,0-6.926-4.741L47.4,27.517a6.358,6.358,0,0,0,3.638-4.839h.543A3.6,3.6,0,0,0,54.133,21.6a26.1,26.1,0,0,1,1.06,7.4,26.434,26.434,0,0,1-.461,4.886ZM53.819,6.419H50.758a12.843,12.843,0,0,0-1.333-2.6L48.9,3.022A8.148,8.148,0,0,1,53.819,6.419Zm-8.586-3.4-.529.793a12.886,12.886,0,0,0-1.332,2.6H40.31a8.148,8.148,0,0,1,4.923-3.4ZM38.559,4.613H34a4.1,4.1,0,0,0-2.9,6.995l.082.081a3.825,3.825,0,0,0-.107,5.614c-.294-.024-.589-.045-.89-.045H26.379a6.454,6.454,0,0,0-1.922.3,9.96,9.96,0,0,0-7.2-8.957V6.419H15.732A26.18,26.18,0,0,1,38.559,4.613ZM4.629,10.032H2.806V8.226H4.629l.68-1.639L4.019,5.3,5.3,4.019l1.289,1.29,1.639-.679V2.806h1.806V4.629l1.639.679,1.289-1.289L14.239,5.3l-1.29,1.289.68,1.639h1.823v1.806H13.629l-.68,1.639,1.29,1.289-1.278,1.277-1.289-1.289-1.639.68v1.823H8.226V13.627l-1.638-.678L5.3,14.238,4.019,12.961l1.289-1.288Zm-.016,9.436v2.306a8.136,8.136,0,0,0,4.279,7.157l-.374,1.492a.93.93,0,0,1-.677.677,9.024,9.024,0,0,0-4.566,2.784A25.911,25.911,0,0,1,4.613,19.468ZM2.806,49.774H4.613v5.419H2.806Zm3.613,5.419V46.161H8.226v9.032Zm5.419,0H10.032V42.548h1.806ZM8.226,40.742v3.613H7.794A25.954,25.954,0,0,1,3.822,36.19a7.229,7.229,0,0,1,3.9-3.165,8.856,8.856,0,0,0,4.618,5.815l.4.2.4-.2a8.863,8.863,0,0,0,4.207-4.528,3.614,3.614,0,0,0,3.518,2.817h.543a6.361,6.361,0,0,0,3.639,4.839L24.646,43.6a12.1,12.1,0,0,0-8.63,8.136,26.407,26.407,0,0,1-2.37-1.526V40.742ZM27.562,55.137l1.185-3.556h.5l1.191,3.573q-.718.039-1.443.04c-.482,0-.96-.032-1.438-.057Zm19.5.057a8.129,8.129,0,1,1,8.129-8.129A8.138,8.138,0,0,1,47.065,55.194Z" transform="translate(-1 -1)"/>
        <path id="Trazado_994793" data-name="Trazado 994793" d="M36.226,39H34.419a1.808,1.808,0,0,1-1.806,1.806H29v1.806h3.613A3.617,3.617,0,0,0,36.226,39Z" transform="translate(-3.71 -4.677)"/>
        <path id="Trazado_994794" data-name="Trazado 994794" d="M18.226,25H16.419a1.808,1.808,0,0,1-1.806,1.806H11v1.806h3.613A3.617,3.617,0,0,0,18.226,25Z" transform="translate(-1.968 -3.323)"/>
      </g>
    </g>
  </g>
</svg>
