<svg xmlns="http://www.w3.org/2000/svg" width="397.678" height="411.492" viewBox="0 0 397.678 411.492">
  <g id="Grupo_1160578" data-name="Grupo 1160578" transform="translate(0)">
    <path id="Trazado_994470" data-name="Trazado 994470" d="M472.272,444.337a12.217,12.217,0,0,0,11.777-12.553v-.051c12.061-4.392,34.952-12.848,53.963-20.59l77.455-9.8a11.735,11.735,0,0,0,9.216-6.8,43.089,43.089,0,0,0,13.537-12.248c20.03-28.544,29.789-115.486,30.838-125.3a11.736,11.736,0,0,0-9.444-12.766l-.264-.051c.806-3.707,1.83-8.465,2.869-13.388a55.243,55.243,0,0,0,4.55-23,12.105,12.105,0,0,0,.635-8.551,61.425,61.425,0,0,0-3.745-9.882c-1.281-12-4.153-16.088-7.155-18.468-.19-.946-.409-1.914-.665-2.876.272-.575.567-1.181.87-1.8.553-1.126,1.1-2.253,1.605-3.389,5.16-11.644,5.168-25.642.02-38.4a52.273,52.273,0,0,0-21.29-25.361A57.335,57.335,0,0,0,580.66,53.451c-1.717,0-3.439.078-5.158.235A56.98,56.98,0,0,0,545.785,34.55a55.08,55.08,0,0,0-13.623-1.7A57.448,57.448,0,0,0,493,48.238c-8.58,8.115-13.738,17.934-18.726,27.429-1.8,3.436-3.518,6.7-5.346,9.788-1.678.149-2.849.282-3.336.338-1.33-.008-5.448-.014-6.011-.012-1.083-1.03-2.188-2.186-3.326-3.377-1.281-1.339-2.563-2.677-3.9-3.958A64.426,64.426,0,0,0,408.2,60.464a55.342,55.342,0,0,0-19.258,3.383c-23.491,8.682-38.113,33.827-33.288,57.242.17.831.366,1.666.563,2.5.186.784.436,1.842.567,2.622a45.181,45.181,0,0,1-7.919,2.436l-1.365.334a57,57,0,0,0-23.413,12.1A57.655,57.655,0,0,0,301.235,249c-2.89,9.335-2.931,20.463-.16,33.659,1.846,8.8,5.332,21.657,14.278,31.669.616.69,1.261,1.365,1.928,2.026a299.635,299.635,0,0,0-1.179,64.489c3.611,39.791,12.238,45.3,15.488,47.368,3.469,2.223,9.309,5.962,73.171,11.163,26.989,2.2,53.993,3.793,63.091,4.311a12.284,12.284,0,0,0,4.007.667S472.141,444.343,472.272,444.337Z" transform="translate(-271.446 -32.855)" fill="#fff"/>
    <g id="Grupo_1160577" data-name="Grupo 1160577" transform="translate(2.283 12.154)">
      <g id="Grupo_1160576" data-name="Grupo 1160576">
        <path id="Trazado_994471" data-name="Trazado 994471" d="M544.477,267.286c2.722-6.848,3.49-15.156,9.329-19.651,6.734-5.186,16.282-2.473,24.77-2.032a42.371,42.371,0,0,0,39.76-61.927c-3.166-6.062-7.956-11.949-7.45-18.771.327-4.415,2.865-8.3,4.658-12.352,8.92-20.132-3.746-46.766-24.989-52.553-14.5-3.952-33.131-.5-41.942-12.678-3.625-5.01-4.388-11.46-6.29-17.344a44.732,44.732,0,0,0-73.3-18.734c-10.244,9.689-15.279,23.491-22.57,35.56-1.871,3.1-4.044,6.224-7.274,7.853-4.812,2.427-10.8.854-15.252-2.182s-7.849-7.348-11.736-11.083c-13.335-12.809-33.876-18.468-51.222-12.057s-29.6,25.76-25.865,43.872c.761,3.692,2.114,7.5,1.1,11.128-1.967,7.026-10.833,8.764-17.913,10.522-14.207,3.527-28.311,14.55-28.47,29.187-.2,18.185,20.717,33.892,14.882,51.116-3.347,9.88-14.237,14.96-20.245,23.489-7.174,10.183-6.5,23.894-3.942,36.086,1.987,9.468,5.1,19.047,11.544,26.26,8.51,9.526,21.839,13.623,34.613,13.594s25.232-3.711,37.407-7.573c3.772-1.2,7.671-2.429,11.6-2.016,10.977,1.154,16.347,13.441,23.194,22.1a45.082,45.082,0,0,0,68.274,2.829c5.647-6.036,9.438-13.441,12.631-20.992,2.544-6.02,4.286-13.427,9.061-18.2,3.807-3.8,8.605-4.622,13.814-4.28,8.807.579,16.343,2.387,24.815-1.469A33.267,33.267,0,0,0,544.477,267.286Z" transform="translate(-241.857 -39.071)" fill="#e9a6fb"/>
        <g id="Grupo_1160541" data-name="Grupo 1160541" transform="translate(271.224 96.272)">
          <g id="Grupo_1160536" data-name="Grupo 1160536" transform="translate(0 99.787)">
            <path id="Trazado_994472" data-name="Trazado 994472" d="M389.8,154.436l-77.828-15.093-34.433,150s64.622,11.793,83.489-15.093S389.8,154.436,389.8,154.436Z" transform="translate(-277.536 -139.337)" fill="#ffe9e1"/>
            <path id="Trazado_994473" data-name="Trazado 994473" d="M277.54,139.34s6.632,7.243,20.064,13.431c5.338,2.458,13.447-.665,20.965.96,11.583,2.475,18.736,7.3,25,5.839,8-1.865,11.787-5.137,11.787-5.137l-11.362-2.2-45.078-8.758Z" transform="translate(-243.101 -139.34)"/>
          </g>
          <g id="Grupo_1160540" data-name="Grupo 1160540" transform="translate(45.516)">
            <g id="Grupo_1160539" data-name="Grupo 1160539">
              <g id="Grupo_1160537" data-name="Grupo 1160537" transform="translate(6.833)">
                <path id="Trazado_994474" data-name="Trazado 994474" d="M278.494,201.525a93.252,93.252,0,0,0,19.3,6.392c11.583,2.475,20.4,1.865,26.659.407l.424-7.334.278-4.636s8.295-37.392,9.145-45.19a5.482,5.482,0,0,0,.055-1.275c-.352-2.18-2.4-6.724-3.326-8.7A.142.142,0,0,0,331,141.1c-.24-.536-.407-.868-.407-.868a.8.8,0,0,0-.018-.129,90.907,90.907,0,0,0-1.957-10.844.75.75,0,0,1-.055-.129,2.749,2.749,0,0,0-.573-1.163,2.122,2.122,0,0,0-.278-.184c-.092-.055-.2-.092-.315-.149a8.365,8.365,0,0,0-3.418-.129s-.018-.3-.092-.776a62.819,62.819,0,0,0-1.94-11.067.132.132,0,0,0-.037-.092,6.246,6.246,0,0,0-.647-1.441.773.773,0,0,0-.186-.241.784.784,0,0,0-.186-.184,1.306,1.306,0,0,0-.2-.129c-2.125-.942-6.374-.461-6.374-.461s-9.9-24.293-12.729-24.774c-2.679-.444-5.985,4.378-4.748,12.268.074.461.147.942.258,1.423,1.57,7.243,2.309,11.067,2.53,12.156,0,.037,0,.055.018.074.018.166.037.258.037.258l-3.234,8.332-.074.184-.794,2.051-3.2,8.22v.02l-6.615,17.052-1.071,7.483-.776,5.506-1.441,10.031v.037L279.8,192.237Z" transform="translate(-276.341 -88.307)" fill="#b76059"/>
                <path id="Trazado_994475" data-name="Trazado 994475" d="M320.048,139.172s-18.632-40.094-23.114-39.386,5.189,64.151,5.189,64.151l10.848,6.84Z" transform="translate(-295.749 -77.349)" fill="#b76059"/>
              </g>
              <path id="Trazado_994476" data-name="Trazado 994476" d="M304.154,121.953,304.438,99h-1.7v-4.4H322.55V99h-2.46l.573,23.742,16.665,31.76-1.729,4.716L286.544,156.7l-1.73-4.558Z" transform="translate(-284.814 -82.3)" fill="#fff"/>
              <path id="Trazado_994477" data-name="Trazado 994477" d="M317.479,107.018l-12.027.235-18.869,31.841,44.339,3.772Z" transform="translate(-281.867 -70.431)" fill="#af78fe"/>
              <g id="Grupo_1160538" data-name="Grupo 1160538" transform="translate(24.651 24.678)">
                <path id="Trazado_994478" data-name="Trazado 994478" d="M280.717,110.967a4.753,4.753,0,0,0,.794.684,23.915,23.915,0,0,0,8.813,3.473h-3.57a3.674,3.674,0,0,0-3.69,3.973,5.664,5.664,0,0,0,1.92,3.879c3.289,2.827,12.729,2.994,12.729,2.994l-5.807,1.476a3.668,3.668,0,0,0-2.765,3.979c.291,2.3,1.206,5.182,3.86,6.331,4.71,2.051,12.876,1.423,12.876,1.423l7.555,5.968,5.209-6.042a5.474,5.474,0,0,0,.055-1.275c-.461-2.827-3.77-9.661-3.77-9.661s-1.423-11.325-2.6-12.268a10.682,10.682,0,0,0-3.768-1.412s-1.406-12.037-3.531-12.98-6.374-.461-6.374-.461l-14.686,1.072-2.037.151a3.7,3.7,0,0,0-3.33,4.534A8.766,8.766,0,0,0,280.717,110.967Z" transform="translate(-278.494 -100.927)" fill="#b76059"/>
                <path id="Trazado_994479" data-name="Trazado 994479" d="M313.71,114.4s-1.06-12.455-4.272-13.212-23.3,1.2-23.3,1.2-4.912,3.213-.819,7.683a15.58,15.58,0,0,0,9.509,4.849" transform="translate(-283.645 -100.843)" fill="none" stroke="#000" stroke-linecap="round" stroke-linejoin="round" stroke-miterlimit="10" stroke-width="0.472"/>
                <path id="Trazado_994480" data-name="Trazado 994480" d="M312.045,121.508s-.882-10.9-2.9-12.407-6.8-1.2-11.65-1.134-15.555.882-15.555.882-3.275,3.275-.19,6.8,10.266,3.338,10.266,3.338l4.03.125.063,1.007" transform="translate(-275.608 -94.268)" fill="none" stroke="#000" stroke-linecap="round" stroke-linejoin="round" stroke-miterlimit="10" stroke-width="0.472"/>
                <path id="Trazado_994481" data-name="Trazado 994481" d="M308.248,125.409s-3.023-10.391-5.416-10.958-19.712-.315-22.8.882-1.322,7.053,1.322,9.194,9.636,2.141,9.636,2.141l6.423-.442" transform="translate(-267.844 -88.284)" fill="none" stroke="#000" stroke-linecap="round" stroke-linejoin="round" stroke-miterlimit="10" stroke-width="0.472"/>
              </g>
            </g>
          </g>
        </g>
        <path id="Trazado_994482" data-name="Trazado 994482" d="M349.4,161.16l-1.273-4.329a9.234,9.234,0,0,0-8.5-6.623L311.455,149.1a9.239,9.239,0,0,0-8.015,4.055l-4.353,6.435Z" transform="translate(-8.053 66.036)" fill="#7581fe"/>
        <g id="Grupo_1160568" data-name="Grupo 1160568" transform="translate(52.738 52.008)">
          <g id="Grupo_1160558" data-name="Grupo 1160558" transform="translate(66.233)">
            <g id="Grupo_1160556" data-name="Grupo 1160556">
              <g id="Grupo_1160542" data-name="Grupo 1160542" transform="translate(20.667 74.176)">
                <path id="Trazado_994483" data-name="Trazado 994483" d="M369.418,103.6l2.145,51.9,34.619,28.348,27.424-27.113-1.867-27.005L396.8,115.086Z" transform="translate(-369.418 -103.604)" fill="#b76059"/>
              </g>
              <g id="Grupo_1160543" data-name="Grupo 1160543" transform="translate(44.295 85.656)">
                <path id="Trazado_994484" data-name="Trazado 994484" d="M373.6,128.663a40.351,40.351,0,0,0,9.292,8.433,62.3,62.3,0,0,0,12.878,7.113c3.645,1.431,9.313,3.3,14.067,2.8l-1.582-22.887-34.938-14.647a9.184,9.184,0,0,0-2.472,2.739,10.531,10.531,0,0,0-1.269,4.771A18.411,18.411,0,0,0,373.6,128.663Z" transform="translate(-369.564 -109.475)"/>
              </g>
              <g id="Grupo_1160555" data-name="Grupo 1160555">
                <g id="Grupo_1160544" data-name="Grupo 1160544" transform="translate(68.307)">
                  <path id="Trazado_994485" data-name="Trazado 994485" d="M354.462,66.535s42.849-5.444,49.986,10.954c5.207,11.961-8.238,19.78-8.238,19.78s11.646,5.2,5.993,13.754S383.835,126.7,383.835,126.7L348.817,71.729Z" transform="translate(-348.817 -65.669)"/>
                </g>
                <g id="Grupo_1160554" data-name="Grupo 1160554" transform="translate(0 0.914)">
                  <g id="Grupo_1160545" data-name="Grupo 1160545" transform="translate(19.729 2.837)">
                    <path id="Trazado_994486" data-name="Trazado 994486" d="M357.54,111.836c-.544-23.128,21.35-42.62,43.535-44.153,22.207-1.535,41.6,15.6,44.212,38.616l-.086,4.425.694,33.307a27.05,27.05,0,0,1-8.529,20.445h0a24.513,24.513,0,0,1-14.95,6.509l-42.36,2.929-21.587-35.908Z" transform="translate(-357.53 -67.587)" fill="#b76059"/>
                  </g>
                  <g id="Grupo_1160549" data-name="Grupo 1160549" transform="translate(54.641 56.907)">
                    <g id="Grupo_1160546" data-name="Grupo 1160546" transform="translate(36.899)">
                      <path id="Trazado_994487" data-name="Trazado 994487" d="M361.966,99.465a3.952,3.952,0,1,0,3.67-4.216A3.952,3.952,0,0,0,361.966,99.465Z" transform="translate(-361.956 -95.24)"/>
                    </g>
                    <g id="Grupo_1160547" data-name="Grupo 1160547" transform="translate(0 3.512)">
                      <path id="Trazado_994488" data-name="Trazado 994488" d="M380.837,101.261a3.952,3.952,0,1,0,3.67-4.216A3.952,3.952,0,0,0,380.837,101.261Z" transform="translate(-380.827 -97.036)"/>
                    </g>
                    <g id="Grupo_1160548" data-name="Grupo 1160548" transform="translate(15.667 19.001)">
                      <path id="Trazado_994489" data-name="Trazado 994489" d="M378.736,110.918a6.285,6.285,0,0,0,3.508-1.332.469.469,0,0,0-.589-.729,5.777,5.777,0,0,1-5.649.7,7.619,7.619,0,0,1-4.063-4.3.47.47,0,0,0-.876.342,8.464,8.464,0,0,0,4.585,4.832A6.968,6.968,0,0,0,378.736,110.918Z" transform="translate(-371.035 -104.957)"/>
                    </g>
                  </g>
                  <g id="Grupo_1160550" data-name="Grupo 1160550" transform="translate(0.326)">
                    <path id="Trazado_994490" data-name="Trazado 994490" d="M451.911,66.263s-1.437,31.317-19.747,44.351-25.349,15.439-25.349,15.439l-7.233,13.468-8.49-11.66s-7.129-2.389-14.331,4.593c0,0-10.352-48.993-1.879-58.464S451.911,66.263,451.911,66.263Z" transform="translate(-371.549 -66.136)"/>
                  </g>
                  <g id="Grupo_1160553" data-name="Grupo 1160553" transform="translate(0 59.842)">
                    <g id="Grupo_1160551" data-name="Grupo 1160551">
                      <path id="Trazado_994491" data-name="Trazado 994491" d="M426.657,107.509c-3.021-6.1-9.937-10.766-16.816-10.768a12.821,12.821,0,0,0-12.71,14.473c1.293,9.724,12.993,19.409,22.674,14.211C432.222,118.76,426.67,107.536,426.657,107.509Z" transform="translate(-397.018 -96.741)" fill="#b76059"/>
                    </g>
                    <g id="Grupo_1160552" data-name="Grupo 1160552" transform="translate(3.28 4.407)">
                      <path id="Trazado_994492" data-name="Trazado 994492" d="M419.837,118.521a.693.693,0,0,0,.127-.023.553.553,0,0,0,.362-.692,30.934,30.934,0,0,0-11.714-15.985,14.553,14.553,0,0,0-6.5-2.822.551.551,0,0,0-.139,1.093,13.523,13.523,0,0,1,6,2.632,29.825,29.825,0,0,1,11.3,15.412A.551.551,0,0,0,419.837,118.521Z" transform="translate(-401.493 -98.995)"/>
                    </g>
                  </g>
                </g>
              </g>
            </g>
            <g id="Grupo_1160557" data-name="Grupo 1160557" transform="translate(49.229 45.841)">
              <path id="Trazado_994493" data-name="Trazado 994493" d="M373.836,93.325a2.769,2.769,0,0,1,.039,2.374,2.361,2.361,0,0,1-.968.884,6.29,6.29,0,0,1-2.18.589,16.52,16.52,0,0,1-8.324-.815,3.659,3.659,0,0,1-1.515-1,2.632,2.632,0,0,1-.489-1.038,4.188,4.188,0,0,1,2.233-4.472C366.026,88.061,372.342,89.645,373.836,93.325Z" transform="translate(-320.682 -89.113)"/>
              <path id="Trazado_994494" data-name="Trazado 994494" d="M380.86,94.211a2.764,2.764,0,0,0-.039,2.372,2.36,2.36,0,0,0,.968.884,6.278,6.278,0,0,0,2.18.589,16.519,16.519,0,0,0,8.324-.815,3.659,3.659,0,0,0,1.515-1,2.632,2.632,0,0,0,.489-1.038,4.188,4.188,0,0,0-2.233-4.472C388.67,88.945,382.354,90.529,380.86,94.211Z" transform="translate(-380.569 -88.268)"/>
            </g>
            <path id="Trazado_994495" data-name="Trazado 994495" d="M369.9,95.685q1.6,3.024,3.023,6.13a9.18,9.18,0,0,1,.79,2.221,6.352,6.352,0,0,1-1.314,4.685,18.859,18.859,0,0,1-3.59,3.455" transform="translate(-287.736 -36.993)" fill="none" stroke="#000" stroke-linecap="round" stroke-linejoin="round" stroke-miterlimit="10" stroke-width="0.472"/>
          </g>
          <g id="Grupo_1160567" data-name="Grupo 1160567" transform="translate(0 115.44)">
            <g id="Grupo_1160564" data-name="Grupo 1160564">
              <path id="Trazado_994496" data-name="Trazado 994496" d="M344.509,306.154c11.306,7.243,122.644,38.675,122.644,38.675V329.735l.149-.055,22.428-8.867,35.91-48.934s15.719-87.112-17.295-107.545c-25.329-15.686-27.852-25.791-31.9-27.158a12.807,12.807,0,0,0-1.756-.516l-2.2-7.853-20.118,19.806-41.2-23.906-8.036,12.471-.462.739s-11.949,24.532-33.325,67.928C347.958,249.236,333.184,298.929,344.509,306.154Z" transform="translate(-321.933 -124.707)" fill="#7581fe"/>
              <g id="Grupo_1160559" data-name="Grupo 1160559" transform="translate(154.512 12.465)">
                <path id="Trazado_994497" data-name="Trazado 994497" d="M328.032,131.082c.186,1.756.424,3.547.591,5.3,1.072,11.177,1.7,22.391,2.069,33.624.444,12.637.553,25.292.684,37.947q.305,30.621.61,61.28c0,.851.018,1.7.018,2.55,0,.868.018,1.736.037,2.624.092,8.369.387,16.812,2.421,24.886a49.873,49.873,0,0,0,6.853,15.426l64.217-25.347S402.059,173.335,369.045,152.9q-4.6-2.854-8.609-5.229c-.258-.149-.516-.315-.776-.461C340.761,136.015,331.542,132.265,328.032,131.082Z" transform="translate(-328.032 -131.082)" fill="#ffe9e1"/>
              </g>
              <g id="Grupo_1160560" data-name="Grupo 1160560" transform="translate(0 12.467)">
                <path id="Trazado_994498" data-name="Trazado 994498" d="M383.6,324.9c11.306,7.243,133.96,13.838,133.96,13.838V323.644l.149-.055c-.461-18.382-1.791-36.913-2.346-55.129H468.735c-.868-46.537-1.774-92.945-15.187-137.378l-.461.739s-14.835,2.642-31.573,12.913c-.258.149-.536.315-.794.481A93.555,93.555,0,0,0,385.8,183.4C364.408,226.8,372.278,317.675,383.6,324.9Z" transform="translate(-372.343 -131.083)" fill="#ffe9e1"/>
              </g>
              <g id="Grupo_1160563" data-name="Grupo 1160563" transform="translate(48.377 26.119)">
                <g id="Grupo_1160561" data-name="Grupo 1160561" transform="translate(0)">
                  <path id="Trazado_994499" data-name="Trazado 994499" d="M402.913,144.179c16.849,18.032,33.033,36.451,35.4,39.13l-20.6,19.823a.426.426,0,0,0-.074.553c.184.332,19.307,32.793,26.51,57.123a.489.489,0,0,0,.444.332.261.261,0,0,0,.129-.02.448.448,0,0,0,.315-.573c-6.853-23.167-24.424-53.6-26.418-57.012l20.637-19.878a.442.442,0,0,0,.037-.628c-.184-.2-17.569-20.064-35.712-39.48-1.9-2.051-3.584-3.862-5.025-5.487-.258.149-.536.315-.794.481C399.235,140.208,400.954,142.073,402.913,144.179Z" transform="translate(-397.759 -138.065)"/>
                </g>
                <g id="Grupo_1160562" data-name="Grupo 1160562" transform="translate(109.589 2.473)">
                  <path id="Trazado_994500" data-name="Trazado 994500" d="M351.1,266.049a.459.459,0,0,0,.424.5h.037c.037,0,.074,0,.092-.02a.451.451,0,0,0,.37-.407c3.4-40.552,23.278-64.606,23.462-64.827a.473.473,0,0,0,0-.61L354.033,175.8l26.012-36.007c-.258-.149-.516-.315-.776-.461l-26.2,36.228a.449.449,0,0,0,.018.573L374.537,201c-2.235,2.808-18.769,24.737-22.946,60.357C351.391,262.889,351.225,264.46,351.1,266.049Z" transform="translate(-351.095 -139.33)"/>
                </g>
              </g>
              <path id="Trazado_994501" data-name="Trazado 994501" d="M435.986,126.8l5.977,36.471-26.022-16.431-21.777,25.55-27.533-37.222" transform="translate(-285.427 -122.706)" fill="none" stroke="#000" stroke-linecap="round" stroke-linejoin="round" stroke-miterlimit="10" stroke-width="0.472"/>
              <path id="Trazado_994502" data-name="Trazado 994502" d="M376.5,137.051c5.334,41.756,7.874,82.732,5.444,124.756" transform="translate(-245.633 -112.914)" fill="none" stroke="#000" stroke-linecap="round" stroke-linejoin="round" stroke-miterlimit="10" stroke-width="0.472"/>
            </g>
            <path id="Trazado_994503" data-name="Trazado 994503" d="M433.27,154.98l-117.922-1.887L280.914,289.884l115.564-14.622Z" transform="translate(-109.127 -97.589)" fill="#af78fe"/>
            <g id="Grupo_1160566" data-name="Grupo 1160566" transform="translate(143.249 123.38)">
              <path id="Trazado_994504" data-name="Trazado 994504" d="M319,216.627s47.169-30.188,50.235-28.773-11.793,22.877-11.793,22.877,57.074-17.925,60.14-14.387-9.906,11.321-9.906,11.321,16.274-5.424,17.688.471S402.723,223,402.723,223s20.283-6.369,21.933-.237-37.5,18.4-37.5,18.4,23.585-8.727,25.236-3.537-91.429,38.444-91.429,38.444Z" transform="translate(-318.999 -187.806)" fill="#b76059"/>
              <g id="Grupo_1160565" data-name="Grupo 1160565" transform="translate(29.324 7.698)">
                <path id="Trazado_994505" data-name="Trazado 994505" d="M322.658,210.037s66.194-20.6,69.182-18.081-3.3,9.276-9.827,11.949L349.466,215.58" transform="translate(-322.658 -191.743)" fill="none" stroke="#000" stroke-linecap="round" stroke-linejoin="round" stroke-miterlimit="10" stroke-width="0.472"/>
                <path id="Trazado_994506" data-name="Trazado 994506" d="M349.227,198.135s11.793-4.008,13.914.708S352.254,209.629,341.8,214.41c-12.381,5.661-22.524,9.315-22.524,9.315" transform="translate(-286.807 -187.154)" fill="none" stroke="#000" stroke-linecap="round" stroke-linejoin="round" stroke-miterlimit="10" stroke-width="0.472"/>
                <path id="Trazado_994507" data-name="Trazado 994507" d="M332.141,209.526s22.995-9.552,25.589-2.949c2.276,5.8-38.207,19.221-38.207,19.221" transform="translate(-281.749 -179.793)" fill="none" stroke="#000" stroke-linecap="round" stroke-linejoin="round" stroke-miterlimit="10" stroke-width="0.472"/>
              </g>
            </g>
            <path id="Trazado_994508" data-name="Trazado 994508" d="M372.419,160.571,396.632,239.5l67.615.786,2.2,70.277" transform="translate(-321.227 -90.445)" fill="none" stroke="#000" stroke-linecap="round" stroke-linejoin="round" stroke-miterlimit="10" stroke-width="0.472"/>
          </g>
        </g>
        <g id="Grupo_1160572" data-name="Grupo 1160572" transform="translate(0 1.583)">
          <circle id="Elipse_11789" data-name="Elipse 11789" cx="45.911" cy="45.911" r="45.911" transform="translate(306.762 129.855) rotate(-135)" fill="#7581fe"/>
          <ellipse id="Elipse_11790" data-name="Elipse 11790" cx="45.912" cy="45.912" rx="45.912" ry="45.912" transform="matrix(-0.227, -0.974, 0.974, -0.227, 20.89, 207.494)" fill="#af78fe"/>
          <g id="Grupo_1160571" data-name="Grupo 1160571" transform="translate(251.173 24.674)">
            <g id="Grupo_1160570" data-name="Grupo 1160570">
              <g id="Grupo_1160569" data-name="Grupo 1160569">
                <ellipse id="Elipse_11791" data-name="Elipse 11791" cx="15.997" cy="44.114" rx="15.997" ry="44.114" transform="translate(21.96)" fill="none" stroke="#000" stroke-miterlimit="10" stroke-width="0.647"/>
                <path id="Trazado_994509" data-name="Trazado 994509" d="M330.7,102.588c17.228,17.228,36.258,26.129,42.505,19.882s-2.653-25.279-19.882-42.505-36.258-26.129-42.505-19.882S313.47,85.359,330.7,102.588Z" transform="translate(-304.052 -47.162)" fill="none" stroke="#000" stroke-miterlimit="10" stroke-width="0.647"/>
                <path id="Trazado_994510" data-name="Trazado 994510" d="M353.089,101.938c20.394-13.33,33.008-30.13,28.174-37.527s-25.284-2.585-45.679,10.745-33.008,30.13-28.174,37.527S332.694,115.268,353.089,101.938Z" transform="translate(-306.378 -44.434)" fill="none" stroke="#000" stroke-miterlimit="10" stroke-width="0.647"/>
              </g>
              <ellipse id="Elipse_11792" data-name="Elipse 11792" cx="5.979" cy="5.979" rx="5.979" ry="5.979" transform="translate(31.654 38.457)"/>
            </g>
            <path id="Trazado_994511" data-name="Trazado 994511" d="M339.923,61.606a4.093,4.093,0,1,0,4.092-4.094A4.094,4.094,0,0,0,339.923,61.606Z" transform="translate(-337.785 -47.71)"/>
            <path id="Trazado_994512" data-name="Trazado 994512" d="M307.638,93.12a4.094,4.094,0,1,0,4.092-4.094A4.094,4.094,0,0,0,307.638,93.12Z" transform="translate(-242.372 -17.604)"/>
          </g>
        </g>
        <g id="Grupo_1160573" data-name="Grupo 1160573" transform="translate(269.807 136.318)">
          <line id="Línea_670" data-name="Línea 670" y2="29.244" transform="translate(14.624)" fill="none" stroke="#000" stroke-miterlimit="10" stroke-width="0.945"/>
          <line id="Línea_671" data-name="Línea 671" x2="29.246" transform="translate(0 14.622)" fill="none" stroke="#000" stroke-miterlimit="10" stroke-width="0.945"/>
        </g>
        <g id="Grupo_1160574" data-name="Grupo 1160574" transform="translate(74.056 100.94)">
          <line id="Línea_672" data-name="Línea 672" y2="29.246" transform="translate(14.622)" fill="none" stroke="#000" stroke-miterlimit="10" stroke-width="0.945"/>
          <line id="Línea_673" data-name="Línea 673" x2="29.244" transform="translate(0 14.622)" fill="none" stroke="#000" stroke-miterlimit="10" stroke-width="0.945"/>
        </g>
        <g id="Grupo_1160575" data-name="Grupo 1160575" transform="translate(58.866 151.726)">
          <path id="Trazado_994513" data-name="Trazado 994513" d="M352.3,127.224c2.421-2.968,3.633-6.728,4.6-10.443,0-.035.008-.068.012-.106l.006.037c0-.014.008-.029.012-.045,0,.045,0,.088,0,.129.61,3.787,1.463,7.643,3.59,10.823a14.918,14.918,0,0,0,9.871,6.056c-7.71,1.811-14.031,7.673-15.017,15.529-.014.006-.014,0-.021-.014-.239-7.913-5.95-14.34-13.453-16.871A14.916,14.916,0,0,0,352.3,127.224Z" transform="translate(-171.618 -116.667)" fill="#ffe9e1"/>
          <path id="Trazado_994514" data-name="Trazado 994514" d="M439.383,140.491c2.421-2.968,3.633-6.728,4.6-10.443,0-.035.008-.068.012-.106l.006.037c0-.014.008-.029.012-.045,0,.045,0,.088,0,.129.61,3.787,1.463,7.643,3.59,10.823a14.918,14.918,0,0,0,9.871,6.056c-7.708,1.811-14.031,7.673-15.017,15.529-.014.006-.014,0-.021-.016-.239-7.913-5.95-14.34-13.453-16.871A14.9,14.9,0,0,0,439.383,140.491Z" transform="translate(-428.983 -103.993)" fill="#ffe9e1"/>
        </g>
      </g>
    </g>
  </g>
</svg>
