<svg xmlns="http://www.w3.org/2000/svg" xmlns:xlink="http://www.w3.org/1999/xlink" width="715" height="402.586" viewBox="0 0 715 402.586">
  <defs>
    <clipPath id="clip-path">
      <rect id="Rectángulo_413195" data-name="Rectángulo 413195" width="715" height="402.586" transform="translate(180 2348.414)" fill="#fff" stroke="#707070" stroke-width="1" opacity="0.61"/>
    </clipPath>
    <filter id="Elipse_11857" x="98.328" y="8.075" width="520.397" height="520.397" filterUnits="userSpaceOnUse">
      <feOffset dy="3" input="SourceAlpha"/>
      <feGaussianBlur stdDeviation="3" result="blur"/>
      <feFlood flood-opacity="0.161"/>
      <feComposite operator="in" in2="blur"/>
      <feComposite in="SourceGraphic"/>
    </filter>
    <clipPath id="clip-path-2">
      <rect id="Rectángulo_413135" data-name="Rectángulo 413135" width="482.358" height="513.478" fill="none"/>
    </clipPath>
    <clipPath id="clip-path-3">
      <rect id="Rectángulo_413077" data-name="Rectángulo 413077" width="322.786" height="258.084" fill="none"/>
    </clipPath>
    <clipPath id="clip-path-4">
      <rect id="Rectángulo_413078" data-name="Rectángulo 413078" width="14.985" height="15.439" fill="none"/>
    </clipPath>
    <clipPath id="clip-path-5">
      <rect id="Rectángulo_413082" data-name="Rectángulo 413082" width="6.211" height="2.939" fill="none"/>
    </clipPath>
    <clipPath id="clip-path-6">
      <rect id="Rectángulo_413083" data-name="Rectángulo 413083" width="9.993" height="2.928" fill="#15da7e"/>
    </clipPath>
    <clipPath id="clip-path-7">
      <rect id="Rectángulo_413084" data-name="Rectángulo 413084" width="18.046" height="2.973" fill="#3ad1e9"/>
    </clipPath>
    <clipPath id="clip-path-8">
      <rect id="Rectángulo_413085" data-name="Rectángulo 413085" width="69.656" height="34.828" fill="none"/>
    </clipPath>
    <clipPath id="clip-path-9">
      <rect id="Rectángulo_413089" data-name="Rectángulo 413089" width="6.211" height="2.94" fill="none"/>
    </clipPath>
    <clipPath id="clip-path-10">
      <rect id="Rectángulo_413090" data-name="Rectángulo 413090" width="9.993" height="2.928" fill="none"/>
    </clipPath>
    <clipPath id="clip-path-11">
      <rect id="Rectángulo_413091" data-name="Rectángulo 413091" width="18.046" height="2.973" fill="none"/>
    </clipPath>
    <clipPath id="clip-path-15">
      <rect id="Rectángulo_413098" data-name="Rectángulo 413098" width="18.046" height="2.972" fill="none"/>
    </clipPath>
    <clipPath id="clip-path-17">
      <rect id="Rectángulo_413100" data-name="Rectángulo 413100" width="47.284" height="63.788" fill="none"/>
    </clipPath>
    <clipPath id="clip-path-18">
      <rect id="Rectángulo_413101" data-name="Rectángulo 413101" width="32.795" height="39.261" fill="none"/>
    </clipPath>
    <clipPath id="clip-path-19">
      <rect id="Rectángulo_413102" data-name="Rectángulo 413102" width="46.699" height="34.582" fill="none"/>
    </clipPath>
    <clipPath id="clip-path-20">
      <rect id="Rectángulo_413103" data-name="Rectángulo 413103" width="27.864" height="30.372" fill="none"/>
    </clipPath>
    <clipPath id="clip-path-21">
      <rect id="Rectángulo_413109" data-name="Rectángulo 413109" width="80.243" height="8.772" fill="none"/>
    </clipPath>
    <clipPath id="clip-path-22">
      <rect id="Rectángulo_413110" data-name="Rectángulo 413110" width="80.243" height="8.782" fill="none"/>
    </clipPath>
    <clipPath id="clip-path-23">
      <rect id="Rectángulo_413111" data-name="Rectángulo 413111" width="80.232" height="8.792" fill="none"/>
    </clipPath>
    <clipPath id="clip-path-24">
      <rect id="Rectángulo_413112" data-name="Rectángulo 413112" width="80.243" height="8.792" fill="none"/>
    </clipPath>
    <clipPath id="clip-path-25">
      <rect id="Rectángulo_413113" data-name="Rectángulo 413113" width="4.09" height="62.776" fill="none"/>
    </clipPath>
    <clipPath id="clip-path-26">
      <rect id="Rectángulo_413114" data-name="Rectángulo 413114" width="7.475" height="11.375" fill="none"/>
    </clipPath>
    <clipPath id="clip-path-27">
      <rect id="Rectángulo_413115" data-name="Rectángulo 413115" width="9.052" height="10.041" fill="none"/>
    </clipPath>
    <clipPath id="clip-path-28">
      <rect id="Rectángulo_413116" data-name="Rectángulo 413116" width="10.61" height="10.91" fill="none"/>
    </clipPath>
    <clipPath id="clip-path-29">
      <rect id="Rectángulo_413118" data-name="Rectángulo 413118" width="62.472" height="64.698" fill="none"/>
    </clipPath>
    <clipPath id="clip-path-30">
      <rect id="Rectángulo_413119" data-name="Rectángulo 413119" width="27.746" height="32.987" fill="none"/>
    </clipPath>
    <clipPath id="clip-path-31">
      <rect id="Rectángulo_413120" data-name="Rectángulo 413120" width="5.534" height="3.929" fill="none"/>
    </clipPath>
    <clipPath id="clip-path-32">
      <rect id="Rectángulo_413121" data-name="Rectángulo 413121" width="10.302" height="12.831" fill="none"/>
    </clipPath>
    <clipPath id="clip-path-33">
      <rect id="Rectángulo_413122" data-name="Rectángulo 413122" width="14.81" height="12.954" fill="none"/>
    </clipPath>
    <clipPath id="clip-path-34">
      <rect id="Rectángulo_413123" data-name="Rectángulo 413123" width="58.791" height="80.306" fill="#a0f0cb"/>
    </clipPath>
    <clipPath id="clip-path-35">
      <rect id="Rectángulo_413124" data-name="Rectángulo 413124" width="76.227" height="76.233" fill="none"/>
    </clipPath>
    <clipPath id="clip-path-36">
      <rect id="Rectángulo_413125" data-name="Rectángulo 413125" width="28.084" height="14.658" fill="none"/>
    </clipPath>
    <clipPath id="clip-path-37">
      <rect id="Rectángulo_413126" data-name="Rectángulo 413126" width="21.303" height="13.206" fill="none"/>
    </clipPath>
    <clipPath id="clip-path-38">
      <rect id="Rectángulo_413127" data-name="Rectángulo 413127" width="14.688" height="11.281" fill="none"/>
    </clipPath>
    <clipPath id="clip-path-39">
      <rect id="Rectángulo_413128" data-name="Rectángulo 413128" width="30.812" height="58.172" fill="none"/>
    </clipPath>
    <clipPath id="clip-path-40">
      <rect id="Rectángulo_413129" data-name="Rectángulo 413129" width="119.533" height="92.308" fill="none"/>
    </clipPath>
    <clipPath id="clip-path-41">
      <rect id="Rectángulo_413130" data-name="Rectángulo 413130" width="88.631" height="90.101" fill="none"/>
    </clipPath>
    <clipPath id="clip-path-42">
      <rect id="Rectángulo_413131" data-name="Rectángulo 413131" width="12.869" height="30.288" fill="none"/>
    </clipPath>
    <clipPath id="clip-path-44">
      <rect id="Rectángulo_413133" data-name="Rectángulo 413133" width="9.348" height="20.742" fill="none"/>
    </clipPath>
    <clipPath id="clip-path-45">
      <rect id="Rectángulo_413134" data-name="Rectángulo 413134" width="60.479" height="51.705" fill="none"/>
    </clipPath>
    <clipPath id="clip-path-47">
      <rect id="Rectángulo_413191" data-name="Rectángulo 413191" width="93.146" height="56.932" fill="none"/>
    </clipPath>
  </defs>
  <g id="Enmascarar_grupo_1098792" data-name="Enmascarar grupo 1098792" transform="translate(-180 -2348.414)" clip-path="url(#clip-path)">
    <g id="Grupo_1163486" data-name="Grupo 1163486">
      <g id="Grupo_1163485" data-name="Grupo 1163485" transform="translate(213.839 2289)">
        <g transform="matrix(1, 0, 0, 1, -33.84, 59.41)" filter="url(#Elipse_11857)">
          <circle id="Elipse_11857-2" data-name="Elipse 11857" cx="251.198" cy="251.198" r="251.198" transform="translate(107.33 14.08)" fill="#fff"/>
        </g>
        <circle id="Elipse_11858" data-name="Elipse 11858" cx="229.588" cy="229.588" r="229.588" transform="translate(324.687 649.374) rotate(-135)" fill="#3ad1e9"/>
      </g>
      <g id="Grupo_1163484" data-name="Grupo 1163484" transform="translate(308.554 2344.815)">
        <rect id="Rectángulo_413074" data-name="Rectángulo 413074" width="322.786" height="258.084" transform="translate(79.376 91.03)" fill="#fff"/>
        <g id="Grupo_1163314" data-name="Grupo 1163314" transform="translate(0)">
          <g id="Grupo_1163313" data-name="Grupo 1163313" clip-path="url(#clip-path-2)">
            <path id="Trazado_995665" data-name="Trazado 995665" d="M409.067,201.379V249.3c-.071,2.477-.2,4.952-.2,7.428q-.025,55.627-.021,111.252c0,3.856,0,3.866-3.8,3.873q-45.309.07-90.618.125-36.727.018-73.453-.058c-27.589-.022-125.848-.042-153.437-.066-3.662,0-3.666-.014-3.666-3.6q-.01-55.826-.024-111.651c0-2.255-.132-4.51-.2-6.765V200.847c.071-2.433.2-4.865.2-7.3q.025-55.092.032-110.185c0-1.356-.325-3.141.385-3.938.619-.692,2.489-.328,3.806-.33,30.029-.053,130.726-.114,160.754-.13q35.329-.018,70.657.055,43.313.038,86.626.09c3.2,0,2.722-.384,2.724,2.791q.034,56.29.036,112.581c0,2.3.132,4.6.2,6.9M84.947,354.511H407.741V96.434H84.947Zm-.014-259h322.85V80.075H84.933Zm0,275.366H407.777V355.434H84.932Z" transform="translate(-5.589 -5.277)"/>
            <rect id="Rectángulo_413075" data-name="Rectángulo 413075" width="322.852" height="15.439" transform="translate(79.339 74.796)" fill="#a530fe"/>
            <path id="Trazado_995920" data-name="Trazado 995920" d="M0,0H322.845V15.443H0Z" transform="translate(79.343 350.159)" fill="#a530fe"/>
            <g id="Grupo_1163186" data-name="Grupo 1163186" transform="translate(79.361 91.157)" opacity="0.21" style="mix-blend-mode: multiply;isolation: isolate">
              <g id="Grupo_1163185" data-name="Grupo 1163185">
                <g id="Grupo_1163184" data-name="Grupo 1163184" clip-path="url(#clip-path-3)">
                  <path id="Trazado_995666" data-name="Trazado 995666" d="M395.484,97.684h12.345V355.768H85.043v-7.874c41.963,7.968,297.5,23.543,305.694-120,1.714-30.021,8.23-100.482,4.747-130.208" transform="translate(-85.044 -97.684)" fill="#cab1e6"/>
                </g>
              </g>
            </g>
            <g id="Grupo_1163189" data-name="Grupo 1163189" transform="translate(387.206 74.796)" opacity="0.5" style="mix-blend-mode: multiply;isolation: isolate">
              <g id="Grupo_1163188" data-name="Grupo 1163188">
                <g id="Grupo_1163187" data-name="Grupo 1163187" clip-path="url(#clip-path-4)">
                  <path id="Trazado_995667" data-name="Trazado 995667" d="M429.917,80.152V95.591h-12.49c-.632-5.168-1.464-10.327-2.5-15.439Z" transform="translate(-414.932 -80.152)" fill="#cab1e6"/>
                </g>
              </g>
            </g>
            <path id="Trazado_995668" data-name="Trazado 995668" d="M151.763,203.6h5.062a13.555,13.555,0,0,0,1.445.157q15.047.043,30.1.068c1.733,0,1.757.011,1.758,1.774q.011,16.635,0,33.27c0,1.761-.026,1.772-1.758,1.774q-14.115.015-28.231.032c-1.1,0-2.205.126-3.307.194H152.3c-.482-.05-.965-.143-1.447-.145q-15.241-.048-30.48-.078c-1.783,0-1.815-.011-1.817-1.718q-.015-16.7,0-33.388c0-1.706.034-1.714,1.82-1.716q14.108-.015,28.218-.032c1.058,0,2.116-.125,3.174-.191m-32.251,36.043h69.658V204.821H119.513Z" transform="translate(-7.921 -13.605)"/>
            <path id="Trazado_995669" data-name="Trazado 995669" d="M119.584,239.736H189.24V204.909H119.584Zm63.423-10.725q-8.819.017-17.636.011H154.39v.021H124.83c-2.018,0-2.063-.033-2.041-1.975.034-3.138-.444-2.917,2.951-2.917q22.91,0,45.82.023,6.256.014,12.489.009c1.786,0,1.842.068,1.831,1.92-.011,3.383.377,2.907-2.873,2.907m0-7.987c-2.917.011-5.845.011-8.763.011H154.39v.023H124.83c-2.018,0-2.063-.035-2.041-1.975.034-3.14-.444-2.917,2.94-2.917q25.705,0,51.4.033h6.921c1.786,0,1.842.066,1.831,1.907-.011,3.394.377,2.917-2.873,2.917m.022-7.986h-4.615q-26.786.035-53.573.034c-2.052,0-2.074-.01-2.052-2.085.022-2.961-.422-2.795,2.795-2.807q14.441-.017,28.894,0v.035q12.562,0,25.134,0h4.425c1.786,0,1.853.065,1.842,1.9-.011,3.405.377,2.927-2.851,2.927" transform="translate(-7.991 -13.692)" fill="#f2f2f2"/>
            <path id="Trazado_995670" data-name="Trazado 995670" d="M154.7,208.444q14.779,0,29.558,0c1.789,0,1.86.07,1.85,1.9-.019,3.4.373,2.929-2.856,2.933q-29.091.029-58.183.025c-2.058,0-2.078-.01-2.058-2.087.029-2.952-.416-2.792,2.8-2.8q14.446-.027,28.891-.007Zm30.477.928H124.013v2.94h61.168Z" transform="translate(-8.22 -13.926)"/>
            <path id="Trazado_995671" data-name="Trazado 995671" d="M154.616,221.861q-14.779,0-29.557,0c-2.018,0-2.062-.03-2.043-1.969.034-3.14-.445-2.914,2.946-2.915q29.159-.007,58.316.029c1.781,0,1.844.063,1.835,1.913-.018,3.39.37,2.91-2.871,2.916q-14.313.029-28.625.007Zm-30.645-.995h61.167v-2.932H123.971Z" transform="translate(-8.22 -14.498)"/>
            <path id="Trazado_995672" data-name="Trazado 995672" d="M154.614,230.419q-14.779,0-29.557,0c-2.017,0-2.06-.029-2.041-1.971.034-3.138-.445-2.912,2.948-2.913q29.157-.007,58.315.029c1.781,0,1.843.063,1.834,1.914-.018,3.39.37,2.909-2.873,2.915q-14.313.028-28.625.007Zm-30.636-.949h61.151V226.5H123.978Z" transform="translate(-8.22 -15.07)"/>
            <path id="Trazado_995921" data-name="Trazado 995921" d="M0,0H61.16V2.94H0Z" transform="translate(115.797 195.441)" fill="#a530fe"/>
            <rect id="Rectángulo_413080" data-name="Rectángulo 413080" width="61.172" height="2.928" transform="translate(115.751 203.439)" fill="#15da7e"/>
            <rect id="Rectángulo_413081" data-name="Rectángulo 413081" width="61.161" height="2.972" transform="translate(115.752 211.426)" fill="#ffd384"/>
            <g id="Grupo_1163192" data-name="Grupo 1163192" transform="translate(170.746 195.442)" opacity="0.35" style="mix-blend-mode: multiply;isolation: isolate">
              <g id="Grupo_1163191" data-name="Grupo 1163191">
                <g id="Grupo_1163190" data-name="Grupo 1163190" clip-path="url(#clip-path-5)">
                  <path id="Trazado_995673" data-name="Trazado 995673" d="M189.183,212.376h-6.211a26.544,26.544,0,0,0,.71-2.939h5.5Z" transform="translate(-182.972 -209.437)" fill="#ff8e84"/>
                </g>
              </g>
            </g>
            <g id="Grupo_1163195" data-name="Grupo 1163195" transform="translate(166.93 203.439)" opacity="0.5" style="mix-blend-mode: multiply;isolation: isolate">
              <g id="Grupo_1163194" data-name="Grupo 1163194">
                <g id="Grupo_1163193" data-name="Grupo 1163193" clip-path="url(#clip-path-6)">
                  <path id="Trazado_995674" data-name="Trazado 995674" d="M188.876,220.934h-9.993a26.125,26.125,0,0,0,1.741-2.928h8.252Z" transform="translate(-178.883 -218.006)" fill="#15da7e"/>
                </g>
              </g>
            </g>
            <g id="Grupo_1163198" data-name="Grupo 1163198" transform="translate(158.866 211.425)" opacity="0.5" style="mix-blend-mode: multiply;isolation: isolate">
              <g id="Grupo_1163197" data-name="Grupo 1163197">
                <g id="Grupo_1163196" data-name="Grupo 1163196" clip-path="url(#clip-path-7)">
                  <path id="Trazado_995675" data-name="Trazado 995675" d="M188.289,229.537H170.242a28.508,28.508,0,0,0,3.737-2.972h14.309Z" transform="translate(-170.242 -226.564)" fill="#3ad1e9"/>
                </g>
              </g>
            </g>
            <g id="Grupo_1163201" data-name="Grupo 1163201" transform="translate(111.593 191.216)" opacity="0.5" style="mix-blend-mode: multiply;isolation: isolate">
              <g id="Grupo_1163200" data-name="Grupo 1163200">
                <g id="Grupo_1163199" data-name="Grupo 1163199" clip-path="url(#clip-path-8)">
                  <path id="Trazado_995676" data-name="Trazado 995676" d="M179.946,204.908a27.277,27.277,0,0,1-.334,3.305h4.426c1.786,0,1.852.066,1.841,1.9-.01,3.405.377,2.927-2.851,2.927h-4.614a24.544,24.544,0,0,1-1.287,3.162h6.921c1.785,0,1.841.066,1.83,1.907-.01,3.394.377,2.917-2.872,2.917-2.918.011-5.844.011-8.763.011a28.882,28.882,0,0,1-2.685,3.139q6.256.017,12.49.011c1.785,0,1.841.066,1.83,1.919-.01,3.384.377,2.906-2.872,2.906q-8.819.017-17.636.011a29.565,29.565,0,0,1-7.909,3.239c-12.378,3.106-25.234.355-37.878.865v6.611h69.655V204.908Z" transform="translate(-119.584 -204.908)" fill="#e2e2e2"/>
                </g>
              </g>
            </g>
            <path id="Trazado_995677" data-name="Trazado 995677" d="M151.763,260.189h5.062a13.329,13.329,0,0,0,1.445.158q15.047.043,30.1.068c1.733,0,1.757.011,1.758,1.774q.011,16.635,0,33.27c0,1.761-.026,1.771-1.758,1.774q-14.115.015-28.231.031c-1.1,0-2.205.127-3.307.2H152.3a14.346,14.346,0,0,0-1.447-.145q-15.241-.049-30.48-.078c-1.783,0-1.815-.012-1.817-1.718q-.015-16.7,0-33.388c0-1.706.034-1.714,1.82-1.717q14.108-.014,28.218-.032c1.058,0,2.116-.124,3.174-.191m-32.251,36.044h69.658V261.408H119.513Z" transform="translate(-7.921 -17.386)"/>
            <path id="Trazado_995678" data-name="Trazado 995678" d="M119.584,296.323H189.24V261.495H119.584ZM183.007,285.6q-8.819.017-17.636.011H154.39v.021H124.83c-2.018,0-2.063-.033-2.041-1.974.034-3.139-.444-2.917,2.951-2.917q22.91,0,45.82.022,6.256.015,12.489.01c1.786,0,1.842.067,1.831,1.92-.011,3.383.377,2.906-2.873,2.906m0-7.986c-2.917.011-5.845.011-8.763.011H154.39v.022H124.83c-2.018,0-2.063-.034-2.041-1.975.034-3.139-.444-2.917,2.94-2.917q25.705,0,51.4.033h6.921c1.786,0,1.842.067,1.831,1.908-.011,3.394.377,2.917-2.873,2.917m.022-7.986h-4.615q-26.786.034-53.573.034c-2.052,0-2.074-.011-2.052-2.086.022-2.961-.422-2.795,2.795-2.806q14.441-.017,28.894,0v.033q12.562,0,25.134,0h4.425c1.786,0,1.853.067,1.842,1.9-.011,3.405.377,2.928-2.851,2.928" transform="translate(-7.991 -17.473)" fill="#f2f2f2"/>
            <path id="Trazado_995679" data-name="Trazado 995679" d="M154.7,265.03q14.779,0,29.558,0c1.789,0,1.86.07,1.85,1.9-.019,3.4.373,2.929-2.856,2.933q-29.091.028-58.183.025c-2.058,0-2.078-.01-2.058-2.087.029-2.952-.416-2.792,2.8-2.8q14.446-.027,28.891-.007Zm30.477.929H124.013V268.9h61.168Z" transform="translate(-8.22 -17.707)"/>
            <path id="Trazado_995680" data-name="Trazado 995680" d="M154.616,278.448q-14.779,0-29.557,0c-2.018,0-2.062-.03-2.043-1.969.034-3.14-.445-2.914,2.946-2.915q29.159-.007,58.316.029c1.781,0,1.844.063,1.835,1.913-.018,3.39.37,2.91-2.871,2.916q-14.313.028-28.625.007Zm-30.645-.995h61.167v-2.932H123.971Z" transform="translate(-8.22 -18.28)"/>
            <path id="Trazado_995681" data-name="Trazado 995681" d="M154.614,287.006q-14.779,0-29.557,0c-2.017,0-2.06-.029-2.041-1.97.034-3.139-.445-2.912,2.948-2.913q29.157-.007,58.315.029c1.781,0,1.843.063,1.834,1.914-.018,3.39.37,2.909-2.873,2.915q-14.313.028-28.625.007Zm-30.636-.949h61.151v-2.971H123.978Z" transform="translate(-8.22 -18.851)"/>
            <rect id="Rectángulo_413086" data-name="Rectángulo 413086" width="61.16" height="2.94" transform="translate(115.797 248.247)" fill="#ff8e84"/>
            <rect id="Rectángulo_413087" data-name="Rectángulo 413087" width="61.172" height="2.928" transform="translate(115.751 256.244)" fill="#9782cc"/>
            <rect id="Rectángulo_413088" data-name="Rectángulo 413088" width="61.161" height="2.973" transform="translate(115.752 264.23)" fill="#ffd384"/>
            <g id="Grupo_1163204" data-name="Grupo 1163204" transform="translate(170.746 248.247)" opacity="0.35" style="mix-blend-mode: multiply;isolation: isolate">
              <g id="Grupo_1163203" data-name="Grupo 1163203">
                <g id="Grupo_1163202" data-name="Grupo 1163202" clip-path="url(#clip-path-9)">
                  <path id="Trazado_995682" data-name="Trazado 995682" d="M189.183,268.962h-6.211a26.544,26.544,0,0,0,.71-2.939h5.5Z" transform="translate(-182.972 -266.023)" fill="#ff8e84"/>
                </g>
              </g>
            </g>
            <g id="Grupo_1163207" data-name="Grupo 1163207" transform="translate(166.93 256.244)" opacity="0.5" style="mix-blend-mode: multiply;isolation: isolate">
              <g id="Grupo_1163206" data-name="Grupo 1163206">
                <g id="Grupo_1163205" data-name="Grupo 1163205" clip-path="url(#clip-path-10)">
                  <path id="Trazado_995683" data-name="Trazado 995683" d="M188.876,277.521h-9.993a26.131,26.131,0,0,0,1.741-2.928h8.252Z" transform="translate(-178.883 -274.593)" fill="#cab1e6"/>
                </g>
              </g>
            </g>
            <g id="Grupo_1163210" data-name="Grupo 1163210" transform="translate(158.866 264.23)" opacity="0.5" style="mix-blend-mode: multiply;isolation: isolate">
              <g id="Grupo_1163209" data-name="Grupo 1163209">
                <g id="Grupo_1163208" data-name="Grupo 1163208" clip-path="url(#clip-path-11)">
                  <path id="Trazado_995684" data-name="Trazado 995684" d="M188.289,286.124H170.242a28.438,28.438,0,0,0,3.737-2.973h14.309Z" transform="translate(-170.242 -283.151)" fill="#ffd384"/>
                </g>
              </g>
            </g>
            <g id="Grupo_1163213" data-name="Grupo 1163213" transform="translate(111.593 244.022)" opacity="0.5" style="mix-blend-mode: multiply;isolation: isolate">
              <g id="Grupo_1163212" data-name="Grupo 1163212">
                <g id="Grupo_1163211" data-name="Grupo 1163211" clip-path="url(#clip-path-8)">
                  <path id="Trazado_995685" data-name="Trazado 995685" d="M179.946,261.495a27.276,27.276,0,0,1-.334,3.305h4.426c1.786,0,1.852.066,1.841,1.9-.01,3.406.377,2.928-2.851,2.928h-4.614a24.543,24.543,0,0,1-1.287,3.162h6.921c1.785,0,1.841.066,1.83,1.907-.01,3.394.377,2.917-2.872,2.917-2.918.011-5.844.011-8.763.011a28.885,28.885,0,0,1-2.685,3.139q6.256.017,12.49.011c1.785,0,1.841.066,1.83,1.919-.01,3.383.377,2.906-2.872,2.906q-8.819.017-17.636.011a29.594,29.594,0,0,1-7.909,3.239c-12.378,3.106-25.234.355-37.878.865v6.611h69.655V261.495Z" transform="translate(-119.584 -261.495)" fill="#e2e2e2"/>
                </g>
              </g>
            </g>
            <path id="Trazado_995686" data-name="Trazado 995686" d="M151.763,322.563h5.062a13.079,13.079,0,0,0,1.445.157q15.047.045,30.1.069c1.733,0,1.757.01,1.758,1.774q.011,16.635,0,33.269c0,1.762-.026,1.772-1.758,1.774q-14.115.017-28.231.032c-1.1,0-2.205.127-3.307.194H152.3c-.482-.049-.965-.143-1.447-.144q-15.241-.049-30.48-.079c-1.783,0-1.815-.011-1.817-1.717q-.015-16.7,0-33.389c0-1.706.034-1.714,1.82-1.716q14.108-.015,28.218-.032c1.058,0,2.116-.124,3.174-.191m-32.251,36.044h69.658V323.782H119.513Z" transform="translate(-7.921 -21.554)"/>
            <path id="Trazado_995687" data-name="Trazado 995687" d="M119.584,358.7H189.24V323.869H119.584Zm63.423-10.726q-8.819.017-17.636.011H154.39V348H124.83c-2.018,0-2.063-.034-2.041-1.975.034-3.139-.444-2.917,2.951-2.917q22.91,0,45.82.022,6.256.015,12.489.01c1.786,0,1.842.067,1.831,1.92-.011,3.383.377,2.906-2.873,2.906m0-7.986c-2.917.011-5.845.011-8.763.011H154.39v.022H124.83c-2.018,0-2.063-.034-2.041-1.975.034-3.139-.444-2.917,2.94-2.917q25.705,0,51.4.033h6.921c1.786,0,1.842.067,1.831,1.908-.011,3.394.377,2.917-2.873,2.917m.022-7.986h-4.615q-26.786.034-53.573.034c-2.052,0-2.074-.011-2.052-2.086.022-2.961-.422-2.795,2.795-2.806q14.441-.017,28.894,0v.034q12.562,0,25.134,0h4.425c1.786,0,1.853.066,1.842,1.9-.011,3.405.377,2.928-2.851,2.928" transform="translate(-7.991 -21.641)" fill="#f2f2f2"/>
            <path id="Trazado_995688" data-name="Trazado 995688" d="M154.7,327.4q14.779,0,29.558,0c1.789,0,1.86.07,1.85,1.9-.019,3.4.373,2.929-2.856,2.932q-29.091.029-58.183.025c-2.058,0-2.078-.009-2.058-2.086.029-2.953-.416-2.792,2.8-2.8q14.446-.027,28.891-.007Zm30.477.929H124.013v2.939h61.168Z" transform="translate(-8.22 -21.875)"/>
            <path id="Trazado_995689" data-name="Trazado 995689" d="M154.616,340.822q-14.779,0-29.557,0c-2.018,0-2.062-.029-2.043-1.968.034-3.14-.445-2.914,2.946-2.915q29.159-.007,58.316.028c1.781,0,1.844.064,1.835,1.913-.018,3.391.37,2.911-2.871,2.917q-14.313.028-28.625.007Zm-30.645-.995h61.167V336.9H123.971Z" transform="translate(-8.22 -22.447)"/>
            <path id="Trazado_995690" data-name="Trazado 995690" d="M154.614,349.38q-14.779,0-29.557,0c-2.017,0-2.06-.029-2.041-1.97.034-3.139-.445-2.912,2.948-2.913q29.157-.007,58.315.028c1.781,0,1.843.063,1.834,1.915-.018,3.39.37,2.909-2.873,2.915q-14.313.028-28.625.007Zm-30.636-.95h61.151v-2.971H123.978Z" transform="translate(-8.22 -23.019)"/>
            <rect id="Rectángulo_413093" data-name="Rectángulo 413093" width="61.16" height="2.94" transform="translate(115.797 306.453)" fill="#a530fe"/>
            <rect id="Rectángulo_413094" data-name="Rectángulo 413094" width="61.172" height="2.928" transform="translate(115.751 314.45)" fill="#15da7e"/>
            <rect id="Rectángulo_413095" data-name="Rectángulo 413095" width="61.161" height="2.972" transform="translate(115.752 322.437)" fill="#3ad1e9"/>
            <g id="Grupo_1163216" data-name="Grupo 1163216" transform="translate(170.746 306.453)" opacity="0.35" style="mix-blend-mode: multiply;isolation: isolate">
              <g id="Grupo_1163215" data-name="Grupo 1163215">
                <g id="Grupo_1163214" data-name="Grupo 1163214" clip-path="url(#clip-path-9)">
                  <path id="Trazado_995691" data-name="Trazado 995691" d="M189.183,331.337h-6.211a26.544,26.544,0,0,0,.71-2.94h5.5Z" transform="translate(-182.972 -328.397)" fill="#ff8e84"/>
                </g>
              </g>
            </g>
            <g id="Grupo_1163219" data-name="Grupo 1163219" transform="translate(166.93 314.45)" opacity="0.5" style="mix-blend-mode: multiply;isolation: isolate">
              <g id="Grupo_1163218" data-name="Grupo 1163218">
                <g id="Grupo_1163217" data-name="Grupo 1163217" clip-path="url(#clip-path-10)">
                  <path id="Trazado_995692" data-name="Trazado 995692" d="M188.876,339.9h-9.993a26.131,26.131,0,0,0,1.741-2.928h8.252Z" transform="translate(-178.883 -336.967)" fill="#cab1e6"/>
                </g>
              </g>
            </g>
            <g id="Grupo_1163222" data-name="Grupo 1163222" transform="translate(158.866 322.437)" opacity="0.5" style="mix-blend-mode: multiply;isolation: isolate">
              <g id="Grupo_1163221" data-name="Grupo 1163221">
                <g id="Grupo_1163220" data-name="Grupo 1163220" clip-path="url(#clip-path-15)">
                  <path id="Trazado_995693" data-name="Trazado 995693" d="M188.289,348.5H170.242a28.5,28.5,0,0,0,3.737-2.972h14.309Z" transform="translate(-170.242 -345.525)" fill="#ffd384"/>
                </g>
              </g>
            </g>
            <g id="Grupo_1163225" data-name="Grupo 1163225" transform="translate(111.593 302.228)" opacity="0.5" style="mix-blend-mode: multiply;isolation: isolate">
              <g id="Grupo_1163224" data-name="Grupo 1163224">
                <g id="Grupo_1163223" data-name="Grupo 1163223" clip-path="url(#clip-path-8)">
                  <path id="Trazado_995694" data-name="Trazado 995694" d="M179.946,323.869a27.276,27.276,0,0,1-.334,3.305h4.426c1.786,0,1.852.066,1.841,1.9-.01,3.405.377,2.927-2.851,2.927h-4.614a24.544,24.544,0,0,1-1.287,3.162h6.921c1.785,0,1.841.066,1.83,1.907-.01,3.394.377,2.917-2.872,2.917-2.918.011-5.844.011-8.763.011a28.886,28.886,0,0,1-2.685,3.139q6.256.017,12.49.011c1.785,0,1.841.066,1.83,1.919-.01,3.383.377,2.906-2.872,2.906q-8.819.017-17.636.011a29.6,29.6,0,0,1-7.909,3.239c-12.378,3.106-25.234.355-37.878.865V358.7h69.655V323.869Z" transform="translate(-119.584 -323.869)" fill="#e2e2e2"/>
                </g>
              </g>
            </g>
            <path id="Trazado_995695" data-name="Trazado 995695" d="M357.975,190.2c-1.54-.067-3.079-.165-4.619-.194-2.111-.04-2.31-.211-2.321-2.259-.009-1.641.026-3.285-.065-4.922a1.759,1.759,0,0,0-.7-1.246q-6.061-3.589-12.2-7.045a1.766,1.766,0,0,0-1.434.04c-1.655.85-3.272,1.781-4.874,2.73a1.369,1.369,0,0,1-2.127-.543q-4.115-7.069-8.179-14.166a1.378,1.378,0,0,1,.624-2.11c1.585-.89,3.167-1.794,4.678-2.8a2.059,2.059,0,0,0,.836-1.432q.092-6.911,0-13.823a1.91,1.91,0,0,0-.775-1.335c-1.438-.956-2.957-1.791-4.444-2.674-1.337-.794-1.508-1.264-.763-2.564,2.621-4.578,5.271-9.14,7.909-13.707a1.522,1.522,0,0,1,2.431-.608c1.516.919,3.06,1.8,4.643,2.593a1.919,1.919,0,0,0,1.549.025q6.086-3.411,12.087-6.976a1.908,1.908,0,0,0,.738-1.357c.1-1.814.087-3.635.06-5.453a1.428,1.428,0,0,1,1.614-1.645q8.114-.024,16.229,0c1.069,0,1.593.587,1.583,1.694-.015,1.773-.042,3.553.083,5.319a2.212,2.212,0,0,0,.876,1.541q5.873,3.511,11.854,6.844a2.067,2.067,0,0,0,1.664-.021c1.627-.805,3.2-1.723,4.764-2.65a1.382,1.382,0,0,1,2.141.525q4.121,7.065,8.177,14.165a1.367,1.367,0,0,1-.617,2.107c-1.545.871-3.041,1.829-4.6,2.681a1.69,1.69,0,0,0-.989,1.682c.022,4.476.031,8.952-.017,13.427a1.888,1.888,0,0,0,1.163,1.858c1.474.815,2.893,1.73,4.368,2.542a1.414,1.414,0,0,1,.667,2.2q-4.037,7.035-8.108,14.052a1.415,1.415,0,0,1-2.219.589c-1.519-.915-3.055-1.812-4.645-2.59a2.226,2.226,0,0,0-1.777-.065q-5.981,3.327-11.856,6.844a2.319,2.319,0,0,0-.854,1.556,29.376,29.376,0,0,0-.077,3.455c-.016,3.521-.014,3.506-3.609,3.532-1.095.007-2.189.122-3.283.189Zm-5.886-1.258H369.4c0-2.022.038-3.928-.015-5.831a2.465,2.465,0,0,1,1.2-2.315,87.233,87.233,0,0,1,12.528-7.217,2.273,2.273,0,0,1,2.363.065c1.71,1.012,3.455,1.963,5.283,2.995l8.6-14.9c-1.714-1.017-3.279-2.024-4.919-2.89a2.681,2.681,0,0,1-1.589-2.647q.042-6.834-.006-13.668a2.7,2.7,0,0,1,1.6-2.646c1.661-.893,3.256-1.909,4.911-2.892L390.761,122.1c-1.8,1.016-3.521,1.934-5.184,2.939a2.464,2.464,0,0,1-2.609.061,92.068,92.068,0,0,1-12.185-7.018,2.733,2.733,0,0,1-1.407-2.613c.085-1.885.022-3.777.022-5.652h-17.31c0,2.048-.016,3.993.007,5.938a2.293,2.293,0,0,1-1.1,2.107,80.325,80.325,0,0,1-12.775,7.307,2.776,2.776,0,0,1-2.081-.064c-1.826-.887-3.565-1.952-5.427-3L322.108,137c1.748,1.031,3.365,2.035,5.033,2.948a2.591,2.591,0,0,1,1.458,2.31,87.967,87.967,0,0,1-.02,14.328,2.373,2.373,0,0,1-1.311,2.113c-1.733.96-3.418,2.006-5.155,3.037l8.6,14.9c1.686-.952,3.335-1.81,4.9-2.795a2.833,2.833,0,0,1,3.079-.117,92.063,92.063,0,0,1,12.163,7.051,2.49,2.49,0,0,1,1.24,2.3c-.038,1.94-.011,3.881-.011,5.864" transform="translate(-21.461 -7.264)"/>
            <path id="Trazado_995696" data-name="Trazado 995696" d="M394.5,158.927a2.677,2.677,0,0,1-1.586-2.65q.049-6.838,0-13.665a2.705,2.705,0,0,1,1.6-2.651c1.654-.887,3.25-1.907,4.9-2.895-2.307-4-4.57-7.909-6.822-11.835-.588-1.01-1.176-2.03-1.764-3.051-1.808,1.01-3.527,1.93-5.19,2.94a2.456,2.456,0,0,1-2.607.055,91.08,91.08,0,0,1-12.189-7.021,2.72,2.72,0,0,1-1.4-2.606c.077-1.885.022-3.782.022-5.657H352.155c0,2.052-.022,3.993.011,5.945a2.333,2.333,0,0,1-1.1,2.108,80.07,80.07,0,0,1-12.778,7.3,2.773,2.773,0,0,1-2.085-.056c-1.82-.887-3.561-1.952-5.424-3.006-2.884,4.992-5.735,9.916-8.608,14.9,1.753,1.031,3.36,2.041,5.035,2.951a2.594,2.594,0,0,1,1.453,2.318,86.935,86.935,0,0,1-.022,14.32,2.37,2.37,0,0,1-1.308,2.118c-1.73.954-3.416,2.007-5.158,3.039,2.895,5.013,5.734,9.916,8.608,14.9,1.685-.954,3.338-1.808,4.9-2.795a2.847,2.847,0,0,1,3.083-.121,93.248,93.248,0,0,1,12.156,7.054,2.48,2.48,0,0,1,1.221,1.886,2.451,2.451,0,0,1,.022.411c-.034,1.941-.011,3.882-.011,5.867h17.314c0-2.018.033-3.926-.022-5.834a2.456,2.456,0,0,1,1.209-2.307,86.674,86.674,0,0,1,12.522-7.221,2.262,2.262,0,0,1,2.363.066c1.708,1.01,3.46,1.963,5.28,2.995,2.884-4.991,5.723-9.916,8.607-14.907-1.719-1.01-3.283-2.018-4.924-2.884m-24.569-27.3a1.812,1.812,0,0,1,1.775,1.076q4.492,7.853,9.051,15.662a1.9,1.9,0,0,1-.011,2.185q-4.576,7.8-9.04,15.662a1.73,1.73,0,0,1-1.586,1.02,1.406,1.406,0,0,1-.222.011c-3.017-.034-6.034-.011-9.051-.011v-.011c-3.05,0-6.111-.022-9.172.022a1.818,1.818,0,0,1-1.8-1.054q-4.475-7.853-9.029-15.673a1.8,1.8,0,0,1-.056-2.074q3.046-5.207,6.034-10.426c.288-.488.577-.976.844-1.464.754-1.3,1.5-2.6,2.241-3.893a1.792,1.792,0,0,1,1.8-1.02q8.985.034,17.969-.011Z" transform="translate(-21.528 -7.343)" fill="#15da7e"/>
            <path id="Trazado_995697" data-name="Trazado 995697" d="M362.167,168.782c-3.059,0-6.12-.027-9.178.018a1.8,1.8,0,0,1-1.792-1.051q-4.482-7.857-9.038-15.67A1.817,1.817,0,0,1,342.11,150q4.6-7.867,9.113-15.78a1.8,1.8,0,0,1,1.8-1.026q9.111.042,18.223-.006a1.8,1.8,0,0,1,1.775,1.068q4.482,7.855,9.051,15.662a1.893,1.893,0,0,1-.015,2.189q-4.569,7.805-9.043,15.666a1.8,1.8,0,0,1-1.8,1.03c-3.014-.039-6.03-.015-9.045-.015v-.007m-.027-34.643c-2.88,0-5.76.028-8.638-.018a1.664,1.664,0,0,0-1.674.981c-2.85,5-5.764,9.973-8.592,14.99a2.127,2.127,0,0,0-.029,1.772q4.269,7.587,8.707,15.077a2.123,2.123,0,0,0,1.541.867c5.76.06,11.521.021,17.282.051a1.674,1.674,0,0,0,1.678-.97c2.852-5,5.766-9.972,8.594-14.99a2.113,2.113,0,0,0,.014-1.764q-4.271-7.585-8.7-15.077a2.147,2.147,0,0,0-1.538-.876c-2.877-.085-5.758-.04-8.638-.044" transform="translate(-22.84 -8.9)"/>
            <g id="Grupo_1163228" data-name="Grupo 1163228" transform="translate(330.616 117.888)" opacity="0.5" style="mix-blend-mode: multiply;isolation: isolate">
              <g id="Grupo_1163227" data-name="Grupo 1163227">
                <g id="Grupo_1163226" data-name="Grupo 1163226" clip-path="url(#clip-path-17)">
                  <path id="Trazado_995698" data-name="Trazado 995698" d="M401.574,162.91c-2.884,4.992-5.723,9.916-8.607,14.908-1.82-1.032-3.572-1.986-5.28-2.995a2.264,2.264,0,0,0-2.363-.067,86.757,86.757,0,0,0-12.522,7.221,2.457,2.457,0,0,0-1.209,2.308c.055,1.907.022,3.815.022,5.833H354.3c0-1.985-.022-3.926.011-5.867a2.457,2.457,0,0,0-.022-.411,37.021,37.021,0,0,0,22.649-7.5c15.341-11.823,16.017-32.044,17.8-50.013,2.252,3.927,4.515,7.831,6.822,11.835-1.653.987-3.249,2.008-4.9,2.9a2.7,2.7,0,0,0-1.6,2.65c.034,4.56.034,9.107,0,13.665a2.679,2.679,0,0,0,1.586,2.651c1.641.865,3.205,1.875,4.924,2.884" transform="translate(-354.29 -126.329)" fill="#cab1e6"/>
                </g>
              </g>
            </g>
            <g id="Grupo_1163231" data-name="Grupo 1163231" transform="translate(315.801 122.303)" opacity="0.5" style="mix-blend-mode: multiply;isolation: isolate">
              <g id="Grupo_1163230" data-name="Grupo 1163230">
                <g id="Grupo_1163229" data-name="Grupo 1163229" clip-path="url(#clip-path-18)">
                  <path id="Trazado_995699" data-name="Trazado 995699" d="M370.988,168.661c-3.017-.034-6.034-.011-9.051-.011v-.011c-3.051,0-6.111-.022-9.173.022a1.816,1.816,0,0,1-1.8-1.054q-4.476-7.853-9.029-15.673a1.8,1.8,0,0,1-.056-2.074q3.044-5.207,6.034-10.426c-.422.433-.843.887-1.253,1.342a28.171,28.171,0,0,1,2.1-2.806c.755-1.3,1.5-2.6,2.241-3.893a1.792,1.792,0,0,1,1.8-1.02q8.984.034,17.968-.011a2.688,2.688,0,0,0-.321-.089c-6.167-1.121-15.551-3.7-21.23.133-3.194,2.151-4.869,5.967-6.744,9.183-1.464,2.529-3.516,5.246-3.959,8.231-.832,5.635,3.837,13.9,8.341,17.158,5.9,4.281,16.095,2.119,22.849,2.074a1.538,1.538,0,0,0,1.509-1.087,1.411,1.411,0,0,1-.222.011" transform="translate(-338.414 -131.061)" fill="#cab1e6"/>
                </g>
              </g>
            </g>
            <path id="Trazado_995700" data-name="Trazado 995700" d="M269.895,178.942c-.984-.513-1.959-1.047-2.955-1.536-1.366-.67-1.444-.843-.827-2.183.495-1.074,1.02-2.135,1.459-3.232a1.27,1.27,0,0,0-.074-1.026q-2.863-4.192-5.816-8.32a1.279,1.279,0,0,0-.949-.412c-1.34.05-2.678.165-4.014.3a.986.986,0,0,1-1.222-1q-.531-5.869-1.018-11.741a.993.993,0,0,1,1.052-1.187c1.306-.1,2.615-.2,3.907-.4a1.482,1.482,0,0,0,.984-.679q2.168-4.483,4.216-9.024a1.38,1.38,0,0,0-.1-1.109c-.647-1.062-1.384-2.071-2.085-3.1-.631-.927-.6-1.285.285-1.907,3.107-2.188,6.227-4.357,9.343-6.533a1.1,1.1,0,0,1,1.772.344c.708,1.063,1.448,2.108,2.24,3.109a1.382,1.382,0,0,0,1,.489q5.014-.371,10.018-.866a1.373,1.373,0,0,0,.9-.661c.616-1.154,1.166-2.346,1.7-3.541a1.029,1.029,0,0,1,1.556-.58q5.3,2.459,10.593,4.951a1.046,1.046,0,0,1,.517,1.588c-.552,1.153-1.111,2.306-1.569,3.5a1.594,1.594,0,0,0,.1,1.273q2.765,4.083,5.65,8.083a1.489,1.489,0,0,0,1.093.494c1.307-.029,2.615-.147,3.918-.276a1,1,0,0,1,1.236,1q.535,5.868,1.016,11.741a.985.985,0,0,1-1.045,1.187c-1.274.1-2.543.265-3.818.347a1.218,1.218,0,0,0-1.158.8c-1.351,2.928-2.711,5.853-4.108,8.76a1.361,1.361,0,0,0,.192,1.568c.714.982,1.361,2.011,2.076,2.992a1.018,1.018,0,0,1-.235,1.638q-4.782,3.361-9.579,6.7a1.02,1.02,0,0,1-1.628-.292c-.712-1.061-1.441-2.115-2.241-3.108a1.608,1.608,0,0,0-1.14-.584q-4.919.346-9.826.85a1.672,1.672,0,0,0-1.032.755,21.084,21.084,0,0,0-1.1,2.231c-1.085,2.294-1.08,2.284-3.433,1.2-.718-.328-1.466-.588-2.2-.878l-3.65-1.706m-3.458-2.617,11.3,5.281c.617-1.32,1.222-2.552,1.768-3.811A1.774,1.774,0,0,1,281,176.651a62.809,62.809,0,0,1,10.379-.89,1.639,1.639,0,0,1,1.522.764c.808,1.181,1.656,2.336,2.534,3.566l10.16-7.1c-.809-1.187-1.523-2.322-2.329-3.387a1.932,1.932,0,0,1-.23-2.214q2.112-4.447,4.166-8.923a1.948,1.948,0,0,1,1.851-1.24c1.356-.077,2.706-.253,4.087-.389-.361-4.177-.711-8.235-1.066-12.343-1.488.113-2.889.188-4.28.337a1.776,1.776,0,0,1-1.722-.757,66.545,66.545,0,0,1-5.814-8.3,1.97,1.97,0,0,1-.12-2.134c.63-1.2,1.166-2.459,1.738-3.683l-11.3-5.281c-.625,1.337-1.229,2.6-1.808,3.878a1.654,1.654,0,0,1-1.358,1.041,57.836,57.836,0,0,1-10.568.872,2,2,0,0,1-1.338-.677c-.922-1.136-1.731-2.362-2.628-3.614l-10.163,7.1c.827,1.207,1.575,2.355,2.385,3.46a1.866,1.866,0,0,1,.247,1.952,63.474,63.474,0,0,1-4.384,9.347,1.709,1.709,0,0,1-1.5.979c-1.424.1-2.843.267-4.292.409.36,4.157.712,8.222,1.069,12.35,1.39-.107,2.729-.164,4.054-.328a2.042,2.042,0,0,1,2.045.863,66.325,66.325,0,0,1,5.789,8.313,1.8,1.8,0,0,1,.108,1.879c-.617,1.254-1.192,2.53-1.8,3.824" transform="translate(-17.004 -8.284)"/>
            <path id="Trazado_995701" data-name="Trazado 995701" d="M303.309,169.652a1.929,1.929,0,0,1-.227-2.214q2.118-4.448,4.169-8.919a1.946,1.946,0,0,1,1.851-1.242c1.349-.077,2.7-.254,4.083-.395-.285-3.318-.57-6.557-.842-9.806-.077-.839-.148-1.684-.221-2.53-1.487.108-2.891.185-4.285.335a1.769,1.769,0,0,1-1.718-.758,65.737,65.737,0,0,1-5.815-8.3,1.958,1.958,0,0,1-.118-2.128c.626-1.207,1.168-2.462,1.74-3.686l-11.3-5.282c-.626,1.339-1.233,2.6-1.807,3.884a1.681,1.681,0,0,1-1.36,1.041,57.478,57.478,0,0,1-10.566.865,2,2,0,0,1-1.345-.672c-.916-1.135-1.728-2.361-2.623-3.616-3.405,2.378-6.768,4.723-10.162,7.1.83,1.208,1.571,2.357,2.387,3.462a1.87,1.87,0,0,1,.241,1.956,62.518,62.518,0,0,1-4.382,9.34,1.708,1.708,0,0,1-1.5.984c-1.42.1-2.842.27-4.294.411.36,4.155.719,8.222,1.074,12.349,1.391-.108,2.731-.161,4.053-.328a2.052,2.052,0,0,1,2.05.861,67.433,67.433,0,0,1,5.783,8.313,1.789,1.789,0,0,1,.221,1.6,1.757,1.757,0,0,1-.111.273c-.613,1.257-1.191,2.531-1.8,3.827l11.3,5.282c.615-1.318,1.219-2.552,1.765-3.815a1.771,1.771,0,0,1,1.493-1.138,62.6,62.6,0,0,1,10.377-.893,1.632,1.632,0,0,1,1.522.764c.806,1.18,1.66,2.337,2.533,3.567l10.166-7.106c-.815-1.183-1.528-2.318-2.335-3.385m-7.71-25.312a1.3,1.3,0,0,1,.831,1.244c.357,4.332.726,8.657,1.13,12.983a1.374,1.374,0,0,1-.674,1.424q-5.368,3.7-10.678,7.465a1.245,1.245,0,0,1-1.347.181.846.846,0,0,1-.148-.061c-1.96-.941-3.935-1.848-5.9-2.767l0-.008c-1.99-.93-3.983-1.878-5.994-2.784a1.31,1.31,0,0,1-.852-1.236q-.525-6.489-1.112-12.984a1.3,1.3,0,0,1,.6-1.371q3.575-2.471,7.119-4.964c.337-.231.674-.46,1-.7q1.333-.925,2.65-1.857a1.291,1.291,0,0,1,1.484-.119q5.855,2.763,11.733,5.475Z" transform="translate(-17.054 -8.334)" fill="#0b7744"/>
            <path id="Trazado_995702" data-name="Trazado 995702" d="M279.933,165.8c-2-.933-3.987-1.884-6-2.788a1.3,1.3,0,0,1-.848-1.233q-.529-6.495-1.119-12.984a1.307,1.307,0,0,1,.6-1.373q5.4-3.733,10.76-7.52a1.3,1.3,0,0,1,1.489-.12q5.935,2.808,11.9,5.556a1.3,1.3,0,0,1,.832,1.238q.531,6.5,1.13,12.984a1.366,1.366,0,0,1-.677,1.425q-5.364,3.7-10.681,7.467a1.3,1.3,0,0,1-1.491.122c-1.956-.945-3.931-1.85-5.9-2.77l0,0m10.551-22.621c-1.879-.878-3.769-1.739-5.634-2.646a1.2,1.2,0,0,0-1.392.13c-3.387,2.4-6.8,4.751-10.181,7.163a1.534,1.534,0,0,0-.56,1.148q.473,6.254,1.085,12.5a1.523,1.523,0,0,0,.741,1.036c3.74,1.8,7.513,3.528,11.263,5.306a1.206,1.206,0,0,0,1.391-.121c3.387-2.4,6.806-4.75,10.183-7.163a1.53,1.53,0,0,0,.548-1.147q-.476-6.254-1.084-12.5a1.545,1.545,0,0,0-.736-1.041c-1.851-.933-3.746-1.783-5.624-2.664" transform="translate(-18.172 -9.328)"/>
            <g id="Grupo_1163234" data-name="Grupo 1163234" transform="translate(249.432 138.741)" opacity="0.5" style="mix-blend-mode: multiply;isolation: isolate">
              <g id="Grupo_1163233" data-name="Grupo 1163233">
                <g id="Grupo_1163232" data-name="Grupo 1163232" clip-path="url(#clip-path-19)">
                  <path id="Trazado_995703" data-name="Trazado 995703" d="M306.45,174.638c-3.405,2.379-6.761,4.727-10.166,7.105-.873-1.229-1.725-2.386-2.533-3.566a1.631,1.631,0,0,0-1.522-.764,62.385,62.385,0,0,0-10.376.893,1.769,1.769,0,0,0-1.493,1.138c-.546,1.262-1.15,2.5-1.766,3.815l-11.3-5.282c.606-1.3,1.183-2.57,1.8-3.827a1.81,1.81,0,0,0,.11-.274,26.675,26.675,0,0,0,17.072,2.015c13.621-3.038,20.23-16.03,26.877-27.214.272,3.25.558,6.488.843,9.806-1.38.141-2.734.319-4.084.395a1.947,1.947,0,0,0-1.851,1.243q-2.053,4.478-4.169,8.919a1.931,1.931,0,0,0,.227,2.214c.807,1.066,1.52,2.2,2.335,3.385" transform="translate(-267.293 -148.676)" fill="#cab1e6"/>
                </g>
              </g>
            </g>
            <g id="Grupo_1163237" data-name="Grupo 1163237" transform="translate(250.515 129.296)" opacity="0.5" style="mix-blend-mode: multiply;isolation: isolate">
              <g id="Grupo_1163236" data-name="Grupo 1163236">
                <g id="Grupo_1163235" data-name="Grupo 1163235" clip-path="url(#clip-path-20)">
                  <path id="Trazado_995704" data-name="Trazado 995704" d="M285.6,168.5c-1.959-.943-3.935-1.848-5.9-2.768l0-.007c-1.99-.93-3.982-1.879-5.994-2.784a1.311,1.311,0,0,1-.852-1.236q-.525-6.491-1.111-12.984a1.3,1.3,0,0,1,.6-1.371q3.576-2.471,7.119-4.965c-.407.154-.821.323-1.228.494a20.281,20.281,0,0,1,2.225-1.192c.888-.617,1.769-1.237,2.65-1.858a1.291,1.291,0,0,1,1.484-.118q5.855,2.762,11.733,5.474a2.019,2.019,0,0,0-.183-.156c-3.684-2.613-9.02-7.162-13.9-6.389-2.742.43-5,2.409-7.2,3.937-1.727,1.2-3.9,2.353-5.1,4.165-2.262,3.424-1.735,10.243.21,13.745,2.546,4.595,9.859,6.292,14.281,8.324a1.109,1.109,0,0,0,1.317-.249,1.058,1.058,0,0,1-.148-.061" transform="translate(-268.453 -138.554)" fill="#cab1e6"/>
                </g>
              </g>
            </g>
            <path id="Trazado_995705" data-name="Trazado 995705" d="M396.235,230.545c-.062.976-.173,1.951-.17,2.927,0,.831-.346,1.179-1.15,1.168-.9-.012-1.807,0-2.711,0l-75.927.069c-2.355,0-2.423-.063-2.433-2.361q-.013-3.163,0-6.328c.01-1.78.207-1.969,2.041-1.971q7.3,0,14.591.006l63.531.051c2.039,0,2.025,0,2.053,2.085.009.676.111,1.35.171,2.025Zm-81.43,3.237h80.241v-8.77H314.8Z" transform="translate(-20.971 -14.971)"/>
            <path id="Trazado_995706" data-name="Trazado 995706" d="M396.235,249.656c-.062.975-.173,1.951-.17,2.926,0,.831-.346,1.179-1.15,1.168-.9-.011-1.807,0-2.711,0q-37.963.035-75.927.068c-2.355,0-2.423-.062-2.433-2.361q-.013-3.163,0-6.327c.01-1.78.207-1.97,2.041-1.971q7.3,0,14.591.006l63.531.051c2.039,0,2.025,0,2.053,2.085.009.676.111,1.349.171,2.024Zm-81.408,3.218h80.245v-8.781H314.827Z" transform="translate(-20.971 -16.248)"/>
            <path id="Trazado_995707" data-name="Trazado 995707" d="M396.235,268.766c-.062.976-.173,1.951-.17,2.926,0,.832-.346,1.18-1.15,1.169-.9-.012-1.807,0-2.711,0l-75.927.069c-2.355,0-2.423-.062-2.433-2.361q-.013-3.163,0-6.328c.01-1.78.207-1.969,2.041-1.971q7.3,0,14.591.006l63.531.051c2.039,0,2.025,0,2.053,2.085.009.676.111,1.35.171,2.024Zm-81.4,3.241h80.228v-8.794H314.833Z" transform="translate(-20.971 -17.525)"/>
            <path id="Trazado_995708" data-name="Trazado 995708" d="M396.235,287.876c-.062.976-.173,1.952-.17,2.927,0,.831-.346,1.179-1.15,1.168-.9-.011-1.807,0-2.711,0q-37.963.035-75.927.068c-2.355,0-2.423-.062-2.433-2.361q-.013-3.164,0-6.328c.01-1.779.207-1.969,2.041-1.97q7.3,0,14.591.006l63.531.051c2.039,0,2.025,0,2.053,2.085.009.675.111,1.349.171,2.024Zm-81.412,3.234h80.246v-8.794H314.823Z" transform="translate(-20.971 -18.802)"/>
            <path id="Trazado_995709" data-name="Trazado 995709" d="M295.641,255.976q0-15.245,0-30.49c0-1.871,0-1.876,1.815-1.9.861-.01,1.725.048,2.582-.01,1-.066,1.409.309,1.369,1.332-.055,1.418-.013,2.842-.012,4.263q.022,28.94.063,57.879c0,.88-.283,1.138-1.1,1.109-1.2-.042-2.41-.05-3.613,0-.888.038-1.167-.246-1.164-1.181.037-10.335.023-20.671.023-31.007Zm4.936-31.506H296.49v62.776h4.086Z" transform="translate(-19.751 -14.939)"/>
            <path id="Trazado_995916" data-name="Trazado 995916" d="M0,0H80.243V8.771H0Z" transform="translate(293.836 210.038)" fill="#3ad1e9"/>
            <path id="Trazado_995917" data-name="Trazado 995917" d="M0,0H80.243V8.782H0Z" transform="translate(293.857 227.849)" fill="#a530fe"/>
            <path id="Trazado_995919" data-name="Trazado 995919" d="M0,0H80.232V8.792H0Z" transform="translate(293.857 245.693)" fill="#e3bffe"/>
            <path id="Trazado_995918" data-name="Trazado 995918" d="M0,0H80.243V8.792H0Z" transform="translate(293.857 263.515)" fill="#b2cdeb"/>
            <rect id="Rectángulo_413108" data-name="Rectángulo 413108" width="4.089" height="62.776" transform="translate(276.735 209.531)" fill="#f2f2f2"/>
            <g id="Grupo_1163240" data-name="Grupo 1163240" transform="translate(293.836 210.037)" opacity="0.35" style="mix-blend-mode: multiply;isolation: isolate">
              <g id="Grupo_1163239" data-name="Grupo 1163239">
                <g id="Grupo_1163238" data-name="Grupo 1163238" clip-path="url(#clip-path-21)">
                  <path id="Trazado_995710" data-name="Trazado 995710" d="M395.119,225.077v8.771H314.876v-3.412h74.97a7.76,7.76,0,0,0,3.433-3.346,8.2,8.2,0,0,0-.323-2.013Z" transform="translate(-314.876 -225.077)" fill="#ff8e84"/>
                </g>
              </g>
            </g>
            <g id="Grupo_1163243" data-name="Grupo 1163243" transform="translate(293.857 227.849)" opacity="0.5" style="mix-blend-mode: multiply;isolation: isolate">
              <g id="Grupo_1163242" data-name="Grupo 1163242">
                <g id="Grupo_1163241" data-name="Grupo 1163241" clip-path="url(#clip-path-22)">
                  <path id="Trazado_995711" data-name="Trazado 995711" d="M395.142,244.164v8.782H314.9v-3.035h74.948a7.74,7.74,0,0,0,3.433-3.337,9.413,9.413,0,0,0-.43-2.41Z" transform="translate(-314.899 -244.164)" fill="#cab1e6"/>
                </g>
              </g>
            </g>
            <g id="Grupo_1163246" data-name="Grupo 1163246" transform="translate(293.857 245.693)" opacity="0.5" style="mix-blend-mode: multiply;isolation: isolate">
              <g id="Grupo_1163245" data-name="Grupo 1163245">
                <g id="Grupo_1163244" data-name="Grupo 1163244" clip-path="url(#clip-path-23)">
                  <path id="Trazado_995712" data-name="Trazado 995712" d="M395.131,263.286v8.792H314.9V269.4h74.947a7.821,7.821,0,0,0,3.433-3.347,9.914,9.914,0,0,0-.549-2.766Z" transform="translate(-314.899 -263.286)" fill="#ffd384"/>
                </g>
              </g>
            </g>
            <g id="Grupo_1163249" data-name="Grupo 1163249" transform="translate(293.857 263.515)" opacity="0.5" style="mix-blend-mode: multiply;isolation: isolate">
              <g id="Grupo_1163248" data-name="Grupo 1163248">
                <g id="Grupo_1163247" data-name="Grupo 1163247" clip-path="url(#clip-path-24)">
                  <path id="Trazado_995713" data-name="Trazado 995713" d="M395.142,282.384v8.792H314.9v-2.3h74.948a7.765,7.765,0,0,0,3.433-3.346,10.8,10.8,0,0,0-.667-3.143Z" transform="translate(-314.899 -282.384)" fill="#cab1e6"/>
                </g>
              </g>
            </g>
            <g id="Grupo_1163252" data-name="Grupo 1163252" transform="translate(276.734 209.531)" opacity="0.35" style="mix-blend-mode: multiply;isolation: isolate">
              <g id="Grupo_1163251" data-name="Grupo 1163251">
                <g id="Grupo_1163250" data-name="Grupo 1163250" clip-path="url(#clip-path-25)">
                  <path id="Trazado_995714" data-name="Trazado 995714" d="M300.64,224.535v62.776h-4.089v-5.4c.763-.237,1.3-1.141,1.689-2.336a1.484,1.484,0,0,1,.161-.56,34.244,34.244,0,0,0,.764-7.641,1.5,1.5,0,0,1,.2-.786V224.535Z" transform="translate(-296.55 -224.535)" fill="#c1c1c1"/>
                </g>
              </g>
            </g>
            <path id="Trazado_995715" data-name="Trazado 995715" d="M301.889,301.31v51.384l.416.186c1.488-1.4,3.016-2.767,4.458-4.215,4.258-4.276,8.451-8.615,12.731-12.868a15.973,15.973,0,0,1,8.184-4.735,18.385,18.385,0,0,1,13.519,2.579,54.294,54.294,0,0,0,6.5,3.283,6.538,6.538,0,0,0,6.032-.455c2.46-1.406,4.879-2.9,7.215-4.5q9.713-6.661,19.331-13.462c2.929-2.076,5.745-4.316,8.564-6.541a1.55,1.55,0,0,0,.295-1.3,3.82,3.82,0,0,1,2.556-4.75c1.757-.5,3.947.425,4.525,1.9a3.851,3.851,0,0,1-1.934,4.614,1.363,1.363,0,0,0-.978,1.455q.087,21.233.125,42.467c0,.3.049.6.077.916,3.37.133,6.659.264,9.95.405.03,0,.054.151.18.532-.657.066-1.26.181-1.863.181q-24.033.02-48.065.018-25.3,0-50.593-.021c-2.086,0-2.13-.022-2.129-2.039q.013-26.625.051-53.25a17.174,17.174,0,0,1,.2-1.833l.657.044M392.3,357.34c.026-.5.064-.894.065-1.285q.077-20.9.133-41.806c0-.481-.174-1.352-.356-1.376-.873-.115-1.649-.979-2.7-.091-2.369,2-4.813,3.935-7.346,5.728-7.243,5.126-14.5,10.238-21.851,15.2a63.77,63.77,0,0,1-8.14,4.432c-.789.38-1.056.641-1.051,1.469.04,5.5.034,11.006.049,16.51,0,.384.057.77.091,1.217Zm-61.72-.028h19.555V338.479c-3.77-.271-6.849-2.2-9.944-4.138a14.326,14.326,0,0,0-3.719-1.75c-1.881-.514-3.847-.72-5.892-1.079ZM329.467,331.8c-.7.107-1.222.158-1.736.274a16.51,16.51,0,0,0-7.9,4.707c-5.565,5.469-11.082,10.985-16.632,16.471a4.025,4.025,0,0,0-1.026,4.066h27.3ZM392.6,311.833a2.822,2.822,0,0,0,2.842-2.871,2.534,2.534,0,0,0-2.663-2.227A2.7,2.7,0,0,0,390,309.624c0,1.32,1.028,2.194,2.6,2.209" transform="translate(-20.112 -20.131)"/>
            <path id="Trazado_995716" data-name="Trazado 995716" d="M398.969,312.225c-1.568-.015-2.593-.888-2.6-2.209a2.7,2.7,0,0,1,2.775-2.889,2.534,2.534,0,0,1,2.663,2.227,2.822,2.822,0,0,1-2.842,2.871" transform="translate(-26.486 -20.523)" fill="#a530fe"/>
            <path id="Trazado_995717" data-name="Trazado 995717" d="M136.094,149.438c.181-.525.339-1.06.548-1.574,1.17-2.888,4.973-5.665,9.879-3.38l7.618-8.587a7.266,7.266,0,0,1-1.669-5.237,6.978,6.978,0,0,1,4.852-5.992c.316-.1.631-.209.946-.314h2.24c.244.083.484.176.732.248a6.94,6.94,0,0,1,4.224,10.035c-.121.23-.246.456-.337.623l15.591,15.631a6.983,6.983,0,0,1,10.674,3.861c.078.245.165.488.248.732v2.24a7.362,7.362,0,0,1-2.686,4.329,25.548,25.548,0,0,1-2.913,1.494H183.35c-.23-.1-.453-.218-.689-.3a6.937,6.937,0,0,1-3.241-11.153l.386-.479a159,159,0,0,0-15.337-15.531,7.353,7.353,0,0,1-4.775,2.146,7.224,7.224,0,0,1-4.964-1.754l-7.241,8.254a22.51,22.51,0,0,1,2.192,3.992,6.838,6.838,0,0,1-4.636,8.483,6.956,6.956,0,0,1-8.639-4.586c-.1-.315-.209-.63-.313-.945Zm23.274-12.1a6.046,6.046,0,1,0-6.028-6.062,6.06,6.06,0,0,0,6.028,6.062M149.08,150.62a6.045,6.045,0,1,0-6.106,5.984,6.068,6.068,0,0,0,6.106-5.984m41.657,6.091a6.046,6.046,0,1,0-6.149,5.94,6.068,6.068,0,0,0,6.149-5.94" transform="translate(-9.094 -8.309)"/>
            <path id="Trazado_995718" data-name="Trazado 995718" d="M166.669,131.379a6.07,6.07,0,0,1-6.066,6.028,5.451,5.451,0,0,1-1.409-.177,6.043,6.043,0,0,1,1.446-11.917,5.954,5.954,0,0,1,2.837.719,6.114,6.114,0,0,1,3.191,5.347" transform="translate(-10.329 -8.374)" fill="#3ad1e9"/>
            <path id="Trazado_995719" data-name="Trazado 995719" d="M149.149,152.065a6.07,6.07,0,0,1-6.112,5.982,5.863,5.863,0,0,1-2.94-.812,6.039,6.039,0,0,1,3.07-11.282,5.985,5.985,0,0,1,4.451,2.053,6.048,6.048,0,0,1,1.53,4.059" transform="translate(-9.158 -9.753)" fill="#a530fe"/>
            <path id="Trazado_995720" data-name="Trazado 995720" d="M193.789,158.583a6.048,6.048,0,1,1-5.944-6.15,5.919,5.919,0,0,1,3.471,1.185,6.113,6.113,0,0,1,2.473,4.965" transform="translate(-12.141 -10.186)" fill="#15da7e"/>
            <g id="Grupo_1163255" data-name="Grupo 1163255" transform="translate(148.865 117.658)" opacity="0.35" style="mix-blend-mode: multiply;isolation: isolate">
              <g id="Grupo_1163254" data-name="Grupo 1163254">
                <g id="Grupo_1163253" data-name="Grupo 1163253" clip-path="url(#clip-path-26)">
                  <path id="Trazado_995721" data-name="Trazado 995721" d="M167,131.43a6.07,6.07,0,0,1-6.066,6.028,5.451,5.451,0,0,1-1.409-.177c3.49-.485,4.946-3.947,5.123-7.5a10.012,10.012,0,0,0-.84-3.7A6.114,6.114,0,0,1,167,131.43" transform="translate(-159.525 -126.083)" fill="#c1c1c1"/>
                </g>
              </g>
            </g>
            <g id="Grupo_1163258" data-name="Grupo 1163258" transform="translate(130.939 138.253)" opacity="0.5" style="mix-blend-mode: multiply;isolation: isolate">
              <g id="Grupo_1163257" data-name="Grupo 1163257">
                <g id="Grupo_1163256" data-name="Grupo 1163256" clip-path="url(#clip-path-27)">
                  <path id="Trazado_995722" data-name="Trazado 995722" d="M147.836,148.153a7.928,7.928,0,0,1-7.521,9.229,5.863,5.863,0,0,0,2.94.812,6.028,6.028,0,0,0,4.582-10.041" transform="translate(-140.315 -148.153)" fill="#cab1e6"/>
                </g>
              </g>
            </g>
            <g id="Grupo_1163261" data-name="Grupo 1163261" transform="translate(171.038 143.432)" opacity="0.5" style="mix-blend-mode: multiply;isolation: isolate">
              <g id="Grupo_1163260" data-name="Grupo 1163260">
                <g id="Grupo_1163259" data-name="Grupo 1163259" clip-path="url(#clip-path-28)">
                  <path id="Trazado_995723" data-name="Trazado 995723" d="M193.9,158.668a6.04,6.04,0,0,1-10.61,3.854,7.283,7.283,0,0,0,8.137-8.819,6.113,6.113,0,0,1,2.473,4.965" transform="translate(-183.285 -153.703)" fill="#ffd384"/>
                </g>
              </g>
            </g>
            <path id="Trazado_995724" data-name="Trazado 995724" d="M211.6,324.557q0-15.712,0-31.424c0-1.928,0-1.933,1.871-1.955.887-.011,60.034.049,60.917-.01,1.028-.069,1.453.317,1.412,1.372-.058,1.462-.014,2.928-.013,4.393q.022,29.826.065,59.652c0,.908-.291,1.173-1.138,1.143-1.24-.044-60.741-.051-61.98,0-.916.04-1.2-.254-1.2-1.218.038-10.651.024-21.3.024-31.956Zm63.342-32.471H212.473v64.7H274.94Z" transform="translate(-14.135 -19.456)"/>
            <rect id="Rectángulo_413117" data-name="Rectángulo 413117" width="62.471" height="64.698" transform="translate(198.333 272.631)" fill="#f2f2f2"/>
            <g id="Grupo_1163264" data-name="Grupo 1163264" transform="translate(198.332 272.631)" opacity="0.35" style="mix-blend-mode: multiply;isolation: isolate">
              <g id="Grupo_1163263" data-name="Grupo 1163263">
                <g id="Grupo_1163262" data-name="Grupo 1163262" clip-path="url(#clip-path-29)">
                  <path id="Trazado_995725" data-name="Trazado 995725" d="M275.006,292.153v64.7H212.535v-5.568c.788-.244,1.342-1.175,1.741-2.407.022-.222,58.334-.411,58.423-.577a35.294,35.294,0,0,0,.788-7.875,1.538,1.538,0,0,1,.211-.81V292.153Z" transform="translate(-212.534 -292.153)" fill="#c1c1c1"/>
                </g>
              </g>
            </g>
            <path id="Trazado_995726" data-name="Trazado 995726" d="M246.576,224.07q-.406-.028-.812-.028h-.205a17.392,17.392,0,0,0-9.994,3.117,17.815,17.815,0,0,0-2.744,2.352.515.515,0,0,0-.056.075,17.478,17.478,0,0,0,8.744,28.929h.019a16.74,16.74,0,0,0,3.947.467c.177,0,.364,0,.541-.009a17.513,17.513,0,0,0,15.827-11.245c.149-.392.289-.784.411-1.185a17.48,17.48,0,0,0-15.677-22.471m14.884,21.78a6.713,6.713,0,0,1-.345.887c-2.324-.821-4.666-1.642-7.083-2.5a9.173,9.173,0,0,0-2.874-9.677c.289-.215.579-.439.859-.653a.129.129,0,0,0,.037-.028c1.736-1.316,3.453-2.6,5.2-3.929.121.1.233.205.345.317,3.77,3.527,5.524,10.76,3.863,15.584m-7.923-4.274a8.017,8.017,0,1,1-7.895-8.081,8.083,8.083,0,0,1,7.895,8.081m-23.413,6.075a16.6,16.6,0,0,1,6.784-20.3,16.322,16.322,0,0,1,8.268-2.408,15.862,15.862,0,0,1,11.347,4.311l.168.168c-1.941,1.456-3.854,2.94-5.832,4.311-.28.2-.971-.019-1.39-.215a8.9,8.9,0,1,0-5.45,16.741c.327.056.644.14.989.215V257.9c-4.629.439-12-3.014-14.884-10.246m22.564,8.725c-.009.019-.009.019-.019.009a14.94,14.94,0,0,1-6.691,1.633v-7.5c4.993-1.428,5.216-1.586,7.82-5.45q3.485,1.246,6.989,2.492a1.486,1.486,0,0,1-.047.2c-.793,3.369-4.143,6.7-8.053,8.623" transform="translate(-15.239 -14.971)"/>
            <path id="Trazado_995727" data-name="Trazado 995727" d="M256.755,229.491c-1.941,1.456-3.854,2.94-5.832,4.311-.28.2-.971-.019-1.39-.215a8.9,8.9,0,1,0-5.45,16.741c.327.056.644.14.989.215v7.419c-4.629.439-12-3.014-14.884-10.246a16.6,16.6,0,0,1,6.784-20.3,16.323,16.323,0,0,1,8.268-2.408h.009a15.879,15.879,0,0,1,11.338,4.311Z" transform="translate(-15.303 -15.035)" fill="#e3bffe"/>
            <path id="Trazado_995728" data-name="Trazado 995728" d="M254.215,242.252a8.02,8.02,0,1,1-7.895-8.085,8.08,8.08,0,0,1,7.895,8.085" transform="translate(-15.915 -15.647)" fill="#f2f2f2"/>
            <path id="Trazado_995729" data-name="Trazado 995729" d="M262.072,249.064a1.5,1.5,0,0,1-.047.2c-.793,3.369-4.143,6.7-8.053,8.623a.033.033,0,0,0-.019.009,14.94,14.94,0,0,1-6.691,1.633v-7.5c4.993-1.428,5.216-1.586,7.82-5.45q3.485,1.246,6.99,2.492" transform="translate(-16.522 -16.476)" fill="#3ad1e9"/>
            <path id="Trazado_995730" data-name="Trazado 995730" d="M263.114,246.272a6.712,6.712,0,0,1-.345.887c-2.324-.821-4.666-1.642-7.083-2.5a9.173,9.173,0,0,0-2.874-9.677c.289-.215.579-.439.859-.653a.129.129,0,0,0,.037-.028h.009c1.736-1.316,3.443-2.613,5.189-3.929.121.1.233.205.345.317,3.77,3.527,5.524,10.76,3.863,15.584" transform="translate(-16.893 -15.394)" fill="#a0f0cb"/>
            <g id="Grupo_1163267" data-name="Grupo 1163267" transform="translate(213.706 209.976)" opacity="0.35" style="mix-blend-mode: multiply;isolation: isolate">
              <g id="Grupo_1163266" data-name="Grupo 1163266">
                <g id="Grupo_1163265" data-name="Grupo 1163265" clip-path="url(#clip-path-30)">
                  <path id="Trazado_995731" data-name="Trazado 995731" d="M249.532,233.588c.42.2,1.111.411,1.39.215,1.978-1.372,3.891-2.856,5.832-4.311l-.168-.168a10.584,10.584,0,0,0-2.5,1.764,7.337,7.337,0,0,1-2.51,1.474,3.326,3.326,0,0,1-1.269.084,10,10,0,0,0-12.514,1.95,10.2,10.2,0,0,0,1.941,15.295,10.047,10.047,0,0,0,3.817,1.512,8.4,8.4,0,0,1,.485,5.291,16.808,16.808,0,0,1-11.282-9.509,14.971,14.971,0,0,1-.607-11.973,16.957,16.957,0,0,1,.775-1.54,12.369,12.369,0,0,1,1.932-2.482c2.912-2.9,6.831-4.265,10.386-6.178a16.323,16.323,0,0,0-8.268,2.408,16.6,16.6,0,0,0-6.784,20.3c2.883,7.232,10.256,10.685,14.884,10.246v-7.419c-.345-.075-.663-.159-.989-.215a8.9,8.9,0,1,1,5.45-16.741" transform="translate(-229.009 -225.012)" fill="#ff8e84"/>
                </g>
              </g>
            </g>
            <g id="Grupo_1163270" data-name="Grupo 1163270" transform="translate(236.824 214.978)" opacity="0.35" style="mix-blend-mode: multiply;isolation: isolate">
              <g id="Grupo_1163269" data-name="Grupo 1163269">
                <g id="Grupo_1163268" data-name="Grupo 1163268" clip-path="url(#clip-path-31)">
                  <path id="Trazado_995732" data-name="Trazado 995732" d="M253.894,234.282a6.866,6.866,0,0,0,2.585-1.316,18.614,18.614,0,0,0,2.837-2.277c-.112-.112-.224-.215-.345-.317-1.745,1.316-3.453,2.613-5.189,3.929a.4.4,0,0,0,.112-.019" transform="translate(-253.782 -230.372)" fill="#9785ad"/>
                </g>
              </g>
            </g>
            <g id="Grupo_1163273" data-name="Grupo 1163273" transform="translate(235.919 218.934)" opacity="0.35" style="mix-blend-mode: multiply;isolation: isolate">
              <g id="Grupo_1163272" data-name="Grupo 1163272">
                <g id="Grupo_1163271" data-name="Grupo 1163271" clip-path="url(#clip-path-32)">
                  <path id="Trazado_995733" data-name="Trazado 995733" d="M258.579,245.109a3.444,3.444,0,0,1-2.034-2.006,10.756,10.756,0,0,0-1.67-7.148,9.857,9.857,0,0,0-1.2-1.344c-.28.215-.569.439-.859.653a9.174,9.174,0,0,1,2.874,9.677c2.417.859,4.759,1.681,7.083,2.5a6.712,6.712,0,0,0,.345-.887c-1.428-.727-3.061-.831-4.535-1.446" transform="translate(-252.812 -234.611)" fill="#9785ad"/>
                </g>
              </g>
            </g>
            <g id="Grupo_1163276" data-name="Grupo 1163276" transform="translate(230.74 230.096)" opacity="0.5" style="mix-blend-mode: multiply;isolation: isolate">
              <g id="Grupo_1163275" data-name="Grupo 1163275">
                <g id="Grupo_1163274" data-name="Grupo 1163274" clip-path="url(#clip-path-33)">
                  <path id="Trazado_995734" data-name="Trazado 995734" d="M247.262,252.021v7.5a14.94,14.94,0,0,0,6.691-1.633,16.748,16.748,0,0,1-5.338.7c-.28-1.717-.784-3.4-.1-5.1.075-.2.224-.485.345-.8a8.16,8.16,0,0,0,6.234-4.442c2.286-.355,4.675.467,6.934,1.017a1.5,1.5,0,0,0,.047-.2q-3.5-1.246-6.99-2.492c-2.6,3.863-2.828,4.022-7.82,5.45" transform="translate(-247.262 -246.572)" fill="#ffd384"/>
                </g>
              </g>
            </g>
            <path id="Trazado_995735" data-name="Trazado 995735" d="M475.1,137.689h-6.775q-22.876-.018-45.766-.012c-5.935,0-11.87-.012-17.805.012a4.789,4.789,0,0,0-1.4.51,4.584,4.584,0,0,0,.766,1.278c3.637,2.931,7.261,5.85,10.97,8.683a2.5,2.5,0,0,1,1.18,2.262q-.109,12.825-.121,25.675.018,18.189.1,36.364c0,1.788.012,3.588.012,5.376v2.116h60.9v-82.13c-.73-.049-1.387-.133-2.055-.133M476.032,219H417.24v-1.788c0-1.629.012-3.272.012-4.9q.055-19.958.085-39.9.018-11.675-.048-23.351a2.07,2.07,0,0,0-.851-1.265c-3.819-2.907-7.662-5.776-11.505-8.647.085-.146.158-.292.23-.45h70.868Z" transform="translate(-26.952 -9.2)"/>
            <path id="Trazado_995736" data-name="Trazado 995736" d="M405.277,138.771c-.073.159-.147.3-.231.451,3.843,2.87,7.687,5.74,11.505,8.647a2.07,2.07,0,0,1,.851,1.265q.074,11.675.049,23.351-.018,19.958-.086,39.9c0,1.629-.012,3.272-.012,4.9v1.788h58.791V138.771Zm66.611,47.907a5.206,5.206,0,0,1-1.155.049h-7.7q-19.721,0-39.442,0a16.151,16.151,0,0,1-1.861-.194l.073-.621h50.668l.109.292a2.281,2.281,0,0,1-.693.474m-50.144-4.2c.706-.608,21.5-.863,36.243-.681.864,0,1.7.012,2.506.036.487.012.973.024,1.435.024.2,0,.389,0,.572.012.644.012,1.277.036,1.873.049.3,0,.6.012.887.024,1.411.036,2.663.085,3.709.134l.584.036a20.365,20.365,0,0,1,2.542.256.384.384,0,0,1,.121.023.483.483,0,0,1,.218.086Zm50.874-4.768H423.387c-2.165,0-2.214-.024-2.214-2.189q0-12.988.024-25.99c0-1.922.024-1.934,1.982-1.934q23.042.018,46.082.049h1.375c2.018,0,2.2.267,2.2,2.286,0,7.492.073,14.983.073,22.476,0,1.726-.183,3.454-.292,5.3" transform="translate(-27.066 -9.273)" fill="#f2f2f2"/>
            <path id="Trazado_995737" data-name="Trazado 995737" d="M473.992,150.569c0-2.019-.183-2.286-2.2-2.286h-1.375q-23.04-.018-46.081-.049c-1.959,0-1.983.013-1.983,1.934q-.018,13.007-.024,25.99c0,2.165.049,2.189,2.214,2.189h49.232c.11-1.849.292-3.576.292-5.3,0-7.492-.073-14.984-.073-22.476m-1.131-1.29a3.146,3.146,0,0,1-.244.6.093.093,0,0,1-.024.061,3.39,3.39,0,0,1-.705.985c-.024.024-.049.061-.085.073a2.949,2.949,0,0,1-.426.365,2.914,2.914,0,0,1-.462.268,2.461,2.461,0,0,1-.3.158c0,.012,0,.012-.012,0a2.036,2.036,0,0,1-.45.171.715.715,0,0,1-.171.049,4.193,4.193,0,0,1-.559.146,7.533,7.533,0,0,1-.779.109,6.075,6.075,0,0,1-6.056-2.98Zm-17.428-.085c1.167,0,2.347.061,3.5-.012a3.317,3.317,0,0,1,3.272,1.447,7.09,7.09,0,0,0,5.692,2.663,6.619,6.619,0,0,0,.692-.036c.219-.012.426-.049.645-.073.036-.012.073-.012.1-.024a8.131,8.131,0,0,0,1.29-.353,5.16,5.16,0,0,0,.839-.365c.389-.2.754-.413,1.277-.718v3.831c-.68,0-1.374,0-2.055.012-1.058.012-2.129.024-3.187.024-1.557.025-3.1.025-4.645,0-.79-.012-1.594-.036-2.384-.073-4.1-.182-7.369-2.25-10.143-5.169a10.485,10.485,0,0,1-.778-1.155Zm-7.225.049c.207.012.45.316.608.536a16.271,16.271,0,0,0,14.253,6.8c1.411-.036,2.81-.207,4.221-.292,1.022-.061,2.043-.17,3.052-.133.121,0,.231.012.341.012.133.012.256.012.365.024.231.012.438.036.621.061a1.225,1.225,0,0,1,.243.049,1.1,1.1,0,0,1,.207.061.746.746,0,0,1,.146.062.466.466,0,0,1,.207.133.283.283,0,0,1,.085.085,1.114,1.114,0,0,1,.231.524c.012.073.024.158.036.243a12.884,12.884,0,0,1,.049,1.326c0,1.508-.024,3.016-.036,4.524a1.911,1.911,0,0,1-.183.462c-.267-.218-.547-.426-.815-.607a1.191,1.191,0,0,0-.218-.146c-.183-.121-.353-.218-.536-.328a3.677,3.677,0,0,0-.535-.28c-.256-.122-.5-.244-.754-.341a.112.112,0,0,0-.086-.036,6.1,6.1,0,0,0-.608-.219,1.272,1.272,0,0,0-.3-.1c-.219-.073-.45-.134-.681-.2-.268-.061-.535-.121-.8-.17-.292-.049-.572-.1-.864-.121s-.559-.062-.839-.086a33.408,33.408,0,0,0-4.123.012,25.28,25.28,0,0,1-11.809-2.043,16.055,16.055,0,0,1-7.711-7.638,15.765,15.765,0,0,1-.742-2.2c2.481,0,4.731-.012,6.981.024m-24.786,28.034v-6.957a7.526,7.526,0,0,1,7.395,6.957Zm16.857.012a33.725,33.725,0,0,0-3.5.012c-2.883.268-5.205.147-6.081-3.526-.608-2.506-3.138-3.552-5.57-4.209-.524-.146-1.046-.231-1.679-.365v-5.74c6.227-1.581,17.732,5.85,21.223,13.828Zm32.387,0H468.2c-6.677-.012-13.342-.024-20.006.024a3.545,3.545,0,0,1-3.174-1.629c-1.533-2.056-3.126-4.1-4.841-6.021-4.256-4.767-9.717-6.944-16.041-7.175-.2-.012-.377-.036-.79-.073a32.1,32.1,0,0,1,.061-3.588c.036-.328.669-.8,1.082-.851,6.6-.827,12.344.827,16.759,6.044a27.247,27.247,0,0,1,2.214,3.26c4.1,6.7,10.241,8.89,17.732,7.954a49.381,49.381,0,0,0,5.412-1.193c.669-.146,1.3-.377,1.97-.547.207-.048.4-.1.584-.133a5.391,5.391,0,0,1,.559-.11,8.9,8.9,0,0,1,.961-.146c.863-.073,1.423.061,1.752.486.462.6.462,1.764.23,3.7m.207-5.57c-1.01.219-2.019.438-3,.669-.183.036-.353.085-.536.121-1.52.353-3.028.693-4.524,1-.559.121-1.107.231-1.666.328-.681.133-1.375.256-2.056.353-7.346,1.082-13.269-1.314-17.039-7.942-3.247-5.728-8.246-8.635-14.594-9.4a52.809,52.809,0,0,0-6.069-.036v-7.492h16.881c2.347,8.283,9,11.883,16.467,12.649,2.639.28,5.34.036,8,.1.621.012,1.24.049,1.849.121.061.012.121.012.182.024.171.024.353.049.524.086.146.024.28.049.426.085a.359.359,0,0,1,.121.024,8.672,8.672,0,0,1,1.326.389,5.643,5.643,0,0,1,.633.268c.012,0,.024.012.036.024a4.231,4.231,0,0,1,.657.353,6.8,6.8,0,0,1,1.264.985,4.109,4.109,0,0,1,1.07,2.36c.158,1.726.049,3.478.049,4.937" transform="translate(-28.22 -9.905)"/>
            <path id="Trazado_995738" data-name="Trazado 995738" d="M423,189.292h50.667c.037.1.074.2.11.293-.229.163-.439.412-.692.471a5.169,5.169,0,0,1-1.162.045q-23.566.008-47.132.006a17.556,17.556,0,0,1-1.865-.193q.036-.311.075-.621" transform="translate(-28.26 -12.649)"/>
            <path id="Trazado_995739" data-name="Trazado 995739" d="M473.632,185.56H422.937c1.081-.928,49.485-1.042,50.695,0" transform="translate(-28.261 -12.35)"/>
            <path id="Trazado_995740" data-name="Trazado 995740" d="M423.464,156.887v-7.5h16.878c2.349,8.28,9,11.886,16.465,12.653,2.645.272,5.34.032,8.01.1,2.572.063,5.089.491,7.016,2.362a4.038,4.038,0,0,1,1.061,2.357c.16,1.727.049,3.481.049,4.934-4.043.863-7.878,1.893-11.779,2.469-7.34,1.082-13.274-1.306-17.033-7.938-3.249-5.732-8.246-8.636-14.6-9.4a52.138,52.138,0,0,0-6.067-.036" transform="translate(-28.296 -9.982)" fill="#15da7e"/>
            <path id="Trazado_995741" data-name="Trazado 995741" d="M472.734,177.975h-1.546c-7.641,0-15.282-.036-22.922.018a3.555,3.555,0,0,1-3.171-1.622c-1.537-2.063-3.123-4.1-4.836-6.021-4.262-4.771-9.728-6.953-16.048-7.182-.189-.007-.377-.033-.785-.071a32.333,32.333,0,0,1,.051-3.589c.038-.329.678-.8,1.086-.849,6.6-.831,12.347.821,16.761,6.04a25.969,25.969,0,0,1,2.206,3.26c4.1,6.7,10.244,8.9,17.743,7.964a52.956,52.956,0,0,0,5.408-1.192c.663-.155,1.306-.389,1.967-.552,3.969-.977,4.606-.414,4.085,3.8" transform="translate(-28.292 -10.588)" fill="#15da7e"/>
            <path id="Trazado_995742" data-name="Trazado 995742" d="M474,163.793c-3.352-2.791-7.232-2.817-11.157-2.625a25.222,25.222,0,0,1-11.808-2.037,16.112,16.112,0,0,1-7.719-7.638,15.9,15.9,0,0,1-.737-2.2c2.477,0,4.73-.015,6.983.023.207,0,.447.314.608.529a16.281,16.281,0,0,0,14.253,6.8c1.408-.036,2.812-.2,4.219-.294,1.017-.065,2.04-.173,3.055-.136,2.416.088,2.526.228,2.523,2.583,0,1.507-.017,3.013-.033,4.52a2.29,2.29,0,0,1-.187.471" transform="translate(-29.574 -9.976)" fill="#15da7e"/>
            <path id="Trazado_995743" data-name="Trazado 995743" d="M444.751,178.358h-4.4c-1.166,0-2.342-.094-3.5.015-2.885.272-5.2.153-6.084-3.524-.6-2.5-3.135-3.554-5.569-4.214-.514-.139-1.042-.228-1.673-.363v-5.741c6.227-1.576,17.733,5.851,21.222,13.827" transform="translate(-28.301 -10.98)" fill="#15da7e"/>
            <path id="Trazado_995744" data-name="Trazado 995744" d="M451.491,149.262h5.9c1.166,0,2.336.057,3.5-.017a3.316,3.316,0,0,1,3.273,1.449,7.517,7.517,0,0,0,9.259,1.813c.379-.2.746-.415,1.276-.713v3.829c-4.1,0-8.2.14-12.28-.04s-7.366-2.249-10.134-5.161a10.225,10.225,0,0,1-.787-1.16" transform="translate(-30.169 -9.972)" fill="#15da7e"/>
            <path id="Trazado_995745" data-name="Trazado 995745" d="M423.5,178.858V171.9a7.527,7.527,0,0,1,7.39,6.96H423.5Z" transform="translate(-28.299 -11.486)" fill="#15da7e"/>
            <path id="Trazado_995746" data-name="Trazado 995746" d="M475.742,149.352c-.551,1.791-2.07,2.809-4.214,2.978a6.056,6.056,0,0,1-6.058-2.978Z" transform="translate(-31.103 -9.98)" fill="#15da7e"/>
            <g id="Grupo_1163279" data-name="Grupo 1163279" transform="translate(390.288 129.499)" opacity="0.5" style="mix-blend-mode: multiply;isolation: isolate">
              <g id="Grupo_1163278" data-name="Grupo 1163278">
                <g id="Grupo_1163277" data-name="Grupo 1163277" clip-path="url(#clip-path-34)">
                  <path id="Trazado_995747" data-name="Trazado 995747" d="M477.026,138.772v80.306H418.235v-1.787c0-1.63.012-3.272.012-4.9,16.7-2.48,33.774-7.236,43.5-22.013.79-1.193,1.508-2.409,2.165-3.649.146-.268.291-.536.426-.815.571-1.131,1.107-2.274,1.581-3.43.073-.182.146-.365.219-.535.559-1.4,1.045-2.8,1.472-4.232.109-.353.218-.706.315-1.058.365-1.3.681-2.6.961-3.929.061-.28.109-.572.17-.851a72.536,72.536,0,0,0,1.156-9.073c.024-.353.036-.718.061-1.082.109-2.055.158-4.123.133-6.19a4.884,4.884,0,0,0,0-.6c0-.925-.024-1.824-.061-2.749v-.012c0-.341-.012-.68-.024-1.022-.036-.827-.085-1.666-.121-2.5-.025-.328-.049-.669-.061-1-.183-2.98-.451-5.947-.731-8.878Z" transform="translate(-418.235 -138.772)" fill="#a0f0cb"/>
                </g>
              </g>
            </g>
            <path id="Trazado_995748" data-name="Trazado 995748" d="M167.292,225.813c1.62,1.419,3.3,2.772,4.848,4.269,15.321,14.859,21.621,32.932,19.021,54.074a57.873,57.873,0,0,1-7.308,21.571,6.054,6.054,0,0,0-.32.818l-4.217,6.341c-1.42,1.62-2.779,3.3-4.271,4.852-13.616,14.161-30.278,20.588-49.855,19.484a57.53,57.53,0,0,1-16.241-3.419c-.729-.261-1.129-.222-1.537.48-4.7,8.056-9.441,16.083-14.12,24.149-4.809,8.288-8.99,16.944-14.559,24.784a28.756,28.756,0,0,1-6.03,6.56,11.958,11.958,0,0,1-6.814,2.549,19.324,19.324,0,0,1-13.027-3.819,12.565,12.565,0,0,0-1.134-.709,19.467,19.467,0,0,1-8.1-10.242c-1.454-3.924-.576-7.645,1.148-11.249,2.463-5.152,5.879-9.693,9.32-14.2,5.184-6.786,10.537-13.442,15.727-20.224,3.921-5.125,7.688-10.368,11.555-15.534a1.561,1.561,0,0,0-.055-2.264Q59.244,284.735,72.892,250.6c.829-2.067,2-4,3.009-5.992a1.829,1.829,0,0,0,.1-.428l4.217-6.34c1.42-1.62,2.779-3.3,4.27-4.851,13.648-14.194,30.353-20.652,49.967-19.464a59.006,59.006,0,0,1,25.681,7.757,5.878,5.878,0,0,0,.815.317l6.34,4.217m13.414,83.367a61.142,61.142,0,1,0-84.778,17.1,61.118,61.118,0,0,0,84.778-17.1M53.607,354.5l29.656,19.723,23.671-41.149A62.408,62.408,0,0,1,82.9,316.046L53.607,354.5m-5.594,7.514c-1.069,2.162-2.059,4.193-3.079,6.208-.4.793-.164,1.236.565,1.708q6.853,4.446,13.65,8.975c4.379,2.912,8.731,5.867,13.112,8.776.315.209.963.413,1.141.258a23.485,23.485,0,0,0,4.881-5.8L48.013,362.01m34.922,13.028-1.2-.8q-11.041-7.331-22.081-14.662c-1.988-1.32-3.952-2.675-5.963-3.96-.262-.168-.949-.159-1.079.024-1.325,1.875-2.576,3.8-3.86,5.732l30,19.953c1.409-2.12,2.763-4.155,4.182-6.289m-38.576-4.968a10.611,10.611,0,0,0-.01,6.651,3.436,3.436,0,0,0,1.192,1.636c6.249,4.214,12.534,8.375,18.813,12.544a2.158,2.158,0,0,0,.982.5,10.6,10.6,0,0,0,7.111-2.653L44.359,370.069m1.009,9.132c2.8,6.878,12.717,12.645,18.114,12.046L45.368,379.2" transform="translate(-2.867 -14.259)"/>
            <path id="Trazado_995749" data-name="Trazado 995749" d="M184.237,244.269a61.15,61.15,0,1,0-1.688,64.972,60.924,60.924,0,0,0,1.688-64.972m-13.276,47.361c-.053.136-.116.264-.169.4a42.656,42.656,0,0,1-9.125,13.52,1.469,1.469,0,0,0-.119.123c-.274.279-.549.549-.833.81a42.57,42.57,0,1,1,10.246-14.853M132.619,321.5c2.509.083,5.03-.229,7.548-.361-2.166,1.393-12.777,1.481-15.3-.541,2.73.334,5.231.821,7.752.9m32.5-12.377c-5.352,5.592-15.842,11.263-20.266,10.76,13.856-3.757,23.334-12.623,29.7-25.284.273,2.2-4.31,9.2-9.433,14.523" transform="translate(-4.707 -14.317)" fill="#15da7e"/>
            <path id="Trazado_995750" data-name="Trazado 995750" d="M107.7,340.424c-7.9,13.733-15.77,27.4-23.674,41.149q-3.568-2.364-7.138-4.747-11.232-7.466-22.524-14.981,13.107-17.188,26.12-34.274,1.59-2.076,3.179-4.169A62.515,62.515,0,0,0,107.7,340.424" transform="translate(-3.633 -21.61)" fill="#15da7e"/>
            <path id="Trazado_995751" data-name="Trazado 995751" d="M78.413,392.783a23.325,23.325,0,0,1-4.883,5.791c-.173.157-.819-.045-1.139-.258-4.378-2.907-8.733-5.862-13.111-8.769-.719-.476-1.44-.962-2.169-1.437Q51.4,384.3,45.633,380.564c-.728-.466-.967-.913-.563-1.7,1.02-2.018,2-4.049,3.072-6.212,6.488,4.311,12.856,8.55,19.2,12.772q5.532,3.67,11.067,7.359" transform="translate(-2.999 -24.901)" fill="#cab1e6"/>
            <path id="Trazado_995752" data-name="Trazado 995752" d="M83.358,385.216c-1.421,2.13-2.776,4.169-4.19,6.289q-5.234-3.487-10.5-6.99-9.717-6.454-19.5-12.959c1.29-1.939,2.534-3.865,3.867-5.733.122-.189.816-.2,1.075-.026,2.014,1.282,3.978,2.635,5.958,3.959q7.886,5.234,15.763,10.47c2.109,1.4,4.209,2.791,6.319,4.2.369.238.729.485,1.208.8" transform="translate(-3.285 -24.435)" fill="#cab1e6"/>
            <path id="Trazado_995753" data-name="Trazado 995753" d="M72.51,399.972a10.582,10.582,0,0,1-7.109,2.646,2.122,2.122,0,0,1-.985-.5c-6.278-4.172-12.564-8.333-18.808-12.547a3.447,3.447,0,0,1-1.182-1.613c-.01-.008-.01-.008-.011-.018a10.639,10.639,0,0,1,.012-6.655q5.684,3.782,11.318,7.532c5.588,3.712,11.156,7.416,16.765,11.154" transform="translate(-2.933 -25.478)" fill="#cab1e6"/>
            <path id="Trazado_995754" data-name="Trazado 995754" d="M45.545,391.075l18.114,12.046c-5.4.6-15.314-5.168-18.114-12.046" transform="translate(-3.043 -26.132)" fill="#cab1e6"/>
            <path id="Trazado_995755" data-name="Trazado 995755" d="M156.426,241.269a42.555,42.555,0,1,0,5.621,66.545c.285-.261.559-.531.833-.81a1.469,1.469,0,0,1,.119-.123,42.655,42.655,0,0,0,9.125-13.52c.053-.136.116-.264.169-.4a42.591,42.591,0,0,0-15.867-51.692m11.18,58.58a41.654,41.654,0,1,1-11.662-57.823,41.716,41.716,0,0,1,11.662,57.823" transform="translate(-6.04 -15.649)"/>
            <path id="Trazado_995756" data-name="Trazado 995756" d="M150.18,325.638c13.851-3.753,23.334-12.626,29.694-25.28.276,2.195-4.312,9.19-9.427,14.522-5.357,5.585-15.846,11.262-20.267,10.758" transform="translate(-10.035 -20.07)"/>
            <path id="Trazado_995757" data-name="Trazado 995757" d="M128.766,328.21c2.727.337,5.23.82,7.746.906s5.037-.227,7.55-.365c-2.164,1.391-12.773,1.482-15.3-.541" transform="translate(-8.604 -21.931)"/>
            <path id="Trazado_995758" data-name="Trazado 995758" d="M156.009,242.092a41.657,41.657,0,1,0,11.663,57.823,41.714,41.714,0,0,0-11.663-57.823m9.4,56.423a39,39,0,1,1-13.458-55.789c.9.488,1.784,1.033,2.654,1.616a38.942,38.942,0,0,1,10.8,54.173" transform="translate(-6.105 -15.714)" fill="#cab1e6"/>
            <path id="Trazado_995759" data-name="Trazado 995759" d="M154.8,244.53c-.871-.584-1.755-1.129-2.654-1.616a39,39,0,1,0,2.654,1.616m10.1,53.63a38.1,38.1,0,0,1-69.706-18.47v-.009a38.1,38.1,0,0,1,59.108-34.4c.48.321.942.652,1.405.993l.01.008a38.071,38.071,0,0,1,9.182,51.879" transform="translate(-6.293 -15.902)"/>
            <g id="Grupo_1163282" data-name="Grupo 1163282" transform="translate(88.795 222.984)" style="mix-blend-mode: multiply;isolation: isolate">
              <g id="Grupo_1163281" data-name="Grupo 1163281">
                <g id="Grupo_1163280" data-name="Grupo 1163280" clip-path="url(#clip-path-35)">
                  <path id="Trazado_995760" data-name="Trazado 995760" d="M155.776,246.346l-.01-.008c-.463-.341-.925-.673-1.405-.993a38.1,38.1,0,0,0-59.108,34.4v.009a38.1,38.1,0,1,0,60.523-33.408m-37.678-.493a33.558,33.558,0,0,1,4.336-3.031,18.99,18.99,0,0,1,13.076-1.285,6.072,6.072,0,0,1,2.858,1.794,3.452,3.452,0,0,1-1.55,5.751,13.681,13.681,0,0,1-2.74.463c-3.091.422-6.18.872-9.279,1.209a15.9,15.9,0,0,1-4.727.162c-2.653-.5-3.317-2.585-1.791-4.79a2.858,2.858,0,0,0-.185-.273" transform="translate(-95.153 -238.951)" fill="#cab1e6"/>
                </g>
              </g>
            </g>
            <path id="Trazado_995761" data-name="Trazado 995761" d="M139.968,243.473a6.063,6.063,0,0,0-2.858-1.794,18.992,18.992,0,0,0-13.077,1.284A33.621,33.621,0,0,0,119.7,246a2.843,2.843,0,0,1,.185.272c-1.527,2.206-.863,4.29,1.79,4.79a15.843,15.843,0,0,0,4.727-.162c3.1-.338,6.187-.787,9.278-1.208a13.639,13.639,0,0,0,2.741-.464,3.451,3.451,0,0,0,1.55-5.75" transform="translate(-7.957 -16.109)" fill="#dbcffd"/>
            <g id="Grupo_1163285" data-name="Grupo 1163285" transform="translate(41.494 362.481)" opacity="0.5" style="mix-blend-mode: multiply;isolation: isolate">
              <g id="Grupo_1163284" data-name="Grupo 1163284">
                <g id="Grupo_1163283" data-name="Grupo 1163283" clip-path="url(#clip-path-36)">
                  <path id="Trazado_995762" data-name="Trazado 995762" d="M55.784,389.3c5.588,3.712,11.156,7.416,16.765,11.154a10.581,10.581,0,0,1-7.109,2.645,2.133,2.133,0,0,1-.984-.5c-6.278-4.172-12.564-8.334-18.808-12.547a3.451,3.451,0,0,1-1.182-1.613,35.71,35.71,0,0,0,11.319.859" transform="translate(-44.465 -388.437)" fill="#cab1e6"/>
                </g>
              </g>
            </g>
            <g id="Grupo_1163288" data-name="Grupo 1163288" transform="translate(54.112 360.523)" opacity="0.5" style="mix-blend-mode: multiply;isolation: isolate">
              <g id="Grupo_1163287" data-name="Grupo 1163287">
                <g id="Grupo_1163286" data-name="Grupo 1163286" clip-path="url(#clip-path-37)">
                  <path id="Trazado_995763" data-name="Trazado 995763" d="M68.223,386.339q5.532,3.67,11.067,7.359a23.342,23.342,0,0,1-4.883,5.791c-.173.157-.819-.045-1.139-.258-4.378-2.907-8.733-5.863-13.111-8.77-.719-.476-1.44-.961-2.169-1.436a38.167,38.167,0,0,0,10.236-2.686" transform="translate(-57.987 -386.339)" fill="#cab1e6"/>
                </g>
              </g>
            </g>
            <g id="Grupo_1163291" data-name="Grupo 1163291" transform="translate(65.384 355.788)" opacity="0.5" style="mix-blend-mode: multiply;isolation: isolate">
              <g id="Grupo_1163290" data-name="Grupo 1163290">
                <g id="Grupo_1163289" data-name="Grupo 1163289" clip-path="url(#clip-path-38)">
                  <path id="Trazado_995764" data-name="Trazado 995764" d="M83.545,385.461c.37.237.73.484,1.208.8-1.421,2.13-2.776,4.169-4.189,6.289q-5.235-3.488-10.5-6.99a36.98,36.98,0,0,0,7.161-4.291c2.109,1.4,4.208,2.792,6.318,4.2" transform="translate(-70.066 -381.265)" fill="#cab1e6"/>
                </g>
              </g>
            </g>
            <g id="Grupo_1163294" data-name="Grupo 1163294" transform="translate(73.26 301.791)" opacity="0.5" style="mix-blend-mode: multiply;isolation: isolate">
              <g id="Grupo_1163293" data-name="Grupo 1163293">
                <g id="Grupo_1163292" data-name="Grupo 1163292" clip-path="url(#clip-path-39)">
                  <path id="Trazado_995765" data-name="Trazado 995765" d="M109.318,340.424c-7.9,13.733-15.77,27.4-23.674,41.149q-3.568-2.364-7.138-4.747a33.3,33.3,0,0,0,6.273-6.663c8.45-11.929,7.859-28.294.189-40.311-.97-.753-1.922-1.516-2.866-2.281q1.59-2.076,3.179-4.169a62.515,62.515,0,0,0,24.037,17.023" transform="translate(-78.506 -323.401)" fill="#ffd384"/>
                </g>
              </g>
            </g>
            <g id="Grupo_1163297" data-name="Grupo 1163297" transform="translate(68.524 229.951)" opacity="0.5" style="mix-blend-mode: multiply;isolation: isolate">
              <g id="Grupo_1163296" data-name="Grupo 1163296">
                <g id="Grupo_1163295" data-name="Grupo 1163295" clip-path="url(#clip-path-40)">
                  <path id="Trazado_995766" data-name="Trazado 995766" d="M182.749,311.389a61.159,61.159,0,0,1-109.318-15.6,3.125,3.125,0,0,1,1.876,1.811c5.713,13.428,16.97,23.61,30.437,28.991,25.515,10.2,53.784-.674,69.489-22.375,12.2-16.845,14.559-38.3,9.2-57.795a61.127,61.127,0,0,1-1.688,64.972" transform="translate(-73.43 -246.417)" fill="#ffd384"/>
                </g>
              </g>
            </g>
            <g id="Grupo_1163300" data-name="Grupo 1163300" transform="translate(81.108 214.275)" opacity="0.5" style="mix-blend-mode: multiply;isolation: isolate">
              <g id="Grupo_1163299" data-name="Grupo 1163299">
                <g id="Grupo_1163298" data-name="Grupo 1163298" clip-path="url(#clip-path-41)">
                  <path id="Trazado_995767" data-name="Trazado 995767" d="M175.115,269.78a48.14,48.14,0,0,0-9.377-22.3,37.77,37.77,0,0,0-20.624-15.909c-16.577-5.248-35.8.371-47.33,13.3-13.517,15.16-14.24,38.6-3.207,55.283a2.821,2.821,0,0,0,3.066,1.315c9.585,13.543,27.063,21.106,43.7,17.238a43.823,43.823,0,0,0,20.468-11.2c.285-.26.559-.53.833-.809a1.634,1.634,0,0,1,.119-.124,45.509,45.509,0,0,0,9.125-13.519c.053-.136.116-.264.169-.4a42.636,42.636,0,0,0,3.054-22.875m-41.494,27.553c-12.884,4.621-28.637.964-35.765-10.467-.013-.036-.025-.063-.037-.1a4.086,4.086,0,0,0-.555-.923,24.487,24.487,0,0,1-2.477-6.4c-.029-.109-.057-.21-.085-.311v-.009a2.566,2.566,0,0,0-.98-1.351,2.029,2.029,0,0,0-.179-.114,39.541,39.541,0,0,1,4.947-22.678c7.227-12.676,22.558-19.992,36.952-18.72a35.579,35.579,0,0,1,16.081,5.651,3.943,3.943,0,0,0,.135.446,3.113,3.113,0,0,0,1.028,1.272c.878.667,1.721,1.357,2.53,2.087l.01.008a40.175,40.175,0,0,1,6.3,7.16,21.391,21.391,0,0,1,2.19,9.852c-.32,15.561-16.48,29.722-30.09,34.6" transform="translate(-86.916 -229.618)" fill="#e2e2e2"/>
                </g>
              </g>
            </g>
            <path id="Trazado_995768" data-name="Trazado 995768" d="M208.958,326.3c-1.617.564-3.227,1.15-4.853,1.683-.967.316-1.955.57-2.945.806a.822.822,0,0,0-.719.778q-1.232,7.192-2.511,14.376c-.129.729-.3,1.448-.457,2.172l-.373.016a9.65,9.65,0,0,1-.367-1.2c-.8-4.6-1.586-9.2-2.385-13.8-.382-2.2-.4-2.178-2.507-2.769-1.8-.5-3.587-1.033-5.361-1.61-.348-.113-.608-.495-.91-.752a3.475,3.475,0,0,1,.905-.676q3.361-1.044,6.751-2a.966.966,0,0,0,.831-.876c.865-5.074,1.761-10.143,2.658-15.212.076-.426.218-.839.33-1.257l.331-.026a10.37,10.37,0,0,1,.385,1.265c.747,4.291,1.47,8.587,2.219,12.878.174,1,.127,2.257.719,2.9s1.863.649,2.833.943c1.515.459,3.032.914,4.541,1.393a5.887,5.887,0,0,1,.884.451Zm-22.279-.38c0,.071,0,.141.007.212.315.112.627.237.947.333,2.031.608,4.057,1.229,6.1,1.8a1.05,1.05,0,0,1,.88.96c.583,3.485,1.2,6.965,1.806,10.447.255,1.476.491,2.956.735,4.434a.734.734,0,0,0,.264-.5c.822-4.794,1.651-9.586,2.453-14.381a1.032,1.032,0,0,1,.878-.962c1.369-.347,2.729-.739,4.082-1.147,1.005-.3,2-.66,3.23-1.072-.575-.2-.887-.328-1.207-.424-2.031-.608-4.057-1.231-6.1-1.8a1.045,1.045,0,0,1-.882-.957c-.584-3.485-1.206-6.964-1.808-10.447-.255-1.476-.491-2.956-.735-4.434a.732.732,0,0,0-.263.494q-1.1,6.524-2.2,13.049c-.352,2.074-.359,2.076-2.353,2.65-.571.164-1.152.291-1.719.464-1.376.418-2.744.852-4.116,1.279" transform="translate(-12.4 -20.445)"/>
            <path id="Trazado_995769" data-name="Trazado 995769" d="M208.14,326.2c-1.238.411-2.222.764-3.233,1.068-1.351.411-2.71.8-4.082,1.146a1.04,1.04,0,0,0-.877.962c-.8,4.8-1.627,9.587-2.449,14.383a.74.74,0,0,1-.269.5c-.241-1.478-.481-2.957-.735-4.436-.411-2.363-.821-4.718-1.224-7.082-.2-1.118-.389-2.242-.58-3.36a1.045,1.045,0,0,0-.877-.962c-2.045-.573-4.068-1.2-6.1-1.8-.326-.092-.636-.219-.948-.333,0-.07-.007-.141-.007-.212,1.372-.425,2.738-.863,4.117-1.28.566-.17,1.146-.3,1.719-.46,2-.573,2-.573,2.349-2.653.744-4.344,1.465-8.7,2.2-13.047a.744.744,0,0,1,.262-.495c.247,1.478.481,2.957.735,4.435.078.468.163.934.248,1.4.524,3.013,1.054,6.027,1.563,9.042a1.048,1.048,0,0,0,.877.962c2.045.573,4.068,1.2,6.1,1.8.326.092.637.219,1.21.425" transform="translate(-12.48 -20.589)" fill="#a530fe"/>
            <g id="Grupo_1163303" data-name="Grupo 1163303" transform="translate(182.791 293.373)" opacity="0.5" style="mix-blend-mode: multiply;isolation: isolate">
              <g id="Grupo_1163302" data-name="Grupo 1163302">
                <g id="Grupo_1163301" data-name="Grupo 1163301" clip-path="url(#clip-path-42)">
                  <path id="Trazado_995770" data-name="Trazado 995770" d="M207.539,326.188c-2.031-.608-4.054-1.231-6.1-1.8a1.047,1.047,0,0,1-.877-.962c-.51-3.014-1.04-6.028-1.564-9.042a70.942,70.942,0,0,1-3.12,18.77q.6,3.544,1.223,7.082c.255,1.479.5,2.957.736,4.436a.742.742,0,0,0,.269-.5c.82-4.8,1.648-9.587,2.448-14.383a1.041,1.041,0,0,1,.877-.962c1.373-.347,2.731-.736,4.083-1.146,1.012-.3,2-.658,3.233-1.069-.574-.205-.885-.333-1.21-.425" transform="translate(-195.88 -314.38)" fill="#ffd384"/>
                </g>
              </g>
            </g>
            <path id="Trazado_995771" data-name="Trazado 995771" d="M62.455,245.79c-1.617.564-3.227,1.15-4.853,1.683-.967.316-1.955.571-2.945.806a.822.822,0,0,0-.719.778q-1.232,7.192-2.511,14.376c-.129.729-.3,1.448-.457,2.172l-.373.015a9.606,9.606,0,0,1-.367-1.2c-.8-4.6-1.586-9.2-2.385-13.8-.382-2.2-.4-2.178-2.507-2.769-1.8-.5-3.587-1.033-5.361-1.61-.348-.113-.608-.495-.909-.752a3.456,3.456,0,0,1,.9-.676q3.361-1.044,6.751-2a.967.967,0,0,0,.832-.876c.864-5.074,1.76-10.143,2.657-15.212.076-.426.219-.839.33-1.257l.332-.026a10.537,10.537,0,0,1,.384,1.265c.747,4.292,1.47,8.587,2.219,12.878.175,1,.127,2.257.719,2.9s1.863.65,2.833.943c1.515.459,3.032.915,4.541,1.393a5.884,5.884,0,0,1,.884.451Zm-22.279-.38c0,.071,0,.141.007.212.315.112.627.238.947.333,2.031.608,4.057,1.229,6.1,1.8a1.05,1.05,0,0,1,.879.96c.583,3.485,1.2,6.965,1.806,10.447.255,1.476.491,2.956.736,4.434a.732.732,0,0,0,.263-.5c.822-4.794,1.652-9.586,2.454-14.381a1.031,1.031,0,0,1,.877-.962c1.369-.347,2.729-.739,4.082-1.147,1.006-.3,2-.66,3.23-1.071-.575-.2-.887-.328-1.207-.425-2.031-.608-4.057-1.231-6.1-1.8a1.046,1.046,0,0,1-.882-.957c-.584-3.486-1.206-6.965-1.808-10.448-.255-1.476-.491-2.956-.735-4.434a.732.732,0,0,0-.263.494q-1.1,6.524-2.2,13.049c-.353,2.074-.36,2.076-2.353,2.65-.57.164-1.152.292-1.719.464-1.376.418-2.744.852-4.116,1.279" transform="translate(-2.611 -15.065)"/>
            <path id="Trazado_995772" data-name="Trazado 995772" d="M61.636,245.687c-1.238.411-2.222.764-3.233,1.068-1.351.411-2.709.8-4.082,1.146a1.042,1.042,0,0,0-.878.962c-.8,4.8-1.627,9.587-2.448,14.383a.74.74,0,0,1-.269.5c-.241-1.478-.481-2.957-.735-4.436-.411-2.363-.821-4.718-1.224-7.082-.2-1.118-.389-2.242-.58-3.36a1.045,1.045,0,0,0-.877-.962c-2.045-.573-4.068-1.2-6.1-1.8-.326-.092-.636-.219-.948-.333,0-.07-.007-.141-.007-.212,1.372-.425,2.738-.863,4.117-1.28.566-.17,1.146-.3,1.719-.46,2-.573,2-.573,2.349-2.653.743-4.344,1.465-8.7,2.2-13.046a.745.745,0,0,1,.262-.5c.247,1.478.481,2.957.735,4.435.078.467.163.934.248,1.4.524,3.013,1.054,6.027,1.563,9.042a1.047,1.047,0,0,0,.877.962c2.045.573,4.069,1.2,6.1,1.8.326.092.637.219,1.21.425" transform="translate(-2.69 -15.21)" fill="#a530fe"/>
            <g id="Grupo_1163306" data-name="Grupo 1163306" transform="translate(46.077 218.244)" opacity="0.5" style="mix-blend-mode: multiply;isolation: isolate">
              <g id="Grupo_1163305" data-name="Grupo 1163305">
                <g id="Grupo_1163304" data-name="Grupo 1163304" clip-path="url(#clip-path-42)">
                  <path id="Trazado_995773" data-name="Trazado 995773" d="M61.036,245.68c-2.031-.608-4.054-1.231-6.1-1.8a1.047,1.047,0,0,1-.877-.962c-.51-3.014-1.04-6.028-1.564-9.042a70.941,70.941,0,0,1-3.12,18.77q.6,3.544,1.223,7.082c.255,1.479.5,2.957.736,4.436a.742.742,0,0,0,.269-.5c.82-4.8,1.648-9.587,2.448-14.383a1.04,1.04,0,0,1,.877-.962c1.373-.347,2.731-.736,4.083-1.146,1.012-.3,2-.658,3.233-1.068-.574-.205-.885-.332-1.21-.425" transform="translate(-49.377 -233.872)" fill="#ffd384"/>
                </g>
              </g>
            </g>
            <path id="Trazado_995774" data-name="Trazado 995774" d="M81.061,215.816c-1.221.426-2.435.868-3.663,1.269-.729.239-1.475.431-2.222.608a.621.621,0,0,0-.542.588q-.929,5.427-1.9,10.848c-.1.55-.23,1.093-.345,1.639l-.282.011a7.345,7.345,0,0,1-.277-.9c-.606-3.469-1.2-6.941-1.8-10.411-.288-1.659-.3-1.643-1.892-2.09-1.356-.38-2.707-.779-4.045-1.214-.263-.085-.46-.373-.687-.567a2.6,2.6,0,0,1,.682-.51c1.691-.526,3.391-1.025,5.094-1.507a.73.73,0,0,0,.629-.661c.651-3.83,1.328-7.655,2-11.48.057-.321.165-.633.25-.948l.25-.02a8.068,8.068,0,0,1,.29.955c.564,3.238,1.109,6.48,1.674,9.718.132.753.1,1.7.543,2.186s1.405.491,2.138.712c1.144.346,2.288.69,3.427,1.052a4.4,4.4,0,0,1,.667.34Zm-16.812-.286c0,.053,0,.106,0,.16.238.085.473.179.715.252,1.532.459,3.063.928,4.6,1.359a.791.791,0,0,1,.663.725c.44,2.63.909,5.256,1.363,7.883.192,1.114.37,2.23.555,3.345a.554.554,0,0,0,.2-.374c.621-3.617,1.246-7.233,1.851-10.853a.78.78,0,0,1,.662-.726c1.034-.261,2.06-.557,3.08-.865.76-.229,1.506-.5,2.437-.809-.434-.153-.669-.247-.911-.32-1.532-.459-3.062-.929-4.6-1.36a.79.79,0,0,1-.665-.722c-.44-2.631-.91-5.256-1.364-7.884-.192-1.113-.37-2.23-.554-3.345a.552.552,0,0,0-.2.373q-.829,4.923-1.659,9.846c-.265,1.566-.271,1.567-1.776,2-.43.124-.869.22-1.3.351-1.037.314-2.071.642-3.106.965" transform="translate(-4.237 -13.396)"/>
            <path id="Trazado_995775" data-name="Trazado 995775" d="M80.445,215.737c-.934.31-1.682.577-2.44.806-1.019.31-2.045.6-3.08.865a.784.784,0,0,0-.662.726c-.6,3.62-1.228,7.24-1.852,10.854a.521.521,0,0,1-.2.373c-.181-1.115-.363-2.231-.555-3.342q-.28-1.61-.561-3.219c-.272-1.558-.539-3.107-.8-4.666a.8.8,0,0,0-.662-.726c-1.543-.433-3.07-.9-4.6-1.356-.245-.076-.481-.172-.716-.257,0-.048,0-.1,0-.155,1.036-.326,2.066-.651,3.1-.965.432-.134.87-.231,1.3-.354,1.505-.433,1.511-.433,1.778-2q.833-4.924,1.66-9.85a.576.576,0,0,1,.2-.374c.187,1.116.363,2.232.555,3.347q.273,1.586.555,3.172.409,2.356.812,4.713a.783.783,0,0,0,.662.721c1.543.432,3.07.9,4.6,1.362.24.069.475.165.913.32" transform="translate(-4.297 -13.505)" fill="#a530fe"/>
            <g id="Grupo_1163309" data-name="Grupo 1163309" transform="translate(66.799 195.116)" opacity="0.5" style="mix-blend-mode: multiply;isolation: isolate">
              <g id="Grupo_1163308" data-name="Grupo 1163308">
                <g id="Grupo_1163307" data-name="Grupo 1163307" clip-path="url(#clip-path-44)">
                  <path id="Trazado_995776" data-name="Trazado 995776" d="M80.931,216.2c-.934.31-1.682.577-2.44.806-1.019.31-2.045.6-3.08.865a.784.784,0,0,0-.662.726c-.6,3.62-1.228,7.24-1.852,10.854a.521.521,0,0,1-.2.373c-.181-1.115-.363-2.231-.555-3.342q-.28-1.61-.561-3.219a31.96,31.96,0,0,0,1.047-3.129,37.581,37.581,0,0,0,1.313-11.051q.409,2.356.812,4.713a.783.783,0,0,0,.662.721c1.543.432,3.07.9,4.6,1.361.24.069.475.165.913.32" transform="translate(-71.582 -209.087)" fill="#ffd384"/>
                </g>
              </g>
            </g>
            <path id="Trazado_995777" data-name="Trazado 995777" d="M159.844,97.77c-1.16,0-2.161.007-3.163,0-.966-.009-1.477-.385-1.474-1.476q.052-17.528.033-35.056c0-1.072.461-1.487,1.48-1.469,1.082.02,2.165-.007,3.247-.008q17.582-.031,35.166-.055c6.794,0,13.588.041,20.382.067,1.914.007,2,.092,2,2.048q.02,17.025.029,34.049c0,1.759-.133,1.9-1.93,1.9-12.468.009-24.937.029-37.406-.012a3.708,3.708,0,0,0-3.084,1.4q-4.626,5.325-9.367,10.551a33.9,33.9,0,0,1-2.925,2.768,3.227,3.227,0,0,1-1.364.715c-1.389.3-1.64.06-1.64-1.361q0-6.327.011-12.656V97.77m56.783-37.149h-60.48V96.914H160.7c-.049.568-.12,1.007-.12,1.445q.006,6.495.043,12.989c0,.342.15.967.259.973a1.876,1.876,0,0,0,1.218-.281,27.549,27.549,0,0,0,2.876-2.651c3.06-3.371,6.2-6.681,9.04-10.232a5.826,5.826,0,0,1,5.276-2.339c12.054.138,24.11.071,36.164.075h1.167Z" transform="translate(-10.371 -3.989)"/>
            <path id="Trazado_995778" data-name="Trazado 995778" d="M156.212,60.686V96.977h4.563c-.056.569-.121,1.008-.121,1.446q0,6.495.037,12.99c.009.345.149.971.261.971a1.868,1.868,0,0,0,1.222-.28,28.613,28.613,0,0,0,2.874-2.65c3.061-3.369,6.2-6.682,9.042-10.237a5.807,5.807,0,0,1,5.272-2.333c12.057.14,24.1.075,36.161.075h1.166V60.686ZM201.788,75a3.355,3.355,0,1,1-3.35,3.331A3.362,3.362,0,0,1,201.788,75m-9.8,0a3.356,3.356,0,1,1-3.406,3.275A3.368,3.368,0,0,1,191.99,75m-9.91,0a3.355,3.355,0,1,1-3.35,3.331A3.36,3.36,0,0,1,182.08,75m-9.864,0a3.355,3.355,0,1,1-3.341,3.341A3.36,3.36,0,0,1,172.216,75" transform="translate(-10.438 -4.055)" fill="#f2f2f2"/>
            <path id="Trazado_995779" data-name="Trazado 995779" d="M173.123,76.026a3.355,3.355,0,1,0,3.369,3.3,3.362,3.362,0,0,0-3.369-3.3m-.065,5.814a2.46,2.46,0,1,1,2.538-2.445,2.48,2.48,0,0,1-2.538,2.445" transform="translate(-11.345 -5.08)"/>
            <path id="Trazado_995780" data-name="Trazado 995780" d="M183.692,76.026a3.355,3.355,0,1,0,3.359,3.313,3.362,3.362,0,0,0-3.359-3.313m-.065,5.814a2.46,2.46,0,1,1,2.529-2.445,2.494,2.494,0,0,1-2.529,2.445" transform="translate(-12.051 -5.08)"/>
            <path id="Trazado_995781" data-name="Trazado 995781" d="M194.308,76.026a3.356,3.356,0,1,0,3.313,3.369,3.362,3.362,0,0,0-3.313-3.369m-.14,5.814a2.46,2.46,0,0,1,.075-4.918,2.46,2.46,0,1,1-.075,4.918" transform="translate(-12.756 -5.08)"/>
            <path id="Trazado_995782" data-name="Trazado 995782" d="M204.812,76.026a3.355,3.355,0,1,0,3.369,3.313,3.368,3.368,0,0,0-3.369-3.313m.065,5.814a2.459,2.459,0,1,1,2.408-2.454,2.483,2.483,0,0,1-2.408,2.454" transform="translate(-13.462 -5.08)"/>
            <path id="Trazado_995783" data-name="Trazado 995783" d="M175.66,79.462a2.459,2.459,0,1,1-2.5-2.478,2.483,2.483,0,0,1,2.5,2.478" transform="translate(-11.409 -5.144)" fill="#9782cc"/>
            <path id="Trazado_995784" data-name="Trazado 995784" d="M186.222,79.462a2.459,2.459,0,1,1-2.5-2.478,2.483,2.483,0,0,1,2.5,2.478" transform="translate(-12.115 -5.144)" fill="#9782cc"/>
            <path id="Trazado_995785" data-name="Trazado 995785" d="M196.784,79.484a2.459,2.459,0,1,1-2.473-2.5,2.488,2.488,0,0,1,2.473,2.5" transform="translate(-12.821 -5.144)" fill="#9782cc"/>
            <path id="Trazado_995786" data-name="Trazado 995786" d="M204.836,76.984a2.46,2.46,0,1,1-2.406,2.454,2.478,2.478,0,0,1,2.406-2.454" transform="translate(-13.527 -5.144)" fill="#9782cc"/>
            <g id="Grupo_1163312" data-name="Grupo 1163312" transform="translate(145.774 56.631)" opacity="0.5" style="mix-blend-mode: multiply;isolation: isolate">
              <g id="Grupo_1163311" data-name="Grupo 1163311">
                <g id="Grupo_1163310" data-name="Grupo 1163310" clip-path="url(#clip-path-45)">
                  <path id="Trazado_995787" data-name="Trazado 995787" d="M216.691,60.686V96.959h-1.166c-12.057,0-24.1.065-36.161-.075a5.807,5.807,0,0,0-5.272,2.333c-2.846,3.555-5.982,6.868-9.042,10.237a28.613,28.613,0,0,1-2.874,2.65,1.868,1.868,0,0,1-1.222.28c-.112,0-.252-.625-.261-.971q-.042-6.495-.037-12.99c0-.439.065-.877.121-1.446h-4.563V93.011c3-.653,6.719.308,9.537.485,4.853.3,9.724.355,14.586.168,8.987-.336,21.864-.047,28.425-7.241,6.336-6.952,6.14-16.835,5.45-25.737Z" transform="translate(-156.212 -60.686)" fill="#e2e2e2"/>
                </g>
              </g>
            </g>
          </g>
        </g>
        <g id="Grupo_1163483" data-name="Grupo 1163483" transform="translate(0)">
          <g id="Grupo_1163482" data-name="Grupo 1163482" clip-path="url(#clip-path-2)">
            <path id="Trazado_995910" data-name="Trazado 995910" d="M44.367,174.168c-3.014-.067-6.028-.177-9.043-.193-4.27-.022-3.492.014-3.5-3.546q-.049-26.495-.016-52.992c0-2.575.011-2.591,2.66-2.592q29.706-.013,59.411-.012c2,0,4-.017,6,.018,1.971.034,2.047.126,2.05,2.061q.013,9.135,0,18.27c0,.805.055,1.31,1.052,1.585,8.33,2.295,16.64,4.668,24.949,7.038.246.07.43.359.643.546a2.856,2.856,0,0,1-.719.485c-8.311,2.366-16.62,4.738-24.949,7.036-.952.262-.979.764-.978,1.5q.008,9.343-.01,18.688c0,1.748-.129,1.884-1.91,1.9-2.743.021-5.485-.007-8.228.02-.831.007-1.66.122-2.491.189Zm81.615-29.65-.008-.4c-2.224-.641-4.442-1.3-6.672-1.92-5.643-1.562-11.277-3.166-16.952-4.6-1.108-.28-1.412-.607-1.4-1.683.049-6.138.033-12.275.039-18.413v-1.547H32.839v56.927h68.154v-1.483q-.01-9.276-.026-18.553c0-.779-.009-1.368,1.02-1.631,4.1-1.05,8.165-2.2,12.238-3.344,3.924-1.1,7.84-2.229,11.758-3.346" transform="translate(-2.123 -7.673)"/>
            <path id="Trazado_995911" data-name="Trazado 995911" d="M126.045,144.194c-2.221-.639-4.441-1.3-6.673-1.919-5.638-1.557-11.265-3.162-16.951-4.6-1.1-.279-1.406-.6-1.4-1.686.048-6.138.023-12.277.035-18.415v-1.546H32.91v56.932h68.163v-1.488c-.012-6.185-.012-12.369-.035-18.554,0-.779,0-1.361,1.023-1.627,4.093-1.047,8.174-2.2,12.242-3.337,3.918-1.1,7.836-2.232,11.753-3.348,0-.14,0-.267-.011-.407" transform="translate(-2.199 -7.753)" fill="#f2f2f2"/>
            <g id="Grupo_1163481" data-name="Grupo 1163481" transform="translate(30.711 108.271)" opacity="0.21" style="mix-blend-mode: multiply;isolation: isolate">
              <g id="Grupo_1163480" data-name="Grupo 1163480">
                <g id="Grupo_1163479" data-name="Grupo 1163479" clip-path="url(#clip-path-47)">
                  <path id="Trazado_995912" data-name="Trazado 995912" d="M126.057,144.6c-3.918,1.116-7.837,2.243-11.753,3.348-4.07,1.139-8.151,2.29-12.243,3.337-1.024.267-1.024.848-1.024,1.627.023,6.185.023,12.369.035,18.554v1.488H32.91v-4.139c15.637,1.336,31.924,1.291,45.527-7.359,15.661-9.976,18.846-28.205,19.892-45.435h2.731v1.546c-.011,6.138.012,12.277-.035,18.415-.01,1.082.291,1.407,1.4,1.686,5.686,1.442,11.313,3.046,16.951,4.6,2.231.617,4.452,1.279,6.673,1.919.012.14.012.267.012.407" transform="translate(-32.91 -116.024)" fill="#cab1e6"/>
                </g>
              </g>
            </g>
            <path id="Trazado_995913" data-name="Trazado 995913" d="M69.419,122.3a13.972,13.972,0,0,0-10.673,4.29c-5.859,5.673-5.441,18.055,3.848,20.9a2.61,2.61,0,0,1,1.732,1.976q1.918,6.051,3.941,12.045c.163.454.651.79.988,1.185.372-.407.93-.755,1.094-1.232,1.313-3.813,2.616-7.638,3.766-11.51a3.684,3.684,0,0,1,2.581-2.744,10.05,10.05,0,0,0,6.6-7.522c2.221-9.126-4.406-17.392-13.881-17.392m-.2,20.833c-5.2.011-9.068-3.487-9.1-8.149A9.18,9.18,0,0,1,78.475,135c-.023,4.72-3.9,8.127-9.254,8.138" transform="translate(-3.667 -8.172)" fill="#a530fe"/>
            <path id="Trazado_995914" data-name="Trazado 995914" d="M84.485,133.886c-1.208-7.29-6.906-12.068-14.741-12.556a15.034,15.034,0,0,0-15.9,14.869c-.244,5.3,3.046,10.777,8.441,12.266.395.1.779.708.93,1.162,1.348,4.046,2.639,8.127,3.964,12.185.326.988.733,1.941,2.034,1.953s1.732-.907,2.058-1.919c1.326-4.057,2.616-8.126,3.976-12.184a2.042,2.042,0,0,1,1.046-1.221c6.278-1.942,9.243-8.313,8.2-14.556m-1.255,5.743a10.05,10.05,0,0,1-6.6,7.522,3.684,3.684,0,0,0-2.58,2.744c-1.152,3.872-2.453,7.7-3.767,11.51-.162.477-.72.825-1.093,1.232-.337-.395-.825-.733-.988-1.185q-2.023-6-3.941-12.045a2.61,2.61,0,0,0-1.732-1.976c-9.29-2.849-9.708-15.23-3.848-20.9a13.969,13.969,0,0,1,10.673-4.291c9.475,0,16.1,8.266,13.881,17.393" transform="translate(-3.597 -8.106)"/>
            <path id="Trazado_995915" data-name="Trazado 995915" d="M69.6,143.4c-5.2.007-9.072-3.491-9.1-8.152a9.175,9.175,0,0,1,18.349.016c-.014,4.717-3.891,8.129-9.248,8.136m-8.008-8.313c-.036,4.125,3.4,7.307,8,7.4,4.458.094,8.166-3.174,8.193-7.221A8.681,8.681,0,0,0,69.7,127c-4.04-.046-8.074,3.975-8.109,8.082" transform="translate(-4.042 -8.433)"/>
          </g>
        </g>
        <rect id="Rectángulo_413193" data-name="Rectángulo 413193" width="482.358" height="513.478" transform="translate(0)" fill="none"/>
      </g>
    </g>
  </g>
</svg>
