<svg xmlns="http://www.w3.org/2000/svg" xmlns:xlink="http://www.w3.org/1999/xlink" width="110" height="110" viewBox="0 0 110 110">
  <defs>
    <filter id="Trazado_982547" x="0" y="0" width="110" height="110" filterUnits="userSpaceOnUse">
      <feOffset dy="3" input="SourceAlpha"/>
      <feGaussianBlur stdDeviation="3" result="blur"/>
      <feFlood flood-opacity="0.161"/>
      <feComposite operator="in" in2="blur"/>
      <feComposite in="SourceGraphic"/>
    </filter>
  </defs>
  <g id="Grupo_1160676" data-name="Grupo 1160676" transform="translate(-378 -2329)">
    <g id="Grupo_1158890" data-name="Grupo 1158890" transform="translate(-423 -1476)">
      <g id="Grupo_1157405" data-name="Grupo 1157405" transform="translate(1 3016)">
        <g id="Grupo_1155792" data-name="Grupo 1155792" transform="translate(-1 -3894.666)">
          <g id="Grupo_1154703" data-name="Grupo 1154703" transform="translate(0 1465.666)">
            <g id="Grupo_1150789" data-name="Grupo 1150789" transform="translate(3 2320)">
              <g id="Grupo_1154212" data-name="Grupo 1154212" transform="translate(-236 -5809)">
                <g id="Grupo_1152583" data-name="Grupo 1152583" transform="translate(1043 6713)">
                  <g id="Grupo_1146973" data-name="Grupo 1146973" transform="translate(0 0)">
                    <g id="Grupo_1146954" data-name="Grupo 1146954">
                      <g transform="matrix(1, 0, 0, 1, -9, -6)" filter="url(#Trazado_982547)">
                        <g id="Trazado_982547-2" data-name="Trazado 982547" transform="translate(9 6)" fill="#f5e9fe">
                          <path d="M 46 90.49987030029297 C 39.99187850952148 90.49987030029297 34.16426849365234 89.32350921630859 28.67905426025391 87.00345611572266 C 23.38019943237305 84.76224517822266 18.62104034423828 81.55341339111328 14.53374671936035 77.46613311767578 C 10.44646644592285 73.37885284423828 7.237639904022217 68.61969757080078 4.996413230895996 63.32085418701172 C 2.676359891891479 57.83565521240234 1.5 52.008056640625 1.5 45.99993515014648 C 1.5 39.99181365966797 2.676359891891479 34.16421508789062 4.996413230895996 28.67901420593262 C 7.237639904022217 23.38017463684082 10.44646644592285 18.62101554870605 14.53374671936035 14.53373527526855 C 18.62104034423828 10.44645500183105 23.38019943237305 7.23762845993042 28.67905426025391 4.996415138244629 C 34.16426849365234 2.676361799240112 39.99187850952148 1.500001788139343 46 1.500001788139343 C 52.00812149047852 1.500001788139343 57.83573150634766 2.676361799240112 63.32094573974609 4.996415138244629 C 68.61979675292969 7.23762845993042 73.37895965576172 10.44645500183105 77.46625518798828 14.53373527526855 C 81.55353546142578 18.62101554870605 84.76235961914062 23.38017463684082 87.00358581542969 28.67901420593262 C 89.32363891601562 34.16421508789062 90.5 39.99181365966797 90.5 45.99993515014648 C 90.5 52.008056640625 89.32363891601562 57.83565521240234 87.00358581542969 63.32085418701172 C 84.76235961914062 68.61969757080078 81.55353546142578 73.37885284423828 77.46625518798828 77.46613311767578 C 73.37895965576172 81.55341339111328 68.61979675292969 84.76224517822266 63.32094573974609 87.00345611572266 C 57.83573150634766 89.32350921630859 52.00812149047852 90.49987030029297 46 90.49987030029297 Z" stroke="none"/>
                          <path d="M 46 2.999992370605469 C 40.1937141418457 2.999992370605469 34.56269836425781 4.136489868164062 29.26337051391602 6.377906799316406 C 24.14332580566406 8.543502807617188 19.54441070556641 11.64437866210938 15.59439849853516 15.59437561035156 C 11.64440155029297 19.54439544677734 8.54351806640625 24.14329528808594 6.377914428710938 29.26333618164062 C 4.136497497558594 34.56264877319336 3 40.19366455078125 3 45.99993515014648 C 3 51.80620574951172 4.136497497558594 57.43720626831055 6.377914428710938 62.73651885986328 C 8.54351806640625 67.8565673828125 11.64440155029297 72.45545959472656 15.59439849853516 76.40547943115234 C 19.54441070556641 80.35547637939453 24.14332580566406 83.45635223388672 29.26337051391602 85.6219482421875 C 34.56269836425781 87.86336517333984 40.1937141418457 88.99986267089844 46 88.99986267089844 C 51.8062858581543 88.99986267089844 57.43730163574219 87.86336517333984 62.73661422729492 85.6219482421875 C 67.85667419433594 83.45635223388672 72.45557403564453 80.35547637939453 76.40558624267578 76.40547943115234 C 80.35559844970703 72.45545959472656 83.45647430419922 67.8565673828125 85.6220703125 62.73651885986328 C 87.86350250244141 57.43720626831055 89 51.80620574951172 89 45.99993515014648 C 89 40.19366455078125 87.86350250244141 34.56264877319336 85.6220703125 29.26333618164062 C 83.45647430419922 24.14329528808594 80.35559844970703 19.54439544677734 76.40558624267578 15.59437561035156 C 72.45557403564453 11.64437866210938 67.85667419433594 8.543502807617188 62.73661422729492 6.377906799316406 C 57.43730163574219 4.136489868164062 51.8062858581543 2.999992370605469 46 2.999992370605469 M 46 -7.62939453125e-06 C 71.40509033203125 -7.62939453125e-06 92 20.59486389160156 92 45.99993515014648 C 92 71.40499114990234 71.40509033203125 91.99986267089844 46 91.99986267089844 C 20.59490203857422 91.99986267089844 0 71.40499114990234 0 45.99993515014648 C 0 20.59486389160156 20.59490203857422 -7.62939453125e-06 46 -7.62939453125e-06 Z" stroke="none" fill="#a530fe"/>
                        </g>
                      </g>
                    </g>
                  </g>
                </g>
              </g>
            </g>
          </g>
        </g>
      </g>
    </g>
    <g id="flujo-de-trabajo" transform="translate(400.99 2348.978)">
      <circle id="Elipse_11805" data-name="Elipse 11805" cx="20" cy="20" r="20" transform="translate(3 3)" fill="#4a8cdd"/>
      <circle id="Elipse_11806" data-name="Elipse 11806" cx="16" cy="16" r="16" transform="translate(7 7)" fill="#5cccbc"/>
      <path id="Trazado_994583" data-name="Trazado 994583" d="M33,54H61v6H33Z" fill="#b7b6b7"/>
      <path id="Trazado_994584" data-name="Trazado 994584" d="M47,34H61v6H47Z" fill="#b7b6b7"/>
      <path id="Trazado_994585" data-name="Trazado 994585" d="M47,24H61v6H47Z" fill="#f4f4f2"/>
      <path id="Trazado_994586" data-name="Trazado 994586" d="M47,14H61v6H47Z" transform="translate(108 34) rotate(180)" fill="#b7b6b7"/>
      <path id="Trazado_994587" data-name="Trazado 994587" d="M47,4H61v6H47Z" fill="#f4f4f2"/>
      <path id="Trazado_994588" data-name="Trazado 994588" d="M33,44H61v6H33Z" fill="#f4f4f2"/>
      <path id="Trazado_994589" data-name="Trazado 994589" d="M23,49a3,3,0,0,1,3,3v9H20V52A3,3,0,0,1,23,49Z" transform="translate(46 110) rotate(180)" fill="#bcae73"/>
      <path id="Trazado_994590" data-name="Trazado 994590" d="M23,49v7a3,3,0,0,0,2.82,3A3,3,0,0,1,20,58V49Z" fill="#7f754a"/>
      <path id="Trazado_994591" data-name="Trazado 994591" d="M13,23A16,16,0,0,1,26,7.29,16.41,16.41,0,0,0,23,7a16,16,0,0,0,0,32,16.41,16.41,0,0,0,3-.29A16,16,0,0,1,13,23Z" fill="#3eb5a7"/>
      <ellipse id="Elipse_11807" data-name="Elipse 11807" cx="2.54" cy="1.25" rx="2.54" ry="1.25" transform="translate(11.731 12.978) rotate(-28.821)" fill="#f7f7f7"/>
      <circle id="Elipse_11808" data-name="Elipse 11808" cx="1" cy="1" r="1" transform="translate(10.896 16.482) rotate(-73.795)" fill="#f7f7f7"/>
      <path id="Trazado_994592" data-name="Trazado 994592" d="M33,25V21H30.74a8.28,8.28,0,0,0-.85-2.06l1.6-1.6-2.83-2.83-1.6,1.6A8.28,8.28,0,0,0,25,15.26V13H21v2.26a8.28,8.28,0,0,0-2.06.85l-1.6-1.6-2.83,2.83,1.6,1.6A8.28,8.28,0,0,0,15.26,21H13v4h2.26a8.28,8.28,0,0,0,.85,2.06l-1.6,1.6,2.83,2.83,1.6-1.6a8.28,8.28,0,0,0,2.06.85V33h4V30.74a8.28,8.28,0,0,0,2.06-.85l1.6,1.6,2.83-2.83-1.6-1.6A8.28,8.28,0,0,0,30.74,25Z" fill="#fad55c"/>
      <path id="Trazado_994593" data-name="Trazado 994593" d="M33,25V21H30.74a8.28,8.28,0,0,0-.85-2.06l1.6-1.6-2.83-2.83-1.6,1.6A8.28,8.28,0,0,0,25,15.26V13H23V33h2V30.74a8.28,8.28,0,0,0,2.06-.85l1.6,1.6,2.83-2.83-1.6-1.6A8.28,8.28,0,0,0,30.74,25Z" fill="#edc045"/>
      <circle id="Elipse_11809" data-name="Elipse 11809" cx="4" cy="4" r="4" transform="translate(19 19)" fill="#5cccbc"/>
      <path id="Trazado_994594" data-name="Trazado 994594" d="M23,19a4,4,0,0,1,0,8" fill="#3eb5a7"/>
      <path id="Trazado_994595" data-name="Trazado 994595" d="M23,8V6A17,17,0,0,0,6,23H8A15,15,0,0,1,23,8Z"/>
      <path id="Trazado_994596" data-name="Trazado 994596" d="M23,38v2A17,17,0,0,0,40,23H38A15,15,0,0,1,23,38Z"/>
      <path id="Trazado_994597" data-name="Trazado 994597" d="M23,18a5,5,0,1,0,5,5A5,5,0,0,0,23,18Zm0,8a3,3,0,1,1,3-3A3,3,0,0,1,23,26Z"/>
      <path id="Trazado_994598" data-name="Trazado 994598" d="M61,3H47a1,1,0,0,0-1,1V6H44a1,1,0,0,0-.89.55l-2.51,5A21,21,0,1,0,22,44v4H20a1,1,0,0,0-1,1v9a4,4,0,0,0,8,0V49a1,1,0,0,0-1-1H24V44A21,21,0,0,0,44,23a20.76,20.76,0,0,0-2.22-9.33L44.62,8H46v2a1,1,0,0,0,1,1h6v2H47a1,1,0,0,0-1,1v6a1,1,0,0,0,1,1h6v2H47a1,1,0,0,0-1,1v6a1,1,0,0,0,1,1h6v2H47a1,1,0,0,0-1,1v6a1,1,0,0,0,1,1h6v2H33a1,1,0,0,0-1,1v6a1,1,0,0,0,1,1H46v2H33a1,1,0,0,0-1,1v6a1,1,0,0,0,1,1H61a1,1,0,0,0,1-1V54a1,1,0,0,0-1-1H48V51H61a1,1,0,0,0,1-1V44a1,1,0,0,0-1-1H55V41h6a1,1,0,0,0,1-1V34a1,1,0,0,0-1-1H55V31h6a1,1,0,0,0,1-1V24a1,1,0,0,0-1-1H55V21h6a1,1,0,0,0,1-1V14a1,1,0,0,0-1-1H55V11h6a1,1,0,0,0,1-1V4A1,1,0,0,0,61,3ZM25,58a2,2,0,0,1-4,0V50h4ZM42,23a19,19,0,1,1-2.46-9.32L35.38,22H34V21a1,1,0,0,0-1-1H31.48a9.158,9.158,0,0,0-.36-.87l1.07-1.08a1,1,0,0,0,0-1.41l-2.83-2.83a1,1,0,0,0-1.41,0l-1.08,1.07a9.158,9.158,0,0,0-.87-.36V13a1,1,0,0,0-1-1H21a1,1,0,0,0-1,1v1.52q-.45.17-.87.36l-1.08-1.07a1,1,0,0,0-1.41,0l-2.83,2.83a1,1,0,0,0,0,1.41l1.07,1.08a9.158,9.158,0,0,0-.36.87H13a1,1,0,0,0-1,1v4a1,1,0,0,0,1,1h1.52q.17.45.36.87L13.81,28a1,1,0,0,0,0,1.41l2.83,2.83a1,1,0,0,0,1.41,0l1.08-1.07q.42.19.87.36V33a1,1,0,0,0,1,1h4a1,1,0,0,0,1-1V31.48a9.158,9.158,0,0,0,.87-.36L28,32.19a1,1,0,0,0,1.41,0l2.83-2.83a1,1,0,0,0,0-1.41l-1.07-1.08q.19-.42.36-.87H33a1,1,0,0,0,1-1V24h2a1,1,0,0,0,.89-.55L40.63,16A18.66,18.66,0,0,1,42,23ZM29.18,27.76l.89.9-1.41,1.41-.9-.89A1,1,0,0,0,26.55,29a6.6,6.6,0,0,1-1.8.75,1,1,0,0,0-.75,1V32H22V30.74a1,1,0,0,0-.75-1,6.6,6.6,0,0,1-1.8-.75,1,1,0,0,0-1.21.16l-.9.89-1.41-1.41.89-.9A1,1,0,0,0,17,26.55a6.6,6.6,0,0,1-.75-1.8,1,1,0,0,0-1-.75H14V22h1.26a1,1,0,0,0,1-.75,6.6,6.6,0,0,1,.75-1.8,1,1,0,0,0-.16-1.21l-.89-.9,1.41-1.41.9.89a1,1,0,0,0,1.21.16,6.6,6.6,0,0,1,1.8-.75,1,1,0,0,0,.75-1V14h2v1.26a1,1,0,0,0,.75,1,6.6,6.6,0,0,1,1.8.75,1,1,0,0,0,1.21-.16l.9-.89,1.41,1.41-.89.9A1,1,0,0,0,29,19.45a6.6,6.6,0,0,1,.75,1.8,1,1,0,0,0,1,.75H32v2H30.74a1,1,0,0,0-1,.75,6.6,6.6,0,0,1-.75,1.8,1,1,0,0,0,.19,1.21ZM60,59H34V55H60Zm0-10H34V45H60Zm0-10H48V35H60Zm0-10H48V25H60Zm0-10H48V15H60ZM60,9H48V5H60Z"/>
      <path id="Trazado_994599" data-name="Trazado 994599" d="M25,6h2V8H25Z"/>
      <path id="Trazado_994600" data-name="Trazado 994600" d="M19,38h2v2H19Z"/>
    </g>
  </g>
</svg>
