<svg xmlns="http://www.w3.org/2000/svg" xmlns:xlink="http://www.w3.org/1999/xlink" width="110" height="110" viewBox="0 0 110 110">
  <defs>
    <filter id="Trazado_982547" x="0" y="0" width="110" height="110" filterUnits="userSpaceOnUse">
      <feOffset dy="3" input="SourceAlpha"/>
      <feGaussianBlur stdDeviation="3" result="blur"/>
      <feFlood flood-opacity="0.161"/>
      <feComposite operator="in" in2="blur"/>
      <feComposite in="SourceGraphic"/>
    </filter>
  </defs>
  <g id="Grupo_1160678" data-name="Grupo 1160678" transform="translate(-693 -2330)">
    <g id="Grupo_1158891" data-name="Grupo 1158891" transform="translate(-423 -1476)">
      <g id="Grupo_1157406" data-name="Grupo 1157406" transform="translate(1 3016)">
        <g id="Grupo_1155793" data-name="Grupo 1155793" transform="translate(-0.999 -3894)">
          <g id="Grupo_1154704" data-name="Grupo 1154704" transform="translate(0 1466)">
            <g id="Grupo_1150790" data-name="Grupo 1150790" transform="translate(3 2320)">
              <g id="Grupo_1154214" data-name="Grupo 1154214" transform="translate(79 -5809)">
                <g id="Grupo_1152583" data-name="Grupo 1152583" transform="translate(1043 6713)">
                  <g id="Grupo_1146973" data-name="Grupo 1146973" transform="translate(0 0)">
                    <g id="Grupo_1146954" data-name="Grupo 1146954">
                      <g transform="matrix(1, 0, 0, 1, -9, -6)" filter="url(#Trazado_982547)">
                        <g id="Trazado_982547-2" data-name="Trazado 982547" transform="translate(9 6)" fill="#f5e9fe">
                          <path d="M 46 90.49987030029297 C 39.99187850952148 90.49987030029297 34.16426849365234 89.32350921630859 28.67905426025391 87.00345611572266 C 23.38019943237305 84.76224517822266 18.62104034423828 81.55341339111328 14.53374671936035 77.46613311767578 C 10.44646644592285 73.37885284423828 7.237639904022217 68.61969757080078 4.996413230895996 63.32085418701172 C 2.676359891891479 57.83565521240234 1.5 52.008056640625 1.5 45.99993515014648 C 1.5 39.99181365966797 2.676359891891479 34.16421508789062 4.996413230895996 28.67901420593262 C 7.237639904022217 23.38017463684082 10.44646644592285 18.62101554870605 14.53374671936035 14.53373527526855 C 18.62104034423828 10.44645500183105 23.38019943237305 7.23762845993042 28.67905426025391 4.996415138244629 C 34.16426849365234 2.676361799240112 39.99187850952148 1.500001788139343 46 1.500001788139343 C 52.00812149047852 1.500001788139343 57.83573150634766 2.676361799240112 63.32094573974609 4.996415138244629 C 68.61979675292969 7.23762845993042 73.37895965576172 10.44645500183105 77.46625518798828 14.53373527526855 C 81.55353546142578 18.62101554870605 84.76235961914062 23.38017463684082 87.00358581542969 28.67901420593262 C 89.32363891601562 34.16421508789062 90.5 39.99181365966797 90.5 45.99993515014648 C 90.5 52.008056640625 89.32363891601562 57.83565521240234 87.00358581542969 63.32085418701172 C 84.76235961914062 68.61969757080078 81.55353546142578 73.37885284423828 77.46625518798828 77.46613311767578 C 73.37895965576172 81.55341339111328 68.61979675292969 84.76224517822266 63.32094573974609 87.00345611572266 C 57.83573150634766 89.32350921630859 52.00812149047852 90.49987030029297 46 90.49987030029297 Z" stroke="none"/>
                          <path d="M 46 2.999992370605469 C 40.1937141418457 2.999992370605469 34.56269836425781 4.136489868164062 29.26337051391602 6.377906799316406 C 24.14332580566406 8.543502807617188 19.54441070556641 11.64437866210938 15.59439849853516 15.59437561035156 C 11.64440155029297 19.54439544677734 8.54351806640625 24.14329528808594 6.377914428710938 29.26333618164062 C 4.136497497558594 34.56264877319336 3 40.19366455078125 3 45.99993515014648 C 3 51.80620574951172 4.136497497558594 57.43720626831055 6.377914428710938 62.73651885986328 C 8.54351806640625 67.8565673828125 11.64440155029297 72.45545959472656 15.59439849853516 76.40547943115234 C 19.54441070556641 80.35547637939453 24.14332580566406 83.45635223388672 29.26337051391602 85.6219482421875 C 34.56269836425781 87.86336517333984 40.1937141418457 88.99986267089844 46 88.99986267089844 C 51.8062858581543 88.99986267089844 57.43730163574219 87.86336517333984 62.73661422729492 85.6219482421875 C 67.85667419433594 83.45635223388672 72.45557403564453 80.35547637939453 76.40558624267578 76.40547943115234 C 80.35559844970703 72.45545959472656 83.45647430419922 67.8565673828125 85.6220703125 62.73651885986328 C 87.86350250244141 57.43720626831055 89 51.80620574951172 89 45.99993515014648 C 89 40.19366455078125 87.86350250244141 34.56264877319336 85.6220703125 29.26333618164062 C 83.45647430419922 24.14329528808594 80.35559844970703 19.54439544677734 76.40558624267578 15.59437561035156 C 72.45557403564453 11.64437866210938 67.85667419433594 8.543502807617188 62.73661422729492 6.377906799316406 C 57.43730163574219 4.136489868164062 51.8062858581543 2.999992370605469 46 2.999992370605469 M 46 -7.62939453125e-06 C 71.40509033203125 -7.62939453125e-06 92 20.59486389160156 92 45.99993515014648 C 92 71.40499114990234 71.40509033203125 91.99986267089844 46 91.99986267089844 C 20.59490203857422 91.99986267089844 0 71.40499114990234 0 45.99993515014648 C 0 20.59486389160156 20.59490203857422 -7.62939453125e-06 46 -7.62939453125e-06 Z" stroke="none" fill="#a530fe"/>
                        </g>
                      </g>
                    </g>
                  </g>
                </g>
              </g>
            </g>
          </g>
        </g>
      </g>
    </g>
    <g id="servicios-digitales" transform="translate(719 2353)">
      <path id="Trazado_994601" data-name="Trazado 994601" d="M21,29.39V8.791A1.791,1.791,0,0,1,22.791,7h30.45a1.791,1.791,0,0,1,1.791,1.791v20.6Z" transform="translate(-2.088 -0.627)" fill="#c8cded"/>
      <path id="Trazado_994602" data-name="Trazado 994602" d="M25,11H51.867V29.807H25Z" transform="translate(-2.506 -1.044)" fill="#e2e7f6"/>
      <path id="Trazado_994603" data-name="Trazado 994603" d="M16,56.329h7.165l5.373,3.582L57.2,53.643v-.9a3.582,3.582,0,0,0-3.582-3.582H32.12v-.233a1.791,1.791,0,0,0-.431-1.164L26.747,42H16Z" transform="translate(-1.566 -4.281)" fill="#fbe1ca"/>
      <path id="Trazado_994604" data-name="Trazado 994604" d="M2,40H9.165V59.7H2Z" transform="translate(-0.104 -4.072)" fill="#d5883e"/>
      <path id="Trazado_994605" data-name="Trazado 994605" d="M10,40h5.373V57.912H10Z" transform="translate(-0.94 -4.072)" fill="#f0ae42"/>
      <path id="Trazado_994606" data-name="Trazado 994606" d="M13.582,54.329V40H10V56.12h1.791A1.791,1.791,0,0,0,13.582,54.329Z" transform="translate(-0.94 -4.072)" fill="#f9d266"/>
      <path id="Trazado_994607" data-name="Trazado 994607" d="M18,32H57.406v3.582a1.791,1.791,0,0,1-1.791,1.791H19.791A1.791,1.791,0,0,1,18,35.582Z" transform="translate(-1.775 -3.237)" fill="#9da1bf"/>
      <path id="Trazado_994608" data-name="Trazado 994608" d="M48.7,13.643V10.06h-2a8.009,8.009,0,0,0-1.035-2.494l1.414-1.414L44.551,3.619,43.137,5.033A8.009,8.009,0,0,0,40.643,4V2H37.06V4a8.009,8.009,0,0,0-2.494,1.035L33.152,3.619,30.619,6.152l1.414,1.414A8.009,8.009,0,0,0,31,10.06H29v3.582h2a8.009,8.009,0,0,0,1.035,2.494l-1.414,1.414,2.533,2.533,1.414-1.414A8.009,8.009,0,0,0,37.06,19.7v2h3.582v-2a8.009,8.009,0,0,0,2.494-1.035l1.414,1.414,2.533-2.533-1.414-1.414A8.009,8.009,0,0,0,46.7,13.643Z" transform="translate(-2.924 -0.104)" fill="#5e87ca"/>
      <circle id="Elipse_11810" data-name="Elipse 11810" cx="4.5" cy="4.5" r="4.5" transform="translate(31.526 7)" fill="#e2e7f6"/>
      <path id="Trazado_994609" data-name="Trazado 994609" d="M2,16H23.494V26.747H2Z" transform="translate(-0.104 -1.566)" fill="#3b5892"/>
      <path id="Trazado_994610" data-name="Trazado 994610" d="M2,16H21.07v8.06H2Z" transform="translate(-0.104 -1.566)" fill="#4c6cb5"/>
      <g id="Grupo_1160677" data-name="Grupo 1160677" transform="translate(4.583 15.827)">
        <path id="Trazado_994611" data-name="Trazado 994611" d="M7.949,24.933,5.262,22.246a.9.9,0,0,1,0-1.266l2.687-2.687,1.266,1.266L7.162,21.613l2.054,2.054Z" transform="translate(-5 -17.633)" fill="#5e87ca"/>
        <path id="Trazado_994612" data-name="Trazado 994612" d="M19.559,24.933l-1.266-1.266,2.054-2.054-2.054-2.054,1.266-1.266,2.687,2.687a.9.9,0,0,1,0,1.266Z" transform="translate(-6.388 -17.633)" fill="#5e87ca"/>
        <path id="Trazado_994613" data-name="Trazado 994613" d="M0,0H8.01V1.791H0Z" transform="translate(5.458 7.161) rotate(-63.435)" fill="#5e87ca"/>
      </g>
      <path id="Trazado_994614" data-name="Trazado 994614" d="M52.048,47.956H31.36a2.692,2.692,0,0,0-.553-1.085L25.86,41.1a.9.9,0,0,0-.68-.313H15.329v-.9a.9.9,0,0,0-.9-.9H1.9a.9.9,0,0,0-.9.9V59.6a.9.9,0,0,0,.9.9H9.06a.9.9,0,0,0,.9-.9v-.9h4.478a.9.9,0,0,0,.9-.9v-.9h6l5.148,3.432a.9.9,0,0,0,.494.15.93.93,0,0,0,.192-.021L55.822,54.2a.9.9,0,0,0,.7-.875v-.9a4.483,4.483,0,0,0-4.478-4.478ZM8.165,58.7H2.791V40.791H8.165Zm5.373-1.791H9.956V40.791h3.582Zm41.2-4.3-27.584,6.03-5.056-3.372a.9.9,0,0,0-.5-.15H15.329V42.582h9.439l4.674,5.453a.9.9,0,0,1,.216.583v1.128a.9.9,0,0,1-.9.9H27.714a.9.9,0,0,1-.634-.262l-3.953-3.953-1.266,1.266,3.953,3.953a2.667,2.667,0,0,0,1.9.787h1.049a2.687,2.687,0,0,0,2.687-2.687h20.6a2.687,2.687,0,0,1,2.687,2.687Z" transform="translate(0 -3.968)"/>
      <path id="Trazado_994615" data-name="Trazado 994615" d="M55.63,27.867H53.839V8.165a2.687,2.687,0,0,0-2.687-2.687H44.835a.71.71,0,0,0-.042-.064L42.26,2.881a.9.9,0,0,0-1.266,0l-.93.93a8.9,8.9,0,0,0-1.45-.6V1.9a.9.9,0,0,0-.9-.9H34.136a.9.9,0,0,0-.9.9V3.209a8.9,8.9,0,0,0-1.45.6l-.93-.93a.9.9,0,0,0-1.266,0L27.061,5.414a.71.71,0,0,0-.041.064H20.7a2.687,2.687,0,0,0-2.687,2.687v5.373H1.9a.9.9,0,0,0-.9.9V25.181a.9.9,0,0,0,.9.9h16.12v1.791H16.225a.9.9,0,0,0-.9.9v3.582a2.687,2.687,0,0,0,2.687,2.687H53.839a2.687,2.687,0,0,0,2.687-2.687V28.763A.9.9,0,0,0,55.63,27.867Zm-3.582-19.7v19.7H50.257V9.956a.9.9,0,0,0-.9-.9h-4.9a8.9,8.9,0,0,0-.6-1.45l.341-.341h6.947a.9.9,0,0,1,.9.9ZM24.285,25.181V14.434a.9.9,0,0,0-.9-.9V10.851h1.791v2.687a.9.9,0,0,0,.9.9h1.313a8.9,8.9,0,0,0,.6,1.45l-.93.93a.9.9,0,0,0,0,1.266l2.534,2.534a.9.9,0,0,0,1.266,0l.93-.93a8.894,8.894,0,0,0,1.45.6V21.6a.9.9,0,0,0,.9.9h3.582a.9.9,0,0,0,.9-.9V20.285a8.894,8.894,0,0,0,1.45-.6l.93.931a.9.9,0,0,0,1.266,0l2.534-2.534a.9.9,0,0,0,0-1.266l-.929-.93a8.9,8.9,0,0,0,.6-1.45h1.313a.9.9,0,0,0,.9-.9V10.851h1.791V27.867H23.39V26.076A.9.9,0,0,0,24.285,25.181Zm4.662-15.026a7.09,7.09,0,0,1,.92-2.215.9.9,0,0,0-.124-1.111l-.781-.781,1.266-1.266.781.781a.9.9,0,0,0,1.111.124,7.09,7.09,0,0,1,2.215-.92.9.9,0,0,0,.7-.874v-1.1h1.791v1.1a.9.9,0,0,0,.7.874,7.09,7.09,0,0,1,2.215.92.9.9,0,0,0,1.111-.124l.781-.781,1.266,1.266-.781.781a.9.9,0,0,0-.124,1.111,7.09,7.09,0,0,1,.92,2.215.9.9,0,0,0,.874.7h1.1v1.791h-1.1a.9.9,0,0,0-.874.7,7.09,7.09,0,0,1-.92,2.215.9.9,0,0,0,.124,1.111l.781.781-1.266,1.266-.781-.781a.9.9,0,0,0-1.111-.124,7.1,7.1,0,0,1-2.215.92.9.9,0,0,0-.7.873v1.1H35.032V19.6a.9.9,0,0,0-.7-.873,7.1,7.1,0,0,1-2.215-.92.9.9,0,0,0-1.111.124l-.781.781-1.266-1.266.781-.781a.9.9,0,0,0,.124-1.111,7.09,7.09,0,0,1-.92-2.215.9.9,0,0,0-.874-.7h-1.1V10.851h1.1a.9.9,0,0,0,.874-.7Zm-9.14-1.99a.9.9,0,0,1,.9-.9H27.65l.341.341a8.9,8.9,0,0,0-.6,1.45h-4.9a.9.9,0,0,0-.9.9v3.582H19.807ZM2.791,15.329h19.7v8.956H2.791ZM19.807,26.076H21.6v1.791H19.807Zm34.928,6.269a.9.9,0,0,1-.9.9H18.016a.9.9,0,0,1-.9-.9V29.659H54.735Z" transform="translate(0)"/>
      <path id="Trazado_994616" data-name="Trazado 994616" d="M39.373,17.747A5.373,5.373,0,1,0,34,12.373,5.373,5.373,0,0,0,39.373,17.747Zm0-8.956a3.582,3.582,0,1,1-3.582,3.582A3.582,3.582,0,0,1,39.373,8.791Z" transform="translate(-3.446 -0.627)"/>
      <path id="Trazado_994617" data-name="Trazado 994617" d="M7.949,18.293,5.262,20.98a.9.9,0,0,0,0,1.266l2.687,2.687,1.266-1.266L7.162,21.613l2.054-2.054Z" transform="translate(-0.418 -1.806)"/>
      <path id="Trazado_994618" data-name="Trazado 994618" d="M19.559,18.293l-1.266,1.266,2.054,2.054-2.054,2.054,1.266,1.266,2.687-2.687a.9.9,0,0,0,0-1.266Z" transform="translate(-1.806 -1.806)"/>
      <path id="Trazado_994619" data-name="Trazado 994619" d="M0,0H8.01V1.791H0Z" transform="translate(10.041 22.988) rotate(-63.435)"/>
    </g>
  </g>
</svg>
